# generated by meshlib
mtllib ticket_machine.mtl
o ticket_machine
v 0.39000 0.02500 -0.25000
v 0.39000 1.52500 -0.25000
v 0.39000 1.52500 0.25000
v 0.39000 0.02500 0.25000
v -0.39000 0.02500 0.25000
v -0.39000 1.52500 0.25000
v -0.39000 1.52500 -0.25000
v -0.39000 0.02500 -0.25000
v -0.36500 1.55000 0.25000
v 0.36500 1.55000 0.25000
v 0.36500 1.55000 -0.25000
v -0.36500 1.55000 -0.25000
v -0.36500 0.00000 -0.25000
v 0.36500 0.00000 -0.25000
v 0.36500 0.00000 0.25000
v -0.36500 0.00000 0.25000
v -0.36500 0.02500 0.27500
v 0.36500 0.02500 0.27500
v 0.36500 1.52500 0.27500
v -0.36500 1.52500 0.27500
v -0.36500 1.52500 -0.27500
v 0.36500 1.52500 -0.27500
v 0.36500 0.02500 -0.27500
v -0.36500 0.02500 -0.27500
v -0.39000 0.00000 -0.25000
v 0.39000 0.00000 -0.25000
v 0.39000 0.02500 -0.27500
v -0.39000 0.02500 -0.27500
v -0.39000 0.00000 0.25000
v 0.39000 0.00000 0.25000
v 0.39000 0.02500 0.27500
v -0.39000 0.02500 0.27500
v -0.39000 1.55000 -0.25000
v 0.39000 1.55000 -0.25000
v 0.39000 1.52500 -0.27500
v -0.39000 1.52500 -0.27500
v -0.39000 1.55000 0.25000
v 0.39000 1.55000 0.25000
v 0.39000 1.52500 0.27500
v -0.39000 1.52500 0.27500
v -0.39000 0.00000 -0.25000
v -0.39000 1.55000 -0.25000
v -0.36500 1.55000 -0.27500
v -0.36500 0.00000 -0.27500
v -0.39000 0.00000 0.25000
v -0.39000 1.55000 0.25000
v -0.36500 1.55000 0.27500
v -0.36500 0.00000 0.27500
v 0.39000 0.00000 -0.25000
v 0.39000 1.55000 -0.25000
v 0.36500 1.55000 -0.27500
v 0.36500 0.00000 -0.27500
v 0.39000 0.00000 0.25000
v 0.39000 1.55000 0.25000
v 0.36500 1.55000 0.27500
v 0.36500 0.00000 0.27500
v -0.39000 0.02500 -0.27500
v -0.39000 0.02500 0.27500
v -0.36500 0.00000 0.27500
v -0.36500 0.00000 -0.27500
v -0.39000 1.52500 -0.27500
v -0.39000 1.52500 0.27500
v -0.36500 1.55000 0.27500
v -0.36500 1.55000 -0.27500
v 0.39000 0.02500 -0.27500
v 0.39000 0.02500 0.27500
v 0.36500 0.00000 0.27500
v 0.36500 0.00000 -0.27500
v 0.39000 1.52500 -0.27500
v 0.39000 1.52500 0.27500
v 0.36500 1.55000 0.27500
v 0.36500 1.55000 -0.27500
v -0.39000 0.02500 -0.25000
v -0.36500 0.00000 -0.25000
v -0.36500 0.02500 -0.27500
v -0.39000 0.02500 0.25000
v -0.36500 0.00000 0.25000
v -0.36500 0.02500 0.27500
v -0.39000 1.52500 -0.25000
v -0.36500 1.55000 -0.25000
v -0.36500 1.52500 -0.27500
v -0.39000 1.52500 0.25000
v -0.36500 1.55000 0.25000
v -0.36500 1.52500 0.27500
v 0.39000 0.02500 -0.25000
v 0.36500 0.00000 -0.25000
v 0.36500 0.02500 -0.27500
v 0.39000 0.02500 0.25000
v 0.36500 0.00000 0.25000
v 0.36500 0.02500 0.27500
v 0.39000 1.52500 -0.25000
v 0.36500 1.55000 -0.25000
v 0.36500 1.52500 -0.27500
v 0.39000 1.52500 0.25000
v 0.36500 1.55000 0.25000
v 0.36500 1.52500 0.27500
v -0.37000 1.02000 0.25500
v 0.37000 1.02000 0.25500
v 0.37000 1.30000 0.37500
v -0.37000 1.30000 0.37500
v 0.37000 1.02000 0.25500
v 0.37000 1.03182 0.22743
v 0.37000 1.31182 0.34743
v 0.37000 1.30000 0.37500
v 0.37000 1.03182 0.22743
v -0.37000 1.03182 0.22743
v -0.37000 1.31182 0.34743
v 0.37000 1.31182 0.34743
v -0.37000 1.03182 0.22743
v -0.37000 1.02000 0.25500
v -0.37000 1.30000 0.37500
v -0.37000 1.31182 0.34743
v -0.37000 1.03182 0.22743
v 0.37000 1.03182 0.22743
v 0.37000 1.02000 0.25500
v -0.37000 1.02000 0.25500
v -0.37000 1.30000 0.37500
v 0.37000 1.30000 0.37500
v 0.37000 1.31182 0.34743
v -0.37000 1.31182 0.34743
v 0.22000 1.03000 0.34500
v 0.22000 1.03000 0.32500
v 0.22000 1.33000 0.32500
v 0.22000 1.33000 0.34500
v -0.22000 1.03000 0.32500
v -0.22000 1.03000 0.34500
v -0.22000 1.33000 0.34500
v -0.22000 1.33000 0.32500
v -0.22000 1.33000 0.34500
v 0.22000 1.33000 0.34500
v 0.22000 1.33000 0.32500
v -0.22000 1.33000 0.32500
v -0.22000 1.03000 0.32500
v 0.22000 1.03000 0.32500
v 0.22000 1.03000 0.34500
v -0.22000 1.03000 0.34500
v -0.22000 1.03000 0.34500
v 0.22000 1.03000 0.34500
v 0.22000 1.33000 0.34500
v -0.22000 1.33000 0.34500
v 0.22000 1.03000 0.32500
v -0.22000 1.03000 0.32500
v -0.22000 1.33000 0.32500
v 0.22000 1.33000 0.32500
v -0.06000 0.91500 0.30250
v -0.06000 0.91500 0.28750
v -0.06000 0.96500 0.28750
v -0.06000 0.96500 0.30250
v -0.12000 0.91500 0.28750
v -0.12000 0.91500 0.30250
v -0.12000 0.96500 0.30250
v -0.12000 0.96500 0.28750
v -0.12000 0.96500 0.30250
v -0.06000 0.96500 0.30250
v -0.06000 0.96500 0.28750
v -0.12000 0.96500 0.28750
v -0.12000 0.91500 0.28750
v -0.06000 0.91500 0.28750
v -0.06000 0.91500 0.30250
v -0.12000 0.91500 0.30250
v -0.12000 0.91500 0.30250
v -0.06000 0.91500 0.30250
v -0.06000 0.96500 0.30250
v -0.12000 0.96500 0.30250
v -0.06000 0.91500 0.28750
v -0.12000 0.91500 0.28750
v -0.12000 0.96500 0.28750
v -0.06000 0.96500 0.28750
v 0.03000 0.91500 0.30250
v 0.03000 0.91500 0.28750
v 0.03000 0.96500 0.28750
v 0.03000 0.96500 0.30250
v -0.03000 0.91500 0.28750
v -0.03000 0.91500 0.30250
v -0.03000 0.96500 0.30250
v -0.03000 0.96500 0.28750
v -0.03000 0.96500 0.30250
v 0.03000 0.96500 0.30250
v 0.03000 0.96500 0.28750
v -0.03000 0.96500 0.28750
v -0.03000 0.91500 0.28750
v 0.03000 0.91500 0.28750
v 0.03000 0.91500 0.30250
v -0.03000 0.91500 0.30250
v -0.03000 0.91500 0.30250
v 0.03000 0.91500 0.30250
v 0.03000 0.96500 0.30250
v -0.03000 0.96500 0.30250
v 0.03000 0.91500 0.28750
v -0.03000 0.91500 0.28750
v -0.03000 0.96500 0.28750
v 0.03000 0.96500 0.28750
v 0.12000 0.91500 0.30250
v 0.12000 0.91500 0.28750
v 0.12000 0.96500 0.28750
v 0.12000 0.96500 0.30250
v 0.06000 0.91500 0.28750
v 0.06000 0.91500 0.30250
v 0.06000 0.96500 0.30250
v 0.06000 0.96500 0.28750
v 0.06000 0.96500 0.30250
v 0.12000 0.96500 0.30250
v 0.12000 0.96500 0.28750
v 0.06000 0.96500 0.28750
v 0.06000 0.91500 0.28750
v 0.12000 0.91500 0.28750
v 0.12000 0.91500 0.30250
v 0.06000 0.91500 0.30250
v 0.06000 0.91500 0.30250
v 0.12000 0.91500 0.30250
v 0.12000 0.96500 0.30250
v 0.06000 0.96500 0.30250
v 0.12000 0.91500 0.28750
v 0.06000 0.91500 0.28750
v 0.06000 0.96500 0.28750
v 0.12000 0.96500 0.28750
v -0.06000 0.84000 0.30250
v -0.06000 0.84000 0.28750
v -0.06000 0.89000 0.28750
v -0.06000 0.89000 0.30250
v -0.12000 0.84000 0.28750
v -0.12000 0.84000 0.30250
v -0.12000 0.89000 0.30250
v -0.12000 0.89000 0.28750
v -0.12000 0.89000 0.30250
v -0.06000 0.89000 0.30250
v -0.06000 0.89000 0.28750
v -0.12000 0.89000 0.28750
v -0.12000 0.84000 0.28750
v -0.06000 0.84000 0.28750
v -0.06000 0.84000 0.30250
v -0.12000 0.84000 0.30250
v -0.12000 0.84000 0.30250
v -0.06000 0.84000 0.30250
v -0.06000 0.89000 0.30250
v -0.12000 0.89000 0.30250
v -0.06000 0.84000 0.28750
v -0.12000 0.84000 0.28750
v -0.12000 0.89000 0.28750
v -0.06000 0.89000 0.28750
v 0.03000 0.84000 0.30250
v 0.03000 0.84000 0.28750
v 0.03000 0.89000 0.28750
v 0.03000 0.89000 0.30250
v -0.03000 0.84000 0.28750
v -0.03000 0.84000 0.30250
v -0.03000 0.89000 0.30250
v -0.03000 0.89000 0.28750
v -0.03000 0.89000 0.30250
v 0.03000 0.89000 0.30250
v 0.03000 0.89000 0.28750
v -0.03000 0.89000 0.28750
v -0.03000 0.84000 0.28750
v 0.03000 0.84000 0.28750
v 0.03000 0.84000 0.30250
v -0.03000 0.84000 0.30250
v -0.03000 0.84000 0.30250
v 0.03000 0.84000 0.30250
v 0.03000 0.89000 0.30250
v -0.03000 0.89000 0.30250
v 0.03000 0.84000 0.28750
v -0.03000 0.84000 0.28750
v -0.03000 0.89000 0.28750
v 0.03000 0.89000 0.28750
v 0.12000 0.84000 0.30250
v 0.12000 0.84000 0.28750
v 0.12000 0.89000 0.28750
v 0.12000 0.89000 0.30250
v 0.06000 0.84000 0.28750
v 0.06000 0.84000 0.30250
v 0.06000 0.89000 0.30250
v 0.06000 0.89000 0.28750
v 0.06000 0.89000 0.30250
v 0.12000 0.89000 0.30250
v 0.12000 0.89000 0.28750
v 0.06000 0.89000 0.28750
v 0.06000 0.84000 0.28750
v 0.12000 0.84000 0.28750
v 0.12000 0.84000 0.30250
v 0.06000 0.84000 0.30250
v 0.06000 0.84000 0.30250
v 0.12000 0.84000 0.30250
v 0.12000 0.89000 0.30250
v 0.06000 0.89000 0.30250
v 0.12000 0.84000 0.28750
v 0.06000 0.84000 0.28750
v 0.06000 0.89000 0.28750
v 0.12000 0.89000 0.28750
v -0.06000 0.76500 0.30250
v -0.06000 0.76500 0.28750
v -0.06000 0.81500 0.28750
v -0.06000 0.81500 0.30250
v -0.12000 0.76500 0.28750
v -0.12000 0.76500 0.30250
v -0.12000 0.81500 0.30250
v -0.12000 0.81500 0.28750
v -0.12000 0.81500 0.30250
v -0.06000 0.81500 0.30250
v -0.06000 0.81500 0.28750
v -0.12000 0.81500 0.28750
v -0.12000 0.76500 0.28750
v -0.06000 0.76500 0.28750
v -0.06000 0.76500 0.30250
v -0.12000 0.76500 0.30250
v -0.12000 0.76500 0.30250
v -0.06000 0.76500 0.30250
v -0.06000 0.81500 0.30250
v -0.12000 0.81500 0.30250
v -0.06000 0.76500 0.28750
v -0.12000 0.76500 0.28750
v -0.12000 0.81500 0.28750
v -0.06000 0.81500 0.28750
v 0.03000 0.76500 0.30250
v 0.03000 0.76500 0.28750
v 0.03000 0.81500 0.28750
v 0.03000 0.81500 0.30250
v -0.03000 0.76500 0.28750
v -0.03000 0.76500 0.30250
v -0.03000 0.81500 0.30250
v -0.03000 0.81500 0.28750
v -0.03000 0.81500 0.30250
v 0.03000 0.81500 0.30250
v 0.03000 0.81500 0.28750
v -0.03000 0.81500 0.28750
v -0.03000 0.76500 0.28750
v 0.03000 0.76500 0.28750
v 0.03000 0.76500 0.30250
v -0.03000 0.76500 0.30250
v -0.03000 0.76500 0.30250
v 0.03000 0.76500 0.30250
v 0.03000 0.81500 0.30250
v -0.03000 0.81500 0.30250
v 0.03000 0.76500 0.28750
v -0.03000 0.76500 0.28750
v -0.03000 0.81500 0.28750
v 0.03000 0.81500 0.28750
v 0.12000 0.76500 0.30250
v 0.12000 0.76500 0.28750
v 0.12000 0.81500 0.28750
v 0.12000 0.81500 0.30250
v 0.06000 0.76500 0.28750
v 0.06000 0.76500 0.30250
v 0.06000 0.81500 0.30250
v 0.06000 0.81500 0.28750
v 0.06000 0.81500 0.30250
v 0.12000 0.81500 0.30250
v 0.12000 0.81500 0.28750
v 0.06000 0.81500 0.28750
v 0.06000 0.76500 0.28750
v 0.12000 0.76500 0.28750
v 0.12000 0.76500 0.30250
v 0.06000 0.76500 0.30250
v 0.06000 0.76500 0.30250
v 0.12000 0.76500 0.30250
v 0.12000 0.81500 0.30250
v 0.06000 0.81500 0.30250
v 0.12000 0.76500 0.28750
v 0.06000 0.76500 0.28750
v 0.06000 0.81500 0.28750
v 0.12000 0.81500 0.28750
v -0.06000 0.69000 0.30250
v -0.06000 0.69000 0.28750
v -0.06000 0.74000 0.28750
v -0.06000 0.74000 0.30250
v -0.12000 0.69000 0.28750
v -0.12000 0.69000 0.30250
v -0.12000 0.74000 0.30250
v -0.12000 0.74000 0.28750
v -0.12000 0.74000 0.30250
v -0.06000 0.74000 0.30250
v -0.06000 0.74000 0.28750
v -0.12000 0.74000 0.28750
v -0.12000 0.69000 0.28750
v -0.06000 0.69000 0.28750
v -0.06000 0.69000 0.30250
v -0.12000 0.69000 0.30250
v -0.12000 0.69000 0.30250
v -0.06000 0.69000 0.30250
v -0.06000 0.74000 0.30250
v -0.12000 0.74000 0.30250
v -0.06000 0.69000 0.28750
v -0.12000 0.69000 0.28750
v -0.12000 0.74000 0.28750
v -0.06000 0.74000 0.28750
v 0.03000 0.69000 0.30250
v 0.03000 0.69000 0.28750
v 0.03000 0.74000 0.28750
v 0.03000 0.74000 0.30250
v -0.03000 0.69000 0.28750
v -0.03000 0.69000 0.30250
v -0.03000 0.74000 0.30250
v -0.03000 0.74000 0.28750
v -0.03000 0.74000 0.30250
v 0.03000 0.74000 0.30250
v 0.03000 0.74000 0.28750
v -0.03000 0.74000 0.28750
v -0.03000 0.69000 0.28750
v 0.03000 0.69000 0.28750
v 0.03000 0.69000 0.30250
v -0.03000 0.69000 0.30250
v -0.03000 0.69000 0.30250
v 0.03000 0.69000 0.30250
v 0.03000 0.74000 0.30250
v -0.03000 0.74000 0.30250
v 0.03000 0.69000 0.28750
v -0.03000 0.69000 0.28750
v -0.03000 0.74000 0.28750
v 0.03000 0.74000 0.28750
v 0.12000 0.69000 0.30250
v 0.12000 0.69000 0.28750
v 0.12000 0.74000 0.28750
v 0.12000 0.74000 0.30250
v 0.06000 0.69000 0.28750
v 0.06000 0.69000 0.30250
v 0.06000 0.74000 0.30250
v 0.06000 0.74000 0.28750
v 0.06000 0.74000 0.30250
v 0.12000 0.74000 0.30250
v 0.12000 0.74000 0.28750
v 0.06000 0.74000 0.28750
v 0.06000 0.69000 0.28750
v 0.12000 0.69000 0.28750
v 0.12000 0.69000 0.30250
v 0.06000 0.69000 0.30250
v 0.06000 0.69000 0.30250
v 0.12000 0.69000 0.30250
v 0.12000 0.74000 0.30250
v 0.06000 0.74000 0.30250
v 0.12000 0.69000 0.28750
v 0.06000 0.69000 0.28750
v 0.06000 0.74000 0.28750
v 0.12000 0.74000 0.28750
v 0.29000 0.83000 0.30500
v 0.29000 0.83000 0.28500
v 0.29000 0.97000 0.28500
v 0.29000 0.97000 0.30500
v 0.19000 0.83000 0.28500
v 0.19000 0.83000 0.30500
v 0.19000 0.97000 0.30500
v 0.19000 0.97000 0.28500
v 0.19000 0.97000 0.30500
v 0.29000 0.97000 0.30500
v 0.29000 0.97000 0.28500
v 0.19000 0.97000 0.28500
v 0.19000 0.83000 0.28500
v 0.29000 0.83000 0.28500
v 0.29000 0.83000 0.30500
v 0.19000 0.83000 0.30500
v 0.19000 0.83000 0.30500
v 0.29000 0.83000 0.30500
v 0.29000 0.97000 0.30500
v 0.19000 0.97000 0.30500
v 0.29000 0.83000 0.28500
v 0.19000 0.83000 0.28500
v 0.19000 0.97000 0.28500
v 0.29000 0.97000 0.28500
v -0.18500 0.84500 0.30500
v -0.18500 0.84500 0.28500
v -0.18500 0.87500 0.28500
v -0.18500 0.87500 0.30500
v -0.29500 0.84500 0.28500
v -0.29500 0.84500 0.30500
v -0.29500 0.87500 0.30500
v -0.29500 0.87500 0.28500
v -0.29500 0.87500 0.30500
v -0.18500 0.87500 0.30500
v -0.18500 0.87500 0.28500
v -0.29500 0.87500 0.28500
v -0.29500 0.84500 0.28500
v -0.18500 0.84500 0.28500
v -0.18500 0.84500 0.30500
v -0.29500 0.84500 0.30500
v -0.29500 0.84500 0.30500
v -0.18500 0.84500 0.30500
v -0.18500 0.87500 0.30500
v -0.29500 0.87500 0.30500
v -0.18500 0.84500 0.28500
v -0.29500 0.84500 0.28500
v -0.29500 0.87500 0.28500
v -0.18500 0.87500 0.28500
v 0.14000 0.52000 0.28500
v 0.14000 0.52000 0.18500
v 0.14000 0.64000 0.18500
v 0.14000 0.64000 0.28500
v -0.14000 0.52000 0.18500
v -0.14000 0.52000 0.28500
v -0.14000 0.64000 0.28500
v -0.14000 0.64000 0.18500
v -0.14000 0.64000 0.28500
v 0.14000 0.64000 0.28500
v 0.14000 0.64000 0.18500
v -0.14000 0.64000 0.18500
v -0.14000 0.52000 0.18500
v 0.14000 0.52000 0.18500
v 0.14000 0.52000 0.28500
v -0.14000 0.52000 0.28500
v -0.14000 0.52000 0.28500
v 0.14000 0.52000 0.28500
v 0.14000 0.64000 0.28500
v -0.14000 0.64000 0.28500
v 0.39500 0.00000 0.28000
v 0.39500 0.00000 -0.28000
v 0.39500 0.16000 -0.28000
v 0.39500 0.16000 0.28000
v -0.39500 0.00000 -0.28000
v -0.39500 0.00000 0.28000
v -0.39500 0.16000 0.28000
v -0.39500 0.16000 -0.28000
v -0.39500 0.16000 0.28000
v 0.39500 0.16000 0.28000
v 0.39500 0.16000 -0.28000
v -0.39500 0.16000 -0.28000
v -0.39500 0.00000 -0.28000
v 0.39500 0.00000 -0.28000
v 0.39500 0.00000 0.28000
v -0.39500 0.00000 0.28000
v -0.39500 0.00000 0.28000
v 0.39500 0.00000 0.28000
v 0.39500 0.16000 0.28000
v -0.39500 0.16000 0.28000
v 0.39500 0.00000 -0.28000
v -0.39500 0.00000 -0.28000
v -0.39500 0.16000 -0.28000
v 0.39500 0.16000 -0.28000
v 0.32000 1.37000 0.26500
v 0.32000 1.37000 0.24500
v 0.32000 1.51000 0.24500
v 0.32000 1.51000 0.26500
v -0.32000 1.37000 0.24500
v -0.32000 1.37000 0.26500
v -0.32000 1.51000 0.26500
v -0.32000 1.51000 0.24500
v -0.32000 1.51000 0.26500
v 0.32000 1.51000 0.26500
v 0.32000 1.51000 0.24500
v -0.32000 1.51000 0.24500
v -0.32000 1.37000 0.24500
v 0.32000 1.37000 0.24500
v 0.32000 1.37000 0.26500
v -0.32000 1.37000 0.26500
v -0.32000 1.37000 0.26500
v 0.32000 1.37000 0.26500
v 0.32000 1.51000 0.26500
v -0.32000 1.51000 0.26500
v 0.32000 1.37000 0.24500
v -0.32000 1.37000 0.24500
v -0.32000 1.51000 0.24500
v 0.32000 1.51000 0.24500
vt -1.50000 -0.50000
vt 1.50000 -0.50000
vt 1.50000 0.50000
vt -1.50000 0.50000
vt -1.50000 0.50000
vt 1.50000 0.50000
vt 1.50000 -0.50000
vt -1.50000 -0.50000
vt -0.73000 0.50000
vt 0.73000 0.50000
vt 0.73000 -0.50000
vt -0.73000 -0.50000
vt -0.73000 -0.50000
vt 0.73000 -0.50000
vt 0.73000 0.50000
vt -0.73000 0.50000
vt -0.73000 -1.50000
vt 0.73000 -1.50000
vt 0.73000 1.50000
vt -0.73000 1.50000
vt -0.73000 1.50000
vt 0.73000 1.50000
vt 0.73000 -1.50000
vt -0.73000 -1.50000
vt 0.00000 0.00000
vt 1.56000 0.00000
vt 1.56000 0.05000
vt 0.00000 0.05000
vt 0.00000 0.00000
vt 1.56000 0.00000
vt 1.56000 0.05000
vt 0.00000 0.05000
vt 0.00000 0.00000
vt 1.56000 0.00000
vt 1.56000 0.05000
vt 0.00000 0.05000
vt 0.00000 0.00000
vt 1.56000 0.00000
vt 1.56000 0.05000
vt 0.00000 0.05000
vt 0.00000 0.00000
vt 3.10000 0.00000
vt 3.10000 0.05000
vt 0.00000 0.05000
vt 0.00000 0.00000
vt 3.10000 0.00000
vt 3.10000 0.05000
vt 0.00000 0.05000
vt 0.00000 0.00000
vt 3.10000 0.00000
vt 3.10000 0.05000
vt 0.00000 0.05000
vt 0.00000 0.00000
vt 3.10000 0.00000
vt 3.10000 0.05000
vt 0.00000 0.05000
vt 0.00000 0.00000
vt 1.10000 0.00000
vt 1.10000 0.05000
vt 0.00000 0.05000
vt 0.00000 0.00000
vt 1.10000 0.00000
vt 1.10000 0.05000
vt 0.00000 0.05000
vt 0.00000 0.00000
vt 1.10000 0.00000
vt 1.10000 0.05000
vt 0.00000 0.05000
vt 0.00000 0.00000
vt 1.10000 0.00000
vt 1.10000 0.05000
vt 0.00000 0.05000
vt 0.00000 0.00000
vt 0.05000 0.00000
vt 0.00000 0.05000
vt 0.00000 0.00000
vt 0.05000 0.00000
vt 0.00000 0.05000
vt 0.00000 0.00000
vt 0.05000 0.00000
vt 0.00000 0.05000
vt 0.00000 0.00000
vt 0.05000 0.00000
vt 0.00000 0.05000
vt 0.00000 0.00000
vt 0.05000 0.00000
vt 0.00000 0.05000
vt 0.00000 0.00000
vt 0.05000 0.00000
vt 0.00000 0.05000
vt 0.00000 0.00000
vt 0.05000 0.00000
vt 0.00000 0.05000
vt 0.00000 0.00000
vt 0.05000 0.00000
vt 0.00000 0.05000
vt 0.00000 0.00000
vt 2.46667 0.00000
vt 2.46667 1.01544
vt 0.00000 1.01544
vt 2.46667 0.00000
vt 2.56667 0.00000
vt 2.56667 1.01544
vt 2.46667 1.01544
vt 2.56667 0.00000
vt 5.03333 0.00000
vt 5.03333 1.01544
vt 2.56667 1.01544
vt 5.03333 0.00000
vt 5.13333 0.00000
vt 5.13333 1.01544
vt 5.03333 1.01544
vt -1.23333 0.10000
vt 1.23333 0.10000
vt 1.23333 0.00000
vt -1.23333 0.00000
vt -1.23333 0.00000
vt 1.23333 0.00000
vt 1.23333 0.10000
vt -1.23333 0.10000
vt -1.15000 3.43333
vt -1.08333 3.43333
vt -1.08333 4.43333
vt -1.15000 4.43333
vt 1.08333 3.43333
vt 1.15000 3.43333
vt 1.15000 4.43333
vt 1.08333 4.43333
vt -0.73333 -1.15000
vt 0.73333 -1.15000
vt 0.73333 -1.08333
vt -0.73333 -1.08333
vt -0.73333 1.08333
vt 0.73333 1.08333
vt 0.73333 1.15000
vt -0.73333 1.15000
vt -0.73333 3.43333
vt 0.73333 3.43333
vt 0.73333 4.43333
vt -0.73333 4.43333
vt -0.73333 3.43333
vt 0.73333 3.43333
vt 0.73333 4.43333
vt -0.73333 4.43333
vt -3.02500 9.15000
vt -2.87500 9.15000
vt -2.87500 9.65000
vt -3.02500 9.65000
vt 2.87500 9.15000
vt 3.02500 9.15000
vt 3.02500 9.65000
vt 2.87500 9.65000
vt -1.20000 -3.02500
vt -0.60000 -3.02500
vt -0.60000 -2.87500
vt -1.20000 -2.87500
vt -1.20000 2.87500
vt -0.60000 2.87500
vt -0.60000 3.02500
vt -1.20000 3.02500
vt -1.20000 9.15000
vt -0.60000 9.15000
vt -0.60000 9.65000
vt -1.20000 9.65000
vt 0.60000 9.15000
vt 1.20000 9.15000
vt 1.20000 9.65000
vt 0.60000 9.65000
vt -3.02500 9.15000
vt -2.87500 9.15000
vt -2.87500 9.65000
vt -3.02500 9.65000
vt 2.87500 9.15000
vt 3.02500 9.15000
vt 3.02500 9.65000
vt 2.87500 9.65000
vt -0.30000 -3.02500
vt 0.30000 -3.02500
vt 0.30000 -2.87500
vt -0.30000 -2.87500
vt -0.30000 2.87500
vt 0.30000 2.87500
vt 0.30000 3.02500
vt -0.30000 3.02500
vt -0.30000 9.15000
vt 0.30000 9.15000
vt 0.30000 9.65000
vt -0.30000 9.65000
vt -0.30000 9.15000
vt 0.30000 9.15000
vt 0.30000 9.65000
vt -0.30000 9.65000
vt -3.02500 9.15000
vt -2.87500 9.15000
vt -2.87500 9.65000
vt -3.02500 9.65000
vt 2.87500 9.15000
vt 3.02500 9.15000
vt 3.02500 9.65000
vt 2.87500 9.65000
vt 0.60000 -3.02500
vt 1.20000 -3.02500
vt 1.20000 -2.87500
vt 0.60000 -2.87500
vt 0.60000 2.87500
vt 1.20000 2.87500
vt 1.20000 3.02500
vt 0.60000 3.02500
vt 0.60000 9.15000
vt 1.20000 9.15000
vt 1.20000 9.65000
vt 0.60000 9.65000
vt -1.20000 9.15000
vt -0.60000 9.15000
vt -0.60000 9.65000
vt -1.20000 9.65000
vt -3.02500 8.40000
vt -2.87500 8.40000
vt -2.87500 8.90000
vt -3.02500 8.90000
vt 2.87500 8.40000
vt 3.02500 8.40000
vt 3.02500 8.90000
vt 2.87500 8.90000
vt -1.20000 -3.02500
vt -0.60000 -3.02500
vt -0.60000 -2.87500
vt -1.20000 -2.87500
vt -1.20000 2.87500
vt -0.60000 2.87500
vt -0.60000 3.02500
vt -1.20000 3.02500
vt -1.20000 8.40000
vt -0.60000 8.40000
vt -0.60000 8.90000
vt -1.20000 8.90000
vt 0.60000 8.40000
vt 1.20000 8.40000
vt 1.20000 8.90000
vt 0.60000 8.90000
vt -3.02500 8.40000
vt -2.87500 8.40000
vt -2.87500 8.90000
vt -3.02500 8.90000
vt 2.87500 8.40000
vt 3.02500 8.40000
vt 3.02500 8.90000
vt 2.87500 8.90000
vt -0.30000 -3.02500
vt 0.30000 -3.02500
vt 0.30000 -2.87500
vt -0.30000 -2.87500
vt -0.30000 2.87500
vt 0.30000 2.87500
vt 0.30000 3.02500
vt -0.30000 3.02500
vt -0.30000 8.40000
vt 0.30000 8.40000
vt 0.30000 8.90000
vt -0.30000 8.90000
vt -0.30000 8.40000
vt 0.30000 8.40000
vt 0.30000 8.90000
vt -0.30000 8.90000
vt -3.02500 8.40000
vt -2.87500 8.40000
vt -2.87500 8.90000
vt -3.02500 8.90000
vt 2.87500 8.40000
vt 3.02500 8.40000
vt 3.02500 8.90000
vt 2.87500 8.90000
vt 0.60000 -3.02500
vt 1.20000 -3.02500
vt 1.20000 -2.87500
vt 0.60000 -2.87500
vt 0.60000 2.87500
vt 1.20000 2.87500
vt 1.20000 3.02500
vt 0.60000 3.02500
vt 0.60000 8.40000
vt 1.20000 8.40000
vt 1.20000 8.90000
vt 0.60000 8.90000
vt -1.20000 8.40000
vt -0.60000 8.40000
vt -0.60000 8.90000
vt -1.20000 8.90000
vt -3.02500 7.65000
vt -2.87500 7.65000
vt -2.87500 8.15000
vt -3.02500 8.15000
vt 2.87500 7.65000
vt 3.02500 7.65000
vt 3.02500 8.15000
vt 2.87500 8.15000
vt -1.20000 -3.02500
vt -0.60000 -3.02500
vt -0.60000 -2.87500
vt -1.20000 -2.87500
vt -1.20000 2.87500
vt -0.60000 2.87500
vt -0.60000 3.02500
vt -1.20000 3.02500
vt -1.20000 7.65000
vt -0.60000 7.65000
vt -0.60000 8.15000
vt -1.20000 8.15000
vt 0.60000 7.65000
vt 1.20000 7.65000
vt 1.20000 8.15000
vt 0.60000 8.15000
vt -3.02500 7.65000
vt -2.87500 7.65000
vt -2.87500 8.15000
vt -3.02500 8.15000
vt 2.87500 7.65000
vt 3.02500 7.65000
vt 3.02500 8.15000
vt 2.87500 8.15000
vt -0.30000 -3.02500
vt 0.30000 -3.02500
vt 0.30000 -2.87500
vt -0.30000 -2.87500
vt -0.30000 2.87500
vt 0.30000 2.87500
vt 0.30000 3.02500
vt -0.30000 3.02500
vt -0.30000 7.65000
vt 0.30000 7.65000
vt 0.30000 8.15000
vt -0.30000 8.15000
vt -0.30000 7.65000
vt 0.30000 7.65000
vt 0.30000 8.15000
vt -0.30000 8.15000
vt -3.02500 7.65000
vt -2.87500 7.65000
vt -2.87500 8.15000
vt -3.02500 8.15000
vt 2.87500 7.65000
vt 3.02500 7.65000
vt 3.02500 8.15000
vt 2.87500 8.15000
vt 0.60000 -3.02500
vt 1.20000 -3.02500
vt 1.20000 -2.87500
vt 0.60000 -2.87500
vt 0.60000 2.87500
vt 1.20000 2.87500
vt 1.20000 3.02500
vt 0.60000 3.02500
vt 0.60000 7.65000
vt 1.20000 7.65000
vt 1.20000 8.15000
vt 0.60000 8.15000
vt -1.20000 7.65000
vt -0.60000 7.65000
vt -0.60000 8.15000
vt -1.20000 8.15000
vt -3.02500 6.90000
vt -2.87500 6.90000
vt -2.87500 7.40000
vt -3.02500 7.40000
vt 2.87500 6.90000
vt 3.02500 6.90000
vt 3.02500 7.40000
vt 2.87500 7.40000
vt -1.20000 -3.02500
vt -0.60000 -3.02500
vt -0.60000 -2.87500
vt -1.20000 -2.87500
vt -1.20000 2.87500
vt -0.60000 2.87500
vt -0.60000 3.02500
vt -1.20000 3.02500
vt -1.20000 6.90000
vt -0.60000 6.90000
vt -0.60000 7.40000
vt -1.20000 7.40000
vt 0.60000 6.90000
vt 1.20000 6.90000
vt 1.20000 7.40000
vt 0.60000 7.40000
vt -3.02500 6.90000
vt -2.87500 6.90000
vt -2.87500 7.40000
vt -3.02500 7.40000
vt 2.87500 6.90000
vt 3.02500 6.90000
vt 3.02500 7.40000
vt 2.87500 7.40000
vt -0.30000 -3.02500
vt 0.30000 -3.02500
vt 0.30000 -2.87500
vt -0.30000 -2.87500
vt -0.30000 2.87500
vt 0.30000 2.87500
vt 0.30000 3.02500
vt -0.30000 3.02500
vt -0.30000 6.90000
vt 0.30000 6.90000
vt 0.30000 7.40000
vt -0.30000 7.40000
vt -0.30000 6.90000
vt 0.30000 6.90000
vt 0.30000 7.40000
vt -0.30000 7.40000
vt -3.02500 6.90000
vt -2.87500 6.90000
vt -2.87500 7.40000
vt -3.02500 7.40000
vt 2.87500 6.90000
vt 3.02500 6.90000
vt 3.02500 7.40000
vt 2.87500 7.40000
vt 0.60000 -3.02500
vt 1.20000 -3.02500
vt 1.20000 -2.87500
vt 0.60000 -2.87500
vt 0.60000 2.87500
vt 1.20000 2.87500
vt 1.20000 3.02500
vt 0.60000 3.02500
vt 0.60000 6.90000
vt 1.20000 6.90000
vt 1.20000 7.40000
vt 0.60000 7.40000
vt -1.20000 6.90000
vt -0.60000 6.90000
vt -0.60000 7.40000
vt -1.20000 7.40000
vt -3.05000 8.30000
vt -2.85000 8.30000
vt -2.85000 9.70000
vt -3.05000 9.70000
vt 2.85000 8.30000
vt 3.05000 8.30000
vt 3.05000 9.70000
vt 2.85000 9.70000
vt 1.90000 -3.05000
vt 2.90000 -3.05000
vt 2.90000 -2.85000
vt 1.90000 -2.85000
vt 1.90000 2.85000
vt 2.90000 2.85000
vt 2.90000 3.05000
vt 1.90000 3.05000
vt 1.90000 8.30000
vt 2.90000 8.30000
vt 2.90000 9.70000
vt 1.90000 9.70000
vt -2.90000 8.30000
vt -1.90000 8.30000
vt -1.90000 9.70000
vt -2.90000 9.70000
vt -3.05000 8.45000
vt -2.85000 8.45000
vt -2.85000 8.75000
vt -3.05000 8.75000
vt 2.85000 8.45000
vt 3.05000 8.45000
vt 3.05000 8.75000
vt 2.85000 8.75000
vt -2.95000 -3.05000
vt -1.85000 -3.05000
vt -1.85000 -2.85000
vt -2.95000 -2.85000
vt -2.95000 2.85000
vt -1.85000 2.85000
vt -1.85000 3.05000
vt -2.95000 3.05000
vt -2.95000 8.45000
vt -1.85000 8.45000
vt -1.85000 8.75000
vt -2.95000 8.75000
vt 1.85000 8.45000
vt 2.95000 8.45000
vt 2.95000 8.75000
vt 1.85000 8.75000
vt -1.42500 2.60000
vt -0.92500 2.60000
vt -0.92500 3.20000
vt -1.42500 3.20000
vt 0.92500 2.60000
vt 1.42500 2.60000
vt 1.42500 3.20000
vt 0.92500 3.20000
vt -0.70000 -1.42500
vt 0.70000 -1.42500
vt 0.70000 -0.92500
vt -0.70000 -0.92500
vt -0.70000 0.92500
vt 0.70000 0.92500
vt 0.70000 1.42500
vt -0.70000 1.42500
vt -0.70000 2.60000
vt 0.70000 2.60000
vt 0.70000 3.20000
vt -0.70000 3.20000
vt -0.93333 0.00000
vt 0.93333 0.00000
vt 0.93333 0.53333
vt -0.93333 0.53333
vt -0.93333 0.00000
vt 0.93333 0.00000
vt 0.93333 0.53333
vt -0.93333 0.53333
vt -1.31667 -0.93333
vt 1.31667 -0.93333
vt 1.31667 0.93333
vt -1.31667 0.93333
vt -1.31667 -0.93333
vt 1.31667 -0.93333
vt 1.31667 0.93333
vt -1.31667 0.93333
vt -1.31667 0.00000
vt 1.31667 0.00000
vt 1.31667 0.53333
vt -1.31667 0.53333
vt -1.31667 0.00000
vt 1.31667 0.00000
vt 1.31667 0.53333
vt -1.31667 0.53333
vt -1.32500 6.85000
vt -1.22500 6.85000
vt -1.22500 7.55000
vt -1.32500 7.55000
vt 1.22500 6.85000
vt 1.32500 6.85000
vt 1.32500 7.55000
vt 1.22500 7.55000
vt -1.60000 -1.32500
vt 1.60000 -1.32500
vt 1.60000 -1.22500
vt -1.60000 -1.22500
vt -1.60000 1.22500
vt 1.60000 1.22500
vt 1.60000 1.32500
vt -1.60000 1.32500
vt -1.60000 6.85000
vt 1.60000 6.85000
vt 1.60000 7.55000
vt -1.60000 7.55000
vt -1.60000 6.85000
vt 1.60000 6.85000
vt 1.60000 7.55000
vt -1.60000 7.55000
vn 1.00000 0.00000 0.00000
vn -1.00000 0.00000 0.00000
vn 0.00000 1.00000 0.00000
vn 0.00000 -1.00000 0.00000
vn 0.00000 0.00000 1.00000
vn 0.00000 0.00000 -1.00000
vn -0.00000 0.70711 0.70711
vn 0.00000 -0.70711 0.70711
vn 0.00000 0.70711 -0.70711
vn -0.00000 -0.70711 -0.70711
vn -0.70711 0.00000 -0.70711
vn 0.70711 -0.00000 -0.70711
vn -0.70711 -0.00000 0.70711
vn 0.70711 0.00000 0.70711
vn 0.70711 0.70711 -0.00000
vn -0.70711 0.70711 0.00000
vn 0.70711 -0.70711 0.00000
vn -0.70711 -0.70711 -0.00000
vn 0.57735 0.57735 0.57735
vn -0.57735 -0.57735 0.57735
vn -0.57735 0.57735 -0.57735
vn 0.57735 -0.57735 -0.57735
vn 0.57735 -0.57735 -0.57735
vn -0.57735 0.57735 -0.57735
vn -0.57735 -0.57735 0.57735
vn 0.57735 0.57735 0.57735
vn 0.00000 -0.39392 0.91915
vn 1.00000 -0.00000 0.00000
vn 0.00000 0.39392 -0.91915
vn -1.00000 0.00000 0.00000
vn 0.00000 -0.91915 -0.39392
vn -0.00000 0.91915 0.39392
vn 1.00000 0.00000 0.00000
vn -1.00000 0.00000 0.00000
vn 0.00000 1.00000 0.00000
vn 0.00000 -1.00000 0.00000
vn 0.00000 0.00000 1.00000
vn 0.00000 0.00000 -1.00000
vn 1.00000 0.00000 0.00000
vn -1.00000 0.00000 0.00000
vn 0.00000 1.00000 0.00000
vn 0.00000 -1.00000 0.00000
vn 0.00000 0.00000 1.00000
vn 0.00000 0.00000 -1.00000
vn 1.00000 0.00000 0.00000
vn -1.00000 0.00000 0.00000
vn 0.00000 1.00000 0.00000
vn 0.00000 -1.00000 0.00000
vn 0.00000 0.00000 1.00000
vn 0.00000 0.00000 -1.00000
vn 1.00000 0.00000 0.00000
vn -1.00000 0.00000 0.00000
vn 0.00000 1.00000 0.00000
vn 0.00000 -1.00000 0.00000
vn 0.00000 0.00000 1.00000
vn 0.00000 0.00000 -1.00000
vn 1.00000 0.00000 0.00000
vn -1.00000 0.00000 0.00000
vn 0.00000 1.00000 0.00000
vn 0.00000 -1.00000 0.00000
vn 0.00000 0.00000 1.00000
vn 0.00000 0.00000 -1.00000
vn 1.00000 0.00000 0.00000
vn -1.00000 0.00000 0.00000
vn 0.00000 1.00000 0.00000
vn 0.00000 -1.00000 0.00000
vn 0.00000 0.00000 1.00000
vn 0.00000 0.00000 -1.00000
vn 1.00000 0.00000 0.00000
vn -1.00000 0.00000 0.00000
vn 0.00000 1.00000 0.00000
vn 0.00000 -1.00000 0.00000
vn 0.00000 0.00000 1.00000
vn 0.00000 0.00000 -1.00000
vn 1.00000 0.00000 0.00000
vn -1.00000 0.00000 0.00000
vn 0.00000 1.00000 0.00000
vn 0.00000 -1.00000 0.00000
vn 0.00000 0.00000 1.00000
vn 0.00000 0.00000 -1.00000
vn 1.00000 0.00000 0.00000
vn -1.00000 0.00000 0.00000
vn 0.00000 1.00000 0.00000
vn 0.00000 -1.00000 0.00000
vn 0.00000 0.00000 1.00000
vn 0.00000 0.00000 -1.00000
vn 1.00000 0.00000 0.00000
vn -1.00000 0.00000 0.00000
vn 0.00000 1.00000 0.00000
vn 0.00000 -1.00000 0.00000
vn 0.00000 0.00000 1.00000
vn 0.00000 0.00000 -1.00000
vn 1.00000 0.00000 0.00000
vn -1.00000 0.00000 0.00000
vn 0.00000 1.00000 0.00000
vn 0.00000 -1.00000 0.00000
vn 0.00000 0.00000 1.00000
vn 0.00000 0.00000 -1.00000
vn 1.00000 0.00000 0.00000
vn -1.00000 0.00000 0.00000
vn 0.00000 1.00000 0.00000
vn 0.00000 -1.00000 0.00000
vn 0.00000 0.00000 1.00000
vn 0.00000 0.00000 -1.00000
vn 1.00000 0.00000 0.00000
vn -1.00000 0.00000 0.00000
vn 0.00000 1.00000 0.00000
vn 0.00000 -1.00000 0.00000
vn 0.00000 0.00000 1.00000
vn 0.00000 0.00000 -1.00000
vn 1.00000 0.00000 0.00000
vn -1.00000 0.00000 0.00000
vn 0.00000 1.00000 0.00000
vn 0.00000 -1.00000 0.00000
vn 0.00000 0.00000 1.00000
vn 0.00000 0.00000 -1.00000
vn 1.00000 0.00000 0.00000
vn -1.00000 0.00000 0.00000
vn 0.00000 1.00000 0.00000
vn 0.00000 -1.00000 0.00000
vn 0.00000 0.00000 1.00000
vn 0.00000 0.00000 -1.00000
vn 1.00000 0.00000 0.00000
vn -1.00000 0.00000 0.00000
vn 0.00000 1.00000 0.00000
vn 0.00000 -1.00000 0.00000
vn 0.00000 0.00000 1.00000
vn 1.00000 0.00000 0.00000
vn -1.00000 0.00000 0.00000
vn 0.00000 1.00000 0.00000
vn 0.00000 -1.00000 0.00000
vn 0.00000 0.00000 1.00000
vn 0.00000 0.00000 -1.00000
vn 1.00000 0.00000 0.00000
vn -1.00000 0.00000 0.00000
vn 0.00000 1.00000 0.00000
vn 0.00000 -1.00000 0.00000
vn 0.00000 0.00000 1.00000
vn 0.00000 0.00000 -1.00000
usemtl steel
f 1/1/1 2/2/1 3/3/1 4/4/1
f 5/5/2 6/6/2 7/7/2 8/8/2
f 9/9/3 10/10/3 11/11/3 12/12/3
f 13/13/4 14/14/4 15/15/4 16/16/4
f 17/17/5 18/18/5 19/19/5 20/20/5
f 21/21/6 22/22/6 23/23/6 24/24/6
f 25/25/7 26/26/7 27/27/7 28/28/7
f 29/29/8 30/30/8 31/31/8 32/32/8
f 33/33/9 34/34/9 35/35/9 36/36/9
f 37/37/10 38/38/10 39/39/10 40/40/10
f 41/41/11 42/42/11 43/43/11 44/44/11
f 45/45/12 46/46/12 47/47/12 48/48/12
f 49/49/13 50/50/13 51/51/13 52/52/13
f 53/53/14 54/54/14 55/55/14 56/56/14
f 57/57/15 58/58/15 59/59/15 60/60/15
f 61/61/16 62/62/16 63/63/16 64/64/16
f 65/65/17 66/66/17 67/67/17 68/68/17
f 69/69/18 70/70/18 71/71/18 72/72/18
f 73/73/19 74/74/19 75/75/19
f 76/76/20 77/77/20 78/78/20
f 79/79/21 80/80/21 81/81/21
f 82/82/22 83/83/22 84/84/22
f 85/85/23 86/86/23 87/87/23
f 88/88/24 89/89/24 90/90/24
f 91/91/25 92/92/25 93/93/25
f 94/94/26 95/95/26 96/96/26
usemtl plastic_grey
f 97/97/27 98/98/27 99/99/27 100/100/27
f 101/101/28 102/102/28 103/103/28 104/104/28
f 105/105/29 106/106/29 107/107/29 108/108/29
f 109/109/30 110/110/30 111/111/30 112/112/30
f 113/113/31 114/114/31 115/115/31 116/116/31
f 117/117/32 118/118/32 119/119/32 120/120/32
f 457/457/117 458/458/117 459/459/117 460/460/117
f 461/461/118 462/462/118 463/463/118 464/464/118
f 465/465/119 466/466/119 467/467/119 468/468/119
f 469/469/120 470/470/120 471/471/120 472/472/120
f 473/473/121 474/474/121 475/475/121 476/476/121
f 477/477/122 478/478/122 479/479/122 480/480/122
usemtl glass_dark
f 121/121/33 122/122/33 123/123/33 124/124/33
f 125/125/34 126/126/34 127/127/34 128/128/34
f 129/129/35 130/130/35 131/131/35 132/132/35
f 133/133/36 134/134/36 135/135/36 136/136/36
f 137/137/37 138/138/37 139/139/37 140/140/37
f 141/141/38 142/142/38 143/143/38 144/144/38
usemtl steel_dark
f 145/145/39 146/146/39 147/147/39 148/148/39
f 149/149/40 150/150/40 151/151/40 152/152/40
f 153/153/41 154/154/41 155/155/41 156/156/41
f 157/157/42 158/158/42 159/159/42 160/160/42
f 161/161/43 162/162/43 163/163/43 164/164/43
f 165/165/44 166/166/44 167/167/44 168/168/44
f 169/169/45 170/170/45 171/171/45 172/172/45
f 173/173/46 174/174/46 175/175/46 176/176/46
f 177/177/47 178/178/47 179/179/47 180/180/47
f 181/181/48 182/182/48 183/183/48 184/184/48
f 185/185/49 186/186/49 187/187/49 188/188/49
f 189/189/50 190/190/50 191/191/50 192/192/50
f 193/193/51 194/194/51 195/195/51 196/196/51
f 197/197/52 198/198/52 199/199/52 200/200/52
f 201/201/53 202/202/53 203/203/53 204/204/53
f 205/205/54 206/206/54 207/207/54 208/208/54
f 209/209/55 210/210/55 211/211/55 212/212/55
f 213/213/56 214/214/56 215/215/56 216/216/56
f 217/217/57 218/218/57 219/219/57 220/220/57
f 221/221/58 222/222/58 223/223/58 224/224/58
f 225/225/59 226/226/59 227/227/59 228/228/59
f 229/229/60 230/230/60 231/231/60 232/232/60
f 233/233/61 234/234/61 235/235/61 236/236/61
f 237/237/62 238/238/62 239/239/62 240/240/62
f 241/241/63 242/242/63 243/243/63 244/244/63
f 245/245/64 246/246/64 247/247/64 248/248/64
f 249/249/65 250/250/65 251/251/65 252/252/65
f 253/253/66 254/254/66 255/255/66 256/256/66
f 257/257/67 258/258/67 259/259/67 260/260/67
f 261/261/68 262/262/68 263/263/68 264/264/68
f 265/265/69 266/266/69 267/267/69 268/268/69
f 269/269/70 270/270/70 271/271/70 272/272/70
f 273/273/71 274/274/71 275/275/71 276/276/71
f 277/277/72 278/278/72 279/279/72 280/280/72
f 281/281/73 282/282/73 283/283/73 284/284/73
f 285/285/74 286/286/74 287/287/74 288/288/74
f 289/289/75 290/290/75 291/291/75 292/292/75
f 293/293/76 294/294/76 295/295/76 296/296/76
f 297/297/77 298/298/77 299/299/77 300/300/77
f 301/301/78 302/302/78 303/303/78 304/304/78
f 305/305/79 306/306/79 307/307/79 308/308/79
f 309/309/80 310/310/80 311/311/80 312/312/80
f 313/313/81 314/314/81 315/315/81 316/316/81
f 317/317/82 318/318/82 319/319/82 320/320/82
f 321/321/83 322/322/83 323/323/83 324/324/83
f 325/325/84 326/326/84 327/327/84 328/328/84
f 329/329/85 330/330/85 331/331/85 332/332/85
f 333/333/86 334/334/86 335/335/86 336/336/86
f 337/337/87 338/338/87 339/339/87 340/340/87
f 341/341/88 342/342/88 343/343/88 344/344/88
f 345/345/89 346/346/89 347/347/89 348/348/89
f 349/349/90 350/350/90 351/351/90 352/352/90
f 353/353/91 354/354/91 355/355/91 356/356/91
f 357/357/92 358/358/92 359/359/92 360/360/92
f 361/361/93 362/362/93 363/363/93 364/364/93
f 365/365/94 366/366/94 367/367/94 368/368/94
f 369/369/95 370/370/95 371/371/95 372/372/95
f 373/373/96 374/374/96 375/375/96 376/376/96
f 377/377/97 378/378/97 379/379/97 380/380/97
f 381/381/98 382/382/98 383/383/98 384/384/98
f 385/385/99 386/386/99 387/387/99 388/388/99
f 389/389/100 390/390/100 391/391/100 392/392/100
f 393/393/101 394/394/101 395/395/101 396/396/101
f 397/397/102 398/398/102 399/399/102 400/400/102
f 401/401/103 402/402/103 403/403/103 404/404/103
f 405/405/104 406/406/104 407/407/104 408/408/104
f 409/409/105 410/410/105 411/411/105 412/412/105
f 413/413/106 414/414/106 415/415/106 416/416/106
f 417/417/107 418/418/107 419/419/107 420/420/107
f 421/421/108 422/422/108 423/423/108 424/424/108
f 425/425/109 426/426/109 427/427/109 428/428/109
f 429/429/110 430/430/110 431/431/110 432/432/110
f 501/501/128 502/502/128 503/503/128 504/504/128
f 505/505/129 506/506/129 507/507/129 508/508/129
f 509/509/130 510/510/130 511/511/130 512/512/130
f 513/513/131 514/514/131 515/515/131 516/516/131
f 517/517/132 518/518/132 519/519/132 520/520/132
f 521/521/133 522/522/133 523/523/133 524/524/133
usemtl emerald
f 433/433/111 434/434/111 435/435/111 436/436/111
f 437/437/112 438/438/112 439/439/112 440/440/112
f 441/441/113 442/442/113 443/443/113 444/444/113
f 445/445/114 446/446/114 447/447/114 448/448/114
f 449/449/115 450/450/115 451/451/115 452/452/115
f 453/453/116 454/454/116 455/455/116 456/456/116
usemtl rubber
f 481/481/123 482/482/123 483/483/123 484/484/123
f 485/485/124 486/486/124 487/487/124 488/488/124
f 489/489/125 490/490/125 491/491/125 492/492/125
f 493/493/126 494/494/126 495/495/126 496/496/126
f 497/497/127 498/498/127 499/499/127 500/500/127
usemtl paint_red
f 525/525/134 526/526/134 527/527/134 528/528/134
f 529/529/135 530/530/135 531/531/135 532/532/135
f 533/533/136 534/534/136 535/535/136 536/536/136
f 537/537/137 538/538/137 539/539/137 540/540/137
f 541/541/138 542/542/138 543/543/138 544/544/138
f 545/545/139 546/546/139 547/547/139 548/548/139
