# generated by meshlib
mtllib barrier.mtl
o barrier
v -1.00000 0.00000 0.02800
v -0.98354 0.00000 0.02265
v -0.98354 1.05000 0.02265
v -1.00000 1.05000 0.02800
v -0.98354 0.00000 0.02265
v -0.97337 0.00000 0.00865
v -0.97337 1.05000 0.00865
v -0.98354 1.05000 0.02265
v -0.97337 0.00000 0.00865
v -0.97337 0.00000 -0.00865
v -0.97337 1.05000 -0.00865
v -0.97337 1.05000 0.00865
v -0.97337 0.00000 -0.00865
v -0.98354 0.00000 -0.02265
v -0.98354 1.05000 -0.02265
v -0.97337 1.05000 -0.00865
v -0.98354 0.00000 -0.02265
v -1.00000 0.00000 -0.02800
v -1.00000 1.05000 -0.02800
v -0.98354 1.05000 -0.02265
v -1.00000 0.00000 -0.02800
v -1.01646 0.00000 -0.02265
v -1.01646 1.05000 -0.02265
v -1.00000 1.05000 -0.02800
v -1.01646 0.00000 -0.02265
v -1.02663 0.00000 -0.00865
v -1.02663 1.05000 -0.00865
v -1.01646 1.05000 -0.02265
v -1.02663 0.00000 -0.00865
v -1.02663 0.00000 0.00865
v -1.02663 1.05000 0.00865
v -1.02663 1.05000 -0.00865
v -1.02663 0.00000 0.00865
v -1.01646 0.00000 0.02265
v -1.01646 1.05000 0.02265
v -1.02663 1.05000 0.00865
v -1.01646 0.00000 0.02265
v -1.00000 0.00000 0.02800
v -1.00000 1.05000 0.02800
v -1.01646 1.05000 0.02265
v -1.01646 0.00000 0.02265
v -1.02663 0.00000 0.00865
v -1.02663 0.00000 -0.00865
v -1.01646 0.00000 -0.02265
v -1.00000 0.00000 -0.02800
v -0.98354 0.00000 -0.02265
v -0.97337 0.00000 -0.00865
v -0.97337 0.00000 0.00865
v -0.98354 0.00000 0.02265
v -1.00000 0.00000 0.02800
v -1.00000 1.05000 0.02800
v -0.98354 1.05000 0.02265
v -0.97337 1.05000 0.00865
v -0.97337 1.05000 -0.00865
v -0.98354 1.05000 -0.02265
v -1.00000 1.05000 -0.02800
v -1.01646 1.05000 -0.02265
v -1.02663 1.05000 -0.00865
v -1.02663 1.05000 0.00865
v -1.01646 1.05000 0.02265
v -1.02500 -0.00500 -0.36000
v -0.97500 -0.00500 -0.36000
v -0.97500 -0.00500 0.36000
v -1.02500 -0.00500 0.36000
v -0.97500 -0.00500 -0.36000
v -0.97500 0.04500 -0.36000
v -0.97500 0.04500 0.36000
v -0.97500 -0.00500 0.36000
v -0.97500 0.04500 -0.36000
v -1.02500 0.04500 -0.36000
v -1.02500 0.04500 0.36000
v -0.97500 0.04500 0.36000
v -1.02500 0.04500 -0.36000
v -1.02500 -0.00500 -0.36000
v -1.02500 -0.00500 0.36000
v -1.02500 0.04500 0.36000
v -1.02500 0.04500 -0.36000
v -0.97500 0.04500 -0.36000
v -0.97500 -0.00500 -0.36000
v -1.02500 -0.00500 -0.36000
v -1.02500 -0.00500 0.36000
v -0.97500 -0.00500 0.36000
v -0.97500 0.04500 0.36000
v -1.02500 0.04500 0.36000
v -0.93000 0.02000 -0.36000
v -0.95050 0.02000 -0.31050
v -0.95050 0.00000 -0.31050
v -0.93000 0.00000 -0.36000
v -0.95050 0.02000 -0.31050
v -1.00000 0.02000 -0.29000
v -1.00000 0.00000 -0.29000
v -0.95050 0.00000 -0.31050
v -1.00000 0.02000 -0.29000
v -1.04950 0.02000 -0.31050
v -1.04950 0.00000 -0.31050
v -1.00000 0.00000 -0.29000
v -1.04950 0.02000 -0.31050
v -1.07000 0.02000 -0.36000
v -1.07000 0.00000 -0.36000
v -1.04950 0.00000 -0.31050
v -1.07000 0.02000 -0.36000
v -1.04950 0.02000 -0.40950
v -1.04950 0.00000 -0.40950
v -1.07000 0.00000 -0.36000
v -1.04950 0.02000 -0.40950
v -1.00000 0.02000 -0.43000
v -1.00000 0.00000 -0.43000
v -1.04950 0.00000 -0.40950
v -1.00000 0.02000 -0.43000
v -0.95050 0.02000 -0.40950
v -0.95050 0.00000 -0.40950
v -1.00000 0.00000 -0.43000
v -0.95050 0.02000 -0.40950
v -0.93000 0.02000 -0.36000
v -0.93000 0.00000 -0.36000
v -0.95050 0.00000 -0.40950
v -0.97000 0.03000 -0.36000
v -0.97879 0.03000 -0.33879
v -0.95050 0.02000 -0.31050
v -0.93000 0.02000 -0.36000
v -0.97879 0.03000 -0.33879
v -1.00000 0.03000 -0.33000
v -1.00000 0.02000 -0.29000
v -0.95050 0.02000 -0.31050
v -1.00000 0.03000 -0.33000
v -1.02121 0.03000 -0.33879
v -1.04950 0.02000 -0.31050
v -1.00000 0.02000 -0.29000
v -1.02121 0.03000 -0.33879
v -1.03000 0.03000 -0.36000
v -1.07000 0.02000 -0.36000
v -1.04950 0.02000 -0.31050
v -1.03000 0.03000 -0.36000
v -1.02121 0.03000 -0.38121
v -1.04950 0.02000 -0.40950
v -1.07000 0.02000 -0.36000
v -1.02121 0.03000 -0.38121
v -1.00000 0.03000 -0.39000
v -1.00000 0.02000 -0.43000
v -1.04950 0.02000 -0.40950
v -1.00000 0.03000 -0.39000
v -0.97879 0.03000 -0.38121
v -0.95050 0.02000 -0.40950
v -1.00000 0.02000 -0.43000
v -0.97879 0.03000 -0.38121
v -0.97000 0.03000 -0.36000
v -0.93000 0.02000 -0.36000
v -0.95050 0.02000 -0.40950
v -0.93000 0.00000 -0.36000
v -0.95050 0.00000 -0.31050
v -1.00000 0.00000 -0.29000
v -1.04950 0.00000 -0.31050
v -1.07000 0.00000 -0.36000
v -1.04950 0.00000 -0.40950
v -1.00000 0.00000 -0.43000
v -0.95050 0.00000 -0.40950
v -0.97879 0.03000 -0.38121
v -1.00000 0.03000 -0.39000
v -1.02121 0.03000 -0.38121
v -1.03000 0.03000 -0.36000
v -1.02121 0.03000 -0.33879
v -1.00000 0.03000 -0.33000
v -0.97879 0.03000 -0.33879
v -0.97000 0.03000 -0.36000
v -0.93000 0.02000 0.36000
v -0.95050 0.02000 0.40950
v -0.95050 0.00000 0.40950
v -0.93000 0.00000 0.36000
v -0.95050 0.02000 0.40950
v -1.00000 0.02000 0.43000
v -1.00000 0.00000 0.43000
v -0.95050 0.00000 0.40950
v -1.00000 0.02000 0.43000
v -1.04950 0.02000 0.40950
v -1.04950 0.00000 0.40950
v -1.00000 0.00000 0.43000
v -1.04950 0.02000 0.40950
v -1.07000 0.02000 0.36000
v -1.07000 0.00000 0.36000
v -1.04950 0.00000 0.40950
v -1.07000 0.02000 0.36000
v -1.04950 0.02000 0.31050
v -1.04950 0.00000 0.31050
v -1.07000 0.00000 0.36000
v -1.04950 0.02000 0.31050
v -1.00000 0.02000 0.29000
v -1.00000 0.00000 0.29000
v -1.04950 0.00000 0.31050
v -1.00000 0.02000 0.29000
v -0.95050 0.02000 0.31050
v -0.95050 0.00000 0.31050
v -1.00000 0.00000 0.29000
v -0.95050 0.02000 0.31050
v -0.93000 0.02000 0.36000
v -0.93000 0.00000 0.36000
v -0.95050 0.00000 0.31050
v -0.97000 0.03000 0.36000
v -0.97879 0.03000 0.38121
v -0.95050 0.02000 0.40950
v -0.93000 0.02000 0.36000
v -0.97879 0.03000 0.38121
v -1.00000 0.03000 0.39000
v -1.00000 0.02000 0.43000
v -0.95050 0.02000 0.40950
v -1.00000 0.03000 0.39000
v -1.02121 0.03000 0.38121
v -1.04950 0.02000 0.40950
v -1.00000 0.02000 0.43000
v -1.02121 0.03000 0.38121
v -1.03000 0.03000 0.36000
v -1.07000 0.02000 0.36000
v -1.04950 0.02000 0.40950
v -1.03000 0.03000 0.36000
v -1.02121 0.03000 0.33879
v -1.04950 0.02000 0.31050
v -1.07000 0.02000 0.36000
v -1.02121 0.03000 0.33879
v -1.00000 0.03000 0.33000
v -1.00000 0.02000 0.29000
v -1.04950 0.02000 0.31050
v -1.00000 0.03000 0.33000
v -0.97879 0.03000 0.33879
v -0.95050 0.02000 0.31050
v -1.00000 0.02000 0.29000
v -0.97879 0.03000 0.33879
v -0.97000 0.03000 0.36000
v -0.93000 0.02000 0.36000
v -0.95050 0.02000 0.31050
v -0.93000 0.00000 0.36000
v -0.95050 0.00000 0.40950
v -1.00000 0.00000 0.43000
v -1.04950 0.00000 0.40950
v -1.07000 0.00000 0.36000
v -1.04950 0.00000 0.31050
v -1.00000 0.00000 0.29000
v -0.95050 0.00000 0.31050
v -0.97879 0.03000 0.33879
v -1.00000 0.03000 0.33000
v -1.02121 0.03000 0.33879
v -1.03000 0.03000 0.36000
v -1.02121 0.03000 0.38121
v -1.00000 0.03000 0.39000
v -0.97879 0.03000 0.38121
v -0.97000 0.03000 0.36000
v 1.00000 0.00000 0.02800
v 1.01646 0.00000 0.02265
v 1.01646 1.05000 0.02265
v 1.00000 1.05000 0.02800
v 1.01646 0.00000 0.02265
v 1.02663 0.00000 0.00865
v 1.02663 1.05000 0.00865
v 1.01646 1.05000 0.02265
v 1.02663 0.00000 0.00865
v 1.02663 0.00000 -0.00865
v 1.02663 1.05000 -0.00865
v 1.02663 1.05000 0.00865
v 1.02663 0.00000 -0.00865
v 1.01646 0.00000 -0.02265
v 1.01646 1.05000 -0.02265
v 1.02663 1.05000 -0.00865
v 1.01646 0.00000 -0.02265
v 1.00000 0.00000 -0.02800
v 1.00000 1.05000 -0.02800
v 1.01646 1.05000 -0.02265
v 1.00000 0.00000 -0.02800
v 0.98354 0.00000 -0.02265
v 0.98354 1.05000 -0.02265
v 1.00000 1.05000 -0.02800
v 0.98354 0.00000 -0.02265
v 0.97337 0.00000 -0.00865
v 0.97337 1.05000 -0.00865
v 0.98354 1.05000 -0.02265
v 0.97337 0.00000 -0.00865
v 0.97337 0.00000 0.00865
v 0.97337 1.05000 0.00865
v 0.97337 1.05000 -0.00865
v 0.97337 0.00000 0.00865
v 0.98354 0.00000 0.02265
v 0.98354 1.05000 0.02265
v 0.97337 1.05000 0.00865
v 0.98354 0.00000 0.02265
v 1.00000 0.00000 0.02800
v 1.00000 1.05000 0.02800
v 0.98354 1.05000 0.02265
v 0.98354 0.00000 0.02265
v 0.97337 0.00000 0.00865
v 0.97337 0.00000 -0.00865
v 0.98354 0.00000 -0.02265
v 1.00000 0.00000 -0.02800
v 1.01646 0.00000 -0.02265
v 1.02663 0.00000 -0.00865
v 1.02663 0.00000 0.00865
v 1.01646 0.00000 0.02265
v 1.00000 0.00000 0.02800
v 1.00000 1.05000 0.02800
v 1.01646 1.05000 0.02265
v 1.02663 1.05000 0.00865
v 1.02663 1.05000 -0.00865
v 1.01646 1.05000 -0.02265
v 1.00000 1.05000 -0.02800
v 0.98354 1.05000 -0.02265
v 0.97337 1.05000 -0.00865
v 0.97337 1.05000 0.00865
v 0.98354 1.05000 0.02265
v 0.97500 -0.00500 -0.36000
v 1.02500 -0.00500 -0.36000
v 1.02500 -0.00500 0.36000
v 0.97500 -0.00500 0.36000
v 1.02500 -0.00500 -0.36000
v 1.02500 0.04500 -0.36000
v 1.02500 0.04500 0.36000
v 1.02500 -0.00500 0.36000
v 1.02500 0.04500 -0.36000
v 0.97500 0.04500 -0.36000
v 0.97500 0.04500 0.36000
v 1.02500 0.04500 0.36000
v 0.97500 0.04500 -0.36000
v 0.97500 -0.00500 -0.36000
v 0.97500 -0.00500 0.36000
v 0.97500 0.04500 0.36000
v 0.97500 0.04500 -0.36000
v 1.02500 0.04500 -0.36000
v 1.02500 -0.00500 -0.36000
v 0.97500 -0.00500 -0.36000
v 0.97500 -0.00500 0.36000
v 1.02500 -0.00500 0.36000
v 1.02500 0.04500 0.36000
v 0.97500 0.04500 0.36000
v 1.07000 0.02000 -0.36000
v 1.04950 0.02000 -0.31050
v 1.04950 0.00000 -0.31050
v 1.07000 0.00000 -0.36000
v 1.04950 0.02000 -0.31050
v 1.00000 0.02000 -0.29000
v 1.00000 0.00000 -0.29000
v 1.04950 0.00000 -0.31050
v 1.00000 0.02000 -0.29000
v 0.95050 0.02000 -0.31050
v 0.95050 0.00000 -0.31050
v 1.00000 0.00000 -0.29000
v 0.95050 0.02000 -0.31050
v 0.93000 0.02000 -0.36000
v 0.93000 0.00000 -0.36000
v 0.95050 0.00000 -0.31050
v 0.93000 0.02000 -0.36000
v 0.95050 0.02000 -0.40950
v 0.95050 0.00000 -0.40950
v 0.93000 0.00000 -0.36000
v 0.95050 0.02000 -0.40950
v 1.00000 0.02000 -0.43000
v 1.00000 0.00000 -0.43000
v 0.95050 0.00000 -0.40950
v 1.00000 0.02000 -0.43000
v 1.04950 0.02000 -0.40950
v 1.04950 0.00000 -0.40950
v 1.00000 0.00000 -0.43000
v 1.04950 0.02000 -0.40950
v 1.07000 0.02000 -0.36000
v 1.07000 0.00000 -0.36000
v 1.04950 0.00000 -0.40950
v 1.03000 0.03000 -0.36000
v 1.02121 0.03000 -0.33879
v 1.04950 0.02000 -0.31050
v 1.07000 0.02000 -0.36000
v 1.02121 0.03000 -0.33879
v 1.00000 0.03000 -0.33000
v 1.00000 0.02000 -0.29000
v 1.04950 0.02000 -0.31050
v 1.00000 0.03000 -0.33000
v 0.97879 0.03000 -0.33879
v 0.95050 0.02000 -0.31050
v 1.00000 0.02000 -0.29000
v 0.97879 0.03000 -0.33879
v 0.97000 0.03000 -0.36000
v 0.93000 0.02000 -0.36000
v 0.95050 0.02000 -0.31050
v 0.97000 0.03000 -0.36000
v 0.97879 0.03000 -0.38121
v 0.95050 0.02000 -0.40950
v 0.93000 0.02000 -0.36000
v 0.97879 0.03000 -0.38121
v 1.00000 0.03000 -0.39000
v 1.00000 0.02000 -0.43000
v 0.95050 0.02000 -0.40950
v 1.00000 0.03000 -0.39000
v 1.02121 0.03000 -0.38121
v 1.04950 0.02000 -0.40950
v 1.00000 0.02000 -0.43000
v 1.02121 0.03000 -0.38121
v 1.03000 0.03000 -0.36000
v 1.07000 0.02000 -0.36000
v 1.04950 0.02000 -0.40950
v 1.07000 0.00000 -0.36000
v 1.04950 0.00000 -0.31050
v 1.00000 0.00000 -0.29000
v 0.95050 0.00000 -0.31050
v 0.93000 0.00000 -0.36000
v 0.95050 0.00000 -0.40950
v 1.00000 0.00000 -0.43000
v 1.04950 0.00000 -0.40950
v 1.02121 0.03000 -0.38121
v 1.00000 0.03000 -0.39000
v 0.97879 0.03000 -0.38121
v 0.97000 0.03000 -0.36000
v 0.97879 0.03000 -0.33879
v 1.00000 0.03000 -0.33000
v 1.02121 0.03000 -0.33879
v 1.03000 0.03000 -0.36000
v 1.07000 0.02000 0.36000
v 1.04950 0.02000 0.40950
v 1.04950 0.00000 0.40950
v 1.07000 0.00000 0.36000
v 1.04950 0.02000 0.40950
v 1.00000 0.02000 0.43000
v 1.00000 0.00000 0.43000
v 1.04950 0.00000 0.40950
v 1.00000 0.02000 0.43000
v 0.95050 0.02000 0.40950
v 0.95050 0.00000 0.40950
v 1.00000 0.00000 0.43000
v 0.95050 0.02000 0.40950
v 0.93000 0.02000 0.36000
v 0.93000 0.00000 0.36000
v 0.95050 0.00000 0.40950
v 0.93000 0.02000 0.36000
v 0.95050 0.02000 0.31050
v 0.95050 0.00000 0.31050
v 0.93000 0.00000 0.36000
v 0.95050 0.02000 0.31050
v 1.00000 0.02000 0.29000
v 1.00000 0.00000 0.29000
v 0.95050 0.00000 0.31050
v 1.00000 0.02000 0.29000
v 1.04950 0.02000 0.31050
v 1.04950 0.00000 0.31050
v 1.00000 0.00000 0.29000
v 1.04950 0.02000 0.31050
v 1.07000 0.02000 0.36000
v 1.07000 0.00000 0.36000
v 1.04950 0.00000 0.31050
v 1.03000 0.03000 0.36000
v 1.02121 0.03000 0.38121
v 1.04950 0.02000 0.40950
v 1.07000 0.02000 0.36000
v 1.02121 0.03000 0.38121
v 1.00000 0.03000 0.39000
v 1.00000 0.02000 0.43000
v 1.04950 0.02000 0.40950
v 1.00000 0.03000 0.39000
v 0.97879 0.03000 0.38121
v 0.95050 0.02000 0.40950
v 1.00000 0.02000 0.43000
v 0.97879 0.03000 0.38121
v 0.97000 0.03000 0.36000
v 0.93000 0.02000 0.36000
v 0.95050 0.02000 0.40950
v 0.97000 0.03000 0.36000
v 0.97879 0.03000 0.33879
v 0.95050 0.02000 0.31050
v 0.93000 0.02000 0.36000
v 0.97879 0.03000 0.33879
v 1.00000 0.03000 0.33000
v 1.00000 0.02000 0.29000
v 0.95050 0.02000 0.31050
v 1.00000 0.03000 0.33000
v 1.02121 0.03000 0.33879
v 1.04950 0.02000 0.31050
v 1.00000 0.02000 0.29000
v 1.02121 0.03000 0.33879
v 1.03000 0.03000 0.36000
v 1.07000 0.02000 0.36000
v 1.04950 0.02000 0.31050
v 1.07000 0.00000 0.36000
v 1.04950 0.00000 0.40950
v 1.00000 0.00000 0.43000
v 0.95050 0.00000 0.40950
v 0.93000 0.00000 0.36000
v 0.95050 0.00000 0.31050
v 1.00000 0.00000 0.29000
v 1.04950 0.00000 0.31050
v 1.02121 0.03000 0.33879
v 1.00000 0.03000 0.33000
v 0.97879 0.03000 0.33879
v 0.97000 0.03000 0.36000
v 0.97879 0.03000 0.38121
v 1.00000 0.03000 0.39000
v 1.02121 0.03000 0.38121
v 1.03000 0.03000 0.36000
v -1.00000 0.36000 -0.02400
v -1.00000 0.37411 -0.01942
v 1.00000 0.37411 -0.01942
v 1.00000 0.36000 -0.02400
v -1.00000 0.37411 -0.01942
v -1.00000 0.38283 -0.00742
v 1.00000 0.38283 -0.00742
v 1.00000 0.37411 -0.01942
v -1.00000 0.38283 -0.00742
v -1.00000 0.38283 0.00742
v 1.00000 0.38283 0.00742
v 1.00000 0.38283 -0.00742
v -1.00000 0.38283 0.00742
v -1.00000 0.37411 0.01942
v 1.00000 0.37411 0.01942
v 1.00000 0.38283 0.00742
v -1.00000 0.37411 0.01942
v -1.00000 0.36000 0.02400
v 1.00000 0.36000 0.02400
v 1.00000 0.37411 0.01942
v -1.00000 0.36000 0.02400
v -1.00000 0.34589 0.01942
v 1.00000 0.34589 0.01942
v 1.00000 0.36000 0.02400
v -1.00000 0.34589 0.01942
v -1.00000 0.33717 0.00742
v 1.00000 0.33717 0.00742
v 1.00000 0.34589 0.01942
v -1.00000 0.33717 0.00742
v -1.00000 0.33717 -0.00742
v 1.00000 0.33717 -0.00742
v 1.00000 0.33717 0.00742
v -1.00000 0.33717 -0.00742
v -1.00000 0.34589 -0.01942
v 1.00000 0.34589 -0.01942
v 1.00000 0.33717 -0.00742
v -1.00000 0.34589 -0.01942
v -1.00000 0.36000 -0.02400
v 1.00000 0.36000 -0.02400
v 1.00000 0.34589 -0.01942
v -1.00000 0.34589 -0.01942
v -1.00000 0.33717 -0.00742
v -1.00000 0.33717 0.00742
v -1.00000 0.34589 0.01942
v -1.00000 0.36000 0.02400
v -1.00000 0.37411 0.01942
v -1.00000 0.38283 0.00742
v -1.00000 0.38283 -0.00742
v -1.00000 0.37411 -0.01942
v -1.00000 0.36000 -0.02400
v 1.00000 0.36000 -0.02400
v 1.00000 0.37411 -0.01942
v 1.00000 0.38283 -0.00742
v 1.00000 0.38283 0.00742
v 1.00000 0.37411 0.01942
v 1.00000 0.36000 0.02400
v 1.00000 0.34589 0.01942
v 1.00000 0.33717 0.00742
v 1.00000 0.33717 -0.00742
v 1.00000 0.34589 -0.01942
v -1.00000 1.02000 -0.02400
v -1.00000 1.03411 -0.01942
v 1.00000 1.03411 -0.01942
v 1.00000 1.02000 -0.02400
v -1.00000 1.03411 -0.01942
v -1.00000 1.04283 -0.00742
v 1.00000 1.04283 -0.00742
v 1.00000 1.03411 -0.01942
v -1.00000 1.04283 -0.00742
v -1.00000 1.04283 0.00742
v 1.00000 1.04283 0.00742
v 1.00000 1.04283 -0.00742
v -1.00000 1.04283 0.00742
v -1.00000 1.03411 0.01942
v 1.00000 1.03411 0.01942
v 1.00000 1.04283 0.00742
v -1.00000 1.03411 0.01942
v -1.00000 1.02000 0.02400
v 1.00000 1.02000 0.02400
v 1.00000 1.03411 0.01942
v -1.00000 1.02000 0.02400
v -1.00000 1.00589 0.01942
v 1.00000 1.00589 0.01942
v 1.00000 1.02000 0.02400
v -1.00000 1.00589 0.01942
v -1.00000 0.99717 0.00742
v 1.00000 0.99717 0.00742
v 1.00000 1.00589 0.01942
v -1.00000 0.99717 0.00742
v -1.00000 0.99717 -0.00742
v 1.00000 0.99717 -0.00742
v 1.00000 0.99717 0.00742
v -1.00000 0.99717 -0.00742
v -1.00000 1.00589 -0.01942
v 1.00000 1.00589 -0.01942
v 1.00000 0.99717 -0.00742
v -1.00000 1.00589 -0.01942
v -1.00000 1.02000 -0.02400
v 1.00000 1.02000 -0.02400
v 1.00000 1.00589 -0.01942
v -1.00000 1.00589 -0.01942
v -1.00000 0.99717 -0.00742
v -1.00000 0.99717 0.00742
v -1.00000 1.00589 0.01942
v -1.00000 1.02000 0.02400
v -1.00000 1.03411 0.01942
v -1.00000 1.04283 0.00742
v -1.00000 1.04283 -0.00742
v -1.00000 1.03411 -0.01942
v -1.00000 1.02000 -0.02400
v 1.00000 1.02000 -0.02400
v 1.00000 1.03411 -0.01942
v 1.00000 1.04283 -0.00742
v 1.00000 1.04283 0.00742
v 1.00000 1.03411 0.01942
v 1.00000 1.02000 0.02400
v 1.00000 1.00589 0.01942
v 1.00000 0.99717 0.00742
v 1.00000 0.99717 -0.00742
v 1.00000 1.00589 -0.01942
v -0.86000 0.36000 0.01200
v -0.85151 0.36000 0.00849
v -0.85151 1.02000 0.00849
v -0.86000 1.02000 0.01200
v -0.85151 0.36000 0.00849
v -0.84800 0.36000 0.00000
v -0.84800 1.02000 0.00000
v -0.85151 1.02000 0.00849
v -0.84800 0.36000 0.00000
v -0.85151 0.36000 -0.00849
v -0.85151 1.02000 -0.00849
v -0.84800 1.02000 0.00000
v -0.85151 0.36000 -0.00849
v -0.86000 0.36000 -0.01200
v -0.86000 1.02000 -0.01200
v -0.85151 1.02000 -0.00849
v -0.86000 0.36000 -0.01200
v -0.86849 0.36000 -0.00849
v -0.86849 1.02000 -0.00849
v -0.86000 1.02000 -0.01200
v -0.86849 0.36000 -0.00849
v -0.87200 0.36000 -0.00000
v -0.87200 1.02000 -0.00000
v -0.86849 1.02000 -0.00849
v -0.87200 0.36000 -0.00000
v -0.86849 0.36000 0.00849
v -0.86849 1.02000 0.00849
v -0.87200 1.02000 -0.00000
v -0.86849 0.36000 0.00849
v -0.86000 0.36000 0.01200
v -0.86000 1.02000 0.01200
v -0.86849 1.02000 0.00849
v -0.86849 0.36000 0.00849
v -0.87200 0.36000 -0.00000
v -0.86849 0.36000 -0.00849
v -0.86000 0.36000 -0.01200
v -0.85151 0.36000 -0.00849
v -0.84800 0.36000 0.00000
v -0.85151 0.36000 0.00849
v -0.86000 0.36000 0.01200
v -0.86000 1.02000 0.01200
v -0.85151 1.02000 0.00849
v -0.84800 1.02000 0.00000
v -0.85151 1.02000 -0.00849
v -0.86000 1.02000 -0.01200
v -0.86849 1.02000 -0.00849
v -0.87200 1.02000 -0.00000
v -0.86849 1.02000 0.00849
v -0.57333 0.36000 0.01200
v -0.56485 0.36000 0.00849
v -0.56485 1.02000 0.00849
v -0.57333 1.02000 0.01200
v -0.56485 0.36000 0.00849
v -0.56133 0.36000 0.00000
v -0.56133 1.02000 0.00000
v -0.56485 1.02000 0.00849
v -0.56133 0.36000 0.00000
v -0.56485 0.36000 -0.00849
v -0.56485 1.02000 -0.00849
v -0.56133 1.02000 0.00000
v -0.56485 0.36000 -0.00849
v -0.57333 0.36000 -0.01200
v -0.57333 1.02000 -0.01200
v -0.56485 1.02000 -0.00849
v -0.57333 0.36000 -0.01200
v -0.58182 0.36000 -0.00849
v -0.58182 1.02000 -0.00849
v -0.57333 1.02000 -0.01200
v -0.58182 0.36000 -0.00849
v -0.58533 0.36000 -0.00000
v -0.58533 1.02000 -0.00000
v -0.58182 1.02000 -0.00849
v -0.58533 0.36000 -0.00000
v -0.58182 0.36000 0.00849
v -0.58182 1.02000 0.00849
v -0.58533 1.02000 -0.00000
v -0.58182 0.36000 0.00849
v -0.57333 0.36000 0.01200
v -0.57333 1.02000 0.01200
v -0.58182 1.02000 0.00849
v -0.58182 0.36000 0.00849
v -0.58533 0.36000 -0.00000
v -0.58182 0.36000 -0.00849
v -0.57333 0.36000 -0.01200
v -0.56485 0.36000 -0.00849
v -0.56133 0.36000 0.00000
v -0.56485 0.36000 0.00849
v -0.57333 0.36000 0.01200
v -0.57333 1.02000 0.01200
v -0.56485 1.02000 0.00849
v -0.56133 1.02000 0.00000
v -0.56485 1.02000 -0.00849
v -0.57333 1.02000 -0.01200
v -0.58182 1.02000 -0.00849
v -0.58533 1.02000 -0.00000
v -0.58182 1.02000 0.00849
v -0.28667 0.36000 0.01200
v -0.27818 0.36000 0.00849
v -0.27818 1.02000 0.00849
v -0.28667 1.02000 0.01200
v -0.27818 0.36000 0.00849
v -0.27467 0.36000 0.00000
v -0.27467 1.02000 0.00000
v -0.27818 1.02000 0.00849
v -0.27467 0.36000 0.00000
v -0.27818 0.36000 -0.00849
v -0.27818 1.02000 -0.00849
v -0.27467 1.02000 0.00000
v -0.27818 0.36000 -0.00849
v -0.28667 0.36000 -0.01200
v -0.28667 1.02000 -0.01200
v -0.27818 1.02000 -0.00849
v -0.28667 0.36000 -0.01200
v -0.29515 0.36000 -0.00849
v -0.29515 1.02000 -0.00849
v -0.28667 1.02000 -0.01200
v -0.29515 0.36000 -0.00849
v -0.29867 0.36000 -0.00000
v -0.29867 1.02000 -0.00000
v -0.29515 1.02000 -0.00849
v -0.29867 0.36000 -0.00000
v -0.29515 0.36000 0.00849
v -0.29515 1.02000 0.00849
v -0.29867 1.02000 -0.00000
v -0.29515 0.36000 0.00849
v -0.28667 0.36000 0.01200
v -0.28667 1.02000 0.01200
v -0.29515 1.02000 0.00849
v -0.29515 0.36000 0.00849
v -0.29867 0.36000 -0.00000
v -0.29515 0.36000 -0.00849
v -0.28667 0.36000 -0.01200
v -0.27818 0.36000 -0.00849
v -0.27467 0.36000 0.00000
v -0.27818 0.36000 0.00849
v -0.28667 0.36000 0.01200
v -0.28667 1.02000 0.01200
v -0.27818 1.02000 0.00849
v -0.27467 1.02000 0.00000
v -0.27818 1.02000 -0.00849
v -0.28667 1.02000 -0.01200
v -0.29515 1.02000 -0.00849
v -0.29867 1.02000 -0.00000
v -0.29515 1.02000 0.00849
v 0.00000 0.36000 0.01200
v 0.00849 0.36000 0.00849
v 0.00849 1.02000 0.00849
v 0.00000 1.02000 0.01200
v 0.00849 0.36000 0.00849
v 0.01200 0.36000 0.00000
v 0.01200 1.02000 0.00000
v 0.00849 1.02000 0.00849
v 0.01200 0.36000 0.00000
v 0.00849 0.36000 -0.00849
v 0.00849 1.02000 -0.00849
v 0.01200 1.02000 0.00000
v 0.00849 0.36000 -0.00849
v 0.00000 0.36000 -0.01200
v 0.00000 1.02000 -0.01200
v 0.00849 1.02000 -0.00849
v 0.00000 0.36000 -0.01200
v -0.00849 0.36000 -0.00849
v -0.00849 1.02000 -0.00849
v 0.00000 1.02000 -0.01200
v -0.00849 0.36000 -0.00849
v -0.01200 0.36000 -0.00000
v -0.01200 1.02000 -0.00000
v -0.00849 1.02000 -0.00849
v -0.01200 0.36000 -0.00000
v -0.00849 0.36000 0.00849
v -0.00849 1.02000 0.00849
v -0.01200 1.02000 -0.00000
v -0.00849 0.36000 0.00849
v 0.00000 0.36000 0.01200
v 0.00000 1.02000 0.01200
v -0.00849 1.02000 0.00849
v -0.00849 0.36000 0.00849
v -0.01200 0.36000 -0.00000
v -0.00849 0.36000 -0.00849
v 0.00000 0.36000 -0.01200
v 0.00849 0.36000 -0.00849
v 0.01200 0.36000 0.00000
v 0.00849 0.36000 0.00849
v 0.00000 0.36000 0.01200
v 0.00000 1.02000 0.01200
v 0.00849 1.02000 0.00849
v 0.01200 1.02000 0.00000
v 0.00849 1.02000 -0.00849
v 0.00000 1.02000 -0.01200
v -0.00849 1.02000 -0.00849
v -0.01200 1.02000 -0.00000
v -0.00849 1.02000 0.00849
v 0.28667 0.36000 0.01200
v 0.29515 0.36000 0.00849
v 0.29515 1.02000 0.00849
v 0.28667 1.02000 0.01200
v 0.29515 0.36000 0.00849
v 0.29867 0.36000 0.00000
v 0.29867 1.02000 0.00000
v 0.29515 1.02000 0.00849
v 0.29867 0.36000 0.00000
v 0.29515 0.36000 -0.00849
v 0.29515 1.02000 -0.00849
v 0.29867 1.02000 0.00000
v 0.29515 0.36000 -0.00849
v 0.28667 0.36000 -0.01200
v 0.28667 1.02000 -0.01200
v 0.29515 1.02000 -0.00849
v 0.28667 0.36000 -0.01200
v 0.27818 0.36000 -0.00849
v 0.27818 1.02000 -0.00849
v 0.28667 1.02000 -0.01200
v 0.27818 0.36000 -0.00849
v 0.27467 0.36000 -0.00000
v 0.27467 1.02000 -0.00000
v 0.27818 1.02000 -0.00849
v 0.27467 0.36000 -0.00000
v 0.27818 0.36000 0.00849
v 0.27818 1.02000 0.00849
v 0.27467 1.02000 -0.00000
v 0.27818 0.36000 0.00849
v 0.28667 0.36000 0.01200
v 0.28667 1.02000 0.01200
v 0.27818 1.02000 0.00849
v 0.27818 0.36000 0.00849
v 0.27467 0.36000 -0.00000
v 0.27818 0.36000 -0.00849
v 0.28667 0.36000 -0.01200
v 0.29515 0.36000 -0.00849
v 0.29867 0.36000 0.00000
v 0.29515 0.36000 0.00849
v 0.28667 0.36000 0.01200
v 0.28667 1.02000 0.01200
v 0.29515 1.02000 0.00849
v 0.29867 1.02000 0.00000
v 0.29515 1.02000 -0.00849
v 0.28667 1.02000 -0.01200
v 0.27818 1.02000 -0.00849
v 0.27467 1.02000 -0.00000
v 0.27818 1.02000 0.00849
v 0.57333 0.36000 0.01200
v 0.58182 0.36000 0.00849
v 0.58182 1.02000 0.00849
v 0.57333 1.02000 0.01200
v 0.58182 0.36000 0.00849
v 0.58533 0.36000 0.00000
v 0.58533 1.02000 0.00000
v 0.58182 1.02000 0.00849
v 0.58533 0.36000 0.00000
v 0.58182 0.36000 -0.00849
v 0.58182 1.02000 -0.00849
v 0.58533 1.02000 0.00000
v 0.58182 0.36000 -0.00849
v 0.57333 0.36000 -0.01200
v 0.57333 1.02000 -0.01200
v 0.58182 1.02000 -0.00849
v 0.57333 0.36000 -0.01200
v 0.56485 0.36000 -0.00849
v 0.56485 1.02000 -0.00849
v 0.57333 1.02000 -0.01200
v 0.56485 0.36000 -0.00849
v 0.56133 0.36000 -0.00000
v 0.56133 1.02000 -0.00000
v 0.56485 1.02000 -0.00849
v 0.56133 0.36000 -0.00000
v 0.56485 0.36000 0.00849
v 0.56485 1.02000 0.00849
v 0.56133 1.02000 -0.00000
v 0.56485 0.36000 0.00849
v 0.57333 0.36000 0.01200
v 0.57333 1.02000 0.01200
v 0.56485 1.02000 0.00849
v 0.56485 0.36000 0.00849
v 0.56133 0.36000 -0.00000
v 0.56485 0.36000 -0.00849
v 0.57333 0.36000 -0.01200
v 0.58182 0.36000 -0.00849
v 0.58533 0.36000 0.00000
v 0.58182 0.36000 0.00849
v 0.57333 0.36000 0.01200
v 0.57333 1.02000 0.01200
v 0.58182 1.02000 0.00849
v 0.58533 1.02000 0.00000
v 0.58182 1.02000 -0.00849
v 0.57333 1.02000 -0.01200
v 0.56485 1.02000 -0.00849
v 0.56133 1.02000 -0.00000
v 0.56485 1.02000 0.00849
v 0.86000 0.36000 0.01200
v 0.86849 0.36000 0.00849
v 0.86849 1.02000 0.00849
v 0.86000 1.02000 0.01200
v 0.86849 0.36000 0.00849
v 0.87200 0.36000 0.00000
v 0.87200 1.02000 0.00000
v 0.86849 1.02000 0.00849
v 0.87200 0.36000 0.00000
v 0.86849 0.36000 -0.00849
v 0.86849 1.02000 -0.00849
v 0.87200 1.02000 0.00000
v 0.86849 0.36000 -0.00849
v 0.86000 0.36000 -0.01200
v 0.86000 1.02000 -0.01200
v 0.86849 1.02000 -0.00849
v 0.86000 0.36000 -0.01200
v 0.85151 0.36000 -0.00849
v 0.85151 1.02000 -0.00849
v 0.86000 1.02000 -0.01200
v 0.85151 0.36000 -0.00849
v 0.84800 0.36000 -0.00000
v 0.84800 1.02000 -0.00000
v 0.85151 1.02000 -0.00849
v 0.84800 0.36000 -0.00000
v 0.85151 0.36000 0.00849
v 0.85151 1.02000 0.00849
v 0.84800 1.02000 -0.00000
v 0.85151 0.36000 0.00849
v 0.86000 0.36000 0.01200
v 0.86000 1.02000 0.01200
v 0.85151 1.02000 0.00849
v 0.85151 0.36000 0.00849
v 0.84800 0.36000 -0.00000
v 0.85151 0.36000 -0.00849
v 0.86000 0.36000 -0.01200
v 0.86849 0.36000 -0.00849
v 0.87200 0.36000 0.00000
v 0.86849 0.36000 0.00849
v 0.86000 0.36000 0.01200
v 0.86000 1.02000 0.01200
v 0.86849 1.02000 0.00849
v 0.87200 1.02000 0.00000
v 0.86849 1.02000 -0.00849
v 0.86000 1.02000 -0.01200
v 0.85151 1.02000 -0.00849
v 0.84800 1.02000 -0.00000
v 0.85151 1.02000 0.00849
v 0.85000 0.62000 0.04000
v 0.85000 0.62000 0.02000
v 0.85000 0.78000 0.02000
v 0.85000 0.78000 0.04000
v -0.85000 0.62000 0.02000
v -0.85000 0.62000 0.04000
v -0.85000 0.78000 0.04000
v -0.85000 0.78000 0.02000
v -0.85000 0.78000 0.04000
v 0.85000 0.78000 0.04000
v 0.85000 0.78000 0.02000
v -0.85000 0.78000 0.02000
v -0.85000 0.62000 0.02000
v 0.85000 0.62000 0.02000
v 0.85000 0.62000 0.04000
v -0.85000 0.62000 0.04000
v -0.85000 0.62000 0.04000
v 0.85000 0.62000 0.04000
v 0.85000 0.78000 0.04000
v -0.85000 0.78000 0.04000
v 0.85000 0.62000 0.02000
v -0.85000 0.62000 0.02000
v -0.85000 0.78000 0.02000
v 0.85000 0.78000 0.02000
vt 0.00000 0.00000
vt 0.05864 0.00000
vt 0.05864 3.50000
vt 0.00000 3.50000
vt 0.05864 0.00000
vt 0.11729 0.00000
vt 0.11729 3.50000
vt 0.05864 3.50000
vt 0.11729 0.00000
vt 0.17593 0.00000
vt 0.17593 3.50000
vt 0.11729 3.50000
vt 0.17593 0.00000
vt 0.23457 0.00000
vt 0.23457 3.50000
vt 0.17593 3.50000
vt 0.23457 0.00000
vt 0.29322 0.00000
vt 0.29322 3.50000
vt 0.23457 3.50000
vt 0.29322 0.00000
vt 0.35186 0.00000
vt 0.35186 3.50000
vt 0.29322 3.50000
vt 0.35186 0.00000
vt 0.41050 0.00000
vt 0.41050 3.50000
vt 0.35186 3.50000
vt 0.41050 0.00000
vt 0.46914 0.00000
vt 0.46914 3.50000
vt 0.41050 3.50000
vt 0.46914 0.00000
vt 0.52779 0.00000
vt 0.52779 3.50000
vt 0.46914 3.50000
vt 0.52779 0.00000
vt 0.58643 0.00000
vt 0.58643 3.50000
vt 0.52779 3.50000
vt 0.07551 -0.05486
vt 0.02884 -0.08877
vt -0.02884 -0.08877
vt -0.07551 -0.05486
vt -0.09333 0.00000
vt -0.07551 0.05486
vt -0.02884 0.08877
vt 0.02884 0.08877
vt 0.07551 0.05486
vt 0.09333 0.00000
vt 0.09333 0.00000
vt 0.07551 0.05486
vt 0.02884 0.08877
vt -0.02884 0.08877
vt -0.07551 0.05486
vt -0.09333 0.00000
vt -0.07551 -0.05486
vt -0.02884 -0.08877
vt 0.02884 -0.08877
vt 0.07551 -0.05486
vt 0.00000 0.00000
vt 0.16667 0.00000
vt 0.16667 2.40000
vt 0.00000 2.40000
vt 0.16667 0.00000
vt 0.33333 0.00000
vt 0.33333 2.40000
vt 0.16667 2.40000
vt 0.33333 0.00000
vt 0.50000 0.00000
vt 0.50000 2.40000
vt 0.33333 2.40000
vt 0.50000 0.00000
vt 0.66667 0.00000
vt 0.66667 2.40000
vt 0.50000 2.40000
vt -0.08333 0.08333
vt 0.08333 0.08333
vt 0.08333 -0.08333
vt -0.08333 -0.08333
vt -0.08333 -0.08333
vt 0.08333 -0.08333
vt 0.08333 0.08333
vt -0.08333 0.08333
vt 0.00000 0.10000
vt 0.27489 0.10000
vt 0.27489 0.00000
vt 0.00000 0.00000
vt 0.27489 0.10000
vt 0.54978 0.10000
vt 0.54978 0.00000
vt 0.27489 0.00000
vt 0.54978 0.10000
vt 0.82467 0.10000
vt 0.82467 0.00000
vt 0.54978 0.00000
vt 0.82467 0.10000
vt 1.09956 0.10000
vt 1.09956 0.00000
vt 0.82467 0.00000
vt 1.09956 0.10000
vt 1.37445 0.10000
vt 1.37445 0.00000
vt 1.09956 0.00000
vt 1.37445 0.10000
vt 1.64934 0.10000
vt 1.64934 0.00000
vt 1.37445 0.00000
vt 1.64934 0.10000
vt 1.92423 0.10000
vt 1.92423 0.00000
vt 1.64934 0.00000
vt 1.92423 0.10000
vt 2.19911 0.10000
vt 2.19911 0.00000
vt 1.92423 0.00000
vt 0.00000 0.15000
vt 0.27489 0.15000
vt 0.27489 0.10000
vt 0.00000 0.10000
vt 0.27489 0.15000
vt 0.54978 0.15000
vt 0.54978 0.10000
vt 0.27489 0.10000
vt 0.54978 0.15000
vt 0.82467 0.15000
vt 0.82467 0.10000
vt 0.54978 0.10000
vt 0.82467 0.15000
vt 1.09956 0.15000
vt 1.09956 0.10000
vt 0.82467 0.10000
vt 1.09956 0.15000
vt 1.37445 0.15000
vt 1.37445 0.10000
vt 1.09956 0.10000
vt 1.37445 0.15000
vt 1.64934 0.15000
vt 1.64934 0.10000
vt 1.37445 0.10000
vt 1.64934 0.15000
vt 1.92423 0.15000
vt 1.92423 0.10000
vt 1.64934 0.10000
vt 1.92423 0.15000
vt 2.19911 0.15000
vt 2.19911 0.10000
vt 1.92423 0.10000
vt 0.35000 0.00000
vt 0.24749 0.24749
vt 0.00000 0.35000
vt -0.24749 0.24749
vt -0.35000 0.00000
vt -0.24749 -0.24749
vt -0.00000 -0.35000
vt 0.24749 -0.24749
vt 0.10607 -0.10607
vt -0.00000 -0.15000
vt -0.10607 -0.10607
vt -0.15000 0.00000
vt -0.10607 0.10607
vt 0.00000 0.15000
vt 0.10607 0.10607
vt 0.15000 0.00000
vt 0.00000 0.10000
vt 0.27489 0.10000
vt 0.27489 0.00000
vt 0.00000 0.00000
vt 0.27489 0.10000
vt 0.54978 0.10000
vt 0.54978 0.00000
vt 0.27489 0.00000
vt 0.54978 0.10000
vt 0.82467 0.10000
vt 0.82467 0.00000
vt 0.54978 0.00000
vt 0.82467 0.10000
vt 1.09956 0.10000
vt 1.09956 0.00000
vt 0.82467 0.00000
vt 1.09956 0.10000
vt 1.37445 0.10000
vt 1.37445 0.00000
vt 1.09956 0.00000
vt 1.37445 0.10000
vt 1.64934 0.10000
vt 1.64934 0.00000
vt 1.37445 0.00000
vt 1.64934 0.10000
vt 1.92423 0.10000
vt 1.92423 0.00000
vt 1.64934 0.00000
vt 1.92423 0.10000
vt 2.19911 0.10000
vt 2.19911 0.00000
vt 1.92423 0.00000
vt 0.00000 0.15000
vt 0.27489 0.15000
vt 0.27489 0.10000
vt 0.00000 0.10000
vt 0.27489 0.15000
vt 0.54978 0.15000
vt 0.54978 0.10000
vt 0.27489 0.10000
vt 0.54978 0.15000
vt 0.82467 0.15000
vt 0.82467 0.10000
vt 0.54978 0.10000
vt 0.82467 0.15000
vt 1.09956 0.15000
vt 1.09956 0.10000
vt 0.82467 0.10000
vt 1.09956 0.15000
vt 1.37445 0.15000
vt 1.37445 0.10000
vt 1.09956 0.10000
vt 1.37445 0.15000
vt 1.64934 0.15000
vt 1.64934 0.10000
vt 1.37445 0.10000
vt 1.64934 0.15000
vt 1.92423 0.15000
vt 1.92423 0.10000
vt 1.64934 0.10000
vt 1.92423 0.15000
vt 2.19911 0.15000
vt 2.19911 0.10000
vt 1.92423 0.10000
vt 0.35000 0.00000
vt 0.24749 0.24749
vt 0.00000 0.35000
vt -0.24749 0.24749
vt -0.35000 0.00000
vt -0.24749 -0.24749
vt -0.00000 -0.35000
vt 0.24749 -0.24749
vt 0.10607 -0.10607
vt -0.00000 -0.15000
vt -0.10607 -0.10607
vt -0.15000 0.00000
vt -0.10607 0.10607
vt 0.00000 0.15000
vt 0.10607 0.10607
vt 0.15000 0.00000
vt 0.00000 0.00000
vt 0.05864 0.00000
vt 0.05864 3.50000
vt 0.00000 3.50000
vt 0.05864 0.00000
vt 0.11729 0.00000
vt 0.11729 3.50000
vt 0.05864 3.50000
vt 0.11729 0.00000
vt 0.17593 0.00000
vt 0.17593 3.50000
vt 0.11729 3.50000
vt 0.17593 0.00000
vt 0.23457 0.00000
vt 0.23457 3.50000
vt 0.17593 3.50000
vt 0.23457 0.00000
vt 0.29322 0.00000
vt 0.29322 3.50000
vt 0.23457 3.50000
vt 0.29322 0.00000
vt 0.35186 0.00000
vt 0.35186 3.50000
vt 0.29322 3.50000
vt 0.35186 0.00000
vt 0.41050 0.00000
vt 0.41050 3.50000
vt 0.35186 3.50000
vt 0.41050 0.00000
vt 0.46914 0.00000
vt 0.46914 3.50000
vt 0.41050 3.50000
vt 0.46914 0.00000
vt 0.52779 0.00000
vt 0.52779 3.50000
vt 0.46914 3.50000
vt 0.52779 0.00000
vt 0.58643 0.00000
vt 0.58643 3.50000
vt 0.52779 3.50000
vt 0.07551 -0.05486
vt 0.02884 -0.08877
vt -0.02884 -0.08877
vt -0.07551 -0.05486
vt -0.09333 0.00000
vt -0.07551 0.05486
vt -0.02884 0.08877
vt 0.02884 0.08877
vt 0.07551 0.05486
vt 0.09333 0.00000
vt 0.09333 0.00000
vt 0.07551 0.05486
vt 0.02884 0.08877
vt -0.02884 0.08877
vt -0.07551 0.05486
vt -0.09333 0.00000
vt -0.07551 -0.05486
vt -0.02884 -0.08877
vt 0.02884 -0.08877
vt 0.07551 -0.05486
vt 0.00000 0.00000
vt 0.16667 0.00000
vt 0.16667 2.40000
vt 0.00000 2.40000
vt 0.16667 0.00000
vt 0.33333 0.00000
vt 0.33333 2.40000
vt 0.16667 2.40000
vt 0.33333 0.00000
vt 0.50000 0.00000
vt 0.50000 2.40000
vt 0.33333 2.40000
vt 0.50000 0.00000
vt 0.66667 0.00000
vt 0.66667 2.40000
vt 0.50000 2.40000
vt -0.08333 0.08333
vt 0.08333 0.08333
vt 0.08333 -0.08333
vt -0.08333 -0.08333
vt -0.08333 -0.08333
vt 0.08333 -0.08333
vt 0.08333 0.08333
vt -0.08333 0.08333
vt 0.00000 0.10000
vt 0.27489 0.10000
vt 0.27489 0.00000
vt 0.00000 0.00000
vt 0.27489 0.10000
vt 0.54978 0.10000
vt 0.54978 0.00000
vt 0.27489 0.00000
vt 0.54978 0.10000
vt 0.82467 0.10000
vt 0.82467 0.00000
vt 0.54978 0.00000
vt 0.82467 0.10000
vt 1.09956 0.10000
vt 1.09956 0.00000
vt 0.82467 0.00000
vt 1.09956 0.10000
vt 1.37445 0.10000
vt 1.37445 0.00000
vt 1.09956 0.00000
vt 1.37445 0.10000
vt 1.64934 0.10000
vt 1.64934 0.00000
vt 1.37445 0.00000
vt 1.64934 0.10000
vt 1.92423 0.10000
vt 1.92423 0.00000
vt 1.64934 0.00000
vt 1.92423 0.10000
vt 2.19911 0.10000
vt 2.19911 0.00000
vt 1.92423 0.00000
vt 0.00000 0.15000
vt 0.27489 0.15000
vt 0.27489 0.10000
vt 0.00000 0.10000
vt 0.27489 0.15000
vt 0.54978 0.15000
vt 0.54978 0.10000
vt 0.27489 0.10000
vt 0.54978 0.15000
vt 0.82467 0.15000
vt 0.82467 0.10000
vt 0.54978 0.10000
vt 0.82467 0.15000
vt 1.09956 0.15000
vt 1.09956 0.10000
vt 0.82467 0.10000
vt 1.09956 0.15000
vt 1.37445 0.15000
vt 1.37445 0.10000
vt 1.09956 0.10000
vt 1.37445 0.15000
vt 1.64934 0.15000
vt 1.64934 0.10000
vt 1.37445 0.10000
vt 1.64934 0.15000
vt 1.92423 0.15000
vt 1.92423 0.10000
vt 1.64934 0.10000
vt 1.92423 0.15000
vt 2.19911 0.15000
vt 2.19911 0.10000
vt 1.92423 0.10000
vt 0.35000 0.00000
vt 0.24749 0.24749
vt 0.00000 0.35000
vt -0.24749 0.24749
vt -0.35000 0.00000
vt -0.24749 -0.24749
vt -0.00000 -0.35000
vt 0.24749 -0.24749
vt 0.10607 -0.10607
vt -0.00000 -0.15000
vt -0.10607 -0.10607
vt -0.15000 0.00000
vt -0.10607 0.10607
vt 0.00000 0.15000
vt 0.10607 0.10607
vt 0.15000 0.00000
vt 0.00000 0.10000
vt 0.27489 0.10000
vt 0.27489 0.00000
vt 0.00000 0.00000
vt 0.27489 0.10000
vt 0.54978 0.10000
vt 0.54978 0.00000
vt 0.27489 0.00000
vt 0.54978 0.10000
vt 0.82467 0.10000
vt 0.82467 0.00000
vt 0.54978 0.00000
vt 0.82467 0.10000
vt 1.09956 0.10000
vt 1.09956 0.00000
vt 0.82467 0.00000
vt 1.09956 0.10000
vt 1.37445 0.10000
vt 1.37445 0.00000
vt 1.09956 0.00000
vt 1.37445 0.10000
vt 1.64934 0.10000
vt 1.64934 0.00000
vt 1.37445 0.00000
vt 1.64934 0.10000
vt 1.92423 0.10000
vt 1.92423 0.00000
vt 1.64934 0.00000
vt 1.92423 0.10000
vt 2.19911 0.10000
vt 2.19911 0.00000
vt 1.92423 0.00000
vt 0.00000 0.15000
vt 0.27489 0.15000
vt 0.27489 0.10000
vt 0.00000 0.10000
vt 0.27489 0.15000
vt 0.54978 0.15000
vt 0.54978 0.10000
vt 0.27489 0.10000
vt 0.54978 0.15000
vt 0.82467 0.15000
vt 0.82467 0.10000
vt 0.54978 0.10000
vt 0.82467 0.15000
vt 1.09956 0.15000
vt 1.09956 0.10000
vt 0.82467 0.10000
vt 1.09956 0.15000
vt 1.37445 0.15000
vt 1.37445 0.10000
vt 1.09956 0.10000
vt 1.37445 0.15000
vt 1.64934 0.15000
vt 1.64934 0.10000
vt 1.37445 0.10000
vt 1.64934 0.15000
vt 1.92423 0.15000
vt 1.92423 0.10000
vt 1.64934 0.10000
vt 1.92423 0.15000
vt 2.19911 0.15000
vt 2.19911 0.10000
vt 1.92423 0.10000
vt 0.35000 0.00000
vt 0.24749 0.24749
vt 0.00000 0.35000
vt -0.24749 0.24749
vt -0.35000 0.00000
vt -0.24749 -0.24749
vt -0.00000 -0.35000
vt 0.24749 -0.24749
vt 0.10607 -0.10607
vt -0.00000 -0.15000
vt -0.10607 -0.10607
vt -0.15000 0.00000
vt -0.10607 0.10607
vt 0.00000 0.15000
vt 0.10607 0.10607
vt 0.15000 0.00000
vt 0.00000 0.00000
vt 0.05027 0.00000
vt 0.05027 6.66667
vt 0.00000 6.66667
vt 0.05027 0.00000
vt 0.10053 0.00000
vt 0.10053 6.66667
vt 0.05027 6.66667
vt 0.10053 0.00000
vt 0.15080 0.00000
vt 0.15080 6.66667
vt 0.10053 6.66667
vt 0.15080 0.00000
vt 0.20106 0.00000
vt 0.20106 6.66667
vt 0.15080 6.66667
vt 0.20106 0.00000
vt 0.25133 0.00000
vt 0.25133 6.66667
vt 0.20106 6.66667
vt 0.25133 0.00000
vt 0.30159 0.00000
vt 0.30159 6.66667
vt 0.25133 6.66667
vt 0.30159 0.00000
vt 0.35186 0.00000
vt 0.35186 6.66667
vt 0.30159 6.66667
vt 0.35186 0.00000
vt 0.40212 0.00000
vt 0.40212 6.66667
vt 0.35186 6.66667
vt 0.40212 0.00000
vt 0.45239 0.00000
vt 0.45239 6.66667
vt 0.40212 6.66667
vt 0.45239 0.00000
vt 0.50265 0.00000
vt 0.50265 6.66667
vt 0.45239 6.66667
vt 0.06472 -0.04702
vt 0.02472 -0.07608
vt -0.02472 -0.07608
vt -0.06472 -0.04702
vt -0.08000 0.00000
vt -0.06472 0.04702
vt -0.02472 0.07608
vt 0.02472 0.07608
vt 0.06472 0.04702
vt 0.08000 0.00000
vt 0.08000 0.00000
vt 0.06472 0.04702
vt 0.02472 0.07608
vt -0.02472 0.07608
vt -0.06472 0.04702
vt -0.08000 0.00000
vt -0.06472 -0.04702
vt -0.02472 -0.07608
vt 0.02472 -0.07608
vt 0.06472 -0.04702
vt 0.00000 0.00000
vt 0.05027 0.00000
vt 0.05027 6.66667
vt 0.00000 6.66667
vt 0.05027 0.00000
vt 0.10053 0.00000
vt 0.10053 6.66667
vt 0.05027 6.66667
vt 0.10053 0.00000
vt 0.15080 0.00000
vt 0.15080 6.66667
vt 0.10053 6.66667
vt 0.15080 0.00000
vt 0.20106 0.00000
vt 0.20106 6.66667
vt 0.15080 6.66667
vt 0.20106 0.00000
vt 0.25133 0.00000
vt 0.25133 6.66667
vt 0.20106 6.66667
vt 0.25133 0.00000
vt 0.30159 0.00000
vt 0.30159 6.66667
vt 0.25133 6.66667
vt 0.30159 0.00000
vt 0.35186 0.00000
vt 0.35186 6.66667
vt 0.30159 6.66667
vt 0.35186 0.00000
vt 0.40212 0.00000
vt 0.40212 6.66667
vt 0.35186 6.66667
vt 0.40212 0.00000
vt 0.45239 0.00000
vt 0.45239 6.66667
vt 0.40212 6.66667
vt 0.45239 0.00000
vt 0.50265 0.00000
vt 0.50265 6.66667
vt 0.45239 6.66667
vt 0.06472 -0.04702
vt 0.02472 -0.07608
vt -0.02472 -0.07608
vt -0.06472 -0.04702
vt -0.08000 0.00000
vt -0.06472 0.04702
vt -0.02472 0.07608
vt 0.02472 0.07608
vt 0.06472 0.04702
vt 0.08000 0.00000
vt 0.08000 0.00000
vt 0.06472 0.04702
vt 0.02472 0.07608
vt -0.02472 0.07608
vt -0.06472 0.04702
vt -0.08000 0.00000
vt -0.06472 -0.04702
vt -0.02472 -0.07608
vt 0.02472 -0.07608
vt 0.06472 -0.04702
vt 0.00000 0.00000
vt 0.04712 0.00000
vt 0.04712 3.30000
vt 0.00000 3.30000
vt 0.04712 0.00000
vt 0.09425 0.00000
vt 0.09425 3.30000
vt 0.04712 3.30000
vt 0.09425 0.00000
vt 0.14137 0.00000
vt 0.14137 3.30000
vt 0.09425 3.30000
vt 0.14137 0.00000
vt 0.18850 0.00000
vt 0.18850 3.30000
vt 0.14137 3.30000
vt 0.18850 0.00000
vt 0.23562 0.00000
vt 0.23562 3.30000
vt 0.18850 3.30000
vt 0.23562 0.00000
vt 0.28274 0.00000
vt 0.28274 3.30000
vt 0.23562 3.30000
vt 0.28274 0.00000
vt 0.32987 0.00000
vt 0.32987 3.30000
vt 0.28274 3.30000
vt 0.32987 0.00000
vt 0.37699 0.00000
vt 0.37699 3.30000
vt 0.32987 3.30000
vt 0.04243 -0.04243
vt -0.00000 -0.06000
vt -0.04243 -0.04243
vt -0.06000 0.00000
vt -0.04243 0.04243
vt 0.00000 0.06000
vt 0.04243 0.04243
vt 0.06000 0.00000
vt 0.06000 0.00000
vt 0.04243 0.04243
vt 0.00000 0.06000
vt -0.04243 0.04243
vt -0.06000 0.00000
vt -0.04243 -0.04243
vt -0.00000 -0.06000
vt 0.04243 -0.04243
vt 0.00000 0.00000
vt 0.04712 0.00000
vt 0.04712 3.30000
vt 0.00000 3.30000
vt 0.04712 0.00000
vt 0.09425 0.00000
vt 0.09425 3.30000
vt 0.04712 3.30000
vt 0.09425 0.00000
vt 0.14137 0.00000
vt 0.14137 3.30000
vt 0.09425 3.30000
vt 0.14137 0.00000
vt 0.18850 0.00000
vt 0.18850 3.30000
vt 0.14137 3.30000
vt 0.18850 0.00000
vt 0.23562 0.00000
vt 0.23562 3.30000
vt 0.18850 3.30000
vt 0.23562 0.00000
vt 0.28274 0.00000
vt 0.28274 3.30000
vt 0.23562 3.30000
vt 0.28274 0.00000
vt 0.32987 0.00000
vt 0.32987 3.30000
vt 0.28274 3.30000
vt 0.32987 0.00000
vt 0.37699 0.00000
vt 0.37699 3.30000
vt 0.32987 3.30000
vt 0.04243 -0.04243
vt -0.00000 -0.06000
vt -0.04243 -0.04243
vt -0.06000 0.00000
vt -0.04243 0.04243
vt 0.00000 0.06000
vt 0.04243 0.04243
vt 0.06000 0.00000
vt 0.06000 0.00000
vt 0.04243 0.04243
vt 0.00000 0.06000
vt -0.04243 0.04243
vt -0.06000 0.00000
vt -0.04243 -0.04243
vt -0.00000 -0.06000
vt 0.04243 -0.04243
vt 0.00000 0.00000
vt 0.04712 0.00000
vt 0.04712 3.30000
vt 0.00000 3.30000
vt 0.04712 0.00000
vt 0.09425 0.00000
vt 0.09425 3.30000
vt 0.04712 3.30000
vt 0.09425 0.00000
vt 0.14137 0.00000
vt 0.14137 3.30000
vt 0.09425 3.30000
vt 0.14137 0.00000
vt 0.18850 0.00000
vt 0.18850 3.30000
vt 0.14137 3.30000
vt 0.18850 0.00000
vt 0.23562 0.00000
vt 0.23562 3.30000
vt 0.18850 3.30000
vt 0.23562 0.00000
vt 0.28274 0.00000
vt 0.28274 3.30000
vt 0.23562 3.30000
vt 0.28274 0.00000
vt 0.32987 0.00000
vt 0.32987 3.30000
vt 0.28274 3.30000
vt 0.32987 0.00000
vt 0.37699 0.00000
vt 0.37699 3.30000
vt 0.32987 3.30000
vt 0.04243 -0.04243
vt -0.00000 -0.06000
vt -0.04243 -0.04243
vt -0.06000 0.00000
vt -0.04243 0.04243
vt 0.00000 0.06000
vt 0.04243 0.04243
vt 0.06000 0.00000
vt 0.06000 0.00000
vt 0.04243 0.04243
vt 0.00000 0.06000
vt -0.04243 0.04243
vt -0.06000 0.00000
vt -0.04243 -0.04243
vt -0.00000 -0.06000
vt 0.04243 -0.04243
vt 0.00000 0.00000
vt 0.04712 0.00000
vt 0.04712 3.30000
vt 0.00000 3.30000
vt 0.04712 0.00000
vt 0.09425 0.00000
vt 0.09425 3.30000
vt 0.04712 3.30000
vt 0.09425 0.00000
vt 0.14137 0.00000
vt 0.14137 3.30000
vt 0.09425 3.30000
vt 0.14137 0.00000
vt 0.18850 0.00000
vt 0.18850 3.30000
vt 0.14137 3.30000
vt 0.18850 0.00000
vt 0.23562 0.00000
vt 0.23562 3.30000
vt 0.18850 3.30000
vt 0.23562 0.00000
vt 0.28274 0.00000
vt 0.28274 3.30000
vt 0.23562 3.30000
vt 0.28274 0.00000
vt 0.32987 0.00000
vt 0.32987 3.30000
vt 0.28274 3.30000
vt 0.32987 0.00000
vt 0.37699 0.00000
vt 0.37699 3.30000
vt 0.32987 3.30000
vt 0.04243 -0.04243
vt -0.00000 -0.06000
vt -0.04243 -0.04243
vt -0.06000 0.00000
vt -0.04243 0.04243
vt 0.00000 0.06000
vt 0.04243 0.04243
vt 0.06000 0.00000
vt 0.06000 0.00000
vt 0.04243 0.04243
vt 0.00000 0.06000
vt -0.04243 0.04243
vt -0.06000 0.00000
vt -0.04243 -0.04243
vt -0.00000 -0.06000
vt 0.04243 -0.04243
vt 0.00000 0.00000
vt 0.04712 0.00000
vt 0.04712 3.30000
vt 0.00000 3.30000
vt 0.04712 0.00000
vt 0.09425 0.00000
vt 0.09425 3.30000
vt 0.04712 3.30000
vt 0.09425 0.00000
vt 0.14137 0.00000
vt 0.14137 3.30000
vt 0.09425 3.30000
vt 0.14137 0.00000
vt 0.18850 0.00000
vt 0.18850 3.30000
vt 0.14137 3.30000
vt 0.18850 0.00000
vt 0.23562 0.00000
vt 0.23562 3.30000
vt 0.18850 3.30000
vt 0.23562 0.00000
vt 0.28274 0.00000
vt 0.28274 3.30000
vt 0.23562 3.30000
vt 0.28274 0.00000
vt 0.32987 0.00000
vt 0.32987 3.30000
vt 0.28274 3.30000
vt 0.32987 0.00000
vt 0.37699 0.00000
vt 0.37699 3.30000
vt 0.32987 3.30000
vt 0.04243 -0.04243
vt -0.00000 -0.06000
vt -0.04243 -0.04243
vt -0.06000 0.00000
vt -0.04243 0.04243
vt 0.00000 0.06000
vt 0.04243 0.04243
vt 0.06000 0.00000
vt 0.06000 0.00000
vt 0.04243 0.04243
vt 0.00000 0.06000
vt -0.04243 0.04243
vt -0.06000 0.00000
vt -0.04243 -0.04243
vt -0.00000 -0.06000
vt 0.04243 -0.04243
vt 0.00000 0.00000
vt 0.04712 0.00000
vt 0.04712 3.30000
vt 0.00000 3.30000
vt 0.04712 0.00000
vt 0.09425 0.00000
vt 0.09425 3.30000
vt 0.04712 3.30000
vt 0.09425 0.00000
vt 0.14137 0.00000
vt 0.14137 3.30000
vt 0.09425 3.30000
vt 0.14137 0.00000
vt 0.18850 0.00000
vt 0.18850 3.30000
vt 0.14137 3.30000
vt 0.18850 0.00000
vt 0.23562 0.00000
vt 0.23562 3.30000
vt 0.18850 3.30000
vt 0.23562 0.00000
vt 0.28274 0.00000
vt 0.28274 3.30000
vt 0.23562 3.30000
vt 0.28274 0.00000
vt 0.32987 0.00000
vt 0.32987 3.30000
vt 0.28274 3.30000
vt 0.32987 0.00000
vt 0.37699 0.00000
vt 0.37699 3.30000
vt 0.32987 3.30000
vt 0.04243 -0.04243
vt -0.00000 -0.06000
vt -0.04243 -0.04243
vt -0.06000 0.00000
vt -0.04243 0.04243
vt 0.00000 0.06000
vt 0.04243 0.04243
vt 0.06000 0.00000
vt 0.06000 0.00000
vt 0.04243 0.04243
vt 0.00000 0.06000
vt -0.04243 0.04243
vt -0.06000 0.00000
vt -0.04243 -0.04243
vt -0.00000 -0.06000
vt 0.04243 -0.04243
vt 0.00000 0.00000
vt 0.04712 0.00000
vt 0.04712 3.30000
vt 0.00000 3.30000
vt 0.04712 0.00000
vt 0.09425 0.00000
vt 0.09425 3.30000
vt 0.04712 3.30000
vt 0.09425 0.00000
vt 0.14137 0.00000
vt 0.14137 3.30000
vt 0.09425 3.30000
vt 0.14137 0.00000
vt 0.18850 0.00000
vt 0.18850 3.30000
vt 0.14137 3.30000
vt 0.18850 0.00000
vt 0.23562 0.00000
vt 0.23562 3.30000
vt 0.18850 3.30000
vt 0.23562 0.00000
vt 0.28274 0.00000
vt 0.28274 3.30000
vt 0.23562 3.30000
vt 0.28274 0.00000
vt 0.32987 0.00000
vt 0.32987 3.30000
vt 0.28274 3.30000
vt 0.32987 0.00000
vt 0.37699 0.00000
vt 0.37699 3.30000
vt 0.32987 3.30000
vt 0.04243 -0.04243
vt -0.00000 -0.06000
vt -0.04243 -0.04243
vt -0.06000 0.00000
vt -0.04243 0.04243
vt 0.00000 0.06000
vt 0.04243 0.04243
vt 0.06000 0.00000
vt 0.06000 0.00000
vt 0.04243 0.04243
vt 0.00000 0.06000
vt -0.04243 0.04243
vt -0.06000 0.00000
vt -0.04243 -0.04243
vt -0.00000 -0.06000
vt 0.04243 -0.04243
vt -0.13333 2.06667
vt -0.06667 2.06667
vt -0.06667 2.60000
vt -0.13333 2.60000
vt 0.06667 2.06667
vt 0.13333 2.06667
vt 0.13333 2.60000
vt 0.06667 2.60000
vt -2.83333 -0.13333
vt 2.83333 -0.13333
vt 2.83333 -0.06667
vt -2.83333 -0.06667
vt -2.83333 0.06667
vt 2.83333 0.06667
vt 2.83333 0.13333
vt -2.83333 0.13333
vt -2.83333 2.06667
vt 2.83333 2.06667
vt 2.83333 2.60000
vt -2.83333 2.60000
vt -2.83333 2.06667
vt 2.83333 2.06667
vt 2.83333 2.60000
vt -2.83333 2.60000
vn 0.00000 0.00000 1.00000
vn 0.58779 0.00000 0.80902
vn 0.58779 0.00000 0.80902
vn 0.00000 0.00000 1.00000
vn 0.58779 0.00000 0.80902
vn 0.95106 0.00000 0.30902
vn 0.95106 0.00000 0.30902
vn 0.58779 0.00000 0.80902
vn 0.95106 0.00000 0.30902
vn 0.95106 0.00000 -0.30902
vn 0.95106 0.00000 -0.30902
vn 0.95106 0.00000 0.30902
vn 0.95106 0.00000 -0.30902
vn 0.58779 0.00000 -0.80902
vn 0.58779 0.00000 -0.80902
vn 0.95106 0.00000 -0.30902
vn 0.58779 0.00000 -0.80902
vn 0.00000 0.00000 -1.00000
vn 0.00000 0.00000 -1.00000
vn 0.58779 0.00000 -0.80902
vn 0.00000 0.00000 -1.00000
vn -0.58779 -0.00000 -0.80902
vn -0.58779 -0.00000 -0.80902
vn 0.00000 0.00000 -1.00000
vn -0.58779 -0.00000 -0.80902
vn -0.95106 -0.00000 -0.30902
vn -0.95106 -0.00000 -0.30902
vn -0.58779 -0.00000 -0.80902
vn -0.95106 -0.00000 -0.30902
vn -0.95106 0.00000 0.30902
vn -0.95106 0.00000 0.30902
vn -0.95106 -0.00000 -0.30902
vn -0.95106 0.00000 0.30902
vn -0.58779 0.00000 0.80902
vn -0.58779 0.00000 0.80902
vn -0.95106 0.00000 0.30902
vn -0.58779 0.00000 0.80902
vn 0.00000 0.00000 1.00000
vn 0.00000 0.00000 1.00000
vn -0.58779 0.00000 0.80902
vn -0.00000 -1.00000 -0.00000
vn 0.00000 1.00000 0.00000
vn 0.00000 -1.00000 0.00000
vn 1.00000 0.00000 0.00000
vn 0.00000 1.00000 0.00000
vn -1.00000 0.00000 0.00000
vn 0.00000 0.00000 -1.00000
vn 0.00000 0.00000 1.00000
vn 1.00000 -0.00000 0.00000
vn 0.70711 -0.00000 0.70711
vn 0.70711 -0.00000 0.70711
vn 1.00000 -0.00000 0.00000
vn 0.70711 -0.00000 0.70711
vn 0.00000 -0.00000 1.00000
vn 0.00000 -0.00000 1.00000
vn 0.70711 -0.00000 0.70711
vn 0.00000 -0.00000 1.00000
vn -0.70711 -0.00000 0.70711
vn -0.70711 -0.00000 0.70711
vn 0.00000 -0.00000 1.00000
vn -0.70711 -0.00000 0.70711
vn -1.00000 -0.00000 0.00000
vn -1.00000 -0.00000 0.00000
vn -0.70711 -0.00000 0.70711
vn -1.00000 -0.00000 0.00000
vn -0.70711 -0.00000 -0.70711
vn -0.70711 -0.00000 -0.70711
vn -1.00000 -0.00000 0.00000
vn -0.70711 -0.00000 -0.70711
vn -0.00000 -0.00000 -1.00000
vn -0.00000 -0.00000 -1.00000
vn -0.70711 -0.00000 -0.70711
vn -0.00000 -0.00000 -1.00000
vn 0.70711 -0.00000 -0.70711
vn 0.70711 -0.00000 -0.70711
vn -0.00000 -0.00000 -1.00000
vn 0.70711 -0.00000 -0.70711
vn 1.00000 -0.00000 -0.00000
vn 1.00000 -0.00000 -0.00000
vn 0.70711 -0.00000 -0.70711
vn 0.24254 0.97014 0.00000
vn 0.17150 0.97014 0.17150
vn 0.17150 0.97014 0.17150
vn 0.24254 0.97014 0.00000
vn 0.17150 0.97014 0.17150
vn 0.00000 0.97014 0.24254
vn 0.00000 0.97014 0.24254
vn 0.17150 0.97014 0.17150
vn 0.00000 0.97014 0.24254
vn -0.17150 0.97014 0.17150
vn -0.17150 0.97014 0.17150
vn 0.00000 0.97014 0.24254
vn -0.17150 0.97014 0.17150
vn -0.24254 0.97014 0.00000
vn -0.24254 0.97014 0.00000
vn -0.17150 0.97014 0.17150
vn -0.24254 0.97014 0.00000
vn -0.17150 0.97014 -0.17150
vn -0.17150 0.97014 -0.17150
vn -0.24254 0.97014 0.00000
vn -0.17150 0.97014 -0.17150
vn -0.00000 0.97014 -0.24254
vn -0.00000 0.97014 -0.24254
vn -0.17150 0.97014 -0.17150
vn -0.00000 0.97014 -0.24254
vn 0.17150 0.97014 -0.17150
vn 0.17150 0.97014 -0.17150
vn -0.00000 0.97014 -0.24254
vn 0.17150 0.97014 -0.17150
vn 0.24254 0.97014 -0.00000
vn 0.24254 0.97014 -0.00000
vn 0.17150 0.97014 -0.17150
vn 0.00000 -1.00000 0.00000
vn 0.00000 1.00000 0.00000
vn 1.00000 -0.00000 0.00000
vn 0.70711 -0.00000 0.70711
vn 0.70711 -0.00000 0.70711
vn 1.00000 -0.00000 0.00000
vn 0.70711 -0.00000 0.70711
vn 0.00000 -0.00000 1.00000
vn 0.00000 -0.00000 1.00000
vn 0.70711 -0.00000 0.70711
vn 0.00000 -0.00000 1.00000
vn -0.70711 -0.00000 0.70711
vn -0.70711 -0.00000 0.70711
vn 0.00000 -0.00000 1.00000
vn -0.70711 -0.00000 0.70711
vn -1.00000 -0.00000 0.00000
vn -1.00000 -0.00000 0.00000
vn -0.70711 -0.00000 0.70711
vn -1.00000 -0.00000 0.00000
vn -0.70711 -0.00000 -0.70711
vn -0.70711 -0.00000 -0.70711
vn -1.00000 -0.00000 0.00000
vn -0.70711 -0.00000 -0.70711
vn -0.00000 -0.00000 -1.00000
vn -0.00000 -0.00000 -1.00000
vn -0.70711 -0.00000 -0.70711
vn -0.00000 -0.00000 -1.00000
vn 0.70711 -0.00000 -0.70711
vn 0.70711 -0.00000 -0.70711
vn -0.00000 -0.00000 -1.00000
vn 0.70711 -0.00000 -0.70711
vn 1.00000 -0.00000 -0.00000
vn 1.00000 -0.00000 -0.00000
vn 0.70711 -0.00000 -0.70711
vn 0.24254 0.97014 0.00000
vn 0.17150 0.97014 0.17150
vn 0.17150 0.97014 0.17150
vn 0.24254 0.97014 0.00000
vn 0.17150 0.97014 0.17150
vn 0.00000 0.97014 0.24254
vn 0.00000 0.97014 0.24254
vn 0.17150 0.97014 0.17150
vn 0.00000 0.97014 0.24254
vn -0.17150 0.97014 0.17150
vn -0.17150 0.97014 0.17150
vn 0.00000 0.97014 0.24254
vn -0.17150 0.97014 0.17150
vn -0.24254 0.97014 0.00000
vn -0.24254 0.97014 0.00000
vn -0.17150 0.97014 0.17150
vn -0.24254 0.97014 0.00000
vn -0.17150 0.97014 -0.17150
vn -0.17150 0.97014 -0.17150
vn -0.24254 0.97014 0.00000
vn -0.17150 0.97014 -0.17150
vn -0.00000 0.97014 -0.24254
vn -0.00000 0.97014 -0.24254
vn -0.17150 0.97014 -0.17150
vn -0.00000 0.97014 -0.24254
vn 0.17150 0.97014 -0.17150
vn 0.17150 0.97014 -0.17150
vn -0.00000 0.97014 -0.24254
vn 0.17150 0.97014 -0.17150
vn 0.24254 0.97014 -0.00000
vn 0.24254 0.97014 -0.00000
vn 0.17150 0.97014 -0.17150
vn 0.00000 -1.00000 0.00000
vn 0.00000 1.00000 0.00000
vn 0.00000 0.00000 1.00000
vn 0.58779 0.00000 0.80902
vn 0.58779 0.00000 0.80902
vn 0.00000 0.00000 1.00000
vn 0.58779 0.00000 0.80902
vn 0.95106 0.00000 0.30902
vn 0.95106 0.00000 0.30902
vn 0.58779 0.00000 0.80902
vn 0.95106 0.00000 0.30902
vn 0.95106 0.00000 -0.30902
vn 0.95106 0.00000 -0.30902
vn 0.95106 0.00000 0.30902
vn 0.95106 0.00000 -0.30902
vn 0.58779 0.00000 -0.80902
vn 0.58779 0.00000 -0.80902
vn 0.95106 0.00000 -0.30902
vn 0.58779 0.00000 -0.80902
vn 0.00000 0.00000 -1.00000
vn 0.00000 0.00000 -1.00000
vn 0.58779 0.00000 -0.80902
vn 0.00000 0.00000 -1.00000
vn -0.58779 -0.00000 -0.80902
vn -0.58779 -0.00000 -0.80902
vn 0.00000 0.00000 -1.00000
vn -0.58779 -0.00000 -0.80902
vn -0.95106 -0.00000 -0.30902
vn -0.95106 -0.00000 -0.30902
vn -0.58779 -0.00000 -0.80902
vn -0.95106 -0.00000 -0.30902
vn -0.95106 0.00000 0.30902
vn -0.95106 0.00000 0.30902
vn -0.95106 -0.00000 -0.30902
vn -0.95106 0.00000 0.30902
vn -0.58779 0.00000 0.80902
vn -0.58779 0.00000 0.80902
vn -0.95106 0.00000 0.30902
vn -0.58779 0.00000 0.80902
vn 0.00000 0.00000 1.00000
vn 0.00000 0.00000 1.00000
vn -0.58779 0.00000 0.80902
vn -0.00000 -1.00000 -0.00000
vn 0.00000 1.00000 0.00000
vn 0.00000 -1.00000 0.00000
vn 1.00000 0.00000 0.00000
vn 0.00000 1.00000 0.00000
vn -1.00000 0.00000 0.00000
vn 0.00000 0.00000 -1.00000
vn 0.00000 0.00000 1.00000
vn 1.00000 -0.00000 0.00000
vn 0.70711 -0.00000 0.70711
vn 0.70711 -0.00000 0.70711
vn 1.00000 -0.00000 0.00000
vn 0.70711 -0.00000 0.70711
vn 0.00000 -0.00000 1.00000
vn 0.00000 -0.00000 1.00000
vn 0.70711 -0.00000 0.70711
vn 0.00000 -0.00000 1.00000
vn -0.70711 -0.00000 0.70711
vn -0.70711 -0.00000 0.70711
vn 0.00000 -0.00000 1.00000
vn -0.70711 -0.00000 0.70711
vn -1.00000 -0.00000 0.00000
vn -1.00000 -0.00000 0.00000
vn -0.70711 -0.00000 0.70711
vn -1.00000 -0.00000 0.00000
vn -0.70711 -0.00000 -0.70711
vn -0.70711 -0.00000 -0.70711
vn -1.00000 -0.00000 0.00000
vn -0.70711 -0.00000 -0.70711
vn -0.00000 -0.00000 -1.00000
vn -0.00000 -0.00000 -1.00000
vn -0.70711 -0.00000 -0.70711
vn -0.00000 -0.00000 -1.00000
vn 0.70711 -0.00000 -0.70711
vn 0.70711 -0.00000 -0.70711
vn -0.00000 -0.00000 -1.00000
vn 0.70711 -0.00000 -0.70711
vn 1.00000 -0.00000 -0.00000
vn 1.00000 -0.00000 -0.00000
vn 0.70711 -0.00000 -0.70711
vn 0.24254 0.97014 0.00000
vn 0.17150 0.97014 0.17150
vn 0.17150 0.97014 0.17150
vn 0.24254 0.97014 0.00000
vn 0.17150 0.97014 0.17150
vn 0.00000 0.97014 0.24254
vn 0.00000 0.97014 0.24254
vn 0.17150 0.97014 0.17150
vn 0.00000 0.97014 0.24254
vn -0.17150 0.97014 0.17150
vn -0.17150 0.97014 0.17150
vn 0.00000 0.97014 0.24254
vn -0.17150 0.97014 0.17150
vn -0.24254 0.97014 0.00000
vn -0.24254 0.97014 0.00000
vn -0.17150 0.97014 0.17150
vn -0.24254 0.97014 0.00000
vn -0.17150 0.97014 -0.17150
vn -0.17150 0.97014 -0.17150
vn -0.24254 0.97014 0.00000
vn -0.17150 0.97014 -0.17150
vn -0.00000 0.97014 -0.24254
vn -0.00000 0.97014 -0.24254
vn -0.17150 0.97014 -0.17150
vn -0.00000 0.97014 -0.24254
vn 0.17150 0.97014 -0.17150
vn 0.17150 0.97014 -0.17150
vn -0.00000 0.97014 -0.24254
vn 0.17150 0.97014 -0.17150
vn 0.24254 0.97014 -0.00000
vn 0.24254 0.97014 -0.00000
vn 0.17150 0.97014 -0.17150
vn 0.00000 -1.00000 0.00000
vn 0.00000 1.00000 0.00000
vn 1.00000 -0.00000 0.00000
vn 0.70711 -0.00000 0.70711
vn 0.70711 -0.00000 0.70711
vn 1.00000 -0.00000 0.00000
vn 0.70711 -0.00000 0.70711
vn 0.00000 -0.00000 1.00000
vn 0.00000 -0.00000 1.00000
vn 0.70711 -0.00000 0.70711
vn 0.00000 -0.00000 1.00000
vn -0.70711 -0.00000 0.70711
vn -0.70711 -0.00000 0.70711
vn 0.00000 -0.00000 1.00000
vn -0.70711 -0.00000 0.70711
vn -1.00000 -0.00000 0.00000
vn -1.00000 -0.00000 0.00000
vn -0.70711 -0.00000 0.70711
vn -1.00000 -0.00000 0.00000
vn -0.70711 -0.00000 -0.70711
vn -0.70711 -0.00000 -0.70711
vn -1.00000 -0.00000 0.00000
vn -0.70711 -0.00000 -0.70711
vn -0.00000 -0.00000 -1.00000
vn -0.00000 -0.00000 -1.00000
vn -0.70711 -0.00000 -0.70711
vn -0.00000 -0.00000 -1.00000
vn 0.70711 -0.00000 -0.70711
vn 0.70711 -0.00000 -0.70711
vn -0.00000 -0.00000 -1.00000
vn 0.70711 -0.00000 -0.70711
vn 1.00000 -0.00000 -0.00000
vn 1.00000 -0.00000 -0.00000
vn 0.70711 -0.00000 -0.70711
vn 0.24254 0.97014 0.00000
vn 0.17150 0.97014 0.17150
vn 0.17150 0.97014 0.17150
vn 0.24254 0.97014 0.00000
vn 0.17150 0.97014 0.17150
vn 0.00000 0.97014 0.24254
vn 0.00000 0.97014 0.24254
vn 0.17150 0.97014 0.17150
vn 0.00000 0.97014 0.24254
vn -0.17150 0.97014 0.17150
vn -0.17150 0.97014 0.17150
vn 0.00000 0.97014 0.24254
vn -0.17150 0.97014 0.17150
vn -0.24254 0.97014 0.00000
vn -0.24254 0.97014 0.00000
vn -0.17150 0.97014 0.17150
vn -0.24254 0.97014 0.00000
vn -0.17150 0.97014 -0.17150
vn -0.17150 0.97014 -0.17150
vn -0.24254 0.97014 0.00000
vn -0.17150 0.97014 -0.17150
vn -0.00000 0.97014 -0.24254
vn -0.00000 0.97014 -0.24254
vn -0.17150 0.97014 -0.17150
vn -0.00000 0.97014 -0.24254
vn 0.17150 0.97014 -0.17150
vn 0.17150 0.97014 -0.17150
vn -0.00000 0.97014 -0.24254
vn 0.17150 0.97014 -0.17150
vn 0.24254 0.97014 -0.00000
vn 0.24254 0.97014 -0.00000
vn 0.17150 0.97014 -0.17150
vn 0.00000 -1.00000 0.00000
vn 0.00000 1.00000 0.00000
vn 0.00000 0.00000 -1.00000
vn 0.00000 0.58779 -0.80902
vn 0.00000 0.58779 -0.80902
vn 0.00000 0.00000 -1.00000
vn 0.00000 0.58779 -0.80902
vn 0.00000 0.95106 -0.30902
vn 0.00000 0.95106 -0.30902
vn 0.00000 0.58779 -0.80902
vn 0.00000 0.95106 -0.30902
vn -0.00000 0.95106 0.30902
vn -0.00000 0.95106 0.30902
vn 0.00000 0.95106 -0.30902
vn -0.00000 0.95106 0.30902
vn -0.00000 0.58779 0.80902
vn -0.00000 0.58779 0.80902
vn -0.00000 0.95106 0.30902
vn -0.00000 0.58779 0.80902
vn -0.00000 0.00000 1.00000
vn -0.00000 0.00000 1.00000
vn -0.00000 0.58779 0.80902
vn -0.00000 0.00000 1.00000
vn 0.00000 -0.58779 0.80902
vn 0.00000 -0.58779 0.80902
vn -0.00000 0.00000 1.00000
vn 0.00000 -0.58779 0.80902
vn 0.00000 -0.95106 0.30902
vn 0.00000 -0.95106 0.30902
vn 0.00000 -0.58779 0.80902
vn 0.00000 -0.95106 0.30902
vn 0.00000 -0.95106 -0.30902
vn 0.00000 -0.95106 -0.30902
vn 0.00000 -0.95106 0.30902
vn 0.00000 -0.95106 -0.30902
vn 0.00000 -0.58779 -0.80902
vn 0.00000 -0.58779 -0.80902
vn 0.00000 -0.95106 -0.30902
vn 0.00000 -0.58779 -0.80902
vn 0.00000 0.00000 -1.00000
vn 0.00000 0.00000 -1.00000
vn 0.00000 -0.58779 -0.80902
vn -1.00000 -0.00000 -0.00000
vn 1.00000 0.00000 0.00000
vn 0.00000 0.00000 -1.00000
vn 0.00000 0.58779 -0.80902
vn 0.00000 0.58779 -0.80902
vn 0.00000 0.00000 -1.00000
vn 0.00000 0.58779 -0.80902
vn 0.00000 0.95106 -0.30902
vn 0.00000 0.95106 -0.30902
vn 0.00000 0.58779 -0.80902
vn 0.00000 0.95106 -0.30902
vn -0.00000 0.95106 0.30902
vn -0.00000 0.95106 0.30902
vn 0.00000 0.95106 -0.30902
vn -0.00000 0.95106 0.30902
vn -0.00000 0.58779 0.80902
vn -0.00000 0.58779 0.80902
vn -0.00000 0.95106 0.30902
vn -0.00000 0.58779 0.80902
vn -0.00000 0.00000 1.00000
vn -0.00000 0.00000 1.00000
vn -0.00000 0.58779 0.80902
vn -0.00000 0.00000 1.00000
vn 0.00000 -0.58779 0.80902
vn 0.00000 -0.58779 0.80902
vn -0.00000 0.00000 1.00000
vn 0.00000 -0.58779 0.80902
vn 0.00000 -0.95106 0.30902
vn 0.00000 -0.95106 0.30902
vn 0.00000 -0.58779 0.80902
vn 0.00000 -0.95106 0.30902
vn 0.00000 -0.95106 -0.30902
vn 0.00000 -0.95106 -0.30902
vn 0.00000 -0.95106 0.30902
vn 0.00000 -0.95106 -0.30902
vn 0.00000 -0.58779 -0.80902
vn 0.00000 -0.58779 -0.80902
vn 0.00000 -0.95106 -0.30902
vn 0.00000 -0.58779 -0.80902
vn 0.00000 0.00000 -1.00000
vn 0.00000 0.00000 -1.00000
vn 0.00000 -0.58779 -0.80902
vn -1.00000 -0.00000 -0.00000
vn 1.00000 0.00000 0.00000
vn 0.00000 0.00000 1.00000
vn 0.70711 0.00000 0.70711
vn 0.70711 0.00000 0.70711
vn 0.00000 0.00000 1.00000
vn 0.70711 0.00000 0.70711
vn 1.00000 0.00000 0.00000
vn 1.00000 0.00000 0.00000
vn 0.70711 0.00000 0.70711
vn 1.00000 0.00000 0.00000
vn 0.70711 0.00000 -0.70711
vn 0.70711 0.00000 -0.70711
vn 1.00000 0.00000 0.00000
vn 0.70711 0.00000 -0.70711
vn 0.00000 0.00000 -1.00000
vn 0.00000 0.00000 -1.00000
vn 0.70711 0.00000 -0.70711
vn 0.00000 0.00000 -1.00000
vn -0.70711 -0.00000 -0.70711
vn -0.70711 -0.00000 -0.70711
vn 0.00000 0.00000 -1.00000
vn -0.70711 -0.00000 -0.70711
vn -1.00000 -0.00000 -0.00000
vn -1.00000 -0.00000 -0.00000
vn -0.70711 -0.00000 -0.70711
vn -1.00000 -0.00000 -0.00000
vn -0.70711 0.00000 0.70711
vn -0.70711 0.00000 0.70711
vn -1.00000 -0.00000 -0.00000
vn -0.70711 0.00000 0.70711
vn 0.00000 0.00000 1.00000
vn 0.00000 0.00000 1.00000
vn -0.70711 0.00000 0.70711
vn -0.00000 -1.00000 -0.00000
vn 0.00000 1.00000 0.00000
vn 0.00000 0.00000 1.00000
vn 0.70711 0.00000 0.70711
vn 0.70711 0.00000 0.70711
vn 0.00000 0.00000 1.00000
vn 0.70711 0.00000 0.70711
vn 1.00000 0.00000 0.00000
vn 1.00000 0.00000 0.00000
vn 0.70711 0.00000 0.70711
vn 1.00000 0.00000 0.00000
vn 0.70711 0.00000 -0.70711
vn 0.70711 0.00000 -0.70711
vn 1.00000 0.00000 0.00000
vn 0.70711 0.00000 -0.70711
vn 0.00000 0.00000 -1.00000
vn 0.00000 0.00000 -1.00000
vn 0.70711 0.00000 -0.70711
vn 0.00000 0.00000 -1.00000
vn -0.70711 -0.00000 -0.70711
vn -0.70711 -0.00000 -0.70711
vn 0.00000 0.00000 -1.00000
vn -0.70711 -0.00000 -0.70711
vn -1.00000 -0.00000 -0.00000
vn -1.00000 -0.00000 -0.00000
vn -0.70711 -0.00000 -0.70711
vn -1.00000 -0.00000 -0.00000
vn -0.70711 0.00000 0.70711
vn -0.70711 0.00000 0.70711
vn -1.00000 -0.00000 -0.00000
vn -0.70711 0.00000 0.70711
vn 0.00000 0.00000 1.00000
vn 0.00000 0.00000 1.00000
vn -0.70711 0.00000 0.70711
vn -0.00000 -1.00000 -0.00000
vn 0.00000 1.00000 0.00000
vn 0.00000 0.00000 1.00000
vn 0.70711 0.00000 0.70711
vn 0.70711 0.00000 0.70711
vn 0.00000 0.00000 1.00000
vn 0.70711 0.00000 0.70711
vn 1.00000 0.00000 0.00000
vn 1.00000 0.00000 0.00000
vn 0.70711 0.00000 0.70711
vn 1.00000 0.00000 0.00000
vn 0.70711 0.00000 -0.70711
vn 0.70711 0.00000 -0.70711
vn 1.00000 0.00000 0.00000
vn 0.70711 0.00000 -0.70711
vn 0.00000 0.00000 -1.00000
vn 0.00000 0.00000 -1.00000
vn 0.70711 0.00000 -0.70711
vn 0.00000 0.00000 -1.00000
vn -0.70711 -0.00000 -0.70711
vn -0.70711 -0.00000 -0.70711
vn 0.00000 0.00000 -1.00000
vn -0.70711 -0.00000 -0.70711
vn -1.00000 -0.00000 -0.00000
vn -1.00000 -0.00000 -0.00000
vn -0.70711 -0.00000 -0.70711
vn -1.00000 -0.00000 -0.00000
vn -0.70711 0.00000 0.70711
vn -0.70711 0.00000 0.70711
vn -1.00000 -0.00000 -0.00000
vn -0.70711 0.00000 0.70711
vn 0.00000 0.00000 1.00000
vn 0.00000 0.00000 1.00000
vn -0.70711 0.00000 0.70711
vn -0.00000 -1.00000 -0.00000
vn 0.00000 1.00000 0.00000
vn 0.00000 0.00000 1.00000
vn 0.70711 0.00000 0.70711
vn 0.70711 0.00000 0.70711
vn 0.00000 0.00000 1.00000
vn 0.70711 0.00000 0.70711
vn 1.00000 0.00000 0.00000
vn 1.00000 0.00000 0.00000
vn 0.70711 0.00000 0.70711
vn 1.00000 0.00000 0.00000
vn 0.70711 0.00000 -0.70711
vn 0.70711 0.00000 -0.70711
vn 1.00000 0.00000 0.00000
vn 0.70711 0.00000 -0.70711
vn 0.00000 0.00000 -1.00000
vn 0.00000 0.00000 -1.00000
vn 0.70711 0.00000 -0.70711
vn 0.00000 0.00000 -1.00000
vn -0.70711 -0.00000 -0.70711
vn -0.70711 -0.00000 -0.70711
vn 0.00000 0.00000 -1.00000
vn -0.70711 -0.00000 -0.70711
vn -1.00000 -0.00000 -0.00000
vn -1.00000 -0.00000 -0.00000
vn -0.70711 -0.00000 -0.70711
vn -1.00000 -0.00000 -0.00000
vn -0.70711 0.00000 0.70711
vn -0.70711 0.00000 0.70711
vn -1.00000 -0.00000 -0.00000
vn -0.70711 0.00000 0.70711
vn 0.00000 0.00000 1.00000
vn 0.00000 0.00000 1.00000
vn -0.70711 0.00000 0.70711
vn -0.00000 -1.00000 -0.00000
vn 0.00000 1.00000 0.00000
vn 0.00000 0.00000 1.00000
vn 0.70711 0.00000 0.70711
vn 0.70711 0.00000 0.70711
vn 0.00000 0.00000 1.00000
vn 0.70711 0.00000 0.70711
vn 1.00000 0.00000 0.00000
vn 1.00000 0.00000 0.00000
vn 0.70711 0.00000 0.70711
vn 1.00000 0.00000 0.00000
vn 0.70711 0.00000 -0.70711
vn 0.70711 0.00000 -0.70711
vn 1.00000 0.00000 0.00000
vn 0.70711 0.00000 -0.70711
vn 0.00000 0.00000 -1.00000
vn 0.00000 0.00000 -1.00000
vn 0.70711 0.00000 -0.70711
vn 0.00000 0.00000 -1.00000
vn -0.70711 -0.00000 -0.70711
vn -0.70711 -0.00000 -0.70711
vn 0.00000 0.00000 -1.00000
vn -0.70711 -0.00000 -0.70711
vn -1.00000 -0.00000 -0.00000
vn -1.00000 -0.00000 -0.00000
vn -0.70711 -0.00000 -0.70711
vn -1.00000 -0.00000 -0.00000
vn -0.70711 0.00000 0.70711
vn -0.70711 0.00000 0.70711
vn -1.00000 -0.00000 -0.00000
vn -0.70711 0.00000 0.70711
vn 0.00000 0.00000 1.00000
vn 0.00000 0.00000 1.00000
vn -0.70711 0.00000 0.70711
vn -0.00000 -1.00000 -0.00000
vn 0.00000 1.00000 0.00000
vn 0.00000 0.00000 1.00000
vn 0.70711 0.00000 0.70711
vn 0.70711 0.00000 0.70711
vn 0.00000 0.00000 1.00000
vn 0.70711 0.00000 0.70711
vn 1.00000 0.00000 0.00000
vn 1.00000 0.00000 0.00000
vn 0.70711 0.00000 0.70711
vn 1.00000 0.00000 0.00000
vn 0.70711 0.00000 -0.70711
vn 0.70711 0.00000 -0.70711
vn 1.00000 0.00000 0.00000
vn 0.70711 0.00000 -0.70711
vn 0.00000 0.00000 -1.00000
vn 0.00000 0.00000 -1.00000
vn 0.70711 0.00000 -0.70711
vn 0.00000 0.00000 -1.00000
vn -0.70711 -0.00000 -0.70711
vn -0.70711 -0.00000 -0.70711
vn 0.00000 0.00000 -1.00000
vn -0.70711 -0.00000 -0.70711
vn -1.00000 -0.00000 -0.00000
vn -1.00000 -0.00000 -0.00000
vn -0.70711 -0.00000 -0.70711
vn -1.00000 -0.00000 -0.00000
vn -0.70711 0.00000 0.70711
vn -0.70711 0.00000 0.70711
vn -1.00000 -0.00000 -0.00000
vn -0.70711 0.00000 0.70711
vn 0.00000 0.00000 1.00000
vn 0.00000 0.00000 1.00000
vn -0.70711 0.00000 0.70711
vn -0.00000 -1.00000 -0.00000
vn 0.00000 1.00000 0.00000
vn 0.00000 0.00000 1.00000
vn 0.70711 0.00000 0.70711
vn 0.70711 0.00000 0.70711
vn 0.00000 0.00000 1.00000
vn 0.70711 0.00000 0.70711
vn 1.00000 0.00000 0.00000
vn 1.00000 0.00000 0.00000
vn 0.70711 0.00000 0.70711
vn 1.00000 0.00000 0.00000
vn 0.70711 0.00000 -0.70711
vn 0.70711 0.00000 -0.70711
vn 1.00000 0.00000 0.00000
vn 0.70711 0.00000 -0.70711
vn 0.00000 0.00000 -1.00000
vn 0.00000 0.00000 -1.00000
vn 0.70711 0.00000 -0.70711
vn 0.00000 0.00000 -1.00000
vn -0.70711 -0.00000 -0.70711
vn -0.70711 -0.00000 -0.70711
vn 0.00000 0.00000 -1.00000
vn -0.70711 -0.00000 -0.70711
vn -1.00000 -0.00000 -0.00000
vn -1.00000 -0.00000 -0.00000
vn -0.70711 -0.00000 -0.70711
vn -1.00000 -0.00000 -0.00000
vn -0.70711 0.00000 0.70711
vn -0.70711 0.00000 0.70711
vn -1.00000 -0.00000 -0.00000
vn -0.70711 0.00000 0.70711
vn 0.00000 0.00000 1.00000
vn 0.00000 0.00000 1.00000
vn -0.70711 0.00000 0.70711
vn -0.00000 -1.00000 -0.00000
vn 0.00000 1.00000 0.00000
vn 1.00000 0.00000 0.00000
vn -1.00000 0.00000 0.00000
vn 0.00000 1.00000 0.00000
vn 0.00000 -1.00000 0.00000
vn 0.00000 0.00000 1.00000
vn 0.00000 0.00000 -1.00000
usemtl steel
f 1/1/1 2/2/2 3/3/3 4/4/4
f 5/5/5 6/6/6 7/7/7 8/8/8
f 9/9/9 10/10/10 11/11/11 12/12/12
f 13/13/13 14/14/14 15/15/15 16/16/16
f 17/17/17 18/18/18 19/19/19 20/20/20
f 21/21/21 22/22/22 23/23/23 24/24/24
f 25/25/25 26/26/26 27/27/27 28/28/28
f 29/29/29 30/30/30 31/31/31 32/32/32
f 33/33/33 34/34/34 35/35/35 36/36/36
f 37/37/37 38/38/38 39/39/39 40/40/40
f 41/41/41 42/42/41 43/43/41 44/44/41 45/45/41 46/46/41 47/47/41 48/48/41 49/49/41 50/50/41
f 51/51/42 52/52/42 53/53/42 54/54/42 55/55/42 56/56/42 57/57/42 58/58/42 59/59/42 60/60/42
f 61/61/43 62/62/43 63/63/43 64/64/43
f 65/65/44 66/66/44 67/67/44 68/68/44
f 69/69/45 70/70/45 71/71/45 72/72/45
f 73/73/46 74/74/46 75/75/46 76/76/46
f 77/77/47 78/78/47 79/79/47 80/80/47
f 81/81/48 82/82/48 83/83/48 84/84/48
f 245/245/181 246/246/182 247/247/183 248/248/184
f 249/249/185 250/250/186 251/251/187 252/252/188
f 253/253/189 254/254/190 255/255/191 256/256/192
f 257/257/193 258/258/194 259/259/195 260/260/196
f 261/261/197 262/262/198 263/263/199 264/264/200
f 265/265/201 266/266/202 267/267/203 268/268/204
f 269/269/205 270/270/206 271/271/207 272/272/208
f 273/273/209 274/274/210 275/275/211 276/276/212
f 277/277/213 278/278/214 279/279/215 280/280/216
f 281/281/217 282/282/218 283/283/219 284/284/220
f 285/285/221 286/286/221 287/287/221 288/288/221 289/289/221 290/290/221 291/291/221 292/292/221 293/293/221 294/294/221
f 295/295/222 296/296/222 297/297/222 298/298/222 299/299/222 300/300/222 301/301/222 302/302/222 303/303/222 304/304/222
f 305/305/223 306/306/223 307/307/223 308/308/223
f 309/309/224 310/310/224 311/311/224 312/312/224
f 313/313/225 314/314/225 315/315/225 316/316/225
f 317/317/226 318/318/226 319/319/226 320/320/226
f 321/321/227 322/322/227 323/323/227 324/324/227
f 325/325/228 326/326/228 327/327/228 328/328/228
f 489/489/361 490/490/362 491/491/363 492/492/364
f 493/493/365 494/494/366 495/495/367 496/496/368
f 497/497/369 498/498/370 499/499/371 500/500/372
f 501/501/373 502/502/374 503/503/375 504/504/376
f 505/505/377 506/506/378 507/507/379 508/508/380
f 509/509/381 510/510/382 511/511/383 512/512/384
f 513/513/385 514/514/386 515/515/387 516/516/388
f 517/517/389 518/518/390 519/519/391 520/520/392
f 521/521/393 522/522/394 523/523/395 524/524/396
f 525/525/397 526/526/398 527/527/399 528/528/400
f 529/529/401 530/530/401 531/531/401 532/532/401 533/533/401 534/534/401 535/535/401 536/536/401 537/537/401 538/538/401
f 539/539/402 540/540/402 541/541/402 542/542/402 543/543/402 544/544/402 545/545/402 546/546/402 547/547/402 548/548/402
f 549/549/403 550/550/404 551/551/405 552/552/406
f 553/553/407 554/554/408 555/555/409 556/556/410
f 557/557/411 558/558/412 559/559/413 560/560/414
f 561/561/415 562/562/416 563/563/417 564/564/418
f 565/565/419 566/566/420 567/567/421 568/568/422
f 569/569/423 570/570/424 571/571/425 572/572/426
f 573/573/427 574/574/428 575/575/429 576/576/430
f 577/577/431 578/578/432 579/579/433 580/580/434
f 581/581/435 582/582/436 583/583/437 584/584/438
f 585/585/439 586/586/440 587/587/441 588/588/442
f 589/589/443 590/590/443 591/591/443 592/592/443 593/593/443 594/594/443 595/595/443 596/596/443 597/597/443 598/598/443
f 599/599/444 600/600/444 601/601/444 602/602/444 603/603/444 604/604/444 605/605/444 606/606/444 607/607/444 608/608/444
f 609/609/445 610/610/446 611/611/447 612/612/448
f 613/613/449 614/614/450 615/615/451 616/616/452
f 617/617/453 618/618/454 619/619/455 620/620/456
f 621/621/457 622/622/458 623/623/459 624/624/460
f 625/625/461 626/626/462 627/627/463 628/628/464
f 629/629/465 630/630/466 631/631/467 632/632/468
f 633/633/469 634/634/470 635/635/471 636/636/472
f 637/637/473 638/638/474 639/639/475 640/640/476
f 641/641/477 642/642/477 643/643/477 644/644/477 645/645/477 646/646/477 647/647/477 648/648/477
f 649/649/478 650/650/478 651/651/478 652/652/478 653/653/478 654/654/478 655/655/478 656/656/478
f 657/657/479 658/658/480 659/659/481 660/660/482
f 661/661/483 662/662/484 663/663/485 664/664/486
f 665/665/487 666/666/488 667/667/489 668/668/490
f 669/669/491 670/670/492 671/671/493 672/672/494
f 673/673/495 674/674/496 675/675/497 676/676/498
f 677/677/499 678/678/500 679/679/501 680/680/502
f 681/681/503 682/682/504 683/683/505 684/684/506
f 685/685/507 686/686/508 687/687/509 688/688/510
f 689/689/511 690/690/511 691/691/511 692/692/511 693/693/511 694/694/511 695/695/511 696/696/511
f 697/697/512 698/698/512 699/699/512 700/700/512 701/701/512 702/702/512 703/703/512 704/704/512
f 705/705/513 706/706/514 707/707/515 708/708/516
f 709/709/517 710/710/518 711/711/519 712/712/520
f 713/713/521 714/714/522 715/715/523 716/716/524
f 717/717/525 718/718/526 719/719/527 720/720/528
f 721/721/529 722/722/530 723/723/531 724/724/532
f 725/725/533 726/726/534 727/727/535 728/728/536
f 729/729/537 730/730/538 731/731/539 732/732/540
f 733/733/541 734/734/542 735/735/543 736/736/544
f 737/737/545 738/738/545 739/739/545 740/740/545 741/741/545 742/742/545 743/743/545 744/744/545
f 745/745/546 746/746/546 747/747/546 748/748/546 749/749/546 750/750/546 751/751/546 752/752/546
f 753/753/547 754/754/548 755/755/549 756/756/550
f 757/757/551 758/758/552 759/759/553 760/760/554
f 761/761/555 762/762/556 763/763/557 764/764/558
f 765/765/559 766/766/560 767/767/561 768/768/562
f 769/769/563 770/770/564 771/771/565 772/772/566
f 773/773/567 774/774/568 775/775/569 776/776/570
f 777/777/571 778/778/572 779/779/573 780/780/574
f 781/781/575 782/782/576 783/783/577 784/784/578
f 785/785/579 786/786/579 787/787/579 788/788/579 789/789/579 790/790/579 791/791/579 792/792/579
f 793/793/580 794/794/580 795/795/580 796/796/580 797/797/580 798/798/580 799/799/580 800/800/580
f 801/801/581 802/802/582 803/803/583 804/804/584
f 805/805/585 806/806/586 807/807/587 808/808/588
f 809/809/589 810/810/590 811/811/591 812/812/592
f 813/813/593 814/814/594 815/815/595 816/816/596
f 817/817/597 818/818/598 819/819/599 820/820/600
f 821/821/601 822/822/602 823/823/603 824/824/604
f 825/825/605 826/826/606 827/827/607 828/828/608
f 829/829/609 830/830/610 831/831/611 832/832/612
f 833/833/613 834/834/613 835/835/613 836/836/613 837/837/613 838/838/613 839/839/613 840/840/613
f 841/841/614 842/842/614 843/843/614 844/844/614 845/845/614 846/846/614 847/847/614 848/848/614
f 849/849/615 850/850/616 851/851/617 852/852/618
f 853/853/619 854/854/620 855/855/621 856/856/622
f 857/857/623 858/858/624 859/859/625 860/860/626
f 861/861/627 862/862/628 863/863/629 864/864/630
f 865/865/631 866/866/632 867/867/633 868/868/634
f 869/869/635 870/870/636 871/871/637 872/872/638
f 873/873/639 874/874/640 875/875/641 876/876/642
f 877/877/643 878/878/644 879/879/645 880/880/646
f 881/881/647 882/882/647 883/883/647 884/884/647 885/885/647 886/886/647 887/887/647 888/888/647
f 889/889/648 890/890/648 891/891/648 892/892/648 893/893/648 894/894/648 895/895/648 896/896/648
f 897/897/649 898/898/650 899/899/651 900/900/652
f 901/901/653 902/902/654 903/903/655 904/904/656
f 905/905/657 906/906/658 907/907/659 908/908/660
f 909/909/661 910/910/662 911/911/663 912/912/664
f 913/913/665 914/914/666 915/915/667 916/916/668
f 917/917/669 918/918/670 919/919/671 920/920/672
f 921/921/673 922/922/674 923/923/675 924/924/676
f 925/925/677 926/926/678 927/927/679 928/928/680
f 929/929/681 930/930/681 931/931/681 932/932/681 933/933/681 934/934/681 935/935/681 936/936/681
f 937/937/682 938/938/682 939/939/682 940/940/682 941/941/682 942/942/682 943/943/682 944/944/682
usemtl steel_dark
f 85/85/49 86/86/50 87/87/51 88/88/52
f 89/89/53 90/90/54 91/91/55 92/92/56
f 93/93/57 94/94/58 95/95/59 96/96/60
f 97/97/61 98/98/62 99/99/63 100/100/64
f 101/101/65 102/102/66 103/103/67 104/104/68
f 105/105/69 106/106/70 107/107/71 108/108/72
f 109/109/73 110/110/74 111/111/75 112/112/76
f 113/113/77 114/114/78 115/115/79 116/116/80
f 117/117/81 118/118/82 119/119/83 120/120/84
f 121/121/85 122/122/86 123/123/87 124/124/88
f 125/125/89 126/126/90 127/127/91 128/128/92
f 129/129/93 130/130/94 131/131/95 132/132/96
f 133/133/97 134/134/98 135/135/99 136/136/100
f 137/137/101 138/138/102 139/139/103 140/140/104
f 141/141/105 142/142/106 143/143/107 144/144/108
f 145/145/109 146/146/110 147/147/111 148/148/112
f 149/149/113 150/150/113 151/151/113 152/152/113 153/153/113 154/154/113 155/155/113 156/156/113
f 157/157/114 158/158/114 159/159/114 160/160/114 161/161/114 162/162/114 163/163/114 164/164/114
f 165/165/115 166/166/116 167/167/117 168/168/118
f 169/169/119 170/170/120 171/171/121 172/172/122
f 173/173/123 174/174/124 175/175/125 176/176/126
f 177/177/127 178/178/128 179/179/129 180/180/130
f 181/181/131 182/182/132 183/183/133 184/184/134
f 185/185/135 186/186/136 187/187/137 188/188/138
f 189/189/139 190/190/140 191/191/141 192/192/142
f 193/193/143 194/194/144 195/195/145 196/196/146
f 197/197/147 198/198/148 199/199/149 200/200/150
f 201/201/151 202/202/152 203/203/153 204/204/154
f 205/205/155 206/206/156 207/207/157 208/208/158
f 209/209/159 210/210/160 211/211/161 212/212/162
f 213/213/163 214/214/164 215/215/165 216/216/166
f 217/217/167 218/218/168 219/219/169 220/220/170
f 221/221/171 222/222/172 223/223/173 224/224/174
f 225/225/175 226/226/176 227/227/177 228/228/178
f 229/229/179 230/230/179 231/231/179 232/232/179 233/233/179 234/234/179 235/235/179 236/236/179
f 237/237/180 238/238/180 239/239/180 240/240/180 241/241/180 242/242/180 243/243/180 244/244/180
f 329/329/229 330/330/230 331/331/231 332/332/232
f 333/333/233 334/334/234 335/335/235 336/336/236
f 337/337/237 338/338/238 339/339/239 340/340/240
f 341/341/241 342/342/242 343/343/243 344/344/244
f 345/345/245 346/346/246 347/347/247 348/348/248
f 349/349/249 350/350/250 351/351/251 352/352/252
f 353/353/253 354/354/254 355/355/255 356/356/256
f 357/357/257 358/358/258 359/359/259 360/360/260
f 361/361/261 362/362/262 363/363/263 364/364/264
f 365/365/265 366/366/266 367/367/267 368/368/268
f 369/369/269 370/370/270 371/371/271 372/372/272
f 373/373/273 374/374/274 375/375/275 376/376/276
f 377/377/277 378/378/278 379/379/279 380/380/280
f 381/381/281 382/382/282 383/383/283 384/384/284
f 385/385/285 386/386/286 387/387/287 388/388/288
f 389/389/289 390/390/290 391/391/291 392/392/292
f 393/393/293 394/394/293 395/395/293 396/396/293 397/397/293 398/398/293 399/399/293 400/400/293
f 401/401/294 402/402/294 403/403/294 404/404/294 405/405/294 406/406/294 407/407/294 408/408/294
f 409/409/295 410/410/296 411/411/297 412/412/298
f 413/413/299 414/414/300 415/415/301 416/416/302
f 417/417/303 418/418/304 419/419/305 420/420/306
f 421/421/307 422/422/308 423/423/309 424/424/310
f 425/425/311 426/426/312 427/427/313 428/428/314
f 429/429/315 430/430/316 431/431/317 432/432/318
f 433/433/319 434/434/320 435/435/321 436/436/322
f 437/437/323 438/438/324 439/439/325 440/440/326
f 441/441/327 442/442/328 443/443/329 444/444/330
f 445/445/331 446/446/332 447/447/333 448/448/334
f 449/449/335 450/450/336 451/451/337 452/452/338
f 453/453/339 454/454/340 455/455/341 456/456/342
f 457/457/343 458/458/344 459/459/345 460/460/346
f 461/461/347 462/462/348 463/463/349 464/464/350
f 465/465/351 466/466/352 467/467/353 468/468/354
f 469/469/355 470/470/356 471/471/357 472/472/358
f 473/473/359 474/474/359 475/475/359 476/476/359 477/477/359 478/478/359 479/479/359 480/480/359
f 481/481/360 482/482/360 483/483/360 484/484/360 485/485/360 486/486/360 487/487/360 488/488/360
usemtl paint_yellow
f 945/945/683 946/946/683 947/947/683 948/948/683
f 949/949/684 950/950/684 951/951/684 952/952/684
f 953/953/685 954/954/685 955/955/685 956/956/685
f 957/957/686 958/958/686 959/959/686 960/960/686
f 961/961/687 962/962/687 963/963/687 964/964/687
f 965/965/688 966/966/688 967/967/688 968/968/688
