# generated by meshlib
mtllib ceiling_lamp.mtl
o ceiling_lamp
v -1.20000 -0.20000 0.00000
v -1.20000 0.20000 0.00000
v 1.20000 0.20000 0.00000
v 1.20000 -0.20000 0.00000
v -1.20000 0.20000 0.00000
v -1.20000 0.22000 0.06000
v 1.20000 0.22000 0.06000
v 1.20000 0.20000 0.00000
v -1.20000 0.22000 0.06000
v -1.20000 0.22000 0.20000
v 1.20000 0.22000 0.20000
v 1.20000 0.22000 0.06000
v -1.20000 0.22000 0.20000
v -1.20000 -0.22000 0.20000
v 1.20000 -0.22000 0.20000
v 1.20000 0.22000 0.20000
v -1.20000 -0.22000 0.20000
v -1.20000 -0.22000 0.06000
v 1.20000 -0.22000 0.06000
v 1.20000 -0.22000 0.20000
v -1.20000 -0.22000 0.06000
v -1.20000 -0.20000 0.00000
v 1.20000 -0.20000 0.00000
v 1.20000 -0.22000 0.06000
v -1.20000 -0.22000 0.06000
v -1.20000 -0.22000 0.20000
v -1.20000 0.22000 0.20000
v -1.20000 0.22000 0.06000
v -1.20000 0.20000 0.00000
v -1.20000 -0.20000 0.00000
v 1.20000 -0.20000 0.00000
v 1.20000 0.20000 0.00000
v 1.20000 0.22000 0.06000
v 1.20000 0.22000 0.20000
v 1.20000 -0.22000 0.20000
v 1.20000 -0.22000 0.06000
v -1.17000 -0.18500 0.01500
v -1.17000 0.18500 0.01500
v 1.17000 0.18500 0.01500
v 1.17000 -0.18500 0.01500
v -1.17000 0.18500 0.01500
v -1.17000 0.20500 0.07000
v 1.17000 0.20500 0.07000
v 1.17000 0.18500 0.01500
v -1.17000 0.20500 0.07000
v -1.17000 0.20500 0.19000
v 1.17000 0.20500 0.19000
v 1.17000 0.20500 0.07000
v -1.17000 0.20500 0.19000
v -1.17000 -0.20500 0.19000
v 1.17000 -0.20500 0.19000
v 1.17000 0.20500 0.19000
v -1.17000 -0.20500 0.19000
v -1.17000 -0.20500 0.07000
v 1.17000 -0.20500 0.07000
v 1.17000 -0.20500 0.19000
v -1.17000 -0.20500 0.07000
v -1.17000 -0.18500 0.01500
v 1.17000 -0.18500 0.01500
v 1.17000 -0.20500 0.07000
v -1.17000 -0.20500 0.07000
v -1.17000 -0.20500 0.19000
v -1.17000 0.20500 0.19000
v -1.17000 0.20500 0.07000
v -1.17000 0.18500 0.01500
v -1.17000 -0.18500 0.01500
v 1.17000 -0.18500 0.01500
v 1.17000 0.18500 0.01500
v 1.17000 0.20500 0.07000
v 1.17000 0.20500 0.19000
v 1.17000 -0.20500 0.19000
v 1.17000 -0.20500 0.07000
v -1.12000 0.07500 -0.11700
v -1.12000 0.09100 -0.11271
v 1.12000 0.09100 -0.11271
v 1.12000 0.07500 -0.11700
v -1.12000 0.09100 -0.11271
v -1.12000 0.10271 -0.10100
v 1.12000 0.10271 -0.10100
v 1.12000 0.09100 -0.11271
v -1.12000 0.10271 -0.10100
v -1.12000 0.10700 -0.08500
v 1.12000 0.10700 -0.08500
v 1.12000 0.10271 -0.10100
v -1.12000 0.10700 -0.08500
v -1.12000 0.10271 -0.06900
v 1.12000 0.10271 -0.06900
v 1.12000 0.10700 -0.08500
v -1.12000 0.10271 -0.06900
v -1.12000 0.09100 -0.05729
v 1.12000 0.09100 -0.05729
v 1.12000 0.10271 -0.06900
v -1.12000 0.09100 -0.05729
v -1.12000 0.07500 -0.05300
v 1.12000 0.07500 -0.05300
v 1.12000 0.09100 -0.05729
v -1.12000 0.07500 -0.05300
v -1.12000 0.05900 -0.05729
v 1.12000 0.05900 -0.05729
v 1.12000 0.07500 -0.05300
v -1.12000 0.05900 -0.05729
v -1.12000 0.04729 -0.06900
v 1.12000 0.04729 -0.06900
v 1.12000 0.05900 -0.05729
v -1.12000 0.04729 -0.06900
v -1.12000 0.04300 -0.08500
v 1.12000 0.04300 -0.08500
v 1.12000 0.04729 -0.06900
v -1.12000 0.04300 -0.08500
v -1.12000 0.04729 -0.10100
v 1.12000 0.04729 -0.10100
v 1.12000 0.04300 -0.08500
v -1.12000 0.04729 -0.10100
v -1.12000 0.05900 -0.11271
v 1.12000 0.05900 -0.11271
v 1.12000 0.04729 -0.10100
v -1.12000 0.05900 -0.11271
v -1.12000 0.07500 -0.11700
v 1.12000 0.07500 -0.11700
v 1.12000 0.05900 -0.11271
v -1.12000 0.05900 -0.11271
v -1.12000 0.04729 -0.10100
v -1.12000 0.04300 -0.08500
v -1.12000 0.04729 -0.06900
v -1.12000 0.05900 -0.05729
v -1.12000 0.07500 -0.05300
v -1.12000 0.09100 -0.05729
v -1.12000 0.10271 -0.06900
v -1.12000 0.10700 -0.08500
v -1.12000 0.10271 -0.10100
v -1.12000 0.09100 -0.11271
v -1.12000 0.07500 -0.11700
v 1.12000 0.07500 -0.11700
v 1.12000 0.09100 -0.11271
v 1.12000 0.10271 -0.10100
v 1.12000 0.10700 -0.08500
v 1.12000 0.10271 -0.06900
v 1.12000 0.09100 -0.05729
v 1.12000 0.07500 -0.05300
v 1.12000 0.05900 -0.05729
v 1.12000 0.04729 -0.06900
v 1.12000 0.04300 -0.08500
v 1.12000 0.04729 -0.10100
v 1.12000 0.05900 -0.11271
v -1.10000 0.07500 -0.04500
v -1.10000 0.09851 -0.05264
v -1.16000 0.09851 -0.05264
v -1.16000 0.07500 -0.04500
v -1.10000 0.09851 -0.05264
v -1.10000 0.11304 -0.07264
v -1.16000 0.11304 -0.07264
v -1.16000 0.09851 -0.05264
v -1.10000 0.11304 -0.07264
v -1.10000 0.11304 -0.09736
v -1.16000 0.11304 -0.09736
v -1.16000 0.11304 -0.07264
v -1.10000 0.11304 -0.09736
v -1.10000 0.09851 -0.11736
v -1.16000 0.09851 -0.11736
v -1.16000 0.11304 -0.09736
v -1.10000 0.09851 -0.11736
v -1.10000 0.07500 -0.12500
v -1.16000 0.07500 -0.12500
v -1.16000 0.09851 -0.11736
v -1.10000 0.07500 -0.12500
v -1.10000 0.05149 -0.11736
v -1.16000 0.05149 -0.11736
v -1.16000 0.07500 -0.12500
v -1.10000 0.05149 -0.11736
v -1.10000 0.03696 -0.09736
v -1.16000 0.03696 -0.09736
v -1.16000 0.05149 -0.11736
v -1.10000 0.03696 -0.09736
v -1.10000 0.03696 -0.07264
v -1.16000 0.03696 -0.07264
v -1.16000 0.03696 -0.09736
v -1.10000 0.03696 -0.07264
v -1.10000 0.05149 -0.05264
v -1.16000 0.05149 -0.05264
v -1.16000 0.03696 -0.07264
v -1.10000 0.05149 -0.05264
v -1.10000 0.07500 -0.04500
v -1.16000 0.07500 -0.04500
v -1.16000 0.05149 -0.05264
v -1.10000 0.05149 -0.05264
v -1.10000 0.03696 -0.07264
v -1.10000 0.03696 -0.09736
v -1.10000 0.05149 -0.11736
v -1.10000 0.07500 -0.12500
v -1.10000 0.09851 -0.11736
v -1.10000 0.11304 -0.09736
v -1.10000 0.11304 -0.07264
v -1.10000 0.09851 -0.05264
v -1.10000 0.07500 -0.04500
v -1.16000 0.07500 -0.04500
v -1.16000 0.09851 -0.05264
v -1.16000 0.11304 -0.07264
v -1.16000 0.11304 -0.09736
v -1.16000 0.09851 -0.11736
v -1.16000 0.07500 -0.12500
v -1.16000 0.05149 -0.11736
v -1.16000 0.03696 -0.09736
v -1.16000 0.03696 -0.07264
v -1.16000 0.05149 -0.05264
v 1.10000 0.07500 -0.12500
v 1.10000 0.09851 -0.11736
v 1.16000 0.09851 -0.11736
v 1.16000 0.07500 -0.12500
v 1.10000 0.09851 -0.11736
v 1.10000 0.11304 -0.09736
v 1.16000 0.11304 -0.09736
v 1.16000 0.09851 -0.11736
v 1.10000 0.11304 -0.09736
v 1.10000 0.11304 -0.07264
v 1.16000 0.11304 -0.07264
v 1.16000 0.11304 -0.09736
v 1.10000 0.11304 -0.07264
v 1.10000 0.09851 -0.05264
v 1.16000 0.09851 -0.05264
v 1.16000 0.11304 -0.07264
v 1.10000 0.09851 -0.05264
v 1.10000 0.07500 -0.04500
v 1.16000 0.07500 -0.04500
v 1.16000 0.09851 -0.05264
v 1.10000 0.07500 -0.04500
v 1.10000 0.05149 -0.05264
v 1.16000 0.05149 -0.05264
v 1.16000 0.07500 -0.04500
v 1.10000 0.05149 -0.05264
v 1.10000 0.03696 -0.07264
v 1.16000 0.03696 -0.07264
v 1.16000 0.05149 -0.05264
v 1.10000 0.03696 -0.07264
v 1.10000 0.03696 -0.09736
v 1.16000 0.03696 -0.09736
v 1.16000 0.03696 -0.07264
v 1.10000 0.03696 -0.09736
v 1.10000 0.05149 -0.11736
v 1.16000 0.05149 -0.11736
v 1.16000 0.03696 -0.09736
v 1.10000 0.05149 -0.11736
v 1.10000 0.07500 -0.12500
v 1.16000 0.07500 -0.12500
v 1.16000 0.05149 -0.11736
v 1.10000 0.05149 -0.11736
v 1.10000 0.03696 -0.09736
v 1.10000 0.03696 -0.07264
v 1.10000 0.05149 -0.05264
v 1.10000 0.07500 -0.04500
v 1.10000 0.09851 -0.05264
v 1.10000 0.11304 -0.07264
v 1.10000 0.11304 -0.09736
v 1.10000 0.09851 -0.11736
v 1.10000 0.07500 -0.12500
v 1.16000 0.07500 -0.12500
v 1.16000 0.09851 -0.11736
v 1.16000 0.11304 -0.09736
v 1.16000 0.11304 -0.07264
v 1.16000 0.09851 -0.05264
v 1.16000 0.07500 -0.04500
v 1.16000 0.05149 -0.05264
v 1.16000 0.03696 -0.07264
v 1.16000 0.03696 -0.09736
v 1.16000 0.05149 -0.11736
v -1.12000 0.07500 0.05300
v -1.12000 0.09100 0.05729
v 1.12000 0.09100 0.05729
v 1.12000 0.07500 0.05300
v -1.12000 0.09100 0.05729
v -1.12000 0.10271 0.06900
v 1.12000 0.10271 0.06900
v 1.12000 0.09100 0.05729
v -1.12000 0.10271 0.06900
v -1.12000 0.10700 0.08500
v 1.12000 0.10700 0.08500
v 1.12000 0.10271 0.06900
v -1.12000 0.10700 0.08500
v -1.12000 0.10271 0.10100
v 1.12000 0.10271 0.10100
v 1.12000 0.10700 0.08500
v -1.12000 0.10271 0.10100
v -1.12000 0.09100 0.11271
v 1.12000 0.09100 0.11271
v 1.12000 0.10271 0.10100
v -1.12000 0.09100 0.11271
v -1.12000 0.07500 0.11700
v 1.12000 0.07500 0.11700
v 1.12000 0.09100 0.11271
v -1.12000 0.07500 0.11700
v -1.12000 0.05900 0.11271
v 1.12000 0.05900 0.11271
v 1.12000 0.07500 0.11700
v -1.12000 0.05900 0.11271
v -1.12000 0.04729 0.10100
v 1.12000 0.04729 0.10100
v 1.12000 0.05900 0.11271
v -1.12000 0.04729 0.10100
v -1.12000 0.04300 0.08500
v 1.12000 0.04300 0.08500
v 1.12000 0.04729 0.10100
v -1.12000 0.04300 0.08500
v -1.12000 0.04729 0.06900
v 1.12000 0.04729 0.06900
v 1.12000 0.04300 0.08500
v -1.12000 0.04729 0.06900
v -1.12000 0.05900 0.05729
v 1.12000 0.05900 0.05729
v 1.12000 0.04729 0.06900
v -1.12000 0.05900 0.05729
v -1.12000 0.07500 0.05300
v 1.12000 0.07500 0.05300
v 1.12000 0.05900 0.05729
v -1.12000 0.05900 0.05729
v -1.12000 0.04729 0.06900
v -1.12000 0.04300 0.08500
v -1.12000 0.04729 0.10100
v -1.12000 0.05900 0.11271
v -1.12000 0.07500 0.11700
v -1.12000 0.09100 0.11271
v -1.12000 0.10271 0.10100
v -1.12000 0.10700 0.08500
v -1.12000 0.10271 0.06900
v -1.12000 0.09100 0.05729
v -1.12000 0.07500 0.05300
v 1.12000 0.07500 0.05300
v 1.12000 0.09100 0.05729
v 1.12000 0.10271 0.06900
v 1.12000 0.10700 0.08500
v 1.12000 0.10271 0.10100
v 1.12000 0.09100 0.11271
v 1.12000 0.07500 0.11700
v 1.12000 0.05900 0.11271
v 1.12000 0.04729 0.10100
v 1.12000 0.04300 0.08500
v 1.12000 0.04729 0.06900
v 1.12000 0.05900 0.05729
v -1.10000 0.07500 0.12500
v -1.10000 0.09851 0.11736
v -1.16000 0.09851 0.11736
v -1.16000 0.07500 0.12500
v -1.10000 0.09851 0.11736
v -1.10000 0.11304 0.09736
v -1.16000 0.11304 0.09736
v -1.16000 0.09851 0.11736
v -1.10000 0.11304 0.09736
v -1.10000 0.11304 0.07264
v -1.16000 0.11304 0.07264
v -1.16000 0.11304 0.09736
v -1.10000 0.11304 0.07264
v -1.10000 0.09851 0.05264
v -1.16000 0.09851 0.05264
v -1.16000 0.11304 0.07264
v -1.10000 0.09851 0.05264
v -1.10000 0.07500 0.04500
v -1.16000 0.07500 0.04500
v -1.16000 0.09851 0.05264
v -1.10000 0.07500 0.04500
v -1.10000 0.05149 0.05264
v -1.16000 0.05149 0.05264
v -1.16000 0.07500 0.04500
v -1.10000 0.05149 0.05264
v -1.10000 0.03696 0.07264
v -1.16000 0.03696 0.07264
v -1.16000 0.05149 0.05264
v -1.10000 0.03696 0.07264
v -1.10000 0.03696 0.09736
v -1.16000 0.03696 0.09736
v -1.16000 0.03696 0.07264
v -1.10000 0.03696 0.09736
v -1.10000 0.05149 0.11736
v -1.16000 0.05149 0.11736
v -1.16000 0.03696 0.09736
v -1.10000 0.05149 0.11736
v -1.10000 0.07500 0.12500
v -1.16000 0.07500 0.12500
v -1.16000 0.05149 0.11736
v -1.10000 0.05149 0.11736
v -1.10000 0.03696 0.09736
v -1.10000 0.03696 0.07264
v -1.10000 0.05149 0.05264
v -1.10000 0.07500 0.04500
v -1.10000 0.09851 0.05264
v -1.10000 0.11304 0.07264
v -1.10000 0.11304 0.09736
v -1.10000 0.09851 0.11736
v -1.10000 0.07500 0.12500
v -1.16000 0.07500 0.12500
v -1.16000 0.09851 0.11736
v -1.16000 0.11304 0.09736
v -1.16000 0.11304 0.07264
v -1.16000 0.09851 0.05264
v -1.16000 0.07500 0.04500
v -1.16000 0.05149 0.05264
v -1.16000 0.03696 0.07264
v -1.16000 0.03696 0.09736
v -1.16000 0.05149 0.11736
v 1.10000 0.07500 0.04500
v 1.10000 0.09851 0.05264
v 1.16000 0.09851 0.05264
v 1.16000 0.07500 0.04500
v 1.10000 0.09851 0.05264
v 1.10000 0.11304 0.07264
v 1.16000 0.11304 0.07264
v 1.16000 0.09851 0.05264
v 1.10000 0.11304 0.07264
v 1.10000 0.11304 0.09736
v 1.16000 0.11304 0.09736
v 1.16000 0.11304 0.07264
v 1.10000 0.11304 0.09736
v 1.10000 0.09851 0.11736
v 1.16000 0.09851 0.11736
v 1.16000 0.11304 0.09736
v 1.10000 0.09851 0.11736
v 1.10000 0.07500 0.12500
v 1.16000 0.07500 0.12500
v 1.16000 0.09851 0.11736
v 1.10000 0.07500 0.12500
v 1.10000 0.05149 0.11736
v 1.16000 0.05149 0.11736
v 1.16000 0.07500 0.12500
v 1.10000 0.05149 0.11736
v 1.10000 0.03696 0.09736
v 1.16000 0.03696 0.09736
v 1.16000 0.05149 0.11736
v 1.10000 0.03696 0.09736
v 1.10000 0.03696 0.07264
v 1.16000 0.03696 0.07264
v 1.16000 0.03696 0.09736
v 1.10000 0.03696 0.07264
v 1.10000 0.05149 0.05264
v 1.16000 0.05149 0.05264
v 1.16000 0.03696 0.07264
v 1.10000 0.05149 0.05264
v 1.10000 0.07500 0.04500
v 1.16000 0.07500 0.04500
v 1.16000 0.05149 0.05264
v 1.10000 0.05149 0.05264
v 1.10000 0.03696 0.07264
v 1.10000 0.03696 0.09736
v 1.10000 0.05149 0.11736
v 1.10000 0.07500 0.12500
v 1.10000 0.09851 0.11736
v 1.10000 0.11304 0.09736
v 1.10000 0.11304 0.07264
v 1.10000 0.09851 0.05264
v 1.10000 0.07500 0.04500
v 1.16000 0.07500 0.04500
v 1.16000 0.09851 0.05264
v 1.16000 0.11304 0.07264
v 1.16000 0.11304 0.09736
v 1.16000 0.09851 0.11736
v 1.16000 0.07500 0.12500
v 1.16000 0.05149 0.11736
v 1.16000 0.03696 0.09736
v 1.16000 0.03696 0.07264
v 1.16000 0.05149 0.05264
v 1.17000 0.00600 -0.13250
v 1.17000 0.00600 -0.16750
v 1.17000 0.01800 -0.16750
v 1.17000 0.01800 -0.13250
v -1.17000 0.00600 -0.16750
v -1.17000 0.00600 -0.13250
v -1.17000 0.01800 -0.13250
v -1.17000 0.01800 -0.16750
v -1.17000 0.01800 -0.13250
v 1.17000 0.01800 -0.13250
v 1.17000 0.01800 -0.16750
v -1.17000 0.01800 -0.16750
v -1.17000 0.00600 -0.16750
v 1.17000 0.00600 -0.16750
v 1.17000 0.00600 -0.13250
v -1.17000 0.00600 -0.13250
v -1.17000 0.00600 -0.13250
v 1.17000 0.00600 -0.13250
v 1.17000 0.01800 -0.13250
v -1.17000 0.01800 -0.13250
v 1.17000 0.00600 -0.16750
v -1.17000 0.00600 -0.16750
v -1.17000 0.01800 -0.16750
v 1.17000 0.01800 -0.16750
v 1.17000 0.00600 0.01750
v 1.17000 0.00600 -0.01750
v 1.17000 0.01800 -0.01750
v 1.17000 0.01800 0.01750
v -1.17000 0.00600 -0.01750
v -1.17000 0.00600 0.01750
v -1.17000 0.01800 0.01750
v -1.17000 0.01800 -0.01750
v -1.17000 0.01800 0.01750
v 1.17000 0.01800 0.01750
v 1.17000 0.01800 -0.01750
v -1.17000 0.01800 -0.01750
v -1.17000 0.00600 -0.01750
v 1.17000 0.00600 -0.01750
v 1.17000 0.00600 0.01750
v -1.17000 0.00600 0.01750
v -1.17000 0.00600 0.01750
v 1.17000 0.00600 0.01750
v 1.17000 0.01800 0.01750
v -1.17000 0.01800 0.01750
v 1.17000 0.00600 -0.01750
v -1.17000 0.00600 -0.01750
v -1.17000 0.01800 -0.01750
v 1.17000 0.01800 -0.01750
v 1.17000 0.00600 0.16750
v 1.17000 0.00600 0.13250
v 1.17000 0.01800 0.13250
v 1.17000 0.01800 0.16750
v -1.17000 0.00600 0.13250
v -1.17000 0.00600 0.16750
v -1.17000 0.01800 0.16750
v -1.17000 0.01800 0.13250
v -1.17000 0.01800 0.16750
v 1.17000 0.01800 0.16750
v 1.17000 0.01800 0.13250
v -1.17000 0.01800 0.13250
v -1.17000 0.00600 0.13250
v 1.17000 0.00600 0.13250
v 1.17000 0.00600 0.16750
v -1.17000 0.00600 0.16750
v -1.17000 0.00600 0.16750
v 1.17000 0.00600 0.16750
v 1.17000 0.01800 0.16750
v -1.17000 0.01800 0.16750
v 1.17000 0.00600 0.13250
v -1.17000 0.00600 0.13250
v -1.17000 0.01800 0.13250
v 1.17000 0.01800 0.13250
v -0.90000 0.20000 0.01600
v -0.88869 0.20000 0.01131
v -0.88869 0.85000 0.01131
v -0.90000 0.85000 0.01600
v -0.88869 0.20000 0.01131
v -0.88400 0.20000 0.00000
v -0.88400 0.85000 0.00000
v -0.88869 0.85000 0.01131
v -0.88400 0.20000 0.00000
v -0.88869 0.20000 -0.01131
v -0.88869 0.85000 -0.01131
v -0.88400 0.85000 0.00000
v -0.88869 0.20000 -0.01131
v -0.90000 0.20000 -0.01600
v -0.90000 0.85000 -0.01600
v -0.88869 0.85000 -0.01131
v -0.90000 0.20000 -0.01600
v -0.91131 0.20000 -0.01131
v -0.91131 0.85000 -0.01131
v -0.90000 0.85000 -0.01600
v -0.91131 0.20000 -0.01131
v -0.91600 0.20000 -0.00000
v -0.91600 0.85000 -0.00000
v -0.91131 0.85000 -0.01131
v -0.91600 0.20000 -0.00000
v -0.91131 0.20000 0.01131
v -0.91131 0.85000 0.01131
v -0.91600 0.85000 -0.00000
v -0.91131 0.20000 0.01131
v -0.90000 0.20000 0.01600
v -0.90000 0.85000 0.01600
v -0.91131 0.85000 0.01131
v -0.91131 0.20000 0.01131
v -0.91600 0.20000 -0.00000
v -0.91131 0.20000 -0.01131
v -0.90000 0.20000 -0.01600
v -0.88869 0.20000 -0.01131
v -0.88400 0.20000 0.00000
v -0.88869 0.20000 0.01131
v -0.90000 0.20000 0.01600
v -0.90000 0.85000 0.01600
v -0.88869 0.85000 0.01131
v -0.88400 0.85000 0.00000
v -0.88869 0.85000 -0.01131
v -0.90000 0.85000 -0.01600
v -0.91131 0.85000 -0.01131
v -0.91600 0.85000 -0.00000
v -0.91131 0.85000 0.01131
v -0.83000 0.85000 0.07000
v -0.83000 0.85000 -0.07000
v -0.83000 0.89000 -0.07000
v -0.83000 0.89000 0.07000
v -0.97000 0.85000 -0.07000
v -0.97000 0.85000 0.07000
v -0.97000 0.89000 0.07000
v -0.97000 0.89000 -0.07000
v -0.97000 0.89000 0.07000
v -0.83000 0.89000 0.07000
v -0.83000 0.89000 -0.07000
v -0.97000 0.89000 -0.07000
v -0.97000 0.85000 -0.07000
v -0.83000 0.85000 -0.07000
v -0.83000 0.85000 0.07000
v -0.97000 0.85000 0.07000
v -0.97000 0.85000 0.07000
v -0.83000 0.85000 0.07000
v -0.83000 0.89000 0.07000
v -0.97000 0.89000 0.07000
v -0.83000 0.85000 -0.07000
v -0.97000 0.85000 -0.07000
v -0.97000 0.89000 -0.07000
v -0.83000 0.89000 -0.07000
v 0.90000 0.20000 0.01600
v 0.91131 0.20000 0.01131
v 0.91131 0.85000 0.01131
v 0.90000 0.85000 0.01600
v 0.91131 0.20000 0.01131
v 0.91600 0.20000 0.00000
v 0.91600 0.85000 0.00000
v 0.91131 0.85000 0.01131
v 0.91600 0.20000 0.00000
v 0.91131 0.20000 -0.01131
v 0.91131 0.85000 -0.01131
v 0.91600 0.85000 0.00000
v 0.91131 0.20000 -0.01131
v 0.90000 0.20000 -0.01600
v 0.90000 0.85000 -0.01600
v 0.91131 0.85000 -0.01131
v 0.90000 0.20000 -0.01600
v 0.88869 0.20000 -0.01131
v 0.88869 0.85000 -0.01131
v 0.90000 0.85000 -0.01600
v 0.88869 0.20000 -0.01131
v 0.88400 0.20000 -0.00000
v 0.88400 0.85000 -0.00000
v 0.88869 0.85000 -0.01131
v 0.88400 0.20000 -0.00000
v 0.88869 0.20000 0.01131
v 0.88869 0.85000 0.01131
v 0.88400 0.85000 -0.00000
v 0.88869 0.20000 0.01131
v 0.90000 0.20000 0.01600
v 0.90000 0.85000 0.01600
v 0.88869 0.85000 0.01131
v 0.88869 0.20000 0.01131
v 0.88400 0.20000 -0.00000
v 0.88869 0.20000 -0.01131
v 0.90000 0.20000 -0.01600
v 0.91131 0.20000 -0.01131
v 0.91600 0.20000 0.00000
v 0.91131 0.20000 0.01131
v 0.90000 0.20000 0.01600
v 0.90000 0.85000 0.01600
v 0.91131 0.85000 0.01131
v 0.91600 0.85000 0.00000
v 0.91131 0.85000 -0.01131
v 0.90000 0.85000 -0.01600
v 0.88869 0.85000 -0.01131
v 0.88400 0.85000 -0.00000
v 0.88869 0.85000 0.01131
v 0.97000 0.85000 0.07000
v 0.97000 0.85000 -0.07000
v 0.97000 0.89000 -0.07000
v 0.97000 0.89000 0.07000
v 0.83000 0.85000 -0.07000
v 0.83000 0.85000 0.07000
v 0.83000 0.89000 0.07000
v 0.83000 0.89000 -0.07000
v 0.83000 0.89000 0.07000
v 0.97000 0.89000 0.07000
v 0.97000 0.89000 -0.07000
v 0.83000 0.89000 -0.07000
v 0.83000 0.85000 -0.07000
v 0.97000 0.85000 -0.07000
v 0.97000 0.85000 0.07000
v 0.83000 0.85000 0.07000
v 0.83000 0.85000 0.07000
v 0.97000 0.85000 0.07000
v 0.97000 0.89000 0.07000
v 0.83000 0.89000 0.07000
v 0.97000 0.85000 -0.07000
v 0.83000 0.85000 -0.07000
v 0.83000 0.89000 -0.07000
v 0.97000 0.89000 -0.07000
vt 0.00000 0.00000
vt 0.80000 0.00000
vt 0.80000 4.80000
vt 0.00000 4.80000
vt 0.80000 0.00000
vt 0.92649 0.00000
vt 0.92649 4.80000
vt 0.80000 4.80000
vt 0.92649 0.00000
vt 1.20649 0.00000
vt 1.20649 4.80000
vt 0.92649 4.80000
vt 1.20649 0.00000
vt 2.08649 0.00000
vt 2.08649 4.80000
vt 1.20649 4.80000
vt 2.08649 0.00000
vt 2.36649 0.00000
vt 2.36649 4.80000
vt 2.08649 4.80000
vt 2.36649 0.00000
vt 2.49298 0.00000
vt 2.49298 4.80000
vt 2.36649 4.80000
vt -0.44000 0.12000
vt -0.44000 0.40000
vt 0.44000 0.40000
vt 0.44000 0.12000
vt 0.40000 0.00000
vt -0.40000 0.00000
vt -0.40000 0.00000
vt 0.40000 0.00000
vt 0.44000 0.12000
vt 0.44000 0.40000
vt -0.44000 0.40000
vt -0.44000 0.12000
vt 0.00000 0.00000
vt 0.74000 0.00000
vt 0.74000 4.68000
vt 0.00000 4.68000
vt 0.74000 0.00000
vt 0.85705 0.00000
vt 0.85705 4.68000
vt 0.74000 4.68000
vt 0.85705 0.00000
vt 1.09705 0.00000
vt 1.09705 4.68000
vt 0.85705 4.68000
vt 1.09705 0.00000
vt 1.91705 0.00000
vt 1.91705 4.68000
vt 1.09705 4.68000
vt 1.91705 0.00000
vt 2.15705 0.00000
vt 2.15705 4.68000
vt 1.91705 4.68000
vt 2.15705 0.00000
vt 2.27409 0.00000
vt 2.27409 4.68000
vt 2.15705 4.68000
vt -0.41000 0.14000
vt -0.41000 0.38000
vt 0.41000 0.38000
vt 0.41000 0.14000
vt 0.37000 0.03000
vt -0.37000 0.03000
vt -0.37000 0.03000
vt 0.37000 0.03000
vt 0.41000 0.14000
vt 0.41000 0.38000
vt -0.41000 0.38000
vt -0.41000 0.14000
vt 0.00000 0.00000
vt 0.05585 0.00000
vt 0.05585 7.46667
vt 0.00000 7.46667
vt 0.05585 0.00000
vt 0.11170 0.00000
vt 0.11170 7.46667
vt 0.05585 7.46667
vt 0.11170 0.00000
vt 0.16755 0.00000
vt 0.16755 7.46667
vt 0.11170 7.46667
vt 0.16755 0.00000
vt 0.22340 0.00000
vt 0.22340 7.46667
vt 0.16755 7.46667
vt 0.22340 0.00000
vt 0.27925 0.00000
vt 0.27925 7.46667
vt 0.22340 7.46667
vt 0.27925 0.00000
vt 0.33510 0.00000
vt 0.33510 7.46667
vt 0.27925 7.46667
vt 0.33510 0.00000
vt 0.39095 0.00000
vt 0.39095 7.46667
vt 0.33510 7.46667
vt 0.39095 0.00000
vt 0.44680 0.00000
vt 0.44680 7.46667
vt 0.39095 7.46667
vt 0.44680 0.00000
vt 0.50265 0.00000
vt 0.50265 7.46667
vt 0.44680 7.46667
vt 0.50265 0.00000
vt 0.55851 0.00000
vt 0.55851 7.46667
vt 0.50265 7.46667
vt 0.55851 0.00000
vt 0.61436 0.00000
vt 0.61436 7.46667
vt 0.55851 7.46667
vt 0.61436 0.00000
vt 0.67021 0.00000
vt 0.67021 7.46667
vt 0.61436 7.46667
vt 0.09238 -0.05333
vt 0.05333 -0.09238
vt -0.00000 -0.10667
vt -0.05333 -0.09238
vt -0.09238 -0.05333
vt -0.10667 0.00000
vt -0.09238 0.05333
vt -0.05333 0.09238
vt 0.00000 0.10667
vt 0.05333 0.09238
vt 0.09238 0.05333
vt 0.10667 0.00000
vt 0.10667 0.00000
vt 0.09238 0.05333
vt 0.05333 0.09238
vt 0.00000 0.10667
vt -0.05333 0.09238
vt -0.09238 0.05333
vt -0.10667 0.00000
vt -0.09238 -0.05333
vt -0.05333 -0.09238
vt -0.00000 -0.10667
vt 0.05333 -0.09238
vt 0.09238 -0.05333
vt 0.00000 0.00000
vt 0.12566 0.00000
vt 0.12566 0.30000
vt 0.00000 0.30000
vt 0.12566 0.00000
vt 0.25133 0.00000
vt 0.25133 0.30000
vt 0.12566 0.30000
vt 0.25133 0.00000
vt 0.37699 0.00000
vt 0.37699 0.30000
vt 0.25133 0.30000
vt 0.37699 0.00000
vt 0.50265 0.00000
vt 0.50265 0.30000
vt 0.37699 0.30000
vt 0.50265 0.00000
vt 0.62832 0.00000
vt 0.62832 0.30000
vt 0.50265 0.30000
vt 0.62832 0.00000
vt 0.75398 0.00000
vt 0.75398 0.30000
vt 0.62832 0.30000
vt 0.75398 0.00000
vt 0.87965 0.00000
vt 0.87965 0.30000
vt 0.75398 0.30000
vt 0.87965 0.00000
vt 1.00531 0.00000
vt 1.00531 0.30000
vt 0.87965 0.30000
vt 1.00531 0.00000
vt 1.13097 0.00000
vt 1.13097 0.30000
vt 1.00531 0.30000
vt 1.13097 0.00000
vt 1.25664 0.00000
vt 1.25664 0.30000
vt 1.13097 0.30000
vt 0.16180 -0.11756
vt 0.06180 -0.19021
vt -0.06180 -0.19021
vt -0.16180 -0.11756
vt -0.20000 0.00000
vt -0.16180 0.11756
vt -0.06180 0.19021
vt 0.06180 0.19021
vt 0.16180 0.11756
vt 0.20000 0.00000
vt 0.20000 0.00000
vt 0.16180 0.11756
vt 0.06180 0.19021
vt -0.06180 0.19021
vt -0.16180 0.11756
vt -0.20000 0.00000
vt -0.16180 -0.11756
vt -0.06180 -0.19021
vt 0.06180 -0.19021
vt 0.16180 -0.11756
vt 0.00000 0.00000
vt 0.12566 0.00000
vt 0.12566 0.30000
vt 0.00000 0.30000
vt 0.12566 0.00000
vt 0.25133 0.00000
vt 0.25133 0.30000
vt 0.12566 0.30000
vt 0.25133 0.00000
vt 0.37699 0.00000
vt 0.37699 0.30000
vt 0.25133 0.30000
vt 0.37699 0.00000
vt 0.50265 0.00000
vt 0.50265 0.30000
vt 0.37699 0.30000
vt 0.50265 0.00000
vt 0.62832 0.00000
vt 0.62832 0.30000
vt 0.50265 0.30000
vt 0.62832 0.00000
vt 0.75398 0.00000
vt 0.75398 0.30000
vt 0.62832 0.30000
vt 0.75398 0.00000
vt 0.87965 0.00000
vt 0.87965 0.30000
vt 0.75398 0.30000
vt 0.87965 0.00000
vt 1.00531 0.00000
vt 1.00531 0.30000
vt 0.87965 0.30000
vt 1.00531 0.00000
vt 1.13097 0.00000
vt 1.13097 0.30000
vt 1.00531 0.30000
vt 1.13097 0.00000
vt 1.25664 0.00000
vt 1.25664 0.30000
vt 1.13097 0.30000
vt 0.16180 -0.11756
vt 0.06180 -0.19021
vt -0.06180 -0.19021
vt -0.16180 -0.11756
vt -0.20000 0.00000
vt -0.16180 0.11756
vt -0.06180 0.19021
vt 0.06180 0.19021
vt 0.16180 0.11756
vt 0.20000 0.00000
vt 0.20000 0.00000
vt 0.16180 0.11756
vt 0.06180 0.19021
vt -0.06180 0.19021
vt -0.16180 0.11756
vt -0.20000 0.00000
vt -0.16180 -0.11756
vt -0.06180 -0.19021
vt 0.06180 -0.19021
vt 0.16180 -0.11756
vt 0.00000 0.00000
vt 0.05585 0.00000
vt 0.05585 7.46667
vt 0.00000 7.46667
vt 0.05585 0.00000
vt 0.11170 0.00000
vt 0.11170 7.46667
vt 0.05585 7.46667
vt 0.11170 0.00000
vt 0.16755 0.00000
vt 0.16755 7.46667
vt 0.11170 7.46667
vt 0.16755 0.00000
vt 0.22340 0.00000
vt 0.22340 7.46667
vt 0.16755 7.46667
vt 0.22340 0.00000
vt 0.27925 0.00000
vt 0.27925 7.46667
vt 0.22340 7.46667
vt 0.27925 0.00000
vt 0.33510 0.00000
vt 0.33510 7.46667
vt 0.27925 7.46667
vt 0.33510 0.00000
vt 0.39095 0.00000
vt 0.39095 7.46667
vt 0.33510 7.46667
vt 0.39095 0.00000
vt 0.44680 0.00000
vt 0.44680 7.46667
vt 0.39095 7.46667
vt 0.44680 0.00000
vt 0.50265 0.00000
vt 0.50265 7.46667
vt 0.44680 7.46667
vt 0.50265 0.00000
vt 0.55851 0.00000
vt 0.55851 7.46667
vt 0.50265 7.46667
vt 0.55851 0.00000
vt 0.61436 0.00000
vt 0.61436 7.46667
vt 0.55851 7.46667
vt 0.61436 0.00000
vt 0.67021 0.00000
vt 0.67021 7.46667
vt 0.61436 7.46667
vt 0.09238 -0.05333
vt 0.05333 -0.09238
vt -0.00000 -0.10667
vt -0.05333 -0.09238
vt -0.09238 -0.05333
vt -0.10667 0.00000
vt -0.09238 0.05333
vt -0.05333 0.09238
vt 0.00000 0.10667
vt 0.05333 0.09238
vt 0.09238 0.05333
vt 0.10667 0.00000
vt 0.10667 0.00000
vt 0.09238 0.05333
vt 0.05333 0.09238
vt 0.00000 0.10667
vt -0.05333 0.09238
vt -0.09238 0.05333
vt -0.10667 0.00000
vt -0.09238 -0.05333
vt -0.05333 -0.09238
vt -0.00000 -0.10667
vt 0.05333 -0.09238
vt 0.09238 -0.05333
vt 0.00000 0.00000
vt 0.12566 0.00000
vt 0.12566 0.30000
vt 0.00000 0.30000
vt 0.12566 0.00000
vt 0.25133 0.00000
vt 0.25133 0.30000
vt 0.12566 0.30000
vt 0.25133 0.00000
vt 0.37699 0.00000
vt 0.37699 0.30000
vt 0.25133 0.30000
vt 0.37699 0.00000
vt 0.50265 0.00000
vt 0.50265 0.30000
vt 0.37699 0.30000
vt 0.50265 0.00000
vt 0.62832 0.00000
vt 0.62832 0.30000
vt 0.50265 0.30000
vt 0.62832 0.00000
vt 0.75398 0.00000
vt 0.75398 0.30000
vt 0.62832 0.30000
vt 0.75398 0.00000
vt 0.87965 0.00000
vt 0.87965 0.30000
vt 0.75398 0.30000
vt 0.87965 0.00000
vt 1.00531 0.00000
vt 1.00531 0.30000
vt 0.87965 0.30000
vt 1.00531 0.00000
vt 1.13097 0.00000
vt 1.13097 0.30000
vt 1.00531 0.30000
vt 1.13097 0.00000
vt 1.25664 0.00000
vt 1.25664 0.30000
vt 1.13097 0.30000
vt 0.16180 -0.11756
vt 0.06180 -0.19021
vt -0.06180 -0.19021
vt -0.16180 -0.11756
vt -0.20000 0.00000
vt -0.16180 0.11756
vt -0.06180 0.19021
vt 0.06180 0.19021
vt 0.16180 0.11756
vt 0.20000 0.00000
vt 0.20000 0.00000
vt 0.16180 0.11756
vt 0.06180 0.19021
vt -0.06180 0.19021
vt -0.16180 0.11756
vt -0.20000 0.00000
vt -0.16180 -0.11756
vt -0.06180 -0.19021
vt 0.06180 -0.19021
vt 0.16180 -0.11756
vt 0.00000 0.00000
vt 0.12566 0.00000
vt 0.12566 0.30000
vt 0.00000 0.30000
vt 0.12566 0.00000
vt 0.25133 0.00000
vt 0.25133 0.30000
vt 0.12566 0.30000
vt 0.25133 0.00000
vt 0.37699 0.00000
vt 0.37699 0.30000
vt 0.25133 0.30000
vt 0.37699 0.00000
vt 0.50265 0.00000
vt 0.50265 0.30000
vt 0.37699 0.30000
vt 0.50265 0.00000
vt 0.62832 0.00000
vt 0.62832 0.30000
vt 0.50265 0.30000
vt 0.62832 0.00000
vt 0.75398 0.00000
vt 0.75398 0.30000
vt 0.62832 0.30000
vt 0.75398 0.00000
vt 0.87965 0.00000
vt 0.87965 0.30000
vt 0.75398 0.30000
vt 0.87965 0.00000
vt 1.00531 0.00000
vt 1.00531 0.30000
vt 0.87965 0.30000
vt 1.00531 0.00000
vt 1.13097 0.00000
vt 1.13097 0.30000
vt 1.00531 0.30000
vt 1.13097 0.00000
vt 1.25664 0.00000
vt 1.25664 0.30000
vt 1.13097 0.30000
vt 0.16180 -0.11756
vt 0.06180 -0.19021
vt -0.06180 -0.19021
vt -0.16180 -0.11756
vt -0.20000 0.00000
vt -0.16180 0.11756
vt -0.06180 0.19021
vt 0.06180 0.19021
vt 0.16180 0.11756
vt 0.20000 0.00000
vt 0.20000 0.00000
vt 0.16180 0.11756
vt 0.06180 0.19021
vt -0.06180 0.19021
vt -0.16180 0.11756
vt -0.20000 0.00000
vt -0.16180 -0.11756
vt -0.06180 -0.19021
vt 0.06180 -0.19021
vt 0.16180 -0.11756
vt 0.44167 0.02000
vt 0.55833 0.02000
vt 0.55833 0.06000
vt 0.44167 0.06000
vt -0.55833 0.02000
vt -0.44167 0.02000
vt -0.44167 0.06000
vt -0.55833 0.06000
vt -3.90000 0.44167
vt 3.90000 0.44167
vt 3.90000 0.55833
vt -3.90000 0.55833
vt -3.90000 -0.55833
vt 3.90000 -0.55833
vt 3.90000 -0.44167
vt -3.90000 -0.44167
vt -3.90000 0.02000
vt 3.90000 0.02000
vt 3.90000 0.06000
vt -3.90000 0.06000
vt -3.90000 0.02000
vt 3.90000 0.02000
vt 3.90000 0.06000
vt -3.90000 0.06000
vt -0.05833 0.02000
vt 0.05833 0.02000
vt 0.05833 0.06000
vt -0.05833 0.06000
vt -0.05833 0.02000
vt 0.05833 0.02000
vt 0.05833 0.06000
vt -0.05833 0.06000
vt -3.90000 -0.05833
vt 3.90000 -0.05833
vt 3.90000 0.05833
vt -3.90000 0.05833
vt -3.90000 -0.05833
vt 3.90000 -0.05833
vt 3.90000 0.05833
vt -3.90000 0.05833
vt -3.90000 0.02000
vt 3.90000 0.02000
vt 3.90000 0.06000
vt -3.90000 0.06000
vt -3.90000 0.02000
vt 3.90000 0.02000
vt 3.90000 0.06000
vt -3.90000 0.06000
vt -0.55833 0.02000
vt -0.44167 0.02000
vt -0.44167 0.06000
vt -0.55833 0.06000
vt 0.44167 0.02000
vt 0.55833 0.02000
vt 0.55833 0.06000
vt 0.44167 0.06000
vt -3.90000 -0.55833
vt 3.90000 -0.55833
vt 3.90000 -0.44167
vt -3.90000 -0.44167
vt -3.90000 0.44167
vt 3.90000 0.44167
vt 3.90000 0.55833
vt -3.90000 0.55833
vt -3.90000 0.02000
vt 3.90000 0.02000
vt 3.90000 0.06000
vt -3.90000 0.06000
vt -3.90000 0.02000
vt 3.90000 0.02000
vt 3.90000 0.06000
vt -3.90000 0.06000
vt 0.00000 0.00000
vt 0.06283 0.00000
vt 0.06283 3.25000
vt 0.00000 3.25000
vt 0.06283 0.00000
vt 0.12566 0.00000
vt 0.12566 3.25000
vt 0.06283 3.25000
vt 0.12566 0.00000
vt 0.18850 0.00000
vt 0.18850 3.25000
vt 0.12566 3.25000
vt 0.18850 0.00000
vt 0.25133 0.00000
vt 0.25133 3.25000
vt 0.18850 3.25000
vt 0.25133 0.00000
vt 0.31416 0.00000
vt 0.31416 3.25000
vt 0.25133 3.25000
vt 0.31416 0.00000
vt 0.37699 0.00000
vt 0.37699 3.25000
vt 0.31416 3.25000
vt 0.37699 0.00000
vt 0.43982 0.00000
vt 0.43982 3.25000
vt 0.37699 3.25000
vt 0.43982 0.00000
vt 0.50265 0.00000
vt 0.50265 3.25000
vt 0.43982 3.25000
vt 0.05657 -0.05657
vt -0.00000 -0.08000
vt -0.05657 -0.05657
vt -0.08000 0.00000
vt -0.05657 0.05657
vt 0.00000 0.08000
vt 0.05657 0.05657
vt 0.08000 0.00000
vt 0.08000 0.00000
vt 0.05657 0.05657
vt 0.00000 0.08000
vt -0.05657 0.05657
vt -0.08000 0.00000
vt -0.05657 -0.05657
vt -0.00000 -0.08000
vt 0.05657 -0.05657
vt -0.35000 4.25000
vt 0.35000 4.25000
vt 0.35000 4.45000
vt -0.35000 4.45000
vt -0.35000 4.25000
vt 0.35000 4.25000
vt 0.35000 4.45000
vt -0.35000 4.45000
vt -4.85000 -0.35000
vt -4.15000 -0.35000
vt -4.15000 0.35000
vt -4.85000 0.35000
vt -4.85000 -0.35000
vt -4.15000 -0.35000
vt -4.15000 0.35000
vt -4.85000 0.35000
vt -4.85000 4.25000
vt -4.15000 4.25000
vt -4.15000 4.45000
vt -4.85000 4.45000
vt 4.15000 4.25000
vt 4.85000 4.25000
vt 4.85000 4.45000
vt 4.15000 4.45000
vt 0.00000 0.00000
vt 0.06283 0.00000
vt 0.06283 3.25000
vt 0.00000 3.25000
vt 0.06283 0.00000
vt 0.12566 0.00000
vt 0.12566 3.25000
vt 0.06283 3.25000
vt 0.12566 0.00000
vt 0.18850 0.00000
vt 0.18850 3.25000
vt 0.12566 3.25000
vt 0.18850 0.00000
vt 0.25133 0.00000
vt 0.25133 3.25000
vt 0.18850 3.25000
vt 0.25133 0.00000
vt 0.31416 0.00000
vt 0.31416 3.25000
vt 0.25133 3.25000
vt 0.31416 0.00000
vt 0.37699 0.00000
vt 0.37699 3.25000
vt 0.31416 3.25000
vt 0.37699 0.00000
vt 0.43982 0.00000
vt 0.43982 3.25000
vt 0.37699 3.25000
vt 0.43982 0.00000
vt 0.50265 0.00000
vt 0.50265 3.25000
vt 0.43982 3.25000
vt 0.05657 -0.05657
vt -0.00000 -0.08000
vt -0.05657 -0.05657
vt -0.08000 0.00000
vt -0.05657 0.05657
vt 0.00000 0.08000
vt 0.05657 0.05657
vt 0.08000 0.00000
vt 0.08000 0.00000
vt 0.05657 0.05657
vt 0.00000 0.08000
vt -0.05657 0.05657
vt -0.08000 0.00000
vt -0.05657 -0.05657
vt -0.00000 -0.08000
vt 0.05657 -0.05657
vt -0.35000 4.25000
vt 0.35000 4.25000
vt 0.35000 4.45000
vt -0.35000 4.45000
vt -0.35000 4.25000
vt 0.35000 4.25000
vt 0.35000 4.45000
vt -0.35000 4.45000
vt 4.15000 -0.35000
vt 4.85000 -0.35000
vt 4.85000 0.35000
vt 4.15000 0.35000
vt 4.15000 -0.35000
vt 4.85000 -0.35000
vt 4.85000 0.35000
vt 4.15000 0.35000
vt 4.15000 4.25000
vt 4.85000 4.25000
vt 4.85000 4.45000
vt 4.15000 4.45000
vt -4.85000 4.25000
vt -4.15000 4.25000
vt -4.15000 4.45000
vt -4.85000 4.45000
vn 0.00000 0.00000 -1.00000
vn 0.00000 0.94868 -0.31623
vn 0.00000 1.00000 0.00000
vn 0.00000 0.00000 1.00000
vn 0.00000 -1.00000 0.00000
vn 0.00000 -0.94868 -0.31623
vn -1.00000 0.00000 0.00000
vn 1.00000 0.00000 0.00000
vn 0.00000 0.00000 -1.00000
vn 0.00000 0.93979 -0.34174
vn 0.00000 1.00000 0.00000
vn 0.00000 0.00000 1.00000
vn 0.00000 -1.00000 0.00000
vn 0.00000 -0.93979 -0.34174
vn -1.00000 0.00000 0.00000
vn 1.00000 0.00000 0.00000
vn 0.00000 0.00000 -1.00000
vn 0.00000 0.50000 -0.86603
vn 0.00000 0.50000 -0.86603
vn 0.00000 0.00000 -1.00000
vn 0.00000 0.50000 -0.86603
vn 0.00000 0.86603 -0.50000
vn 0.00000 0.86603 -0.50000
vn 0.00000 0.50000 -0.86603
vn 0.00000 0.86603 -0.50000
vn 0.00000 1.00000 -0.00000
vn 0.00000 1.00000 -0.00000
vn 0.00000 0.86603 -0.50000
vn 0.00000 1.00000 -0.00000
vn -0.00000 0.86603 0.50000
vn -0.00000 0.86603 0.50000
vn 0.00000 1.00000 -0.00000
vn -0.00000 0.86603 0.50000
vn -0.00000 0.50000 0.86603
vn -0.00000 0.50000 0.86603
vn -0.00000 0.86603 0.50000
vn -0.00000 0.50000 0.86603
vn -0.00000 0.00000 1.00000
vn -0.00000 0.00000 1.00000
vn -0.00000 0.50000 0.86603
vn -0.00000 0.00000 1.00000
vn 0.00000 -0.50000 0.86603
vn 0.00000 -0.50000 0.86603
vn -0.00000 0.00000 1.00000
vn 0.00000 -0.50000 0.86603
vn 0.00000 -0.86603 0.50000
vn 0.00000 -0.86603 0.50000
vn 0.00000 -0.50000 0.86603
vn 0.00000 -0.86603 0.50000
vn 0.00000 -1.00000 0.00000
vn 0.00000 -1.00000 0.00000
vn 0.00000 -0.86603 0.50000
vn 0.00000 -1.00000 0.00000
vn 0.00000 -0.86603 -0.50000
vn 0.00000 -0.86603 -0.50000
vn 0.00000 -1.00000 0.00000
vn 0.00000 -0.86603 -0.50000
vn 0.00000 -0.50000 -0.86603
vn 0.00000 -0.50000 -0.86603
vn 0.00000 -0.86603 -0.50000
vn 0.00000 -0.50000 -0.86603
vn 0.00000 0.00000 -1.00000
vn 0.00000 0.00000 -1.00000
vn 0.00000 -0.50000 -0.86603
vn -1.00000 -0.00000 -0.00000
vn 1.00000 0.00000 0.00000
vn 0.00000 0.00000 1.00000
vn 0.00000 0.58779 0.80902
vn 0.00000 0.58779 0.80902
vn 0.00000 0.00000 1.00000
vn 0.00000 0.58779 0.80902
vn 0.00000 0.95106 0.30902
vn 0.00000 0.95106 0.30902
vn 0.00000 0.58779 0.80902
vn 0.00000 0.95106 0.30902
vn 0.00000 0.95106 -0.30902
vn 0.00000 0.95106 -0.30902
vn 0.00000 0.95106 0.30902
vn 0.00000 0.95106 -0.30902
vn 0.00000 0.58779 -0.80902
vn 0.00000 0.58779 -0.80902
vn 0.00000 0.95106 -0.30902
vn 0.00000 0.58779 -0.80902
vn 0.00000 0.00000 -1.00000
vn 0.00000 0.00000 -1.00000
vn 0.00000 0.58779 -0.80902
vn 0.00000 0.00000 -1.00000
vn -0.00000 -0.58779 -0.80902
vn -0.00000 -0.58779 -0.80902
vn 0.00000 0.00000 -1.00000
vn -0.00000 -0.58779 -0.80902
vn -0.00000 -0.95106 -0.30902
vn -0.00000 -0.95106 -0.30902
vn -0.00000 -0.58779 -0.80902
vn -0.00000 -0.95106 -0.30902
vn 0.00000 -0.95106 0.30902
vn 0.00000 -0.95106 0.30902
vn -0.00000 -0.95106 -0.30902
vn 0.00000 -0.95106 0.30902
vn 0.00000 -0.58779 0.80902
vn 0.00000 -0.58779 0.80902
vn 0.00000 -0.95106 0.30902
vn 0.00000 -0.58779 0.80902
vn 0.00000 0.00000 1.00000
vn 0.00000 0.00000 1.00000
vn 0.00000 -0.58779 0.80902
vn 1.00000 -0.00000 -0.00000
vn -1.00000 0.00000 0.00000
vn 0.00000 0.00000 -1.00000
vn 0.00000 0.58779 -0.80902
vn 0.00000 0.58779 -0.80902
vn 0.00000 0.00000 -1.00000
vn 0.00000 0.58779 -0.80902
vn 0.00000 0.95106 -0.30902
vn 0.00000 0.95106 -0.30902
vn 0.00000 0.58779 -0.80902
vn 0.00000 0.95106 -0.30902
vn -0.00000 0.95106 0.30902
vn -0.00000 0.95106 0.30902
vn 0.00000 0.95106 -0.30902
vn -0.00000 0.95106 0.30902
vn -0.00000 0.58779 0.80902
vn -0.00000 0.58779 0.80902
vn -0.00000 0.95106 0.30902
vn -0.00000 0.58779 0.80902
vn -0.00000 0.00000 1.00000
vn -0.00000 0.00000 1.00000
vn -0.00000 0.58779 0.80902
vn -0.00000 0.00000 1.00000
vn 0.00000 -0.58779 0.80902
vn 0.00000 -0.58779 0.80902
vn -0.00000 0.00000 1.00000
vn 0.00000 -0.58779 0.80902
vn 0.00000 -0.95106 0.30902
vn 0.00000 -0.95106 0.30902
vn 0.00000 -0.58779 0.80902
vn 0.00000 -0.95106 0.30902
vn 0.00000 -0.95106 -0.30902
vn 0.00000 -0.95106 -0.30902
vn 0.00000 -0.95106 0.30902
vn 0.00000 -0.95106 -0.30902
vn 0.00000 -0.58779 -0.80902
vn 0.00000 -0.58779 -0.80902
vn 0.00000 -0.95106 -0.30902
vn 0.00000 -0.58779 -0.80902
vn 0.00000 0.00000 -1.00000
vn 0.00000 0.00000 -1.00000
vn 0.00000 -0.58779 -0.80902
vn -1.00000 -0.00000 -0.00000
vn 1.00000 0.00000 0.00000
vn 0.00000 0.00000 -1.00000
vn 0.00000 0.50000 -0.86603
vn 0.00000 0.50000 -0.86603
vn 0.00000 0.00000 -1.00000
vn 0.00000 0.50000 -0.86603
vn 0.00000 0.86603 -0.50000
vn 0.00000 0.86603 -0.50000
vn 0.00000 0.50000 -0.86603
vn 0.00000 0.86603 -0.50000
vn 0.00000 1.00000 -0.00000
vn 0.00000 1.00000 -0.00000
vn 0.00000 0.86603 -0.50000
vn 0.00000 1.00000 -0.00000
vn -0.00000 0.86603 0.50000
vn -0.00000 0.86603 0.50000
vn 0.00000 1.00000 -0.00000
vn -0.00000 0.86603 0.50000
vn -0.00000 0.50000 0.86603
vn -0.00000 0.50000 0.86603
vn -0.00000 0.86603 0.50000
vn -0.00000 0.50000 0.86603
vn -0.00000 0.00000 1.00000
vn -0.00000 0.00000 1.00000
vn -0.00000 0.50000 0.86603
vn -0.00000 0.00000 1.00000
vn 0.00000 -0.50000 0.86603
vn 0.00000 -0.50000 0.86603
vn -0.00000 0.00000 1.00000
vn 0.00000 -0.50000 0.86603
vn 0.00000 -0.86603 0.50000
vn 0.00000 -0.86603 0.50000
vn 0.00000 -0.50000 0.86603
vn 0.00000 -0.86603 0.50000
vn 0.00000 -1.00000 0.00000
vn 0.00000 -1.00000 0.00000
vn 0.00000 -0.86603 0.50000
vn 0.00000 -1.00000 0.00000
vn 0.00000 -0.86603 -0.50000
vn 0.00000 -0.86603 -0.50000
vn 0.00000 -1.00000 0.00000
vn 0.00000 -0.86603 -0.50000
vn 0.00000 -0.50000 -0.86603
vn 0.00000 -0.50000 -0.86603
vn 0.00000 -0.86603 -0.50000
vn 0.00000 -0.50000 -0.86603
vn 0.00000 0.00000 -1.00000
vn 0.00000 0.00000 -1.00000
vn 0.00000 -0.50000 -0.86603
vn -1.00000 -0.00000 -0.00000
vn 1.00000 0.00000 0.00000
vn 0.00000 0.00000 1.00000
vn 0.00000 0.58779 0.80902
vn 0.00000 0.58779 0.80902
vn 0.00000 0.00000 1.00000
vn 0.00000 0.58779 0.80902
vn 0.00000 0.95106 0.30902
vn 0.00000 0.95106 0.30902
vn 0.00000 0.58779 0.80902
vn 0.00000 0.95106 0.30902
vn 0.00000 0.95106 -0.30902
vn 0.00000 0.95106 -0.30902
vn 0.00000 0.95106 0.30902
vn 0.00000 0.95106 -0.30902
vn 0.00000 0.58779 -0.80902
vn 0.00000 0.58779 -0.80902
vn 0.00000 0.95106 -0.30902
vn 0.00000 0.58779 -0.80902
vn 0.00000 0.00000 -1.00000
vn 0.00000 0.00000 -1.00000
vn 0.00000 0.58779 -0.80902
vn 0.00000 0.00000 -1.00000
vn -0.00000 -0.58779 -0.80902
vn -0.00000 -0.58779 -0.80902
vn 0.00000 0.00000 -1.00000
vn -0.00000 -0.58779 -0.80902
vn -0.00000 -0.95106 -0.30902
vn -0.00000 -0.95106 -0.30902
vn -0.00000 -0.58779 -0.80902
vn -0.00000 -0.95106 -0.30902
vn 0.00000 -0.95106 0.30902
vn 0.00000 -0.95106 0.30902
vn -0.00000 -0.95106 -0.30902
vn 0.00000 -0.95106 0.30902
vn 0.00000 -0.58779 0.80902
vn 0.00000 -0.58779 0.80902
vn 0.00000 -0.95106 0.30902
vn 0.00000 -0.58779 0.80902
vn 0.00000 0.00000 1.00000
vn 0.00000 0.00000 1.00000
vn 0.00000 -0.58779 0.80902
vn 1.00000 -0.00000 -0.00000
vn -1.00000 0.00000 0.00000
vn 0.00000 0.00000 -1.00000
vn 0.00000 0.58779 -0.80902
vn 0.00000 0.58779 -0.80902
vn 0.00000 0.00000 -1.00000
vn 0.00000 0.58779 -0.80902
vn 0.00000 0.95106 -0.30902
vn 0.00000 0.95106 -0.30902
vn 0.00000 0.58779 -0.80902
vn 0.00000 0.95106 -0.30902
vn -0.00000 0.95106 0.30902
vn -0.00000 0.95106 0.30902
vn 0.00000 0.95106 -0.30902
vn -0.00000 0.95106 0.30902
vn -0.00000 0.58779 0.80902
vn -0.00000 0.58779 0.80902
vn -0.00000 0.95106 0.30902
vn -0.00000 0.58779 0.80902
vn -0.00000 0.00000 1.00000
vn -0.00000 0.00000 1.00000
vn -0.00000 0.58779 0.80902
vn -0.00000 0.00000 1.00000
vn 0.00000 -0.58779 0.80902
vn 0.00000 -0.58779 0.80902
vn -0.00000 0.00000 1.00000
vn 0.00000 -0.58779 0.80902
vn 0.00000 -0.95106 0.30902
vn 0.00000 -0.95106 0.30902
vn 0.00000 -0.58779 0.80902
vn 0.00000 -0.95106 0.30902
vn 0.00000 -0.95106 -0.30902
vn 0.00000 -0.95106 -0.30902
vn 0.00000 -0.95106 0.30902
vn 0.00000 -0.95106 -0.30902
vn 0.00000 -0.58779 -0.80902
vn 0.00000 -0.58779 -0.80902
vn 0.00000 -0.95106 -0.30902
vn 0.00000 -0.58779 -0.80902
vn 0.00000 0.00000 -1.00000
vn 0.00000 0.00000 -1.00000
vn 0.00000 -0.58779 -0.80902
vn -1.00000 -0.00000 -0.00000
vn 1.00000 0.00000 0.00000
vn 1.00000 0.00000 0.00000
vn -1.00000 0.00000 0.00000
vn 0.00000 1.00000 0.00000
vn 0.00000 -1.00000 0.00000
vn 0.00000 0.00000 1.00000
vn 0.00000 0.00000 -1.00000
vn 1.00000 0.00000 0.00000
vn -1.00000 0.00000 0.00000
vn 0.00000 1.00000 0.00000
vn 0.00000 -1.00000 0.00000
vn 0.00000 0.00000 1.00000
vn 0.00000 0.00000 -1.00000
vn 1.00000 0.00000 0.00000
vn -1.00000 0.00000 0.00000
vn 0.00000 1.00000 0.00000
vn 0.00000 -1.00000 0.00000
vn 0.00000 0.00000 1.00000
vn 0.00000 0.00000 -1.00000
vn 0.00000 0.00000 1.00000
vn 0.70711 0.00000 0.70711
vn 0.70711 0.00000 0.70711
vn 0.00000 0.00000 1.00000
vn 0.70711 0.00000 0.70711
vn 1.00000 0.00000 0.00000
vn 1.00000 0.00000 0.00000
vn 0.70711 0.00000 0.70711
vn 1.00000 0.00000 0.00000
vn 0.70711 0.00000 -0.70711
vn 0.70711 0.00000 -0.70711
vn 1.00000 0.00000 0.00000
vn 0.70711 0.00000 -0.70711
vn 0.00000 0.00000 -1.00000
vn 0.00000 0.00000 -1.00000
vn 0.70711 0.00000 -0.70711
vn 0.00000 0.00000 -1.00000
vn -0.70711 -0.00000 -0.70711
vn -0.70711 -0.00000 -0.70711
vn 0.00000 0.00000 -1.00000
vn -0.70711 -0.00000 -0.70711
vn -1.00000 -0.00000 -0.00000
vn -1.00000 -0.00000 -0.00000
vn -0.70711 -0.00000 -0.70711
vn -1.00000 -0.00000 -0.00000
vn -0.70711 0.00000 0.70711
vn -0.70711 0.00000 0.70711
vn -1.00000 -0.00000 -0.00000
vn -0.70711 0.00000 0.70711
vn 0.00000 0.00000 1.00000
vn 0.00000 0.00000 1.00000
vn -0.70711 0.00000 0.70711
vn -0.00000 -1.00000 -0.00000
vn 0.00000 1.00000 0.00000
vn 1.00000 0.00000 0.00000
vn -1.00000 0.00000 0.00000
vn 0.00000 1.00000 0.00000
vn 0.00000 -1.00000 0.00000
vn 0.00000 0.00000 1.00000
vn 0.00000 0.00000 -1.00000
vn 0.00000 0.00000 1.00000
vn 0.70711 0.00000 0.70711
vn 0.70711 0.00000 0.70711
vn 0.00000 0.00000 1.00000
vn 0.70711 0.00000 0.70711
vn 1.00000 0.00000 0.00000
vn 1.00000 0.00000 0.00000
vn 0.70711 0.00000 0.70711
vn 1.00000 0.00000 0.00000
vn 0.70711 0.00000 -0.70711
vn 0.70711 0.00000 -0.70711
vn 1.00000 0.00000 0.00000
vn 0.70711 0.00000 -0.70711
vn 0.00000 0.00000 -1.00000
vn 0.00000 0.00000 -1.00000
vn 0.70711 0.00000 -0.70711
vn 0.00000 0.00000 -1.00000
vn -0.70711 -0.00000 -0.70711
vn -0.70711 -0.00000 -0.70711
vn 0.00000 0.00000 -1.00000
vn -0.70711 -0.00000 -0.70711
vn -1.00000 -0.00000 -0.00000
vn -1.00000 -0.00000 -0.00000
vn -0.70711 -0.00000 -0.70711
vn -1.00000 -0.00000 -0.00000
vn -0.70711 0.00000 0.70711
vn -0.70711 0.00000 0.70711
vn -1.00000 -0.00000 -0.00000
vn -0.70711 0.00000 0.70711
vn 0.00000 0.00000 1.00000
vn 0.00000 0.00000 1.00000
vn -0.70711 0.00000 0.70711
vn -0.00000 -1.00000 -0.00000
vn 0.00000 1.00000 0.00000
vn 1.00000 0.00000 0.00000
vn -1.00000 0.00000 0.00000
vn 0.00000 1.00000 0.00000
vn 0.00000 -1.00000 0.00000
vn 0.00000 0.00000 1.00000
vn 0.00000 0.00000 -1.00000
usemtl steel
f 1/1/1 2/2/1 3/3/1 4/4/1
f 5/5/2 6/6/2 7/7/2 8/8/2
f 9/9/3 10/10/3 11/11/3 12/12/3
f 13/13/4 14/14/4 15/15/4 16/16/4
f 17/17/5 18/18/5 19/19/5 20/20/5
f 21/21/6 22/22/6 23/23/6 24/24/6
f 25/25/7 26/26/7 27/27/7 28/28/7 29/29/7 30/30/7
f 31/31/8 32/32/8 33/33/8 34/34/8 35/35/8 36/36/8
f 457/457/285 458/458/285 459/459/285 460/460/285
f 461/461/286 462/462/286 463/463/286 464/464/286
f 465/465/287 466/466/287 467/467/287 468/468/287
f 469/469/288 470/470/288 471/471/288 472/472/288
f 473/473/289 474/474/289 475/475/289 476/476/289
f 477/477/290 478/478/290 479/479/290 480/480/290
f 481/481/291 482/482/291 483/483/291 484/484/291
f 485/485/292 486/486/292 487/487/292 488/488/292
f 489/489/293 490/490/293 491/491/293 492/492/293
f 493/493/294 494/494/294 495/495/294 496/496/294
f 497/497/295 498/498/295 499/499/295 500/500/295
f 501/501/296 502/502/296 503/503/296 504/504/296
f 505/505/297 506/506/297 507/507/297 508/508/297
f 509/509/298 510/510/298 511/511/298 512/512/298
f 513/513/299 514/514/299 515/515/299 516/516/299
f 517/517/300 518/518/300 519/519/300 520/520/300
f 521/521/301 522/522/301 523/523/301 524/524/301
f 525/525/302 526/526/302 527/527/302 528/528/302
usemtl paint_white
f 37/37/9 38/38/9 39/39/9 40/40/9
f 41/41/10 42/42/10 43/43/10 44/44/10
f 45/45/11 46/46/11 47/47/11 48/48/11
f 49/49/12 50/50/12 51/51/12 52/52/12
f 53/53/13 54/54/13 55/55/13 56/56/13
f 57/57/14 58/58/14 59/59/14 60/60/14
f 61/61/15 62/62/15 63/63/15 64/64/15 65/65/15 66/66/15
f 67/67/16 68/68/16 69/69/16 70/70/16 71/71/16 72/72/16
usemtl lamp
f 73/73/17 74/74/18 75/75/19 76/76/20
f 77/77/21 78/78/22 79/79/23 80/80/24
f 81/81/25 82/82/26 83/83/27 84/84/28
f 85/85/29 86/86/30 87/87/31 88/88/32
f 89/89/33 90/90/34 91/91/35 92/92/36
f 93/93/37 94/94/38 95/95/39 96/96/40
f 97/97/41 98/98/42 99/99/43 100/100/44
f 101/101/45 102/102/46 103/103/47 104/104/48
f 105/105/49 106/106/50 107/107/51 108/108/52
f 109/109/53 110/110/54 111/111/55 112/112/56
f 113/113/57 114/114/58 115/115/59 116/116/60
f 117/117/61 118/118/62 119/119/63 120/120/64
f 121/121/65 122/122/65 123/123/65 124/124/65 125/125/65 126/126/65 127/127/65 128/128/65 129/129/65 130/130/65 131/131/65 132/132/65
f 133/133/66 134/134/66 135/135/66 136/136/66 137/137/66 138/138/66 139/139/66 140/140/66 141/141/66 142/142/66 143/143/66 144/144/66
f 265/265/151 266/266/152 267/267/153 268/268/154
f 269/269/155 270/270/156 271/271/157 272/272/158
f 273/273/159 274/274/160 275/275/161 276/276/162
f 277/277/163 278/278/164 279/279/165 280/280/166
f 281/281/167 282/282/168 283/283/169 284/284/170
f 285/285/171 286/286/172 287/287/173 288/288/174
f 289/289/175 290/290/176 291/291/177 292/292/178
f 293/293/179 294/294/180 295/295/181 296/296/182
f 297/297/183 298/298/184 299/299/185 300/300/186
f 301/301/187 302/302/188 303/303/189 304/304/190
f 305/305/191 306/306/192 307/307/193 308/308/194
f 309/309/195 310/310/196 311/311/197 312/312/198
f 313/313/199 314/314/199 315/315/199 316/316/199 317/317/199 318/318/199 319/319/199 320/320/199 321/321/199 322/322/199 323/323/199 324/324/199
f 325/325/200 326/326/200 327/327/200 328/328/200 329/329/200 330/330/200 331/331/200 332/332/200 333/333/200 334/334/200 335/335/200 336/336/200
usemtl steel_dark
f 145/145/67 146/146/68 147/147/69 148/148/70
f 149/149/71 150/150/72 151/151/73 152/152/74
f 153/153/75 154/154/76 155/155/77 156/156/78
f 157/157/79 158/158/80 159/159/81 160/160/82
f 161/161/83 162/162/84 163/163/85 164/164/86
f 165/165/87 166/166/88 167/167/89 168/168/90
f 169/169/91 170/170/92 171/171/93 172/172/94
f 173/173/95 174/174/96 175/175/97 176/176/98
f 177/177/99 178/178/100 179/179/101 180/180/102
f 181/181/103 182/182/104 183/183/105 184/184/106
f 185/185/107 186/186/107 187/187/107 188/188/107 189/189/107 190/190/107 191/191/107 192/192/107 193/193/107 194/194/107
f 195/195/108 196/196/108 197/197/108 198/198/108 199/199/108 200/200/108 201/201/108 202/202/108 203/203/108 204/204/108
f 205/205/109 206/206/110 207/207/111 208/208/112
f 209/209/113 210/210/114 211/211/115 212/212/116
f 213/213/117 214/214/118 215/215/119 216/216/120
f 217/217/121 218/218/122 219/219/123 220/220/124
f 221/221/125 222/222/126 223/223/127 224/224/128
f 225/225/129 226/226/130 227/227/131 228/228/132
f 229/229/133 230/230/134 231/231/135 232/232/136
f 233/233/137 234/234/138 235/235/139 236/236/140
f 237/237/141 238/238/142 239/239/143 240/240/144
f 241/241/145 242/242/146 243/243/147 244/244/148
f 245/245/149 246/246/149 247/247/149 248/248/149 249/249/149 250/250/149 251/251/149 252/252/149 253/253/149 254/254/149
f 255/255/150 256/256/150 257/257/150 258/258/150 259/259/150 260/260/150 261/261/150 262/262/150 263/263/150 264/264/150
f 337/337/201 338/338/202 339/339/203 340/340/204
f 341/341/205 342/342/206 343/343/207 344/344/208
f 345/345/209 346/346/210 347/347/211 348/348/212
f 349/349/213 350/350/214 351/351/215 352/352/216
f 353/353/217 354/354/218 355/355/219 356/356/220
f 357/357/221 358/358/222 359/359/223 360/360/224
f 361/361/225 362/362/226 363/363/227 364/364/228
f 365/365/229 366/366/230 367/367/231 368/368/232
f 369/369/233 370/370/234 371/371/235 372/372/236
f 373/373/237 374/374/238 375/375/239 376/376/240
f 377/377/241 378/378/241 379/379/241 380/380/241 381/381/241 382/382/241 383/383/241 384/384/241 385/385/241 386/386/241
f 387/387/242 388/388/242 389/389/242 390/390/242 391/391/242 392/392/242 393/393/242 394/394/242 395/395/242 396/396/242
f 397/397/243 398/398/244 399/399/245 400/400/246
f 401/401/247 402/402/248 403/403/249 404/404/250
f 405/405/251 406/406/252 407/407/253 408/408/254
f 409/409/255 410/410/256 411/411/257 412/412/258
f 413/413/259 414/414/260 415/415/261 416/416/262
f 417/417/263 418/418/264 419/419/265 420/420/266
f 421/421/267 422/422/268 423/423/269 424/424/270
f 425/425/271 426/426/272 427/427/273 428/428/274
f 429/429/275 430/430/276 431/431/277 432/432/278
f 433/433/279 434/434/280 435/435/281 436/436/282
f 437/437/283 438/438/283 439/439/283 440/440/283 441/441/283 442/442/283 443/443/283 444/444/283 445/445/283 446/446/283
f 447/447/284 448/448/284 449/449/284 450/450/284 451/451/284 452/452/284 453/453/284 454/454/284 455/455/284 456/456/284
f 529/529/303 530/530/304 531/531/305 532/532/306
f 533/533/307 534/534/308 535/535/309 536/536/310
f 537/537/311 538/538/312 539/539/313 540/540/314
f 541/541/315 542/542/316 543/543/317 544/544/318
f 545/545/319 546/546/320 547/547/321 548/548/322
f 549/549/323 550/550/324 551/551/325 552/552/326
f 553/553/327 554/554/328 555/555/329 556/556/330
f 557/557/331 558/558/332 559/559/333 560/560/334
f 561/561/335 562/562/335 563/563/335 564/564/335 565/565/335 566/566/335 567/567/335 568/568/335
f 569/569/336 570/570/336 571/571/336 572/572/336 573/573/336 574/574/336 575/575/336 576/576/336
f 577/577/337 578/578/337 579/579/337 580/580/337
f 581/581/338 582/582/338 583/583/338 584/584/338
f 585/585/339 586/586/339 587/587/339 588/588/339
f 589/589/340 590/590/340 591/591/340 592/592/340
f 593/593/341 594/594/341 595/595/341 596/596/341
f 597/597/342 598/598/342 599/599/342 600/600/342
f 601/601/343 602/602/344 603/603/345 604/604/346
f 605/605/347 606/606/348 607/607/349 608/608/350
f 609/609/351 610/610/352 611/611/353 612/612/354
f 613/613/355 614/614/356 615/615/357 616/616/358
f 617/617/359 618/618/360 619/619/361 620/620/362
f 621/621/363 622/622/364 623/623/365 624/624/366
f 625/625/367 626/626/368 627/627/369 628/628/370
f 629/629/371 630/630/372 631/631/373 632/632/374
f 633/633/375 634/634/375 635/635/375 636/636/375 637/637/375 638/638/375 639/639/375 640/640/375
f 641/641/376 642/642/376 643/643/376 644/644/376 645/645/376 646/646/376 647/647/376 648/648/376
f 649/649/377 650/650/377 651/651/377 652/652/377
f 653/653/378 654/654/378 655/655/378 656/656/378
f 657/657/379 658/658/379 659/659/379 660/660/379
f 661/661/380 662/662/380 663/663/380 664/664/380
f 665/665/381 666/666/381 667/667/381 668/668/381
f 669/669/382 670/670/382 671/671/382 672/672/382
