# generated by meshlib
mtllib speaker_horn.mtl
o speaker_horn
v 0.05500 -0.05500 0.02000
v 0.05500 -0.05500 -0.02000
v 0.05500 0.05500 -0.02000
v 0.05500 0.05500 0.02000
v -0.05500 -0.05500 -0.02000
v -0.05500 -0.05500 0.02000
v -0.05500 0.05500 0.02000
v -0.05500 0.05500 -0.02000
v -0.05500 0.05500 0.02000
v 0.05500 0.05500 0.02000
v 0.05500 0.05500 -0.02000
v -0.05500 0.05500 -0.02000
v -0.05500 -0.05500 -0.02000
v 0.05500 -0.05500 -0.02000
v 0.05500 -0.05500 0.02000
v -0.05500 -0.05500 0.02000
v -0.05500 -0.05500 0.02000
v 0.05500 -0.05500 0.02000
v 0.05500 0.05500 0.02000
v -0.05500 0.05500 0.02000
v 0.05500 -0.05500 -0.02000
v -0.05500 -0.05500 -0.02000
v -0.05500 0.05500 -0.02000
v 0.05500 0.05500 -0.02000
v 0.04500 0.00000 0.03000
v 0.04157 0.01722 0.03000
v 0.04619 0.01913 0.10000
v 0.05000 0.00000 0.10000
v 0.04157 0.01722 0.03000
v 0.03182 0.03182 0.03000
v 0.03536 0.03536 0.10000
v 0.04619 0.01913 0.10000
v 0.03182 0.03182 0.03000
v 0.01722 0.04157 0.03000
v 0.01913 0.04619 0.10000
v 0.03536 0.03536 0.10000
v 0.01722 0.04157 0.03000
v 0.00000 0.04500 0.03000
v 0.00000 0.05000 0.10000
v 0.01913 0.04619 0.10000
v 0.00000 0.04500 0.03000
v -0.01722 0.04157 0.03000
v -0.01913 0.04619 0.10000
v 0.00000 0.05000 0.10000
v -0.01722 0.04157 0.03000
v -0.03182 0.03182 0.03000
v -0.03536 0.03536 0.10000
v -0.01913 0.04619 0.10000
v -0.03182 0.03182 0.03000
v -0.04157 0.01722 0.03000
v -0.04619 0.01913 0.10000
v -0.03536 0.03536 0.10000
v -0.04157 0.01722 0.03000
v -0.04500 0.00000 0.03000
v -0.05000 0.00000 0.10000
v -0.04619 0.01913 0.10000
v -0.04500 0.00000 0.03000
v -0.04157 -0.01722 0.03000
v -0.04619 -0.01913 0.10000
v -0.05000 0.00000 0.10000
v -0.04157 -0.01722 0.03000
v -0.03182 -0.03182 0.03000
v -0.03536 -0.03536 0.10000
v -0.04619 -0.01913 0.10000
v -0.03182 -0.03182 0.03000
v -0.01722 -0.04157 0.03000
v -0.01913 -0.04619 0.10000
v -0.03536 -0.03536 0.10000
v -0.01722 -0.04157 0.03000
v -0.00000 -0.04500 0.03000
v -0.00000 -0.05000 0.10000
v -0.01913 -0.04619 0.10000
v -0.00000 -0.04500 0.03000
v 0.01722 -0.04157 0.03000
v 0.01913 -0.04619 0.10000
v -0.00000 -0.05000 0.10000
v 0.01722 -0.04157 0.03000
v 0.03182 -0.03182 0.03000
v 0.03536 -0.03536 0.10000
v 0.01913 -0.04619 0.10000
v 0.03182 -0.03182 0.03000
v 0.04157 -0.01722 0.03000
v 0.04619 -0.01913 0.10000
v 0.03536 -0.03536 0.10000
v 0.04157 -0.01722 0.03000
v 0.04500 -0.00000 0.03000
v 0.05000 -0.00000 0.10000
v 0.04619 -0.01913 0.10000
v 0.05000 0.00000 0.10000
v 0.04619 0.01913 0.10000
v 0.08315 0.03444 0.22000
v 0.09000 0.00000 0.22000
v 0.04619 0.01913 0.10000
v 0.03536 0.03536 0.10000
v 0.06364 0.06364 0.22000
v 0.08315 0.03444 0.22000
v 0.03536 0.03536 0.10000
v 0.01913 0.04619 0.10000
v 0.03444 0.08315 0.22000
v 0.06364 0.06364 0.22000
v 0.01913 0.04619 0.10000
v 0.00000 0.05000 0.10000
v 0.00000 0.09000 0.22000
v 0.03444 0.08315 0.22000
v 0.00000 0.05000 0.10000
v -0.01913 0.04619 0.10000
v -0.03444 0.08315 0.22000
v 0.00000 0.09000 0.22000
v -0.01913 0.04619 0.10000
v -0.03536 0.03536 0.10000
v -0.06364 0.06364 0.22000
v -0.03444 0.08315 0.22000
v -0.03536 0.03536 0.10000
v -0.04619 0.01913 0.10000
v -0.08315 0.03444 0.22000
v -0.06364 0.06364 0.22000
v -0.04619 0.01913 0.10000
v -0.05000 0.00000 0.10000
v -0.09000 0.00000 0.22000
v -0.08315 0.03444 0.22000
v -0.05000 0.00000 0.10000
v -0.04619 -0.01913 0.10000
v -0.08315 -0.03444 0.22000
v -0.09000 0.00000 0.22000
v -0.04619 -0.01913 0.10000
v -0.03536 -0.03536 0.10000
v -0.06364 -0.06364 0.22000
v -0.08315 -0.03444 0.22000
v -0.03536 -0.03536 0.10000
v -0.01913 -0.04619 0.10000
v -0.03444 -0.08315 0.22000
v -0.06364 -0.06364 0.22000
v -0.01913 -0.04619 0.10000
v -0.00000 -0.05000 0.10000
v -0.00000 -0.09000 0.22000
v -0.03444 -0.08315 0.22000
v -0.00000 -0.05000 0.10000
v 0.01913 -0.04619 0.10000
v 0.03444 -0.08315 0.22000
v -0.00000 -0.09000 0.22000
v 0.01913 -0.04619 0.10000
v 0.03536 -0.03536 0.10000
v 0.06364 -0.06364 0.22000
v 0.03444 -0.08315 0.22000
v 0.03536 -0.03536 0.10000
v 0.04619 -0.01913 0.10000
v 0.08315 -0.03444 0.22000
v 0.06364 -0.06364 0.22000
v 0.04619 -0.01913 0.10000
v 0.05000 -0.00000 0.10000
v 0.09000 -0.00000 0.22000
v 0.08315 -0.03444 0.22000
v 0.09000 0.00000 0.22000
v 0.08315 0.03444 0.22000
v 0.13858 0.05740 0.30000
v 0.15000 0.00000 0.30000
v 0.08315 0.03444 0.22000
v 0.06364 0.06364 0.22000
v 0.10607 0.10607 0.30000
v 0.13858 0.05740 0.30000
v 0.06364 0.06364 0.22000
v 0.03444 0.08315 0.22000
v 0.05740 0.13858 0.30000
v 0.10607 0.10607 0.30000
v 0.03444 0.08315 0.22000
v 0.00000 0.09000 0.22000
v 0.00000 0.15000 0.30000
v 0.05740 0.13858 0.30000
v 0.00000 0.09000 0.22000
v -0.03444 0.08315 0.22000
v -0.05740 0.13858 0.30000
v 0.00000 0.15000 0.30000
v -0.03444 0.08315 0.22000
v -0.06364 0.06364 0.22000
v -0.10607 0.10607 0.30000
v -0.05740 0.13858 0.30000
v -0.06364 0.06364 0.22000
v -0.08315 0.03444 0.22000
v -0.13858 0.05740 0.30000
v -0.10607 0.10607 0.30000
v -0.08315 0.03444 0.22000
v -0.09000 0.00000 0.22000
v -0.15000 0.00000 0.30000
v -0.13858 0.05740 0.30000
v -0.09000 0.00000 0.22000
v -0.08315 -0.03444 0.22000
v -0.13858 -0.05740 0.30000
v -0.15000 0.00000 0.30000
v -0.08315 -0.03444 0.22000
v -0.06364 -0.06364 0.22000
v -0.10607 -0.10607 0.30000
v -0.13858 -0.05740 0.30000
v -0.06364 -0.06364 0.22000
v -0.03444 -0.08315 0.22000
v -0.05740 -0.13858 0.30000
v -0.10607 -0.10607 0.30000
v -0.03444 -0.08315 0.22000
v -0.00000 -0.09000 0.22000
v -0.00000 -0.15000 0.30000
v -0.05740 -0.13858 0.30000
v -0.00000 -0.09000 0.22000
v 0.03444 -0.08315 0.22000
v 0.05740 -0.13858 0.30000
v -0.00000 -0.15000 0.30000
v 0.03444 -0.08315 0.22000
v 0.06364 -0.06364 0.22000
v 0.10607 -0.10607 0.30000
v 0.05740 -0.13858 0.30000
v 0.06364 -0.06364 0.22000
v 0.08315 -0.03444 0.22000
v 0.13858 -0.05740 0.30000
v 0.10607 -0.10607 0.30000
v 0.08315 -0.03444 0.22000
v 0.09000 -0.00000 0.22000
v 0.15000 -0.00000 0.30000
v 0.13858 -0.05740 0.30000
v 0.15000 0.00000 0.30000
v 0.13858 0.05740 0.30000
v 0.14320 0.05932 0.32000
v 0.15500 0.00000 0.32000
v 0.13858 0.05740 0.30000
v 0.10607 0.10607 0.30000
v 0.10960 0.10960 0.32000
v 0.14320 0.05932 0.32000
v 0.10607 0.10607 0.30000
v 0.05740 0.13858 0.30000
v 0.05932 0.14320 0.32000
v 0.10960 0.10960 0.32000
v 0.05740 0.13858 0.30000
v 0.00000 0.15000 0.30000
v 0.00000 0.15500 0.32000
v 0.05932 0.14320 0.32000
v 0.00000 0.15000 0.30000
v -0.05740 0.13858 0.30000
v -0.05932 0.14320 0.32000
v 0.00000 0.15500 0.32000
v -0.05740 0.13858 0.30000
v -0.10607 0.10607 0.30000
v -0.10960 0.10960 0.32000
v -0.05932 0.14320 0.32000
v -0.10607 0.10607 0.30000
v -0.13858 0.05740 0.30000
v -0.14320 0.05932 0.32000
v -0.10960 0.10960 0.32000
v -0.13858 0.05740 0.30000
v -0.15000 0.00000 0.30000
v -0.15500 0.00000 0.32000
v -0.14320 0.05932 0.32000
v -0.15000 0.00000 0.30000
v -0.13858 -0.05740 0.30000
v -0.14320 -0.05932 0.32000
v -0.15500 0.00000 0.32000
v -0.13858 -0.05740 0.30000
v -0.10607 -0.10607 0.30000
v -0.10960 -0.10960 0.32000
v -0.14320 -0.05932 0.32000
v -0.10607 -0.10607 0.30000
v -0.05740 -0.13858 0.30000
v -0.05932 -0.14320 0.32000
v -0.10960 -0.10960 0.32000
v -0.05740 -0.13858 0.30000
v -0.00000 -0.15000 0.30000
v -0.00000 -0.15500 0.32000
v -0.05932 -0.14320 0.32000
v -0.00000 -0.15000 0.30000
v 0.05740 -0.13858 0.30000
v 0.05932 -0.14320 0.32000
v -0.00000 -0.15500 0.32000
v 0.05740 -0.13858 0.30000
v 0.10607 -0.10607 0.30000
v 0.10960 -0.10960 0.32000
v 0.05932 -0.14320 0.32000
v 0.10607 -0.10607 0.30000
v 0.13858 -0.05740 0.30000
v 0.14320 -0.05932 0.32000
v 0.10960 -0.10960 0.32000
v 0.13858 -0.05740 0.30000
v 0.15000 -0.00000 0.30000
v 0.15500 -0.00000 0.32000
v 0.14320 -0.05932 0.32000
v 0.04157 -0.01722 0.03000
v 0.03182 -0.03182 0.03000
v 0.01722 -0.04157 0.03000
v -0.00000 -0.04500 0.03000
v -0.01722 -0.04157 0.03000
v -0.03182 -0.03182 0.03000
v -0.04157 -0.01722 0.03000
v -0.04500 0.00000 0.03000
v -0.04157 0.01722 0.03000
v -0.03182 0.03182 0.03000
v -0.01722 0.04157 0.03000
v 0.00000 0.04500 0.03000
v 0.01722 0.04157 0.03000
v 0.03182 0.03182 0.03000
v 0.04157 0.01722 0.03000
v 0.04500 0.00000 0.03000
v 0.00000 0.00000 0.30000
v 0.00000 0.00000 0.30000
v 0.12934 0.05358 0.30000
v 0.14000 0.00000 0.30000
v 0.00000 0.00000 0.30000
v 0.00000 0.00000 0.30000
v 0.09899 0.09899 0.30000
v 0.12934 0.05358 0.30000
v 0.00000 0.00000 0.30000
v 0.00000 0.00000 0.30000
v 0.05358 0.12934 0.30000
v 0.09899 0.09899 0.30000
v 0.00000 0.00000 0.30000
v 0.00000 0.00000 0.30000
v 0.00000 0.14000 0.30000
v 0.05358 0.12934 0.30000
v 0.00000 0.00000 0.30000
v 0.00000 0.00000 0.30000
v -0.05358 0.12934 0.30000
v 0.00000 0.14000 0.30000
v 0.00000 0.00000 0.30000
v 0.00000 0.00000 0.30000
v -0.09899 0.09899 0.30000
v -0.05358 0.12934 0.30000
v 0.00000 0.00000 0.30000
v 0.00000 0.00000 0.30000
v -0.12934 0.05358 0.30000
v -0.09899 0.09899 0.30000
v 0.00000 0.00000 0.30000
v 0.00000 0.00000 0.30000
v -0.14000 0.00000 0.30000
v -0.12934 0.05358 0.30000
v 0.00000 0.00000 0.30000
v 0.00000 0.00000 0.30000
v -0.12934 -0.05358 0.30000
v -0.14000 0.00000 0.30000
v 0.00000 0.00000 0.30000
v 0.00000 0.00000 0.30000
v -0.09899 -0.09899 0.30000
v -0.12934 -0.05358 0.30000
v 0.00000 0.00000 0.30000
v 0.00000 0.00000 0.30000
v -0.05358 -0.12934 0.30000
v -0.09899 -0.09899 0.30000
v 0.00000 0.00000 0.30000
v 0.00000 0.00000 0.30000
v -0.00000 -0.14000 0.30000
v -0.05358 -0.12934 0.30000
v 0.00000 0.00000 0.30000
v 0.00000 0.00000 0.30000
v 0.05358 -0.12934 0.30000
v -0.00000 -0.14000 0.30000
v 0.00000 0.00000 0.30000
v 0.00000 0.00000 0.30000
v 0.09899 -0.09899 0.30000
v 0.05358 -0.12934 0.30000
v 0.00000 0.00000 0.30000
v 0.00000 0.00000 0.30000
v 0.12934 -0.05358 0.30000
v 0.09899 -0.09899 0.30000
v 0.00000 0.00000 0.30000
v 0.00000 0.00000 0.30000
v 0.14000 -0.00000 0.30000
v 0.12934 -0.05358 0.30000
vt -0.10000 -0.27500
vt 0.10000 -0.27500
vt 0.10000 0.27500
vt -0.10000 0.27500
vt -0.10000 -0.27500
vt 0.10000 -0.27500
vt 0.10000 0.27500
vt -0.10000 0.27500
vt -0.27500 -0.10000
vt 0.27500 -0.10000
vt 0.27500 0.10000
vt -0.27500 0.10000
vt -0.27500 -0.10000
vt 0.27500 -0.10000
vt 0.27500 0.10000
vt -0.27500 0.10000
vt -0.27500 -0.27500
vt 0.27500 -0.27500
vt 0.27500 0.27500
vt -0.27500 0.27500
vt -0.27500 -0.27500
vt 0.27500 -0.27500
vt 0.27500 0.27500
vt -0.27500 0.27500
vt 0.00000 0.10000
vt 0.20289 0.10000
vt 0.20289 0.33333
vt 0.00000 0.33333
vt 0.20289 0.10000
vt 0.40579 0.10000
vt 0.40579 0.33333
vt 0.20289 0.33333
vt 0.40579 0.10000
vt 0.60868 0.10000
vt 0.60868 0.33333
vt 0.40579 0.33333
vt 0.60868 0.10000
vt 0.81158 0.10000
vt 0.81158 0.33333
vt 0.60868 0.33333
vt 0.81158 0.10000
vt 1.01447 0.10000
vt 1.01447 0.33333
vt 0.81158 0.33333
vt 1.01447 0.10000
vt 1.21737 0.10000
vt 1.21737 0.33333
vt 1.01447 0.33333
vt 1.21737 0.10000
vt 1.42026 0.10000
vt 1.42026 0.33333
vt 1.21737 0.33333
vt 1.42026 0.10000
vt 1.62316 0.10000
vt 1.62316 0.33333
vt 1.42026 0.33333
vt 1.62316 0.10000
vt 1.82605 0.10000
vt 1.82605 0.33333
vt 1.62316 0.33333
vt 1.82605 0.10000
vt 2.02895 0.10000
vt 2.02895 0.33333
vt 1.82605 0.33333
vt 2.02895 0.10000
vt 2.23184 0.10000
vt 2.23184 0.33333
vt 2.02895 0.33333
vt 2.23184 0.10000
vt 2.43473 0.10000
vt 2.43473 0.33333
vt 2.23184 0.33333
vt 2.43473 0.10000
vt 2.63763 0.10000
vt 2.63763 0.33333
vt 2.43473 0.33333
vt 2.63763 0.10000
vt 2.84052 0.10000
vt 2.84052 0.33333
vt 2.63763 0.33333
vt 2.84052 0.10000
vt 3.04342 0.10000
vt 3.04342 0.33333
vt 2.84052 0.33333
vt 3.04342 0.10000
vt 3.24631 0.10000
vt 3.24631 0.33333
vt 3.04342 0.33333
vt 0.00000 0.33333
vt 0.20289 0.33333
vt 0.20289 0.73333
vt 0.00000 0.73333
vt 0.20289 0.33333
vt 0.40579 0.33333
vt 0.40579 0.73333
vt 0.20289 0.73333
vt 0.40579 0.33333
vt 0.60868 0.33333
vt 0.60868 0.73333
vt 0.40579 0.73333
vt 0.60868 0.33333
vt 0.81158 0.33333
vt 0.81158 0.73333
vt 0.60868 0.73333
vt 0.81158 0.33333
vt 1.01447 0.33333
vt 1.01447 0.73333
vt 0.81158 0.73333
vt 1.01447 0.33333
vt 1.21737 0.33333
vt 1.21737 0.73333
vt 1.01447 0.73333
vt 1.21737 0.33333
vt 1.42026 0.33333
vt 1.42026 0.73333
vt 1.21737 0.73333
vt 1.42026 0.33333
vt 1.62316 0.33333
vt 1.62316 0.73333
vt 1.42026 0.73333
vt 1.62316 0.33333
vt 1.82605 0.33333
vt 1.82605 0.73333
vt 1.62316 0.73333
vt 1.82605 0.33333
vt 2.02895 0.33333
vt 2.02895 0.73333
vt 1.82605 0.73333
vt 2.02895 0.33333
vt 2.23184 0.33333
vt 2.23184 0.73333
vt 2.02895 0.73333
vt 2.23184 0.33333
vt 2.43473 0.33333
vt 2.43473 0.73333
vt 2.23184 0.73333
vt 2.43473 0.33333
vt 2.63763 0.33333
vt 2.63763 0.73333
vt 2.43473 0.73333
vt 2.63763 0.33333
vt 2.84052 0.33333
vt 2.84052 0.73333
vt 2.63763 0.73333
vt 2.84052 0.33333
vt 3.04342 0.33333
vt 3.04342 0.73333
vt 2.84052 0.73333
vt 3.04342 0.33333
vt 3.24631 0.33333
vt 3.24631 0.73333
vt 3.04342 0.73333
vt 0.00000 0.73333
vt 0.20289 0.73333
vt 0.20289 1.00000
vt 0.00000 1.00000
vt 0.20289 0.73333
vt 0.40579 0.73333
vt 0.40579 1.00000
vt 0.20289 1.00000
vt 0.40579 0.73333
vt 0.60868 0.73333
vt 0.60868 1.00000
vt 0.40579 1.00000
vt 0.60868 0.73333
vt 0.81158 0.73333
vt 0.81158 1.00000
vt 0.60868 1.00000
vt 0.81158 0.73333
vt 1.01447 0.73333
vt 1.01447 1.00000
vt 0.81158 1.00000
vt 1.01447 0.73333
vt 1.21737 0.73333
vt 1.21737 1.00000
vt 1.01447 1.00000
vt 1.21737 0.73333
vt 1.42026 0.73333
vt 1.42026 1.00000
vt 1.21737 1.00000
vt 1.42026 0.73333
vt 1.62316 0.73333
vt 1.62316 1.00000
vt 1.42026 1.00000
vt 1.62316 0.73333
vt 1.82605 0.73333
vt 1.82605 1.00000
vt 1.62316 1.00000
vt 1.82605 0.73333
vt 2.02895 0.73333
vt 2.02895 1.00000
vt 1.82605 1.00000
vt 2.02895 0.73333
vt 2.23184 0.73333
vt 2.23184 1.00000
vt 2.02895 1.00000
vt 2.23184 0.73333
vt 2.43473 0.73333
vt 2.43473 1.00000
vt 2.23184 1.00000
vt 2.43473 0.73333
vt 2.63763 0.73333
vt 2.63763 1.00000
vt 2.43473 1.00000
vt 2.63763 0.73333
vt 2.84052 0.73333
vt 2.84052 1.00000
vt 2.63763 1.00000
vt 2.84052 0.73333
vt 3.04342 0.73333
vt 3.04342 1.00000
vt 2.84052 1.00000
vt 3.04342 0.73333
vt 3.24631 0.73333
vt 3.24631 1.00000
vt 3.04342 1.00000
vt 0.00000 1.00000
vt 0.20289 1.00000
vt 0.20289 1.06667
vt 0.00000 1.06667
vt 0.20289 1.00000
vt 0.40579 1.00000
vt 0.40579 1.06667
vt 0.20289 1.06667
vt 0.40579 1.00000
vt 0.60868 1.00000
vt 0.60868 1.06667
vt 0.40579 1.06667
vt 0.60868 1.00000
vt 0.81158 1.00000
vt 0.81158 1.06667
vt 0.60868 1.06667
vt 0.81158 1.00000
vt 1.01447 1.00000
vt 1.01447 1.06667
vt 0.81158 1.06667
vt 1.01447 1.00000
vt 1.21737 1.00000
vt 1.21737 1.06667
vt 1.01447 1.06667
vt 1.21737 1.00000
vt 1.42026 1.00000
vt 1.42026 1.06667
vt 1.21737 1.06667
vt 1.42026 1.00000
vt 1.62316 1.00000
vt 1.62316 1.06667
vt 1.42026 1.06667
vt 1.62316 1.00000
vt 1.82605 1.00000
vt 1.82605 1.06667
vt 1.62316 1.06667
vt 1.82605 1.00000
vt 2.02895 1.00000
vt 2.02895 1.06667
vt 1.82605 1.06667
vt 2.02895 1.00000
vt 2.23184 1.00000
vt 2.23184 1.06667
vt 2.02895 1.06667
vt 2.23184 1.00000
vt 2.43473 1.00000
vt 2.43473 1.06667
vt 2.23184 1.06667
vt 2.43473 1.00000
vt 2.63763 1.00000
vt 2.63763 1.06667
vt 2.43473 1.06667
vt 2.63763 1.00000
vt 2.84052 1.00000
vt 2.84052 1.06667
vt 2.63763 1.06667
vt 2.84052 1.00000
vt 3.04342 1.00000
vt 3.04342 1.06667
vt 2.84052 1.06667
vt 3.04342 1.00000
vt 3.24631 1.00000
vt 3.24631 1.06667
vt 3.04342 1.06667
vt 0.13858 -0.05740
vt 0.10607 -0.10607
vt 0.05740 -0.13858
vt -0.00000 -0.15000
vt -0.05740 -0.13858
vt -0.10607 -0.10607
vt -0.13858 -0.05740
vt -0.15000 0.00000
vt -0.13858 0.05740
vt -0.10607 0.10607
vt -0.05740 0.13858
vt 0.00000 0.15000
vt 0.05740 0.13858
vt 0.10607 0.10607
vt 0.13858 0.05740
vt 0.15000 0.00000
vt 0.00000 1.00000
vt 0.18326 1.00000
vt 0.18326 1.00000
vt 0.00000 1.00000
vt 0.18326 1.00000
vt 0.36652 1.00000
vt 0.36652 1.00000
vt 0.18326 1.00000
vt 0.36652 1.00000
vt 0.54978 1.00000
vt 0.54978 1.00000
vt 0.36652 1.00000
vt 0.54978 1.00000
vt 0.73304 1.00000
vt 0.73304 1.00000
vt 0.54978 1.00000
vt 0.73304 1.00000
vt 0.91630 1.00000
vt 0.91630 1.00000
vt 0.73304 1.00000
vt 0.91630 1.00000
vt 1.09956 1.00000
vt 1.09956 1.00000
vt 0.91630 1.00000
vt 1.09956 1.00000
vt 1.28282 1.00000
vt 1.28282 1.00000
vt 1.09956 1.00000
vt 1.28282 1.00000
vt 1.46608 1.00000
vt 1.46608 1.00000
vt 1.28282 1.00000
vt 1.46608 1.00000
vt 1.64934 1.00000
vt 1.64934 1.00000
vt 1.46608 1.00000
vt 1.64934 1.00000
vt 1.83260 1.00000
vt 1.83260 1.00000
vt 1.64934 1.00000
vt 1.83260 1.00000
vt 2.01586 1.00000
vt 2.01586 1.00000
vt 1.83260 1.00000
vt 2.01586 1.00000
vt 2.19911 1.00000
vt 2.19911 1.00000
vt 2.01586 1.00000
vt 2.19911 1.00000
vt 2.38237 1.00000
vt 2.38237 1.00000
vt 2.19911 1.00000
vt 2.38237 1.00000
vt 2.56563 1.00000
vt 2.56563 1.00000
vt 2.38237 1.00000
vt 2.56563 1.00000
vt 2.74889 1.00000
vt 2.74889 1.00000
vt 2.56563 1.00000
vt 2.74889 1.00000
vt 2.93215 1.00000
vt 2.93215 1.00000
vt 2.74889 1.00000
vn 1.00000 0.00000 0.00000
vn -1.00000 0.00000 0.00000
vn 0.00000 1.00000 0.00000
vn 0.00000 -1.00000 0.00000
vn 0.00000 0.00000 1.00000
vn 0.00000 0.00000 -1.00000
vn 0.99746 0.00000 -0.07125
vn 0.92153 0.38171 -0.07125
vn 0.92153 0.38171 -0.07125
vn 0.99746 0.00000 -0.07125
vn 0.92153 0.38171 -0.07125
vn 0.70531 0.70531 -0.07125
vn 0.70531 0.70531 -0.07125
vn 0.92153 0.38171 -0.07125
vn 0.70531 0.70531 -0.07125
vn 0.38171 0.92153 -0.07125
vn 0.38171 0.92153 -0.07125
vn 0.70531 0.70531 -0.07125
vn 0.38171 0.92153 -0.07125
vn 0.00000 0.99746 -0.07125
vn 0.00000 0.99746 -0.07125
vn 0.38171 0.92153 -0.07125
vn 0.00000 0.99746 -0.07125
vn -0.38171 0.92153 -0.07125
vn -0.38171 0.92153 -0.07125
vn 0.00000 0.99746 -0.07125
vn -0.38171 0.92153 -0.07125
vn -0.70531 0.70531 -0.07125
vn -0.70531 0.70531 -0.07125
vn -0.38171 0.92153 -0.07125
vn -0.70531 0.70531 -0.07125
vn -0.92153 0.38171 -0.07125
vn -0.92153 0.38171 -0.07125
vn -0.70531 0.70531 -0.07125
vn -0.92153 0.38171 -0.07125
vn -0.99746 0.00000 -0.07125
vn -0.99746 0.00000 -0.07125
vn -0.92153 0.38171 -0.07125
vn -0.99746 0.00000 -0.07125
vn -0.92153 -0.38171 -0.07125
vn -0.92153 -0.38171 -0.07125
vn -0.99746 0.00000 -0.07125
vn -0.92153 -0.38171 -0.07125
vn -0.70531 -0.70531 -0.07125
vn -0.70531 -0.70531 -0.07125
vn -0.92153 -0.38171 -0.07125
vn -0.70531 -0.70531 -0.07125
vn -0.38171 -0.92153 -0.07125
vn -0.38171 -0.92153 -0.07125
vn -0.70531 -0.70531 -0.07125
vn -0.38171 -0.92153 -0.07125
vn -0.00000 -0.99746 -0.07125
vn -0.00000 -0.99746 -0.07125
vn -0.38171 -0.92153 -0.07125
vn -0.00000 -0.99746 -0.07125
vn 0.38171 -0.92153 -0.07125
vn 0.38171 -0.92153 -0.07125
vn -0.00000 -0.99746 -0.07125
vn 0.38171 -0.92153 -0.07125
vn 0.70531 -0.70531 -0.07125
vn 0.70531 -0.70531 -0.07125
vn 0.38171 -0.92153 -0.07125
vn 0.70531 -0.70531 -0.07125
vn 0.92153 -0.38171 -0.07125
vn 0.92153 -0.38171 -0.07125
vn 0.70531 -0.70531 -0.07125
vn 0.92153 -0.38171 -0.07125
vn 0.99746 -0.00000 -0.07125
vn 0.99746 -0.00000 -0.07125
vn 0.92153 -0.38171 -0.07125
vn 0.94868 0.00000 -0.31623
vn 0.87647 0.36305 -0.31623
vn 0.87647 0.36305 -0.31623
vn 0.94868 0.00000 -0.31623
vn 0.87647 0.36305 -0.31623
vn 0.67082 0.67082 -0.31623
vn 0.67082 0.67082 -0.31623
vn 0.87647 0.36305 -0.31623
vn 0.67082 0.67082 -0.31623
vn 0.36305 0.87647 -0.31623
vn 0.36305 0.87647 -0.31623
vn 0.67082 0.67082 -0.31623
vn 0.36305 0.87647 -0.31623
vn 0.00000 0.94868 -0.31623
vn 0.00000 0.94868 -0.31623
vn 0.36305 0.87647 -0.31623
vn 0.00000 0.94868 -0.31623
vn -0.36305 0.87647 -0.31623
vn -0.36305 0.87647 -0.31623
vn 0.00000 0.94868 -0.31623
vn -0.36305 0.87647 -0.31623
vn -0.67082 0.67082 -0.31623
vn -0.67082 0.67082 -0.31623
vn -0.36305 0.87647 -0.31623
vn -0.67082 0.67082 -0.31623
vn -0.87647 0.36305 -0.31623
vn -0.87647 0.36305 -0.31623
vn -0.67082 0.67082 -0.31623
vn -0.87647 0.36305 -0.31623
vn -0.94868 0.00000 -0.31623
vn -0.94868 0.00000 -0.31623
vn -0.87647 0.36305 -0.31623
vn -0.94868 0.00000 -0.31623
vn -0.87647 -0.36305 -0.31623
vn -0.87647 -0.36305 -0.31623
vn -0.94868 0.00000 -0.31623
vn -0.87647 -0.36305 -0.31623
vn -0.67082 -0.67082 -0.31623
vn -0.67082 -0.67082 -0.31623
vn -0.87647 -0.36305 -0.31623
vn -0.67082 -0.67082 -0.31623
vn -0.36305 -0.87647 -0.31623
vn -0.36305 -0.87647 -0.31623
vn -0.67082 -0.67082 -0.31623
vn -0.36305 -0.87647 -0.31623
vn -0.00000 -0.94868 -0.31623
vn -0.00000 -0.94868 -0.31623
vn -0.36305 -0.87647 -0.31623
vn -0.00000 -0.94868 -0.31623
vn 0.36305 -0.87647 -0.31623
vn 0.36305 -0.87647 -0.31623
vn -0.00000 -0.94868 -0.31623
vn 0.36305 -0.87647 -0.31623
vn 0.67082 -0.67082 -0.31623
vn 0.67082 -0.67082 -0.31623
vn 0.36305 -0.87647 -0.31623
vn 0.67082 -0.67082 -0.31623
vn 0.87647 -0.36305 -0.31623
vn 0.87647 -0.36305 -0.31623
vn 0.67082 -0.67082 -0.31623
vn 0.87647 -0.36305 -0.31623
vn 0.94868 -0.00000 -0.31623
vn 0.94868 -0.00000 -0.31623
vn 0.87647 -0.36305 -0.31623
vn 0.80000 0.00000 -0.60000
vn 0.73910 0.30615 -0.60000
vn 0.73910 0.30615 -0.60000
vn 0.80000 0.00000 -0.60000
vn 0.73910 0.30615 -0.60000
vn 0.56569 0.56569 -0.60000
vn 0.56569 0.56569 -0.60000
vn 0.73910 0.30615 -0.60000
vn 0.56569 0.56569 -0.60000
vn 0.30615 0.73910 -0.60000
vn 0.30615 0.73910 -0.60000
vn 0.56569 0.56569 -0.60000
vn 0.30615 0.73910 -0.60000
vn 0.00000 0.80000 -0.60000
vn 0.00000 0.80000 -0.60000
vn 0.30615 0.73910 -0.60000
vn 0.00000 0.80000 -0.60000
vn -0.30615 0.73910 -0.60000
vn -0.30615 0.73910 -0.60000
vn 0.00000 0.80000 -0.60000
vn -0.30615 0.73910 -0.60000
vn -0.56569 0.56569 -0.60000
vn -0.56569 0.56569 -0.60000
vn -0.30615 0.73910 -0.60000
vn -0.56569 0.56569 -0.60000
vn -0.73910 0.30615 -0.60000
vn -0.73910 0.30615 -0.60000
vn -0.56569 0.56569 -0.60000
vn -0.73910 0.30615 -0.60000
vn -0.80000 0.00000 -0.60000
vn -0.80000 0.00000 -0.60000
vn -0.73910 0.30615 -0.60000
vn -0.80000 0.00000 -0.60000
vn -0.73910 -0.30615 -0.60000
vn -0.73910 -0.30615 -0.60000
vn -0.80000 0.00000 -0.60000
vn -0.73910 -0.30615 -0.60000
vn -0.56569 -0.56569 -0.60000
vn -0.56569 -0.56569 -0.60000
vn -0.73910 -0.30615 -0.60000
vn -0.56569 -0.56569 -0.60000
vn -0.30615 -0.73910 -0.60000
vn -0.30615 -0.73910 -0.60000
vn -0.56569 -0.56569 -0.60000
vn -0.30615 -0.73910 -0.60000
vn -0.00000 -0.80000 -0.60000
vn -0.00000 -0.80000 -0.60000
vn -0.30615 -0.73910 -0.60000
vn -0.00000 -0.80000 -0.60000
vn 0.30615 -0.73910 -0.60000
vn 0.30615 -0.73910 -0.60000
vn -0.00000 -0.80000 -0.60000
vn 0.30615 -0.73910 -0.60000
vn 0.56569 -0.56569 -0.60000
vn 0.56569 -0.56569 -0.60000
vn 0.30615 -0.73910 -0.60000
vn 0.56569 -0.56569 -0.60000
vn 0.73910 -0.30615 -0.60000
vn 0.73910 -0.30615 -0.60000
vn 0.56569 -0.56569 -0.60000
vn 0.73910 -0.30615 -0.60000
vn 0.80000 -0.00000 -0.60000
vn 0.80000 -0.00000 -0.60000
vn 0.73910 -0.30615 -0.60000
vn 0.97014 0.00000 -0.24254
vn 0.89629 0.37126 -0.24254
vn 0.89629 0.37126 -0.24254
vn 0.97014 0.00000 -0.24254
vn 0.89629 0.37126 -0.24254
vn 0.68599 0.68599 -0.24254
vn 0.68599 0.68599 -0.24254
vn 0.89629 0.37126 -0.24254
vn 0.68599 0.68599 -0.24254
vn 0.37126 0.89629 -0.24254
vn 0.37126 0.89629 -0.24254
vn 0.68599 0.68599 -0.24254
vn 0.37126 0.89629 -0.24254
vn 0.00000 0.97014 -0.24254
vn 0.00000 0.97014 -0.24254
vn 0.37126 0.89629 -0.24254
vn 0.00000 0.97014 -0.24254
vn -0.37126 0.89629 -0.24254
vn -0.37126 0.89629 -0.24254
vn 0.00000 0.97014 -0.24254
vn -0.37126 0.89629 -0.24254
vn -0.68599 0.68599 -0.24254
vn -0.68599 0.68599 -0.24254
vn -0.37126 0.89629 -0.24254
vn -0.68599 0.68599 -0.24254
vn -0.89629 0.37126 -0.24254
vn -0.89629 0.37126 -0.24254
vn -0.68599 0.68599 -0.24254
vn -0.89629 0.37126 -0.24254
vn -0.97014 0.00000 -0.24254
vn -0.97014 0.00000 -0.24254
vn -0.89629 0.37126 -0.24254
vn -0.97014 0.00000 -0.24254
vn -0.89629 -0.37126 -0.24254
vn -0.89629 -0.37126 -0.24254
vn -0.97014 0.00000 -0.24254
vn -0.89629 -0.37126 -0.24254
vn -0.68599 -0.68599 -0.24254
vn -0.68599 -0.68599 -0.24254
vn -0.89629 -0.37126 -0.24254
vn -0.68599 -0.68599 -0.24254
vn -0.37126 -0.89629 -0.24254
vn -0.37126 -0.89629 -0.24254
vn -0.68599 -0.68599 -0.24254
vn -0.37126 -0.89629 -0.24254
vn -0.00000 -0.97014 -0.24254
vn -0.00000 -0.97014 -0.24254
vn -0.37126 -0.89629 -0.24254
vn -0.00000 -0.97014 -0.24254
vn 0.37126 -0.89629 -0.24254
vn 0.37126 -0.89629 -0.24254
vn -0.00000 -0.97014 -0.24254
vn 0.37126 -0.89629 -0.24254
vn 0.68599 -0.68599 -0.24254
vn 0.68599 -0.68599 -0.24254
vn 0.37126 -0.89629 -0.24254
vn 0.68599 -0.68599 -0.24254
vn 0.89629 -0.37126 -0.24254
vn 0.89629 -0.37126 -0.24254
vn 0.68599 -0.68599 -0.24254
vn 0.89629 -0.37126 -0.24254
vn 0.97014 -0.00000 -0.24254
vn 0.97014 -0.00000 -0.24254
vn 0.89629 -0.37126 -0.24254
vn 0.00000 0.00000 -1.00000
vn 0.00000 0.00000 -1.00000
vn 0.00000 0.00000 -1.00000
vn 0.00000 0.00000 -1.00000
vn 0.00000 0.00000 -1.00000
vn 0.00000 0.00000 -1.00000
vn 0.00000 0.00000 -1.00000
vn 0.00000 0.00000 -1.00000
vn 0.00000 0.00000 -1.00000
vn 0.00000 0.00000 -1.00000
vn 0.00000 0.00000 -1.00000
vn 0.00000 0.00000 -1.00000
vn 0.00000 0.00000 -1.00000
vn 0.00000 0.00000 -1.00000
vn 0.00000 0.00000 -1.00000
vn 0.00000 0.00000 -1.00000
vn 0.00000 0.00000 -1.00000
vn 0.00000 0.00000 -1.00000
vn -0.00000 0.00000 -1.00000
vn -0.00000 0.00000 -1.00000
vn 0.00000 0.00000 -1.00000
vn -0.00000 0.00000 -1.00000
vn -0.00000 0.00000 -1.00000
vn -0.00000 0.00000 -1.00000
vn -0.00000 0.00000 -1.00000
vn -0.00000 0.00000 -1.00000
vn -0.00000 0.00000 -1.00000
vn -0.00000 0.00000 -1.00000
vn -0.00000 0.00000 -1.00000
vn -0.00000 0.00000 -1.00000
vn -0.00000 0.00000 -1.00000
vn -0.00000 0.00000 -1.00000
vn -0.00000 0.00000 -1.00000
vn -0.00000 0.00000 -1.00000
vn -0.00000 -0.00000 -1.00000
vn -0.00000 -0.00000 -1.00000
vn -0.00000 0.00000 -1.00000
vn -0.00000 -0.00000 -1.00000
vn -0.00000 -0.00000 -1.00000
vn -0.00000 -0.00000 -1.00000
vn -0.00000 -0.00000 -1.00000
vn -0.00000 -0.00000 -1.00000
vn -0.00000 -0.00000 -1.00000
vn -0.00000 -0.00000 -1.00000
vn -0.00000 -0.00000 -1.00000
vn -0.00000 -0.00000 -1.00000
vn -0.00000 -0.00000 -1.00000
vn -0.00000 -0.00000 -1.00000
vn -0.00000 -0.00000 -1.00000
vn -0.00000 -0.00000 -1.00000
vn 0.00000 -0.00000 -1.00000
vn 0.00000 -0.00000 -1.00000
vn -0.00000 -0.00000 -1.00000
vn 0.00000 -0.00000 -1.00000
vn 0.00000 -0.00000 -1.00000
vn 0.00000 -0.00000 -1.00000
vn 0.00000 -0.00000 -1.00000
vn 0.00000 -0.00000 -1.00000
vn 0.00000 -0.00000 -1.00000
vn 0.00000 -0.00000 -1.00000
vn 0.00000 -0.00000 -1.00000
vn 0.00000 -0.00000 -1.00000
vn 0.00000 -0.00000 -1.00000
vn 0.00000 -0.00000 -1.00000
vn 0.00000 -0.00000 -1.00000
usemtl steel_dark
f 1/1/1 2/2/1 3/3/1 4/4/1
f 5/5/2 6/6/2 7/7/2 8/8/2
f 9/9/3 10/10/3 11/11/3 12/12/3
f 13/13/4 14/14/4 15/15/4 16/16/4
f 17/17/5 18/18/5 19/19/5 20/20/5
f 21/21/6 22/22/6 23/23/6 24/24/6
usemtl plastic_grey
f 25/25/7 26/26/8 27/27/9 28/28/10
f 29/29/11 30/30/12 31/31/13 32/32/14
f 33/33/15 34/34/16 35/35/17 36/36/18
f 37/37/19 38/38/20 39/39/21 40/40/22
f 41/41/23 42/42/24 43/43/25 44/44/26
f 45/45/27 46/46/28 47/47/29 48/48/30
f 49/49/31 50/50/32 51/51/33 52/52/34
f 53/53/35 54/54/36 55/55/37 56/56/38
f 57/57/39 58/58/40 59/59/41 60/60/42
f 61/61/43 62/62/44 63/63/45 64/64/46
f 65/65/47 66/66/48 67/67/49 68/68/50
f 69/69/51 70/70/52 71/71/53 72/72/54
f 73/73/55 74/74/56 75/75/57 76/76/58
f 77/77/59 78/78/60 79/79/61 80/80/62
f 81/81/63 82/82/64 83/83/65 84/84/66
f 85/85/67 86/86/68 87/87/69 88/88/70
f 89/89/71 90/90/72 91/91/73 92/92/74
f 93/93/75 94/94/76 95/95/77 96/96/78
f 97/97/79 98/98/80 99/99/81 100/100/82
f 101/101/83 102/102/84 103/103/85 104/104/86
f 105/105/87 106/106/88 107/107/89 108/108/90
f 109/109/91 110/110/92 111/111/93 112/112/94
f 113/113/95 114/114/96 115/115/97 116/116/98
f 117/117/99 118/118/100 119/119/101 120/120/102
f 121/121/103 122/122/104 123/123/105 124/124/106
f 125/125/107 126/126/108 127/127/109 128/128/110
f 129/129/111 130/130/112 131/131/113 132/132/114
f 133/133/115 134/134/116 135/135/117 136/136/118
f 137/137/119 138/138/120 139/139/121 140/140/122
f 141/141/123 142/142/124 143/143/125 144/144/126
f 145/145/127 146/146/128 147/147/129 148/148/130
f 149/149/131 150/150/132 151/151/133 152/152/134
f 153/153/135 154/154/136 155/155/137 156/156/138
f 157/157/139 158/158/140 159/159/141 160/160/142
f 161/161/143 162/162/144 163/163/145 164/164/146
f 165/165/147 166/166/148 167/167/149 168/168/150
f 169/169/151 170/170/152 171/171/153 172/172/154
f 173/173/155 174/174/156 175/175/157 176/176/158
f 177/177/159 178/178/160 179/179/161 180/180/162
f 181/181/163 182/182/164 183/183/165 184/184/166
f 185/185/167 186/186/168 187/187/169 188/188/170
f 189/189/171 190/190/172 191/191/173 192/192/174
f 193/193/175 194/194/176 195/195/177 196/196/178
f 197/197/179 198/198/180 199/199/181 200/200/182
f 201/201/183 202/202/184 203/203/185 204/204/186
f 205/205/187 206/206/188 207/207/189 208/208/190
f 209/209/191 210/210/192 211/211/193 212/212/194
f 213/213/195 214/214/196 215/215/197 216/216/198
f 217/217/199 218/218/200 219/219/201 220/220/202
f 221/221/203 222/222/204 223/223/205 224/224/206
f 225/225/207 226/226/208 227/227/209 228/228/210
f 229/229/211 230/230/212 231/231/213 232/232/214
f 233/233/215 234/234/216 235/235/217 236/236/218
f 237/237/219 238/238/220 239/239/221 240/240/222
f 241/241/223 242/242/224 243/243/225 244/244/226
f 245/245/227 246/246/228 247/247/229 248/248/230
f 249/249/231 250/250/232 251/251/233 252/252/234
f 253/253/235 254/254/236 255/255/237 256/256/238
f 257/257/239 258/258/240 259/259/241 260/260/242
f 261/261/243 262/262/244 263/263/245 264/264/246
f 265/265/247 266/266/248 267/267/249 268/268/250
f 269/269/251 270/270/252 271/271/253 272/272/254
f 273/273/255 274/274/256 275/275/257 276/276/258
f 277/277/259 278/278/260 279/279/261 280/280/262
f 281/281/263 282/282/263 283/283/263 284/284/263 285/285/263 286/286/263 287/287/263 288/288/263 289/289/263 290/290/263 291/291/263 292/292/263 293/293/263 294/294/263 295/295/263 296/296/263
usemtl rubber
f 297/297/264 298/298/265 299/299/266 300/300/267
f 301/301/268 302/302/269 303/303/270 304/304/271
f 305/305/272 306/306/273 307/307/274 308/308/275
f 309/309/276 310/310/277 311/311/278 312/312/279
f 313/313/280 314/314/281 315/315/282 316/316/283
f 317/317/284 318/318/285 319/319/286 320/320/287
f 321/321/288 322/322/289 323/323/290 324/324/291
f 325/325/292 326/326/293 327/327/294 328/328/295
f 329/329/296 330/330/297 331/331/298 332/332/299
f 333/333/300 334/334/301 335/335/302 336/336/303
f 337/337/304 338/338/305 339/339/306 340/340/307
f 341/341/308 342/342/309 343/343/310 344/344/311
f 345/345/312 346/346/313 347/347/314 348/348/315
f 349/349/316 350/350/317 351/351/318 352/352/319
f 353/353/320 354/354/321 355/355/322 356/356/323
f 357/357/324 358/358/325 359/359/326 360/360/327
