# generated by meshlib
mtllib stairs.mtl
o stairs
v 1.60000 0.00000 0.30000
v 1.60000 0.00000 0.00000
v 1.60000 0.17500 0.00000
v 1.60000 0.17500 0.30000
v -1.60000 0.00000 0.00000
v -1.60000 0.00000 0.30000
v -1.60000 0.17500 0.30000
v -1.60000 0.17500 0.00000
v -1.60000 0.17500 0.30000
v 1.60000 0.17500 0.30000
v 1.60000 0.17500 0.00000
v -1.60000 0.17500 0.00000
v -1.60000 0.00000 0.00000
v 1.60000 0.00000 0.00000
v 1.60000 0.00000 0.30000
v -1.60000 0.00000 0.30000
v -1.60000 0.00000 0.30000
v 1.60000 0.00000 0.30000
v 1.60000 0.17500 0.30000
v -1.60000 0.17500 0.30000
v 1.60000 0.00000 0.00000
v -1.60000 0.00000 0.00000
v -1.60000 0.17500 0.00000
v 1.60000 0.17500 0.00000
v 1.60000 0.15700 0.06000
v 1.60000 0.15700 0.00000
v 1.60000 0.17700 0.00000
v 1.60000 0.17700 0.06000
v -1.60000 0.15700 0.00000
v -1.60000 0.15700 0.06000
v -1.60000 0.17700 0.06000
v -1.60000 0.17700 0.00000
v -1.60000 0.17700 0.06000
v 1.60000 0.17700 0.06000
v 1.60000 0.17700 0.00000
v -1.60000 0.17700 0.00000
v -1.60000 0.15700 0.00000
v 1.60000 0.15700 0.00000
v 1.60000 0.15700 0.06000
v -1.60000 0.15700 0.06000
v -1.60000 0.15700 0.06000
v 1.60000 0.15700 0.06000
v 1.60000 0.17700 0.06000
v -1.60000 0.17700 0.06000
v 1.60000 0.15700 0.00000
v -1.60000 0.15700 0.00000
v -1.60000 0.17700 0.00000
v 1.60000 0.17700 0.00000
v 1.60000 0.17500 0.60000
v 1.60000 0.17500 0.30000
v 1.60000 0.35000 0.30000
v 1.60000 0.35000 0.60000
v -1.60000 0.17500 0.30000
v -1.60000 0.17500 0.60000
v -1.60000 0.35000 0.60000
v -1.60000 0.35000 0.30000
v -1.60000 0.35000 0.60000
v 1.60000 0.35000 0.60000
v 1.60000 0.35000 0.30000
v -1.60000 0.35000 0.30000
v -1.60000 0.17500 0.30000
v 1.60000 0.17500 0.30000
v 1.60000 0.17500 0.60000
v -1.60000 0.17500 0.60000
v -1.60000 0.17500 0.60000
v 1.60000 0.17500 0.60000
v 1.60000 0.35000 0.60000
v -1.60000 0.35000 0.60000
v 1.60000 0.17500 0.30000
v -1.60000 0.17500 0.30000
v -1.60000 0.35000 0.30000
v 1.60000 0.35000 0.30000
v 1.60000 0.33200 0.36000
v 1.60000 0.33200 0.30000
v 1.60000 0.35200 0.30000
v 1.60000 0.35200 0.36000
v -1.60000 0.33200 0.30000
v -1.60000 0.33200 0.36000
v -1.60000 0.35200 0.36000
v -1.60000 0.35200 0.30000
v -1.60000 0.35200 0.36000
v 1.60000 0.35200 0.36000
v 1.60000 0.35200 0.30000
v -1.60000 0.35200 0.30000
v -1.60000 0.33200 0.30000
v 1.60000 0.33200 0.30000
v 1.60000 0.33200 0.36000
v -1.60000 0.33200 0.36000
v -1.60000 0.33200 0.36000
v 1.60000 0.33200 0.36000
v 1.60000 0.35200 0.36000
v -1.60000 0.35200 0.36000
v 1.60000 0.33200 0.30000
v -1.60000 0.33200 0.30000
v -1.60000 0.35200 0.30000
v 1.60000 0.35200 0.30000
v 1.60000 0.35000 0.90000
v 1.60000 0.35000 0.60000
v 1.60000 0.52500 0.60000
v 1.60000 0.52500 0.90000
v -1.60000 0.35000 0.60000
v -1.60000 0.35000 0.90000
v -1.60000 0.52500 0.90000
v -1.60000 0.52500 0.60000
v -1.60000 0.52500 0.90000
v 1.60000 0.52500 0.90000
v 1.60000 0.52500 0.60000
v -1.60000 0.52500 0.60000
v -1.60000 0.35000 0.60000
v 1.60000 0.35000 0.60000
v 1.60000 0.35000 0.90000
v -1.60000 0.35000 0.90000
v -1.60000 0.35000 0.90000
v 1.60000 0.35000 0.90000
v 1.60000 0.52500 0.90000
v -1.60000 0.52500 0.90000
v 1.60000 0.35000 0.60000
v -1.60000 0.35000 0.60000
v -1.60000 0.52500 0.60000
v 1.60000 0.52500 0.60000
v 1.60000 0.50700 0.66000
v 1.60000 0.50700 0.60000
v 1.60000 0.52700 0.60000
v 1.60000 0.52700 0.66000
v -1.60000 0.50700 0.60000
v -1.60000 0.50700 0.66000
v -1.60000 0.52700 0.66000
v -1.60000 0.52700 0.60000
v -1.60000 0.52700 0.66000
v 1.60000 0.52700 0.66000
v 1.60000 0.52700 0.60000
v -1.60000 0.52700 0.60000
v -1.60000 0.50700 0.60000
v 1.60000 0.50700 0.60000
v 1.60000 0.50700 0.66000
v -1.60000 0.50700 0.66000
v -1.60000 0.50700 0.66000
v 1.60000 0.50700 0.66000
v 1.60000 0.52700 0.66000
v -1.60000 0.52700 0.66000
v 1.60000 0.50700 0.60000
v -1.60000 0.50700 0.60000
v -1.60000 0.52700 0.60000
v 1.60000 0.52700 0.60000
v 1.60000 0.52500 1.20000
v 1.60000 0.52500 0.90000
v 1.60000 0.70000 0.90000
v 1.60000 0.70000 1.20000
v -1.60000 0.52500 0.90000
v -1.60000 0.52500 1.20000
v -1.60000 0.70000 1.20000
v -1.60000 0.70000 0.90000
v -1.60000 0.70000 1.20000
v 1.60000 0.70000 1.20000
v 1.60000 0.70000 0.90000
v -1.60000 0.70000 0.90000
v -1.60000 0.52500 0.90000
v 1.60000 0.52500 0.90000
v 1.60000 0.52500 1.20000
v -1.60000 0.52500 1.20000
v -1.60000 0.52500 1.20000
v 1.60000 0.52500 1.20000
v 1.60000 0.70000 1.20000
v -1.60000 0.70000 1.20000
v 1.60000 0.52500 0.90000
v -1.60000 0.52500 0.90000
v -1.60000 0.70000 0.90000
v 1.60000 0.70000 0.90000
v 1.60000 0.68200 0.96000
v 1.60000 0.68200 0.90000
v 1.60000 0.70200 0.90000
v 1.60000 0.70200 0.96000
v -1.60000 0.68200 0.90000
v -1.60000 0.68200 0.96000
v -1.60000 0.70200 0.96000
v -1.60000 0.70200 0.90000
v -1.60000 0.70200 0.96000
v 1.60000 0.70200 0.96000
v 1.60000 0.70200 0.90000
v -1.60000 0.70200 0.90000
v -1.60000 0.68200 0.90000
v 1.60000 0.68200 0.90000
v 1.60000 0.68200 0.96000
v -1.60000 0.68200 0.96000
v -1.60000 0.68200 0.96000
v 1.60000 0.68200 0.96000
v 1.60000 0.70200 0.96000
v -1.60000 0.70200 0.96000
v 1.60000 0.68200 0.90000
v -1.60000 0.68200 0.90000
v -1.60000 0.70200 0.90000
v 1.60000 0.70200 0.90000
v 1.60000 0.70000 1.50000
v 1.60000 0.70000 1.20000
v 1.60000 0.87500 1.20000
v 1.60000 0.87500 1.50000
v -1.60000 0.70000 1.20000
v -1.60000 0.70000 1.50000
v -1.60000 0.87500 1.50000
v -1.60000 0.87500 1.20000
v -1.60000 0.87500 1.50000
v 1.60000 0.87500 1.50000
v 1.60000 0.87500 1.20000
v -1.60000 0.87500 1.20000
v -1.60000 0.70000 1.20000
v 1.60000 0.70000 1.20000
v 1.60000 0.70000 1.50000
v -1.60000 0.70000 1.50000
v -1.60000 0.70000 1.50000
v 1.60000 0.70000 1.50000
v 1.60000 0.87500 1.50000
v -1.60000 0.87500 1.50000
v 1.60000 0.70000 1.20000
v -1.60000 0.70000 1.20000
v -1.60000 0.87500 1.20000
v 1.60000 0.87500 1.20000
v 1.60000 0.85700 1.26000
v 1.60000 0.85700 1.20000
v 1.60000 0.87700 1.20000
v 1.60000 0.87700 1.26000
v -1.60000 0.85700 1.20000
v -1.60000 0.85700 1.26000
v -1.60000 0.87700 1.26000
v -1.60000 0.87700 1.20000
v -1.60000 0.87700 1.26000
v 1.60000 0.87700 1.26000
v 1.60000 0.87700 1.20000
v -1.60000 0.87700 1.20000
v -1.60000 0.85700 1.20000
v 1.60000 0.85700 1.20000
v 1.60000 0.85700 1.26000
v -1.60000 0.85700 1.26000
v -1.60000 0.85700 1.26000
v 1.60000 0.85700 1.26000
v 1.60000 0.87700 1.26000
v -1.60000 0.87700 1.26000
v 1.60000 0.85700 1.20000
v -1.60000 0.85700 1.20000
v -1.60000 0.87700 1.20000
v 1.60000 0.87700 1.20000
v 1.60000 0.87500 1.80000
v 1.60000 0.87500 1.50000
v 1.60000 1.05000 1.50000
v 1.60000 1.05000 1.80000
v -1.60000 0.87500 1.50000
v -1.60000 0.87500 1.80000
v -1.60000 1.05000 1.80000
v -1.60000 1.05000 1.50000
v -1.60000 1.05000 1.80000
v 1.60000 1.05000 1.80000
v 1.60000 1.05000 1.50000
v -1.60000 1.05000 1.50000
v -1.60000 0.87500 1.50000
v 1.60000 0.87500 1.50000
v 1.60000 0.87500 1.80000
v -1.60000 0.87500 1.80000
v -1.60000 0.87500 1.80000
v 1.60000 0.87500 1.80000
v 1.60000 1.05000 1.80000
v -1.60000 1.05000 1.80000
v 1.60000 0.87500 1.50000
v -1.60000 0.87500 1.50000
v -1.60000 1.05000 1.50000
v 1.60000 1.05000 1.50000
v 1.60000 1.03200 1.56000
v 1.60000 1.03200 1.50000
v 1.60000 1.05200 1.50000
v 1.60000 1.05200 1.56000
v -1.60000 1.03200 1.50000
v -1.60000 1.03200 1.56000
v -1.60000 1.05200 1.56000
v -1.60000 1.05200 1.50000
v -1.60000 1.05200 1.56000
v 1.60000 1.05200 1.56000
v 1.60000 1.05200 1.50000
v -1.60000 1.05200 1.50000
v -1.60000 1.03200 1.50000
v 1.60000 1.03200 1.50000
v 1.60000 1.03200 1.56000
v -1.60000 1.03200 1.56000
v -1.60000 1.03200 1.56000
v 1.60000 1.03200 1.56000
v 1.60000 1.05200 1.56000
v -1.60000 1.05200 1.56000
v 1.60000 1.03200 1.50000
v -1.60000 1.03200 1.50000
v -1.60000 1.05200 1.50000
v 1.60000 1.05200 1.50000
v 1.60000 1.05000 2.10000
v 1.60000 1.05000 1.80000
v 1.60000 1.22500 1.80000
v 1.60000 1.22500 2.10000
v -1.60000 1.05000 1.80000
v -1.60000 1.05000 2.10000
v -1.60000 1.22500 2.10000
v -1.60000 1.22500 1.80000
v -1.60000 1.22500 2.10000
v 1.60000 1.22500 2.10000
v 1.60000 1.22500 1.80000
v -1.60000 1.22500 1.80000
v -1.60000 1.05000 1.80000
v 1.60000 1.05000 1.80000
v 1.60000 1.05000 2.10000
v -1.60000 1.05000 2.10000
v -1.60000 1.05000 2.10000
v 1.60000 1.05000 2.10000
v 1.60000 1.22500 2.10000
v -1.60000 1.22500 2.10000
v 1.60000 1.05000 1.80000
v -1.60000 1.05000 1.80000
v -1.60000 1.22500 1.80000
v 1.60000 1.22500 1.80000
v 1.60000 1.20700 1.86000
v 1.60000 1.20700 1.80000
v 1.60000 1.22700 1.80000
v 1.60000 1.22700 1.86000
v -1.60000 1.20700 1.80000
v -1.60000 1.20700 1.86000
v -1.60000 1.22700 1.86000
v -1.60000 1.22700 1.80000
v -1.60000 1.22700 1.86000
v 1.60000 1.22700 1.86000
v 1.60000 1.22700 1.80000
v -1.60000 1.22700 1.80000
v -1.60000 1.20700 1.80000
v 1.60000 1.20700 1.80000
v 1.60000 1.20700 1.86000
v -1.60000 1.20700 1.86000
v -1.60000 1.20700 1.86000
v 1.60000 1.20700 1.86000
v 1.60000 1.22700 1.86000
v -1.60000 1.22700 1.86000
v 1.60000 1.20700 1.80000
v -1.60000 1.20700 1.80000
v -1.60000 1.22700 1.80000
v 1.60000 1.22700 1.80000
v 1.60000 1.22500 2.40000
v 1.60000 1.22500 2.10000
v 1.60000 1.40000 2.10000
v 1.60000 1.40000 2.40000
v -1.60000 1.22500 2.10000
v -1.60000 1.22500 2.40000
v -1.60000 1.40000 2.40000
v -1.60000 1.40000 2.10000
v -1.60000 1.40000 2.40000
v 1.60000 1.40000 2.40000
v 1.60000 1.40000 2.10000
v -1.60000 1.40000 2.10000
v -1.60000 1.22500 2.10000
v 1.60000 1.22500 2.10000
v 1.60000 1.22500 2.40000
v -1.60000 1.22500 2.40000
v -1.60000 1.22500 2.40000
v 1.60000 1.22500 2.40000
v 1.60000 1.40000 2.40000
v -1.60000 1.40000 2.40000
v 1.60000 1.22500 2.10000
v -1.60000 1.22500 2.10000
v -1.60000 1.40000 2.10000
v 1.60000 1.40000 2.10000
v 1.60000 1.38200 2.16000
v 1.60000 1.38200 2.10000
v 1.60000 1.40200 2.10000
v 1.60000 1.40200 2.16000
v -1.60000 1.38200 2.10000
v -1.60000 1.38200 2.16000
v -1.60000 1.40200 2.16000
v -1.60000 1.40200 2.10000
v -1.60000 1.40200 2.16000
v 1.60000 1.40200 2.16000
v 1.60000 1.40200 2.10000
v -1.60000 1.40200 2.10000
v -1.60000 1.38200 2.10000
v 1.60000 1.38200 2.10000
v 1.60000 1.38200 2.16000
v -1.60000 1.38200 2.16000
v -1.60000 1.38200 2.16000
v 1.60000 1.38200 2.16000
v 1.60000 1.40200 2.16000
v -1.60000 1.40200 2.16000
v 1.60000 1.38200 2.10000
v -1.60000 1.38200 2.10000
v -1.60000 1.40200 2.10000
v 1.60000 1.40200 2.10000
v 1.60000 1.40000 2.70000
v 1.60000 1.40000 2.40000
v 1.60000 1.57500 2.40000
v 1.60000 1.57500 2.70000
v -1.60000 1.40000 2.40000
v -1.60000 1.40000 2.70000
v -1.60000 1.57500 2.70000
v -1.60000 1.57500 2.40000
v -1.60000 1.57500 2.70000
v 1.60000 1.57500 2.70000
v 1.60000 1.57500 2.40000
v -1.60000 1.57500 2.40000
v -1.60000 1.40000 2.40000
v 1.60000 1.40000 2.40000
v 1.60000 1.40000 2.70000
v -1.60000 1.40000 2.70000
v -1.60000 1.40000 2.70000
v 1.60000 1.40000 2.70000
v 1.60000 1.57500 2.70000
v -1.60000 1.57500 2.70000
v 1.60000 1.40000 2.40000
v -1.60000 1.40000 2.40000
v -1.60000 1.57500 2.40000
v 1.60000 1.57500 2.40000
v 1.60000 1.55700 2.46000
v 1.60000 1.55700 2.40000
v 1.60000 1.57700 2.40000
v 1.60000 1.57700 2.46000
v -1.60000 1.55700 2.40000
v -1.60000 1.55700 2.46000
v -1.60000 1.57700 2.46000
v -1.60000 1.57700 2.40000
v -1.60000 1.57700 2.46000
v 1.60000 1.57700 2.46000
v 1.60000 1.57700 2.40000
v -1.60000 1.57700 2.40000
v -1.60000 1.55700 2.40000
v 1.60000 1.55700 2.40000
v 1.60000 1.55700 2.46000
v -1.60000 1.55700 2.46000
v -1.60000 1.55700 2.46000
v 1.60000 1.55700 2.46000
v 1.60000 1.57700 2.46000
v -1.60000 1.57700 2.46000
v 1.60000 1.55700 2.40000
v -1.60000 1.55700 2.40000
v -1.60000 1.57700 2.40000
v 1.60000 1.57700 2.40000
v 1.60000 1.57500 3.00000
v 1.60000 1.57500 2.70000
v 1.60000 1.75000 2.70000
v 1.60000 1.75000 3.00000
v -1.60000 1.57500 2.70000
v -1.60000 1.57500 3.00000
v -1.60000 1.75000 3.00000
v -1.60000 1.75000 2.70000
v -1.60000 1.75000 3.00000
v 1.60000 1.75000 3.00000
v 1.60000 1.75000 2.70000
v -1.60000 1.75000 2.70000
v -1.60000 1.57500 2.70000
v 1.60000 1.57500 2.70000
v 1.60000 1.57500 3.00000
v -1.60000 1.57500 3.00000
v -1.60000 1.57500 3.00000
v 1.60000 1.57500 3.00000
v 1.60000 1.75000 3.00000
v -1.60000 1.75000 3.00000
v 1.60000 1.57500 2.70000
v -1.60000 1.57500 2.70000
v -1.60000 1.75000 2.70000
v 1.60000 1.75000 2.70000
v 1.60000 1.73200 2.76000
v 1.60000 1.73200 2.70000
v 1.60000 1.75200 2.70000
v 1.60000 1.75200 2.76000
v -1.60000 1.73200 2.70000
v -1.60000 1.73200 2.76000
v -1.60000 1.75200 2.76000
v -1.60000 1.75200 2.70000
v -1.60000 1.75200 2.76000
v 1.60000 1.75200 2.76000
v 1.60000 1.75200 2.70000
v -1.60000 1.75200 2.70000
v -1.60000 1.73200 2.70000
v 1.60000 1.73200 2.70000
v 1.60000 1.73200 2.76000
v -1.60000 1.73200 2.76000
v -1.60000 1.73200 2.76000
v 1.60000 1.73200 2.76000
v 1.60000 1.75200 2.76000
v -1.60000 1.75200 2.76000
v 1.60000 1.73200 2.70000
v -1.60000 1.73200 2.70000
v -1.60000 1.75200 2.70000
v 1.60000 1.75200 2.70000
v 1.60000 1.75000 3.30000
v 1.60000 1.75000 3.00000
v 1.60000 1.92500 3.00000
v 1.60000 1.92500 3.30000
v -1.60000 1.75000 3.00000
v -1.60000 1.75000 3.30000
v -1.60000 1.92500 3.30000
v -1.60000 1.92500 3.00000
v -1.60000 1.92500 3.30000
v 1.60000 1.92500 3.30000
v 1.60000 1.92500 3.00000
v -1.60000 1.92500 3.00000
v -1.60000 1.75000 3.00000
v 1.60000 1.75000 3.00000
v 1.60000 1.75000 3.30000
v -1.60000 1.75000 3.30000
v -1.60000 1.75000 3.30000
v 1.60000 1.75000 3.30000
v 1.60000 1.92500 3.30000
v -1.60000 1.92500 3.30000
v 1.60000 1.75000 3.00000
v -1.60000 1.75000 3.00000
v -1.60000 1.92500 3.00000
v 1.60000 1.92500 3.00000
v 1.60000 1.90700 3.06000
v 1.60000 1.90700 3.00000
v 1.60000 1.92700 3.00000
v 1.60000 1.92700 3.06000
v -1.60000 1.90700 3.00000
v -1.60000 1.90700 3.06000
v -1.60000 1.92700 3.06000
v -1.60000 1.92700 3.00000
v -1.60000 1.92700 3.06000
v 1.60000 1.92700 3.06000
v 1.60000 1.92700 3.00000
v -1.60000 1.92700 3.00000
v -1.60000 1.90700 3.00000
v 1.60000 1.90700 3.00000
v 1.60000 1.90700 3.06000
v -1.60000 1.90700 3.06000
v -1.60000 1.90700 3.06000
v 1.60000 1.90700 3.06000
v 1.60000 1.92700 3.06000
v -1.60000 1.92700 3.06000
v 1.60000 1.90700 3.00000
v -1.60000 1.90700 3.00000
v -1.60000 1.92700 3.00000
v 1.60000 1.92700 3.00000
v 1.60000 1.92500 3.60000
v 1.60000 1.92500 3.30000
v 1.60000 2.10000 3.30000
v 1.60000 2.10000 3.60000
v -1.60000 1.92500 3.30000
v -1.60000 1.92500 3.60000
v -1.60000 2.10000 3.60000
v -1.60000 2.10000 3.30000
v -1.60000 2.10000 3.60000
v 1.60000 2.10000 3.60000
v 1.60000 2.10000 3.30000
v -1.60000 2.10000 3.30000
v -1.60000 1.92500 3.30000
v 1.60000 1.92500 3.30000
v 1.60000 1.92500 3.60000
v -1.60000 1.92500 3.60000
v -1.60000 1.92500 3.60000
v 1.60000 1.92500 3.60000
v 1.60000 2.10000 3.60000
v -1.60000 2.10000 3.60000
v 1.60000 1.92500 3.30000
v -1.60000 1.92500 3.30000
v -1.60000 2.10000 3.30000
v 1.60000 2.10000 3.30000
v 1.60000 2.08200 3.36000
v 1.60000 2.08200 3.30000
v 1.60000 2.10200 3.30000
v 1.60000 2.10200 3.36000
v -1.60000 2.08200 3.30000
v -1.60000 2.08200 3.36000
v -1.60000 2.10200 3.36000
v -1.60000 2.10200 3.30000
v -1.60000 2.10200 3.36000
v 1.60000 2.10200 3.36000
v 1.60000 2.10200 3.30000
v -1.60000 2.10200 3.30000
v -1.60000 2.08200 3.30000
v 1.60000 2.08200 3.30000
v 1.60000 2.08200 3.36000
v -1.60000 2.08200 3.36000
v -1.60000 2.08200 3.36000
v 1.60000 2.08200 3.36000
v 1.60000 2.10200 3.36000
v -1.60000 2.10200 3.36000
v 1.60000 2.08200 3.30000
v -1.60000 2.08200 3.30000
v -1.60000 2.10200 3.30000
v 1.60000 2.10200 3.30000
v 1.60000 2.10000 3.90000
v 1.60000 2.10000 3.60000
v 1.60000 2.27500 3.60000
v 1.60000 2.27500 3.90000
v -1.60000 2.10000 3.60000
v -1.60000 2.10000 3.90000
v -1.60000 2.27500 3.90000
v -1.60000 2.27500 3.60000
v -1.60000 2.27500 3.90000
v 1.60000 2.27500 3.90000
v 1.60000 2.27500 3.60000
v -1.60000 2.27500 3.60000
v -1.60000 2.10000 3.60000
v 1.60000 2.10000 3.60000
v 1.60000 2.10000 3.90000
v -1.60000 2.10000 3.90000
v -1.60000 2.10000 3.90000
v 1.60000 2.10000 3.90000
v 1.60000 2.27500 3.90000
v -1.60000 2.27500 3.90000
v 1.60000 2.10000 3.60000
v -1.60000 2.10000 3.60000
v -1.60000 2.27500 3.60000
v 1.60000 2.27500 3.60000
v 1.60000 2.25700 3.66000
v 1.60000 2.25700 3.60000
v 1.60000 2.27700 3.60000
v 1.60000 2.27700 3.66000
v -1.60000 2.25700 3.60000
v -1.60000 2.25700 3.66000
v -1.60000 2.27700 3.66000
v -1.60000 2.27700 3.60000
v -1.60000 2.27700 3.66000
v 1.60000 2.27700 3.66000
v 1.60000 2.27700 3.60000
v -1.60000 2.27700 3.60000
v -1.60000 2.25700 3.60000
v 1.60000 2.25700 3.60000
v 1.60000 2.25700 3.66000
v -1.60000 2.25700 3.66000
v -1.60000 2.25700 3.66000
v 1.60000 2.25700 3.66000
v 1.60000 2.27700 3.66000
v -1.60000 2.27700 3.66000
v 1.60000 2.25700 3.60000
v -1.60000 2.25700 3.60000
v -1.60000 2.27700 3.60000
v 1.60000 2.27700 3.60000
v 1.60000 2.27500 4.20000
v 1.60000 2.27500 3.90000
v 1.60000 2.45000 3.90000
v 1.60000 2.45000 4.20000
v -1.60000 2.27500 3.90000
v -1.60000 2.27500 4.20000
v -1.60000 2.45000 4.20000
v -1.60000 2.45000 3.90000
v -1.60000 2.45000 4.20000
v 1.60000 2.45000 4.20000
v 1.60000 2.45000 3.90000
v -1.60000 2.45000 3.90000
v -1.60000 2.27500 3.90000
v 1.60000 2.27500 3.90000
v 1.60000 2.27500 4.20000
v -1.60000 2.27500 4.20000
v -1.60000 2.27500 4.20000
v 1.60000 2.27500 4.20000
v 1.60000 2.45000 4.20000
v -1.60000 2.45000 4.20000
v 1.60000 2.27500 3.90000
v -1.60000 2.27500 3.90000
v -1.60000 2.45000 3.90000
v 1.60000 2.45000 3.90000
v 1.60000 2.43200 3.96000
v 1.60000 2.43200 3.90000
v 1.60000 2.45200 3.90000
v 1.60000 2.45200 3.96000
v -1.60000 2.43200 3.90000
v -1.60000 2.43200 3.96000
v -1.60000 2.45200 3.96000
v -1.60000 2.45200 3.90000
v -1.60000 2.45200 3.96000
v 1.60000 2.45200 3.96000
v 1.60000 2.45200 3.90000
v -1.60000 2.45200 3.90000
v -1.60000 2.43200 3.90000
v 1.60000 2.43200 3.90000
v 1.60000 2.43200 3.96000
v -1.60000 2.43200 3.96000
v -1.60000 2.43200 3.96000
v 1.60000 2.43200 3.96000
v 1.60000 2.45200 3.96000
v -1.60000 2.45200 3.96000
v 1.60000 2.43200 3.90000
v -1.60000 2.43200 3.90000
v -1.60000 2.45200 3.90000
v 1.60000 2.45200 3.90000
v -1.79000 -0.30000 -0.20000
v -1.61000 -0.30000 -0.20000
v -1.61000 2.55000 4.40000
v -1.79000 2.55000 4.40000
v -1.61000 -0.30000 -0.20000
v -1.61000 0.16754 -0.48967
v -1.61000 3.01754 4.11033
v -1.61000 2.55000 4.40000
v -1.61000 0.16754 -0.48967
v -1.79000 0.16754 -0.48967
v -1.79000 3.01754 4.11033
v -1.61000 3.01754 4.11033
v -1.79000 0.16754 -0.48967
v -1.79000 -0.30000 -0.20000
v -1.79000 2.55000 4.40000
v -1.79000 3.01754 4.11033
v -1.79000 0.16754 -0.48967
v -1.61000 0.16754 -0.48967
v -1.61000 -0.30000 -0.20000
v -1.79000 -0.30000 -0.20000
v -1.79000 2.55000 4.40000
v -1.61000 2.55000 4.40000
v -1.61000 3.01754 4.11033
v -1.79000 3.01754 4.11033
v -1.70000 0.00000 0.17200
v -1.68707 0.00000 0.16780
v -1.68707 0.98000 0.16780
v -1.70000 0.98000 0.17200
v -1.68707 0.00000 0.16780
v -1.67908 0.00000 0.15680
v -1.67908 0.98000 0.15680
v -1.68707 0.98000 0.16780
v -1.67908 0.00000 0.15680
v -1.67908 0.00000 0.14320
v -1.67908 0.98000 0.14320
v -1.67908 0.98000 0.15680
v -1.67908 0.00000 0.14320
v -1.68707 0.00000 0.13220
v -1.68707 0.98000 0.13220
v -1.67908 0.98000 0.14320
v -1.68707 0.00000 0.13220
v -1.70000 0.00000 0.12800
v -1.70000 0.98000 0.12800
v -1.68707 0.98000 0.13220
v -1.70000 0.00000 0.12800
v -1.71293 0.00000 0.13220
v -1.71293 0.98000 0.13220
v -1.70000 0.98000 0.12800
v -1.71293 0.00000 0.13220
v -1.72092 0.00000 0.14320
v -1.72092 0.98000 0.14320
v -1.71293 0.98000 0.13220
v -1.72092 0.00000 0.14320
v -1.72092 0.00000 0.15680
v -1.72092 0.98000 0.15680
v -1.72092 0.98000 0.14320
v -1.72092 0.00000 0.15680
v -1.71293 0.00000 0.16780
v -1.71293 0.98000 0.16780
v -1.72092 0.98000 0.15680
v -1.71293 0.00000 0.16780
v -1.70000 0.00000 0.17200
v -1.70000 0.98000 0.17200
v -1.71293 0.98000 0.16780
v -1.71293 0.00000 0.16780
v -1.72092 0.00000 0.15680
v -1.72092 0.00000 0.14320
v -1.71293 0.00000 0.13220
v -1.70000 0.00000 0.12800
v -1.68707 0.00000 0.13220
v -1.67908 0.00000 0.14320
v -1.67908 0.00000 0.15680
v -1.68707 0.00000 0.16780
v -1.70000 0.00000 0.17200
v -1.70000 0.98000 0.17200
v -1.68707 0.98000 0.16780
v -1.67908 0.98000 0.15680
v -1.67908 0.98000 0.14320
v -1.68707 0.98000 0.13220
v -1.70000 0.98000 0.12800
v -1.71293 0.98000 0.13220
v -1.72092 0.98000 0.14320
v -1.72092 0.98000 0.15680
v -1.71293 0.98000 0.16780
v -1.70000 0.70000 1.37200
v -1.68707 0.70000 1.36780
v -1.68707 1.68000 1.36780
v -1.70000 1.68000 1.37200
v -1.68707 0.70000 1.36780
v -1.67908 0.70000 1.35680
v -1.67908 1.68000 1.35680
v -1.68707 1.68000 1.36780
v -1.67908 0.70000 1.35680
v -1.67908 0.70000 1.34320
v -1.67908 1.68000 1.34320
v -1.67908 1.68000 1.35680
v -1.67908 0.70000 1.34320
v -1.68707 0.70000 1.33220
v -1.68707 1.68000 1.33220
v -1.67908 1.68000 1.34320
v -1.68707 0.70000 1.33220
v -1.70000 0.70000 1.32800
v -1.70000 1.68000 1.32800
v -1.68707 1.68000 1.33220
v -1.70000 0.70000 1.32800
v -1.71293 0.70000 1.33220
v -1.71293 1.68000 1.33220
v -1.70000 1.68000 1.32800
v -1.71293 0.70000 1.33220
v -1.72092 0.70000 1.34320
v -1.72092 1.68000 1.34320
v -1.71293 1.68000 1.33220
v -1.72092 0.70000 1.34320
v -1.72092 0.70000 1.35680
v -1.72092 1.68000 1.35680
v -1.72092 1.68000 1.34320
v -1.72092 0.70000 1.35680
v -1.71293 0.70000 1.36780
v -1.71293 1.68000 1.36780
v -1.72092 1.68000 1.35680
v -1.71293 0.70000 1.36780
v -1.70000 0.70000 1.37200
v -1.70000 1.68000 1.37200
v -1.71293 1.68000 1.36780
v -1.71293 0.70000 1.36780
v -1.72092 0.70000 1.35680
v -1.72092 0.70000 1.34320
v -1.71293 0.70000 1.33220
v -1.70000 0.70000 1.32800
v -1.68707 0.70000 1.33220
v -1.67908 0.70000 1.34320
v -1.67908 0.70000 1.35680
v -1.68707 0.70000 1.36780
v -1.70000 0.70000 1.37200
v -1.70000 1.68000 1.37200
v -1.68707 1.68000 1.36780
v -1.67908 1.68000 1.35680
v -1.67908 1.68000 1.34320
v -1.68707 1.68000 1.33220
v -1.70000 1.68000 1.32800
v -1.71293 1.68000 1.33220
v -1.72092 1.68000 1.34320
v -1.72092 1.68000 1.35680
v -1.71293 1.68000 1.36780
v -1.70000 1.40000 2.57200
v -1.68707 1.40000 2.56780
v -1.68707 2.38000 2.56780
v -1.70000 2.38000 2.57200
v -1.68707 1.40000 2.56780
v -1.67908 1.40000 2.55680
v -1.67908 2.38000 2.55680
v -1.68707 2.38000 2.56780
v -1.67908 1.40000 2.55680
v -1.67908 1.40000 2.54320
v -1.67908 2.38000 2.54320
v -1.67908 2.38000 2.55680
v -1.67908 1.40000 2.54320
v -1.68707 1.40000 2.53220
v -1.68707 2.38000 2.53220
v -1.67908 2.38000 2.54320
v -1.68707 1.40000 2.53220
v -1.70000 1.40000 2.52800
v -1.70000 2.38000 2.52800
v -1.68707 2.38000 2.53220
v -1.70000 1.40000 2.52800
v -1.71293 1.40000 2.53220
v -1.71293 2.38000 2.53220
v -1.70000 2.38000 2.52800
v -1.71293 1.40000 2.53220
v -1.72092 1.40000 2.54320
v -1.72092 2.38000 2.54320
v -1.71293 2.38000 2.53220
v -1.72092 1.40000 2.54320
v -1.72092 1.40000 2.55680
v -1.72092 2.38000 2.55680
v -1.72092 2.38000 2.54320
v -1.72092 1.40000 2.55680
v -1.71293 1.40000 2.56780
v -1.71293 2.38000 2.56780
v -1.72092 2.38000 2.55680
v -1.71293 1.40000 2.56780
v -1.70000 1.40000 2.57200
v -1.70000 2.38000 2.57200
v -1.71293 2.38000 2.56780
v -1.71293 1.40000 2.56780
v -1.72092 1.40000 2.55680
v -1.72092 1.40000 2.54320
v -1.71293 1.40000 2.53220
v -1.70000 1.40000 2.52800
v -1.68707 1.40000 2.53220
v -1.67908 1.40000 2.54320
v -1.67908 1.40000 2.55680
v -1.68707 1.40000 2.56780
v -1.70000 1.40000 2.57200
v -1.70000 2.38000 2.57200
v -1.68707 2.38000 2.56780
v -1.67908 2.38000 2.55680
v -1.67908 2.38000 2.54320
v -1.68707 2.38000 2.53220
v -1.70000 2.38000 2.52800
v -1.71293 2.38000 2.53220
v -1.72092 2.38000 2.54320
v -1.72092 2.38000 2.55680
v -1.71293 2.38000 2.56780
v -1.70000 2.10000 3.77200
v -1.68707 2.10000 3.76780
v -1.68707 3.08000 3.76780
v -1.70000 3.08000 3.77200
v -1.68707 2.10000 3.76780
v -1.67908 2.10000 3.75680
v -1.67908 3.08000 3.75680
v -1.68707 3.08000 3.76780
v -1.67908 2.10000 3.75680
v -1.67908 2.10000 3.74320
v -1.67908 3.08000 3.74320
v -1.67908 3.08000 3.75680
v -1.67908 2.10000 3.74320
v -1.68707 2.10000 3.73220
v -1.68707 3.08000 3.73220
v -1.67908 3.08000 3.74320
v -1.68707 2.10000 3.73220
v -1.70000 2.10000 3.72800
v -1.70000 3.08000 3.72800
v -1.68707 3.08000 3.73220
v -1.70000 2.10000 3.72800
v -1.71293 2.10000 3.73220
v -1.71293 3.08000 3.73220
v -1.70000 3.08000 3.72800
v -1.71293 2.10000 3.73220
v -1.72092 2.10000 3.74320
v -1.72092 3.08000 3.74320
v -1.71293 3.08000 3.73220
v -1.72092 2.10000 3.74320
v -1.72092 2.10000 3.75680
v -1.72092 3.08000 3.75680
v -1.72092 3.08000 3.74320
v -1.72092 2.10000 3.75680
v -1.71293 2.10000 3.76780
v -1.71293 3.08000 3.76780
v -1.72092 3.08000 3.75680
v -1.71293 2.10000 3.76780
v -1.70000 2.10000 3.77200
v -1.70000 3.08000 3.77200
v -1.71293 3.08000 3.76780
v -1.71293 2.10000 3.76780
v -1.72092 2.10000 3.75680
v -1.72092 2.10000 3.74320
v -1.71293 2.10000 3.73220
v -1.70000 2.10000 3.72800
v -1.68707 2.10000 3.73220
v -1.67908 2.10000 3.74320
v -1.67908 2.10000 3.75680
v -1.68707 2.10000 3.76780
v -1.70000 2.10000 3.77200
v -1.70000 3.08000 3.77200
v -1.68707 3.08000 3.76780
v -1.67908 3.08000 3.75680
v -1.67908 3.08000 3.74320
v -1.68707 3.08000 3.73220
v -1.70000 3.08000 3.72800
v -1.71293 3.08000 3.73220
v -1.72092 3.08000 3.74320
v -1.72092 3.08000 3.75680
v -1.71293 3.08000 3.76780
v -1.67200 0.98000 0.15000
v -1.67575 0.99209 0.14295
v -1.67575 3.44209 4.34295
v -1.67200 3.43000 4.35000
v -1.67575 0.99209 0.14295
v -1.68600 1.00095 0.13778
v -1.68600 3.45095 4.33778
v -1.67575 3.44209 4.34295
v -1.68600 1.00095 0.13778
v -1.70000 1.00419 0.13589
v -1.70000 3.45419 4.33589
v -1.68600 3.45095 4.33778
v -1.70000 1.00419 0.13589
v -1.71400 1.00095 0.13778
v -1.71400 3.45095 4.33778
v -1.70000 3.45419 4.33589
v -1.71400 1.00095 0.13778
v -1.72425 0.99209 0.14295
v -1.72425 3.44209 4.34295
v -1.71400 3.45095 4.33778
v -1.72425 0.99209 0.14295
v -1.72800 0.98000 0.15000
v -1.72800 3.43000 4.35000
v -1.72425 3.44209 4.34295
v -1.72800 0.98000 0.15000
v -1.72425 0.96791 0.15705
v -1.72425 3.41791 4.35705
v -1.72800 3.43000 4.35000
v -1.72425 0.96791 0.15705
v -1.71400 0.95905 0.16222
v -1.71400 3.40905 4.36222
v -1.72425 3.41791 4.35705
v -1.71400 0.95905 0.16222
v -1.70000 0.95581 0.16411
v -1.70000 3.40581 4.36411
v -1.71400 3.40905 4.36222
v -1.70000 0.95581 0.16411
v -1.68600 0.95905 0.16222
v -1.68600 3.40905 4.36222
v -1.70000 3.40581 4.36411
v -1.68600 0.95905 0.16222
v -1.67575 0.96791 0.15705
v -1.67575 3.41791 4.35705
v -1.68600 3.40905 4.36222
v -1.67575 0.96791 0.15705
v -1.67200 0.98000 0.15000
v -1.67200 3.43000 4.35000
v -1.67575 3.41791 4.35705
v -1.67575 0.96791 0.15705
v -1.68600 0.95905 0.16222
v -1.70000 0.95581 0.16411
v -1.71400 0.95905 0.16222
v -1.72425 0.96791 0.15705
v -1.72800 0.98000 0.15000
v -1.72425 0.99209 0.14295
v -1.71400 1.00095 0.13778
v -1.70000 1.00419 0.13589
v -1.68600 1.00095 0.13778
v -1.67575 0.99209 0.14295
v -1.67200 0.98000 0.15000
v -1.67200 3.43000 4.35000
v -1.67575 3.44209 4.34295
v -1.68600 3.45095 4.33778
v -1.70000 3.45419 4.33589
v -1.71400 3.45095 4.33778
v -1.72425 3.44209 4.34295
v -1.72800 3.43000 4.35000
v -1.72425 3.41791 4.35705
v -1.71400 3.40905 4.36222
v -1.70000 3.40581 4.36411
v -1.68600 3.40905 4.36222
v -1.67575 3.41791 4.35705
v 1.61000 -0.30000 -0.20000
v 1.79000 -0.30000 -0.20000
v 1.79000 2.55000 4.40000
v 1.61000 2.55000 4.40000
v 1.79000 -0.30000 -0.20000
v 1.79000 0.16754 -0.48967
v 1.79000 3.01754 4.11033
v 1.79000 2.55000 4.40000
v 1.79000 0.16754 -0.48967
v 1.61000 0.16754 -0.48967
v 1.61000 3.01754 4.11033
v 1.79000 3.01754 4.11033
v 1.61000 0.16754 -0.48967
v 1.61000 -0.30000 -0.20000
v 1.61000 2.55000 4.40000
v 1.61000 3.01754 4.11033
v 1.61000 0.16754 -0.48967
v 1.79000 0.16754 -0.48967
v 1.79000 -0.30000 -0.20000
v 1.61000 -0.30000 -0.20000
v 1.61000 2.55000 4.40000
v 1.79000 2.55000 4.40000
v 1.79000 3.01754 4.11033
v 1.61000 3.01754 4.11033
v 1.70000 0.00000 0.17200
v 1.71293 0.00000 0.16780
v 1.71293 0.98000 0.16780
v 1.70000 0.98000 0.17200
v 1.71293 0.00000 0.16780
v 1.72092 0.00000 0.15680
v 1.72092 0.98000 0.15680
v 1.71293 0.98000 0.16780
v 1.72092 0.00000 0.15680
v 1.72092 0.00000 0.14320
v 1.72092 0.98000 0.14320
v 1.72092 0.98000 0.15680
v 1.72092 0.00000 0.14320
v 1.71293 0.00000 0.13220
v 1.71293 0.98000 0.13220
v 1.72092 0.98000 0.14320
v 1.71293 0.00000 0.13220
v 1.70000 0.00000 0.12800
v 1.70000 0.98000 0.12800
v 1.71293 0.98000 0.13220
v 1.70000 0.00000 0.12800
v 1.68707 0.00000 0.13220
v 1.68707 0.98000 0.13220
v 1.70000 0.98000 0.12800
v 1.68707 0.00000 0.13220
v 1.67908 0.00000 0.14320
v 1.67908 0.98000 0.14320
v 1.68707 0.98000 0.13220
v 1.67908 0.00000 0.14320
v 1.67908 0.00000 0.15680
v 1.67908 0.98000 0.15680
v 1.67908 0.98000 0.14320
v 1.67908 0.00000 0.15680
v 1.68707 0.00000 0.16780
v 1.68707 0.98000 0.16780
v 1.67908 0.98000 0.15680
v 1.68707 0.00000 0.16780
v 1.70000 0.00000 0.17200
v 1.70000 0.98000 0.17200
v 1.68707 0.98000 0.16780
v 1.68707 0.00000 0.16780
v 1.67908 0.00000 0.15680
v 1.67908 0.00000 0.14320
v 1.68707 0.00000 0.13220
v 1.70000 0.00000 0.12800
v 1.71293 0.00000 0.13220
v 1.72092 0.00000 0.14320
v 1.72092 0.00000 0.15680
v 1.71293 0.00000 0.16780
v 1.70000 0.00000 0.17200
v 1.70000 0.98000 0.17200
v 1.71293 0.98000 0.16780
v 1.72092 0.98000 0.15680
v 1.72092 0.98000 0.14320
v 1.71293 0.98000 0.13220
v 1.70000 0.98000 0.12800
v 1.68707 0.98000 0.13220
v 1.67908 0.98000 0.14320
v 1.67908 0.98000 0.15680
v 1.68707 0.98000 0.16780
v 1.70000 0.70000 1.37200
v 1.71293 0.70000 1.36780
v 1.71293 1.68000 1.36780
v 1.70000 1.68000 1.37200
v 1.71293 0.70000 1.36780
v 1.72092 0.70000 1.35680
v 1.72092 1.68000 1.35680
v 1.71293 1.68000 1.36780
v 1.72092 0.70000 1.35680
v 1.72092 0.70000 1.34320
v 1.72092 1.68000 1.34320
v 1.72092 1.68000 1.35680
v 1.72092 0.70000 1.34320
v 1.71293 0.70000 1.33220
v 1.71293 1.68000 1.33220
v 1.72092 1.68000 1.34320
v 1.71293 0.70000 1.33220
v 1.70000 0.70000 1.32800
v 1.70000 1.68000 1.32800
v 1.71293 1.68000 1.33220
v 1.70000 0.70000 1.32800
v 1.68707 0.70000 1.33220
v 1.68707 1.68000 1.33220
v 1.70000 1.68000 1.32800
v 1.68707 0.70000 1.33220
v 1.67908 0.70000 1.34320
v 1.67908 1.68000 1.34320
v 1.68707 1.68000 1.33220
v 1.67908 0.70000 1.34320
v 1.67908 0.70000 1.35680
v 1.67908 1.68000 1.35680
v 1.67908 1.68000 1.34320
v 1.67908 0.70000 1.35680
v 1.68707 0.70000 1.36780
v 1.68707 1.68000 1.36780
v 1.67908 1.68000 1.35680
v 1.68707 0.70000 1.36780
v 1.70000 0.70000 1.37200
v 1.70000 1.68000 1.37200
v 1.68707 1.68000 1.36780
v 1.68707 0.70000 1.36780
v 1.67908 0.70000 1.35680
v 1.67908 0.70000 1.34320
v 1.68707 0.70000 1.33220
v 1.70000 0.70000 1.32800
v 1.71293 0.70000 1.33220
v 1.72092 0.70000 1.34320
v 1.72092 0.70000 1.35680
v 1.71293 0.70000 1.36780
v 1.70000 0.70000 1.37200
v 1.70000 1.68000 1.37200
v 1.71293 1.68000 1.36780
v 1.72092 1.68000 1.35680
v 1.72092 1.68000 1.34320
v 1.71293 1.68000 1.33220
v 1.70000 1.68000 1.32800
v 1.68707 1.68000 1.33220
v 1.67908 1.68000 1.34320
v 1.67908 1.68000 1.35680
v 1.68707 1.68000 1.36780
v 1.70000 1.40000 2.57200
v 1.71293 1.40000 2.56780
v 1.71293 2.38000 2.56780
v 1.70000 2.38000 2.57200
v 1.71293 1.40000 2.56780
v 1.72092 1.40000 2.55680
v 1.72092 2.38000 2.55680
v 1.71293 2.38000 2.56780
v 1.72092 1.40000 2.55680
v 1.72092 1.40000 2.54320
v 1.72092 2.38000 2.54320
v 1.72092 2.38000 2.55680
v 1.72092 1.40000 2.54320
v 1.71293 1.40000 2.53220
v 1.71293 2.38000 2.53220
v 1.72092 2.38000 2.54320
v 1.71293 1.40000 2.53220
v 1.70000 1.40000 2.52800
v 1.70000 2.38000 2.52800
v 1.71293 2.38000 2.53220
v 1.70000 1.40000 2.52800
v 1.68707 1.40000 2.53220
v 1.68707 2.38000 2.53220
v 1.70000 2.38000 2.52800
v 1.68707 1.40000 2.53220
v 1.67908 1.40000 2.54320
v 1.67908 2.38000 2.54320
v 1.68707 2.38000 2.53220
v 1.67908 1.40000 2.54320
v 1.67908 1.40000 2.55680
v 1.67908 2.38000 2.55680
v 1.67908 2.38000 2.54320
v 1.67908 1.40000 2.55680
v 1.68707 1.40000 2.56780
v 1.68707 2.38000 2.56780
v 1.67908 2.38000 2.55680
v 1.68707 1.40000 2.56780
v 1.70000 1.40000 2.57200
v 1.70000 2.38000 2.57200
v 1.68707 2.38000 2.56780
v 1.68707 1.40000 2.56780
v 1.67908 1.40000 2.55680
v 1.67908 1.40000 2.54320
v 1.68707 1.40000 2.53220
v 1.70000 1.40000 2.52800
v 1.71293 1.40000 2.53220
v 1.72092 1.40000 2.54320
v 1.72092 1.40000 2.55680
v 1.71293 1.40000 2.56780
v 1.70000 1.40000 2.57200
v 1.70000 2.38000 2.57200
v 1.71293 2.38000 2.56780
v 1.72092 2.38000 2.55680
v 1.72092 2.38000 2.54320
v 1.71293 2.38000 2.53220
v 1.70000 2.38000 2.52800
v 1.68707 2.38000 2.53220
v 1.67908 2.38000 2.54320
v 1.67908 2.38000 2.55680
v 1.68707 2.38000 2.56780
v 1.70000 2.10000 3.77200
v 1.71293 2.10000 3.76780
v 1.71293 3.08000 3.76780
v 1.70000 3.08000 3.77200
v 1.71293 2.10000 3.76780
v 1.72092 2.10000 3.75680
v 1.72092 3.08000 3.75680
v 1.71293 3.08000 3.76780
v 1.72092 2.10000 3.75680
v 1.72092 2.10000 3.74320
v 1.72092 3.08000 3.74320
v 1.72092 3.08000 3.75680
v 1.72092 2.10000 3.74320
v 1.71293 2.10000 3.73220
v 1.71293 3.08000 3.73220
v 1.72092 3.08000 3.74320
v 1.71293 2.10000 3.73220
v 1.70000 2.10000 3.72800
v 1.70000 3.08000 3.72800
v 1.71293 3.08000 3.73220
v 1.70000 2.10000 3.72800
v 1.68707 2.10000 3.73220
v 1.68707 3.08000 3.73220
v 1.70000 3.08000 3.72800
v 1.68707 2.10000 3.73220
v 1.67908 2.10000 3.74320
v 1.67908 3.08000 3.74320
v 1.68707 3.08000 3.73220
v 1.67908 2.10000 3.74320
v 1.67908 2.10000 3.75680
v 1.67908 3.08000 3.75680
v 1.67908 3.08000 3.74320
v 1.67908 2.10000 3.75680
v 1.68707 2.10000 3.76780
v 1.68707 3.08000 3.76780
v 1.67908 3.08000 3.75680
v 1.68707 2.10000 3.76780
v 1.70000 2.10000 3.77200
v 1.70000 3.08000 3.77200
v 1.68707 3.08000 3.76780
v 1.68707 2.10000 3.76780
v 1.67908 2.10000 3.75680
v 1.67908 2.10000 3.74320
v 1.68707 2.10000 3.73220
v 1.70000 2.10000 3.72800
v 1.71293 2.10000 3.73220
v 1.72092 2.10000 3.74320
v 1.72092 2.10000 3.75680
v 1.71293 2.10000 3.76780
v 1.70000 2.10000 3.77200
v 1.70000 3.08000 3.77200
v 1.71293 3.08000 3.76780
v 1.72092 3.08000 3.75680
v 1.72092 3.08000 3.74320
v 1.71293 3.08000 3.73220
v 1.70000 3.08000 3.72800
v 1.68707 3.08000 3.73220
v 1.67908 3.08000 3.74320
v 1.67908 3.08000 3.75680
v 1.68707 3.08000 3.76780
v 1.72800 0.98000 0.15000
v 1.72425 0.99209 0.14295
v 1.72425 3.44209 4.34295
v 1.72800 3.43000 4.35000
v 1.72425 0.99209 0.14295
v 1.71400 1.00095 0.13778
v 1.71400 3.45095 4.33778
v 1.72425 3.44209 4.34295
v 1.71400 1.00095 0.13778
v 1.70000 1.00419 0.13589
v 1.70000 3.45419 4.33589
v 1.71400 3.45095 4.33778
v 1.70000 1.00419 0.13589
v 1.68600 1.00095 0.13778
v 1.68600 3.45095 4.33778
v 1.70000 3.45419 4.33589
v 1.68600 1.00095 0.13778
v 1.67575 0.99209 0.14295
v 1.67575 3.44209 4.34295
v 1.68600 3.45095 4.33778
v 1.67575 0.99209 0.14295
v 1.67200 0.98000 0.15000
v 1.67200 3.43000 4.35000
v 1.67575 3.44209 4.34295
v 1.67200 0.98000 0.15000
v 1.67575 0.96791 0.15705
v 1.67575 3.41791 4.35705
v 1.67200 3.43000 4.35000
v 1.67575 0.96791 0.15705
v 1.68600 0.95905 0.16222
v 1.68600 3.40905 4.36222
v 1.67575 3.41791 4.35705
v 1.68600 0.95905 0.16222
v 1.70000 0.95581 0.16411
v 1.70000 3.40581 4.36411
v 1.68600 3.40905 4.36222
v 1.70000 0.95581 0.16411
v 1.71400 0.95905 0.16222
v 1.71400 3.40905 4.36222
v 1.70000 3.40581 4.36411
v 1.71400 0.95905 0.16222
v 1.72425 0.96791 0.15705
v 1.72425 3.41791 4.35705
v 1.71400 3.40905 4.36222
v 1.72425 0.96791 0.15705
v 1.72800 0.98000 0.15000
v 1.72800 3.43000 4.35000
v 1.72425 3.41791 4.35705
v 1.72425 0.96791 0.15705
v 1.71400 0.95905 0.16222
v 1.70000 0.95581 0.16411
v 1.68600 0.95905 0.16222
v 1.67575 0.96791 0.15705
v 1.67200 0.98000 0.15000
v 1.67575 0.99209 0.14295
v 1.68600 1.00095 0.13778
v 1.70000 1.00419 0.13589
v 1.71400 1.00095 0.13778
v 1.72425 0.99209 0.14295
v 1.72800 0.98000 0.15000
v 1.72800 3.43000 4.35000
v 1.72425 3.44209 4.34295
v 1.71400 3.45095 4.33778
v 1.70000 3.45419 4.33589
v 1.68600 3.45095 4.33778
v 1.67575 3.44209 4.34295
v 1.67200 3.43000 4.35000
v 1.67575 3.41791 4.35705
v 1.68600 3.40905 4.36222
v 1.70000 3.40581 4.36411
v 1.71400 3.40905 4.36222
v 1.72425 3.41791 4.35705
v 1.60000 2.25000 6.40000
v 1.60000 2.25000 4.20000
v 1.60000 2.45000 4.20000
v 1.60000 2.45000 6.40000
v -1.60000 2.25000 4.20000
v -1.60000 2.25000 6.40000
v -1.60000 2.45000 6.40000
v -1.60000 2.45000 4.20000
v -1.60000 2.45000 6.40000
v 1.60000 2.45000 6.40000
v 1.60000 2.45000 4.20000
v -1.60000 2.45000 4.20000
v -1.60000 2.25000 4.20000
v 1.60000 2.25000 4.20000
v 1.60000 2.25000 6.40000
v -1.60000 2.25000 6.40000
v -1.60000 2.25000 6.40000
v 1.60000 2.25000 6.40000
v 1.60000 2.45000 6.40000
v -1.60000 2.45000 6.40000
v 1.60000 2.25000 4.20000
v -1.60000 2.25000 4.20000
v -1.60000 2.45000 4.20000
v 1.60000 2.45000 4.20000
vt -0.50000 0.00000
vt 0.00000 0.00000
vt 0.00000 0.29167
vt -0.50000 0.29167
vt 0.00000 0.00000
vt 0.50000 0.00000
vt 0.50000 0.29167
vt 0.00000 0.29167
vt -2.66667 -0.50000
vt 2.66667 -0.50000
vt 2.66667 0.00000
vt -2.66667 0.00000
vt -2.66667 0.00000
vt 2.66667 0.00000
vt 2.66667 0.50000
vt -2.66667 0.50000
vt -2.66667 0.00000
vt 2.66667 0.00000
vt 2.66667 0.29167
vt -2.66667 0.29167
vt -2.66667 0.00000
vt 2.66667 0.00000
vt 2.66667 0.29167
vt -2.66667 0.29167
vt -0.30000 0.78500
vt 0.00000 0.78500
vt 0.00000 0.88500
vt -0.30000 0.88500
vt 0.00000 0.78500
vt 0.30000 0.78500
vt 0.30000 0.88500
vt 0.00000 0.88500
vt -8.00000 -0.30000
vt 8.00000 -0.30000
vt 8.00000 0.00000
vt -8.00000 0.00000
vt -8.00000 0.00000
vt 8.00000 0.00000
vt 8.00000 0.30000
vt -8.00000 0.30000
vt -8.00000 0.78500
vt 8.00000 0.78500
vt 8.00000 0.88500
vt -8.00000 0.88500
vt -8.00000 0.78500
vt 8.00000 0.78500
vt 8.00000 0.88500
vt -8.00000 0.88500
vt -1.00000 0.29167
vt -0.50000 0.29167
vt -0.50000 0.58333
vt -1.00000 0.58333
vt 0.50000 0.29167
vt 1.00000 0.29167
vt 1.00000 0.58333
vt 0.50000 0.58333
vt -2.66667 -1.00000
vt 2.66667 -1.00000
vt 2.66667 -0.50000
vt -2.66667 -0.50000
vt -2.66667 0.50000
vt 2.66667 0.50000
vt 2.66667 1.00000
vt -2.66667 1.00000
vt -2.66667 0.29167
vt 2.66667 0.29167
vt 2.66667 0.58333
vt -2.66667 0.58333
vt -2.66667 0.29167
vt 2.66667 0.29167
vt 2.66667 0.58333
vt -2.66667 0.58333
vt -1.80000 1.66000
vt -1.50000 1.66000
vt -1.50000 1.76000
vt -1.80000 1.76000
vt 1.50000 1.66000
vt 1.80000 1.66000
vt 1.80000 1.76000
vt 1.50000 1.76000
vt -8.00000 -1.80000
vt 8.00000 -1.80000
vt 8.00000 -1.50000
vt -8.00000 -1.50000
vt -8.00000 1.50000
vt 8.00000 1.50000
vt 8.00000 1.80000
vt -8.00000 1.80000
vt -8.00000 1.66000
vt 8.00000 1.66000
vt 8.00000 1.76000
vt -8.00000 1.76000
vt -8.00000 1.66000
vt 8.00000 1.66000
vt 8.00000 1.76000
vt -8.00000 1.76000
vt -1.50000 0.58333
vt -1.00000 0.58333
vt -1.00000 0.87500
vt -1.50000 0.87500
vt 1.00000 0.58333
vt 1.50000 0.58333
vt 1.50000 0.87500
vt 1.00000 0.87500
vt -2.66667 -1.50000
vt 2.66667 -1.50000
vt 2.66667 -1.00000
vt -2.66667 -1.00000
vt -2.66667 1.00000
vt 2.66667 1.00000
vt 2.66667 1.50000
vt -2.66667 1.50000
vt -2.66667 0.58333
vt 2.66667 0.58333
vt 2.66667 0.87500
vt -2.66667 0.87500
vt -2.66667 0.58333
vt 2.66667 0.58333
vt 2.66667 0.87500
vt -2.66667 0.87500
vt -3.30000 2.53500
vt -3.00000 2.53500
vt -3.00000 2.63500
vt -3.30000 2.63500
vt 3.00000 2.53500
vt 3.30000 2.53500
vt 3.30000 2.63500
vt 3.00000 2.63500
vt -8.00000 -3.30000
vt 8.00000 -3.30000
vt 8.00000 -3.00000
vt -8.00000 -3.00000
vt -8.00000 3.00000
vt 8.00000 3.00000
vt 8.00000 3.30000
vt -8.00000 3.30000
vt -8.00000 2.53500
vt 8.00000 2.53500
vt 8.00000 2.63500
vt -8.00000 2.63500
vt -8.00000 2.53500
vt 8.00000 2.53500
vt 8.00000 2.63500
vt -8.00000 2.63500
vt -2.00000 0.87500
vt -1.50000 0.87500
vt -1.50000 1.16667
vt -2.00000 1.16667
vt 1.50000 0.87500
vt 2.00000 0.87500
vt 2.00000 1.16667
vt 1.50000 1.16667
vt -2.66667 -2.00000
vt 2.66667 -2.00000
vt 2.66667 -1.50000
vt -2.66667 -1.50000
vt -2.66667 1.50000
vt 2.66667 1.50000
vt 2.66667 2.00000
vt -2.66667 2.00000
vt -2.66667 0.87500
vt 2.66667 0.87500
vt 2.66667 1.16667
vt -2.66667 1.16667
vt -2.66667 0.87500
vt 2.66667 0.87500
vt 2.66667 1.16667
vt -2.66667 1.16667
vt -4.80000 3.41000
vt -4.50000 3.41000
vt -4.50000 3.51000
vt -4.80000 3.51000
vt 4.50000 3.41000
vt 4.80000 3.41000
vt 4.80000 3.51000
vt 4.50000 3.51000
vt -8.00000 -4.80000
vt 8.00000 -4.80000
vt 8.00000 -4.50000
vt -8.00000 -4.50000
vt -8.00000 4.50000
vt 8.00000 4.50000
vt 8.00000 4.80000
vt -8.00000 4.80000
vt -8.00000 3.41000
vt 8.00000 3.41000
vt 8.00000 3.51000
vt -8.00000 3.51000
vt -8.00000 3.41000
vt 8.00000 3.41000
vt 8.00000 3.51000
vt -8.00000 3.51000
vt -2.50000 1.16667
vt -2.00000 1.16667
vt -2.00000 1.45833
vt -2.50000 1.45833
vt 2.00000 1.16667
vt 2.50000 1.16667
vt 2.50000 1.45833
vt 2.00000 1.45833
vt -2.66667 -2.50000
vt 2.66667 -2.50000
vt 2.66667 -2.00000
vt -2.66667 -2.00000
vt -2.66667 2.00000
vt 2.66667 2.00000
vt 2.66667 2.50000
vt -2.66667 2.50000
vt -2.66667 1.16667
vt 2.66667 1.16667
vt 2.66667 1.45833
vt -2.66667 1.45833
vt -2.66667 1.16667
vt 2.66667 1.16667
vt 2.66667 1.45833
vt -2.66667 1.45833
vt -6.30000 4.28500
vt -6.00000 4.28500
vt -6.00000 4.38500
vt -6.30000 4.38500
vt 6.00000 4.28500
vt 6.30000 4.28500
vt 6.30000 4.38500
vt 6.00000 4.38500
vt -8.00000 -6.30000
vt 8.00000 -6.30000
vt 8.00000 -6.00000
vt -8.00000 -6.00000
vt -8.00000 6.00000
vt 8.00000 6.00000
vt 8.00000 6.30000
vt -8.00000 6.30000
vt -8.00000 4.28500
vt 8.00000 4.28500
vt 8.00000 4.38500
vt -8.00000 4.38500
vt -8.00000 4.28500
vt 8.00000 4.28500
vt 8.00000 4.38500
vt -8.00000 4.38500
vt -3.00000 1.45833
vt -2.50000 1.45833
vt -2.50000 1.75000
vt -3.00000 1.75000
vt 2.50000 1.45833
vt 3.00000 1.45833
vt 3.00000 1.75000
vt 2.50000 1.75000
vt -2.66667 -3.00000
vt 2.66667 -3.00000
vt 2.66667 -2.50000
vt -2.66667 -2.50000
vt -2.66667 2.50000
vt 2.66667 2.50000
vt 2.66667 3.00000
vt -2.66667 3.00000
vt -2.66667 1.45833
vt 2.66667 1.45833
vt 2.66667 1.75000
vt -2.66667 1.75000
vt -2.66667 1.45833
vt 2.66667 1.45833
vt 2.66667 1.75000
vt -2.66667 1.75000
vt -7.80000 5.16000
vt -7.50000 5.16000
vt -7.50000 5.26000
vt -7.80000 5.26000
vt 7.50000 5.16000
vt 7.80000 5.16000
vt 7.80000 5.26000
vt 7.50000 5.26000
vt -8.00000 -7.80000
vt 8.00000 -7.80000
vt 8.00000 -7.50000
vt -8.00000 -7.50000
vt -8.00000 7.50000
vt 8.00000 7.50000
vt 8.00000 7.80000
vt -8.00000 7.80000
vt -8.00000 5.16000
vt 8.00000 5.16000
vt 8.00000 5.26000
vt -8.00000 5.26000
vt -8.00000 5.16000
vt 8.00000 5.16000
vt 8.00000 5.26000
vt -8.00000 5.26000
vt -3.50000 1.75000
vt -3.00000 1.75000
vt -3.00000 2.04167
vt -3.50000 2.04167
vt 3.00000 1.75000
vt 3.50000 1.75000
vt 3.50000 2.04167
vt 3.00000 2.04167
vt -2.66667 -3.50000
vt 2.66667 -3.50000
vt 2.66667 -3.00000
vt -2.66667 -3.00000
vt -2.66667 3.00000
vt 2.66667 3.00000
vt 2.66667 3.50000
vt -2.66667 3.50000
vt -2.66667 1.75000
vt 2.66667 1.75000
vt 2.66667 2.04167
vt -2.66667 2.04167
vt -2.66667 1.75000
vt 2.66667 1.75000
vt 2.66667 2.04167
vt -2.66667 2.04167
vt -9.30000 6.03500
vt -9.00000 6.03500
vt -9.00000 6.13500
vt -9.30000 6.13500
vt 9.00000 6.03500
vt 9.30000 6.03500
vt 9.30000 6.13500
vt 9.00000 6.13500
vt -8.00000 -9.30000
vt 8.00000 -9.30000
vt 8.00000 -9.00000
vt -8.00000 -9.00000
vt -8.00000 9.00000
vt 8.00000 9.00000
vt 8.00000 9.30000
vt -8.00000 9.30000
vt -8.00000 6.03500
vt 8.00000 6.03500
vt 8.00000 6.13500
vt -8.00000 6.13500
vt -8.00000 6.03500
vt 8.00000 6.03500
vt 8.00000 6.13500
vt -8.00000 6.13500
vt -4.00000 2.04167
vt -3.50000 2.04167
vt -3.50000 2.33333
vt -4.00000 2.33333
vt 3.50000 2.04167
vt 4.00000 2.04167
vt 4.00000 2.33333
vt 3.50000 2.33333
vt -2.66667 -4.00000
vt 2.66667 -4.00000
vt 2.66667 -3.50000
vt -2.66667 -3.50000
vt -2.66667 3.50000
vt 2.66667 3.50000
vt 2.66667 4.00000
vt -2.66667 4.00000
vt -2.66667 2.04167
vt 2.66667 2.04167
vt 2.66667 2.33333
vt -2.66667 2.33333
vt -2.66667 2.04167
vt 2.66667 2.04167
vt 2.66667 2.33333
vt -2.66667 2.33333
vt -10.80000 6.91000
vt -10.50000 6.91000
vt -10.50000 7.01000
vt -10.80000 7.01000
vt 10.50000 6.91000
vt 10.80000 6.91000
vt 10.80000 7.01000
vt 10.50000 7.01000
vt -8.00000 -10.80000
vt 8.00000 -10.80000
vt 8.00000 -10.50000
vt -8.00000 -10.50000
vt -8.00000 10.50000
vt 8.00000 10.50000
vt 8.00000 10.80000
vt -8.00000 10.80000
vt -8.00000 6.91000
vt 8.00000 6.91000
vt 8.00000 7.01000
vt -8.00000 7.01000
vt -8.00000 6.91000
vt 8.00000 6.91000
vt 8.00000 7.01000
vt -8.00000 7.01000
vt -4.50000 2.33333
vt -4.00000 2.33333
vt -4.00000 2.62500
vt -4.50000 2.62500
vt 4.00000 2.33333
vt 4.50000 2.33333
vt 4.50000 2.62500
vt 4.00000 2.62500
vt -2.66667 -4.50000
vt 2.66667 -4.50000
vt 2.66667 -4.00000
vt -2.66667 -4.00000
vt -2.66667 4.00000
vt 2.66667 4.00000
vt 2.66667 4.50000
vt -2.66667 4.50000
vt -2.66667 2.33333
vt 2.66667 2.33333
vt 2.66667 2.62500
vt -2.66667 2.62500
vt -2.66667 2.33333
vt 2.66667 2.33333
vt 2.66667 2.62500
vt -2.66667 2.62500
vt -12.30000 7.78500
vt -12.00000 7.78500
vt -12.00000 7.88500
vt -12.30000 7.88500
vt 12.00000 7.78500
vt 12.30000 7.78500
vt 12.30000 7.88500
vt 12.00000 7.88500
vt -8.00000 -12.30000
vt 8.00000 -12.30000
vt 8.00000 -12.00000
vt -8.00000 -12.00000
vt -8.00000 12.00000
vt 8.00000 12.00000
vt 8.00000 12.30000
vt -8.00000 12.30000
vt -8.00000 7.78500
vt 8.00000 7.78500
vt 8.00000 7.88500
vt -8.00000 7.88500
vt -8.00000 7.78500
vt 8.00000 7.78500
vt 8.00000 7.88500
vt -8.00000 7.88500
vt -5.00000 2.62500
vt -4.50000 2.62500
vt -4.50000 2.91667
vt -5.00000 2.91667
vt 4.50000 2.62500
vt 5.00000 2.62500
vt 5.00000 2.91667
vt 4.50000 2.91667
vt -2.66667 -5.00000
vt 2.66667 -5.00000
vt 2.66667 -4.50000
vt -2.66667 -4.50000
vt -2.66667 4.50000
vt 2.66667 4.50000
vt 2.66667 5.00000
vt -2.66667 5.00000
vt -2.66667 2.62500
vt 2.66667 2.62500
vt 2.66667 2.91667
vt -2.66667 2.91667
vt -2.66667 2.62500
vt 2.66667 2.62500
vt 2.66667 2.91667
vt -2.66667 2.91667
vt -13.80000 8.66000
vt -13.50000 8.66000
vt -13.50000 8.76000
vt -13.80000 8.76000
vt 13.50000 8.66000
vt 13.80000 8.66000
vt 13.80000 8.76000
vt 13.50000 8.76000
vt -8.00000 -13.80000
vt 8.00000 -13.80000
vt 8.00000 -13.50000
vt -8.00000 -13.50000
vt -8.00000 13.50000
vt 8.00000 13.50000
vt 8.00000 13.80000
vt -8.00000 13.80000
vt -8.00000 8.66000
vt 8.00000 8.66000
vt 8.00000 8.76000
vt -8.00000 8.76000
vt -8.00000 8.66000
vt 8.00000 8.66000
vt 8.00000 8.76000
vt -8.00000 8.76000
vt -5.50000 2.91667
vt -5.00000 2.91667
vt -5.00000 3.20833
vt -5.50000 3.20833
vt 5.00000 2.91667
vt 5.50000 2.91667
vt 5.50000 3.20833
vt 5.00000 3.20833
vt -2.66667 -5.50000
vt 2.66667 -5.50000
vt 2.66667 -5.00000
vt -2.66667 -5.00000
vt -2.66667 5.00000
vt 2.66667 5.00000
vt 2.66667 5.50000
vt -2.66667 5.50000
vt -2.66667 2.91667
vt 2.66667 2.91667
vt 2.66667 3.20833
vt -2.66667 3.20833
vt -2.66667 2.91667
vt 2.66667 2.91667
vt 2.66667 3.20833
vt -2.66667 3.20833
vt -15.30000 9.53500
vt -15.00000 9.53500
vt -15.00000 9.63500
vt -15.30000 9.63500
vt 15.00000 9.53500
vt 15.30000 9.53500
vt 15.30000 9.63500
vt 15.00000 9.63500
vt -8.00000 -15.30000
vt 8.00000 -15.30000
vt 8.00000 -15.00000
vt -8.00000 -15.00000
vt -8.00000 15.00000
vt 8.00000 15.00000
vt 8.00000 15.30000
vt -8.00000 15.30000
vt -8.00000 9.53500
vt 8.00000 9.53500
vt 8.00000 9.63500
vt -8.00000 9.63500
vt -8.00000 9.53500
vt 8.00000 9.53500
vt 8.00000 9.63500
vt -8.00000 9.63500
vt -6.00000 3.20833
vt -5.50000 3.20833
vt -5.50000 3.50000
vt -6.00000 3.50000
vt 5.50000 3.20833
vt 6.00000 3.20833
vt 6.00000 3.50000
vt 5.50000 3.50000
vt -2.66667 -6.00000
vt 2.66667 -6.00000
vt 2.66667 -5.50000
vt -2.66667 -5.50000
vt -2.66667 5.50000
vt 2.66667 5.50000
vt 2.66667 6.00000
vt -2.66667 6.00000
vt -2.66667 3.20833
vt 2.66667 3.20833
vt 2.66667 3.50000
vt -2.66667 3.50000
vt -2.66667 3.20833
vt 2.66667 3.20833
vt 2.66667 3.50000
vt -2.66667 3.50000
vt -16.80000 10.41000
vt -16.50000 10.41000
vt -16.50000 10.51000
vt -16.80000 10.51000
vt 16.50000 10.41000
vt 16.80000 10.41000
vt 16.80000 10.51000
vt 16.50000 10.51000
vt -8.00000 -16.80000
vt 8.00000 -16.80000
vt 8.00000 -16.50000
vt -8.00000 -16.50000
vt -8.00000 16.50000
vt 8.00000 16.50000
vt 8.00000 16.80000
vt -8.00000 16.80000
vt -8.00000 10.41000
vt 8.00000 10.41000
vt 8.00000 10.51000
vt -8.00000 10.51000
vt -8.00000 10.41000
vt 8.00000 10.41000
vt 8.00000 10.51000
vt -8.00000 10.51000
vt -6.50000 3.50000
vt -6.00000 3.50000
vt -6.00000 3.79167
vt -6.50000 3.79167
vt 6.00000 3.50000
vt 6.50000 3.50000
vt 6.50000 3.79167
vt 6.00000 3.79167
vt -2.66667 -6.50000
vt 2.66667 -6.50000
vt 2.66667 -6.00000
vt -2.66667 -6.00000
vt -2.66667 6.00000
vt 2.66667 6.00000
vt 2.66667 6.50000
vt -2.66667 6.50000
vt -2.66667 3.50000
vt 2.66667 3.50000
vt 2.66667 3.79167
vt -2.66667 3.79167
vt -2.66667 3.50000
vt 2.66667 3.50000
vt 2.66667 3.79167
vt -2.66667 3.79167
vt -18.30000 11.28500
vt -18.00000 11.28500
vt -18.00000 11.38500
vt -18.30000 11.38500
vt 18.00000 11.28500
vt 18.30000 11.28500
vt 18.30000 11.38500
vt 18.00000 11.38500
vt -8.00000 -18.30000
vt 8.00000 -18.30000
vt 8.00000 -18.00000
vt -8.00000 -18.00000
vt -8.00000 18.00000
vt 8.00000 18.00000
vt 8.00000 18.30000
vt -8.00000 18.30000
vt -8.00000 11.28500
vt 8.00000 11.28500
vt 8.00000 11.38500
vt -8.00000 11.38500
vt -8.00000 11.28500
vt 8.00000 11.28500
vt 8.00000 11.38500
vt -8.00000 11.38500
vt -7.00000 3.79167
vt -6.50000 3.79167
vt -6.50000 4.08333
vt -7.00000 4.08333
vt 6.50000 3.79167
vt 7.00000 3.79167
vt 7.00000 4.08333
vt 6.50000 4.08333
vt -2.66667 -7.00000
vt 2.66667 -7.00000
vt 2.66667 -6.50000
vt -2.66667 -6.50000
vt -2.66667 6.50000
vt 2.66667 6.50000
vt 2.66667 7.00000
vt -2.66667 7.00000
vt -2.66667 3.79167
vt 2.66667 3.79167
vt 2.66667 4.08333
vt -2.66667 4.08333
vt -2.66667 3.79167
vt 2.66667 3.79167
vt 2.66667 4.08333
vt -2.66667 4.08333
vt -19.80000 12.16000
vt -19.50000 12.16000
vt -19.50000 12.26000
vt -19.80000 12.26000
vt 19.50000 12.16000
vt 19.80000 12.16000
vt 19.80000 12.26000
vt 19.50000 12.26000
vt -8.00000 -19.80000
vt 8.00000 -19.80000
vt 8.00000 -19.50000
vt -8.00000 -19.50000
vt -8.00000 19.50000
vt 8.00000 19.50000
vt 8.00000 19.80000
vt -8.00000 19.80000
vt -8.00000 12.16000
vt 8.00000 12.16000
vt 8.00000 12.26000
vt -8.00000 12.26000
vt -8.00000 12.16000
vt 8.00000 12.16000
vt 8.00000 12.26000
vt -8.00000 12.26000
vt 0.00000 0.00000
vt 0.30000 0.00000
vt 0.30000 9.01888
vt 0.00000 9.01888
vt 0.30000 0.00000
vt 1.21667 0.00000
vt 1.21667 9.01888
vt 0.30000 9.01888
vt 1.21667 0.00000
vt 1.51667 0.00000
vt 1.51667 9.01888
vt 1.21667 9.01888
vt 1.51667 0.00000
vt 2.43333 0.00000
vt 2.43333 9.01888
vt 1.51667 9.01888
vt -0.15000 0.91667
vt 0.15000 0.91667
vt 0.15000 0.00000
vt -0.15000 0.00000
vt -0.15000 0.00000
vt 0.15000 0.00000
vt 0.15000 0.91667
vt -0.15000 0.91667
vt 0.00000 0.00000
vt 0.06912 0.00000
vt 0.06912 4.90000
vt 0.00000 4.90000
vt 0.06912 0.00000
vt 0.13823 0.00000
vt 0.13823 4.90000
vt 0.06912 4.90000
vt 0.13823 0.00000
vt 0.20735 0.00000
vt 0.20735 4.90000
vt 0.13823 4.90000
vt 0.20735 0.00000
vt 0.27646 0.00000
vt 0.27646 4.90000
vt 0.20735 4.90000
vt 0.27646 0.00000
vt 0.34558 0.00000
vt 0.34558 4.90000
vt 0.27646 4.90000
vt 0.34558 0.00000
vt 0.41469 0.00000
vt 0.41469 4.90000
vt 0.34558 4.90000
vt 0.41469 0.00000
vt 0.48381 0.00000
vt 0.48381 4.90000
vt 0.41469 4.90000
vt 0.48381 0.00000
vt 0.55292 0.00000
vt 0.55292 4.90000
vt 0.48381 4.90000
vt 0.55292 0.00000
vt 0.62204 0.00000
vt 0.62204 4.90000
vt 0.55292 4.90000
vt 0.62204 0.00000
vt 0.69115 0.00000
vt 0.69115 4.90000
vt 0.62204 4.90000
vt 0.08899 -0.06466
vt 0.03399 -0.10462
vt -0.03399 -0.10462
vt -0.08899 -0.06466
vt -0.11000 0.00000
vt -0.08899 0.06466
vt -0.03399 0.10462
vt 0.03399 0.10462
vt 0.08899 0.06466
vt 0.11000 0.00000
vt 0.11000 0.00000
vt 0.08899 0.06466
vt 0.03399 0.10462
vt -0.03399 0.10462
vt -0.08899 0.06466
vt -0.11000 0.00000
vt -0.08899 -0.06466
vt -0.03399 -0.10462
vt 0.03399 -0.10462
vt 0.08899 -0.06466
vt 0.00000 0.00000
vt 0.06912 0.00000
vt 0.06912 4.90000
vt 0.00000 4.90000
vt 0.06912 0.00000
vt 0.13823 0.00000
vt 0.13823 4.90000
vt 0.06912 4.90000
vt 0.13823 0.00000
vt 0.20735 0.00000
vt 0.20735 4.90000
vt 0.13823 4.90000
vt 0.20735 0.00000
vt 0.27646 0.00000
vt 0.27646 4.90000
vt 0.20735 4.90000
vt 0.27646 0.00000
vt 0.34558 0.00000
vt 0.34558 4.90000
vt 0.27646 4.90000
vt 0.34558 0.00000
vt 0.41469 0.00000
vt 0.41469 4.90000
vt 0.34558 4.90000
vt 0.41469 0.00000
vt 0.48381 0.00000
vt 0.48381 4.90000
vt 0.41469 4.90000
vt 0.48381 0.00000
vt 0.55292 0.00000
vt 0.55292 4.90000
vt 0.48381 4.90000
vt 0.55292 0.00000
vt 0.62204 0.00000
vt 0.62204 4.90000
vt 0.55292 4.90000
vt 0.62204 0.00000
vt 0.69115 0.00000
vt 0.69115 4.90000
vt 0.62204 4.90000
vt 0.08899 -0.06466
vt 0.03399 -0.10462
vt -0.03399 -0.10462
vt -0.08899 -0.06466
vt -0.11000 0.00000
vt -0.08899 0.06466
vt -0.03399 0.10462
vt 0.03399 0.10462
vt 0.08899 0.06466
vt 0.11000 0.00000
vt 0.11000 0.00000
vt 0.08899 0.06466
vt 0.03399 0.10462
vt -0.03399 0.10462
vt -0.08899 0.06466
vt -0.11000 0.00000
vt -0.08899 -0.06466
vt -0.03399 -0.10462
vt 0.03399 -0.10462
vt 0.08899 -0.06466
vt 0.00000 0.00000
vt 0.06912 0.00000
vt 0.06912 4.90000
vt 0.00000 4.90000
vt 0.06912 0.00000
vt 0.13823 0.00000
vt 0.13823 4.90000
vt 0.06912 4.90000
vt 0.13823 0.00000
vt 0.20735 0.00000
vt 0.20735 4.90000
vt 0.13823 4.90000
vt 0.20735 0.00000
vt 0.27646 0.00000
vt 0.27646 4.90000
vt 0.20735 4.90000
vt 0.27646 0.00000
vt 0.34558 0.00000
vt 0.34558 4.90000
vt 0.27646 4.90000
vt 0.34558 0.00000
vt 0.41469 0.00000
vt 0.41469 4.90000
vt 0.34558 4.90000
vt 0.41469 0.00000
vt 0.48381 0.00000
vt 0.48381 4.90000
vt 0.41469 4.90000
vt 0.48381 0.00000
vt 0.55292 0.00000
vt 0.55292 4.90000
vt 0.48381 4.90000
vt 0.55292 0.00000
vt 0.62204 0.00000
vt 0.62204 4.90000
vt 0.55292 4.90000
vt 0.62204 0.00000
vt 0.69115 0.00000
vt 0.69115 4.90000
vt 0.62204 4.90000
vt 0.08899 -0.06466
vt 0.03399 -0.10462
vt -0.03399 -0.10462
vt -0.08899 -0.06466
vt -0.11000 0.00000
vt -0.08899 0.06466
vt -0.03399 0.10462
vt 0.03399 0.10462
vt 0.08899 0.06466
vt 0.11000 0.00000
vt 0.11000 0.00000
vt 0.08899 0.06466
vt 0.03399 0.10462
vt -0.03399 0.10462
vt -0.08899 0.06466
vt -0.11000 0.00000
vt -0.08899 -0.06466
vt -0.03399 -0.10462
vt 0.03399 -0.10462
vt 0.08899 -0.06466
vt 0.00000 0.00000
vt 0.06912 0.00000
vt 0.06912 4.90000
vt 0.00000 4.90000
vt 0.06912 0.00000
vt 0.13823 0.00000
vt 0.13823 4.90000
vt 0.06912 4.90000
vt 0.13823 0.00000
vt 0.20735 0.00000
vt 0.20735 4.90000
vt 0.13823 4.90000
vt 0.20735 0.00000
vt 0.27646 0.00000
vt 0.27646 4.90000
vt 0.20735 4.90000
vt 0.27646 0.00000
vt 0.34558 0.00000
vt 0.34558 4.90000
vt 0.27646 4.90000
vt 0.34558 0.00000
vt 0.41469 0.00000
vt 0.41469 4.90000
vt 0.34558 4.90000
vt 0.41469 0.00000
vt 0.48381 0.00000
vt 0.48381 4.90000
vt 0.41469 4.90000
vt 0.48381 0.00000
vt 0.55292 0.00000
vt 0.55292 4.90000
vt 0.48381 4.90000
vt 0.55292 0.00000
vt 0.62204 0.00000
vt 0.62204 4.90000
vt 0.55292 4.90000
vt 0.62204 0.00000
vt 0.69115 0.00000
vt 0.69115 4.90000
vt 0.62204 4.90000
vt 0.08899 -0.06466
vt 0.03399 -0.10462
vt -0.03399 -0.10462
vt -0.08899 -0.06466
vt -0.11000 0.00000
vt -0.08899 0.06466
vt -0.03399 0.10462
vt 0.03399 0.10462
vt 0.08899 0.06466
vt 0.11000 0.00000
vt 0.11000 0.00000
vt 0.08899 0.06466
vt 0.03399 0.10462
vt -0.03399 0.10462
vt -0.08899 0.06466
vt -0.11000 0.00000
vt -0.08899 -0.06466
vt -0.03399 -0.10462
vt 0.03399 -0.10462
vt 0.08899 -0.06466
vt 0.00000 0.00000
vt 0.04887 0.00000
vt 0.04887 16.20785
vt 0.00000 16.20785
vt 0.04887 0.00000
vt 0.09774 0.00000
vt 0.09774 16.20785
vt 0.04887 16.20785
vt 0.09774 0.00000
vt 0.14661 0.00000
vt 0.14661 16.20785
vt 0.09774 16.20785
vt 0.14661 0.00000
vt 0.19548 0.00000
vt 0.19548 16.20785
vt 0.14661 16.20785
vt 0.19548 0.00000
vt 0.24435 0.00000
vt 0.24435 16.20785
vt 0.19548 16.20785
vt 0.24435 0.00000
vt 0.29322 0.00000
vt 0.29322 16.20785
vt 0.24435 16.20785
vt 0.29322 0.00000
vt 0.34208 0.00000
vt 0.34208 16.20785
vt 0.29322 16.20785
vt 0.34208 0.00000
vt 0.39095 0.00000
vt 0.39095 16.20785
vt 0.34208 16.20785
vt 0.39095 0.00000
vt 0.43982 0.00000
vt 0.43982 16.20785
vt 0.39095 16.20785
vt 0.43982 0.00000
vt 0.48869 0.00000
vt 0.48869 16.20785
vt 0.43982 16.20785
vt 0.48869 0.00000
vt 0.53756 0.00000
vt 0.53756 16.20785
vt 0.48869 16.20785
vt 0.53756 0.00000
vt 0.58643 0.00000
vt 0.58643 16.20785
vt 0.53756 16.20785
vt 0.08083 -0.04667
vt 0.04667 -0.08083
vt -0.00000 -0.09333
vt -0.04667 -0.08083
vt -0.08083 -0.04667
vt -0.09333 0.00000
vt -0.08083 0.04667
vt -0.04667 0.08083
vt 0.00000 0.09333
vt 0.04667 0.08083
vt 0.08083 0.04667
vt 0.09333 0.00000
vt 0.09333 0.00000
vt 0.08083 0.04667
vt 0.04667 0.08083
vt 0.00000 0.09333
vt -0.04667 0.08083
vt -0.08083 0.04667
vt -0.09333 0.00000
vt -0.08083 -0.04667
vt -0.04667 -0.08083
vt -0.00000 -0.09333
vt 0.04667 -0.08083
vt 0.08083 -0.04667
vt 0.00000 0.00000
vt 0.30000 0.00000
vt 0.30000 9.01888
vt 0.00000 9.01888
vt 0.30000 0.00000
vt 1.21667 0.00000
vt 1.21667 9.01888
vt 0.30000 9.01888
vt 1.21667 0.00000
vt 1.51667 0.00000
vt 1.51667 9.01888
vt 1.21667 9.01888
vt 1.51667 0.00000
vt 2.43333 0.00000
vt 2.43333 9.01888
vt 1.51667 9.01888
vt -0.15000 0.91667
vt 0.15000 0.91667
vt 0.15000 0.00000
vt -0.15000 0.00000
vt -0.15000 0.00000
vt 0.15000 0.00000
vt 0.15000 0.91667
vt -0.15000 0.91667
vt 0.00000 0.00000
vt 0.06912 0.00000
vt 0.06912 4.90000
vt 0.00000 4.90000
vt 0.06912 0.00000
vt 0.13823 0.00000
vt 0.13823 4.90000
vt 0.06912 4.90000
vt 0.13823 0.00000
vt 0.20735 0.00000
vt 0.20735 4.90000
vt 0.13823 4.90000
vt 0.20735 0.00000
vt 0.27646 0.00000
vt 0.27646 4.90000
vt 0.20735 4.90000
vt 0.27646 0.00000
vt 0.34558 0.00000
vt 0.34558 4.90000
vt 0.27646 4.90000
vt 0.34558 0.00000
vt 0.41469 0.00000
vt 0.41469 4.90000
vt 0.34558 4.90000
vt 0.41469 0.00000
vt 0.48381 0.00000
vt 0.48381 4.90000
vt 0.41469 4.90000
vt 0.48381 0.00000
vt 0.55292 0.00000
vt 0.55292 4.90000
vt 0.48381 4.90000
vt 0.55292 0.00000
vt 0.62204 0.00000
vt 0.62204 4.90000
vt 0.55292 4.90000
vt 0.62204 0.00000
vt 0.69115 0.00000
vt 0.69115 4.90000
vt 0.62204 4.90000
vt 0.08899 -0.06466
vt 0.03399 -0.10462
vt -0.03399 -0.10462
vt -0.08899 -0.06466
vt -0.11000 0.00000
vt -0.08899 0.06466
vt -0.03399 0.10462
vt 0.03399 0.10462
vt 0.08899 0.06466
vt 0.11000 0.00000
vt 0.11000 0.00000
vt 0.08899 0.06466
vt 0.03399 0.10462
vt -0.03399 0.10462
vt -0.08899 0.06466
vt -0.11000 0.00000
vt -0.08899 -0.06466
vt -0.03399 -0.10462
vt 0.03399 -0.10462
vt 0.08899 -0.06466
vt 0.00000 0.00000
vt 0.06912 0.00000
vt 0.06912 4.90000
vt 0.00000 4.90000
vt 0.06912 0.00000
vt 0.13823 0.00000
vt 0.13823 4.90000
vt 0.06912 4.90000
vt 0.13823 0.00000
vt 0.20735 0.00000
vt 0.20735 4.90000
vt 0.13823 4.90000
vt 0.20735 0.00000
vt 0.27646 0.00000
vt 0.27646 4.90000
vt 0.20735 4.90000
vt 0.27646 0.00000
vt 0.34558 0.00000
vt 0.34558 4.90000
vt 0.27646 4.90000
vt 0.34558 0.00000
vt 0.41469 0.00000
vt 0.41469 4.90000
vt 0.34558 4.90000
vt 0.41469 0.00000
vt 0.48381 0.00000
vt 0.48381 4.90000
vt 0.41469 4.90000
vt 0.48381 0.00000
vt 0.55292 0.00000
vt 0.55292 4.90000
vt 0.48381 4.90000
vt 0.55292 0.00000
vt 0.62204 0.00000
vt 0.62204 4.90000
vt 0.55292 4.90000
vt 0.62204 0.00000
vt 0.69115 0.00000
vt 0.69115 4.90000
vt 0.62204 4.90000
vt 0.08899 -0.06466
vt 0.03399 -0.10462
vt -0.03399 -0.10462
vt -0.08899 -0.06466
vt -0.11000 0.00000
vt -0.08899 0.06466
vt -0.03399 0.10462
vt 0.03399 0.10462
vt 0.08899 0.06466
vt 0.11000 0.00000
vt 0.11000 0.00000
vt 0.08899 0.06466
vt 0.03399 0.10462
vt -0.03399 0.10462
vt -0.08899 0.06466
vt -0.11000 0.00000
vt -0.08899 -0.06466
vt -0.03399 -0.10462
vt 0.03399 -0.10462
vt 0.08899 -0.06466
vt 0.00000 0.00000
vt 0.06912 0.00000
vt 0.06912 4.90000
vt 0.00000 4.90000
vt 0.06912 0.00000
vt 0.13823 0.00000
vt 0.13823 4.90000
vt 0.06912 4.90000
vt 0.13823 0.00000
vt 0.20735 0.00000
vt 0.20735 4.90000
vt 0.13823 4.90000
vt 0.20735 0.00000
vt 0.27646 0.00000
vt 0.27646 4.90000
vt 0.20735 4.90000
vt 0.27646 0.00000
vt 0.34558 0.00000
vt 0.34558 4.90000
vt 0.27646 4.90000
vt 0.34558 0.00000
vt 0.41469 0.00000
vt 0.41469 4.90000
vt 0.34558 4.90000
vt 0.41469 0.00000
vt 0.48381 0.00000
vt 0.48381 4.90000
vt 0.41469 4.90000
vt 0.48381 0.00000
vt 0.55292 0.00000
vt 0.55292 4.90000
vt 0.48381 4.90000
vt 0.55292 0.00000
vt 0.62204 0.00000
vt 0.62204 4.90000
vt 0.55292 4.90000
vt 0.62204 0.00000
vt 0.69115 0.00000
vt 0.69115 4.90000
vt 0.62204 4.90000
vt 0.08899 -0.06466
vt 0.03399 -0.10462
vt -0.03399 -0.10462
vt -0.08899 -0.06466
vt -0.11000 0.00000
vt -0.08899 0.06466
vt -0.03399 0.10462
vt 0.03399 0.10462
vt 0.08899 0.06466
vt 0.11000 0.00000
vt 0.11000 0.00000
vt 0.08899 0.06466
vt 0.03399 0.10462
vt -0.03399 0.10462
vt -0.08899 0.06466
vt -0.11000 0.00000
vt -0.08899 -0.06466
vt -0.03399 -0.10462
vt 0.03399 -0.10462
vt 0.08899 -0.06466
vt 0.00000 0.00000
vt 0.06912 0.00000
vt 0.06912 4.90000
vt 0.00000 4.90000
vt 0.06912 0.00000
vt 0.13823 0.00000
vt 0.13823 4.90000
vt 0.06912 4.90000
vt 0.13823 0.00000
vt 0.20735 0.00000
vt 0.20735 4.90000
vt 0.13823 4.90000
vt 0.20735 0.00000
vt 0.27646 0.00000
vt 0.27646 4.90000
vt 0.20735 4.90000
vt 0.27646 0.00000
vt 0.34558 0.00000
vt 0.34558 4.90000
vt 0.27646 4.90000
vt 0.34558 0.00000
vt 0.41469 0.00000
vt 0.41469 4.90000
vt 0.34558 4.90000
vt 0.41469 0.00000
vt 0.48381 0.00000
vt 0.48381 4.90000
vt 0.41469 4.90000
vt 0.48381 0.00000
vt 0.55292 0.00000
vt 0.55292 4.90000
vt 0.48381 4.90000
vt 0.55292 0.00000
vt 0.62204 0.00000
vt 0.62204 4.90000
vt 0.55292 4.90000
vt 0.62204 0.00000
vt 0.69115 0.00000
vt 0.69115 4.90000
vt 0.62204 4.90000
vt 0.08899 -0.06466
vt 0.03399 -0.10462
vt -0.03399 -0.10462
vt -0.08899 -0.06466
vt -0.11000 0.00000
vt -0.08899 0.06466
vt -0.03399 0.10462
vt 0.03399 0.10462
vt 0.08899 0.06466
vt 0.11000 0.00000
vt 0.11000 0.00000
vt 0.08899 0.06466
vt 0.03399 0.10462
vt -0.03399 0.10462
vt -0.08899 0.06466
vt -0.11000 0.00000
vt -0.08899 -0.06466
vt -0.03399 -0.10462
vt 0.03399 -0.10462
vt 0.08899 -0.06466
vt 0.00000 0.00000
vt 0.04887 0.00000
vt 0.04887 16.20785
vt 0.00000 16.20785
vt 0.04887 0.00000
vt 0.09774 0.00000
vt 0.09774 16.20785
vt 0.04887 16.20785
vt 0.09774 0.00000
vt 0.14661 0.00000
vt 0.14661 16.20785
vt 0.09774 16.20785
vt 0.14661 0.00000
vt 0.19548 0.00000
vt 0.19548 16.20785
vt 0.14661 16.20785
vt 0.19548 0.00000
vt 0.24435 0.00000
vt 0.24435 16.20785
vt 0.19548 16.20785
vt 0.24435 0.00000
vt 0.29322 0.00000
vt 0.29322 16.20785
vt 0.24435 16.20785
vt 0.29322 0.00000
vt 0.34208 0.00000
vt 0.34208 16.20785
vt 0.29322 16.20785
vt 0.34208 0.00000
vt 0.39095 0.00000
vt 0.39095 16.20785
vt 0.34208 16.20785
vt 0.39095 0.00000
vt 0.43982 0.00000
vt 0.43982 16.20785
vt 0.39095 16.20785
vt 0.43982 0.00000
vt 0.48869 0.00000
vt 0.48869 16.20785
vt 0.43982 16.20785
vt 0.48869 0.00000
vt 0.53756 0.00000
vt 0.53756 16.20785
vt 0.48869 16.20785
vt 0.53756 0.00000
vt 0.58643 0.00000
vt 0.58643 16.20785
vt 0.53756 16.20785
vt 0.08083 -0.04667
vt 0.04667 -0.08083
vt -0.00000 -0.09333
vt -0.04667 -0.08083
vt -0.08083 -0.04667
vt -0.09333 0.00000
vt -0.08083 0.04667
vt -0.04667 0.08083
vt 0.00000 0.09333
vt 0.04667 0.08083
vt 0.08083 0.04667
vt 0.09333 0.00000
vt 0.09333 0.00000
vt 0.08083 0.04667
vt 0.04667 0.08083
vt 0.00000 0.09333
vt -0.04667 0.08083
vt -0.08083 0.04667
vt -0.09333 0.00000
vt -0.08083 -0.04667
vt -0.04667 -0.08083
vt -0.00000 -0.09333
vt 0.04667 -0.08083
vt 0.08083 -0.04667
vt -8.00000 2.81250
vt -5.25000 2.81250
vt -5.25000 3.06250
vt -8.00000 3.06250
vt 5.25000 2.81250
vt 8.00000 2.81250
vt 8.00000 3.06250
vt 5.25000 3.06250
vt -2.00000 -8.00000
vt 2.00000 -8.00000
vt 2.00000 -5.25000
vt -2.00000 -5.25000
vt -2.00000 5.25000
vt 2.00000 5.25000
vt 2.00000 8.00000
vt -2.00000 8.00000
vt -2.00000 2.81250
vt 2.00000 2.81250
vt 2.00000 3.06250
vt -2.00000 3.06250
vt -2.00000 2.81250
vt 2.00000 2.81250
vt 2.00000 3.06250
vt -2.00000 3.06250
vn 1.00000 0.00000 0.00000
vn -1.00000 0.00000 0.00000
vn 0.00000 1.00000 0.00000
vn 0.00000 -1.00000 0.00000
vn 0.00000 0.00000 1.00000
vn 0.00000 0.00000 -1.00000
vn 1.00000 0.00000 0.00000
vn -1.00000 0.00000 0.00000
vn 0.00000 1.00000 0.00000
vn 0.00000 -1.00000 0.00000
vn 0.00000 0.00000 1.00000
vn 0.00000 0.00000 -1.00000
vn 1.00000 0.00000 0.00000
vn -1.00000 0.00000 0.00000
vn 0.00000 1.00000 0.00000
vn 0.00000 -1.00000 0.00000
vn 0.00000 0.00000 1.00000
vn 0.00000 0.00000 -1.00000
vn 1.00000 0.00000 0.00000
vn -1.00000 0.00000 0.00000
vn 0.00000 1.00000 0.00000
vn 0.00000 -1.00000 0.00000
vn 0.00000 0.00000 1.00000
vn 0.00000 0.00000 -1.00000
vn 1.00000 0.00000 0.00000
vn -1.00000 0.00000 0.00000
vn 0.00000 1.00000 0.00000
vn 0.00000 -1.00000 0.00000
vn 0.00000 0.00000 1.00000
vn 0.00000 0.00000 -1.00000
vn 1.00000 0.00000 0.00000
vn -1.00000 0.00000 0.00000
vn 0.00000 1.00000 0.00000
vn 0.00000 -1.00000 0.00000
vn 0.00000 0.00000 1.00000
vn 0.00000 0.00000 -1.00000
vn 1.00000 0.00000 0.00000
vn -1.00000 0.00000 0.00000
vn 0.00000 1.00000 0.00000
vn 0.00000 -1.00000 0.00000
vn 0.00000 0.00000 1.00000
vn 0.00000 0.00000 -1.00000
vn 1.00000 0.00000 0.00000
vn -1.00000 0.00000 0.00000
vn 0.00000 1.00000 0.00000
vn 0.00000 -1.00000 0.00000
vn 0.00000 0.00000 1.00000
vn 0.00000 0.00000 -1.00000
vn 1.00000 0.00000 0.00000
vn -1.00000 0.00000 0.00000
vn 0.00000 1.00000 0.00000
vn 0.00000 -1.00000 0.00000
vn 0.00000 0.00000 1.00000
vn 0.00000 0.00000 -1.00000
vn 1.00000 0.00000 0.00000
vn -1.00000 0.00000 0.00000
vn 0.00000 1.00000 0.00000
vn 0.00000 -1.00000 0.00000
vn 0.00000 0.00000 1.00000
vn 0.00000 0.00000 -1.00000
vn 1.00000 0.00000 0.00000
vn -1.00000 0.00000 0.00000
vn 0.00000 1.00000 0.00000
vn 0.00000 -1.00000 0.00000
vn 0.00000 0.00000 1.00000
vn 0.00000 0.00000 -1.00000
vn 1.00000 0.00000 0.00000
vn -1.00000 0.00000 0.00000
vn 0.00000 1.00000 0.00000
vn 0.00000 -1.00000 0.00000
vn 0.00000 0.00000 1.00000
vn 0.00000 0.00000 -1.00000
vn 1.00000 0.00000 0.00000
vn -1.00000 0.00000 0.00000
vn 0.00000 1.00000 0.00000
vn 0.00000 -1.00000 0.00000
vn 0.00000 0.00000 1.00000
vn 0.00000 0.00000 -1.00000
vn 1.00000 0.00000 0.00000
vn -1.00000 0.00000 0.00000
vn 0.00000 1.00000 0.00000
vn 0.00000 -1.00000 0.00000
vn 0.00000 0.00000 1.00000
vn 0.00000 0.00000 -1.00000
vn 1.00000 0.00000 0.00000
vn -1.00000 0.00000 0.00000
vn 0.00000 1.00000 0.00000
vn 0.00000 -1.00000 0.00000
vn 0.00000 0.00000 1.00000
vn 0.00000 0.00000 -1.00000
vn 1.00000 0.00000 0.00000
vn -1.00000 0.00000 0.00000
vn 0.00000 1.00000 0.00000
vn 0.00000 -1.00000 0.00000
vn 0.00000 0.00000 1.00000
vn 0.00000 0.00000 -1.00000
vn 1.00000 0.00000 0.00000
vn -1.00000 0.00000 0.00000
vn 0.00000 1.00000 0.00000
vn 0.00000 -1.00000 0.00000
vn 0.00000 0.00000 1.00000
vn 0.00000 0.00000 -1.00000
vn 1.00000 0.00000 0.00000
vn -1.00000 0.00000 0.00000
vn 0.00000 1.00000 0.00000
vn 0.00000 -1.00000 0.00000
vn 0.00000 0.00000 1.00000
vn 0.00000 0.00000 -1.00000
vn 1.00000 0.00000 0.00000
vn -1.00000 0.00000 0.00000
vn 0.00000 1.00000 0.00000
vn 0.00000 -1.00000 0.00000
vn 0.00000 0.00000 1.00000
vn 0.00000 0.00000 -1.00000
vn 1.00000 0.00000 0.00000
vn -1.00000 0.00000 0.00000
vn 0.00000 1.00000 0.00000
vn 0.00000 -1.00000 0.00000
vn 0.00000 0.00000 1.00000
vn 0.00000 0.00000 -1.00000
vn 1.00000 0.00000 0.00000
vn -1.00000 0.00000 0.00000
vn 0.00000 1.00000 0.00000
vn 0.00000 -1.00000 0.00000
vn 0.00000 0.00000 1.00000
vn 0.00000 0.00000 -1.00000
vn 1.00000 0.00000 0.00000
vn -1.00000 0.00000 0.00000
vn 0.00000 1.00000 0.00000
vn 0.00000 -1.00000 0.00000
vn 0.00000 0.00000 1.00000
vn 0.00000 0.00000 -1.00000
vn 1.00000 0.00000 0.00000
vn -1.00000 0.00000 0.00000
vn 0.00000 1.00000 0.00000
vn 0.00000 -1.00000 0.00000
vn 0.00000 0.00000 1.00000
vn 0.00000 0.00000 -1.00000
vn 1.00000 0.00000 0.00000
vn -1.00000 0.00000 0.00000
vn 0.00000 1.00000 0.00000
vn 0.00000 -1.00000 0.00000
vn 0.00000 0.00000 1.00000
vn 0.00000 0.00000 -1.00000
vn 1.00000 0.00000 0.00000
vn -1.00000 0.00000 0.00000
vn 0.00000 1.00000 0.00000
vn 0.00000 -1.00000 0.00000
vn 0.00000 0.00000 1.00000
vn 0.00000 0.00000 -1.00000
vn 1.00000 0.00000 0.00000
vn -1.00000 0.00000 0.00000
vn 0.00000 1.00000 0.00000
vn 0.00000 -1.00000 0.00000
vn 0.00000 0.00000 1.00000
vn 0.00000 0.00000 -1.00000
vn 1.00000 0.00000 0.00000
vn -1.00000 0.00000 0.00000
vn 0.00000 1.00000 0.00000
vn 0.00000 -1.00000 0.00000
vn 0.00000 0.00000 1.00000
vn 0.00000 0.00000 -1.00000
vn 1.00000 0.00000 0.00000
vn -1.00000 0.00000 0.00000
vn 0.00000 1.00000 0.00000
vn 0.00000 -1.00000 0.00000
vn 0.00000 0.00000 1.00000
vn 0.00000 0.00000 -1.00000
vn 0.00000 -0.85007 0.52667
vn 1.00000 -0.00000 0.00000
vn 0.00000 0.85007 -0.52667
vn -1.00000 0.00000 0.00000
vn 0.00000 -0.52667 -0.85007
vn -0.00000 0.52667 0.85007
vn 0.00000 0.00000 1.00000
vn 0.58779 0.00000 0.80902
vn 0.58779 0.00000 0.80902
vn 0.00000 0.00000 1.00000
vn 0.58779 0.00000 0.80902
vn 0.95106 0.00000 0.30902
vn 0.95106 0.00000 0.30902
vn 0.58779 0.00000 0.80902
vn 0.95106 0.00000 0.30902
vn 0.95106 0.00000 -0.30902
vn 0.95106 0.00000 -0.30902
vn 0.95106 0.00000 0.30902
vn 0.95106 0.00000 -0.30902
vn 0.58779 0.00000 -0.80902
vn 0.58779 0.00000 -0.80902
vn 0.95106 0.00000 -0.30902
vn 0.58779 0.00000 -0.80902
vn 0.00000 0.00000 -1.00000
vn 0.00000 0.00000 -1.00000
vn 0.58779 0.00000 -0.80902
vn 0.00000 0.00000 -1.00000
vn -0.58779 -0.00000 -0.80902
vn -0.58779 -0.00000 -0.80902
vn 0.00000 0.00000 -1.00000
vn -0.58779 -0.00000 -0.80902
vn -0.95106 -0.00000 -0.30902
vn -0.95106 -0.00000 -0.30902
vn -0.58779 -0.00000 -0.80902
vn -0.95106 -0.00000 -0.30902
vn -0.95106 0.00000 0.30902
vn -0.95106 0.00000 0.30902
vn -0.95106 -0.00000 -0.30902
vn -0.95106 0.00000 0.30902
vn -0.58779 0.00000 0.80902
vn -0.58779 0.00000 0.80902
vn -0.95106 0.00000 0.30902
vn -0.58779 0.00000 0.80902
vn 0.00000 0.00000 1.00000
vn 0.00000 0.00000 1.00000
vn -0.58779 0.00000 0.80902
vn -0.00000 -1.00000 -0.00000
vn 0.00000 1.00000 0.00000
vn 0.00000 0.00000 1.00000
vn 0.58779 0.00000 0.80902
vn 0.58779 0.00000 0.80902
vn 0.00000 0.00000 1.00000
vn 0.58779 0.00000 0.80902
vn 0.95106 0.00000 0.30902
vn 0.95106 0.00000 0.30902
vn 0.58779 0.00000 0.80902
vn 0.95106 0.00000 0.30902
vn 0.95106 0.00000 -0.30902
vn 0.95106 0.00000 -0.30902
vn 0.95106 0.00000 0.30902
vn 0.95106 0.00000 -0.30902
vn 0.58779 0.00000 -0.80902
vn 0.58779 0.00000 -0.80902
vn 0.95106 0.00000 -0.30902
vn 0.58779 0.00000 -0.80902
vn 0.00000 0.00000 -1.00000
vn 0.00000 0.00000 -1.00000
vn 0.58779 0.00000 -0.80902
vn 0.00000 0.00000 -1.00000
vn -0.58779 -0.00000 -0.80902
vn -0.58779 -0.00000 -0.80902
vn 0.00000 0.00000 -1.00000
vn -0.58779 -0.00000 -0.80902
vn -0.95106 -0.00000 -0.30902
vn -0.95106 -0.00000 -0.30902
vn -0.58779 -0.00000 -0.80902
vn -0.95106 -0.00000 -0.30902
vn -0.95106 0.00000 0.30902
vn -0.95106 0.00000 0.30902
vn -0.95106 -0.00000 -0.30902
vn -0.95106 0.00000 0.30902
vn -0.58779 0.00000 0.80902
vn -0.58779 0.00000 0.80902
vn -0.95106 0.00000 0.30902
vn -0.58779 0.00000 0.80902
vn 0.00000 0.00000 1.00000
vn 0.00000 0.00000 1.00000
vn -0.58779 0.00000 0.80902
vn -0.00000 -1.00000 -0.00000
vn 0.00000 1.00000 0.00000
vn 0.00000 0.00000 1.00000
vn 0.58779 0.00000 0.80902
vn 0.58779 0.00000 0.80902
vn 0.00000 0.00000 1.00000
vn 0.58779 0.00000 0.80902
vn 0.95106 0.00000 0.30902
vn 0.95106 0.00000 0.30902
vn 0.58779 0.00000 0.80902
vn 0.95106 0.00000 0.30902
vn 0.95106 0.00000 -0.30902
vn 0.95106 0.00000 -0.30902
vn 0.95106 0.00000 0.30902
vn 0.95106 0.00000 -0.30902
vn 0.58779 0.00000 -0.80902
vn 0.58779 0.00000 -0.80902
vn 0.95106 0.00000 -0.30902
vn 0.58779 0.00000 -0.80902
vn 0.00000 0.00000 -1.00000
vn 0.00000 0.00000 -1.00000
vn 0.58779 0.00000 -0.80902
vn 0.00000 0.00000 -1.00000
vn -0.58779 -0.00000 -0.80902
vn -0.58779 -0.00000 -0.80902
vn 0.00000 0.00000 -1.00000
vn -0.58779 -0.00000 -0.80902
vn -0.95106 -0.00000 -0.30902
vn -0.95106 -0.00000 -0.30902
vn -0.58779 -0.00000 -0.80902
vn -0.95106 -0.00000 -0.30902
vn -0.95106 0.00000 0.30902
vn -0.95106 0.00000 0.30902
vn -0.95106 -0.00000 -0.30902
vn -0.95106 0.00000 0.30902
vn -0.58779 0.00000 0.80902
vn -0.58779 0.00000 0.80902
vn -0.95106 0.00000 0.30902
vn -0.58779 0.00000 0.80902
vn 0.00000 0.00000 1.00000
vn 0.00000 0.00000 1.00000
vn -0.58779 0.00000 0.80902
vn -0.00000 -1.00000 -0.00000
vn 0.00000 1.00000 0.00000
vn 0.00000 0.00000 1.00000
vn 0.58779 0.00000 0.80902
vn 0.58779 0.00000 0.80902
vn 0.00000 0.00000 1.00000
vn 0.58779 0.00000 0.80902
vn 0.95106 0.00000 0.30902
vn 0.95106 0.00000 0.30902
vn 0.58779 0.00000 0.80902
vn 0.95106 0.00000 0.30902
vn 0.95106 0.00000 -0.30902
vn 0.95106 0.00000 -0.30902
vn 0.95106 0.00000 0.30902
vn 0.95106 0.00000 -0.30902
vn 0.58779 0.00000 -0.80902
vn 0.58779 0.00000 -0.80902
vn 0.95106 0.00000 -0.30902
vn 0.58779 0.00000 -0.80902
vn 0.00000 0.00000 -1.00000
vn 0.00000 0.00000 -1.00000
vn 0.58779 0.00000 -0.80902
vn 0.00000 0.00000 -1.00000
vn -0.58779 -0.00000 -0.80902
vn -0.58779 -0.00000 -0.80902
vn 0.00000 0.00000 -1.00000
vn -0.58779 -0.00000 -0.80902
vn -0.95106 -0.00000 -0.30902
vn -0.95106 -0.00000 -0.30902
vn -0.58779 -0.00000 -0.80902
vn -0.95106 -0.00000 -0.30902
vn -0.95106 0.00000 0.30902
vn -0.95106 0.00000 0.30902
vn -0.95106 -0.00000 -0.30902
vn -0.95106 0.00000 0.30902
vn -0.58779 0.00000 0.80902
vn -0.58779 0.00000 0.80902
vn -0.95106 0.00000 0.30902
vn -0.58779 0.00000 0.80902
vn 0.00000 0.00000 1.00000
vn 0.00000 0.00000 1.00000
vn -0.58779 0.00000 0.80902
vn -0.00000 -1.00000 -0.00000
vn 0.00000 1.00000 0.00000
vn 1.00000 0.00000 0.00000
vn 0.86603 0.43189 -0.25194
vn 0.86603 0.43189 -0.25194
vn 1.00000 0.00000 0.00000
vn 0.86603 0.43189 -0.25194
vn 0.50000 0.74805 -0.43637
vn 0.50000 0.74805 -0.43637
vn 0.86603 0.43189 -0.25194
vn 0.50000 0.74805 -0.43637
vn 0.00000 0.86378 -0.50387
vn 0.00000 0.86378 -0.50387
vn 0.50000 0.74805 -0.43637
vn 0.00000 0.86378 -0.50387
vn -0.50000 0.74805 -0.43637
vn -0.50000 0.74805 -0.43637
vn 0.00000 0.86378 -0.50387
vn -0.50000 0.74805 -0.43637
vn -0.86603 0.43189 -0.25194
vn -0.86603 0.43189 -0.25194
vn -0.50000 0.74805 -0.43637
vn -0.86603 0.43189 -0.25194
vn -1.00000 0.00000 -0.00000
vn -1.00000 0.00000 -0.00000
vn -0.86603 0.43189 -0.25194
vn -1.00000 0.00000 -0.00000
vn -0.86603 -0.43189 0.25194
vn -0.86603 -0.43189 0.25194
vn -1.00000 0.00000 -0.00000
vn -0.86603 -0.43189 0.25194
vn -0.50000 -0.74805 0.43637
vn -0.50000 -0.74805 0.43637
vn -0.86603 -0.43189 0.25194
vn -0.50000 -0.74805 0.43637
vn -0.00000 -0.86378 0.50387
vn -0.00000 -0.86378 0.50387
vn -0.50000 -0.74805 0.43637
vn -0.00000 -0.86378 0.50387
vn 0.50000 -0.74805 0.43637
vn 0.50000 -0.74805 0.43637
vn -0.00000 -0.86378 0.50387
vn 0.50000 -0.74805 0.43637
vn 0.86603 -0.43189 0.25194
vn 0.86603 -0.43189 0.25194
vn 0.50000 -0.74805 0.43637
vn 0.86603 -0.43189 0.25194
vn 1.00000 0.00000 0.00000
vn 1.00000 0.00000 0.00000
vn 0.86603 -0.43189 0.25194
vn -0.00000 -0.50387 -0.86378
vn 0.00000 0.50387 0.86378
vn 0.00000 -0.85007 0.52667
vn 1.00000 -0.00000 0.00000
vn 0.00000 0.85007 -0.52667
vn -1.00000 0.00000 0.00000
vn 0.00000 -0.52667 -0.85007
vn -0.00000 0.52667 0.85007
vn 0.00000 0.00000 1.00000
vn 0.58779 0.00000 0.80902
vn 0.58779 0.00000 0.80902
vn 0.00000 0.00000 1.00000
vn 0.58779 0.00000 0.80902
vn 0.95106 0.00000 0.30902
vn 0.95106 0.00000 0.30902
vn 0.58779 0.00000 0.80902
vn 0.95106 0.00000 0.30902
vn 0.95106 0.00000 -0.30902
vn 0.95106 0.00000 -0.30902
vn 0.95106 0.00000 0.30902
vn 0.95106 0.00000 -0.30902
vn 0.58779 0.00000 -0.80902
vn 0.58779 0.00000 -0.80902
vn 0.95106 0.00000 -0.30902
vn 0.58779 0.00000 -0.80902
vn 0.00000 0.00000 -1.00000
vn 0.00000 0.00000 -1.00000
vn 0.58779 0.00000 -0.80902
vn 0.00000 0.00000 -1.00000
vn -0.58779 -0.00000 -0.80902
vn -0.58779 -0.00000 -0.80902
vn 0.00000 0.00000 -1.00000
vn -0.58779 -0.00000 -0.80902
vn -0.95106 -0.00000 -0.30902
vn -0.95106 -0.00000 -0.30902
vn -0.58779 -0.00000 -0.80902
vn -0.95106 -0.00000 -0.30902
vn -0.95106 0.00000 0.30902
vn -0.95106 0.00000 0.30902
vn -0.95106 -0.00000 -0.30902
vn -0.95106 0.00000 0.30902
vn -0.58779 0.00000 0.80902
vn -0.58779 0.00000 0.80902
vn -0.95106 0.00000 0.30902
vn -0.58779 0.00000 0.80902
vn 0.00000 0.00000 1.00000
vn 0.00000 0.00000 1.00000
vn -0.58779 0.00000 0.80902
vn -0.00000 -1.00000 -0.00000
vn 0.00000 1.00000 0.00000
vn 0.00000 0.00000 1.00000
vn 0.58779 0.00000 0.80902
vn 0.58779 0.00000 0.80902
vn 0.00000 0.00000 1.00000
vn 0.58779 0.00000 0.80902
vn 0.95106 0.00000 0.30902
vn 0.95106 0.00000 0.30902
vn 0.58779 0.00000 0.80902
vn 0.95106 0.00000 0.30902
vn 0.95106 0.00000 -0.30902
vn 0.95106 0.00000 -0.30902
vn 0.95106 0.00000 0.30902
vn 0.95106 0.00000 -0.30902
vn 0.58779 0.00000 -0.80902
vn 0.58779 0.00000 -0.80902
vn 0.95106 0.00000 -0.30902
vn 0.58779 0.00000 -0.80902
vn 0.00000 0.00000 -1.00000
vn 0.00000 0.00000 -1.00000
vn 0.58779 0.00000 -0.80902
vn 0.00000 0.00000 -1.00000
vn -0.58779 -0.00000 -0.80902
vn -0.58779 -0.00000 -0.80902
vn 0.00000 0.00000 -1.00000
vn -0.58779 -0.00000 -0.80902
vn -0.95106 -0.00000 -0.30902
vn -0.95106 -0.00000 -0.30902
vn -0.58779 -0.00000 -0.80902
vn -0.95106 -0.00000 -0.30902
vn -0.95106 0.00000 0.30902
vn -0.95106 0.00000 0.30902
vn -0.95106 -0.00000 -0.30902
vn -0.95106 0.00000 0.30902
vn -0.58779 0.00000 0.80902
vn -0.58779 0.00000 0.80902
vn -0.95106 0.00000 0.30902
vn -0.58779 0.00000 0.80902
vn 0.00000 0.00000 1.00000
vn 0.00000 0.00000 1.00000
vn -0.58779 0.00000 0.80902
vn -0.00000 -1.00000 -0.00000
vn 0.00000 1.00000 0.00000
vn 0.00000 0.00000 1.00000
vn 0.58779 0.00000 0.80902
vn 0.58779 0.00000 0.80902
vn 0.00000 0.00000 1.00000
vn 0.58779 0.00000 0.80902
vn 0.95106 0.00000 0.30902
vn 0.95106 0.00000 0.30902
vn 0.58779 0.00000 0.80902
vn 0.95106 0.00000 0.30902
vn 0.95106 0.00000 -0.30902
vn 0.95106 0.00000 -0.30902
vn 0.95106 0.00000 0.30902
vn 0.95106 0.00000 -0.30902
vn 0.58779 0.00000 -0.80902
vn 0.58779 0.00000 -0.80902
vn 0.95106 0.00000 -0.30902
vn 0.58779 0.00000 -0.80902
vn 0.00000 0.00000 -1.00000
vn 0.00000 0.00000 -1.00000
vn 0.58779 0.00000 -0.80902
vn 0.00000 0.00000 -1.00000
vn -0.58779 -0.00000 -0.80902
vn -0.58779 -0.00000 -0.80902
vn 0.00000 0.00000 -1.00000
vn -0.58779 -0.00000 -0.80902
vn -0.95106 -0.00000 -0.30902
vn -0.95106 -0.00000 -0.30902
vn -0.58779 -0.00000 -0.80902
vn -0.95106 -0.00000 -0.30902
vn -0.95106 0.00000 0.30902
vn -0.95106 0.00000 0.30902
vn -0.95106 -0.00000 -0.30902
vn -0.95106 0.00000 0.30902
vn -0.58779 0.00000 0.80902
vn -0.58779 0.00000 0.80902
vn -0.95106 0.00000 0.30902
vn -0.58779 0.00000 0.80902
vn 0.00000 0.00000 1.00000
vn 0.00000 0.00000 1.00000
vn -0.58779 0.00000 0.80902
vn -0.00000 -1.00000 -0.00000
vn 0.00000 1.00000 0.00000
vn 0.00000 0.00000 1.00000
vn 0.58779 0.00000 0.80902
vn 0.58779 0.00000 0.80902
vn 0.00000 0.00000 1.00000
vn 0.58779 0.00000 0.80902
vn 0.95106 0.00000 0.30902
vn 0.95106 0.00000 0.30902
vn 0.58779 0.00000 0.80902
vn 0.95106 0.00000 0.30902
vn 0.95106 0.00000 -0.30902
vn 0.95106 0.00000 -0.30902
vn 0.95106 0.00000 0.30902
vn 0.95106 0.00000 -0.30902
vn 0.58779 0.00000 -0.80902
vn 0.58779 0.00000 -0.80902
vn 0.95106 0.00000 -0.30902
vn 0.58779 0.00000 -0.80902
vn 0.00000 0.00000 -1.00000
vn 0.00000 0.00000 -1.00000
vn 0.58779 0.00000 -0.80902
vn 0.00000 0.00000 -1.00000
vn -0.58779 -0.00000 -0.80902
vn -0.58779 -0.00000 -0.80902
vn 0.00000 0.00000 -1.00000
vn -0.58779 -0.00000 -0.80902
vn -0.95106 -0.00000 -0.30902
vn -0.95106 -0.00000 -0.30902
vn -0.58779 -0.00000 -0.80902
vn -0.95106 -0.00000 -0.30902
vn -0.95106 0.00000 0.30902
vn -0.95106 0.00000 0.30902
vn -0.95106 -0.00000 -0.30902
vn -0.95106 0.00000 0.30902
vn -0.58779 0.00000 0.80902
vn -0.58779 0.00000 0.80902
vn -0.95106 0.00000 0.30902
vn -0.58779 0.00000 0.80902
vn 0.00000 0.00000 1.00000
vn 0.00000 0.00000 1.00000
vn -0.58779 0.00000 0.80902
vn -0.00000 -1.00000 -0.00000
vn 0.00000 1.00000 0.00000
vn 1.00000 0.00000 0.00000
vn 0.86603 0.43189 -0.25194
vn 0.86603 0.43189 -0.25194
vn 1.00000 0.00000 0.00000
vn 0.86603 0.43189 -0.25194
vn 0.50000 0.74805 -0.43637
vn 0.50000 0.74805 -0.43637
vn 0.86603 0.43189 -0.25194
vn 0.50000 0.74805 -0.43637
vn 0.00000 0.86378 -0.50387
vn 0.00000 0.86378 -0.50387
vn 0.50000 0.74805 -0.43637
vn 0.00000 0.86378 -0.50387
vn -0.50000 0.74805 -0.43637
vn -0.50000 0.74805 -0.43637
vn 0.00000 0.86378 -0.50387
vn -0.50000 0.74805 -0.43637
vn -0.86603 0.43189 -0.25194
vn -0.86603 0.43189 -0.25194
vn -0.50000 0.74805 -0.43637
vn -0.86603 0.43189 -0.25194
vn -1.00000 0.00000 -0.00000
vn -1.00000 0.00000 -0.00000
vn -0.86603 0.43189 -0.25194
vn -1.00000 0.00000 -0.00000
vn -0.86603 -0.43189 0.25194
vn -0.86603 -0.43189 0.25194
vn -1.00000 0.00000 -0.00000
vn -0.86603 -0.43189 0.25194
vn -0.50000 -0.74805 0.43637
vn -0.50000 -0.74805 0.43637
vn -0.86603 -0.43189 0.25194
vn -0.50000 -0.74805 0.43637
vn -0.00000 -0.86378 0.50387
vn -0.00000 -0.86378 0.50387
vn -0.50000 -0.74805 0.43637
vn -0.00000 -0.86378 0.50387
vn 0.50000 -0.74805 0.43637
vn 0.50000 -0.74805 0.43637
vn -0.00000 -0.86378 0.50387
vn 0.50000 -0.74805 0.43637
vn 0.86603 -0.43189 0.25194
vn 0.86603 -0.43189 0.25194
vn 0.50000 -0.74805 0.43637
vn 0.86603 -0.43189 0.25194
vn 1.00000 0.00000 0.00000
vn 1.00000 0.00000 0.00000
vn 0.86603 -0.43189 0.25194
vn -0.00000 -0.50387 -0.86378
vn 0.00000 0.50387 0.86378
vn 1.00000 0.00000 0.00000
vn -1.00000 0.00000 0.00000
vn 0.00000 1.00000 0.00000
vn 0.00000 -1.00000 0.00000
vn 0.00000 0.00000 1.00000
vn 0.00000 0.00000 -1.00000
usemtl granite
f 1/1/1 2/2/1 3/3/1 4/4/1
f 5/5/2 6/6/2 7/7/2 8/8/2
f 9/9/3 10/10/3 11/11/3 12/12/3
f 13/13/4 14/14/4 15/15/4 16/16/4
f 17/17/5 18/18/5 19/19/5 20/20/5
f 21/21/6 22/22/6 23/23/6 24/24/6
f 49/49/13 50/50/13 51/51/13 52/52/13
f 53/53/14 54/54/14 55/55/14 56/56/14
f 57/57/15 58/58/15 59/59/15 60/60/15
f 61/61/16 62/62/16 63/63/16 64/64/16
f 65/65/17 66/66/17 67/67/17 68/68/17
f 69/69/18 70/70/18 71/71/18 72/72/18
f 97/97/25 98/98/25 99/99/25 100/100/25
f 101/101/26 102/102/26 103/103/26 104/104/26
f 105/105/27 106/106/27 107/107/27 108/108/27
f 109/109/28 110/110/28 111/111/28 112/112/28
f 113/113/29 114/114/29 115/115/29 116/116/29
f 117/117/30 118/118/30 119/119/30 120/120/30
f 145/145/37 146/146/37 147/147/37 148/148/37
f 149/149/38 150/150/38 151/151/38 152/152/38
f 153/153/39 154/154/39 155/155/39 156/156/39
f 157/157/40 158/158/40 159/159/40 160/160/40
f 161/161/41 162/162/41 163/163/41 164/164/41
f 165/165/42 166/166/42 167/167/42 168/168/42
f 193/193/49 194/194/49 195/195/49 196/196/49
f 197/197/50 198/198/50 199/199/50 200/200/50
f 201/201/51 202/202/51 203/203/51 204/204/51
f 205/205/52 206/206/52 207/207/52 208/208/52
f 209/209/53 210/210/53 211/211/53 212/212/53
f 213/213/54 214/214/54 215/215/54 216/216/54
f 241/241/61 242/242/61 243/243/61 244/244/61
f 245/245/62 246/246/62 247/247/62 248/248/62
f 249/249/63 250/250/63 251/251/63 252/252/63
f 253/253/64 254/254/64 255/255/64 256/256/64
f 257/257/65 258/258/65 259/259/65 260/260/65
f 261/261/66 262/262/66 263/263/66 264/264/66
f 289/289/73 290/290/73 291/291/73 292/292/73
f 293/293/74 294/294/74 295/295/74 296/296/74
f 297/297/75 298/298/75 299/299/75 300/300/75
f 301/301/76 302/302/76 303/303/76 304/304/76
f 305/305/77 306/306/77 307/307/77 308/308/77
f 309/309/78 310/310/78 311/311/78 312/312/78
f 337/337/85 338/338/85 339/339/85 340/340/85
f 341/341/86 342/342/86 343/343/86 344/344/86
f 345/345/87 346/346/87 347/347/87 348/348/87
f 349/349/88 350/350/88 351/351/88 352/352/88
f 353/353/89 354/354/89 355/355/89 356/356/89
f 357/357/90 358/358/90 359/359/90 360/360/90
f 385/385/97 386/386/97 387/387/97 388/388/97
f 389/389/98 390/390/98 391/391/98 392/392/98
f 393/393/99 394/394/99 395/395/99 396/396/99
f 397/397/100 398/398/100 399/399/100 400/400/100
f 401/401/101 402/402/101 403/403/101 404/404/101
f 405/405/102 406/406/102 407/407/102 408/408/102
f 433/433/109 434/434/109 435/435/109 436/436/109
f 437/437/110 438/438/110 439/439/110 440/440/110
f 441/441/111 442/442/111 443/443/111 444/444/111
f 445/445/112 446/446/112 447/447/112 448/448/112
f 449/449/113 450/450/113 451/451/113 452/452/113
f 453/453/114 454/454/114 455/455/114 456/456/114
f 481/481/121 482/482/121 483/483/121 484/484/121
f 485/485/122 486/486/122 487/487/122 488/488/122
f 489/489/123 490/490/123 491/491/123 492/492/123
f 493/493/124 494/494/124 495/495/124 496/496/124
f 497/497/125 498/498/125 499/499/125 500/500/125
f 501/501/126 502/502/126 503/503/126 504/504/126
f 529/529/133 530/530/133 531/531/133 532/532/133
f 533/533/134 534/534/134 535/535/134 536/536/134
f 537/537/135 538/538/135 539/539/135 540/540/135
f 541/541/136 542/542/136 543/543/136 544/544/136
f 545/545/137 546/546/137 547/547/137 548/548/137
f 549/549/138 550/550/138 551/551/138 552/552/138
f 577/577/145 578/578/145 579/579/145 580/580/145
f 581/581/146 582/582/146 583/583/146 584/584/146
f 585/585/147 586/586/147 587/587/147 588/588/147
f 589/589/148 590/590/148 591/591/148 592/592/148
f 593/593/149 594/594/149 595/595/149 596/596/149
f 597/597/150 598/598/150 599/599/150 600/600/150
f 625/625/157 626/626/157 627/627/157 628/628/157
f 629/629/158 630/630/158 631/631/158 632/632/158
f 633/633/159 634/634/159 635/635/159 636/636/159
f 637/637/160 638/638/160 639/639/160 640/640/160
f 641/641/161 642/642/161 643/643/161 644/644/161
f 645/645/162 646/646/162 647/647/162 648/648/162
f 1345/1345/617 1346/1346/617 1347/1347/617 1348/1348/617
f 1349/1349/618 1350/1350/618 1351/1351/618 1352/1352/618
f 1353/1353/619 1354/1354/619 1355/1355/619 1356/1356/619
f 1357/1357/620 1358/1358/620 1359/1359/620 1360/1360/620
f 1361/1361/621 1362/1362/621 1363/1363/621 1364/1364/621
f 1365/1365/622 1366/1366/622 1367/1367/622 1368/1368/622
usemtl steel_dark
f 25/25/7 26/26/7 27/27/7 28/28/7
f 29/29/8 30/30/8 31/31/8 32/32/8
f 33/33/9 34/34/9 35/35/9 36/36/9
f 37/37/10 38/38/10 39/39/10 40/40/10
f 41/41/11 42/42/11 43/43/11 44/44/11
f 45/45/12 46/46/12 47/47/12 48/48/12
f 73/73/19 74/74/19 75/75/19 76/76/19
f 77/77/20 78/78/20 79/79/20 80/80/20
f 81/81/21 82/82/21 83/83/21 84/84/21
f 85/85/22 86/86/22 87/87/22 88/88/22
f 89/89/23 90/90/23 91/91/23 92/92/23
f 93/93/24 94/94/24 95/95/24 96/96/24
f 121/121/31 122/122/31 123/123/31 124/124/31
f 125/125/32 126/126/32 127/127/32 128/128/32
f 129/129/33 130/130/33 131/131/33 132/132/33
f 133/133/34 134/134/34 135/135/34 136/136/34
f 137/137/35 138/138/35 139/139/35 140/140/35
f 141/141/36 142/142/36 143/143/36 144/144/36
f 169/169/43 170/170/43 171/171/43 172/172/43
f 173/173/44 174/174/44 175/175/44 176/176/44
f 177/177/45 178/178/45 179/179/45 180/180/45
f 181/181/46 182/182/46 183/183/46 184/184/46
f 185/185/47 186/186/47 187/187/47 188/188/47
f 189/189/48 190/190/48 191/191/48 192/192/48
f 217/217/55 218/218/55 219/219/55 220/220/55
f 221/221/56 222/222/56 223/223/56 224/224/56
f 225/225/57 226/226/57 227/227/57 228/228/57
f 229/229/58 230/230/58 231/231/58 232/232/58
f 233/233/59 234/234/59 235/235/59 236/236/59
f 237/237/60 238/238/60 239/239/60 240/240/60
f 265/265/67 266/266/67 267/267/67 268/268/67
f 269/269/68 270/270/68 271/271/68 272/272/68
f 273/273/69 274/274/69 275/275/69 276/276/69
f 277/277/70 278/278/70 279/279/70 280/280/70
f 281/281/71 282/282/71 283/283/71 284/284/71
f 285/285/72 286/286/72 287/287/72 288/288/72
f 313/313/79 314/314/79 315/315/79 316/316/79
f 317/317/80 318/318/80 319/319/80 320/320/80
f 321/321/81 322/322/81 323/323/81 324/324/81
f 325/325/82 326/326/82 327/327/82 328/328/82
f 329/329/83 330/330/83 331/331/83 332/332/83
f 333/333/84 334/334/84 335/335/84 336/336/84
f 361/361/91 362/362/91 363/363/91 364/364/91
f 365/365/92 366/366/92 367/367/92 368/368/92
f 369/369/93 370/370/93 371/371/93 372/372/93
f 373/373/94 374/374/94 375/375/94 376/376/94
f 377/377/95 378/378/95 379/379/95 380/380/95
f 381/381/96 382/382/96 383/383/96 384/384/96
f 409/409/103 410/410/103 411/411/103 412/412/103
f 413/413/104 414/414/104 415/415/104 416/416/104
f 417/417/105 418/418/105 419/419/105 420/420/105
f 421/421/106 422/422/106 423/423/106 424/424/106
f 425/425/107 426/426/107 427/427/107 428/428/107
f 429/429/108 430/430/108 431/431/108 432/432/108
f 457/457/115 458/458/115 459/459/115 460/460/115
f 461/461/116 462/462/116 463/463/116 464/464/116
f 465/465/117 466/466/117 467/467/117 468/468/117
f 469/469/118 470/470/118 471/471/118 472/472/118
f 473/473/119 474/474/119 475/475/119 476/476/119
f 477/477/120 478/478/120 479/479/120 480/480/120
f 505/505/127 506/506/127 507/507/127 508/508/127
f 509/509/128 510/510/128 511/511/128 512/512/128
f 513/513/129 514/514/129 515/515/129 516/516/129
f 517/517/130 518/518/130 519/519/130 520/520/130
f 521/521/131 522/522/131 523/523/131 524/524/131
f 525/525/132 526/526/132 527/527/132 528/528/132
f 553/553/139 554/554/139 555/555/139 556/556/139
f 557/557/140 558/558/140 559/559/140 560/560/140
f 561/561/141 562/562/141 563/563/141 564/564/141
f 565/565/142 566/566/142 567/567/142 568/568/142
f 569/569/143 570/570/143 571/571/143 572/572/143
f 573/573/144 574/574/144 575/575/144 576/576/144
f 601/601/151 602/602/151 603/603/151 604/604/151
f 605/605/152 606/606/152 607/607/152 608/608/152
f 609/609/153 610/610/153 611/611/153 612/612/153
f 613/613/154 614/614/154 615/615/154 616/616/154
f 617/617/155 618/618/155 619/619/155 620/620/155
f 621/621/156 622/622/156 623/623/156 624/624/156
f 649/649/163 650/650/163 651/651/163 652/652/163
f 653/653/164 654/654/164 655/655/164 656/656/164
f 657/657/165 658/658/165 659/659/165 660/660/165
f 661/661/166 662/662/166 663/663/166 664/664/166
f 665/665/167 666/666/167 667/667/167 668/668/167
f 669/669/168 670/670/168 671/671/168 672/672/168
usemtl concrete
f 673/673/169 674/674/169 675/675/169 676/676/169
f 677/677/170 678/678/170 679/679/170 680/680/170
f 681/681/171 682/682/171 683/683/171 684/684/171
f 685/685/172 686/686/172 687/687/172 688/688/172
f 689/689/173 690/690/173 691/691/173 692/692/173
f 693/693/174 694/694/174 695/695/174 696/696/174
f 1009/1009/393 1010/1010/393 1011/1011/393 1012/1012/393
f 1013/1013/394 1014/1014/394 1015/1015/394 1016/1016/394
f 1017/1017/395 1018/1018/395 1019/1019/395 1020/1020/395
f 1021/1021/396 1022/1022/396 1023/1023/396 1024/1024/396
f 1025/1025/397 1026/1026/397 1027/1027/397 1028/1028/397
f 1029/1029/398 1030/1030/398 1031/1031/398 1032/1032/398
usemtl steel
f 697/697/175 698/698/176 699/699/177 700/700/178
f 701/701/179 702/702/180 703/703/181 704/704/182
f 705/705/183 706/706/184 707/707/185 708/708/186
f 709/709/187 710/710/188 711/711/189 712/712/190
f 713/713/191 714/714/192 715/715/193 716/716/194
f 717/717/195 718/718/196 719/719/197 720/720/198
f 721/721/199 722/722/200 723/723/201 724/724/202
f 725/725/203 726/726/204 727/727/205 728/728/206
f 729/729/207 730/730/208 731/731/209 732/732/210
f 733/733/211 734/734/212 735/735/213 736/736/214
f 737/737/215 738/738/215 739/739/215 740/740/215 741/741/215 742/742/215 743/743/215 744/744/215 745/745/215 746/746/215
f 747/747/216 748/748/216 749/749/216 750/750/216 751/751/216 752/752/216 753/753/216 754/754/216 755/755/216 756/756/216
f 757/757/217 758/758/218 759/759/219 760/760/220
f 761/761/221 762/762/222 763/763/223 764/764/224
f 765/765/225 766/766/226 767/767/227 768/768/228
f 769/769/229 770/770/230 771/771/231 772/772/232
f 773/773/233 774/774/234 775/775/235 776/776/236
f 777/777/237 778/778/238 779/779/239 780/780/240
f 781/781/241 782/782/242 783/783/243 784/784/244
f 785/785/245 786/786/246 787/787/247 788/788/248
f 789/789/249 790/790/250 791/791/251 792/792/252
f 793/793/253 794/794/254 795/795/255 796/796/256
f 797/797/257 798/798/257 799/799/257 800/800/257 801/801/257 802/802/257 803/803/257 804/804/257 805/805/257 806/806/257
f 807/807/258 808/808/258 809/809/258 810/810/258 811/811/258 812/812/258 813/813/258 814/814/258 815/815/258 816/816/258
f 817/817/259 818/818/260 819/819/261 820/820/262
f 821/821/263 822/822/264 823/823/265 824/824/266
f 825/825/267 826/826/268 827/827/269 828/828/270
f 829/829/271 830/830/272 831/831/273 832/832/274
f 833/833/275 834/834/276 835/835/277 836/836/278
f 837/837/279 838/838/280 839/839/281 840/840/282
f 841/841/283 842/842/284 843/843/285 844/844/286
f 845/845/287 846/846/288 847/847/289 848/848/290
f 849/849/291 850/850/292 851/851/293 852/852/294
f 853/853/295 854/854/296 855/855/297 856/856/298
f 857/857/299 858/858/299 859/859/299 860/860/299 861/861/299 862/862/299 863/863/299 864/864/299 865/865/299 866/866/299
f 867/867/300 868/868/300 869/869/300 870/870/300 871/871/300 872/872/300 873/873/300 874/874/300 875/875/300 876/876/300
f 877/877/301 878/878/302 879/879/303 880/880/304
f 881/881/305 882/882/306 883/883/307 884/884/308
f 885/885/309 886/886/310 887/887/311 888/888/312
f 889/889/313 890/890/314 891/891/315 892/892/316
f 893/893/317 894/894/318 895/895/319 896/896/320
f 897/897/321 898/898/322 899/899/323 900/900/324
f 901/901/325 902/902/326 903/903/327 904/904/328
f 905/905/329 906/906/330 907/907/331 908/908/332
f 909/909/333 910/910/334 911/911/335 912/912/336
f 913/913/337 914/914/338 915/915/339 916/916/340
f 917/917/341 918/918/341 919/919/341 920/920/341 921/921/341 922/922/341 923/923/341 924/924/341 925/925/341 926/926/341
f 927/927/342 928/928/342 929/929/342 930/930/342 931/931/342 932/932/342 933/933/342 934/934/342 935/935/342 936/936/342
f 937/937/343 938/938/344 939/939/345 940/940/346
f 941/941/347 942/942/348 943/943/349 944/944/350
f 945/945/351 946/946/352 947/947/353 948/948/354
f 949/949/355 950/950/356 951/951/357 952/952/358
f 953/953/359 954/954/360 955/955/361 956/956/362
f 957/957/363 958/958/364 959/959/365 960/960/366
f 961/961/367 962/962/368 963/963/369 964/964/370
f 965/965/371 966/966/372 967/967/373 968/968/374
f 969/969/375 970/970/376 971/971/377 972/972/378
f 973/973/379 974/974/380 975/975/381 976/976/382
f 977/977/383 978/978/384 979/979/385 980/980/386
f 981/981/387 982/982/388 983/983/389 984/984/390
f 985/985/391 986/986/391 987/987/391 988/988/391 989/989/391 990/990/391 991/991/391 992/992/391 993/993/391 994/994/391 995/995/391 996/996/391
f 997/997/392 998/998/392 999/999/392 1000/1000/392 1001/1001/392 1002/1002/392 1003/1003/392 1004/1004/392 1005/1005/392 1006/1006/392 1007/1007/392 1008/1008/392
f 1033/1033/399 1034/1034/400 1035/1035/401 1036/1036/402
f 1037/1037/403 1038/1038/404 1039/1039/405 1040/1040/406
f 1041/1041/407 1042/1042/408 1043/1043/409 1044/1044/410
f 1045/1045/411 1046/1046/412 1047/1047/413 1048/1048/414
f 1049/1049/415 1050/1050/416 1051/1051/417 1052/1052/418
f 1053/1053/419 1054/1054/420 1055/1055/421 1056/1056/422
f 1057/1057/423 1058/1058/424 1059/1059/425 1060/1060/426
f 1061/1061/427 1062/1062/428 1063/1063/429 1064/1064/430
f 1065/1065/431 1066/1066/432 1067/1067/433 1068/1068/434
f 1069/1069/435 1070/1070/436 1071/1071/437 1072/1072/438
f 1073/1073/439 1074/1074/439 1075/1075/439 1076/1076/439 1077/1077/439 1078/1078/439 1079/1079/439 1080/1080/439 1081/1081/439 1082/1082/439
f 1083/1083/440 1084/1084/440 1085/1085/440 1086/1086/440 1087/1087/440 1088/1088/440 1089/1089/440 1090/1090/440 1091/1091/440 1092/1092/440
f 1093/1093/441 1094/1094/442 1095/1095/443 1096/1096/444
f 1097/1097/445 1098/1098/446 1099/1099/447 1100/1100/448
f 1101/1101/449 1102/1102/450 1103/1103/451 1104/1104/452
f 1105/1105/453 1106/1106/454 1107/1107/455 1108/1108/456
f 1109/1109/457 1110/1110/458 1111/1111/459 1112/1112/460
f 1113/1113/461 1114/1114/462 1115/1115/463 1116/1116/464
f 1117/1117/465 1118/1118/466 1119/1119/467 1120/1120/468
f 1121/1121/469 1122/1122/470 1123/1123/471 1124/1124/472
f 1125/1125/473 1126/1126/474 1127/1127/475 1128/1128/476
f 1129/1129/477 1130/1130/478 1131/1131/479 1132/1132/480
f 1133/1133/481 1134/1134/481 1135/1135/481 1136/1136/481 1137/1137/481 1138/1138/481 1139/1139/481 1140/1140/481 1141/1141/481 1142/1142/481
f 1143/1143/482 1144/1144/482 1145/1145/482 1146/1146/482 1147/1147/482 1148/1148/482 1149/1149/482 1150/1150/482 1151/1151/482 1152/1152/482
f 1153/1153/483 1154/1154/484 1155/1155/485 1156/1156/486
f 1157/1157/487 1158/1158/488 1159/1159/489 1160/1160/490
f 1161/1161/491 1162/1162/492 1163/1163/493 1164/1164/494
f 1165/1165/495 1166/1166/496 1167/1167/497 1168/1168/498
f 1169/1169/499 1170/1170/500 1171/1171/501 1172/1172/502
f 1173/1173/503 1174/1174/504 1175/1175/505 1176/1176/506
f 1177/1177/507 1178/1178/508 1179/1179/509 1180/1180/510
f 1181/1181/511 1182/1182/512 1183/1183/513 1184/1184/514
f 1185/1185/515 1186/1186/516 1187/1187/517 1188/1188/518
f 1189/1189/519 1190/1190/520 1191/1191/521 1192/1192/522
f 1193/1193/523 1194/1194/523 1195/1195/523 1196/1196/523 1197/1197/523 1198/1198/523 1199/1199/523 1200/1200/523 1201/1201/523 1202/1202/523
f 1203/1203/524 1204/1204/524 1205/1205/524 1206/1206/524 1207/1207/524 1208/1208/524 1209/1209/524 1210/1210/524 1211/1211/524 1212/1212/524
f 1213/1213/525 1214/1214/526 1215/1215/527 1216/1216/528
f 1217/1217/529 1218/1218/530 1219/1219/531 1220/1220/532
f 1221/1221/533 1222/1222/534 1223/1223/535 1224/1224/536
f 1225/1225/537 1226/1226/538 1227/1227/539 1228/1228/540
f 1229/1229/541 1230/1230/542 1231/1231/543 1232/1232/544
f 1233/1233/545 1234/1234/546 1235/1235/547 1236/1236/548
f 1237/1237/549 1238/1238/550 1239/1239/551 1240/1240/552
f 1241/1241/553 1242/1242/554 1243/1243/555 1244/1244/556
f 1245/1245/557 1246/1246/558 1247/1247/559 1248/1248/560
f 1249/1249/561 1250/1250/562 1251/1251/563 1252/1252/564
f 1253/1253/565 1254/1254/565 1255/1255/565 1256/1256/565 1257/1257/565 1258/1258/565 1259/1259/565 1260/1260/565 1261/1261/565 1262/1262/565
f 1263/1263/566 1264/1264/566 1265/1265/566 1266/1266/566 1267/1267/566 1268/1268/566 1269/1269/566 1270/1270/566 1271/1271/566 1272/1272/566
f 1273/1273/567 1274/1274/568 1275/1275/569 1276/1276/570
f 1277/1277/571 1278/1278/572 1279/1279/573 1280/1280/574
f 1281/1281/575 1282/1282/576 1283/1283/577 1284/1284/578
f 1285/1285/579 1286/1286/580 1287/1287/581 1288/1288/582
f 1289/1289/583 1290/1290/584 1291/1291/585 1292/1292/586
f 1293/1293/587 1294/1294/588 1295/1295/589 1296/1296/590
f 1297/1297/591 1298/1298/592 1299/1299/593 1300/1300/594
f 1301/1301/595 1302/1302/596 1303/1303/597 1304/1304/598
f 1305/1305/599 1306/1306/600 1307/1307/601 1308/1308/602
f 1309/1309/603 1310/1310/604 1311/1311/605 1312/1312/606
f 1313/1313/607 1314/1314/608 1315/1315/609 1316/1316/610
f 1317/1317/611 1318/1318/612 1319/1319/613 1320/1320/614
f 1321/1321/615 1322/1322/615 1323/1323/615 1324/1324/615 1325/1325/615 1326/1326/615 1327/1327/615 1328/1328/615 1329/1329/615 1330/1330/615 1331/1331/615 1332/1332/615
f 1333/1333/616 1334/1334/616 1335/1335/616 1336/1336/616 1337/1337/616 1338/1338/616 1339/1339/616 1340/1340/616 1341/1341/616 1342/1342/616 1343/1343/616 1344/1344/616
