# generated by meshlib
mtllib vending_machine.mtl
o vending_machine
v 0.52500 0.03000 -0.33000
v 0.52500 1.89000 -0.33000
v 0.52500 1.89000 0.33000
v 0.52500 0.03000 0.33000
v -0.52500 0.03000 0.33000
v -0.52500 1.89000 0.33000
v -0.52500 1.89000 -0.33000
v -0.52500 0.03000 -0.33000
v -0.49500 1.92000 0.33000
v 0.49500 1.92000 0.33000
v 0.49500 1.92000 -0.33000
v -0.49500 1.92000 -0.33000
v -0.49500 0.00000 -0.33000
v 0.49500 0.00000 -0.33000
v 0.49500 0.00000 0.33000
v -0.49500 0.00000 0.33000
v -0.49500 0.03000 0.36000
v 0.49500 0.03000 0.36000
v 0.49500 1.89000 0.36000
v -0.49500 1.89000 0.36000
v -0.49500 1.89000 -0.36000
v 0.49500 1.89000 -0.36000
v 0.49500 0.03000 -0.36000
v -0.49500 0.03000 -0.36000
v -0.52500 0.00000 -0.33000
v 0.52500 0.00000 -0.33000
v 0.52500 0.03000 -0.36000
v -0.52500 0.03000 -0.36000
v -0.52500 0.00000 0.33000
v 0.52500 0.00000 0.33000
v 0.52500 0.03000 0.36000
v -0.52500 0.03000 0.36000
v -0.52500 1.92000 -0.33000
v 0.52500 1.92000 -0.33000
v 0.52500 1.89000 -0.36000
v -0.52500 1.89000 -0.36000
v -0.52500 1.92000 0.33000
v 0.52500 1.92000 0.33000
v 0.52500 1.89000 0.36000
v -0.52500 1.89000 0.36000
v -0.52500 0.00000 -0.33000
v -0.52500 1.92000 -0.33000
v -0.49500 1.92000 -0.36000
v -0.49500 0.00000 -0.36000
v -0.52500 0.00000 0.33000
v -0.52500 1.92000 0.33000
v -0.49500 1.92000 0.36000
v -0.49500 0.00000 0.36000
v 0.52500 0.00000 -0.33000
v 0.52500 1.92000 -0.33000
v 0.49500 1.92000 -0.36000
v 0.49500 0.00000 -0.36000
v 0.52500 0.00000 0.33000
v 0.52500 1.92000 0.33000
v 0.49500 1.92000 0.36000
v 0.49500 0.00000 0.36000
v -0.52500 0.03000 -0.36000
v -0.52500 0.03000 0.36000
v -0.49500 0.00000 0.36000
v -0.49500 0.00000 -0.36000
v -0.52500 1.89000 -0.36000
v -0.52500 1.89000 0.36000
v -0.49500 1.92000 0.36000
v -0.49500 1.92000 -0.36000
v 0.52500 0.03000 -0.36000
v 0.52500 0.03000 0.36000
v 0.49500 0.00000 0.36000
v 0.49500 0.00000 -0.36000
v 0.52500 1.89000 -0.36000
v 0.52500 1.89000 0.36000
v 0.49500 1.92000 0.36000
v 0.49500 1.92000 -0.36000
v -0.52500 0.03000 -0.33000
v -0.49500 0.00000 -0.33000
v -0.49500 0.03000 -0.36000
v -0.52500 0.03000 0.33000
v -0.49500 0.00000 0.33000
v -0.49500 0.03000 0.36000
v -0.52500 1.89000 -0.33000
v -0.49500 1.92000 -0.33000
v -0.49500 1.89000 -0.36000
v -0.52500 1.89000 0.33000
v -0.49500 1.92000 0.33000
v -0.49500 1.89000 0.36000
v 0.52500 0.03000 -0.33000
v 0.49500 0.00000 -0.33000
v 0.49500 0.03000 -0.36000
v 0.52500 0.03000 0.33000
v 0.49500 0.00000 0.33000
v 0.49500 0.03000 0.36000
v 0.52500 1.89000 -0.33000
v 0.49500 1.92000 -0.33000
v 0.49500 1.89000 -0.36000
v 0.52500 1.89000 0.33000
v 0.49500 1.92000 0.33000
v 0.49500 1.89000 0.36000
v -0.46000 0.60000 0.37000
v 0.22000 0.60000 0.37000
v 0.22000 1.80000 0.37000
v -0.46000 1.80000 0.37000
v 0.21000 0.67000 0.35000
v 0.21000 0.67000 0.13000
v 0.21000 0.69000 0.13000
v 0.21000 0.69000 0.35000
v -0.45000 0.67000 0.13000
v -0.45000 0.67000 0.35000
v -0.45000 0.69000 0.35000
v -0.45000 0.69000 0.13000
v -0.45000 0.69000 0.35000
v 0.21000 0.69000 0.35000
v 0.21000 0.69000 0.13000
v -0.45000 0.69000 0.13000
v -0.45000 0.67000 0.13000
v 0.21000 0.67000 0.13000
v 0.21000 0.67000 0.35000
v -0.45000 0.67000 0.35000
v -0.45000 0.67000 0.35000
v 0.21000 0.67000 0.35000
v 0.21000 0.69000 0.35000
v -0.45000 0.69000 0.35000
v 0.21000 0.67000 0.13000
v -0.45000 0.67000 0.13000
v -0.45000 0.69000 0.13000
v 0.21000 0.69000 0.13000
v -0.35500 0.69500 0.26500
v -0.35500 0.69500 0.17500
v -0.35500 0.86500 0.17500
v -0.35500 0.86500 0.26500
v -0.44500 0.69500 0.17500
v -0.44500 0.69500 0.26500
v -0.44500 0.86500 0.26500
v -0.44500 0.86500 0.17500
v -0.44500 0.86500 0.26500
v -0.35500 0.86500 0.26500
v -0.35500 0.86500 0.17500
v -0.44500 0.86500 0.17500
v -0.44500 0.69500 0.17500
v -0.35500 0.69500 0.17500
v -0.35500 0.69500 0.26500
v -0.44500 0.69500 0.26500
v -0.44500 0.69500 0.26500
v -0.35500 0.69500 0.26500
v -0.35500 0.86500 0.26500
v -0.44500 0.86500 0.26500
v -0.35500 0.69500 0.17500
v -0.44500 0.69500 0.17500
v -0.44500 0.86500 0.17500
v -0.35500 0.86500 0.17500
v -0.21500 0.69500 0.26500
v -0.21500 0.69500 0.17500
v -0.21500 0.86500 0.17500
v -0.21500 0.86500 0.26500
v -0.30500 0.69500 0.17500
v -0.30500 0.69500 0.26500
v -0.30500 0.86500 0.26500
v -0.30500 0.86500 0.17500
v -0.30500 0.86500 0.26500
v -0.21500 0.86500 0.26500
v -0.21500 0.86500 0.17500
v -0.30500 0.86500 0.17500
v -0.30500 0.69500 0.17500
v -0.21500 0.69500 0.17500
v -0.21500 0.69500 0.26500
v -0.30500 0.69500 0.26500
v -0.30500 0.69500 0.26500
v -0.21500 0.69500 0.26500
v -0.21500 0.86500 0.26500
v -0.30500 0.86500 0.26500
v -0.21500 0.69500 0.17500
v -0.30500 0.69500 0.17500
v -0.30500 0.86500 0.17500
v -0.21500 0.86500 0.17500
v -0.07500 0.69500 0.26500
v -0.07500 0.69500 0.17500
v -0.07500 0.86500 0.17500
v -0.07500 0.86500 0.26500
v -0.16500 0.69500 0.17500
v -0.16500 0.69500 0.26500
v -0.16500 0.86500 0.26500
v -0.16500 0.86500 0.17500
v -0.16500 0.86500 0.26500
v -0.07500 0.86500 0.26500
v -0.07500 0.86500 0.17500
v -0.16500 0.86500 0.17500
v -0.16500 0.69500 0.17500
v -0.07500 0.69500 0.17500
v -0.07500 0.69500 0.26500
v -0.16500 0.69500 0.26500
v -0.16500 0.69500 0.26500
v -0.07500 0.69500 0.26500
v -0.07500 0.86500 0.26500
v -0.16500 0.86500 0.26500
v -0.07500 0.69500 0.17500
v -0.16500 0.69500 0.17500
v -0.16500 0.86500 0.17500
v -0.07500 0.86500 0.17500
v 0.06500 0.69500 0.26500
v 0.06500 0.69500 0.17500
v 0.06500 0.86500 0.17500
v 0.06500 0.86500 0.26500
v -0.02500 0.69500 0.17500
v -0.02500 0.69500 0.26500
v -0.02500 0.86500 0.26500
v -0.02500 0.86500 0.17500
v -0.02500 0.86500 0.26500
v 0.06500 0.86500 0.26500
v 0.06500 0.86500 0.17500
v -0.02500 0.86500 0.17500
v -0.02500 0.69500 0.17500
v 0.06500 0.69500 0.17500
v 0.06500 0.69500 0.26500
v -0.02500 0.69500 0.26500
v -0.02500 0.69500 0.26500
v 0.06500 0.69500 0.26500
v 0.06500 0.86500 0.26500
v -0.02500 0.86500 0.26500
v 0.06500 0.69500 0.17500
v -0.02500 0.69500 0.17500
v -0.02500 0.86500 0.17500
v 0.06500 0.86500 0.17500
v 0.20500 0.69500 0.26500
v 0.20500 0.69500 0.17500
v 0.20500 0.86500 0.17500
v 0.20500 0.86500 0.26500
v 0.11500 0.69500 0.17500
v 0.11500 0.69500 0.26500
v 0.11500 0.86500 0.26500
v 0.11500 0.86500 0.17500
v 0.11500 0.86500 0.26500
v 0.20500 0.86500 0.26500
v 0.20500 0.86500 0.17500
v 0.11500 0.86500 0.17500
v 0.11500 0.69500 0.17500
v 0.20500 0.69500 0.17500
v 0.20500 0.69500 0.26500
v 0.11500 0.69500 0.26500
v 0.11500 0.69500 0.26500
v 0.20500 0.69500 0.26500
v 0.20500 0.86500 0.26500
v 0.11500 0.86500 0.26500
v 0.20500 0.69500 0.17500
v 0.11500 0.69500 0.17500
v 0.11500 0.86500 0.17500
v 0.20500 0.86500 0.17500
v 0.21000 0.91000 0.35000
v 0.21000 0.91000 0.13000
v 0.21000 0.93000 0.13000
v 0.21000 0.93000 0.35000
v -0.45000 0.91000 0.13000
v -0.45000 0.91000 0.35000
v -0.45000 0.93000 0.35000
v -0.45000 0.93000 0.13000
v -0.45000 0.93000 0.35000
v 0.21000 0.93000 0.35000
v 0.21000 0.93000 0.13000
v -0.45000 0.93000 0.13000
v -0.45000 0.91000 0.13000
v 0.21000 0.91000 0.13000
v 0.21000 0.91000 0.35000
v -0.45000 0.91000 0.35000
v -0.45000 0.91000 0.35000
v 0.21000 0.91000 0.35000
v 0.21000 0.93000 0.35000
v -0.45000 0.93000 0.35000
v 0.21000 0.91000 0.13000
v -0.45000 0.91000 0.13000
v -0.45000 0.93000 0.13000
v 0.21000 0.93000 0.13000
v -0.35500 0.93500 0.26500
v -0.35500 0.93500 0.17500
v -0.35500 1.10500 0.17500
v -0.35500 1.10500 0.26500
v -0.44500 0.93500 0.17500
v -0.44500 0.93500 0.26500
v -0.44500 1.10500 0.26500
v -0.44500 1.10500 0.17500
v -0.44500 1.10500 0.26500
v -0.35500 1.10500 0.26500
v -0.35500 1.10500 0.17500
v -0.44500 1.10500 0.17500
v -0.44500 0.93500 0.17500
v -0.35500 0.93500 0.17500
v -0.35500 0.93500 0.26500
v -0.44500 0.93500 0.26500
v -0.44500 0.93500 0.26500
v -0.35500 0.93500 0.26500
v -0.35500 1.10500 0.26500
v -0.44500 1.10500 0.26500
v -0.35500 0.93500 0.17500
v -0.44500 0.93500 0.17500
v -0.44500 1.10500 0.17500
v -0.35500 1.10500 0.17500
v -0.21500 0.93500 0.26500
v -0.21500 0.93500 0.17500
v -0.21500 1.10500 0.17500
v -0.21500 1.10500 0.26500
v -0.30500 0.93500 0.17500
v -0.30500 0.93500 0.26500
v -0.30500 1.10500 0.26500
v -0.30500 1.10500 0.17500
v -0.30500 1.10500 0.26500
v -0.21500 1.10500 0.26500
v -0.21500 1.10500 0.17500
v -0.30500 1.10500 0.17500
v -0.30500 0.93500 0.17500
v -0.21500 0.93500 0.17500
v -0.21500 0.93500 0.26500
v -0.30500 0.93500 0.26500
v -0.30500 0.93500 0.26500
v -0.21500 0.93500 0.26500
v -0.21500 1.10500 0.26500
v -0.30500 1.10500 0.26500
v -0.21500 0.93500 0.17500
v -0.30500 0.93500 0.17500
v -0.30500 1.10500 0.17500
v -0.21500 1.10500 0.17500
v -0.07500 0.93500 0.26500
v -0.07500 0.93500 0.17500
v -0.07500 1.10500 0.17500
v -0.07500 1.10500 0.26500
v -0.16500 0.93500 0.17500
v -0.16500 0.93500 0.26500
v -0.16500 1.10500 0.26500
v -0.16500 1.10500 0.17500
v -0.16500 1.10500 0.26500
v -0.07500 1.10500 0.26500
v -0.07500 1.10500 0.17500
v -0.16500 1.10500 0.17500
v -0.16500 0.93500 0.17500
v -0.07500 0.93500 0.17500
v -0.07500 0.93500 0.26500
v -0.16500 0.93500 0.26500
v -0.16500 0.93500 0.26500
v -0.07500 0.93500 0.26500
v -0.07500 1.10500 0.26500
v -0.16500 1.10500 0.26500
v -0.07500 0.93500 0.17500
v -0.16500 0.93500 0.17500
v -0.16500 1.10500 0.17500
v -0.07500 1.10500 0.17500
v 0.06500 0.93500 0.26500
v 0.06500 0.93500 0.17500
v 0.06500 1.10500 0.17500
v 0.06500 1.10500 0.26500
v -0.02500 0.93500 0.17500
v -0.02500 0.93500 0.26500
v -0.02500 1.10500 0.26500
v -0.02500 1.10500 0.17500
v -0.02500 1.10500 0.26500
v 0.06500 1.10500 0.26500
v 0.06500 1.10500 0.17500
v -0.02500 1.10500 0.17500
v -0.02500 0.93500 0.17500
v 0.06500 0.93500 0.17500
v 0.06500 0.93500 0.26500
v -0.02500 0.93500 0.26500
v -0.02500 0.93500 0.26500
v 0.06500 0.93500 0.26500
v 0.06500 1.10500 0.26500
v -0.02500 1.10500 0.26500
v 0.06500 0.93500 0.17500
v -0.02500 0.93500 0.17500
v -0.02500 1.10500 0.17500
v 0.06500 1.10500 0.17500
v 0.20500 0.93500 0.26500
v 0.20500 0.93500 0.17500
v 0.20500 1.10500 0.17500
v 0.20500 1.10500 0.26500
v 0.11500 0.93500 0.17500
v 0.11500 0.93500 0.26500
v 0.11500 1.10500 0.26500
v 0.11500 1.10500 0.17500
v 0.11500 1.10500 0.26500
v 0.20500 1.10500 0.26500
v 0.20500 1.10500 0.17500
v 0.11500 1.10500 0.17500
v 0.11500 0.93500 0.17500
v 0.20500 0.93500 0.17500
v 0.20500 0.93500 0.26500
v 0.11500 0.93500 0.26500
v 0.11500 0.93500 0.26500
v 0.20500 0.93500 0.26500
v 0.20500 1.10500 0.26500
v 0.11500 1.10500 0.26500
v 0.20500 0.93500 0.17500
v 0.11500 0.93500 0.17500
v 0.11500 1.10500 0.17500
v 0.20500 1.10500 0.17500
v 0.21000 1.15000 0.35000
v 0.21000 1.15000 0.13000
v 0.21000 1.17000 0.13000
v 0.21000 1.17000 0.35000
v -0.45000 1.15000 0.13000
v -0.45000 1.15000 0.35000
v -0.45000 1.17000 0.35000
v -0.45000 1.17000 0.13000
v -0.45000 1.17000 0.35000
v 0.21000 1.17000 0.35000
v 0.21000 1.17000 0.13000
v -0.45000 1.17000 0.13000
v -0.45000 1.15000 0.13000
v 0.21000 1.15000 0.13000
v 0.21000 1.15000 0.35000
v -0.45000 1.15000 0.35000
v -0.45000 1.15000 0.35000
v 0.21000 1.15000 0.35000
v 0.21000 1.17000 0.35000
v -0.45000 1.17000 0.35000
v 0.21000 1.15000 0.13000
v -0.45000 1.15000 0.13000
v -0.45000 1.17000 0.13000
v 0.21000 1.17000 0.13000
v -0.35500 1.17500 0.26500
v -0.35500 1.17500 0.17500
v -0.35500 1.34500 0.17500
v -0.35500 1.34500 0.26500
v -0.44500 1.17500 0.17500
v -0.44500 1.17500 0.26500
v -0.44500 1.34500 0.26500
v -0.44500 1.34500 0.17500
v -0.44500 1.34500 0.26500
v -0.35500 1.34500 0.26500
v -0.35500 1.34500 0.17500
v -0.44500 1.34500 0.17500
v -0.44500 1.17500 0.17500
v -0.35500 1.17500 0.17500
v -0.35500 1.17500 0.26500
v -0.44500 1.17500 0.26500
v -0.44500 1.17500 0.26500
v -0.35500 1.17500 0.26500
v -0.35500 1.34500 0.26500
v -0.44500 1.34500 0.26500
v -0.35500 1.17500 0.17500
v -0.44500 1.17500 0.17500
v -0.44500 1.34500 0.17500
v -0.35500 1.34500 0.17500
v -0.21500 1.17500 0.26500
v -0.21500 1.17500 0.17500
v -0.21500 1.34500 0.17500
v -0.21500 1.34500 0.26500
v -0.30500 1.17500 0.17500
v -0.30500 1.17500 0.26500
v -0.30500 1.34500 0.26500
v -0.30500 1.34500 0.17500
v -0.30500 1.34500 0.26500
v -0.21500 1.34500 0.26500
v -0.21500 1.34500 0.17500
v -0.30500 1.34500 0.17500
v -0.30500 1.17500 0.17500
v -0.21500 1.17500 0.17500
v -0.21500 1.17500 0.26500
v -0.30500 1.17500 0.26500
v -0.30500 1.17500 0.26500
v -0.21500 1.17500 0.26500
v -0.21500 1.34500 0.26500
v -0.30500 1.34500 0.26500
v -0.21500 1.17500 0.17500
v -0.30500 1.17500 0.17500
v -0.30500 1.34500 0.17500
v -0.21500 1.34500 0.17500
v -0.07500 1.17500 0.26500
v -0.07500 1.17500 0.17500
v -0.07500 1.34500 0.17500
v -0.07500 1.34500 0.26500
v -0.16500 1.17500 0.17500
v -0.16500 1.17500 0.26500
v -0.16500 1.34500 0.26500
v -0.16500 1.34500 0.17500
v -0.16500 1.34500 0.26500
v -0.07500 1.34500 0.26500
v -0.07500 1.34500 0.17500
v -0.16500 1.34500 0.17500
v -0.16500 1.17500 0.17500
v -0.07500 1.17500 0.17500
v -0.07500 1.17500 0.26500
v -0.16500 1.17500 0.26500
v -0.16500 1.17500 0.26500
v -0.07500 1.17500 0.26500
v -0.07500 1.34500 0.26500
v -0.16500 1.34500 0.26500
v -0.07500 1.17500 0.17500
v -0.16500 1.17500 0.17500
v -0.16500 1.34500 0.17500
v -0.07500 1.34500 0.17500
v 0.06500 1.17500 0.26500
v 0.06500 1.17500 0.17500
v 0.06500 1.34500 0.17500
v 0.06500 1.34500 0.26500
v -0.02500 1.17500 0.17500
v -0.02500 1.17500 0.26500
v -0.02500 1.34500 0.26500
v -0.02500 1.34500 0.17500
v -0.02500 1.34500 0.26500
v 0.06500 1.34500 0.26500
v 0.06500 1.34500 0.17500
v -0.02500 1.34500 0.17500
v -0.02500 1.17500 0.17500
v 0.06500 1.17500 0.17500
v 0.06500 1.17500 0.26500
v -0.02500 1.17500 0.26500
v -0.02500 1.17500 0.26500
v 0.06500 1.17500 0.26500
v 0.06500 1.34500 0.26500
v -0.02500 1.34500 0.26500
v 0.06500 1.17500 0.17500
v -0.02500 1.17500 0.17500
v -0.02500 1.34500 0.17500
v 0.06500 1.34500 0.17500
v 0.20500 1.17500 0.26500
v 0.20500 1.17500 0.17500
v 0.20500 1.34500 0.17500
v 0.20500 1.34500 0.26500
v 0.11500 1.17500 0.17500
v 0.11500 1.17500 0.26500
v 0.11500 1.34500 0.26500
v 0.11500 1.34500 0.17500
v 0.11500 1.34500 0.26500
v 0.20500 1.34500 0.26500
v 0.20500 1.34500 0.17500
v 0.11500 1.34500 0.17500
v 0.11500 1.17500 0.17500
v 0.20500 1.17500 0.17500
v 0.20500 1.17500 0.26500
v 0.11500 1.17500 0.26500
v 0.11500 1.17500 0.26500
v 0.20500 1.17500 0.26500
v 0.20500 1.34500 0.26500
v 0.11500 1.34500 0.26500
v 0.20500 1.17500 0.17500
v 0.11500 1.17500 0.17500
v 0.11500 1.34500 0.17500
v 0.20500 1.34500 0.17500
v 0.21000 1.39000 0.35000
v 0.21000 1.39000 0.13000
v 0.21000 1.41000 0.13000
v 0.21000 1.41000 0.35000
v -0.45000 1.39000 0.13000
v -0.45000 1.39000 0.35000
v -0.45000 1.41000 0.35000
v -0.45000 1.41000 0.13000
v -0.45000 1.41000 0.35000
v 0.21000 1.41000 0.35000
v 0.21000 1.41000 0.13000
v -0.45000 1.41000 0.13000
v -0.45000 1.39000 0.13000
v 0.21000 1.39000 0.13000
v 0.21000 1.39000 0.35000
v -0.45000 1.39000 0.35000
v -0.45000 1.39000 0.35000
v 0.21000 1.39000 0.35000
v 0.21000 1.41000 0.35000
v -0.45000 1.41000 0.35000
v 0.21000 1.39000 0.13000
v -0.45000 1.39000 0.13000
v -0.45000 1.41000 0.13000
v 0.21000 1.41000 0.13000
v -0.35500 1.41500 0.26500
v -0.35500 1.41500 0.17500
v -0.35500 1.58500 0.17500
v -0.35500 1.58500 0.26500
v -0.44500 1.41500 0.17500
v -0.44500 1.41500 0.26500
v -0.44500 1.58500 0.26500
v -0.44500 1.58500 0.17500
v -0.44500 1.58500 0.26500
v -0.35500 1.58500 0.26500
v -0.35500 1.58500 0.17500
v -0.44500 1.58500 0.17500
v -0.44500 1.41500 0.17500
v -0.35500 1.41500 0.17500
v -0.35500 1.41500 0.26500
v -0.44500 1.41500 0.26500
v -0.44500 1.41500 0.26500
v -0.35500 1.41500 0.26500
v -0.35500 1.58500 0.26500
v -0.44500 1.58500 0.26500
v -0.35500 1.41500 0.17500
v -0.44500 1.41500 0.17500
v -0.44500 1.58500 0.17500
v -0.35500 1.58500 0.17500
v -0.21500 1.41500 0.26500
v -0.21500 1.41500 0.17500
v -0.21500 1.58500 0.17500
v -0.21500 1.58500 0.26500
v -0.30500 1.41500 0.17500
v -0.30500 1.41500 0.26500
v -0.30500 1.58500 0.26500
v -0.30500 1.58500 0.17500
v -0.30500 1.58500 0.26500
v -0.21500 1.58500 0.26500
v -0.21500 1.58500 0.17500
v -0.30500 1.58500 0.17500
v -0.30500 1.41500 0.17500
v -0.21500 1.41500 0.17500
v -0.21500 1.41500 0.26500
v -0.30500 1.41500 0.26500
v -0.30500 1.41500 0.26500
v -0.21500 1.41500 0.26500
v -0.21500 1.58500 0.26500
v -0.30500 1.58500 0.26500
v -0.21500 1.41500 0.17500
v -0.30500 1.41500 0.17500
v -0.30500 1.58500 0.17500
v -0.21500 1.58500 0.17500
v -0.07500 1.41500 0.26500
v -0.07500 1.41500 0.17500
v -0.07500 1.58500 0.17500
v -0.07500 1.58500 0.26500
v -0.16500 1.41500 0.17500
v -0.16500 1.41500 0.26500
v -0.16500 1.58500 0.26500
v -0.16500 1.58500 0.17500
v -0.16500 1.58500 0.26500
v -0.07500 1.58500 0.26500
v -0.07500 1.58500 0.17500
v -0.16500 1.58500 0.17500
v -0.16500 1.41500 0.17500
v -0.07500 1.41500 0.17500
v -0.07500 1.41500 0.26500
v -0.16500 1.41500 0.26500
v -0.16500 1.41500 0.26500
v -0.07500 1.41500 0.26500
v -0.07500 1.58500 0.26500
v -0.16500 1.58500 0.26500
v -0.07500 1.41500 0.17500
v -0.16500 1.41500 0.17500
v -0.16500 1.58500 0.17500
v -0.07500 1.58500 0.17500
v 0.06500 1.41500 0.26500
v 0.06500 1.41500 0.17500
v 0.06500 1.58500 0.17500
v 0.06500 1.58500 0.26500
v -0.02500 1.41500 0.17500
v -0.02500 1.41500 0.26500
v -0.02500 1.58500 0.26500
v -0.02500 1.58500 0.17500
v -0.02500 1.58500 0.26500
v 0.06500 1.58500 0.26500
v 0.06500 1.58500 0.17500
v -0.02500 1.58500 0.17500
v -0.02500 1.41500 0.17500
v 0.06500 1.41500 0.17500
v 0.06500 1.41500 0.26500
v -0.02500 1.41500 0.26500
v -0.02500 1.41500 0.26500
v 0.06500 1.41500 0.26500
v 0.06500 1.58500 0.26500
v -0.02500 1.58500 0.26500
v 0.06500 1.41500 0.17500
v -0.02500 1.41500 0.17500
v -0.02500 1.58500 0.17500
v 0.06500 1.58500 0.17500
v 0.20500 1.41500 0.26500
v 0.20500 1.41500 0.17500
v 0.20500 1.58500 0.17500
v 0.20500 1.58500 0.26500
v 0.11500 1.41500 0.17500
v 0.11500 1.41500 0.26500
v 0.11500 1.58500 0.26500
v 0.11500 1.58500 0.17500
v 0.11500 1.58500 0.26500
v 0.20500 1.58500 0.26500
v 0.20500 1.58500 0.17500
v 0.11500 1.58500 0.17500
v 0.11500 1.41500 0.17500
v 0.20500 1.41500 0.17500
v 0.20500 1.41500 0.26500
v 0.11500 1.41500 0.26500
v 0.11500 1.41500 0.26500
v 0.20500 1.41500 0.26500
v 0.20500 1.58500 0.26500
v 0.11500 1.58500 0.26500
v 0.20500 1.41500 0.17500
v 0.11500 1.41500 0.17500
v 0.11500 1.58500 0.17500
v 0.20500 1.58500 0.17500
v 0.21000 1.63000 0.35000
v 0.21000 1.63000 0.13000
v 0.21000 1.65000 0.13000
v 0.21000 1.65000 0.35000
v -0.45000 1.63000 0.13000
v -0.45000 1.63000 0.35000
v -0.45000 1.65000 0.35000
v -0.45000 1.65000 0.13000
v -0.45000 1.65000 0.35000
v 0.21000 1.65000 0.35000
v 0.21000 1.65000 0.13000
v -0.45000 1.65000 0.13000
v -0.45000 1.63000 0.13000
v 0.21000 1.63000 0.13000
v 0.21000 1.63000 0.35000
v -0.45000 1.63000 0.35000
v -0.45000 1.63000 0.35000
v 0.21000 1.63000 0.35000
v 0.21000 1.65000 0.35000
v -0.45000 1.65000 0.35000
v 0.21000 1.63000 0.13000
v -0.45000 1.63000 0.13000
v -0.45000 1.65000 0.13000
v 0.21000 1.65000 0.13000
v -0.35500 1.65500 0.26500
v -0.35500 1.65500 0.17500
v -0.35500 1.82500 0.17500
v -0.35500 1.82500 0.26500
v -0.44500 1.65500 0.17500
v -0.44500 1.65500 0.26500
v -0.44500 1.82500 0.26500
v -0.44500 1.82500 0.17500
v -0.44500 1.82500 0.26500
v -0.35500 1.82500 0.26500
v -0.35500 1.82500 0.17500
v -0.44500 1.82500 0.17500
v -0.44500 1.65500 0.17500
v -0.35500 1.65500 0.17500
v -0.35500 1.65500 0.26500
v -0.44500 1.65500 0.26500
v -0.44500 1.65500 0.26500
v -0.35500 1.65500 0.26500
v -0.35500 1.82500 0.26500
v -0.44500 1.82500 0.26500
v -0.35500 1.65500 0.17500
v -0.44500 1.65500 0.17500
v -0.44500 1.82500 0.17500
v -0.35500 1.82500 0.17500
v -0.21500 1.65500 0.26500
v -0.21500 1.65500 0.17500
v -0.21500 1.82500 0.17500
v -0.21500 1.82500 0.26500
v -0.30500 1.65500 0.17500
v -0.30500 1.65500 0.26500
v -0.30500 1.82500 0.26500
v -0.30500 1.82500 0.17500
v -0.30500 1.82500 0.26500
v -0.21500 1.82500 0.26500
v -0.21500 1.82500 0.17500
v -0.30500 1.82500 0.17500
v -0.30500 1.65500 0.17500
v -0.21500 1.65500 0.17500
v -0.21500 1.65500 0.26500
v -0.30500 1.65500 0.26500
v -0.30500 1.65500 0.26500
v -0.21500 1.65500 0.26500
v -0.21500 1.82500 0.26500
v -0.30500 1.82500 0.26500
v -0.21500 1.65500 0.17500
v -0.30500 1.65500 0.17500
v -0.30500 1.82500 0.17500
v -0.21500 1.82500 0.17500
v -0.07500 1.65500 0.26500
v -0.07500 1.65500 0.17500
v -0.07500 1.82500 0.17500
v -0.07500 1.82500 0.26500
v -0.16500 1.65500 0.17500
v -0.16500 1.65500 0.26500
v -0.16500 1.82500 0.26500
v -0.16500 1.82500 0.17500
v -0.16500 1.82500 0.26500
v -0.07500 1.82500 0.26500
v -0.07500 1.82500 0.17500
v -0.16500 1.82500 0.17500
v -0.16500 1.65500 0.17500
v -0.07500 1.65500 0.17500
v -0.07500 1.65500 0.26500
v -0.16500 1.65500 0.26500
v -0.16500 1.65500 0.26500
v -0.07500 1.65500 0.26500
v -0.07500 1.82500 0.26500
v -0.16500 1.82500 0.26500
v -0.07500 1.65500 0.17500
v -0.16500 1.65500 0.17500
v -0.16500 1.82500 0.17500
v -0.07500 1.82500 0.17500
v 0.06500 1.65500 0.26500
v 0.06500 1.65500 0.17500
v 0.06500 1.82500 0.17500
v 0.06500 1.82500 0.26500
v -0.02500 1.65500 0.17500
v -0.02500 1.65500 0.26500
v -0.02500 1.82500 0.26500
v -0.02500 1.82500 0.17500
v -0.02500 1.82500 0.26500
v 0.06500 1.82500 0.26500
v 0.06500 1.82500 0.17500
v -0.02500 1.82500 0.17500
v -0.02500 1.65500 0.17500
v 0.06500 1.65500 0.17500
v 0.06500 1.65500 0.26500
v -0.02500 1.65500 0.26500
v -0.02500 1.65500 0.26500
v 0.06500 1.65500 0.26500
v 0.06500 1.82500 0.26500
v -0.02500 1.82500 0.26500
v 0.06500 1.65500 0.17500
v -0.02500 1.65500 0.17500
v -0.02500 1.82500 0.17500
v 0.06500 1.82500 0.17500
v 0.20500 1.65500 0.26500
v 0.20500 1.65500 0.17500
v 0.20500 1.82500 0.17500
v 0.20500 1.82500 0.26500
v 0.11500 1.65500 0.17500
v 0.11500 1.65500 0.26500
v 0.11500 1.82500 0.26500
v 0.11500 1.82500 0.17500
v 0.11500 1.82500 0.26500
v 0.20500 1.82500 0.26500
v 0.20500 1.82500 0.17500
v 0.11500 1.82500 0.17500
v 0.11500 1.65500 0.17500
v 0.20500 1.65500 0.17500
v 0.20500 1.65500 0.26500
v 0.11500 1.65500 0.26500
v 0.11500 1.65500 0.26500
v 0.20500 1.65500 0.26500
v 0.20500 1.82500 0.26500
v 0.11500 1.82500 0.26500
v 0.20500 1.65500 0.17500
v 0.11500 1.65500 0.17500
v 0.11500 1.82500 0.17500
v 0.20500 1.82500 0.17500
v 0.49000 0.75000 0.38500
v 0.49000 0.75000 0.35500
v 0.49000 1.85000 0.35500
v 0.49000 1.85000 0.38500
v 0.23000 0.75000 0.35500
v 0.23000 0.75000 0.38500
v 0.23000 1.85000 0.38500
v 0.23000 1.85000 0.35500
v 0.23000 1.85000 0.38500
v 0.49000 1.85000 0.38500
v 0.49000 1.85000 0.35500
v 0.23000 1.85000 0.35500
v 0.23000 0.75000 0.35500
v 0.49000 0.75000 0.35500
v 0.49000 0.75000 0.38500
v 0.23000 0.75000 0.38500
v 0.23000 0.75000 0.38500
v 0.49000 0.75000 0.38500
v 0.49000 1.85000 0.38500
v 0.23000 1.85000 0.38500
v 0.49000 0.75000 0.35500
v 0.23000 0.75000 0.35500
v 0.23000 1.85000 0.35500
v 0.49000 1.85000 0.35500
v 0.46000 1.58000 0.40000
v 0.46000 1.58000 0.38000
v 0.46000 1.74000 0.38000
v 0.46000 1.74000 0.40000
v 0.26000 1.58000 0.38000
v 0.26000 1.58000 0.40000
v 0.26000 1.74000 0.40000
v 0.26000 1.74000 0.38000
v 0.26000 1.74000 0.40000
v 0.46000 1.74000 0.40000
v 0.46000 1.74000 0.38000
v 0.26000 1.74000 0.38000
v 0.26000 1.58000 0.38000
v 0.46000 1.58000 0.38000
v 0.46000 1.58000 0.40000
v 0.26000 1.58000 0.40000
v 0.26000 1.58000 0.40000
v 0.46000 1.58000 0.40000
v 0.46000 1.74000 0.40000
v 0.26000 1.74000 0.40000
v 0.46000 1.58000 0.38000
v 0.26000 1.58000 0.38000
v 0.26000 1.74000 0.38000
v 0.46000 1.74000 0.38000
v 0.30750 1.41250 0.40100
v 0.30750 1.41250 0.38900
v 0.30750 1.46750 0.38900
v 0.30750 1.46750 0.40100
v 0.25250 1.41250 0.38900
v 0.25250 1.41250 0.40100
v 0.25250 1.46750 0.40100
v 0.25250 1.46750 0.38900
v 0.25250 1.46750 0.40100
v 0.30750 1.46750 0.40100
v 0.30750 1.46750 0.38900
v 0.25250 1.46750 0.38900
v 0.25250 1.41250 0.38900
v 0.30750 1.41250 0.38900
v 0.30750 1.41250 0.40100
v 0.25250 1.41250 0.40100
v 0.25250 1.41250 0.40100
v 0.30750 1.41250 0.40100
v 0.30750 1.46750 0.40100
v 0.25250 1.46750 0.40100
v 0.30750 1.41250 0.38900
v 0.25250 1.41250 0.38900
v 0.25250 1.46750 0.38900
v 0.30750 1.46750 0.38900
v 0.38750 1.41250 0.40100
v 0.38750 1.41250 0.38900
v 0.38750 1.46750 0.38900
v 0.38750 1.46750 0.40100
v 0.33250 1.41250 0.38900
v 0.33250 1.41250 0.40100
v 0.33250 1.46750 0.40100
v 0.33250 1.46750 0.38900
v 0.33250 1.46750 0.40100
v 0.38750 1.46750 0.40100
v 0.38750 1.46750 0.38900
v 0.33250 1.46750 0.38900
v 0.33250 1.41250 0.38900
v 0.38750 1.41250 0.38900
v 0.38750 1.41250 0.40100
v 0.33250 1.41250 0.40100
v 0.33250 1.41250 0.40100
v 0.38750 1.41250 0.40100
v 0.38750 1.46750 0.40100
v 0.33250 1.46750 0.40100
v 0.38750 1.41250 0.38900
v 0.33250 1.41250 0.38900
v 0.33250 1.46750 0.38900
v 0.38750 1.46750 0.38900
v 0.46750 1.41250 0.40100
v 0.46750 1.41250 0.38900
v 0.46750 1.46750 0.38900
v 0.46750 1.46750 0.40100
v 0.41250 1.41250 0.38900
v 0.41250 1.41250 0.40100
v 0.41250 1.46750 0.40100
v 0.41250 1.46750 0.38900
v 0.41250 1.46750 0.40100
v 0.46750 1.46750 0.40100
v 0.46750 1.46750 0.38900
v 0.41250 1.46750 0.38900
v 0.41250 1.41250 0.38900
v 0.46750 1.41250 0.38900
v 0.46750 1.41250 0.40100
v 0.41250 1.41250 0.40100
v 0.41250 1.41250 0.40100
v 0.46750 1.41250 0.40100
v 0.46750 1.46750 0.40100
v 0.41250 1.46750 0.40100
v 0.46750 1.41250 0.38900
v 0.41250 1.41250 0.38900
v 0.41250 1.46750 0.38900
v 0.46750 1.46750 0.38900
v 0.30750 1.32250 0.40100
v 0.30750 1.32250 0.38900
v 0.30750 1.37750 0.38900
v 0.30750 1.37750 0.40100
v 0.25250 1.32250 0.38900
v 0.25250 1.32250 0.40100
v 0.25250 1.37750 0.40100
v 0.25250 1.37750 0.38900
v 0.25250 1.37750 0.40100
v 0.30750 1.37750 0.40100
v 0.30750 1.37750 0.38900
v 0.25250 1.37750 0.38900
v 0.25250 1.32250 0.38900
v 0.30750 1.32250 0.38900
v 0.30750 1.32250 0.40100
v 0.25250 1.32250 0.40100
v 0.25250 1.32250 0.40100
v 0.30750 1.32250 0.40100
v 0.30750 1.37750 0.40100
v 0.25250 1.37750 0.40100
v 0.30750 1.32250 0.38900
v 0.25250 1.32250 0.38900
v 0.25250 1.37750 0.38900
v 0.30750 1.37750 0.38900
v 0.38750 1.32250 0.40100
v 0.38750 1.32250 0.38900
v 0.38750 1.37750 0.38900
v 0.38750 1.37750 0.40100
v 0.33250 1.32250 0.38900
v 0.33250 1.32250 0.40100
v 0.33250 1.37750 0.40100
v 0.33250 1.37750 0.38900
v 0.33250 1.37750 0.40100
v 0.38750 1.37750 0.40100
v 0.38750 1.37750 0.38900
v 0.33250 1.37750 0.38900
v 0.33250 1.32250 0.38900
v 0.38750 1.32250 0.38900
v 0.38750 1.32250 0.40100
v 0.33250 1.32250 0.40100
v 0.33250 1.32250 0.40100
v 0.38750 1.32250 0.40100
v 0.38750 1.37750 0.40100
v 0.33250 1.37750 0.40100
v 0.38750 1.32250 0.38900
v 0.33250 1.32250 0.38900
v 0.33250 1.37750 0.38900
v 0.38750 1.37750 0.38900
v 0.46750 1.32250 0.40100
v 0.46750 1.32250 0.38900
v 0.46750 1.37750 0.38900
v 0.46750 1.37750 0.40100
v 0.41250 1.32250 0.38900
v 0.41250 1.32250 0.40100
v 0.41250 1.37750 0.40100
v 0.41250 1.37750 0.38900
v 0.41250 1.37750 0.40100
v 0.46750 1.37750 0.40100
v 0.46750 1.37750 0.38900
v 0.41250 1.37750 0.38900
v 0.41250 1.32250 0.38900
v 0.46750 1.32250 0.38900
v 0.46750 1.32250 0.40100
v 0.41250 1.32250 0.40100
v 0.41250 1.32250 0.40100
v 0.46750 1.32250 0.40100
v 0.46750 1.37750 0.40100
v 0.41250 1.37750 0.40100
v 0.46750 1.32250 0.38900
v 0.41250 1.32250 0.38900
v 0.41250 1.37750 0.38900
v 0.46750 1.37750 0.38900
v 0.30750 1.23250 0.40100
v 0.30750 1.23250 0.38900
v 0.30750 1.28750 0.38900
v 0.30750 1.28750 0.40100
v 0.25250 1.23250 0.38900
v 0.25250 1.23250 0.40100
v 0.25250 1.28750 0.40100
v 0.25250 1.28750 0.38900
v 0.25250 1.28750 0.40100
v 0.30750 1.28750 0.40100
v 0.30750 1.28750 0.38900
v 0.25250 1.28750 0.38900
v 0.25250 1.23250 0.38900
v 0.30750 1.23250 0.38900
v 0.30750 1.23250 0.40100
v 0.25250 1.23250 0.40100
v 0.25250 1.23250 0.40100
v 0.30750 1.23250 0.40100
v 0.30750 1.28750 0.40100
v 0.25250 1.28750 0.40100
v 0.30750 1.23250 0.38900
v 0.25250 1.23250 0.38900
v 0.25250 1.28750 0.38900
v 0.30750 1.28750 0.38900
v 0.38750 1.23250 0.40100
v 0.38750 1.23250 0.38900
v 0.38750 1.28750 0.38900
v 0.38750 1.28750 0.40100
v 0.33250 1.23250 0.38900
v 0.33250 1.23250 0.40100
v 0.33250 1.28750 0.40100
v 0.33250 1.28750 0.38900
v 0.33250 1.28750 0.40100
v 0.38750 1.28750 0.40100
v 0.38750 1.28750 0.38900
v 0.33250 1.28750 0.38900
v 0.33250 1.23250 0.38900
v 0.38750 1.23250 0.38900
v 0.38750 1.23250 0.40100
v 0.33250 1.23250 0.40100
v 0.33250 1.23250 0.40100
v 0.38750 1.23250 0.40100
v 0.38750 1.28750 0.40100
v 0.33250 1.28750 0.40100
v 0.38750 1.23250 0.38900
v 0.33250 1.23250 0.38900
v 0.33250 1.28750 0.38900
v 0.38750 1.28750 0.38900
v 0.46750 1.23250 0.40100
v 0.46750 1.23250 0.38900
v 0.46750 1.28750 0.38900
v 0.46750 1.28750 0.40100
v 0.41250 1.23250 0.38900
v 0.41250 1.23250 0.40100
v 0.41250 1.28750 0.40100
v 0.41250 1.28750 0.38900
v 0.41250 1.28750 0.40100
v 0.46750 1.28750 0.40100
v 0.46750 1.28750 0.38900
v 0.41250 1.28750 0.38900
v 0.41250 1.23250 0.38900
v 0.46750 1.23250 0.38900
v 0.46750 1.23250 0.40100
v 0.41250 1.23250 0.40100
v 0.41250 1.23250 0.40100
v 0.46750 1.23250 0.40100
v 0.46750 1.28750 0.40100
v 0.41250 1.28750 0.40100
v 0.46750 1.23250 0.38900
v 0.41250 1.23250 0.38900
v 0.41250 1.28750 0.38900
v 0.46750 1.28750 0.38900
v 0.30750 1.14250 0.40100
v 0.30750 1.14250 0.38900
v 0.30750 1.19750 0.38900
v 0.30750 1.19750 0.40100
v 0.25250 1.14250 0.38900
v 0.25250 1.14250 0.40100
v 0.25250 1.19750 0.40100
v 0.25250 1.19750 0.38900
v 0.25250 1.19750 0.40100
v 0.30750 1.19750 0.40100
v 0.30750 1.19750 0.38900
v 0.25250 1.19750 0.38900
v 0.25250 1.14250 0.38900
v 0.30750 1.14250 0.38900
v 0.30750 1.14250 0.40100
v 0.25250 1.14250 0.40100
v 0.25250 1.14250 0.40100
v 0.30750 1.14250 0.40100
v 0.30750 1.19750 0.40100
v 0.25250 1.19750 0.40100
v 0.30750 1.14250 0.38900
v 0.25250 1.14250 0.38900
v 0.25250 1.19750 0.38900
v 0.30750 1.19750 0.38900
v 0.38750 1.14250 0.40100
v 0.38750 1.14250 0.38900
v 0.38750 1.19750 0.38900
v 0.38750 1.19750 0.40100
v 0.33250 1.14250 0.38900
v 0.33250 1.14250 0.40100
v 0.33250 1.19750 0.40100
v 0.33250 1.19750 0.38900
v 0.33250 1.19750 0.40100
v 0.38750 1.19750 0.40100
v 0.38750 1.19750 0.38900
v 0.33250 1.19750 0.38900
v 0.33250 1.14250 0.38900
v 0.38750 1.14250 0.38900
v 0.38750 1.14250 0.40100
v 0.33250 1.14250 0.40100
v 0.33250 1.14250 0.40100
v 0.38750 1.14250 0.40100
v 0.38750 1.19750 0.40100
v 0.33250 1.19750 0.40100
v 0.38750 1.14250 0.38900
v 0.33250 1.14250 0.38900
v 0.33250 1.19750 0.38900
v 0.38750 1.19750 0.38900
v 0.46750 1.14250 0.40100
v 0.46750 1.14250 0.38900
v 0.46750 1.19750 0.38900
v 0.46750 1.19750 0.40100
v 0.41250 1.14250 0.38900
v 0.41250 1.14250 0.40100
v 0.41250 1.19750 0.40100
v 0.41250 1.19750 0.38900
v 0.41250 1.19750 0.40100
v 0.46750 1.19750 0.40100
v 0.46750 1.19750 0.38900
v 0.41250 1.19750 0.38900
v 0.41250 1.14250 0.38900
v 0.46750 1.14250 0.38900
v 0.46750 1.14250 0.40100
v 0.41250 1.14250 0.40100
v 0.41250 1.14250 0.40100
v 0.46750 1.14250 0.40100
v 0.46750 1.19750 0.40100
v 0.41250 1.19750 0.40100
v 0.46750 1.14250 0.38900
v 0.41250 1.14250 0.38900
v 0.41250 1.19750 0.38900
v 0.46750 1.19750 0.38900
v 0.41000 1.00500 0.40000
v 0.41000 1.00500 0.38000
v 0.41000 1.03500 0.38000
v 0.41000 1.03500 0.40000
v 0.31000 1.00500 0.38000
v 0.31000 1.00500 0.40000
v 0.31000 1.03500 0.40000
v 0.31000 1.03500 0.38000
v 0.31000 1.03500 0.40000
v 0.41000 1.03500 0.40000
v 0.41000 1.03500 0.38000
v 0.31000 1.03500 0.38000
v 0.31000 1.00500 0.38000
v 0.41000 1.00500 0.38000
v 0.41000 1.00500 0.40000
v 0.31000 1.00500 0.40000
v 0.31000 1.00500 0.40000
v 0.41000 1.00500 0.40000
v 0.41000 1.03500 0.40000
v 0.31000 1.03500 0.40000
v 0.41000 1.00500 0.38000
v 0.31000 1.00500 0.38000
v 0.31000 1.03500 0.38000
v 0.41000 1.03500 0.38000
v 0.36000 0.21000 0.37000
v 0.36000 0.21000 0.15000
v 0.36000 0.51000 0.15000
v 0.36000 0.51000 0.37000
v -0.36000 0.21000 0.15000
v -0.36000 0.21000 0.37000
v -0.36000 0.51000 0.37000
v -0.36000 0.51000 0.15000
v -0.36000 0.51000 0.37000
v 0.36000 0.51000 0.37000
v 0.36000 0.51000 0.15000
v -0.36000 0.51000 0.15000
v -0.36000 0.21000 0.15000
v 0.36000 0.21000 0.15000
v 0.36000 0.21000 0.37000
v -0.36000 0.21000 0.37000
v 0.36000 0.21000 0.16000
v 0.36000 0.21000 0.14000
v 0.36000 0.51000 0.14000
v 0.36000 0.51000 0.16000
v -0.36000 0.21000 0.14000
v -0.36000 0.21000 0.16000
v -0.36000 0.51000 0.16000
v -0.36000 0.51000 0.14000
v -0.36000 0.51000 0.16000
v 0.36000 0.51000 0.16000
v 0.36000 0.51000 0.14000
v -0.36000 0.51000 0.14000
v -0.36000 0.21000 0.14000
v 0.36000 0.21000 0.14000
v 0.36000 0.21000 0.16000
v -0.36000 0.21000 0.16000
v -0.36000 0.21000 0.16000
v 0.36000 0.21000 0.16000
v 0.36000 0.51000 0.16000
v -0.36000 0.51000 0.16000
v 0.36000 0.21000 0.14000
v -0.36000 0.21000 0.14000
v -0.36000 0.51000 0.14000
v 0.36000 0.51000 0.14000
v 0.53000 0.00000 0.36500
v 0.53000 0.00000 -0.36500
v 0.53000 0.18000 -0.36500
v 0.53000 0.18000 0.36500
v -0.53000 0.00000 -0.36500
v -0.53000 0.00000 0.36500
v -0.53000 0.18000 0.36500
v -0.53000 0.18000 -0.36500
v -0.53000 0.18000 0.36500
v 0.53000 0.18000 0.36500
v 0.53000 0.18000 -0.36500
v -0.53000 0.18000 -0.36500
v -0.53000 0.00000 -0.36500
v 0.53000 0.00000 -0.36500
v 0.53000 0.00000 0.36500
v -0.53000 0.00000 0.36500
v -0.53000 0.00000 0.36500
v 0.53000 0.00000 0.36500
v 0.53000 0.18000 0.36500
v -0.53000 0.18000 0.36500
v 0.53000 0.00000 -0.36500
v -0.53000 0.00000 -0.36500
v -0.53000 0.18000 -0.36500
v 0.53000 0.18000 -0.36500
vt -1.55000 -0.55000
vt 1.55000 -0.55000
vt 1.55000 0.55000
vt -1.55000 0.55000
vt -1.55000 0.55000
vt 1.55000 0.55000
vt 1.55000 -0.55000
vt -1.55000 -0.55000
vt -0.82500 0.55000
vt 0.82500 0.55000
vt 0.82500 -0.55000
vt -0.82500 -0.55000
vt -0.82500 -0.55000
vt 0.82500 -0.55000
vt 0.82500 0.55000
vt -0.82500 0.55000
vt -0.82500 -1.55000
vt 0.82500 -1.55000
vt 0.82500 1.55000
vt -0.82500 1.55000
vt -0.82500 1.55000
vt 0.82500 1.55000
vt 0.82500 -1.55000
vt -0.82500 -1.55000
vt 0.00000 0.00000
vt 1.75000 0.00000
vt 1.75000 0.05000
vt 0.00000 0.05000
vt 0.00000 0.00000
vt 1.75000 0.00000
vt 1.75000 0.05000
vt 0.00000 0.05000
vt 0.00000 0.00000
vt 1.75000 0.00000
vt 1.75000 0.05000
vt 0.00000 0.05000
vt 0.00000 0.00000
vt 1.75000 0.00000
vt 1.75000 0.05000
vt 0.00000 0.05000
vt 0.00000 0.00000
vt 3.20000 0.00000
vt 3.20000 0.05000
vt 0.00000 0.05000
vt 0.00000 0.00000
vt 3.20000 0.00000
vt 3.20000 0.05000
vt 0.00000 0.05000
vt 0.00000 0.00000
vt 3.20000 0.00000
vt 3.20000 0.05000
vt 0.00000 0.05000
vt 0.00000 0.00000
vt 3.20000 0.00000
vt 3.20000 0.05000
vt 0.00000 0.05000
vt 0.00000 0.00000
vt 1.20000 0.00000
vt 1.20000 0.05000
vt 0.00000 0.05000
vt 0.00000 0.00000
vt 1.20000 0.00000
vt 1.20000 0.05000
vt 0.00000 0.05000
vt 0.00000 0.00000
vt 1.20000 0.00000
vt 1.20000 0.05000
vt 0.00000 0.05000
vt 0.00000 0.00000
vt 1.20000 0.00000
vt 1.20000 0.05000
vt 0.00000 0.05000
vt 0.00000 0.00000
vt 0.05000 0.00000
vt 0.00000 0.05000
vt 0.00000 0.00000
vt 0.05000 0.00000
vt 0.00000 0.05000
vt 0.00000 0.00000
vt 0.05000 0.00000
vt 0.00000 0.05000
vt 0.00000 0.00000
vt 0.05000 0.00000
vt 0.00000 0.05000
vt 0.00000 0.00000
vt 0.05000 0.00000
vt 0.00000 0.05000
vt 0.00000 0.00000
vt 0.05000 0.00000
vt 0.00000 0.05000
vt 0.00000 0.00000
vt 0.05000 0.00000
vt 0.00000 0.05000
vt 0.00000 0.00000
vt 0.05000 0.00000
vt 0.00000 0.05000
vt -0.46000 0.60000
vt 0.22000 0.60000
vt 0.22000 1.80000
vt -0.46000 1.80000
vt -1.16667 2.23333
vt -0.43333 2.23333
vt -0.43333 2.30000
vt -1.16667 2.30000
vt 0.43333 2.23333
vt 1.16667 2.23333
vt 1.16667 2.30000
vt 0.43333 2.30000
vt -1.50000 -1.16667
vt 0.70000 -1.16667
vt 0.70000 -0.43333
vt -1.50000 -0.43333
vt -1.50000 0.43333
vt 0.70000 0.43333
vt 0.70000 1.16667
vt -1.50000 1.16667
vt -1.50000 2.23333
vt 0.70000 2.23333
vt 0.70000 2.30000
vt -1.50000 2.30000
vt -0.70000 2.23333
vt 1.50000 2.23333
vt 1.50000 2.30000
vt -0.70000 2.30000
vt -1.32500 3.47500
vt -0.87500 3.47500
vt -0.87500 4.32500
vt -1.32500 4.32500
vt 0.87500 3.47500
vt 1.32500 3.47500
vt 1.32500 4.32500
vt 0.87500 4.32500
vt -2.22500 -1.32500
vt -1.77500 -1.32500
vt -1.77500 -0.87500
vt -2.22500 -0.87500
vt -2.22500 0.87500
vt -1.77500 0.87500
vt -1.77500 1.32500
vt -2.22500 1.32500
vt -2.22500 3.47500
vt -1.77500 3.47500
vt -1.77500 4.32500
vt -2.22500 4.32500
vt 1.77500 3.47500
vt 2.22500 3.47500
vt 2.22500 4.32500
vt 1.77500 4.32500
vt -1.32500 3.47500
vt -0.87500 3.47500
vt -0.87500 4.32500
vt -1.32500 4.32500
vt 0.87500 3.47500
vt 1.32500 3.47500
vt 1.32500 4.32500
vt 0.87500 4.32500
vt -1.52500 -1.32500
vt -1.07500 -1.32500
vt -1.07500 -0.87500
vt -1.52500 -0.87500
vt -1.52500 0.87500
vt -1.07500 0.87500
vt -1.07500 1.32500
vt -1.52500 1.32500
vt -1.52500 3.47500
vt -1.07500 3.47500
vt -1.07500 4.32500
vt -1.52500 4.32500
vt 1.07500 3.47500
vt 1.52500 3.47500
vt 1.52500 4.32500
vt 1.07500 4.32500
vt -1.32500 3.47500
vt -0.87500 3.47500
vt -0.87500 4.32500
vt -1.32500 4.32500
vt 0.87500 3.47500
vt 1.32500 3.47500
vt 1.32500 4.32500
vt 0.87500 4.32500
vt -0.82500 -1.32500
vt -0.37500 -1.32500
vt -0.37500 -0.87500
vt -0.82500 -0.87500
vt -0.82500 0.87500
vt -0.37500 0.87500
vt -0.37500 1.32500
vt -0.82500 1.32500
vt -0.82500 3.47500
vt -0.37500 3.47500
vt -0.37500 4.32500
vt -0.82500 4.32500
vt 0.37500 3.47500
vt 0.82500 3.47500
vt 0.82500 4.32500
vt 0.37500 4.32500
vt -1.32500 3.47500
vt -0.87500 3.47500
vt -0.87500 4.32500
vt -1.32500 4.32500
vt 0.87500 3.47500
vt 1.32500 3.47500
vt 1.32500 4.32500
vt 0.87500 4.32500
vt -0.12500 -1.32500
vt 0.32500 -1.32500
vt 0.32500 -0.87500
vt -0.12500 -0.87500
vt -0.12500 0.87500
vt 0.32500 0.87500
vt 0.32500 1.32500
vt -0.12500 1.32500
vt -0.12500 3.47500
vt 0.32500 3.47500
vt 0.32500 4.32500
vt -0.12500 4.32500
vt -0.32500 3.47500
vt 0.12500 3.47500
vt 0.12500 4.32500
vt -0.32500 4.32500
vt -1.32500 3.47500
vt -0.87500 3.47500
vt -0.87500 4.32500
vt -1.32500 4.32500
vt 0.87500 3.47500
vt 1.32500 3.47500
vt 1.32500 4.32500
vt 0.87500 4.32500
vt 0.57500 -1.32500
vt 1.02500 -1.32500
vt 1.02500 -0.87500
vt 0.57500 -0.87500
vt 0.57500 0.87500
vt 1.02500 0.87500
vt 1.02500 1.32500
vt 0.57500 1.32500
vt 0.57500 3.47500
vt 1.02500 3.47500
vt 1.02500 4.32500
vt 0.57500 4.32500
vt -1.02500 3.47500
vt -0.57500 3.47500
vt -0.57500 4.32500
vt -1.02500 4.32500
vt -1.16667 3.03333
vt -0.43333 3.03333
vt -0.43333 3.10000
vt -1.16667 3.10000
vt 0.43333 3.03333
vt 1.16667 3.03333
vt 1.16667 3.10000
vt 0.43333 3.10000
vt -1.50000 -1.16667
vt 0.70000 -1.16667
vt 0.70000 -0.43333
vt -1.50000 -0.43333
vt -1.50000 0.43333
vt 0.70000 0.43333
vt 0.70000 1.16667
vt -1.50000 1.16667
vt -1.50000 3.03333
vt 0.70000 3.03333
vt 0.70000 3.10000
vt -1.50000 3.10000
vt -0.70000 3.03333
vt 1.50000 3.03333
vt 1.50000 3.10000
vt -0.70000 3.10000
vt -1.32500 4.67500
vt -0.87500 4.67500
vt -0.87500 5.52500
vt -1.32500 5.52500
vt 0.87500 4.67500
vt 1.32500 4.67500
vt 1.32500 5.52500
vt 0.87500 5.52500
vt -2.22500 -1.32500
vt -1.77500 -1.32500
vt -1.77500 -0.87500
vt -2.22500 -0.87500
vt -2.22500 0.87500
vt -1.77500 0.87500
vt -1.77500 1.32500
vt -2.22500 1.32500
vt -2.22500 4.67500
vt -1.77500 4.67500
vt -1.77500 5.52500
vt -2.22500 5.52500
vt 1.77500 4.67500
vt 2.22500 4.67500
vt 2.22500 5.52500
vt 1.77500 5.52500
vt -1.32500 4.67500
vt -0.87500 4.67500
vt -0.87500 5.52500
vt -1.32500 5.52500
vt 0.87500 4.67500
vt 1.32500 4.67500
vt 1.32500 5.52500
vt 0.87500 5.52500
vt -1.52500 -1.32500
vt -1.07500 -1.32500
vt -1.07500 -0.87500
vt -1.52500 -0.87500
vt -1.52500 0.87500
vt -1.07500 0.87500
vt -1.07500 1.32500
vt -1.52500 1.32500
vt -1.52500 4.67500
vt -1.07500 4.67500
vt -1.07500 5.52500
vt -1.52500 5.52500
vt 1.07500 4.67500
vt 1.52500 4.67500
vt 1.52500 5.52500
vt 1.07500 5.52500
vt -1.32500 4.67500
vt -0.87500 4.67500
vt -0.87500 5.52500
vt -1.32500 5.52500
vt 0.87500 4.67500
vt 1.32500 4.67500
vt 1.32500 5.52500
vt 0.87500 5.52500
vt -0.82500 -1.32500
vt -0.37500 -1.32500
vt -0.37500 -0.87500
vt -0.82500 -0.87500
vt -0.82500 0.87500
vt -0.37500 0.87500
vt -0.37500 1.32500
vt -0.82500 1.32500
vt -0.82500 4.67500
vt -0.37500 4.67500
vt -0.37500 5.52500
vt -0.82500 5.52500
vt 0.37500 4.67500
vt 0.82500 4.67500
vt 0.82500 5.52500
vt 0.37500 5.52500
vt -1.32500 4.67500
vt -0.87500 4.67500
vt -0.87500 5.52500
vt -1.32500 5.52500
vt 0.87500 4.67500
vt 1.32500 4.67500
vt 1.32500 5.52500
vt 0.87500 5.52500
vt -0.12500 -1.32500
vt 0.32500 -1.32500
vt 0.32500 -0.87500
vt -0.12500 -0.87500
vt -0.12500 0.87500
vt 0.32500 0.87500
vt 0.32500 1.32500
vt -0.12500 1.32500
vt -0.12500 4.67500
vt 0.32500 4.67500
vt 0.32500 5.52500
vt -0.12500 5.52500
vt -0.32500 4.67500
vt 0.12500 4.67500
vt 0.12500 5.52500
vt -0.32500 5.52500
vt -1.32500 4.67500
vt -0.87500 4.67500
vt -0.87500 5.52500
vt -1.32500 5.52500
vt 0.87500 4.67500
vt 1.32500 4.67500
vt 1.32500 5.52500
vt 0.87500 5.52500
vt 0.57500 -1.32500
vt 1.02500 -1.32500
vt 1.02500 -0.87500
vt 0.57500 -0.87500
vt 0.57500 0.87500
vt 1.02500 0.87500
vt 1.02500 1.32500
vt 0.57500 1.32500
vt 0.57500 4.67500
vt 1.02500 4.67500
vt 1.02500 5.52500
vt 0.57500 5.52500
vt -1.02500 4.67500
vt -0.57500 4.67500
vt -0.57500 5.52500
vt -1.02500 5.52500
vt -1.16667 3.83333
vt -0.43333 3.83333
vt -0.43333 3.90000
vt -1.16667 3.90000
vt 0.43333 3.83333
vt 1.16667 3.83333
vt 1.16667 3.90000
vt 0.43333 3.90000
vt -1.50000 -1.16667
vt 0.70000 -1.16667
vt 0.70000 -0.43333
vt -1.50000 -0.43333
vt -1.50000 0.43333
vt 0.70000 0.43333
vt 0.70000 1.16667
vt -1.50000 1.16667
vt -1.50000 3.83333
vt 0.70000 3.83333
vt 0.70000 3.90000
vt -1.50000 3.90000
vt -0.70000 3.83333
vt 1.50000 3.83333
vt 1.50000 3.90000
vt -0.70000 3.90000
vt -1.32500 5.87500
vt -0.87500 5.87500
vt -0.87500 6.72500
vt -1.32500 6.72500
vt 0.87500 5.87500
vt 1.32500 5.87500
vt 1.32500 6.72500
vt 0.87500 6.72500
vt -2.22500 -1.32500
vt -1.77500 -1.32500
vt -1.77500 -0.87500
vt -2.22500 -0.87500
vt -2.22500 0.87500
vt -1.77500 0.87500
vt -1.77500 1.32500
vt -2.22500 1.32500
vt -2.22500 5.87500
vt -1.77500 5.87500
vt -1.77500 6.72500
vt -2.22500 6.72500
vt 1.77500 5.87500
vt 2.22500 5.87500
vt 2.22500 6.72500
vt 1.77500 6.72500
vt -1.32500 5.87500
vt -0.87500 5.87500
vt -0.87500 6.72500
vt -1.32500 6.72500
vt 0.87500 5.87500
vt 1.32500 5.87500
vt 1.32500 6.72500
vt 0.87500 6.72500
vt -1.52500 -1.32500
vt -1.07500 -1.32500
vt -1.07500 -0.87500
vt -1.52500 -0.87500
vt -1.52500 0.87500
vt -1.07500 0.87500
vt -1.07500 1.32500
vt -1.52500 1.32500
vt -1.52500 5.87500
vt -1.07500 5.87500
vt -1.07500 6.72500
vt -1.52500 6.72500
vt 1.07500 5.87500
vt 1.52500 5.87500
vt 1.52500 6.72500
vt 1.07500 6.72500
vt -1.32500 5.87500
vt -0.87500 5.87500
vt -0.87500 6.72500
vt -1.32500 6.72500
vt 0.87500 5.87500
vt 1.32500 5.87500
vt 1.32500 6.72500
vt 0.87500 6.72500
vt -0.82500 -1.32500
vt -0.37500 -1.32500
vt -0.37500 -0.87500
vt -0.82500 -0.87500
vt -0.82500 0.87500
vt -0.37500 0.87500
vt -0.37500 1.32500
vt -0.82500 1.32500
vt -0.82500 5.87500
vt -0.37500 5.87500
vt -0.37500 6.72500
vt -0.82500 6.72500
vt 0.37500 5.87500
vt 0.82500 5.87500
vt 0.82500 6.72500
vt 0.37500 6.72500
vt -1.32500 5.87500
vt -0.87500 5.87500
vt -0.87500 6.72500
vt -1.32500 6.72500
vt 0.87500 5.87500
vt 1.32500 5.87500
vt 1.32500 6.72500
vt 0.87500 6.72500
vt -0.12500 -1.32500
vt 0.32500 -1.32500
vt 0.32500 -0.87500
vt -0.12500 -0.87500
vt -0.12500 0.87500
vt 0.32500 0.87500
vt 0.32500 1.32500
vt -0.12500 1.32500
vt -0.12500 5.87500
vt 0.32500 5.87500
vt 0.32500 6.72500
vt -0.12500 6.72500
vt -0.32500 5.87500
vt 0.12500 5.87500
vt 0.12500 6.72500
vt -0.32500 6.72500
vt -1.32500 5.87500
vt -0.87500 5.87500
vt -0.87500 6.72500
vt -1.32500 6.72500
vt 0.87500 5.87500
vt 1.32500 5.87500
vt 1.32500 6.72500
vt 0.87500 6.72500
vt 0.57500 -1.32500
vt 1.02500 -1.32500
vt 1.02500 -0.87500
vt 0.57500 -0.87500
vt 0.57500 0.87500
vt 1.02500 0.87500
vt 1.02500 1.32500
vt 0.57500 1.32500
vt 0.57500 5.87500
vt 1.02500 5.87500
vt 1.02500 6.72500
vt 0.57500 6.72500
vt -1.02500 5.87500
vt -0.57500 5.87500
vt -0.57500 6.72500
vt -1.02500 6.72500
vt -1.16667 4.63333
vt -0.43333 4.63333
vt -0.43333 4.70000
vt -1.16667 4.70000
vt 0.43333 4.63333
vt 1.16667 4.63333
vt 1.16667 4.70000
vt 0.43333 4.70000
vt -1.50000 -1.16667
vt 0.70000 -1.16667
vt 0.70000 -0.43333
vt -1.50000 -0.43333
vt -1.50000 0.43333
vt 0.70000 0.43333
vt 0.70000 1.16667
vt -1.50000 1.16667
vt -1.50000 4.63333
vt 0.70000 4.63333
vt 0.70000 4.70000
vt -1.50000 4.70000
vt -0.70000 4.63333
vt 1.50000 4.63333
vt 1.50000 4.70000
vt -0.70000 4.70000
vt -1.32500 7.07500
vt -0.87500 7.07500
vt -0.87500 7.92500
vt -1.32500 7.92500
vt 0.87500 7.07500
vt 1.32500 7.07500
vt 1.32500 7.92500
vt 0.87500 7.92500
vt -2.22500 -1.32500
vt -1.77500 -1.32500
vt -1.77500 -0.87500
vt -2.22500 -0.87500
vt -2.22500 0.87500
vt -1.77500 0.87500
vt -1.77500 1.32500
vt -2.22500 1.32500
vt -2.22500 7.07500
vt -1.77500 7.07500
vt -1.77500 7.92500
vt -2.22500 7.92500
vt 1.77500 7.07500
vt 2.22500 7.07500
vt 2.22500 7.92500
vt 1.77500 7.92500
vt -1.32500 7.07500
vt -0.87500 7.07500
vt -0.87500 7.92500
vt -1.32500 7.92500
vt 0.87500 7.07500
vt 1.32500 7.07500
vt 1.32500 7.92500
vt 0.87500 7.92500
vt -1.52500 -1.32500
vt -1.07500 -1.32500
vt -1.07500 -0.87500
vt -1.52500 -0.87500
vt -1.52500 0.87500
vt -1.07500 0.87500
vt -1.07500 1.32500
vt -1.52500 1.32500
vt -1.52500 7.07500
vt -1.07500 7.07500
vt -1.07500 7.92500
vt -1.52500 7.92500
vt 1.07500 7.07500
vt 1.52500 7.07500
vt 1.52500 7.92500
vt 1.07500 7.92500
vt -1.32500 7.07500
vt -0.87500 7.07500
vt -0.87500 7.92500
vt -1.32500 7.92500
vt 0.87500 7.07500
vt 1.32500 7.07500
vt 1.32500 7.92500
vt 0.87500 7.92500
vt -0.82500 -1.32500
vt -0.37500 -1.32500
vt -0.37500 -0.87500
vt -0.82500 -0.87500
vt -0.82500 0.87500
vt -0.37500 0.87500
vt -0.37500 1.32500
vt -0.82500 1.32500
vt -0.82500 7.07500
vt -0.37500 7.07500
vt -0.37500 7.92500
vt -0.82500 7.92500
vt 0.37500 7.07500
vt 0.82500 7.07500
vt 0.82500 7.92500
vt 0.37500 7.92500
vt -1.32500 7.07500
vt -0.87500 7.07500
vt -0.87500 7.92500
vt -1.32500 7.92500
vt 0.87500 7.07500
vt 1.32500 7.07500
vt 1.32500 7.92500
vt 0.87500 7.92500
vt -0.12500 -1.32500
vt 0.32500 -1.32500
vt 0.32500 -0.87500
vt -0.12500 -0.87500
vt -0.12500 0.87500
vt 0.32500 0.87500
vt 0.32500 1.32500
vt -0.12500 1.32500
vt -0.12500 7.07500
vt 0.32500 7.07500
vt 0.32500 7.92500
vt -0.12500 7.92500
vt -0.32500 7.07500
vt 0.12500 7.07500
vt 0.12500 7.92500
vt -0.32500 7.92500
vt -1.32500 7.07500
vt -0.87500 7.07500
vt -0.87500 7.92500
vt -1.32500 7.92500
vt 0.87500 7.07500
vt 1.32500 7.07500
vt 1.32500 7.92500
vt 0.87500 7.92500
vt 0.57500 -1.32500
vt 1.02500 -1.32500
vt 1.02500 -0.87500
vt 0.57500 -0.87500
vt 0.57500 0.87500
vt 1.02500 0.87500
vt 1.02500 1.32500
vt 0.57500 1.32500
vt 0.57500 7.07500
vt 1.02500 7.07500
vt 1.02500 7.92500
vt 0.57500 7.92500
vt -1.02500 7.07500
vt -0.57500 7.07500
vt -0.57500 7.92500
vt -1.02500 7.92500
vt -1.16667 5.43333
vt -0.43333 5.43333
vt -0.43333 5.50000
vt -1.16667 5.50000
vt 0.43333 5.43333
vt 1.16667 5.43333
vt 1.16667 5.50000
vt 0.43333 5.50000
vt -1.50000 -1.16667
vt 0.70000 -1.16667
vt 0.70000 -0.43333
vt -1.50000 -0.43333
vt -1.50000 0.43333
vt 0.70000 0.43333
vt 0.70000 1.16667
vt -1.50000 1.16667
vt -1.50000 5.43333
vt 0.70000 5.43333
vt 0.70000 5.50000
vt -1.50000 5.50000
vt -0.70000 5.43333
vt 1.50000 5.43333
vt 1.50000 5.50000
vt -0.70000 5.50000
vt -1.32500 8.27500
vt -0.87500 8.27500
vt -0.87500 9.12500
vt -1.32500 9.12500
vt 0.87500 8.27500
vt 1.32500 8.27500
vt 1.32500 9.12500
vt 0.87500 9.12500
vt -2.22500 -1.32500
vt -1.77500 -1.32500
vt -1.77500 -0.87500
vt -2.22500 -0.87500
vt -2.22500 0.87500
vt -1.77500 0.87500
vt -1.77500 1.32500
vt -2.22500 1.32500
vt -2.22500 8.27500
vt -1.77500 8.27500
vt -1.77500 9.12500
vt -2.22500 9.12500
vt 1.77500 8.27500
vt 2.22500 8.27500
vt 2.22500 9.12500
vt 1.77500 9.12500
vt -1.32500 8.27500
vt -0.87500 8.27500
vt -0.87500 9.12500
vt -1.32500 9.12500
vt 0.87500 8.27500
vt 1.32500 8.27500
vt 1.32500 9.12500
vt 0.87500 9.12500
vt -1.52500 -1.32500
vt -1.07500 -1.32500
vt -1.07500 -0.87500
vt -1.52500 -0.87500
vt -1.52500 0.87500
vt -1.07500 0.87500
vt -1.07500 1.32500
vt -1.52500 1.32500
vt -1.52500 8.27500
vt -1.07500 8.27500
vt -1.07500 9.12500
vt -1.52500 9.12500
vt 1.07500 8.27500
vt 1.52500 8.27500
vt 1.52500 9.12500
vt 1.07500 9.12500
vt -1.32500 8.27500
vt -0.87500 8.27500
vt -0.87500 9.12500
vt -1.32500 9.12500
vt 0.87500 8.27500
vt 1.32500 8.27500
vt 1.32500 9.12500
vt 0.87500 9.12500
vt -0.82500 -1.32500
vt -0.37500 -1.32500
vt -0.37500 -0.87500
vt -0.82500 -0.87500
vt -0.82500 0.87500
vt -0.37500 0.87500
vt -0.37500 1.32500
vt -0.82500 1.32500
vt -0.82500 8.27500
vt -0.37500 8.27500
vt -0.37500 9.12500
vt -0.82500 9.12500
vt 0.37500 8.27500
vt 0.82500 8.27500
vt 0.82500 9.12500
vt 0.37500 9.12500
vt -1.32500 8.27500
vt -0.87500 8.27500
vt -0.87500 9.12500
vt -1.32500 9.12500
vt 0.87500 8.27500
vt 1.32500 8.27500
vt 1.32500 9.12500
vt 0.87500 9.12500
vt -0.12500 -1.32500
vt 0.32500 -1.32500
vt 0.32500 -0.87500
vt -0.12500 -0.87500
vt -0.12500 0.87500
vt 0.32500 0.87500
vt 0.32500 1.32500
vt -0.12500 1.32500
vt -0.12500 8.27500
vt 0.32500 8.27500
vt 0.32500 9.12500
vt -0.12500 9.12500
vt -0.32500 8.27500
vt 0.12500 8.27500
vt 0.12500 9.12500
vt -0.32500 9.12500
vt -1.32500 8.27500
vt -0.87500 8.27500
vt -0.87500 9.12500
vt -1.32500 9.12500
vt 0.87500 8.27500
vt 1.32500 8.27500
vt 1.32500 9.12500
vt 0.87500 9.12500
vt 0.57500 -1.32500
vt 1.02500 -1.32500
vt 1.02500 -0.87500
vt 0.57500 -0.87500
vt 0.57500 0.87500
vt 1.02500 0.87500
vt 1.02500 1.32500
vt 0.57500 1.32500
vt 0.57500 8.27500
vt 1.02500 8.27500
vt 1.02500 9.12500
vt 0.57500 9.12500
vt -1.02500 8.27500
vt -0.57500 8.27500
vt -0.57500 9.12500
vt -1.02500 9.12500
vt -1.28333 2.50000
vt -1.18333 2.50000
vt -1.18333 6.16667
vt -1.28333 6.16667
vt 1.18333 2.50000
vt 1.28333 2.50000
vt 1.28333 6.16667
vt 1.18333 6.16667
vt 0.76667 -1.28333
vt 1.63333 -1.28333
vt 1.63333 -1.18333
vt 0.76667 -1.18333
vt 0.76667 1.18333
vt 1.63333 1.18333
vt 1.63333 1.28333
vt 0.76667 1.28333
vt 0.76667 2.50000
vt 1.63333 2.50000
vt 1.63333 6.16667
vt 0.76667 6.16667
vt -1.63333 2.50000
vt -0.76667 2.50000
vt -0.76667 6.16667
vt -1.63333 6.16667
vt -2.00000 7.90000
vt -1.90000 7.90000
vt -1.90000 8.70000
vt -2.00000 8.70000
vt 1.90000 7.90000
vt 2.00000 7.90000
vt 2.00000 8.70000
vt 1.90000 8.70000
vt 1.30000 -2.00000
vt 2.30000 -2.00000
vt 2.30000 -1.90000
vt 1.30000 -1.90000
vt 1.30000 1.90000
vt 2.30000 1.90000
vt 2.30000 2.00000
vt 1.30000 2.00000
vt 1.30000 7.90000
vt 2.30000 7.90000
vt 2.30000 8.70000
vt 1.30000 8.70000
vt -2.30000 7.90000
vt -1.30000 7.90000
vt -1.30000 8.70000
vt -2.30000 8.70000
vt -4.01000 14.12500
vt -3.89000 14.12500
vt -3.89000 14.67500
vt -4.01000 14.67500
vt 3.89000 14.12500
vt 4.01000 14.12500
vt 4.01000 14.67500
vt 3.89000 14.67500
vt 2.52500 -4.01000
vt 3.07500 -4.01000
vt 3.07500 -3.89000
vt 2.52500 -3.89000
vt 2.52500 3.89000
vt 3.07500 3.89000
vt 3.07500 4.01000
vt 2.52500 4.01000
vt 2.52500 14.12500
vt 3.07500 14.12500
vt 3.07500 14.67500
vt 2.52500 14.67500
vt -3.07500 14.12500
vt -2.52500 14.12500
vt -2.52500 14.67500
vt -3.07500 14.67500
vt -4.01000 14.12500
vt -3.89000 14.12500
vt -3.89000 14.67500
vt -4.01000 14.67500
vt 3.89000 14.12500
vt 4.01000 14.12500
vt 4.01000 14.67500
vt 3.89000 14.67500
vt 3.32500 -4.01000
vt 3.87500 -4.01000
vt 3.87500 -3.89000
vt 3.32500 -3.89000
vt 3.32500 3.89000
vt 3.87500 3.89000
vt 3.87500 4.01000
vt 3.32500 4.01000
vt 3.32500 14.12500
vt 3.87500 14.12500
vt 3.87500 14.67500
vt 3.32500 14.67500
vt -3.87500 14.12500
vt -3.32500 14.12500
vt -3.32500 14.67500
vt -3.87500 14.67500
vt -4.01000 14.12500
vt -3.89000 14.12500
vt -3.89000 14.67500
vt -4.01000 14.67500
vt 3.89000 14.12500
vt 4.01000 14.12500
vt 4.01000 14.67500
vt 3.89000 14.67500
vt 4.12500 -4.01000
vt 4.67500 -4.01000
vt 4.67500 -3.89000
vt 4.12500 -3.89000
vt 4.12500 3.89000
vt 4.67500 3.89000
vt 4.67500 4.01000
vt 4.12500 4.01000
vt 4.12500 14.12500
vt 4.67500 14.12500
vt 4.67500 14.67500
vt 4.12500 14.67500
vt -4.67500 14.12500
vt -4.12500 14.12500
vt -4.12500 14.67500
vt -4.67500 14.67500
vt -4.01000 13.22500
vt -3.89000 13.22500
vt -3.89000 13.77500
vt -4.01000 13.77500
vt 3.89000 13.22500
vt 4.01000 13.22500
vt 4.01000 13.77500
vt 3.89000 13.77500
vt 2.52500 -4.01000
vt 3.07500 -4.01000
vt 3.07500 -3.89000
vt 2.52500 -3.89000
vt 2.52500 3.89000
vt 3.07500 3.89000
vt 3.07500 4.01000
vt 2.52500 4.01000
vt 2.52500 13.22500
vt 3.07500 13.22500
vt 3.07500 13.77500
vt 2.52500 13.77500
vt -3.07500 13.22500
vt -2.52500 13.22500
vt -2.52500 13.77500
vt -3.07500 13.77500
vt -4.01000 13.22500
vt -3.89000 13.22500
vt -3.89000 13.77500
vt -4.01000 13.77500
vt 3.89000 13.22500
vt 4.01000 13.22500
vt 4.01000 13.77500
vt 3.89000 13.77500
vt 3.32500 -4.01000
vt 3.87500 -4.01000
vt 3.87500 -3.89000
vt 3.32500 -3.89000
vt 3.32500 3.89000
vt 3.87500 3.89000
vt 3.87500 4.01000
vt 3.32500 4.01000
vt 3.32500 13.22500
vt 3.87500 13.22500
vt 3.87500 13.77500
vt 3.32500 13.77500
vt -3.87500 13.22500
vt -3.32500 13.22500
vt -3.32500 13.77500
vt -3.87500 13.77500
vt -4.01000 13.22500
vt -3.89000 13.22500
vt -3.89000 13.77500
vt -4.01000 13.77500
vt 3.89000 13.22500
vt 4.01000 13.22500
vt 4.01000 13.77500
vt 3.89000 13.77500
vt 4.12500 -4.01000
vt 4.67500 -4.01000
vt 4.67500 -3.89000
vt 4.12500 -3.89000
vt 4.12500 3.89000
vt 4.67500 3.89000
vt 4.67500 4.01000
vt 4.12500 4.01000
vt 4.12500 13.22500
vt 4.67500 13.22500
vt 4.67500 13.77500
vt 4.12500 13.77500
vt -4.67500 13.22500
vt -4.12500 13.22500
vt -4.12500 13.77500
vt -4.67500 13.77500
vt -4.01000 12.32500
vt -3.89000 12.32500
vt -3.89000 12.87500
vt -4.01000 12.87500
vt 3.89000 12.32500
vt 4.01000 12.32500
vt 4.01000 12.87500
vt 3.89000 12.87500
vt 2.52500 -4.01000
vt 3.07500 -4.01000
vt 3.07500 -3.89000
vt 2.52500 -3.89000
vt 2.52500 3.89000
vt 3.07500 3.89000
vt 3.07500 4.01000
vt 2.52500 4.01000
vt 2.52500 12.32500
vt 3.07500 12.32500
vt 3.07500 12.87500
vt 2.52500 12.87500
vt -3.07500 12.32500
vt -2.52500 12.32500
vt -2.52500 12.87500
vt -3.07500 12.87500
vt -4.01000 12.32500
vt -3.89000 12.32500
vt -3.89000 12.87500
vt -4.01000 12.87500
vt 3.89000 12.32500
vt 4.01000 12.32500
vt 4.01000 12.87500
vt 3.89000 12.87500
vt 3.32500 -4.01000
vt 3.87500 -4.01000
vt 3.87500 -3.89000
vt 3.32500 -3.89000
vt 3.32500 3.89000
vt 3.87500 3.89000
vt 3.87500 4.01000
vt 3.32500 4.01000
vt 3.32500 12.32500
vt 3.87500 12.32500
vt 3.87500 12.87500
vt 3.32500 12.87500
vt -3.87500 12.32500
vt -3.32500 12.32500
vt -3.32500 12.87500
vt -3.87500 12.87500
vt -4.01000 12.32500
vt -3.89000 12.32500
vt -3.89000 12.87500
vt -4.01000 12.87500
vt 3.89000 12.32500
vt 4.01000 12.32500
vt 4.01000 12.87500
vt 3.89000 12.87500
vt 4.12500 -4.01000
vt 4.67500 -4.01000
vt 4.67500 -3.89000
vt 4.12500 -3.89000
vt 4.12500 3.89000
vt 4.67500 3.89000
vt 4.67500 4.01000
vt 4.12500 4.01000
vt 4.12500 12.32500
vt 4.67500 12.32500
vt 4.67500 12.87500
vt 4.12500 12.87500
vt -4.67500 12.32500
vt -4.12500 12.32500
vt -4.12500 12.87500
vt -4.67500 12.87500
vt -4.01000 11.42500
vt -3.89000 11.42500
vt -3.89000 11.97500
vt -4.01000 11.97500
vt 3.89000 11.42500
vt 4.01000 11.42500
vt 4.01000 11.97500
vt 3.89000 11.97500
vt 2.52500 -4.01000
vt 3.07500 -4.01000
vt 3.07500 -3.89000
vt 2.52500 -3.89000
vt 2.52500 3.89000
vt 3.07500 3.89000
vt 3.07500 4.01000
vt 2.52500 4.01000
vt 2.52500 11.42500
vt 3.07500 11.42500
vt 3.07500 11.97500
vt 2.52500 11.97500
vt -3.07500 11.42500
vt -2.52500 11.42500
vt -2.52500 11.97500
vt -3.07500 11.97500
vt -4.01000 11.42500
vt -3.89000 11.42500
vt -3.89000 11.97500
vt -4.01000 11.97500
vt 3.89000 11.42500
vt 4.01000 11.42500
vt 4.01000 11.97500
vt 3.89000 11.97500
vt 3.32500 -4.01000
vt 3.87500 -4.01000
vt 3.87500 -3.89000
vt 3.32500 -3.89000
vt 3.32500 3.89000
vt 3.87500 3.89000
vt 3.87500 4.01000
vt 3.32500 4.01000
vt 3.32500 11.42500
vt 3.87500 11.42500
vt 3.87500 11.97500
vt 3.32500 11.97500
vt -3.87500 11.42500
vt -3.32500 11.42500
vt -3.32500 11.97500
vt -3.87500 11.97500
vt -4.01000 11.42500
vt -3.89000 11.42500
vt -3.89000 11.97500
vt -4.01000 11.97500
vt 3.89000 11.42500
vt 4.01000 11.42500
vt 4.01000 11.97500
vt 3.89000 11.97500
vt 4.12500 -4.01000
vt 4.67500 -4.01000
vt 4.67500 -3.89000
vt 4.12500 -3.89000
vt 4.12500 3.89000
vt 4.67500 3.89000
vt 4.67500 4.01000
vt 4.12500 4.01000
vt 4.12500 11.42500
vt 4.67500 11.42500
vt 4.67500 11.97500
vt 4.12500 11.97500
vt -4.67500 11.42500
vt -4.12500 11.42500
vt -4.12500 11.97500
vt -4.67500 11.97500
vt -4.00000 10.05000
vt -3.80000 10.05000
vt -3.80000 10.35000
vt -4.00000 10.35000
vt 3.80000 10.05000
vt 4.00000 10.05000
vt 4.00000 10.35000
vt 3.80000 10.35000
vt 3.10000 -4.00000
vt 4.10000 -4.00000
vt 4.10000 -3.80000
vt 3.10000 -3.80000
vt 3.10000 3.80000
vt 4.10000 3.80000
vt 4.10000 4.00000
vt 3.10000 4.00000
vt 3.10000 10.05000
vt 4.10000 10.05000
vt 4.10000 10.35000
vt 3.10000 10.35000
vt -4.10000 10.05000
vt -3.10000 10.05000
vt -3.10000 10.35000
vt -4.10000 10.35000
vt -1.23333 0.70000
vt -0.50000 0.70000
vt -0.50000 1.70000
vt -1.23333 1.70000
vt 0.50000 0.70000
vt 1.23333 0.70000
vt 1.23333 1.70000
vt 0.50000 1.70000
vt -1.20000 -1.23333
vt 1.20000 -1.23333
vt 1.20000 -0.50000
vt -1.20000 -0.50000
vt -1.20000 0.50000
vt 1.20000 0.50000
vt 1.20000 1.23333
vt -1.20000 1.23333
vt -0.53333 0.70000
vt -0.46667 0.70000
vt -0.46667 1.70000
vt -0.53333 1.70000
vt 0.46667 0.70000
vt 0.53333 0.70000
vt 0.53333 1.70000
vt 0.46667 1.70000
vt -1.20000 -0.53333
vt 1.20000 -0.53333
vt 1.20000 -0.46667
vt -1.20000 -0.46667
vt -1.20000 0.46667
vt 1.20000 0.46667
vt 1.20000 0.53333
vt -1.20000 0.53333
vt -1.20000 0.70000
vt 1.20000 0.70000
vt 1.20000 1.70000
vt -1.20000 1.70000
vt -1.20000 0.70000
vt 1.20000 0.70000
vt 1.20000 1.70000
vt -1.20000 1.70000
vt -0.91250 0.00000
vt 0.91250 0.00000
vt 0.91250 0.45000
vt -0.91250 0.45000
vt -0.91250 0.00000
vt 0.91250 0.00000
vt 0.91250 0.45000
vt -0.91250 0.45000
vt -1.32500 -0.91250
vt 1.32500 -0.91250
vt 1.32500 0.91250
vt -1.32500 0.91250
vt -1.32500 -0.91250
vt 1.32500 -0.91250
vt 1.32500 0.91250
vt -1.32500 0.91250
vt -1.32500 0.00000
vt 1.32500 0.00000
vt 1.32500 0.45000
vt -1.32500 0.45000
vt -1.32500 0.00000
vt 1.32500 0.00000
vt 1.32500 0.45000
vt -1.32500 0.45000
vn 1.00000 0.00000 0.00000
vn -1.00000 0.00000 0.00000
vn 0.00000 1.00000 0.00000
vn 0.00000 -1.00000 0.00000
vn 0.00000 0.00000 1.00000
vn 0.00000 0.00000 -1.00000
vn -0.00000 0.70711 0.70711
vn 0.00000 -0.70711 0.70711
vn 0.00000 0.70711 -0.70711
vn -0.00000 -0.70711 -0.70711
vn -0.70711 0.00000 -0.70711
vn 0.70711 -0.00000 -0.70711
vn -0.70711 -0.00000 0.70711
vn 0.70711 0.00000 0.70711
vn 0.70711 0.70711 -0.00000
vn -0.70711 0.70711 0.00000
vn 0.70711 -0.70711 0.00000
vn -0.70711 -0.70711 -0.00000
vn 0.57735 0.57735 0.57735
vn -0.57735 -0.57735 0.57735
vn -0.57735 0.57735 -0.57735
vn 0.57735 -0.57735 -0.57735
vn 0.57735 -0.57735 -0.57735
vn -0.57735 0.57735 -0.57735
vn -0.57735 -0.57735 0.57735
vn 0.57735 0.57735 0.57735
vn 0.00000 0.00000 1.00000
vn 1.00000 0.00000 0.00000
vn -1.00000 0.00000 0.00000
vn 0.00000 1.00000 0.00000
vn 0.00000 -1.00000 0.00000
vn 0.00000 0.00000 1.00000
vn 0.00000 0.00000 -1.00000
vn 1.00000 0.00000 0.00000
vn -1.00000 0.00000 0.00000
vn 0.00000 1.00000 0.00000
vn 0.00000 -1.00000 0.00000
vn 0.00000 0.00000 1.00000
vn 0.00000 0.00000 -1.00000
vn 1.00000 0.00000 0.00000
vn -1.00000 0.00000 0.00000
vn 0.00000 1.00000 0.00000
vn 0.00000 -1.00000 0.00000
vn 0.00000 0.00000 1.00000
vn 0.00000 0.00000 -1.00000
vn 1.00000 0.00000 0.00000
vn -1.00000 0.00000 0.00000
vn 0.00000 1.00000 0.00000
vn 0.00000 -1.00000 0.00000
vn 0.00000 0.00000 1.00000
vn 0.00000 0.00000 -1.00000
vn 1.00000 0.00000 0.00000
vn -1.00000 0.00000 0.00000
vn 0.00000 1.00000 0.00000
vn 0.00000 -1.00000 0.00000
vn 0.00000 0.00000 1.00000
vn 0.00000 0.00000 -1.00000
vn 1.00000 0.00000 0.00000
vn -1.00000 0.00000 0.00000
vn 0.00000 1.00000 0.00000
vn 0.00000 -1.00000 0.00000
vn 0.00000 0.00000 1.00000
vn 0.00000 0.00000 -1.00000
vn 1.00000 0.00000 0.00000
vn -1.00000 0.00000 0.00000
vn 0.00000 1.00000 0.00000
vn 0.00000 -1.00000 0.00000
vn 0.00000 0.00000 1.00000
vn 0.00000 0.00000 -1.00000
vn 1.00000 0.00000 0.00000
vn -1.00000 0.00000 0.00000
vn 0.00000 1.00000 0.00000
vn 0.00000 -1.00000 0.00000
vn 0.00000 0.00000 1.00000
vn 0.00000 0.00000 -1.00000
vn 1.00000 0.00000 0.00000
vn -1.00000 0.00000 0.00000
vn 0.00000 1.00000 0.00000
vn 0.00000 -1.00000 0.00000
vn 0.00000 0.00000 1.00000
vn 0.00000 0.00000 -1.00000
vn 1.00000 0.00000 0.00000
vn -1.00000 0.00000 0.00000
vn 0.00000 1.00000 0.00000
vn 0.00000 -1.00000 0.00000
vn 0.00000 0.00000 1.00000
vn 0.00000 0.00000 -1.00000
vn 1.00000 0.00000 0.00000
vn -1.00000 0.00000 0.00000
vn 0.00000 1.00000 0.00000
vn 0.00000 -1.00000 0.00000
vn 0.00000 0.00000 1.00000
vn 0.00000 0.00000 -1.00000
vn 1.00000 0.00000 0.00000
vn -1.00000 0.00000 0.00000
vn 0.00000 1.00000 0.00000
vn 0.00000 -1.00000 0.00000
vn 0.00000 0.00000 1.00000
vn 0.00000 0.00000 -1.00000
vn 1.00000 0.00000 0.00000
vn -1.00000 0.00000 0.00000
vn 0.00000 1.00000 0.00000
vn 0.00000 -1.00000 0.00000
vn 0.00000 0.00000 1.00000
vn 0.00000 0.00000 -1.00000
vn 1.00000 0.00000 0.00000
vn -1.00000 0.00000 0.00000
vn 0.00000 1.00000 0.00000
vn 0.00000 -1.00000 0.00000
vn 0.00000 0.00000 1.00000
vn 0.00000 0.00000 -1.00000
vn 1.00000 0.00000 0.00000
vn -1.00000 0.00000 0.00000
vn 0.00000 1.00000 0.00000
vn 0.00000 -1.00000 0.00000
vn 0.00000 0.00000 1.00000
vn 0.00000 0.00000 -1.00000
vn 1.00000 0.00000 0.00000
vn -1.00000 0.00000 0.00000
vn 0.00000 1.00000 0.00000
vn 0.00000 -1.00000 0.00000
vn 0.00000 0.00000 1.00000
vn 0.00000 0.00000 -1.00000
vn 1.00000 0.00000 0.00000
vn -1.00000 0.00000 0.00000
vn 0.00000 1.00000 0.00000
vn 0.00000 -1.00000 0.00000
vn 0.00000 0.00000 1.00000
vn 0.00000 0.00000 -1.00000
vn 1.00000 0.00000 0.00000
vn -1.00000 0.00000 0.00000
vn 0.00000 1.00000 0.00000
vn 0.00000 -1.00000 0.00000
vn 0.00000 0.00000 1.00000
vn 0.00000 0.00000 -1.00000
vn 1.00000 0.00000 0.00000
vn -1.00000 0.00000 0.00000
vn 0.00000 1.00000 0.00000
vn 0.00000 -1.00000 0.00000
vn 0.00000 0.00000 1.00000
vn 0.00000 0.00000 -1.00000
vn 1.00000 0.00000 0.00000
vn -1.00000 0.00000 0.00000
vn 0.00000 1.00000 0.00000
vn 0.00000 -1.00000 0.00000
vn 0.00000 0.00000 1.00000
vn 0.00000 0.00000 -1.00000
vn 1.00000 0.00000 0.00000
vn -1.00000 0.00000 0.00000
vn 0.00000 1.00000 0.00000
vn 0.00000 -1.00000 0.00000
vn 0.00000 0.00000 1.00000
vn 0.00000 0.00000 -1.00000
vn 1.00000 0.00000 0.00000
vn -1.00000 0.00000 0.00000
vn 0.00000 1.00000 0.00000
vn 0.00000 -1.00000 0.00000
vn 0.00000 0.00000 1.00000
vn 0.00000 0.00000 -1.00000
vn 1.00000 0.00000 0.00000
vn -1.00000 0.00000 0.00000
vn 0.00000 1.00000 0.00000
vn 0.00000 -1.00000 0.00000
vn 0.00000 0.00000 1.00000
vn 0.00000 0.00000 -1.00000
vn 1.00000 0.00000 0.00000
vn -1.00000 0.00000 0.00000
vn 0.00000 1.00000 0.00000
vn 0.00000 -1.00000 0.00000
vn 0.00000 0.00000 1.00000
vn 0.00000 0.00000 -1.00000
vn 1.00000 0.00000 0.00000
vn -1.00000 0.00000 0.00000
vn 0.00000 1.00000 0.00000
vn 0.00000 -1.00000 0.00000
vn 0.00000 0.00000 1.00000
vn 0.00000 0.00000 -1.00000
vn 1.00000 0.00000 0.00000
vn -1.00000 0.00000 0.00000
vn 0.00000 1.00000 0.00000
vn 0.00000 -1.00000 0.00000
vn 0.00000 0.00000 1.00000
vn 0.00000 0.00000 -1.00000
vn 1.00000 0.00000 0.00000
vn -1.00000 0.00000 0.00000
vn 0.00000 1.00000 0.00000
vn 0.00000 -1.00000 0.00000
vn 0.00000 0.00000 1.00000
vn 0.00000 0.00000 -1.00000
vn 1.00000 0.00000 0.00000
vn -1.00000 0.00000 0.00000
vn 0.00000 1.00000 0.00000
vn 0.00000 -1.00000 0.00000
vn 0.00000 0.00000 1.00000
vn 0.00000 0.00000 -1.00000
vn 1.00000 0.00000 0.00000
vn -1.00000 0.00000 0.00000
vn 0.00000 1.00000 0.00000
vn 0.00000 -1.00000 0.00000
vn 0.00000 0.00000 1.00000
vn 0.00000 0.00000 -1.00000
vn 1.00000 0.00000 0.00000
vn -1.00000 0.00000 0.00000
vn 0.00000 1.00000 0.00000
vn 0.00000 -1.00000 0.00000
vn 0.00000 0.00000 1.00000
vn 0.00000 0.00000 -1.00000
vn 1.00000 0.00000 0.00000
vn -1.00000 0.00000 0.00000
vn 0.00000 1.00000 0.00000
vn 0.00000 -1.00000 0.00000
vn 0.00000 0.00000 1.00000
vn 0.00000 0.00000 -1.00000
vn 1.00000 0.00000 0.00000
vn -1.00000 0.00000 0.00000
vn 0.00000 1.00000 0.00000
vn 0.00000 -1.00000 0.00000
vn 0.00000 0.00000 1.00000
vn 0.00000 0.00000 -1.00000
vn 1.00000 0.00000 0.00000
vn -1.00000 0.00000 0.00000
vn 0.00000 1.00000 0.00000
vn 0.00000 -1.00000 0.00000
vn 0.00000 0.00000 1.00000
vn 0.00000 0.00000 -1.00000
vn 1.00000 0.00000 0.00000
vn -1.00000 0.00000 0.00000
vn 0.00000 1.00000 0.00000
vn 0.00000 -1.00000 0.00000
vn 0.00000 0.00000 1.00000
vn 0.00000 0.00000 -1.00000
vn 1.00000 0.00000 0.00000
vn -1.00000 0.00000 0.00000
vn 0.00000 1.00000 0.00000
vn 0.00000 -1.00000 0.00000
vn 0.00000 0.00000 1.00000
vn 0.00000 0.00000 -1.00000
vn 1.00000 0.00000 0.00000
vn -1.00000 0.00000 0.00000
vn 0.00000 1.00000 0.00000
vn 0.00000 -1.00000 0.00000
vn 0.00000 0.00000 1.00000
vn 0.00000 0.00000 -1.00000
vn 1.00000 0.00000 0.00000
vn -1.00000 0.00000 0.00000
vn 0.00000 1.00000 0.00000
vn 0.00000 -1.00000 0.00000
vn 0.00000 0.00000 1.00000
vn 0.00000 0.00000 -1.00000
vn 1.00000 0.00000 0.00000
vn -1.00000 0.00000 0.00000
vn 0.00000 1.00000 0.00000
vn 0.00000 -1.00000 0.00000
vn 0.00000 0.00000 1.00000
vn 0.00000 0.00000 -1.00000
vn 1.00000 0.00000 0.00000
vn -1.00000 0.00000 0.00000
vn 0.00000 1.00000 0.00000
vn 0.00000 -1.00000 0.00000
vn 0.00000 0.00000 1.00000
vn 0.00000 0.00000 -1.00000
vn 1.00000 0.00000 0.00000
vn -1.00000 0.00000 0.00000
vn 0.00000 1.00000 0.00000
vn 0.00000 -1.00000 0.00000
vn 0.00000 0.00000 1.00000
vn 0.00000 0.00000 -1.00000
vn 1.00000 0.00000 0.00000
vn -1.00000 0.00000 0.00000
vn 0.00000 1.00000 0.00000
vn 0.00000 -1.00000 0.00000
vn 0.00000 0.00000 1.00000
vn 0.00000 0.00000 -1.00000
vn 1.00000 0.00000 0.00000
vn -1.00000 0.00000 0.00000
vn 0.00000 1.00000 0.00000
vn 0.00000 -1.00000 0.00000
vn 0.00000 0.00000 1.00000
vn 0.00000 0.00000 -1.00000
vn 1.00000 0.00000 0.00000
vn -1.00000 0.00000 0.00000
vn 0.00000 1.00000 0.00000
vn 0.00000 -1.00000 0.00000
vn 0.00000 0.00000 1.00000
vn 0.00000 0.00000 -1.00000
vn 1.00000 0.00000 0.00000
vn -1.00000 0.00000 0.00000
vn 0.00000 1.00000 0.00000
vn 0.00000 -1.00000 0.00000
vn 0.00000 0.00000 1.00000
vn 0.00000 0.00000 -1.00000
vn 1.00000 0.00000 0.00000
vn -1.00000 0.00000 0.00000
vn 0.00000 1.00000 0.00000
vn 0.00000 -1.00000 0.00000
vn 0.00000 0.00000 1.00000
vn 0.00000 0.00000 -1.00000
vn 1.00000 0.00000 0.00000
vn -1.00000 0.00000 0.00000
vn 0.00000 1.00000 0.00000
vn 0.00000 -1.00000 0.00000
vn 1.00000 0.00000 0.00000
vn -1.00000 0.00000 0.00000
vn 0.00000 1.00000 0.00000
vn 0.00000 -1.00000 0.00000
vn 0.00000 0.00000 1.00000
vn 0.00000 0.00000 -1.00000
vn 1.00000 0.00000 0.00000
vn -1.00000 0.00000 0.00000
vn 0.00000 1.00000 0.00000
vn 0.00000 -1.00000 0.00000
vn 0.00000 0.00000 1.00000
vn 0.00000 0.00000 -1.00000
usemtl paint_blue
f 1/1/1 2/2/1 3/3/1 4/4/1
f 5/5/2 6/6/2 7/7/2 8/8/2
f 9/9/3 10/10/3 11/11/3 12/12/3
f 13/13/4 14/14/4 15/15/4 16/16/4
f 17/17/5 18/18/5 19/19/5 20/20/5
f 21/21/6 22/22/6 23/23/6 24/24/6
f 25/25/7 26/26/7 27/27/7 28/28/7
f 29/29/8 30/30/8 31/31/8 32/32/8
f 33/33/9 34/34/9 35/35/9 36/36/9
f 37/37/10 38/38/10 39/39/10 40/40/10
f 41/41/11 42/42/11 43/43/11 44/44/11
f 45/45/12 46/46/12 47/47/12 48/48/12
f 49/49/13 50/50/13 51/51/13 52/52/13
f 53/53/14 54/54/14 55/55/14 56/56/14
f 57/57/15 58/58/15 59/59/15 60/60/15
f 61/61/16 62/62/16 63/63/16 64/64/16
f 65/65/17 66/66/17 67/67/17 68/68/17
f 69/69/18 70/70/18 71/71/18 72/72/18
f 73/73/19 74/74/19 75/75/19
f 76/76/20 77/77/20 78/78/20
f 79/79/21 80/80/21 81/81/21
f 82/82/22 83/83/22 84/84/22
f 85/85/23 86/86/23 87/87/23
f 88/88/24 89/89/24 90/90/24
f 91/91/25 92/92/25 93/93/25
f 94/94/26 95/95/26 96/96/26
usemtl glass_clear
f 97/97/27 98/98/27 99/99/27 100/100/27
usemtl steel_dark
f 101/101/28 102/102/28 103/103/28 104/104/28
f 105/105/29 106/106/29 107/107/29 108/108/29
f 109/109/30 110/110/30 111/111/30 112/112/30
f 113/113/31 114/114/31 115/115/31 116/116/31
f 117/117/32 118/118/32 119/119/32 120/120/32
f 121/121/33 122/122/33 123/123/33 124/124/33
f 245/245/64 246/246/64 247/247/64 248/248/64
f 249/249/65 250/250/65 251/251/65 252/252/65
f 253/253/66 254/254/66 255/255/66 256/256/66
f 257/257/67 258/258/67 259/259/67 260/260/67
f 261/261/68 262/262/68 263/263/68 264/264/68
f 265/265/69 266/266/69 267/267/69 268/268/69
f 389/389/100 390/390/100 391/391/100 392/392/100
f 393/393/101 394/394/101 395/395/101 396/396/101
f 397/397/102 398/398/102 399/399/102 400/400/102
f 401/401/103 402/402/103 403/403/103 404/404/103
f 405/405/104 406/406/104 407/407/104 408/408/104
f 409/409/105 410/410/105 411/411/105 412/412/105
f 533/533/136 534/534/136 535/535/136 536/536/136
f 537/537/137 538/538/137 539/539/137 540/540/137
f 541/541/138 542/542/138 543/543/138 544/544/138
f 545/545/139 546/546/139 547/547/139 548/548/139
f 549/549/140 550/550/140 551/551/140 552/552/140
f 553/553/141 554/554/141 555/555/141 556/556/141
f 677/677/172 678/678/172 679/679/172 680/680/172
f 681/681/173 682/682/173 683/683/173 684/684/173
f 685/685/174 686/686/174 687/687/174 688/688/174
f 689/689/175 690/690/175 691/691/175 692/692/175
f 693/693/176 694/694/176 695/695/176 696/696/176
f 697/697/177 698/698/177 699/699/177 700/700/177
f 869/869/220 870/870/220 871/871/220 872/872/220
f 873/873/221 874/874/221 875/875/221 876/876/221
f 877/877/222 878/878/222 879/879/222 880/880/222
f 881/881/223 882/882/223 883/883/223 884/884/223
f 885/885/224 886/886/224 887/887/224 888/888/224
f 889/889/225 890/890/225 891/891/225 892/892/225
f 893/893/226 894/894/226 895/895/226 896/896/226
f 897/897/227 898/898/227 899/899/227 900/900/227
f 901/901/228 902/902/228 903/903/228 904/904/228
f 905/905/229 906/906/229 907/907/229 908/908/229
f 909/909/230 910/910/230 911/911/230 912/912/230
f 913/913/231 914/914/231 915/915/231 916/916/231
f 917/917/232 918/918/232 919/919/232 920/920/232
f 921/921/233 922/922/233 923/923/233 924/924/233
f 925/925/234 926/926/234 927/927/234 928/928/234
f 929/929/235 930/930/235 931/931/235 932/932/235
f 933/933/236 934/934/236 935/935/236 936/936/236
f 937/937/237 938/938/237 939/939/237 940/940/237
f 941/941/238 942/942/238 943/943/238 944/944/238
f 945/945/239 946/946/239 947/947/239 948/948/239
f 949/949/240 950/950/240 951/951/240 952/952/240
f 953/953/241 954/954/241 955/955/241 956/956/241
f 957/957/242 958/958/242 959/959/242 960/960/242
f 961/961/243 962/962/243 963/963/243 964/964/243
f 965/965/244 966/966/244 967/967/244 968/968/244
f 969/969/245 970/970/245 971/971/245 972/972/245
f 973/973/246 974/974/246 975/975/246 976/976/246
f 977/977/247 978/978/247 979/979/247 980/980/247
f 981/981/248 982/982/248 983/983/248 984/984/248
f 985/985/249 986/986/249 987/987/249 988/988/249
f 989/989/250 990/990/250 991/991/250 992/992/250
f 993/993/251 994/994/251 995/995/251 996/996/251
f 997/997/252 998/998/252 999/999/252 1000/1000/252
f 1001/1001/253 1002/1002/253 1003/1003/253 1004/1004/253
f 1005/1005/254 1006/1006/254 1007/1007/254 1008/1008/254
f 1009/1009/255 1010/1010/255 1011/1011/255 1012/1012/255
f 1013/1013/256 1014/1014/256 1015/1015/256 1016/1016/256
f 1017/1017/257 1018/1018/257 1019/1019/257 1020/1020/257
f 1021/1021/258 1022/1022/258 1023/1023/258 1024/1024/258
f 1025/1025/259 1026/1026/259 1027/1027/259 1028/1028/259
f 1029/1029/260 1030/1030/260 1031/1031/260 1032/1032/260
f 1033/1033/261 1034/1034/261 1035/1035/261 1036/1036/261
f 1037/1037/262 1038/1038/262 1039/1039/262 1040/1040/262
f 1041/1041/263 1042/1042/263 1043/1043/263 1044/1044/263
f 1045/1045/264 1046/1046/264 1047/1047/264 1048/1048/264
f 1049/1049/265 1050/1050/265 1051/1051/265 1052/1052/265
f 1053/1053/266 1054/1054/266 1055/1055/266 1056/1056/266
f 1057/1057/267 1058/1058/267 1059/1059/267 1060/1060/267
f 1061/1061/268 1062/1062/268 1063/1063/268 1064/1064/268
f 1065/1065/269 1066/1066/269 1067/1067/269 1068/1068/269
f 1069/1069/270 1070/1070/270 1071/1071/270 1072/1072/270
f 1073/1073/271 1074/1074/271 1075/1075/271 1076/1076/271
f 1077/1077/272 1078/1078/272 1079/1079/272 1080/1080/272
f 1081/1081/273 1082/1082/273 1083/1083/273 1084/1084/273
f 1085/1085/274 1086/1086/274 1087/1087/274 1088/1088/274
f 1089/1089/275 1090/1090/275 1091/1091/275 1092/1092/275
f 1093/1093/276 1094/1094/276 1095/1095/276 1096/1096/276
f 1097/1097/277 1098/1098/277 1099/1099/277 1100/1100/277
f 1101/1101/278 1102/1102/278 1103/1103/278 1104/1104/278
f 1105/1105/279 1106/1106/279 1107/1107/279 1108/1108/279
f 1109/1109/280 1110/1110/280 1111/1111/280 1112/1112/280
f 1113/1113/281 1114/1114/281 1115/1115/281 1116/1116/281
f 1117/1117/282 1118/1118/282 1119/1119/282 1120/1120/282
f 1121/1121/283 1122/1122/283 1123/1123/283 1124/1124/283
f 1125/1125/284 1126/1126/284 1127/1127/284 1128/1128/284
f 1129/1129/285 1130/1130/285 1131/1131/285 1132/1132/285
f 1133/1133/286 1134/1134/286 1135/1135/286 1136/1136/286
f 1137/1137/287 1138/1138/287 1139/1139/287 1140/1140/287
f 1141/1141/288 1142/1142/288 1143/1143/288 1144/1144/288
f 1145/1145/289 1146/1146/289 1147/1147/289 1148/1148/289
f 1149/1149/290 1150/1150/290 1151/1151/290 1152/1152/290
f 1153/1153/291 1154/1154/291 1155/1155/291 1156/1156/291
f 1157/1157/292 1158/1158/292 1159/1159/292 1160/1160/292
f 1161/1161/293 1162/1162/293 1163/1163/293 1164/1164/293
f 1165/1165/294 1166/1166/294 1167/1167/294 1168/1168/294
f 1169/1169/295 1170/1170/295 1171/1171/295 1172/1172/295
f 1173/1173/296 1174/1174/296 1175/1175/296 1176/1176/296
f 1177/1177/297 1178/1178/297 1179/1179/297 1180/1180/297
f 1221/1221/308 1222/1222/308 1223/1223/308 1224/1224/308
f 1225/1225/309 1226/1226/309 1227/1227/309 1228/1228/309
f 1229/1229/310 1230/1230/310 1231/1231/310 1232/1232/310
f 1233/1233/311 1234/1234/311 1235/1235/311 1236/1236/311
f 1237/1237/312 1238/1238/312 1239/1239/312 1240/1240/312
f 1241/1241/313 1242/1242/313 1243/1243/313 1244/1244/313
usemtl paint_red
f 125/125/34 126/126/34 127/127/34 128/128/34
f 129/129/35 130/130/35 131/131/35 132/132/35
f 133/133/36 134/134/36 135/135/36 136/136/36
f 137/137/37 138/138/37 139/139/37 140/140/37
f 141/141/38 142/142/38 143/143/38 144/144/38
f 145/145/39 146/146/39 147/147/39 148/148/39
f 197/197/52 198/198/52 199/199/52 200/200/52
f 201/201/53 202/202/53 203/203/53 204/204/53
f 205/205/54 206/206/54 207/207/54 208/208/54
f 209/209/55 210/210/55 211/211/55 212/212/55
f 213/213/56 214/214/56 215/215/56 216/216/56
f 217/217/57 218/218/57 219/219/57 220/220/57
f 317/317/82 318/318/82 319/319/82 320/320/82
f 321/321/83 322/322/83 323/323/83 324/324/83
f 325/325/84 326/326/84 327/327/84 328/328/84
f 329/329/85 330/330/85 331/331/85 332/332/85
f 333/333/86 334/334/86 335/335/86 336/336/86
f 337/337/87 338/338/87 339/339/87 340/340/87
f 437/437/112 438/438/112 439/439/112 440/440/112
f 441/441/113 442/442/113 443/443/113 444/444/113
f 445/445/114 446/446/114 447/447/114 448/448/114
f 449/449/115 450/450/115 451/451/115 452/452/115
f 453/453/116 454/454/116 455/455/116 456/456/116
f 457/457/117 458/458/117 459/459/117 460/460/117
f 509/509/130 510/510/130 511/511/130 512/512/130
f 513/513/131 514/514/131 515/515/131 516/516/131
f 517/517/132 518/518/132 519/519/132 520/520/132
f 521/521/133 522/522/133 523/523/133 524/524/133
f 525/525/134 526/526/134 527/527/134 528/528/134
f 529/529/135 530/530/135 531/531/135 532/532/135
f 557/557/142 558/558/142 559/559/142 560/560/142
f 561/561/143 562/562/143 563/563/143 564/564/143
f 565/565/144 566/566/144 567/567/144 568/568/144
f 569/569/145 570/570/145 571/571/145 572/572/145
f 573/573/146 574/574/146 575/575/146 576/576/146
f 577/577/147 578/578/147 579/579/147 580/580/147
f 629/629/160 630/630/160 631/631/160 632/632/160
f 633/633/161 634/634/161 635/635/161 636/636/161
f 637/637/162 638/638/162 639/639/162 640/640/162
f 641/641/163 642/642/163 643/643/163 644/644/163
f 645/645/164 646/646/164 647/647/164 648/648/164
f 649/649/165 650/650/165 651/651/165 652/652/165
f 749/749/190 750/750/190 751/751/190 752/752/190
f 753/753/191 754/754/191 755/755/191 756/756/191
f 757/757/192 758/758/192 759/759/192 760/760/192
f 761/761/193 762/762/193 763/763/193 764/764/193
f 765/765/194 766/766/194 767/767/194 768/768/194
f 769/769/195 770/770/195 771/771/195 772/772/195
usemtl paint_yellow
f 149/149/40 150/150/40 151/151/40 152/152/40
f 153/153/41 154/154/41 155/155/41 156/156/41
f 157/157/42 158/158/42 159/159/42 160/160/42
f 161/161/43 162/162/43 163/163/43 164/164/43
f 165/165/44 166/166/44 167/167/44 168/168/44
f 169/169/45 170/170/45 171/171/45 172/172/45
f 221/221/58 222/222/58 223/223/58 224/224/58
f 225/225/59 226/226/59 227/227/59 228/228/59
f 229/229/60 230/230/60 231/231/60 232/232/60
f 233/233/61 234/234/61 235/235/61 236/236/61
f 237/237/62 238/238/62 239/239/62 240/240/62
f 241/241/63 242/242/63 243/243/63 244/244/63
f 269/269/70 270/270/70 271/271/70 272/272/70
f 273/273/71 274/274/71 275/275/71 276/276/71
f 277/277/72 278/278/72 279/279/72 280/280/72
f 281/281/73 282/282/73 283/283/73 284/284/73
f 285/285/74 286/286/74 287/287/74 288/288/74
f 289/289/75 290/290/75 291/291/75 292/292/75
f 341/341/88 342/342/88 343/343/88 344/344/88
f 345/345/89 346/346/89 347/347/89 348/348/89
f 349/349/90 350/350/90 351/351/90 352/352/90
f 353/353/91 354/354/91 355/355/91 356/356/91
f 357/357/92 358/358/92 359/359/92 360/360/92
f 361/361/93 362/362/93 363/363/93 364/364/93
f 461/461/118 462/462/118 463/463/118 464/464/118
f 465/465/119 466/466/119 467/467/119 468/468/119
f 469/469/120 470/470/120 471/471/120 472/472/120
f 473/473/121 474/474/121 475/475/121 476/476/121
f 477/477/122 478/478/122 479/479/122 480/480/122
f 481/481/123 482/482/123 483/483/123 484/484/123
f 581/581/148 582/582/148 583/583/148 584/584/148
f 585/585/149 586/586/149 587/587/149 588/588/149
f 589/589/150 590/590/150 591/591/150 592/592/150
f 593/593/151 594/594/151 595/595/151 596/596/151
f 597/597/152 598/598/152 599/599/152 600/600/152
f 601/601/153 602/602/153 603/603/153 604/604/153
f 653/653/166 654/654/166 655/655/166 656/656/166
f 657/657/167 658/658/167 659/659/167 660/660/167
f 661/661/168 662/662/168 663/663/168 664/664/168
f 665/665/169 666/666/169 667/667/169 668/668/169
f 669/669/170 670/670/170 671/671/170 672/672/170
f 673/673/171 674/674/171 675/675/171 676/676/171
f 701/701/178 702/702/178 703/703/178 704/704/178
f 705/705/179 706/706/179 707/707/179 708/708/179
f 709/709/180 710/710/180 711/711/180 712/712/180
f 713/713/181 714/714/181 715/715/181 716/716/181
f 717/717/182 718/718/182 719/719/182 720/720/182
f 721/721/183 722/722/183 723/723/183 724/724/183
f 773/773/196 774/774/196 775/775/196 776/776/196
f 777/777/197 778/778/197 779/779/197 780/780/197
f 781/781/198 782/782/198 783/783/198 784/784/198
f 785/785/199 786/786/199 787/787/199 788/788/199
f 789/789/200 790/790/200 791/791/200 792/792/200
f 793/793/201 794/794/201 795/795/201 796/796/201
usemtl paint_white
f 173/173/46 174/174/46 175/175/46 176/176/46
f 177/177/47 178/178/47 179/179/47 180/180/47
f 181/181/48 182/182/48 183/183/48 184/184/48
f 185/185/49 186/186/49 187/187/49 188/188/49
f 189/189/50 190/190/50 191/191/50 192/192/50
f 193/193/51 194/194/51 195/195/51 196/196/51
f 293/293/76 294/294/76 295/295/76 296/296/76
f 297/297/77 298/298/77 299/299/77 300/300/77
f 301/301/78 302/302/78 303/303/78 304/304/78
f 305/305/79 306/306/79 307/307/79 308/308/79
f 309/309/80 310/310/80 311/311/80 312/312/80
f 313/313/81 314/314/81 315/315/81 316/316/81
f 365/365/94 366/366/94 367/367/94 368/368/94
f 369/369/95 370/370/95 371/371/95 372/372/95
f 373/373/96 374/374/96 375/375/96 376/376/96
f 377/377/97 378/378/97 379/379/97 380/380/97
f 381/381/98 382/382/98 383/383/98 384/384/98
f 385/385/99 386/386/99 387/387/99 388/388/99
f 413/413/106 414/414/106 415/415/106 416/416/106
f 417/417/107 418/418/107 419/419/107 420/420/107
f 421/421/108 422/422/108 423/423/108 424/424/108
f 425/425/109 426/426/109 427/427/109 428/428/109
f 429/429/110 430/430/110 431/431/110 432/432/110
f 433/433/111 434/434/111 435/435/111 436/436/111
f 485/485/124 486/486/124 487/487/124 488/488/124
f 489/489/125 490/490/125 491/491/125 492/492/125
f 493/493/126 494/494/126 495/495/126 496/496/126
f 497/497/127 498/498/127 499/499/127 500/500/127
f 501/501/128 502/502/128 503/503/128 504/504/128
f 505/505/129 506/506/129 507/507/129 508/508/129
f 605/605/154 606/606/154 607/607/154 608/608/154
f 609/609/155 610/610/155 611/611/155 612/612/155
f 613/613/156 614/614/156 615/615/156 616/616/156
f 617/617/157 618/618/157 619/619/157 620/620/157
f 621/621/158 622/622/158 623/623/158 624/624/158
f 625/625/159 626/626/159 627/627/159 628/628/159
f 725/725/184 726/726/184 727/727/184 728/728/184
f 729/729/185 730/730/185 731/731/185 732/732/185
f 733/733/186 734/734/186 735/735/186 736/736/186
f 737/737/187 738/738/187 739/739/187 740/740/187
f 741/741/188 742/742/188 743/743/188 744/744/188
f 745/745/189 746/746/189 747/747/189 748/748/189
f 797/797/202 798/798/202 799/799/202 800/800/202
f 801/801/203 802/802/203 803/803/203 804/804/203
f 805/805/204 806/806/204 807/807/204 808/808/204
f 809/809/205 810/810/205 811/811/205 812/812/205
f 813/813/206 814/814/206 815/815/206 816/816/206
f 817/817/207 818/818/207 819/819/207 820/820/207
usemtl plastic_grey
f 821/821/208 822/822/208 823/823/208 824/824/208
f 825/825/209 826/826/209 827/827/209 828/828/209
f 829/829/210 830/830/210 831/831/210 832/832/210
f 833/833/211 834/834/211 835/835/211 836/836/211
f 837/837/212 838/838/212 839/839/212 840/840/212
f 841/841/213 842/842/213 843/843/213 844/844/213
f 1181/1181/298 1182/1182/298 1183/1183/298 1184/1184/298
f 1185/1185/299 1186/1186/299 1187/1187/299 1188/1188/299
f 1189/1189/300 1190/1190/300 1191/1191/300 1192/1192/300
f 1193/1193/301 1194/1194/301 1195/1195/301 1196/1196/301
usemtl glass_dark
f 845/845/214 846/846/214 847/847/214 848/848/214
f 849/849/215 850/850/215 851/851/215 852/852/215
f 853/853/216 854/854/216 855/855/216 856/856/216
f 857/857/217 858/858/217 859/859/217 860/860/217
f 861/861/218 862/862/218 863/863/218 864/864/218
f 865/865/219 866/866/219 867/867/219 868/868/219
usemtl rubber
f 1197/1197/302 1198/1198/302 1199/1199/302 1200/1200/302
f 1201/1201/303 1202/1202/303 1203/1203/303 1204/1204/303
f 1205/1205/304 1206/1206/304 1207/1207/304 1208/1208/304
f 1209/1209/305 1210/1210/305 1211/1211/305 1212/1212/305
f 1213/1213/306 1214/1214/306 1215/1215/306 1216/1216/306
f 1217/1217/307 1218/1218/307 1219/1219/307 1220/1220/307
