# generated by meshlib
mtllib sign_hanging.mtl
o sign_hanging
v 1.45000 -0.40000 0.04500
v 1.45000 -0.40000 -0.04500
v 1.45000 0.40000 -0.04500
v 1.45000 0.40000 0.04500
v -1.45000 -0.40000 -0.04500
v -1.45000 -0.40000 0.04500
v -1.45000 0.40000 0.04500
v -1.45000 0.40000 -0.04500
v -1.45000 0.40000 0.04500
v 1.45000 0.40000 0.04500
v 1.45000 0.40000 -0.04500
v -1.45000 0.40000 -0.04500
v -1.45000 -0.40000 -0.04500
v 1.45000 -0.40000 -0.04500
v 1.45000 -0.40000 0.04500
v -1.45000 -0.40000 0.04500
v -1.45000 -0.40000 0.04500
v 1.45000 -0.40000 0.04500
v 1.45000 0.40000 0.04500
v -1.45000 0.40000 0.04500
v 1.45000 -0.40000 -0.04500
v -1.45000 -0.40000 -0.04500
v -1.45000 0.40000 -0.04500
v 1.45000 0.40000 -0.04500
v -1.40000 -0.35000 0.04800
v 1.40000 -0.35000 0.04800
v 1.40000 0.35000 0.04800
v -1.40000 0.35000 0.04800
v 1.40000 -0.35000 -0.04800
v -1.40000 -0.35000 -0.04800
v -1.40000 0.35000 -0.04800
v 1.40000 0.35000 -0.04800
v -1.05000 0.35000 0.01800
v -1.03727 0.35000 0.01273
v -1.03727 0.90000 0.01273
v -1.05000 0.90000 0.01800
v -1.03727 0.35000 0.01273
v -1.03200 0.35000 0.00000
v -1.03200 0.90000 0.00000
v -1.03727 0.90000 0.01273
v -1.03200 0.35000 0.00000
v -1.03727 0.35000 -0.01273
v -1.03727 0.90000 -0.01273
v -1.03200 0.90000 0.00000
v -1.03727 0.35000 -0.01273
v -1.05000 0.35000 -0.01800
v -1.05000 0.90000 -0.01800
v -1.03727 0.90000 -0.01273
v -1.05000 0.35000 -0.01800
v -1.06273 0.35000 -0.01273
v -1.06273 0.90000 -0.01273
v -1.05000 0.90000 -0.01800
v -1.06273 0.35000 -0.01273
v -1.06800 0.35000 -0.00000
v -1.06800 0.90000 -0.00000
v -1.06273 0.90000 -0.01273
v -1.06800 0.35000 -0.00000
v -1.06273 0.35000 0.01273
v -1.06273 0.90000 0.01273
v -1.06800 0.90000 -0.00000
v -1.06273 0.35000 0.01273
v -1.05000 0.35000 0.01800
v -1.05000 0.90000 0.01800
v -1.06273 0.90000 0.01273
v -1.06273 0.35000 0.01273
v -1.06800 0.35000 -0.00000
v -1.06273 0.35000 -0.01273
v -1.05000 0.35000 -0.01800
v -1.03727 0.35000 -0.01273
v -1.03200 0.35000 0.00000
v -1.03727 0.35000 0.01273
v -1.05000 0.35000 0.01800
v -1.05000 0.90000 0.01800
v -1.03727 0.90000 0.01273
v -1.03200 0.90000 0.00000
v -1.03727 0.90000 -0.01273
v -1.05000 0.90000 -0.01800
v -1.06273 0.90000 -0.01273
v -1.06800 0.90000 -0.00000
v -1.06273 0.90000 0.01273
v -0.99000 0.91000 0.06000
v -0.99000 0.91000 -0.06000
v -0.99000 0.95000 -0.06000
v -0.99000 0.95000 0.06000
v -1.11000 0.91000 -0.06000
v -1.11000 0.91000 0.06000
v -1.11000 0.95000 0.06000
v -1.11000 0.95000 -0.06000
v -1.11000 0.95000 0.06000
v -0.99000 0.95000 0.06000
v -0.99000 0.95000 -0.06000
v -1.11000 0.95000 -0.06000
v -1.11000 0.91000 -0.06000
v -0.99000 0.91000 -0.06000
v -0.99000 0.91000 0.06000
v -1.11000 0.91000 0.06000
v -1.11000 0.91000 0.06000
v -0.99000 0.91000 0.06000
v -0.99000 0.95000 0.06000
v -1.11000 0.95000 0.06000
v -0.99000 0.91000 -0.06000
v -1.11000 0.91000 -0.06000
v -1.11000 0.95000 -0.06000
v -0.99000 0.95000 -0.06000
v 1.05000 0.35000 0.01800
v 1.06273 0.35000 0.01273
v 1.06273 0.90000 0.01273
v 1.05000 0.90000 0.01800
v 1.06273 0.35000 0.01273
v 1.06800 0.35000 0.00000
v 1.06800 0.90000 0.00000
v 1.06273 0.90000 0.01273
v 1.06800 0.35000 0.00000
v 1.06273 0.35000 -0.01273
v 1.06273 0.90000 -0.01273
v 1.06800 0.90000 0.00000
v 1.06273 0.35000 -0.01273
v 1.05000 0.35000 -0.01800
v 1.05000 0.90000 -0.01800
v 1.06273 0.90000 -0.01273
v 1.05000 0.35000 -0.01800
v 1.03727 0.35000 -0.01273
v 1.03727 0.90000 -0.01273
v 1.05000 0.90000 -0.01800
v 1.03727 0.35000 -0.01273
v 1.03200 0.35000 -0.00000
v 1.03200 0.90000 -0.00000
v 1.03727 0.90000 -0.01273
v 1.03200 0.35000 -0.00000
v 1.03727 0.35000 0.01273
v 1.03727 0.90000 0.01273
v 1.03200 0.90000 -0.00000
v 1.03727 0.35000 0.01273
v 1.05000 0.35000 0.01800
v 1.05000 0.90000 0.01800
v 1.03727 0.90000 0.01273
v 1.03727 0.35000 0.01273
v 1.03200 0.35000 -0.00000
v 1.03727 0.35000 -0.01273
v 1.05000 0.35000 -0.01800
v 1.06273 0.35000 -0.01273
v 1.06800 0.35000 0.00000
v 1.06273 0.35000 0.01273
v 1.05000 0.35000 0.01800
v 1.05000 0.90000 0.01800
v 1.06273 0.90000 0.01273
v 1.06800 0.90000 0.00000
v 1.06273 0.90000 -0.01273
v 1.05000 0.90000 -0.01800
v 1.03727 0.90000 -0.01273
v 1.03200 0.90000 -0.00000
v 1.03727 0.90000 0.01273
v 1.11000 0.91000 0.06000
v 1.11000 0.91000 -0.06000
v 1.11000 0.95000 -0.06000
v 1.11000 0.95000 0.06000
v 0.99000 0.91000 -0.06000
v 0.99000 0.91000 0.06000
v 0.99000 0.95000 0.06000
v 0.99000 0.95000 -0.06000
v 0.99000 0.95000 0.06000
v 1.11000 0.95000 0.06000
v 1.11000 0.95000 -0.06000
v 0.99000 0.95000 -0.06000
v 0.99000 0.91000 -0.06000
v 1.11000 0.91000 -0.06000
v 1.11000 0.91000 0.06000
v 0.99000 0.91000 0.06000
v 0.99000 0.91000 0.06000
v 1.11000 0.91000 0.06000
v 1.11000 0.95000 0.06000
v 0.99000 0.95000 0.06000
v 1.11000 0.91000 -0.06000
v 0.99000 0.91000 -0.06000
v 0.99000 0.95000 -0.06000
v 1.11000 0.95000 -0.06000
vt -0.09000 -0.80000
vt 0.09000 -0.80000
vt 0.09000 0.80000
vt -0.09000 0.80000
vt -0.09000 -0.80000
vt 0.09000 -0.80000
vt 0.09000 0.80000
vt -0.09000 0.80000
vt -2.90000 -0.09000
vt 2.90000 -0.09000
vt 2.90000 0.09000
vt -2.90000 0.09000
vt -2.90000 -0.09000
vt 2.90000 -0.09000
vt 2.90000 0.09000
vt -2.90000 0.09000
vt -2.90000 -0.80000
vt 2.90000 -0.80000
vt 2.90000 0.80000
vt -2.90000 0.80000
vt -2.90000 -0.80000
vt 2.90000 -0.80000
vt 2.90000 0.80000
vt -2.90000 0.80000
vt 0.00000 0.00000
vt 1.00000 0.00000
vt 1.00000 1.00000
vt 0.00000 1.00000
vt 0.00000 0.00000
vt 1.00000 0.00000
vt 1.00000 1.00000
vt 0.00000 1.00000
vt 0.00000 0.00000
vt 0.07069 0.00000
vt 0.07069 2.75000
vt 0.00000 2.75000
vt 0.07069 0.00000
vt 0.14137 0.00000
vt 0.14137 2.75000
vt 0.07069 2.75000
vt 0.14137 0.00000
vt 0.21206 0.00000
vt 0.21206 2.75000
vt 0.14137 2.75000
vt 0.21206 0.00000
vt 0.28274 0.00000
vt 0.28274 2.75000
vt 0.21206 2.75000
vt 0.28274 0.00000
vt 0.35343 0.00000
vt 0.35343 2.75000
vt 0.28274 2.75000
vt 0.35343 0.00000
vt 0.42412 0.00000
vt 0.42412 2.75000
vt 0.35343 2.75000
vt 0.42412 0.00000
vt 0.49480 0.00000
vt 0.49480 2.75000
vt 0.42412 2.75000
vt 0.49480 0.00000
vt 0.56549 0.00000
vt 0.56549 2.75000
vt 0.49480 2.75000
vt 0.06364 -0.06364
vt -0.00000 -0.09000
vt -0.06364 -0.06364
vt -0.09000 0.00000
vt -0.06364 0.06364
vt 0.00000 0.09000
vt 0.06364 0.06364
vt 0.09000 0.00000
vt 0.09000 0.00000
vt 0.06364 0.06364
vt 0.00000 0.09000
vt -0.06364 0.06364
vt -0.09000 0.00000
vt -0.06364 -0.06364
vt -0.00000 -0.09000
vt 0.06364 -0.06364
vt -0.30000 4.55000
vt 0.30000 4.55000
vt 0.30000 4.75000
vt -0.30000 4.75000
vt -0.30000 4.55000
vt 0.30000 4.55000
vt 0.30000 4.75000
vt -0.30000 4.75000
vt -5.55000 -0.30000
vt -4.95000 -0.30000
vt -4.95000 0.30000
vt -5.55000 0.30000
vt -5.55000 -0.30000
vt -4.95000 -0.30000
vt -4.95000 0.30000
vt -5.55000 0.30000
vt -5.55000 4.55000
vt -4.95000 4.55000
vt -4.95000 4.75000
vt -5.55000 4.75000
vt 4.95000 4.55000
vt 5.55000 4.55000
vt 5.55000 4.75000
vt 4.95000 4.75000
vt 0.00000 0.00000
vt 0.07069 0.00000
vt 0.07069 2.75000
vt 0.00000 2.75000
vt 0.07069 0.00000
vt 0.14137 0.00000
vt 0.14137 2.75000
vt 0.07069 2.75000
vt 0.14137 0.00000
vt 0.21206 0.00000
vt 0.21206 2.75000
vt 0.14137 2.75000
vt 0.21206 0.00000
vt 0.28274 0.00000
vt 0.28274 2.75000
vt 0.21206 2.75000
vt 0.28274 0.00000
vt 0.35343 0.00000
vt 0.35343 2.75000
vt 0.28274 2.75000
vt 0.35343 0.00000
vt 0.42412 0.00000
vt 0.42412 2.75000
vt 0.35343 2.75000
vt 0.42412 0.00000
vt 0.49480 0.00000
vt 0.49480 2.75000
vt 0.42412 2.75000
vt 0.49480 0.00000
vt 0.56549 0.00000
vt 0.56549 2.75000
vt 0.49480 2.75000
vt 0.06364 -0.06364
vt -0.00000 -0.09000
vt -0.06364 -0.06364
vt -0.09000 0.00000
vt -0.06364 0.06364
vt 0.00000 0.09000
vt 0.06364 0.06364
vt 0.09000 0.00000
vt 0.09000 0.00000
vt 0.06364 0.06364
vt 0.00000 0.09000
vt -0.06364 0.06364
vt -0.09000 0.00000
vt -0.06364 -0.06364
vt -0.00000 -0.09000
vt 0.06364 -0.06364
vt -0.30000 4.55000
vt 0.30000 4.55000
vt 0.30000 4.75000
vt -0.30000 4.75000
vt -0.30000 4.55000
vt 0.30000 4.55000
vt 0.30000 4.75000
vt -0.30000 4.75000
vt 4.95000 -0.30000
vt 5.55000 -0.30000
vt 5.55000 0.30000
vt 4.95000 0.30000
vt 4.95000 -0.30000
vt 5.55000 -0.30000
vt 5.55000 0.30000
vt 4.95000 0.30000
vt 4.95000 4.55000
vt 5.55000 4.55000
vt 5.55000 4.75000
vt 4.95000 4.75000
vt -5.55000 4.55000
vt -4.95000 4.55000
vt -4.95000 4.75000
vt -5.55000 4.75000
vn 1.00000 0.00000 0.00000
vn -1.00000 0.00000 0.00000
vn 0.00000 1.00000 0.00000
vn 0.00000 -1.00000 0.00000
vn 0.00000 0.00000 1.00000
vn 0.00000 0.00000 -1.00000
vn 0.00000 0.00000 1.00000
vn 0.00000 0.00000 -1.00000
vn 0.00000 0.00000 1.00000
vn 0.70711 0.00000 0.70711
vn 0.70711 0.00000 0.70711
vn 0.00000 0.00000 1.00000
vn 0.70711 0.00000 0.70711
vn 1.00000 0.00000 0.00000
vn 1.00000 0.00000 0.00000
vn 0.70711 0.00000 0.70711
vn 1.00000 0.00000 0.00000
vn 0.70711 0.00000 -0.70711
vn 0.70711 0.00000 -0.70711
vn 1.00000 0.00000 0.00000
vn 0.70711 0.00000 -0.70711
vn 0.00000 0.00000 -1.00000
vn 0.00000 0.00000 -1.00000
vn 0.70711 0.00000 -0.70711
vn 0.00000 0.00000 -1.00000
vn -0.70711 -0.00000 -0.70711
vn -0.70711 -0.00000 -0.70711
vn 0.00000 0.00000 -1.00000
vn -0.70711 -0.00000 -0.70711
vn -1.00000 -0.00000 -0.00000
vn -1.00000 -0.00000 -0.00000
vn -0.70711 -0.00000 -0.70711
vn -1.00000 -0.00000 -0.00000
vn -0.70711 0.00000 0.70711
vn -0.70711 0.00000 0.70711
vn -1.00000 -0.00000 -0.00000
vn -0.70711 0.00000 0.70711
vn 0.00000 0.00000 1.00000
vn 0.00000 0.00000 1.00000
vn -0.70711 0.00000 0.70711
vn -0.00000 -1.00000 -0.00000
vn 0.00000 1.00000 0.00000
vn 1.00000 0.00000 0.00000
vn -1.00000 0.00000 0.00000
vn 0.00000 1.00000 0.00000
vn 0.00000 -1.00000 0.00000
vn 0.00000 0.00000 1.00000
vn 0.00000 0.00000 -1.00000
vn 0.00000 0.00000 1.00000
vn 0.70711 0.00000 0.70711
vn 0.70711 0.00000 0.70711
vn 0.00000 0.00000 1.00000
vn 0.70711 0.00000 0.70711
vn 1.00000 0.00000 0.00000
vn 1.00000 0.00000 0.00000
vn 0.70711 0.00000 0.70711
vn 1.00000 0.00000 0.00000
vn 0.70711 0.00000 -0.70711
vn 0.70711 0.00000 -0.70711
vn 1.00000 0.00000 0.00000
vn 0.70711 0.00000 -0.70711
vn 0.00000 0.00000 -1.00000
vn 0.00000 0.00000 -1.00000
vn 0.70711 0.00000 -0.70711
vn 0.00000 0.00000 -1.00000
vn -0.70711 -0.00000 -0.70711
vn -0.70711 -0.00000 -0.70711
vn 0.00000 0.00000 -1.00000
vn -0.70711 -0.00000 -0.70711
vn -1.00000 -0.00000 -0.00000
vn -1.00000 -0.00000 -0.00000
vn -0.70711 -0.00000 -0.70711
vn -1.00000 -0.00000 -0.00000
vn -0.70711 0.00000 0.70711
vn -0.70711 0.00000 0.70711
vn -1.00000 -0.00000 -0.00000
vn -0.70711 0.00000 0.70711
vn 0.00000 0.00000 1.00000
vn 0.00000 0.00000 1.00000
vn -0.70711 0.00000 0.70711
vn -0.00000 -1.00000 -0.00000
vn 0.00000 1.00000 0.00000
vn 1.00000 0.00000 0.00000
vn -1.00000 0.00000 0.00000
vn 0.00000 1.00000 0.00000
vn 0.00000 -1.00000 0.00000
vn 0.00000 0.00000 1.00000
vn 0.00000 0.00000 -1.00000
usemtl steel_dark
f 1/1/1 2/2/1 3/3/1 4/4/1
f 5/5/2 6/6/2 7/7/2 8/8/2
f 9/9/3 10/10/3 11/11/3 12/12/3
f 13/13/4 14/14/4 15/15/4 16/16/4
f 17/17/5 18/18/5 19/19/5 20/20/5
f 21/21/6 22/22/6 23/23/6 24/24/6
f 33/33/9 34/34/10 35/35/11 36/36/12
f 37/37/13 38/38/14 39/39/15 40/40/16
f 41/41/17 42/42/18 43/43/19 44/44/20
f 45/45/21 46/46/22 47/47/23 48/48/24
f 49/49/25 50/50/26 51/51/27 52/52/28
f 53/53/29 54/54/30 55/55/31 56/56/32
f 57/57/33 58/58/34 59/59/35 60/60/36
f 61/61/37 62/62/38 63/63/39 64/64/40
f 65/65/41 66/66/41 67/67/41 68/68/41 69/69/41 70/70/41 71/71/41 72/72/41
f 73/73/42 74/74/42 75/75/42 76/76/42 77/77/42 78/78/42 79/79/42 80/80/42
f 81/81/43 82/82/43 83/83/43 84/84/43
f 85/85/44 86/86/44 87/87/44 88/88/44
f 89/89/45 90/90/45 91/91/45 92/92/45
f 93/93/46 94/94/46 95/95/46 96/96/46
f 97/97/47 98/98/47 99/99/47 100/100/47
f 101/101/48 102/102/48 103/103/48 104/104/48
f 105/105/49 106/106/50 107/107/51 108/108/52
f 109/109/53 110/110/54 111/111/55 112/112/56
f 113/113/57 114/114/58 115/115/59 116/116/60
f 117/117/61 118/118/62 119/119/63 120/120/64
f 121/121/65 122/122/66 123/123/67 124/124/68
f 125/125/69 126/126/70 127/127/71 128/128/72
f 129/129/73 130/130/74 131/131/75 132/132/76
f 133/133/77 134/134/78 135/135/79 136/136/80
f 137/137/81 138/138/81 139/139/81 140/140/81 141/141/81 142/142/81 143/143/81 144/144/81
f 145/145/82 146/146/82 147/147/82 148/148/82 149/149/82 150/150/82 151/151/82 152/152/82
f 153/153/83 154/154/83 155/155/83 156/156/83
f 157/157/84 158/158/84 159/159/84 160/160/84
f 161/161/85 162/162/85 163/163/85 164/164/85
f 165/165/86 166/166/86 167/167/86 168/168/86
f 169/169/87 170/170/87 171/171/87 172/172/87
f 173/173/88 174/174/88 175/175/88 176/176/88
usemtl sign_station
f 25/25/7 26/26/7 27/27/7 28/28/7
f 29/29/8 30/30/8 31/31/8 32/32/8
