# generated by meshlib
mtllib sign_exit.mtl
o sign_exit
v 0.49000 -0.20000 0.05000
v 0.49000 -0.20000 -0.05000
v 0.49000 0.20000 -0.05000
v 0.49000 0.20000 0.05000
v -0.49000 -0.20000 -0.05000
v -0.49000 -0.20000 0.05000
v -0.49000 0.20000 0.05000
v -0.49000 0.20000 -0.05000
v -0.49000 0.20000 0.05000
v 0.49000 0.20000 0.05000
v 0.49000 0.20000 -0.05000
v -0.49000 0.20000 -0.05000
v -0.49000 -0.20000 -0.05000
v 0.49000 -0.20000 -0.05000
v 0.49000 -0.20000 0.05000
v -0.49000 -0.20000 0.05000
v -0.49000 -0.20000 0.05000
v 0.49000 -0.20000 0.05000
v 0.49000 0.20000 0.05000
v -0.49000 0.20000 0.05000
v 0.49000 -0.20000 -0.05000
v -0.49000 -0.20000 -0.05000
v -0.49000 0.20000 -0.05000
v 0.49000 0.20000 -0.05000
v -0.46000 -0.17000 0.05200
v 0.46000 -0.17000 0.05200
v 0.46000 0.17000 0.05200
v -0.46000 0.17000 0.05200
v 0.46000 -0.17000 -0.05200
v -0.46000 -0.17000 -0.05200
v -0.46000 0.17000 -0.05200
v 0.46000 0.17000 -0.05200
v 0.00000 0.17000 0.01500
v 0.01061 0.17000 0.01061
v 0.01061 0.57000 0.01061
v 0.00000 0.57000 0.01500
v 0.01061 0.17000 0.01061
v 0.01500 0.17000 0.00000
v 0.01500 0.57000 0.00000
v 0.01061 0.57000 0.01061
v 0.01500 0.17000 0.00000
v 0.01061 0.17000 -0.01061
v 0.01061 0.57000 -0.01061
v 0.01500 0.57000 0.00000
v 0.01061 0.17000 -0.01061
v 0.00000 0.17000 -0.01500
v 0.00000 0.57000 -0.01500
v 0.01061 0.57000 -0.01061
v 0.00000 0.17000 -0.01500
v -0.01061 0.17000 -0.01061
v -0.01061 0.57000 -0.01061
v 0.00000 0.57000 -0.01500
v -0.01061 0.17000 -0.01061
v -0.01500 0.17000 -0.00000
v -0.01500 0.57000 -0.00000
v -0.01061 0.57000 -0.01061
v -0.01500 0.17000 -0.00000
v -0.01061 0.17000 0.01061
v -0.01061 0.57000 0.01061
v -0.01500 0.57000 -0.00000
v -0.01061 0.17000 0.01061
v 0.00000 0.17000 0.01500
v 0.00000 0.57000 0.01500
v -0.01061 0.57000 0.01061
v -0.01061 0.17000 0.01061
v -0.01500 0.17000 -0.00000
v -0.01061 0.17000 -0.01061
v 0.00000 0.17000 -0.01500
v 0.01061 0.17000 -0.01061
v 0.01500 0.17000 0.00000
v 0.01061 0.17000 0.01061
v 0.00000 0.17000 0.01500
v 0.00000 0.57000 0.01500
v 0.01061 0.57000 0.01061
v 0.01500 0.57000 0.00000
v 0.01061 0.57000 -0.01061
v 0.00000 0.57000 -0.01500
v -0.01061 0.57000 -0.01061
v -0.01500 0.57000 -0.00000
v -0.01061 0.57000 0.01061
vt -0.16667 -0.66667
vt 0.16667 -0.66667
vt 0.16667 0.66667
vt -0.16667 0.66667
vt -0.16667 -0.66667
vt 0.16667 -0.66667
vt 0.16667 0.66667
vt -0.16667 0.66667
vt -1.63333 -0.16667
vt 1.63333 -0.16667
vt 1.63333 0.16667
vt -1.63333 0.16667
vt -1.63333 -0.16667
vt 1.63333 -0.16667
vt 1.63333 0.16667
vt -1.63333 0.16667
vt -1.63333 -0.66667
vt 1.63333 -0.66667
vt 1.63333 0.66667
vt -1.63333 0.66667
vt -1.63333 -0.66667
vt 1.63333 -0.66667
vt 1.63333 0.66667
vt -1.63333 0.66667
vt 0.00000 0.00000
vt 1.00000 0.00000
vt 1.00000 1.00000
vt 0.00000 1.00000
vt 0.00000 0.00000
vt 1.00000 0.00000
vt 1.00000 1.00000
vt 0.00000 1.00000
vt 0.00000 0.00000
vt 0.05890 0.00000
vt 0.05890 2.00000
vt 0.00000 2.00000
vt 0.05890 0.00000
vt 0.11781 0.00000
vt 0.11781 2.00000
vt 0.05890 2.00000
vt 0.11781 0.00000
vt 0.17671 0.00000
vt 0.17671 2.00000
vt 0.11781 2.00000
vt 0.17671 0.00000
vt 0.23562 0.00000
vt 0.23562 2.00000
vt 0.17671 2.00000
vt 0.23562 0.00000
vt 0.29452 0.00000
vt 0.29452 2.00000
vt 0.23562 2.00000
vt 0.29452 0.00000
vt 0.35343 0.00000
vt 0.35343 2.00000
vt 0.29452 2.00000
vt 0.35343 0.00000
vt 0.41233 0.00000
vt 0.41233 2.00000
vt 0.35343 2.00000
vt 0.41233 0.00000
vt 0.47124 0.00000
vt 0.47124 2.00000
vt 0.41233 2.00000
vt 0.05303 -0.05303
vt -0.00000 -0.07500
vt -0.05303 -0.05303
vt -0.07500 0.00000
vt -0.05303 0.05303
vt 0.00000 0.07500
vt 0.05303 0.05303
vt 0.07500 0.00000
vt 0.07500 0.00000
vt 0.05303 0.05303
vt 0.00000 0.07500
vt -0.05303 0.05303
vt -0.07500 0.00000
vt -0.05303 -0.05303
vt -0.00000 -0.07500
vt 0.05303 -0.05303
vn 1.00000 0.00000 0.00000
vn -1.00000 0.00000 0.00000
vn 0.00000 1.00000 0.00000
vn 0.00000 -1.00000 0.00000
vn 0.00000 0.00000 1.00000
vn 0.00000 0.00000 -1.00000
vn 0.00000 0.00000 1.00000
vn 0.00000 0.00000 -1.00000
vn 0.00000 0.00000 1.00000
vn 0.70711 0.00000 0.70711
vn 0.70711 0.00000 0.70711
vn 0.00000 0.00000 1.00000
vn 0.70711 0.00000 0.70711
vn 1.00000 0.00000 0.00000
vn 1.00000 0.00000 0.00000
vn 0.70711 0.00000 0.70711
vn 1.00000 0.00000 0.00000
vn 0.70711 0.00000 -0.70711
vn 0.70711 0.00000 -0.70711
vn 1.00000 0.00000 0.00000
vn 0.70711 0.00000 -0.70711
vn 0.00000 0.00000 -1.00000
vn 0.00000 0.00000 -1.00000
vn 0.70711 0.00000 -0.70711
vn 0.00000 0.00000 -1.00000
vn -0.70711 -0.00000 -0.70711
vn -0.70711 -0.00000 -0.70711
vn 0.00000 0.00000 -1.00000
vn -0.70711 -0.00000 -0.70711
vn -1.00000 -0.00000 -0.00000
vn -1.00000 -0.00000 -0.00000
vn -0.70711 -0.00000 -0.70711
vn -1.00000 -0.00000 -0.00000
vn -0.70711 0.00000 0.70711
vn -0.70711 0.00000 0.70711
vn -1.00000 -0.00000 -0.00000
vn -0.70711 0.00000 0.70711
vn 0.00000 0.00000 1.00000
vn 0.00000 0.00000 1.00000
vn -0.70711 0.00000 0.70711
vn -0.00000 -1.00000 -0.00000
vn 0.00000 1.00000 0.00000
usemtl steel_dark
f 1/1/1 2/2/1 3/3/1 4/4/1
f 5/5/2 6/6/2 7/7/2 8/8/2
f 9/9/3 10/10/3 11/11/3 12/12/3
f 13/13/4 14/14/4 15/15/4 16/16/4
f 17/17/5 18/18/5 19/19/5 20/20/5
f 21/21/6 22/22/6 23/23/6 24/24/6
f 33/33/9 34/34/10 35/35/11 36/36/12
f 37/37/13 38/38/14 39/39/15 40/40/16
f 41/41/17 42/42/18 43/43/19 44/44/20
f 45/45/21 46/46/22 47/47/23 48/48/24
f 49/49/25 50/50/26 51/51/27 52/52/28
f 53/53/29 54/54/30 55/55/31 56/56/32
f 57/57/33 58/58/34 59/59/35 60/60/36
f 61/61/37 62/62/38 63/63/39 64/64/40
f 65/65/41 66/66/41 67/67/41 68/68/41 69/69/41 70/70/41 71/71/41 72/72/41
f 73/73/42 74/74/42 75/75/42 76/76/42 77/77/42 78/78/42 79/79/42 80/80/42
usemtl sign_exit_f
f 25/25/7 26/26/7 27/27/7 28/28/7
f 29/29/8 30/30/8 31/31/8 32/32/8
