# generated by meshlib
mtllib ticket_gate.mtl
o ticket_gate
v 0.77500 0.03000 -0.12000
v 0.77500 0.99000 -0.12000
v 0.77500 0.99000 0.12000
v 0.77500 0.03000 0.12000
v -0.77500 0.03000 0.12000
v -0.77500 0.99000 0.12000
v -0.77500 0.99000 -0.12000
v -0.77500 0.03000 -0.12000
v -0.74500 1.02000 0.12000
v 0.74500 1.02000 0.12000
v 0.74500 1.02000 -0.12000
v -0.74500 1.02000 -0.12000
v -0.74500 0.00000 -0.12000
v 0.74500 0.00000 -0.12000
v 0.74500 0.00000 0.12000
v -0.74500 0.00000 0.12000
v -0.74500 0.03000 0.15000
v 0.74500 0.03000 0.15000
v 0.74500 0.99000 0.15000
v -0.74500 0.99000 0.15000
v -0.74500 0.99000 -0.15000
v 0.74500 0.99000 -0.15000
v 0.74500 0.03000 -0.15000
v -0.74500 0.03000 -0.15000
v -0.77500 0.00000 -0.12000
v 0.77500 0.00000 -0.12000
v 0.77500 0.03000 -0.15000
v -0.77500 0.03000 -0.15000
v -0.77500 0.00000 0.12000
v 0.77500 0.00000 0.12000
v 0.77500 0.03000 0.15000
v -0.77500 0.03000 0.15000
v -0.77500 1.02000 -0.12000
v 0.77500 1.02000 -0.12000
v 0.77500 0.99000 -0.15000
v -0.77500 0.99000 -0.15000
v -0.77500 1.02000 0.12000
v 0.77500 1.02000 0.12000
v 0.77500 0.99000 0.15000
v -0.77500 0.99000 0.15000
v -0.77500 0.00000 -0.12000
v -0.77500 1.02000 -0.12000
v -0.74500 1.02000 -0.15000
v -0.74500 0.00000 -0.15000
v -0.77500 0.00000 0.12000
v -0.77500 1.02000 0.12000
v -0.74500 1.02000 0.15000
v -0.74500 0.00000 0.15000
v 0.77500 0.00000 -0.12000
v 0.77500 1.02000 -0.12000
v 0.74500 1.02000 -0.15000
v 0.74500 0.00000 -0.15000
v 0.77500 0.00000 0.12000
v 0.77500 1.02000 0.12000
v 0.74500 1.02000 0.15000
v 0.74500 0.00000 0.15000
v -0.77500 0.03000 -0.15000
v -0.77500 0.03000 0.15000
v -0.74500 0.00000 0.15000
v -0.74500 0.00000 -0.15000
v -0.77500 0.99000 -0.15000
v -0.77500 0.99000 0.15000
v -0.74500 1.02000 0.15000
v -0.74500 1.02000 -0.15000
v 0.77500 0.03000 -0.15000
v 0.77500 0.03000 0.15000
v 0.74500 0.00000 0.15000
v 0.74500 0.00000 -0.15000
v 0.77500 0.99000 -0.15000
v 0.77500 0.99000 0.15000
v 0.74500 1.02000 0.15000
v 0.74500 1.02000 -0.15000
v -0.77500 0.03000 -0.12000
v -0.74500 0.00000 -0.12000
v -0.74500 0.03000 -0.15000
v -0.77500 0.03000 0.12000
v -0.74500 0.00000 0.12000
v -0.74500 0.03000 0.15000
v -0.77500 0.99000 -0.12000
v -0.74500 1.02000 -0.12000
v -0.74500 0.99000 -0.15000
v -0.77500 0.99000 0.12000
v -0.74500 1.02000 0.12000
v -0.74500 0.99000 0.15000
v 0.77500 0.03000 -0.12000
v 0.74500 0.00000 -0.12000
v 0.74500 0.03000 -0.15000
v 0.77500 0.03000 0.12000
v 0.74500 0.00000 0.12000
v 0.74500 0.03000 0.15000
v 0.77500 0.99000 -0.12000
v 0.74500 1.02000 -0.12000
v 0.74500 0.99000 -0.15000
v 0.77500 0.99000 0.12000
v 0.74500 1.02000 0.12000
v 0.74500 0.99000 0.15000
v 0.78500 1.02000 0.16000
v 0.78500 1.02000 -0.16000
v 0.78500 1.06000 -0.16000
v 0.78500 1.06000 0.16000
v -0.78500 1.02000 -0.16000
v -0.78500 1.02000 0.16000
v -0.78500 1.06000 0.16000
v -0.78500 1.06000 -0.16000
v -0.78500 1.06000 0.16000
v 0.78500 1.06000 0.16000
v 0.78500 1.06000 -0.16000
v -0.78500 1.06000 -0.16000
v -0.78500 1.02000 -0.16000
v 0.78500 1.02000 -0.16000
v 0.78500 1.02000 0.16000
v -0.78500 1.02000 0.16000
v -0.78500 1.02000 0.16000
v 0.78500 1.02000 0.16000
v 0.78500 1.06000 0.16000
v -0.78500 1.06000 0.16000
v 0.78500 1.02000 -0.16000
v -0.78500 1.02000 -0.16000
v -0.78500 1.06000 -0.16000
v 0.78500 1.06000 -0.16000
v -0.29000 1.04000 0.10000
v -0.29000 1.04000 -0.10000
v -0.29000 1.10000 -0.10000
v -0.29000 1.10000 0.10000
v -0.55000 1.04000 -0.10000
v -0.55000 1.04000 0.10000
v -0.55000 1.10000 0.10000
v -0.55000 1.10000 -0.10000
v -0.55000 1.10000 0.10000
v -0.29000 1.10000 0.10000
v -0.29000 1.10000 -0.10000
v -0.55000 1.10000 -0.10000
v -0.55000 1.04000 -0.10000
v -0.29000 1.04000 -0.10000
v -0.29000 1.04000 0.10000
v -0.55000 1.04000 0.10000
v -0.55000 1.04000 0.10000
v -0.29000 1.04000 0.10000
v -0.29000 1.10000 0.10000
v -0.55000 1.10000 0.10000
v -0.29000 1.04000 -0.10000
v -0.55000 1.04000 -0.10000
v -0.55000 1.10000 -0.10000
v -0.29000 1.10000 -0.10000
v -0.33000 1.10000 0.06500
v -0.33000 1.10000 -0.06500
v -0.33000 1.12000 -0.06500
v -0.33000 1.12000 0.06500
v -0.51000 1.10000 -0.06500
v -0.51000 1.10000 0.06500
v -0.51000 1.12000 0.06500
v -0.51000 1.12000 -0.06500
v -0.51000 1.12000 0.06500
v -0.33000 1.12000 0.06500
v -0.33000 1.12000 -0.06500
v -0.51000 1.12000 -0.06500
v -0.51000 1.10000 -0.06500
v -0.33000 1.10000 -0.06500
v -0.33000 1.10000 0.06500
v -0.51000 1.10000 0.06500
v -0.51000 1.10000 0.06500
v -0.33000 1.10000 0.06500
v -0.33000 1.12000 0.06500
v -0.51000 1.12000 0.06500
v -0.33000 1.10000 -0.06500
v -0.51000 1.10000 -0.06500
v -0.51000 1.12000 -0.06500
v -0.33000 1.12000 -0.06500
v 0.54000 1.06500 0.05000
v 0.54000 1.06500 -0.05000
v 0.54000 1.09500 -0.05000
v 0.54000 1.09500 0.05000
v 0.38000 1.06500 -0.05000
v 0.38000 1.06500 0.05000
v 0.38000 1.09500 0.05000
v 0.38000 1.09500 -0.05000
v 0.38000 1.09500 0.05000
v 0.54000 1.09500 0.05000
v 0.54000 1.09500 -0.05000
v 0.38000 1.09500 -0.05000
v 0.38000 1.06500 -0.05000
v 0.54000 1.06500 -0.05000
v 0.54000 1.06500 0.05000
v 0.38000 1.06500 0.05000
v 0.38000 1.06500 0.05000
v 0.54000 1.06500 0.05000
v 0.54000 1.09500 0.05000
v 0.38000 1.09500 0.05000
v 0.54000 1.06500 -0.05000
v 0.38000 1.06500 -0.05000
v 0.38000 1.09500 -0.05000
v 0.54000 1.09500 -0.05000
v 0.42000 0.19000 -0.43500
v 0.42000 0.19000 -0.46500
v 0.42000 1.05000 -0.46500
v 0.42000 1.05000 -0.43500
v -0.18000 0.19000 -0.46500
v -0.18000 0.19000 -0.43500
v -0.18000 1.05000 -0.43500
v -0.18000 1.05000 -0.46500
v -0.18000 1.05000 -0.43500
v 0.42000 1.05000 -0.43500
v 0.42000 1.05000 -0.46500
v -0.18000 1.05000 -0.46500
v -0.18000 0.19000 -0.46500
v 0.42000 0.19000 -0.46500
v 0.42000 0.19000 -0.43500
v -0.18000 0.19000 -0.43500
v -0.18000 0.19000 -0.43500
v 0.42000 0.19000 -0.43500
v 0.42000 1.05000 -0.43500
v -0.18000 1.05000 -0.43500
v 0.42000 0.19000 -0.46500
v -0.18000 0.19000 -0.46500
v -0.18000 1.05000 -0.46500
v 0.42000 1.05000 -0.46500
v 0.42000 0.16000 -0.42500
v 0.42000 0.16000 -0.47500
v 0.42000 0.22000 -0.47500
v 0.42000 0.22000 -0.42500
v -0.18000 0.16000 -0.47500
v -0.18000 0.16000 -0.42500
v -0.18000 0.22000 -0.42500
v -0.18000 0.22000 -0.47500
v -0.18000 0.22000 -0.42500
v 0.42000 0.22000 -0.42500
v 0.42000 0.22000 -0.47500
v -0.18000 0.22000 -0.47500
v -0.18000 0.16000 -0.47500
v 0.42000 0.16000 -0.47500
v 0.42000 0.16000 -0.42500
v -0.18000 0.16000 -0.42500
v -0.18000 0.16000 -0.42500
v 0.42000 0.16000 -0.42500
v 0.42000 0.22000 -0.42500
v -0.18000 0.22000 -0.42500
v 0.42000 0.16000 -0.47500
v -0.18000 0.16000 -0.47500
v -0.18000 0.22000 -0.47500
v 0.42000 0.22000 -0.47500
v 0.42000 0.19000 0.46500
v 0.42000 0.19000 0.43500
v 0.42000 1.05000 0.43500
v 0.42000 1.05000 0.46500
v -0.18000 0.19000 0.43500
v -0.18000 0.19000 0.46500
v -0.18000 1.05000 0.46500
v -0.18000 1.05000 0.43500
v -0.18000 1.05000 0.46500
v 0.42000 1.05000 0.46500
v 0.42000 1.05000 0.43500
v -0.18000 1.05000 0.43500
v -0.18000 0.19000 0.43500
v 0.42000 0.19000 0.43500
v 0.42000 0.19000 0.46500
v -0.18000 0.19000 0.46500
v -0.18000 0.19000 0.46500
v 0.42000 0.19000 0.46500
v 0.42000 1.05000 0.46500
v -0.18000 1.05000 0.46500
v 0.42000 0.19000 0.43500
v -0.18000 0.19000 0.43500
v -0.18000 1.05000 0.43500
v 0.42000 1.05000 0.43500
v 0.42000 0.16000 0.47500
v 0.42000 0.16000 0.42500
v 0.42000 0.22000 0.42500
v 0.42000 0.22000 0.47500
v -0.18000 0.16000 0.42500
v -0.18000 0.16000 0.47500
v -0.18000 0.22000 0.47500
v -0.18000 0.22000 0.42500
v -0.18000 0.22000 0.47500
v 0.42000 0.22000 0.47500
v 0.42000 0.22000 0.42500
v -0.18000 0.22000 0.42500
v -0.18000 0.16000 0.42500
v 0.42000 0.16000 0.42500
v 0.42000 0.16000 0.47500
v -0.18000 0.16000 0.47500
v -0.18000 0.16000 0.47500
v 0.42000 0.16000 0.47500
v 0.42000 0.22000 0.47500
v -0.18000 0.22000 0.47500
v 0.42000 0.16000 0.42500
v -0.18000 0.16000 0.42500
v -0.18000 0.22000 0.42500
v 0.42000 0.22000 0.42500
v 0.78500 0.00000 0.16000
v 0.78500 0.00000 -0.16000
v 0.78500 0.08000 -0.16000
v 0.78500 0.08000 0.16000
v -0.78500 0.00000 -0.16000
v -0.78500 0.00000 0.16000
v -0.78500 0.08000 0.16000
v -0.78500 0.08000 -0.16000
v -0.78500 0.08000 0.16000
v 0.78500 0.08000 0.16000
v 0.78500 0.08000 -0.16000
v -0.78500 0.08000 -0.16000
v -0.78500 0.00000 -0.16000
v 0.78500 0.00000 -0.16000
v 0.78500 0.00000 0.16000
v -0.78500 0.00000 0.16000
v -0.78500 0.00000 0.16000
v 0.78500 0.00000 0.16000
v 0.78500 0.08000 0.16000
v -0.78500 0.08000 0.16000
v 0.78500 0.00000 -0.16000
v -0.78500 0.00000 -0.16000
v -0.78500 0.08000 -0.16000
v 0.78500 0.08000 -0.16000
vt -0.96000 -0.24000
vt 0.96000 -0.24000
vt 0.96000 0.24000
vt -0.96000 0.24000
vt -0.96000 0.24000
vt 0.96000 0.24000
vt 0.96000 -0.24000
vt -0.96000 -0.24000
vt -1.49000 0.24000
vt 1.49000 0.24000
vt 1.49000 -0.24000
vt -1.49000 -0.24000
vt -1.49000 -0.24000
vt 1.49000 -0.24000
vt 1.49000 0.24000
vt -1.49000 0.24000
vt -1.49000 -0.96000
vt 1.49000 -0.96000
vt 1.49000 0.96000
vt -1.49000 0.96000
vt -1.49000 0.96000
vt 1.49000 0.96000
vt 1.49000 -0.96000
vt -1.49000 -0.96000
vt 0.00000 0.00000
vt 3.10000 0.00000
vt 3.10000 0.06000
vt 0.00000 0.06000
vt 0.00000 0.00000
vt 3.10000 0.00000
vt 3.10000 0.06000
vt 0.00000 0.06000
vt 0.00000 0.00000
vt 3.10000 0.00000
vt 3.10000 0.06000
vt 0.00000 0.06000
vt 0.00000 0.00000
vt 3.10000 0.00000
vt 3.10000 0.06000
vt 0.00000 0.06000
vt 0.00000 0.00000
vt 2.04000 0.00000
vt 2.04000 0.06000
vt 0.00000 0.06000
vt 0.00000 0.00000
vt 2.04000 0.00000
vt 2.04000 0.06000
vt 0.00000 0.06000
vt 0.00000 0.00000
vt 2.04000 0.00000
vt 2.04000 0.06000
vt 0.00000 0.06000
vt 0.00000 0.00000
vt 2.04000 0.00000
vt 2.04000 0.06000
vt 0.00000 0.06000
vt 0.00000 0.00000
vt 0.60000 0.00000
vt 0.60000 0.06000
vt 0.00000 0.06000
vt 0.00000 0.00000
vt 0.60000 0.00000
vt 0.60000 0.06000
vt 0.00000 0.06000
vt 0.00000 0.00000
vt 0.60000 0.00000
vt 0.60000 0.06000
vt 0.00000 0.06000
vt 0.00000 0.00000
vt 0.60000 0.00000
vt 0.60000 0.06000
vt 0.00000 0.06000
vt 0.00000 0.00000
vt 0.06000 0.00000
vt 0.00000 0.06000
vt 0.00000 0.00000
vt 0.06000 0.00000
vt 0.00000 0.06000
vt 0.00000 0.00000
vt 0.06000 0.00000
vt 0.00000 0.06000
vt 0.00000 0.00000
vt 0.06000 0.00000
vt 0.00000 0.06000
vt 0.00000 0.00000
vt 0.06000 0.00000
vt 0.00000 0.06000
vt 0.00000 0.00000
vt 0.06000 0.00000
vt 0.00000 0.06000
vt 0.00000 0.00000
vt 0.06000 0.00000
vt 0.00000 0.06000
vt 0.00000 0.00000
vt 0.06000 0.00000
vt 0.00000 0.06000
vt -0.53333 3.40000
vt 0.53333 3.40000
vt 0.53333 3.53333
vt -0.53333 3.53333
vt -0.53333 3.40000
vt 0.53333 3.40000
vt 0.53333 3.53333
vt -0.53333 3.53333
vt -2.61667 -0.53333
vt 2.61667 -0.53333
vt 2.61667 0.53333
vt -2.61667 0.53333
vt -2.61667 -0.53333
vt 2.61667 -0.53333
vt 2.61667 0.53333
vt -2.61667 0.53333
vt -2.61667 3.40000
vt 2.61667 3.40000
vt 2.61667 3.53333
vt -2.61667 3.53333
vt -2.61667 3.40000
vt 2.61667 3.40000
vt 2.61667 3.53333
vt -2.61667 3.53333
vt -0.50000 5.20000
vt 0.50000 5.20000
vt 0.50000 5.50000
vt -0.50000 5.50000
vt -0.50000 5.20000
vt 0.50000 5.20000
vt 0.50000 5.50000
vt -0.50000 5.50000
vt -2.75000 -0.50000
vt -1.45000 -0.50000
vt -1.45000 0.50000
vt -2.75000 0.50000
vt -2.75000 -0.50000
vt -1.45000 -0.50000
vt -1.45000 0.50000
vt -2.75000 0.50000
vt -2.75000 5.20000
vt -1.45000 5.20000
vt -1.45000 5.50000
vt -2.75000 5.50000
vt 1.45000 5.20000
vt 2.75000 5.20000
vt 2.75000 5.50000
vt 1.45000 5.50000
vt -0.32500 5.50000
vt 0.32500 5.50000
vt 0.32500 5.60000
vt -0.32500 5.60000
vt -0.32500 5.50000
vt 0.32500 5.50000
vt 0.32500 5.60000
vt -0.32500 5.60000
vt -2.55000 -0.32500
vt -1.65000 -0.32500
vt -1.65000 0.32500
vt -2.55000 0.32500
vt -2.55000 -0.32500
vt -1.65000 -0.32500
vt -1.65000 0.32500
vt -2.55000 0.32500
vt -2.55000 5.50000
vt -1.65000 5.50000
vt -1.65000 5.60000
vt -2.55000 5.60000
vt 1.65000 5.50000
vt 2.55000 5.50000
vt 2.55000 5.60000
vt 1.65000 5.60000
vt -0.25000 5.32500
vt 0.25000 5.32500
vt 0.25000 5.47500
vt -0.25000 5.47500
vt -0.25000 5.32500
vt 0.25000 5.32500
vt 0.25000 5.47500
vt -0.25000 5.47500
vt 1.90000 -0.25000
vt 2.70000 -0.25000
vt 2.70000 0.25000
vt 1.90000 0.25000
vt 1.90000 -0.25000
vt 2.70000 -0.25000
vt 2.70000 0.25000
vt 1.90000 0.25000
vt 1.90000 5.32500
vt 2.70000 5.32500
vt 2.70000 5.47500
vt 1.90000 5.47500
vt -2.70000 5.32500
vt -1.90000 5.32500
vt -1.90000 5.47500
vt -2.70000 5.47500
vt 0.43500 0.19000
vt 0.46500 0.19000
vt 0.46500 1.05000
vt 0.43500 1.05000
vt -0.46500 0.19000
vt -0.43500 0.19000
vt -0.43500 1.05000
vt -0.46500 1.05000
vt -0.18000 0.43500
vt 0.42000 0.43500
vt 0.42000 0.46500
vt -0.18000 0.46500
vt -0.18000 -0.46500
vt 0.42000 -0.46500
vt 0.42000 -0.43500
vt -0.18000 -0.43500
vt -0.18000 0.19000
vt 0.42000 0.19000
vt 0.42000 1.05000
vt -0.18000 1.05000
vt -0.42000 0.19000
vt 0.18000 0.19000
vt 0.18000 1.05000
vt -0.42000 1.05000
vt 2.12500 0.80000
vt 2.37500 0.80000
vt 2.37500 1.10000
vt 2.12500 1.10000
vt -2.37500 0.80000
vt -2.12500 0.80000
vt -2.12500 1.10000
vt -2.37500 1.10000
vt -0.90000 2.12500
vt 2.10000 2.12500
vt 2.10000 2.37500
vt -0.90000 2.37500
vt -0.90000 -2.37500
vt 2.10000 -2.37500
vt 2.10000 -2.12500
vt -0.90000 -2.12500
vt -0.90000 0.80000
vt 2.10000 0.80000
vt 2.10000 1.10000
vt -0.90000 1.10000
vt -2.10000 0.80000
vt 0.90000 0.80000
vt 0.90000 1.10000
vt -2.10000 1.10000
vt -0.46500 0.19000
vt -0.43500 0.19000
vt -0.43500 1.05000
vt -0.46500 1.05000
vt 0.43500 0.19000
vt 0.46500 0.19000
vt 0.46500 1.05000
vt 0.43500 1.05000
vt -0.18000 -0.46500
vt 0.42000 -0.46500
vt 0.42000 -0.43500
vt -0.18000 -0.43500
vt -0.18000 0.43500
vt 0.42000 0.43500
vt 0.42000 0.46500
vt -0.18000 0.46500
vt -0.18000 0.19000
vt 0.42000 0.19000
vt 0.42000 1.05000
vt -0.18000 1.05000
vt -0.42000 0.19000
vt 0.18000 0.19000
vt 0.18000 1.05000
vt -0.42000 1.05000
vt -2.37500 0.80000
vt -2.12500 0.80000
vt -2.12500 1.10000
vt -2.37500 1.10000
vt 2.12500 0.80000
vt 2.37500 0.80000
vt 2.37500 1.10000
vt 2.12500 1.10000
vt -0.90000 -2.37500
vt 2.10000 -2.37500
vt 2.10000 -2.12500
vt -0.90000 -2.12500
vt -0.90000 2.12500
vt 2.10000 2.12500
vt 2.10000 2.37500
vt -0.90000 2.37500
vt -0.90000 0.80000
vt 2.10000 0.80000
vt 2.10000 1.10000
vt -0.90000 1.10000
vt -2.10000 0.80000
vt 0.90000 0.80000
vt 0.90000 1.10000
vt -2.10000 1.10000
vt -0.53333 0.00000
vt 0.53333 0.00000
vt 0.53333 0.26667
vt -0.53333 0.26667
vt -0.53333 0.00000
vt 0.53333 0.00000
vt 0.53333 0.26667
vt -0.53333 0.26667
vt -2.61667 -0.53333
vt 2.61667 -0.53333
vt 2.61667 0.53333
vt -2.61667 0.53333
vt -2.61667 -0.53333
vt 2.61667 -0.53333
vt 2.61667 0.53333
vt -2.61667 0.53333
vt -2.61667 0.00000
vt 2.61667 0.00000
vt 2.61667 0.26667
vt -2.61667 0.26667
vt -2.61667 0.00000
vt 2.61667 0.00000
vt 2.61667 0.26667
vt -2.61667 0.26667
vn 1.00000 0.00000 0.00000
vn -1.00000 0.00000 0.00000
vn 0.00000 1.00000 0.00000
vn 0.00000 -1.00000 0.00000
vn 0.00000 0.00000 1.00000
vn 0.00000 0.00000 -1.00000
vn -0.00000 0.70711 0.70711
vn 0.00000 -0.70711 0.70711
vn 0.00000 0.70711 -0.70711
vn -0.00000 -0.70711 -0.70711
vn -0.70711 0.00000 -0.70711
vn 0.70711 -0.00000 -0.70711
vn -0.70711 -0.00000 0.70711
vn 0.70711 0.00000 0.70711
vn 0.70711 0.70711 -0.00000
vn -0.70711 0.70711 0.00000
vn 0.70711 -0.70711 0.00000
vn -0.70711 -0.70711 -0.00000
vn 0.57735 0.57735 0.57735
vn -0.57735 -0.57735 0.57735
vn -0.57735 0.57735 -0.57735
vn 0.57735 -0.57735 -0.57735
vn 0.57735 -0.57735 -0.57735
vn -0.57735 0.57735 -0.57735
vn -0.57735 -0.57735 0.57735
vn 0.57735 0.57735 0.57735
vn 1.00000 0.00000 0.00000
vn -1.00000 0.00000 0.00000
vn 0.00000 1.00000 0.00000
vn 0.00000 -1.00000 0.00000
vn 0.00000 0.00000 1.00000
vn 0.00000 0.00000 -1.00000
vn 1.00000 0.00000 0.00000
vn -1.00000 0.00000 0.00000
vn 0.00000 1.00000 0.00000
vn 0.00000 -1.00000 0.00000
vn 0.00000 0.00000 1.00000
vn 0.00000 0.00000 -1.00000
vn 1.00000 0.00000 0.00000
vn -1.00000 0.00000 0.00000
vn 0.00000 1.00000 0.00000
vn 0.00000 -1.00000 0.00000
vn 0.00000 0.00000 1.00000
vn 0.00000 0.00000 -1.00000
vn 1.00000 0.00000 0.00000
vn -1.00000 0.00000 0.00000
vn 0.00000 1.00000 0.00000
vn 0.00000 -1.00000 0.00000
vn 0.00000 0.00000 1.00000
vn 0.00000 0.00000 -1.00000
vn 1.00000 0.00000 0.00000
vn -1.00000 0.00000 0.00000
vn 0.00000 1.00000 0.00000
vn 0.00000 -1.00000 0.00000
vn 0.00000 0.00000 1.00000
vn 0.00000 0.00000 -1.00000
vn 1.00000 0.00000 0.00000
vn -1.00000 0.00000 0.00000
vn 0.00000 1.00000 0.00000
vn 0.00000 -1.00000 0.00000
vn 0.00000 0.00000 1.00000
vn 0.00000 0.00000 -1.00000
vn 1.00000 0.00000 0.00000
vn -1.00000 0.00000 0.00000
vn 0.00000 1.00000 0.00000
vn 0.00000 -1.00000 0.00000
vn 0.00000 0.00000 1.00000
vn 0.00000 0.00000 -1.00000
vn 1.00000 0.00000 0.00000
vn -1.00000 0.00000 0.00000
vn 0.00000 1.00000 0.00000
vn 0.00000 -1.00000 0.00000
vn 0.00000 0.00000 1.00000
vn 0.00000 0.00000 -1.00000
vn 1.00000 0.00000 0.00000
vn -1.00000 0.00000 0.00000
vn 0.00000 1.00000 0.00000
vn 0.00000 -1.00000 0.00000
vn 0.00000 0.00000 1.00000
vn 0.00000 0.00000 -1.00000
usemtl steel
f 1/1/1 2/2/1 3/3/1 4/4/1
f 5/5/2 6/6/2 7/7/2 8/8/2
f 9/9/3 10/10/3 11/11/3 12/12/3
f 13/13/4 14/14/4 15/15/4 16/16/4
f 17/17/5 18/18/5 19/19/5 20/20/5
f 21/21/6 22/22/6 23/23/6 24/24/6
f 25/25/7 26/26/7 27/27/7 28/28/7
f 29/29/8 30/30/8 31/31/8 32/32/8
f 33/33/9 34/34/9 35/35/9 36/36/9
f 37/37/10 38/38/10 39/39/10 40/40/10
f 41/41/11 42/42/11 43/43/11 44/44/11
f 45/45/12 46/46/12 47/47/12 48/48/12
f 49/49/13 50/50/13 51/51/13 52/52/13
f 53/53/14 54/54/14 55/55/14 56/56/14
f 57/57/15 58/58/15 59/59/15 60/60/15
f 61/61/16 62/62/16 63/63/16 64/64/16
f 65/65/17 66/66/17 67/67/17 68/68/17
f 69/69/18 70/70/18 71/71/18 72/72/18
f 73/73/19 74/74/19 75/75/19
f 76/76/20 77/77/20 78/78/20
f 79/79/21 80/80/21 81/81/21
f 82/82/22 83/83/22 84/84/22
f 85/85/23 86/86/23 87/87/23
f 88/88/24 89/89/24 90/90/24
f 91/91/25 92/92/25 93/93/25
f 94/94/26 95/95/26 96/96/26
usemtl steel_dark
f 97/97/27 98/98/27 99/99/27 100/100/27
f 101/101/28 102/102/28 103/103/28 104/104/28
f 105/105/29 106/106/29 107/107/29 108/108/29
f 109/109/30 110/110/30 111/111/30 112/112/30
f 113/113/31 114/114/31 115/115/31 116/116/31
f 117/117/32 118/118/32 119/119/32 120/120/32
f 217/217/57 218/218/57 219/219/57 220/220/57
f 221/221/58 222/222/58 223/223/58 224/224/58
f 225/225/59 226/226/59 227/227/59 228/228/59
f 229/229/60 230/230/60 231/231/60 232/232/60
f 233/233/61 234/234/61 235/235/61 236/236/61
f 237/237/62 238/238/62 239/239/62 240/240/62
f 265/265/69 266/266/69 267/267/69 268/268/69
f 269/269/70 270/270/70 271/271/70 272/272/70
f 273/273/71 274/274/71 275/275/71 276/276/71
f 277/277/72 278/278/72 279/279/72 280/280/72
f 281/281/73 282/282/73 283/283/73 284/284/73
f 285/285/74 286/286/74 287/287/74 288/288/74
f 289/289/75 290/290/75 291/291/75 292/292/75
f 293/293/76 294/294/76 295/295/76 296/296/76
f 297/297/77 298/298/77 299/299/77 300/300/77
f 301/301/78 302/302/78 303/303/78 304/304/78
f 305/305/79 306/306/79 307/307/79 308/308/79
f 309/309/80 310/310/80 311/311/80 312/312/80
usemtl plastic_grey
f 121/121/33 122/122/33 123/123/33 124/124/33
f 125/125/34 126/126/34 127/127/34 128/128/34
f 129/129/35 130/130/35 131/131/35 132/132/35
f 133/133/36 134/134/36 135/135/36 136/136/36
f 137/137/37 138/138/37 139/139/37 140/140/37
f 141/141/38 142/142/38 143/143/38 144/144/38
usemtl emerald
f 145/145/39 146/146/39 147/147/39 148/148/39
f 149/149/40 150/150/40 151/151/40 152/152/40
f 153/153/41 154/154/41 155/155/41 156/156/41
f 157/157/42 158/158/42 159/159/42 160/160/42
f 161/161/43 162/162/43 163/163/43 164/164/43
f 165/165/44 166/166/44 167/167/44 168/168/44
usemtl warn_red
f 169/169/45 170/170/45 171/171/45 172/172/45
f 173/173/46 174/174/46 175/175/46 176/176/46
f 177/177/47 178/178/47 179/179/47 180/180/47
f 181/181/48 182/182/48 183/183/48 184/184/48
f 185/185/49 186/186/49 187/187/49 188/188/49
f 189/189/50 190/190/50 191/191/50 192/192/50
usemtl glass_clear
f 193/193/51 194/194/51 195/195/51 196/196/51
f 197/197/52 198/198/52 199/199/52 200/200/52
f 201/201/53 202/202/53 203/203/53 204/204/53
f 205/205/54 206/206/54 207/207/54 208/208/54
f 209/209/55 210/210/55 211/211/55 212/212/55
f 213/213/56 214/214/56 215/215/56 216/216/56
f 241/241/63 242/242/63 243/243/63 244/244/63
f 245/245/64 246/246/64 247/247/64 248/248/64
f 249/249/65 250/250/65 251/251/65 252/252/65
f 253/253/66 254/254/66 255/255/66 256/256/66
f 257/257/67 258/258/67 259/259/67 260/260/67
f 261/261/68 262/262/68 263/263/68 264/264/68
