# generated by meshlib
mtllib map_board.mtl
o map_board
v 0.80000 -0.58000 -0.03000
v 0.80000 0.58000 -0.03000
v 0.80000 0.58000 0.03000
v 0.80000 -0.58000 0.03000
v -0.80000 -0.58000 0.03000
v -0.80000 0.58000 0.03000
v -0.80000 0.58000 -0.03000
v -0.80000 -0.58000 -0.03000
v -0.78000 0.60000 0.03000
v 0.78000 0.60000 0.03000
v 0.78000 0.60000 -0.03000
v -0.78000 0.60000 -0.03000
v -0.78000 -0.60000 -0.03000
v 0.78000 -0.60000 -0.03000
v 0.78000 -0.60000 0.03000
v -0.78000 -0.60000 0.03000
v -0.78000 -0.58000 0.05000
v 0.78000 -0.58000 0.05000
v 0.78000 0.58000 0.05000
v -0.78000 0.58000 0.05000
v -0.78000 0.58000 -0.05000
v 0.78000 0.58000 -0.05000
v 0.78000 -0.58000 -0.05000
v -0.78000 -0.58000 -0.05000
v -0.80000 -0.60000 -0.03000
v 0.80000 -0.60000 -0.03000
v 0.80000 -0.58000 -0.05000
v -0.80000 -0.58000 -0.05000
v -0.80000 -0.60000 0.03000
v 0.80000 -0.60000 0.03000
v 0.80000 -0.58000 0.05000
v -0.80000 -0.58000 0.05000
v -0.80000 0.60000 -0.03000
v 0.80000 0.60000 -0.03000
v 0.80000 0.58000 -0.05000
v -0.80000 0.58000 -0.05000
v -0.80000 0.60000 0.03000
v 0.80000 0.60000 0.03000
v 0.80000 0.58000 0.05000
v -0.80000 0.58000 0.05000
v -0.80000 -0.60000 -0.03000
v -0.80000 0.60000 -0.03000
v -0.78000 0.60000 -0.05000
v -0.78000 -0.60000 -0.05000
v -0.80000 -0.60000 0.03000
v -0.80000 0.60000 0.03000
v -0.78000 0.60000 0.05000
v -0.78000 -0.60000 0.05000
v 0.80000 -0.60000 -0.03000
v 0.80000 0.60000 -0.03000
v 0.78000 0.60000 -0.05000
v 0.78000 -0.60000 -0.05000
v 0.80000 -0.60000 0.03000
v 0.80000 0.60000 0.03000
v 0.78000 0.60000 0.05000
v 0.78000 -0.60000 0.05000
v -0.80000 -0.58000 -0.05000
v -0.80000 -0.58000 0.05000
v -0.78000 -0.60000 0.05000
v -0.78000 -0.60000 -0.05000
v -0.80000 0.58000 -0.05000
v -0.80000 0.58000 0.05000
v -0.78000 0.60000 0.05000
v -0.78000 0.60000 -0.05000
v 0.80000 -0.58000 -0.05000
v 0.80000 -0.58000 0.05000
v 0.78000 -0.60000 0.05000
v 0.78000 -0.60000 -0.05000
v 0.80000 0.58000 -0.05000
v 0.80000 0.58000 0.05000
v 0.78000 0.60000 0.05000
v 0.78000 0.60000 -0.05000
v -0.80000 -0.58000 -0.03000
v -0.78000 -0.60000 -0.03000
v -0.78000 -0.58000 -0.05000
v -0.80000 -0.58000 0.03000
v -0.78000 -0.60000 0.03000
v -0.78000 -0.58000 0.05000
v -0.80000 0.58000 -0.03000
v -0.78000 0.60000 -0.03000
v -0.78000 0.58000 -0.05000
v -0.80000 0.58000 0.03000
v -0.78000 0.60000 0.03000
v -0.78000 0.58000 0.05000
v 0.80000 -0.58000 -0.03000
v 0.78000 -0.60000 -0.03000
v 0.78000 -0.58000 -0.05000
v 0.80000 -0.58000 0.03000
v 0.78000 -0.60000 0.03000
v 0.78000 -0.58000 0.05000
v 0.80000 0.58000 -0.03000
v 0.78000 0.60000 -0.03000
v 0.78000 0.58000 -0.05000
v 0.80000 0.58000 0.03000
v 0.78000 0.60000 0.03000
v 0.78000 0.58000 0.05000
v -0.75000 -0.55000 0.05200
v 0.75000 -0.55000 0.05200
v 0.75000 0.55000 0.05200
v -0.75000 0.55000 0.05200
v 0.04500 -1.20000 0.04500
v 0.04500 -1.20000 -0.04500
v 0.04500 -0.60000 -0.04500
v 0.04500 -0.60000 0.04500
v -0.04500 -1.20000 -0.04500
v -0.04500 -1.20000 0.04500
v -0.04500 -0.60000 0.04500
v -0.04500 -0.60000 -0.04500
v -0.04500 -0.60000 0.04500
v 0.04500 -0.60000 0.04500
v 0.04500 -0.60000 -0.04500
v -0.04500 -0.60000 -0.04500
v -0.04500 -1.20000 -0.04500
v 0.04500 -1.20000 -0.04500
v 0.04500 -1.20000 0.04500
v -0.04500 -1.20000 0.04500
v -0.04500 -1.20000 0.04500
v 0.04500 -1.20000 0.04500
v 0.04500 -0.60000 0.04500
v -0.04500 -0.60000 0.04500
v 0.04500 -1.20000 -0.04500
v -0.04500 -1.20000 -0.04500
v -0.04500 -0.60000 -0.04500
v 0.04500 -0.60000 -0.04500
v 0.17000 -1.24500 0.17000
v 0.17000 -1.24500 -0.17000
v 0.17000 -1.19500 -0.17000
v 0.17000 -1.19500 0.17000
v -0.17000 -1.24500 -0.17000
v -0.17000 -1.24500 0.17000
v -0.17000 -1.19500 0.17000
v -0.17000 -1.19500 -0.17000
v -0.17000 -1.19500 0.17000
v 0.17000 -1.19500 0.17000
v 0.17000 -1.19500 -0.17000
v -0.17000 -1.19500 -0.17000
v -0.17000 -1.24500 -0.17000
v 0.17000 -1.24500 -0.17000
v 0.17000 -1.24500 0.17000
v -0.17000 -1.24500 0.17000
v -0.17000 -1.24500 0.17000
v 0.17000 -1.24500 0.17000
v 0.17000 -1.19500 0.17000
v -0.17000 -1.19500 0.17000
v 0.17000 -1.24500 -0.17000
v -0.17000 -1.24500 -0.17000
v -0.17000 -1.19500 -0.17000
v 0.17000 -1.19500 -0.17000
vt -1.45000 -0.07500
vt 1.45000 -0.07500
vt 1.45000 0.07500
vt -1.45000 0.07500
vt -1.45000 0.07500
vt 1.45000 0.07500
vt 1.45000 -0.07500
vt -1.45000 -0.07500
vt -1.95000 0.07500
vt 1.95000 0.07500
vt 1.95000 -0.07500
vt -1.95000 -0.07500
vt -1.95000 -0.07500
vt 1.95000 -0.07500
vt 1.95000 0.07500
vt -1.95000 0.07500
vt -1.95000 -1.45000
vt 1.95000 -1.45000
vt 1.95000 1.45000
vt -1.95000 1.45000
vt -1.95000 1.45000
vt 1.95000 1.45000
vt 1.95000 -1.45000
vt -1.95000 -1.45000
vt 0.00000 0.00000
vt 4.00000 0.00000
vt 4.00000 0.05000
vt 0.00000 0.05000
vt 0.00000 0.00000
vt 4.00000 0.00000
vt 4.00000 0.05000
vt 0.00000 0.05000
vt 0.00000 0.00000
vt 4.00000 0.00000
vt 4.00000 0.05000
vt 0.00000 0.05000
vt 0.00000 0.00000
vt 4.00000 0.00000
vt 4.00000 0.05000
vt 0.00000 0.05000
vt 0.00000 0.00000
vt 3.00000 0.00000
vt 3.00000 0.05000
vt 0.00000 0.05000
vt 0.00000 0.00000
vt 3.00000 0.00000
vt 3.00000 0.05000
vt 0.00000 0.05000
vt 0.00000 0.00000
vt 3.00000 0.00000
vt 3.00000 0.05000
vt 0.00000 0.05000
vt 0.00000 0.00000
vt 3.00000 0.00000
vt 3.00000 0.05000
vt 0.00000 0.05000
vt 0.00000 0.00000
vt 0.25000 0.00000
vt 0.25000 0.05000
vt 0.00000 0.05000
vt 0.00000 0.00000
vt 0.25000 0.00000
vt 0.25000 0.05000
vt 0.00000 0.05000
vt 0.00000 0.00000
vt 0.25000 0.00000
vt 0.25000 0.05000
vt 0.00000 0.05000
vt 0.00000 0.00000
vt 0.25000 0.00000
vt 0.25000 0.05000
vt 0.00000 0.05000
vt 0.00000 0.00000
vt 0.05000 0.00000
vt 0.00000 0.05000
vt 0.00000 0.00000
vt 0.05000 0.00000
vt 0.00000 0.05000
vt 0.00000 0.00000
vt 0.05000 0.00000
vt 0.00000 0.05000
vt 0.00000 0.00000
vt 0.05000 0.00000
vt 0.00000 0.05000
vt 0.00000 0.00000
vt 0.05000 0.00000
vt 0.00000 0.05000
vt 0.00000 0.00000
vt 0.05000 0.00000
vt 0.00000 0.05000
vt 0.00000 0.00000
vt 0.05000 0.00000
vt 0.00000 0.05000
vt 0.00000 0.00000
vt 0.05000 0.00000
vt 0.00000 0.05000
vt 0.00000 0.00000
vt 1.00000 0.00000
vt 1.00000 1.00000
vt 0.00000 1.00000
vt -0.15000 -4.00000
vt 0.15000 -4.00000
vt 0.15000 -2.00000
vt -0.15000 -2.00000
vt -0.15000 -4.00000
vt 0.15000 -4.00000
vt 0.15000 -2.00000
vt -0.15000 -2.00000
vt -0.15000 -0.15000
vt 0.15000 -0.15000
vt 0.15000 0.15000
vt -0.15000 0.15000
vt -0.15000 -0.15000
vt 0.15000 -0.15000
vt 0.15000 0.15000
vt -0.15000 0.15000
vt -0.15000 -4.00000
vt 0.15000 -4.00000
vt 0.15000 -2.00000
vt -0.15000 -2.00000
vt -0.15000 -4.00000
vt 0.15000 -4.00000
vt 0.15000 -2.00000
vt -0.15000 -2.00000
vt -0.56667 -4.15000
vt 0.56667 -4.15000
vt 0.56667 -3.98333
vt -0.56667 -3.98333
vt -0.56667 -4.15000
vt 0.56667 -4.15000
vt 0.56667 -3.98333
vt -0.56667 -3.98333
vt -0.56667 -0.56667
vt 0.56667 -0.56667
vt 0.56667 0.56667
vt -0.56667 0.56667
vt -0.56667 -0.56667
vt 0.56667 -0.56667
vt 0.56667 0.56667
vt -0.56667 0.56667
vt -0.56667 -4.15000
vt 0.56667 -4.15000
vt 0.56667 -3.98333
vt -0.56667 -3.98333
vt -0.56667 -4.15000
vt 0.56667 -4.15000
vt 0.56667 -3.98333
vt -0.56667 -3.98333
vn 1.00000 0.00000 0.00000
vn -1.00000 0.00000 0.00000
vn 0.00000 1.00000 0.00000
vn 0.00000 -1.00000 0.00000
vn 0.00000 0.00000 1.00000
vn 0.00000 0.00000 -1.00000
vn -0.00000 0.70711 0.70711
vn 0.00000 -0.70711 0.70711
vn 0.00000 0.70711 -0.70711
vn -0.00000 -0.70711 -0.70711
vn -0.70711 0.00000 -0.70711
vn 0.70711 -0.00000 -0.70711
vn -0.70711 -0.00000 0.70711
vn 0.70711 0.00000 0.70711
vn 0.70711 0.70711 -0.00000
vn -0.70711 0.70711 0.00000
vn 0.70711 -0.70711 0.00000
vn -0.70711 -0.70711 -0.00000
vn 0.57735 0.57735 0.57735
vn -0.57735 -0.57735 0.57735
vn -0.57735 0.57735 -0.57735
vn 0.57735 -0.57735 -0.57735
vn 0.57735 -0.57735 -0.57735
vn -0.57735 0.57735 -0.57735
vn -0.57735 -0.57735 0.57735
vn 0.57735 0.57735 0.57735
vn 0.00000 0.00000 1.00000
vn 1.00000 0.00000 0.00000
vn -1.00000 0.00000 0.00000
vn 0.00000 1.00000 0.00000
vn 0.00000 -1.00000 0.00000
vn 0.00000 0.00000 1.00000
vn 0.00000 0.00000 -1.00000
vn 1.00000 0.00000 0.00000
vn -1.00000 0.00000 0.00000
vn 0.00000 1.00000 0.00000
vn 0.00000 -1.00000 0.00000
vn 0.00000 0.00000 1.00000
vn 0.00000 0.00000 -1.00000
usemtl steel
f 1/1/1 2/2/1 3/3/1 4/4/1
f 5/5/2 6/6/2 7/7/2 8/8/2
f 9/9/3 10/10/3 11/11/3 12/12/3
f 13/13/4 14/14/4 15/15/4 16/16/4
f 17/17/5 18/18/5 19/19/5 20/20/5
f 21/21/6 22/22/6 23/23/6 24/24/6
f 25/25/7 26/26/7 27/27/7 28/28/7
f 29/29/8 30/30/8 31/31/8 32/32/8
f 33/33/9 34/34/9 35/35/9 36/36/9
f 37/37/10 38/38/10 39/39/10 40/40/10
f 41/41/11 42/42/11 43/43/11 44/44/11
f 45/45/12 46/46/12 47/47/12 48/48/12
f 49/49/13 50/50/13 51/51/13 52/52/13
f 53/53/14 54/54/14 55/55/14 56/56/14
f 57/57/15 58/58/15 59/59/15 60/60/15
f 61/61/16 62/62/16 63/63/16 64/64/16
f 65/65/17 66/66/17 67/67/17 68/68/17
f 69/69/18 70/70/18 71/71/18 72/72/18
f 73/73/19 74/74/19 75/75/19
f 76/76/20 77/77/20 78/78/20
f 79/79/21 80/80/21 81/81/21
f 82/82/22 83/83/22 84/84/22
f 85/85/23 86/86/23 87/87/23
f 88/88/24 89/89/24 90/90/24
f 91/91/25 92/92/25 93/93/25
f 94/94/26 95/95/26 96/96/26
usemtl poster_c
f 97/97/27 98/98/27 99/99/27 100/100/27
usemtl steel_dark
f 101/101/28 102/102/28 103/103/28 104/104/28
f 105/105/29 106/106/29 107/107/29 108/108/29
f 109/109/30 110/110/30 111/111/30 112/112/30
f 113/113/31 114/114/31 115/115/31 116/116/31
f 117/117/32 118/118/32 119/119/32 120/120/32
f 121/121/33 122/122/33 123/123/33 124/124/33
f 125/125/34 126/126/34 127/127/34 128/128/34
f 129/129/35 130/130/35 131/131/35 132/132/35
f 133/133/36 134/134/36 135/135/36 136/136/36
f 137/137/37 138/138/37 139/139/37 140/140/37
f 141/141/38 142/142/38 143/143/38 144/144/38
f 145/145/39 146/146/39 147/147/39 148/148/39
