# generated by meshlib
mtllib fire_cabinet.mtl
o fire_cabinet
v 0.31000 -0.41000 -0.10500
v 0.31000 0.41000 -0.10500
v 0.31000 0.41000 0.10500
v 0.31000 -0.41000 0.10500
v -0.31000 -0.41000 0.10500
v -0.31000 0.41000 0.10500
v -0.31000 0.41000 -0.10500
v -0.31000 -0.41000 -0.10500
v -0.29500 0.42500 0.10500
v 0.29500 0.42500 0.10500
v 0.29500 0.42500 -0.10500
v -0.29500 0.42500 -0.10500
v -0.29500 -0.42500 -0.10500
v 0.29500 -0.42500 -0.10500
v 0.29500 -0.42500 0.10500
v -0.29500 -0.42500 0.10500
v -0.29500 -0.41000 0.12000
v 0.29500 -0.41000 0.12000
v 0.29500 0.41000 0.12000
v -0.29500 0.41000 0.12000
v -0.29500 0.41000 -0.12000
v 0.29500 0.41000 -0.12000
v 0.29500 -0.41000 -0.12000
v -0.29500 -0.41000 -0.12000
v -0.31000 -0.42500 -0.10500
v 0.31000 -0.42500 -0.10500
v 0.31000 -0.41000 -0.12000
v -0.31000 -0.41000 -0.12000
v -0.31000 -0.42500 0.10500
v 0.31000 -0.42500 0.10500
v 0.31000 -0.41000 0.12000
v -0.31000 -0.41000 0.12000
v -0.31000 0.42500 -0.10500
v 0.31000 0.42500 -0.10500
v 0.31000 0.41000 -0.12000
v -0.31000 0.41000 -0.12000
v -0.31000 0.42500 0.10500
v 0.31000 0.42500 0.10500
v 0.31000 0.41000 0.12000
v -0.31000 0.41000 0.12000
v -0.31000 -0.42500 -0.10500
v -0.31000 0.42500 -0.10500
v -0.29500 0.42500 -0.12000
v -0.29500 -0.42500 -0.12000
v -0.31000 -0.42500 0.10500
v -0.31000 0.42500 0.10500
v -0.29500 0.42500 0.12000
v -0.29500 -0.42500 0.12000
v 0.31000 -0.42500 -0.10500
v 0.31000 0.42500 -0.10500
v 0.29500 0.42500 -0.12000
v 0.29500 -0.42500 -0.12000
v 0.31000 -0.42500 0.10500
v 0.31000 0.42500 0.10500
v 0.29500 0.42500 0.12000
v 0.29500 -0.42500 0.12000
v -0.31000 -0.41000 -0.12000
v -0.31000 -0.41000 0.12000
v -0.29500 -0.42500 0.12000
v -0.29500 -0.42500 -0.12000
v -0.31000 0.41000 -0.12000
v -0.31000 0.41000 0.12000
v -0.29500 0.42500 0.12000
v -0.29500 0.42500 -0.12000
v 0.31000 -0.41000 -0.12000
v 0.31000 -0.41000 0.12000
v 0.29500 -0.42500 0.12000
v 0.29500 -0.42500 -0.12000
v 0.31000 0.41000 -0.12000
v 0.31000 0.41000 0.12000
v 0.29500 0.42500 0.12000
v 0.29500 0.42500 -0.12000
v -0.31000 -0.41000 -0.10500
v -0.29500 -0.42500 -0.10500
v -0.29500 -0.41000 -0.12000
v -0.31000 -0.41000 0.10500
v -0.29500 -0.42500 0.10500
v -0.29500 -0.41000 0.12000
v -0.31000 0.41000 -0.10500
v -0.29500 0.42500 -0.10500
v -0.29500 0.41000 -0.12000
v -0.31000 0.41000 0.10500
v -0.29500 0.42500 0.10500
v -0.29500 0.41000 0.12000
v 0.31000 -0.41000 -0.10500
v 0.29500 -0.42500 -0.10500
v 0.29500 -0.41000 -0.12000
v 0.31000 -0.41000 0.10500
v 0.29500 -0.42500 0.10500
v 0.29500 -0.41000 0.12000
v 0.31000 0.41000 -0.10500
v 0.29500 0.42500 -0.10500
v 0.29500 0.41000 -0.12000
v 0.31000 0.41000 0.10500
v 0.29500 0.42500 0.10500
v 0.29500 0.41000 0.12000
v 0.26000 -0.30500 0.12700
v 0.26000 -0.30500 0.12100
v 0.26000 0.36500 0.12100
v 0.26000 0.36500 0.12700
v -0.26000 -0.30500 0.12100
v -0.26000 -0.30500 0.12700
v -0.26000 0.36500 0.12700
v -0.26000 0.36500 0.12100
v -0.26000 0.36500 0.12700
v 0.26000 0.36500 0.12700
v 0.26000 0.36500 0.12100
v -0.26000 0.36500 0.12100
v -0.26000 -0.30500 0.12100
v 0.26000 -0.30500 0.12100
v 0.26000 -0.30500 0.12700
v -0.26000 -0.30500 0.12700
v -0.26000 -0.30500 0.12700
v 0.26000 -0.30500 0.12700
v 0.26000 0.36500 0.12700
v -0.26000 0.36500 0.12700
v 0.26000 -0.30500 0.12100
v -0.26000 -0.30500 0.12100
v -0.26000 0.36500 0.12100
v 0.26000 0.36500 0.12100
v 0.26000 -0.07000 0.15500
v 0.26000 -0.07000 0.12500
v 0.26000 0.07000 0.12500
v 0.26000 0.07000 0.15500
v 0.22000 -0.07000 0.12500
v 0.22000 -0.07000 0.15500
v 0.22000 0.07000 0.15500
v 0.22000 0.07000 0.12500
v 0.22000 0.07000 0.15500
v 0.26000 0.07000 0.15500
v 0.26000 0.07000 0.12500
v 0.22000 0.07000 0.12500
v 0.22000 -0.07000 0.12500
v 0.26000 -0.07000 0.12500
v 0.26000 -0.07000 0.15500
v 0.22000 -0.07000 0.15500
v 0.22000 -0.07000 0.15500
v 0.26000 -0.07000 0.15500
v 0.26000 0.07000 0.15500
v 0.22000 0.07000 0.15500
v 0.26000 -0.07000 0.12500
v 0.22000 -0.07000 0.12500
v 0.22000 0.07000 0.12500
v 0.26000 0.07000 0.12500
v 0.00000 -0.30000 0.00000
v 0.00000 -0.30000 0.00000
v 0.06307 -0.29000 0.03037
v 0.07000 -0.29000 0.00000
v 0.00000 -0.30000 0.00000
v 0.00000 -0.30000 0.00000
v 0.04364 -0.29000 0.05473
v 0.06307 -0.29000 0.03037
v 0.00000 -0.30000 0.00000
v 0.00000 -0.30000 0.00000
v 0.01558 -0.29000 0.06824
v 0.04364 -0.29000 0.05473
v 0.00000 -0.30000 0.00000
v 0.00000 -0.30000 0.00000
v -0.01558 -0.29000 0.06824
v 0.01558 -0.29000 0.06824
v 0.00000 -0.30000 0.00000
v 0.00000 -0.30000 0.00000
v -0.04364 -0.29000 0.05473
v -0.01558 -0.29000 0.06824
v 0.00000 -0.30000 0.00000
v 0.00000 -0.30000 0.00000
v -0.06307 -0.29000 0.03037
v -0.04364 -0.29000 0.05473
v 0.00000 -0.30000 0.00000
v 0.00000 -0.30000 0.00000
v -0.07000 -0.29000 0.00000
v -0.06307 -0.29000 0.03037
v 0.00000 -0.30000 0.00000
v 0.00000 -0.30000 0.00000
v -0.06307 -0.29000 -0.03037
v -0.07000 -0.29000 0.00000
v 0.00000 -0.30000 0.00000
v 0.00000 -0.30000 0.00000
v -0.04364 -0.29000 -0.05473
v -0.06307 -0.29000 -0.03037
v 0.00000 -0.30000 0.00000
v 0.00000 -0.30000 0.00000
v -0.01558 -0.29000 -0.06824
v -0.04364 -0.29000 -0.05473
v 0.00000 -0.30000 0.00000
v 0.00000 -0.30000 0.00000
v 0.01558 -0.29000 -0.06824
v -0.01558 -0.29000 -0.06824
v 0.00000 -0.30000 0.00000
v 0.00000 -0.30000 0.00000
v 0.04364 -0.29000 -0.05473
v 0.01558 -0.29000 -0.06824
v 0.00000 -0.30000 0.00000
v 0.00000 -0.30000 0.00000
v 0.06307 -0.29000 -0.03037
v 0.04364 -0.29000 -0.05473
v 0.00000 -0.30000 0.00000
v 0.00000 -0.30000 0.00000
v 0.07000 -0.29000 -0.00000
v 0.06307 -0.29000 -0.03037
v 0.08000 -0.05000 0.00000
v 0.07208 -0.05000 0.03471
v 0.06307 -0.29000 0.03037
v 0.07000 -0.29000 0.00000
v 0.07208 -0.05000 0.03471
v 0.04988 -0.05000 0.06255
v 0.04364 -0.29000 0.05473
v 0.06307 -0.29000 0.03037
v 0.04988 -0.05000 0.06255
v 0.01780 -0.05000 0.07799
v 0.01558 -0.29000 0.06824
v 0.04364 -0.29000 0.05473
v 0.01780 -0.05000 0.07799
v -0.01780 -0.05000 0.07799
v -0.01558 -0.29000 0.06824
v 0.01558 -0.29000 0.06824
v -0.01780 -0.05000 0.07799
v -0.04988 -0.05000 0.06255
v -0.04364 -0.29000 0.05473
v -0.01558 -0.29000 0.06824
v -0.04988 -0.05000 0.06255
v -0.07208 -0.05000 0.03471
v -0.06307 -0.29000 0.03037
v -0.04364 -0.29000 0.05473
v -0.07208 -0.05000 0.03471
v -0.08000 -0.05000 0.00000
v -0.07000 -0.29000 0.00000
v -0.06307 -0.29000 0.03037
v -0.08000 -0.05000 0.00000
v -0.07208 -0.05000 -0.03471
v -0.06307 -0.29000 -0.03037
v -0.07000 -0.29000 0.00000
v -0.07208 -0.05000 -0.03471
v -0.04988 -0.05000 -0.06255
v -0.04364 -0.29000 -0.05473
v -0.06307 -0.29000 -0.03037
v -0.04988 -0.05000 -0.06255
v -0.01780 -0.05000 -0.07799
v -0.01558 -0.29000 -0.06824
v -0.04364 -0.29000 -0.05473
v -0.01780 -0.05000 -0.07799
v 0.01780 -0.05000 -0.07799
v 0.01558 -0.29000 -0.06824
v -0.01558 -0.29000 -0.06824
v 0.01780 -0.05000 -0.07799
v 0.04988 -0.05000 -0.06255
v 0.04364 -0.29000 -0.05473
v 0.01558 -0.29000 -0.06824
v 0.04988 -0.05000 -0.06255
v 0.07208 -0.05000 -0.03471
v 0.06307 -0.29000 -0.03037
v 0.04364 -0.29000 -0.05473
v 0.07208 -0.05000 -0.03471
v 0.08000 -0.05000 -0.00000
v 0.07000 -0.29000 -0.00000
v 0.06307 -0.29000 -0.03037
v 0.07500 0.14000 0.00000
v 0.06757 0.14000 0.03254
v 0.07208 -0.05000 0.03471
v 0.08000 -0.05000 0.00000
v 0.06757 0.14000 0.03254
v 0.04676 0.14000 0.05864
v 0.04988 -0.05000 0.06255
v 0.07208 -0.05000 0.03471
v 0.04676 0.14000 0.05864
v 0.01669 0.14000 0.07312
v 0.01780 -0.05000 0.07799
v 0.04988 -0.05000 0.06255
v 0.01669 0.14000 0.07312
v -0.01669 0.14000 0.07312
v -0.01780 -0.05000 0.07799
v 0.01780 -0.05000 0.07799
v -0.01669 0.14000 0.07312
v -0.04676 0.14000 0.05864
v -0.04988 -0.05000 0.06255
v -0.01780 -0.05000 0.07799
v -0.04676 0.14000 0.05864
v -0.06757 0.14000 0.03254
v -0.07208 -0.05000 0.03471
v -0.04988 -0.05000 0.06255
v -0.06757 0.14000 0.03254
v -0.07500 0.14000 0.00000
v -0.08000 -0.05000 0.00000
v -0.07208 -0.05000 0.03471
v -0.07500 0.14000 0.00000
v -0.06757 0.14000 -0.03254
v -0.07208 -0.05000 -0.03471
v -0.08000 -0.05000 0.00000
v -0.06757 0.14000 -0.03254
v -0.04676 0.14000 -0.05864
v -0.04988 -0.05000 -0.06255
v -0.07208 -0.05000 -0.03471
v -0.04676 0.14000 -0.05864
v -0.01669 0.14000 -0.07312
v -0.01780 -0.05000 -0.07799
v -0.04988 -0.05000 -0.06255
v -0.01669 0.14000 -0.07312
v 0.01669 0.14000 -0.07312
v 0.01780 -0.05000 -0.07799
v -0.01780 -0.05000 -0.07799
v 0.01669 0.14000 -0.07312
v 0.04676 0.14000 -0.05864
v 0.04988 -0.05000 -0.06255
v 0.01780 -0.05000 -0.07799
v 0.04676 0.14000 -0.05864
v 0.06757 0.14000 -0.03254
v 0.07208 -0.05000 -0.03471
v 0.04988 -0.05000 -0.06255
v 0.06757 0.14000 -0.03254
v 0.07500 0.14000 -0.00000
v 0.08000 -0.05000 -0.00000
v 0.07208 -0.05000 -0.03471
v 0.05000 0.20000 0.00000
v 0.04505 0.20000 0.02169
v 0.06757 0.14000 0.03254
v 0.07500 0.14000 0.00000
v 0.04505 0.20000 0.02169
v 0.03117 0.20000 0.03909
v 0.04676 0.14000 0.05864
v 0.06757 0.14000 0.03254
v 0.03117 0.20000 0.03909
v 0.01113 0.20000 0.04875
v 0.01669 0.14000 0.07312
v 0.04676 0.14000 0.05864
v 0.01113 0.20000 0.04875
v -0.01113 0.20000 0.04875
v -0.01669 0.14000 0.07312
v 0.01669 0.14000 0.07312
v -0.01113 0.20000 0.04875
v -0.03117 0.20000 0.03909
v -0.04676 0.14000 0.05864
v -0.01669 0.14000 0.07312
v -0.03117 0.20000 0.03909
v -0.04505 0.20000 0.02169
v -0.06757 0.14000 0.03254
v -0.04676 0.14000 0.05864
v -0.04505 0.20000 0.02169
v -0.05000 0.20000 0.00000
v -0.07500 0.14000 0.00000
v -0.06757 0.14000 0.03254
v -0.05000 0.20000 0.00000
v -0.04505 0.20000 -0.02169
v -0.06757 0.14000 -0.03254
v -0.07500 0.14000 0.00000
v -0.04505 0.20000 -0.02169
v -0.03117 0.20000 -0.03909
v -0.04676 0.14000 -0.05864
v -0.06757 0.14000 -0.03254
v -0.03117 0.20000 -0.03909
v -0.01113 0.20000 -0.04875
v -0.01669 0.14000 -0.07312
v -0.04676 0.14000 -0.05864
v -0.01113 0.20000 -0.04875
v 0.01113 0.20000 -0.04875
v 0.01669 0.14000 -0.07312
v -0.01669 0.14000 -0.07312
v 0.01113 0.20000 -0.04875
v 0.03117 0.20000 -0.03909
v 0.04676 0.14000 -0.05864
v 0.01669 0.14000 -0.07312
v 0.03117 0.20000 -0.03909
v 0.04505 0.20000 -0.02169
v 0.06757 0.14000 -0.03254
v 0.04676 0.14000 -0.05864
v 0.04505 0.20000 -0.02169
v 0.05000 0.20000 -0.00000
v 0.07500 0.14000 -0.00000
v 0.06757 0.14000 -0.03254
v 0.02200 0.22000 0.00000
v 0.01982 0.22000 0.00955
v 0.04505 0.20000 0.02169
v 0.05000 0.20000 0.00000
v 0.01982 0.22000 0.00955
v 0.01372 0.22000 0.01720
v 0.03117 0.20000 0.03909
v 0.04505 0.20000 0.02169
v 0.01372 0.22000 0.01720
v 0.00490 0.22000 0.02145
v 0.01113 0.20000 0.04875
v 0.03117 0.20000 0.03909
v 0.00490 0.22000 0.02145
v -0.00490 0.22000 0.02145
v -0.01113 0.20000 0.04875
v 0.01113 0.20000 0.04875
v -0.00490 0.22000 0.02145
v -0.01372 0.22000 0.01720
v -0.03117 0.20000 0.03909
v -0.01113 0.20000 0.04875
v -0.01372 0.22000 0.01720
v -0.01982 0.22000 0.00955
v -0.04505 0.20000 0.02169
v -0.03117 0.20000 0.03909
v -0.01982 0.22000 0.00955
v -0.02200 0.22000 0.00000
v -0.05000 0.20000 0.00000
v -0.04505 0.20000 0.02169
v -0.02200 0.22000 0.00000
v -0.01982 0.22000 -0.00955
v -0.04505 0.20000 -0.02169
v -0.05000 0.20000 0.00000
v -0.01982 0.22000 -0.00955
v -0.01372 0.22000 -0.01720
v -0.03117 0.20000 -0.03909
v -0.04505 0.20000 -0.02169
v -0.01372 0.22000 -0.01720
v -0.00490 0.22000 -0.02145
v -0.01113 0.20000 -0.04875
v -0.03117 0.20000 -0.03909
v -0.00490 0.22000 -0.02145
v 0.00490 0.22000 -0.02145
v 0.01113 0.20000 -0.04875
v -0.01113 0.20000 -0.04875
v 0.00490 0.22000 -0.02145
v 0.01372 0.22000 -0.01720
v 0.03117 0.20000 -0.03909
v 0.01113 0.20000 -0.04875
v 0.01372 0.22000 -0.01720
v 0.01982 0.22000 -0.00955
v 0.04505 0.20000 -0.02169
v 0.03117 0.20000 -0.03909
v 0.01982 0.22000 -0.00955
v 0.02200 0.22000 -0.00000
v 0.05000 0.20000 -0.00000
v 0.04505 0.20000 -0.02169
v 0.02200 0.28000 0.00000
v 0.01982 0.28000 0.00955
v 0.01982 0.22000 0.00955
v 0.02200 0.22000 0.00000
v 0.01982 0.28000 0.00955
v 0.01372 0.28000 0.01720
v 0.01372 0.22000 0.01720
v 0.01982 0.22000 0.00955
v 0.01372 0.28000 0.01720
v 0.00490 0.28000 0.02145
v 0.00490 0.22000 0.02145
v 0.01372 0.22000 0.01720
v 0.00490 0.28000 0.02145
v -0.00490 0.28000 0.02145
v -0.00490 0.22000 0.02145
v 0.00490 0.22000 0.02145
v -0.00490 0.28000 0.02145
v -0.01372 0.28000 0.01720
v -0.01372 0.22000 0.01720
v -0.00490 0.22000 0.02145
v -0.01372 0.28000 0.01720
v -0.01982 0.28000 0.00955
v -0.01982 0.22000 0.00955
v -0.01372 0.22000 0.01720
v -0.01982 0.28000 0.00955
v -0.02200 0.28000 0.00000
v -0.02200 0.22000 0.00000
v -0.01982 0.22000 0.00955
v -0.02200 0.28000 0.00000
v -0.01982 0.28000 -0.00955
v -0.01982 0.22000 -0.00955
v -0.02200 0.22000 0.00000
v -0.01982 0.28000 -0.00955
v -0.01372 0.28000 -0.01720
v -0.01372 0.22000 -0.01720
v -0.01982 0.22000 -0.00955
v -0.01372 0.28000 -0.01720
v -0.00490 0.28000 -0.02145
v -0.00490 0.22000 -0.02145
v -0.01372 0.22000 -0.01720
v -0.00490 0.28000 -0.02145
v 0.00490 0.28000 -0.02145
v 0.00490 0.22000 -0.02145
v -0.00490 0.22000 -0.02145
v 0.00490 0.28000 -0.02145
v 0.01372 0.28000 -0.01720
v 0.01372 0.22000 -0.01720
v 0.00490 0.22000 -0.02145
v 0.01372 0.28000 -0.01720
v 0.01982 0.28000 -0.00955
v 0.01982 0.22000 -0.00955
v 0.01372 0.22000 -0.01720
v 0.01982 0.28000 -0.00955
v 0.02200 0.28000 -0.00000
v 0.02200 0.22000 -0.00000
v 0.01982 0.22000 -0.00955
v 0.00000 0.28000 0.00000
v 0.00000 0.28000 0.00000
v 0.01982 0.28000 0.00955
v 0.02200 0.28000 0.00000
v 0.00000 0.28000 0.00000
v 0.00000 0.28000 0.00000
v 0.01372 0.28000 0.01720
v 0.01982 0.28000 0.00955
v 0.00000 0.28000 0.00000
v 0.00000 0.28000 0.00000
v 0.00490 0.28000 0.02145
v 0.01372 0.28000 0.01720
v 0.00000 0.28000 0.00000
v 0.00000 0.28000 0.00000
v -0.00490 0.28000 0.02145
v 0.00490 0.28000 0.02145
v 0.00000 0.28000 0.00000
v 0.00000 0.28000 0.00000
v -0.01372 0.28000 0.01720
v -0.00490 0.28000 0.02145
v 0.00000 0.28000 0.00000
v 0.00000 0.28000 0.00000
v -0.01982 0.28000 0.00955
v -0.01372 0.28000 0.01720
v 0.00000 0.28000 0.00000
v 0.00000 0.28000 0.00000
v -0.02200 0.28000 0.00000
v -0.01982 0.28000 0.00955
v 0.00000 0.28000 0.00000
v 0.00000 0.28000 0.00000
v -0.01982 0.28000 -0.00955
v -0.02200 0.28000 0.00000
v 0.00000 0.28000 0.00000
v 0.00000 0.28000 0.00000
v -0.01372 0.28000 -0.01720
v -0.01982 0.28000 -0.00955
v 0.00000 0.28000 0.00000
v 0.00000 0.28000 0.00000
v -0.00490 0.28000 -0.02145
v -0.01372 0.28000 -0.01720
v 0.00000 0.28000 0.00000
v 0.00000 0.28000 0.00000
v 0.00490 0.28000 -0.02145
v -0.00490 0.28000 -0.02145
v 0.00000 0.28000 0.00000
v 0.00000 0.28000 0.00000
v 0.01372 0.28000 -0.01720
v 0.00490 0.28000 -0.02145
v 0.00000 0.28000 0.00000
v 0.00000 0.28000 0.00000
v 0.01982 0.28000 -0.00955
v 0.01372 0.28000 -0.01720
v 0.00000 0.28000 0.00000
v 0.00000 0.28000 0.00000
v 0.02200 0.28000 -0.00000
v 0.01982 0.28000 -0.00955
v 0.09000 0.23500 0.01500
v 0.09000 0.23500 -0.01500
v 0.09000 0.26500 -0.01500
v 0.09000 0.26500 0.01500
v 0.00000 0.23500 -0.01500
v 0.00000 0.23500 0.01500
v 0.00000 0.26500 0.01500
v 0.00000 0.26500 -0.01500
v 0.00000 0.26500 0.01500
v 0.09000 0.26500 0.01500
v 0.09000 0.26500 -0.01500
v 0.00000 0.26500 -0.01500
v 0.00000 0.23500 -0.01500
v 0.09000 0.23500 -0.01500
v 0.09000 0.23500 0.01500
v 0.00000 0.23500 0.01500
v 0.00000 0.23500 0.01500
v 0.09000 0.23500 0.01500
v 0.09000 0.26500 0.01500
v 0.00000 0.26500 0.01500
v 0.09000 0.23500 -0.01500
v 0.00000 0.23500 -0.01500
v 0.00000 0.26500 -0.01500
v 0.09000 0.26500 -0.01500
vt -1.17143 -0.30000
vt 1.17143 -0.30000
vt 1.17143 0.30000
vt -1.17143 0.30000
vt -1.17143 0.30000
vt 1.17143 0.30000
vt 1.17143 -0.30000
vt -1.17143 -0.30000
vt -0.84286 0.30000
vt 0.84286 0.30000
vt 0.84286 -0.30000
vt -0.84286 -0.30000
vt -0.84286 -0.30000
vt 0.84286 -0.30000
vt 0.84286 0.30000
vt -0.84286 0.30000
vt -0.84286 -1.17143
vt 0.84286 -1.17143
vt 0.84286 1.17143
vt -0.84286 1.17143
vt -0.84286 1.17143
vt 0.84286 1.17143
vt 0.84286 -1.17143
vt -0.84286 -1.17143
vt 0.00000 0.00000
vt 1.77143 0.00000
vt 1.77143 0.04286
vt 0.00000 0.04286
vt 0.00000 0.00000
vt 1.77143 0.00000
vt 1.77143 0.04286
vt 0.00000 0.04286
vt 0.00000 0.00000
vt 1.77143 0.00000
vt 1.77143 0.04286
vt 0.00000 0.04286
vt 0.00000 0.00000
vt 1.77143 0.00000
vt 1.77143 0.04286
vt 0.00000 0.04286
vt 0.00000 0.00000
vt 2.42857 0.00000
vt 2.42857 0.04286
vt 0.00000 0.04286
vt 0.00000 0.00000
vt 2.42857 0.00000
vt 2.42857 0.04286
vt 0.00000 0.04286
vt 0.00000 0.00000
vt 2.42857 0.00000
vt 2.42857 0.04286
vt 0.00000 0.04286
vt 0.00000 0.00000
vt 2.42857 0.00000
vt 2.42857 0.04286
vt 0.00000 0.04286
vt 0.00000 0.00000
vt 0.68571 0.00000
vt 0.68571 0.04286
vt 0.00000 0.04286
vt 0.00000 0.00000
vt 0.68571 0.00000
vt 0.68571 0.04286
vt 0.00000 0.04286
vt 0.00000 0.00000
vt 0.68571 0.00000
vt 0.68571 0.04286
vt 0.00000 0.04286
vt 0.00000 0.00000
vt 0.68571 0.00000
vt 0.68571 0.04286
vt 0.00000 0.04286
vt 0.00000 0.00000
vt 0.04286 0.00000
vt 0.00000 0.04286
vt 0.00000 0.00000
vt 0.04286 0.00000
vt 0.00000 0.04286
vt 0.00000 0.00000
vt 0.04286 0.00000
vt 0.00000 0.04286
vt 0.00000 0.00000
vt 0.04286 0.00000
vt 0.00000 0.04286
vt 0.00000 0.00000
vt 0.04286 0.00000
vt 0.00000 0.04286
vt 0.00000 0.00000
vt 0.04286 0.00000
vt 0.00000 0.04286
vt 0.00000 0.00000
vt 0.04286 0.00000
vt 0.00000 0.04286
vt 0.00000 0.00000
vt 0.04286 0.00000
vt 0.00000 0.04286
vt -0.25400 -0.61000
vt -0.24200 -0.61000
vt -0.24200 0.73000
vt -0.25400 0.73000
vt 0.24200 -0.61000
vt 0.25400 -0.61000
vt 0.25400 0.73000
vt 0.24200 0.73000
vt -0.52000 -0.25400
vt 0.52000 -0.25400
vt 0.52000 -0.24200
vt -0.52000 -0.24200
vt -0.52000 0.24200
vt 0.52000 0.24200
vt 0.52000 0.25400
vt -0.52000 0.25400
vt -0.52000 -0.61000
vt 0.52000 -0.61000
vt 0.52000 0.73000
vt -0.52000 0.73000
vt -0.52000 -0.61000
vt 0.52000 -0.61000
vt 0.52000 0.73000
vt -0.52000 0.73000
vt -1.55000 -0.70000
vt -1.25000 -0.70000
vt -1.25000 0.70000
vt -1.55000 0.70000
vt 1.25000 -0.70000
vt 1.55000 -0.70000
vt 1.55000 0.70000
vt 1.25000 0.70000
vt 2.20000 -1.55000
vt 2.60000 -1.55000
vt 2.60000 -1.25000
vt 2.20000 -1.25000
vt 2.20000 1.25000
vt 2.60000 1.25000
vt 2.60000 1.55000
vt 2.20000 1.55000
vt 2.20000 -0.70000
vt 2.60000 -0.70000
vt 2.60000 0.70000
vt 2.20000 0.70000
vt -2.60000 -0.70000
vt -2.20000 -0.70000
vt -2.20000 0.70000
vt -2.60000 0.70000
vt 0.00000 -1.50000
vt 0.17952 -1.50000
vt 0.17952 -1.45000
vt 0.00000 -1.45000
vt 0.17952 -1.50000
vt 0.35904 -1.50000
vt 0.35904 -1.45000
vt 0.17952 -1.45000
vt 0.35904 -1.50000
vt 0.53856 -1.50000
vt 0.53856 -1.45000
vt 0.35904 -1.45000
vt 0.53856 -1.50000
vt 0.71808 -1.50000
vt 0.71808 -1.45000
vt 0.53856 -1.45000
vt 0.71808 -1.50000
vt 0.89760 -1.50000
vt 0.89760 -1.45000
vt 0.71808 -1.45000
vt 0.89760 -1.50000
vt 1.07712 -1.50000
vt 1.07712 -1.45000
vt 0.89760 -1.45000
vt 1.07712 -1.50000
vt 1.25664 -1.50000
vt 1.25664 -1.45000
vt 1.07712 -1.45000
vt 1.25664 -1.50000
vt 1.43616 -1.50000
vt 1.43616 -1.45000
vt 1.25664 -1.45000
vt 1.43616 -1.50000
vt 1.61568 -1.50000
vt 1.61568 -1.45000
vt 1.43616 -1.45000
vt 1.61568 -1.50000
vt 1.79520 -1.50000
vt 1.79520 -1.45000
vt 1.61568 -1.45000
vt 1.79520 -1.50000
vt 1.97472 -1.50000
vt 1.97472 -1.45000
vt 1.79520 -1.45000
vt 1.97472 -1.50000
vt 2.15423 -1.50000
vt 2.15423 -1.45000
vt 1.97472 -1.45000
vt 2.15423 -1.50000
vt 2.33375 -1.50000
vt 2.33375 -1.45000
vt 2.15423 -1.45000
vt 2.33375 -1.50000
vt 2.51327 -1.50000
vt 2.51327 -1.45000
vt 2.33375 -1.45000
vt 0.00000 -0.25000
vt 0.17952 -0.25000
vt 0.17952 -1.45000
vt 0.00000 -1.45000
vt 0.17952 -0.25000
vt 0.35904 -0.25000
vt 0.35904 -1.45000
vt 0.17952 -1.45000
vt 0.35904 -0.25000
vt 0.53856 -0.25000
vt 0.53856 -1.45000
vt 0.35904 -1.45000
vt 0.53856 -0.25000
vt 0.71808 -0.25000
vt 0.71808 -1.45000
vt 0.53856 -1.45000
vt 0.71808 -0.25000
vt 0.89760 -0.25000
vt 0.89760 -1.45000
vt 0.71808 -1.45000
vt 0.89760 -0.25000
vt 1.07712 -0.25000
vt 1.07712 -1.45000
vt 0.89760 -1.45000
vt 1.07712 -0.25000
vt 1.25664 -0.25000
vt 1.25664 -1.45000
vt 1.07712 -1.45000
vt 1.25664 -0.25000
vt 1.43616 -0.25000
vt 1.43616 -1.45000
vt 1.25664 -1.45000
vt 1.43616 -0.25000
vt 1.61568 -0.25000
vt 1.61568 -1.45000
vt 1.43616 -1.45000
vt 1.61568 -0.25000
vt 1.79520 -0.25000
vt 1.79520 -1.45000
vt 1.61568 -1.45000
vt 1.79520 -0.25000
vt 1.97472 -0.25000
vt 1.97472 -1.45000
vt 1.79520 -1.45000
vt 1.97472 -0.25000
vt 2.15423 -0.25000
vt 2.15423 -1.45000
vt 1.97472 -1.45000
vt 2.15423 -0.25000
vt 2.33375 -0.25000
vt 2.33375 -1.45000
vt 2.15423 -1.45000
vt 2.33375 -0.25000
vt 2.51327 -0.25000
vt 2.51327 -1.45000
vt 2.33375 -1.45000
vt 0.00000 0.70000
vt 0.17952 0.70000
vt 0.17952 -0.25000
vt 0.00000 -0.25000
vt 0.17952 0.70000
vt 0.35904 0.70000
vt 0.35904 -0.25000
vt 0.17952 -0.25000
vt 0.35904 0.70000
vt 0.53856 0.70000
vt 0.53856 -0.25000
vt 0.35904 -0.25000
vt 0.53856 0.70000
vt 0.71808 0.70000
vt 0.71808 -0.25000
vt 0.53856 -0.25000
vt 0.71808 0.70000
vt 0.89760 0.70000
vt 0.89760 -0.25000
vt 0.71808 -0.25000
vt 0.89760 0.70000
vt 1.07712 0.70000
vt 1.07712 -0.25000
vt 0.89760 -0.25000
vt 1.07712 0.70000
vt 1.25664 0.70000
vt 1.25664 -0.25000
vt 1.07712 -0.25000
vt 1.25664 0.70000
vt 1.43616 0.70000
vt 1.43616 -0.25000
vt 1.25664 -0.25000
vt 1.43616 0.70000
vt 1.61568 0.70000
vt 1.61568 -0.25000
vt 1.43616 -0.25000
vt 1.61568 0.70000
vt 1.79520 0.70000
vt 1.79520 -0.25000
vt 1.61568 -0.25000
vt 1.79520 0.70000
vt 1.97472 0.70000
vt 1.97472 -0.25000
vt 1.79520 -0.25000
vt 1.97472 0.70000
vt 2.15423 0.70000
vt 2.15423 -0.25000
vt 1.97472 -0.25000
vt 2.15423 0.70000
vt 2.33375 0.70000
vt 2.33375 -0.25000
vt 2.15423 -0.25000
vt 2.33375 0.70000
vt 2.51327 0.70000
vt 2.51327 -0.25000
vt 2.33375 -0.25000
vt 0.00000 1.00000
vt 0.17952 1.00000
vt 0.17952 0.70000
vt 0.00000 0.70000
vt 0.17952 1.00000
vt 0.35904 1.00000
vt 0.35904 0.70000
vt 0.17952 0.70000
vt 0.35904 1.00000
vt 0.53856 1.00000
vt 0.53856 0.70000
vt 0.35904 0.70000
vt 0.53856 1.00000
vt 0.71808 1.00000
vt 0.71808 0.70000
vt 0.53856 0.70000
vt 0.71808 1.00000
vt 0.89760 1.00000
vt 0.89760 0.70000
vt 0.71808 0.70000
vt 0.89760 1.00000
vt 1.07712 1.00000
vt 1.07712 0.70000
vt 0.89760 0.70000
vt 1.07712 1.00000
vt 1.25664 1.00000
vt 1.25664 0.70000
vt 1.07712 0.70000
vt 1.25664 1.00000
vt 1.43616 1.00000
vt 1.43616 0.70000
vt 1.25664 0.70000
vt 1.43616 1.00000
vt 1.61568 1.00000
vt 1.61568 0.70000
vt 1.43616 0.70000
vt 1.61568 1.00000
vt 1.79520 1.00000
vt 1.79520 0.70000
vt 1.61568 0.70000
vt 1.79520 1.00000
vt 1.97472 1.00000
vt 1.97472 0.70000
vt 1.79520 0.70000
vt 1.97472 1.00000
vt 2.15423 1.00000
vt 2.15423 0.70000
vt 1.97472 0.70000
vt 2.15423 1.00000
vt 2.33375 1.00000
vt 2.33375 0.70000
vt 2.15423 0.70000
vt 2.33375 1.00000
vt 2.51327 1.00000
vt 2.51327 0.70000
vt 2.33375 0.70000
vt 0.00000 1.10000
vt 0.17952 1.10000
vt 0.17952 1.00000
vt 0.00000 1.00000
vt 0.17952 1.10000
vt 0.35904 1.10000
vt 0.35904 1.00000
vt 0.17952 1.00000
vt 0.35904 1.10000
vt 0.53856 1.10000
vt 0.53856 1.00000
vt 0.35904 1.00000
vt 0.53856 1.10000
vt 0.71808 1.10000
vt 0.71808 1.00000
vt 0.53856 1.00000
vt 0.71808 1.10000
vt 0.89760 1.10000
vt 0.89760 1.00000
vt 0.71808 1.00000
vt 0.89760 1.10000
vt 1.07712 1.10000
vt 1.07712 1.00000
vt 0.89760 1.00000
vt 1.07712 1.10000
vt 1.25664 1.10000
vt 1.25664 1.00000
vt 1.07712 1.00000
vt 1.25664 1.10000
vt 1.43616 1.10000
vt 1.43616 1.00000
vt 1.25664 1.00000
vt 1.43616 1.10000
vt 1.61568 1.10000
vt 1.61568 1.00000
vt 1.43616 1.00000
vt 1.61568 1.10000
vt 1.79520 1.10000
vt 1.79520 1.00000
vt 1.61568 1.00000
vt 1.79520 1.10000
vt 1.97472 1.10000
vt 1.97472 1.00000
vt 1.79520 1.00000
vt 1.97472 1.10000
vt 2.15423 1.10000
vt 2.15423 1.00000
vt 1.97472 1.00000
vt 2.15423 1.10000
vt 2.33375 1.10000
vt 2.33375 1.00000
vt 2.15423 1.00000
vt 2.33375 1.10000
vt 2.51327 1.10000
vt 2.51327 1.00000
vt 2.33375 1.00000
vt 0.00000 1.40000
vt 0.17952 1.40000
vt 0.17952 1.10000
vt 0.00000 1.10000
vt 0.17952 1.40000
vt 0.35904 1.40000
vt 0.35904 1.10000
vt 0.17952 1.10000
vt 0.35904 1.40000
vt 0.53856 1.40000
vt 0.53856 1.10000
vt 0.35904 1.10000
vt 0.53856 1.40000
vt 0.71808 1.40000
vt 0.71808 1.10000
vt 0.53856 1.10000
vt 0.71808 1.40000
vt 0.89760 1.40000
vt 0.89760 1.10000
vt 0.71808 1.10000
vt 0.89760 1.40000
vt 1.07712 1.40000
vt 1.07712 1.10000
vt 0.89760 1.10000
vt 1.07712 1.40000
vt 1.25664 1.40000
vt 1.25664 1.10000
vt 1.07712 1.10000
vt 1.25664 1.40000
vt 1.43616 1.40000
vt 1.43616 1.10000
vt 1.25664 1.10000
vt 1.43616 1.40000
vt 1.61568 1.40000
vt 1.61568 1.10000
vt 1.43616 1.10000
vt 1.61568 1.40000
vt 1.79520 1.40000
vt 1.79520 1.10000
vt 1.61568 1.10000
vt 1.79520 1.40000
vt 1.97472 1.40000
vt 1.97472 1.10000
vt 1.79520 1.10000
vt 1.97472 1.40000
vt 2.15423 1.40000
vt 2.15423 1.10000
vt 1.97472 1.10000
vt 2.15423 1.40000
vt 2.33375 1.40000
vt 2.33375 1.10000
vt 2.15423 1.10000
vt 2.33375 1.40000
vt 2.51327 1.40000
vt 2.51327 1.10000
vt 2.33375 1.10000
vt 0.00000 1.40000
vt 0.17952 1.40000
vt 0.17952 1.40000
vt 0.00000 1.40000
vt 0.17952 1.40000
vt 0.35904 1.40000
vt 0.35904 1.40000
vt 0.17952 1.40000
vt 0.35904 1.40000
vt 0.53856 1.40000
vt 0.53856 1.40000
vt 0.35904 1.40000
vt 0.53856 1.40000
vt 0.71808 1.40000
vt 0.71808 1.40000
vt 0.53856 1.40000
vt 0.71808 1.40000
vt 0.89760 1.40000
vt 0.89760 1.40000
vt 0.71808 1.40000
vt 0.89760 1.40000
vt 1.07712 1.40000
vt 1.07712 1.40000
vt 0.89760 1.40000
vt 1.07712 1.40000
vt 1.25664 1.40000
vt 1.25664 1.40000
vt 1.07712 1.40000
vt 1.25664 1.40000
vt 1.43616 1.40000
vt 1.43616 1.40000
vt 1.25664 1.40000
vt 1.43616 1.40000
vt 1.61568 1.40000
vt 1.61568 1.40000
vt 1.43616 1.40000
vt 1.61568 1.40000
vt 1.79520 1.40000
vt 1.79520 1.40000
vt 1.61568 1.40000
vt 1.79520 1.40000
vt 1.97472 1.40000
vt 1.97472 1.40000
vt 1.79520 1.40000
vt 1.97472 1.40000
vt 2.15423 1.40000
vt 2.15423 1.40000
vt 1.97472 1.40000
vt 2.15423 1.40000
vt 2.33375 1.40000
vt 2.33375 1.40000
vt 2.15423 1.40000
vt 2.33375 1.40000
vt 2.51327 1.40000
vt 2.51327 1.40000
vt 2.33375 1.40000
vt -0.15000 2.35000
vt 0.15000 2.35000
vt 0.15000 2.65000
vt -0.15000 2.65000
vt -0.15000 2.35000
vt 0.15000 2.35000
vt 0.15000 2.65000
vt -0.15000 2.65000
vt 0.00000 -0.15000
vt 0.90000 -0.15000
vt 0.90000 0.15000
vt 0.00000 0.15000
vt 0.00000 -0.15000
vt 0.90000 -0.15000
vt 0.90000 0.15000
vt 0.00000 0.15000
vt 0.00000 2.35000
vt 0.90000 2.35000
vt 0.90000 2.65000
vt 0.00000 2.65000
vt -0.90000 2.35000
vt 0.00000 2.35000
vt 0.00000 2.65000
vt -0.90000 2.65000
vn 1.00000 0.00000 0.00000
vn -1.00000 0.00000 0.00000
vn 0.00000 1.00000 0.00000
vn 0.00000 -1.00000 0.00000
vn 0.00000 0.00000 1.00000
vn 0.00000 0.00000 -1.00000
vn -0.00000 0.70711 0.70711
vn 0.00000 -0.70711 0.70711
vn 0.00000 0.70711 -0.70711
vn -0.00000 -0.70711 -0.70711
vn -0.70711 0.00000 -0.70711
vn 0.70711 -0.00000 -0.70711
vn -0.70711 -0.00000 0.70711
vn 0.70711 0.00000 0.70711
vn 0.70711 0.70711 -0.00000
vn -0.70711 0.70711 0.00000
vn 0.70711 -0.70711 0.00000
vn -0.70711 -0.70711 -0.00000
vn 0.57735 0.57735 0.57735
vn -0.57735 -0.57735 0.57735
vn -0.57735 0.57735 -0.57735
vn 0.57735 -0.57735 -0.57735
vn 0.57735 -0.57735 -0.57735
vn -0.57735 0.57735 -0.57735
vn -0.57735 -0.57735 0.57735
vn 0.57735 0.57735 0.57735
vn 1.00000 0.00000 0.00000
vn -1.00000 0.00000 0.00000
vn 0.00000 1.00000 0.00000
vn 0.00000 -1.00000 0.00000
vn 0.00000 0.00000 1.00000
vn 0.00000 0.00000 -1.00000
vn 1.00000 0.00000 0.00000
vn -1.00000 0.00000 0.00000
vn 0.00000 1.00000 0.00000
vn 0.00000 -1.00000 0.00000
vn 0.00000 0.00000 1.00000
vn 0.00000 0.00000 -1.00000
vn 0.14142 -0.98995 0.00000
vn 0.12742 -0.98995 0.06136
vn 0.12742 -0.98995 0.06136
vn 0.14142 -0.98995 0.00000
vn 0.12742 -0.98995 0.06136
vn 0.08817 -0.98995 0.11057
vn 0.08817 -0.98995 0.11057
vn 0.12742 -0.98995 0.06136
vn 0.08817 -0.98995 0.11057
vn 0.03147 -0.98995 0.13788
vn 0.03147 -0.98995 0.13788
vn 0.08817 -0.98995 0.11057
vn 0.03147 -0.98995 0.13788
vn -0.03147 -0.98995 0.13788
vn -0.03147 -0.98995 0.13788
vn 0.03147 -0.98995 0.13788
vn -0.03147 -0.98995 0.13788
vn -0.08817 -0.98995 0.11057
vn -0.08817 -0.98995 0.11057
vn -0.03147 -0.98995 0.13788
vn -0.08817 -0.98995 0.11057
vn -0.12742 -0.98995 0.06136
vn -0.12742 -0.98995 0.06136
vn -0.08817 -0.98995 0.11057
vn -0.12742 -0.98995 0.06136
vn -0.14142 -0.98995 0.00000
vn -0.14142 -0.98995 0.00000
vn -0.12742 -0.98995 0.06136
vn -0.14142 -0.98995 0.00000
vn -0.12742 -0.98995 -0.06136
vn -0.12742 -0.98995 -0.06136
vn -0.14142 -0.98995 0.00000
vn -0.12742 -0.98995 -0.06136
vn -0.08817 -0.98995 -0.11057
vn -0.08817 -0.98995 -0.11057
vn -0.12742 -0.98995 -0.06136
vn -0.08817 -0.98995 -0.11057
vn -0.03147 -0.98995 -0.13788
vn -0.03147 -0.98995 -0.13788
vn -0.08817 -0.98995 -0.11057
vn -0.03147 -0.98995 -0.13788
vn 0.03147 -0.98995 -0.13788
vn 0.03147 -0.98995 -0.13788
vn -0.03147 -0.98995 -0.13788
vn 0.03147 -0.98995 -0.13788
vn 0.08817 -0.98995 -0.11057
vn 0.08817 -0.98995 -0.11057
vn 0.03147 -0.98995 -0.13788
vn 0.08817 -0.98995 -0.11057
vn 0.12742 -0.98995 -0.06136
vn 0.12742 -0.98995 -0.06136
vn 0.08817 -0.98995 -0.11057
vn 0.12742 -0.98995 -0.06136
vn 0.14142 -0.98995 -0.00000
vn 0.14142 -0.98995 -0.00000
vn 0.12742 -0.98995 -0.06136
vn 0.99913 -0.04163 0.00000
vn 0.90019 -0.04163 0.43351
vn 0.90019 -0.04163 0.43351
vn 0.99913 -0.04163 0.00000
vn 0.90019 -0.04163 0.43351
vn 0.62295 -0.04163 0.78115
vn 0.62295 -0.04163 0.78115
vn 0.90019 -0.04163 0.43351
vn 0.62295 -0.04163 0.78115
vn 0.22233 -0.04163 0.97408
vn 0.22233 -0.04163 0.97408
vn 0.62295 -0.04163 0.78115
vn 0.22233 -0.04163 0.97408
vn -0.22233 -0.04163 0.97408
vn -0.22233 -0.04163 0.97408
vn 0.22233 -0.04163 0.97408
vn -0.22233 -0.04163 0.97408
vn -0.62295 -0.04163 0.78115
vn -0.62295 -0.04163 0.78115
vn -0.22233 -0.04163 0.97408
vn -0.62295 -0.04163 0.78115
vn -0.90019 -0.04163 0.43351
vn -0.90019 -0.04163 0.43351
vn -0.62295 -0.04163 0.78115
vn -0.90019 -0.04163 0.43351
vn -0.99913 -0.04163 0.00000
vn -0.99913 -0.04163 0.00000
vn -0.90019 -0.04163 0.43351
vn -0.99913 -0.04163 0.00000
vn -0.90019 -0.04163 -0.43351
vn -0.90019 -0.04163 -0.43351
vn -0.99913 -0.04163 0.00000
vn -0.90019 -0.04163 -0.43351
vn -0.62295 -0.04163 -0.78115
vn -0.62295 -0.04163 -0.78115
vn -0.90019 -0.04163 -0.43351
vn -0.62295 -0.04163 -0.78115
vn -0.22233 -0.04163 -0.97408
vn -0.22233 -0.04163 -0.97408
vn -0.62295 -0.04163 -0.78115
vn -0.22233 -0.04163 -0.97408
vn 0.22233 -0.04163 -0.97408
vn 0.22233 -0.04163 -0.97408
vn -0.22233 -0.04163 -0.97408
vn 0.22233 -0.04163 -0.97408
vn 0.62295 -0.04163 -0.78115
vn 0.62295 -0.04163 -0.78115
vn 0.22233 -0.04163 -0.97408
vn 0.62295 -0.04163 -0.78115
vn 0.90019 -0.04163 -0.43351
vn 0.90019 -0.04163 -0.43351
vn 0.62295 -0.04163 -0.78115
vn 0.90019 -0.04163 -0.43351
vn 0.99913 -0.04163 -0.00000
vn 0.99913 -0.04163 -0.00000
vn 0.90019 -0.04163 -0.43351
vn 0.99965 0.02631 0.00000
vn 0.90066 0.02631 0.43373
vn 0.90066 0.02631 0.43373
vn 0.99965 0.02631 0.00000
vn 0.90066 0.02631 0.43373
vn 0.62327 0.02631 0.78156
vn 0.62327 0.02631 0.78156
vn 0.90066 0.02631 0.43373
vn 0.62327 0.02631 0.78156
vn 0.22244 0.02631 0.97459
vn 0.22244 0.02631 0.97459
vn 0.62327 0.02631 0.78156
vn 0.22244 0.02631 0.97459
vn -0.22244 0.02631 0.97459
vn -0.22244 0.02631 0.97459
vn 0.22244 0.02631 0.97459
vn -0.22244 0.02631 0.97459
vn -0.62327 0.02631 0.78156
vn -0.62327 0.02631 0.78156
vn -0.22244 0.02631 0.97459
vn -0.62327 0.02631 0.78156
vn -0.90066 0.02631 0.43373
vn -0.90066 0.02631 0.43373
vn -0.62327 0.02631 0.78156
vn -0.90066 0.02631 0.43373
vn -0.99965 0.02631 0.00000
vn -0.99965 0.02631 0.00000
vn -0.90066 0.02631 0.43373
vn -0.99965 0.02631 0.00000
vn -0.90066 0.02631 -0.43373
vn -0.90066 0.02631 -0.43373
vn -0.99965 0.02631 0.00000
vn -0.90066 0.02631 -0.43373
vn -0.62327 0.02631 -0.78156
vn -0.62327 0.02631 -0.78156
vn -0.90066 0.02631 -0.43373
vn -0.62327 0.02631 -0.78156
vn -0.22244 0.02631 -0.97459
vn -0.22244 0.02631 -0.97459
vn -0.62327 0.02631 -0.78156
vn -0.22244 0.02631 -0.97459
vn 0.22244 0.02631 -0.97459
vn 0.22244 0.02631 -0.97459
vn -0.22244 0.02631 -0.97459
vn 0.22244 0.02631 -0.97459
vn 0.62327 0.02631 -0.78156
vn 0.62327 0.02631 -0.78156
vn 0.22244 0.02631 -0.97459
vn 0.62327 0.02631 -0.78156
vn 0.90066 0.02631 -0.43373
vn 0.90066 0.02631 -0.43373
vn 0.62327 0.02631 -0.78156
vn 0.90066 0.02631 -0.43373
vn 0.99965 0.02631 -0.00000
vn 0.99965 0.02631 -0.00000
vn 0.90066 0.02631 -0.43373
vn 0.92308 0.38462 0.00000
vn 0.83166 0.38462 0.40051
vn 0.83166 0.38462 0.40051
vn 0.92308 0.38462 0.00000
vn 0.83166 0.38462 0.40051
vn 0.57553 0.38462 0.72169
vn 0.57553 0.38462 0.72169
vn 0.83166 0.38462 0.40051
vn 0.57553 0.38462 0.72169
vn 0.20540 0.38462 0.89993
vn 0.20540 0.38462 0.89993
vn 0.57553 0.38462 0.72169
vn 0.20540 0.38462 0.89993
vn -0.20540 0.38462 0.89993
vn -0.20540 0.38462 0.89993
vn 0.20540 0.38462 0.89993
vn -0.20540 0.38462 0.89993
vn -0.57553 0.38462 0.72169
vn -0.57553 0.38462 0.72169
vn -0.20540 0.38462 0.89993
vn -0.57553 0.38462 0.72169
vn -0.83166 0.38462 0.40051
vn -0.83166 0.38462 0.40051
vn -0.57553 0.38462 0.72169
vn -0.83166 0.38462 0.40051
vn -0.92308 0.38462 0.00000
vn -0.92308 0.38462 0.00000
vn -0.83166 0.38462 0.40051
vn -0.92308 0.38462 0.00000
vn -0.83166 0.38462 -0.40051
vn -0.83166 0.38462 -0.40051
vn -0.92308 0.38462 0.00000
vn -0.83166 0.38462 -0.40051
vn -0.57553 0.38462 -0.72169
vn -0.57553 0.38462 -0.72169
vn -0.83166 0.38462 -0.40051
vn -0.57553 0.38462 -0.72169
vn -0.20540 0.38462 -0.89993
vn -0.20540 0.38462 -0.89993
vn -0.57553 0.38462 -0.72169
vn -0.20540 0.38462 -0.89993
vn 0.20540 0.38462 -0.89993
vn 0.20540 0.38462 -0.89993
vn -0.20540 0.38462 -0.89993
vn 0.20540 0.38462 -0.89993
vn 0.57553 0.38462 -0.72169
vn 0.57553 0.38462 -0.72169
vn 0.20540 0.38462 -0.89993
vn 0.57553 0.38462 -0.72169
vn 0.83166 0.38462 -0.40051
vn 0.83166 0.38462 -0.40051
vn 0.57553 0.38462 -0.72169
vn 0.83166 0.38462 -0.40051
vn 0.92308 0.38462 -0.00000
vn 0.92308 0.38462 -0.00000
vn 0.83166 0.38462 -0.40051
vn 0.58124 0.81373 0.00000
vn 0.52368 0.81373 0.25219
vn 0.52368 0.81373 0.25219
vn 0.58124 0.81373 0.00000
vn 0.52368 0.81373 0.25219
vn 0.36240 0.81373 0.45443
vn 0.36240 0.81373 0.45443
vn 0.52368 0.81373 0.25219
vn 0.36240 0.81373 0.45443
vn 0.12934 0.81373 0.56667
vn 0.12934 0.81373 0.56667
vn 0.36240 0.81373 0.45443
vn 0.12934 0.81373 0.56667
vn -0.12934 0.81373 0.56667
vn -0.12934 0.81373 0.56667
vn 0.12934 0.81373 0.56667
vn -0.12934 0.81373 0.56667
vn -0.36240 0.81373 0.45443
vn -0.36240 0.81373 0.45443
vn -0.12934 0.81373 0.56667
vn -0.36240 0.81373 0.45443
vn -0.52368 0.81373 0.25219
vn -0.52368 0.81373 0.25219
vn -0.36240 0.81373 0.45443
vn -0.52368 0.81373 0.25219
vn -0.58124 0.81373 0.00000
vn -0.58124 0.81373 0.00000
vn -0.52368 0.81373 0.25219
vn -0.58124 0.81373 0.00000
vn -0.52368 0.81373 -0.25219
vn -0.52368 0.81373 -0.25219
vn -0.58124 0.81373 0.00000
vn -0.52368 0.81373 -0.25219
vn -0.36240 0.81373 -0.45443
vn -0.36240 0.81373 -0.45443
vn -0.52368 0.81373 -0.25219
vn -0.36240 0.81373 -0.45443
vn -0.12934 0.81373 -0.56667
vn -0.12934 0.81373 -0.56667
vn -0.36240 0.81373 -0.45443
vn -0.12934 0.81373 -0.56667
vn 0.12934 0.81373 -0.56667
vn 0.12934 0.81373 -0.56667
vn -0.12934 0.81373 -0.56667
vn 0.12934 0.81373 -0.56667
vn 0.36240 0.81373 -0.45443
vn 0.36240 0.81373 -0.45443
vn 0.12934 0.81373 -0.56667
vn 0.36240 0.81373 -0.45443
vn 0.52368 0.81373 -0.25219
vn 0.52368 0.81373 -0.25219
vn 0.36240 0.81373 -0.45443
vn 0.52368 0.81373 -0.25219
vn 0.58124 0.81373 -0.00000
vn 0.58124 0.81373 -0.00000
vn 0.52368 0.81373 -0.25219
vn 1.00000 -0.00000 0.00000
vn 0.90097 -0.00000 0.43388
vn 0.90097 -0.00000 0.43388
vn 1.00000 -0.00000 0.00000
vn 0.90097 -0.00000 0.43388
vn 0.62349 -0.00000 0.78183
vn 0.62349 -0.00000 0.78183
vn 0.90097 -0.00000 0.43388
vn 0.62349 -0.00000 0.78183
vn 0.22252 -0.00000 0.97493
vn 0.22252 -0.00000 0.97493
vn 0.62349 -0.00000 0.78183
vn 0.22252 -0.00000 0.97493
vn -0.22252 -0.00000 0.97493
vn -0.22252 -0.00000 0.97493
vn 0.22252 -0.00000 0.97493
vn -0.22252 -0.00000 0.97493
vn -0.62349 -0.00000 0.78183
vn -0.62349 -0.00000 0.78183
vn -0.22252 -0.00000 0.97493
vn -0.62349 -0.00000 0.78183
vn -0.90097 -0.00000 0.43388
vn -0.90097 -0.00000 0.43388
vn -0.62349 -0.00000 0.78183
vn -0.90097 -0.00000 0.43388
vn -1.00000 -0.00000 0.00000
vn -1.00000 -0.00000 0.00000
vn -0.90097 -0.00000 0.43388
vn -1.00000 -0.00000 0.00000
vn -0.90097 -0.00000 -0.43388
vn -0.90097 -0.00000 -0.43388
vn -1.00000 -0.00000 0.00000
vn -0.90097 -0.00000 -0.43388
vn -0.62349 -0.00000 -0.78183
vn -0.62349 -0.00000 -0.78183
vn -0.90097 -0.00000 -0.43388
vn -0.62349 -0.00000 -0.78183
vn -0.22252 -0.00000 -0.97493
vn -0.22252 -0.00000 -0.97493
vn -0.62349 -0.00000 -0.78183
vn -0.22252 -0.00000 -0.97493
vn 0.22252 -0.00000 -0.97493
vn 0.22252 -0.00000 -0.97493
vn -0.22252 -0.00000 -0.97493
vn 0.22252 -0.00000 -0.97493
vn 0.62349 -0.00000 -0.78183
vn 0.62349 -0.00000 -0.78183
vn 0.22252 -0.00000 -0.97493
vn 0.62349 -0.00000 -0.78183
vn 0.90097 -0.00000 -0.43388
vn 0.90097 -0.00000 -0.43388
vn 0.62349 -0.00000 -0.78183
vn 0.90097 -0.00000 -0.43388
vn 1.00000 -0.00000 -0.00000
vn 1.00000 -0.00000 -0.00000
vn 0.90097 -0.00000 -0.43388
vn 0.00000 1.00000 0.00000
vn 0.00000 1.00000 0.00000
vn 0.00000 1.00000 0.00000
vn 0.00000 1.00000 0.00000
vn 0.00000 1.00000 0.00000
vn 0.00000 1.00000 0.00000
vn 0.00000 1.00000 0.00000
vn 0.00000 1.00000 0.00000
vn 0.00000 1.00000 0.00000
vn 0.00000 1.00000 0.00000
vn 0.00000 1.00000 0.00000
vn 0.00000 1.00000 0.00000
vn 0.00000 1.00000 0.00000
vn -0.00000 1.00000 0.00000
vn -0.00000 1.00000 0.00000
vn 0.00000 1.00000 0.00000
vn -0.00000 1.00000 0.00000
vn -0.00000 1.00000 0.00000
vn -0.00000 1.00000 0.00000
vn -0.00000 1.00000 0.00000
vn -0.00000 1.00000 0.00000
vn -0.00000 1.00000 0.00000
vn -0.00000 1.00000 0.00000
vn -0.00000 1.00000 0.00000
vn -0.00000 1.00000 0.00000
vn -0.00000 1.00000 0.00000
vn -0.00000 1.00000 0.00000
vn -0.00000 1.00000 0.00000
vn -0.00000 1.00000 0.00000
vn -0.00000 1.00000 -0.00000
vn -0.00000 1.00000 -0.00000
vn -0.00000 1.00000 0.00000
vn -0.00000 1.00000 -0.00000
vn -0.00000 1.00000 -0.00000
vn -0.00000 1.00000 -0.00000
vn -0.00000 1.00000 -0.00000
vn -0.00000 1.00000 -0.00000
vn -0.00000 1.00000 -0.00000
vn -0.00000 1.00000 -0.00000
vn -0.00000 1.00000 -0.00000
vn -0.00000 1.00000 -0.00000
vn 0.00000 1.00000 -0.00000
vn 0.00000 1.00000 -0.00000
vn -0.00000 1.00000 -0.00000
vn 0.00000 1.00000 -0.00000
vn 0.00000 1.00000 -0.00000
vn 0.00000 1.00000 -0.00000
vn 0.00000 1.00000 -0.00000
vn 0.00000 1.00000 -0.00000
vn 0.00000 1.00000 -0.00000
vn 0.00000 1.00000 -0.00000
vn 0.00000 1.00000 -0.00000
vn 0.00000 1.00000 -0.00000
vn 0.00000 1.00000 -0.00000
vn 0.00000 1.00000 -0.00000
vn 0.00000 1.00000 -0.00000
vn 1.00000 0.00000 0.00000
vn -1.00000 0.00000 0.00000
vn 0.00000 1.00000 0.00000
vn 0.00000 -1.00000 0.00000
vn 0.00000 0.00000 1.00000
vn 0.00000 0.00000 -1.00000
usemtl paint_red
f 1/1/1 2/2/1 3/3/1 4/4/1
f 5/5/2 6/6/2 7/7/2 8/8/2
f 9/9/3 10/10/3 11/11/3 12/12/3
f 13/13/4 14/14/4 15/15/4 16/16/4
f 17/17/5 18/18/5 19/19/5 20/20/5
f 21/21/6 22/22/6 23/23/6 24/24/6
f 25/25/7 26/26/7 27/27/7 28/28/7
f 29/29/8 30/30/8 31/31/8 32/32/8
f 33/33/9 34/34/9 35/35/9 36/36/9
f 37/37/10 38/38/10 39/39/10 40/40/10
f 41/41/11 42/42/11 43/43/11 44/44/11
f 45/45/12 46/46/12 47/47/12 48/48/12
f 49/49/13 50/50/13 51/51/13 52/52/13
f 53/53/14 54/54/14 55/55/14 56/56/14
f 57/57/15 58/58/15 59/59/15 60/60/15
f 61/61/16 62/62/16 63/63/16 64/64/16
f 65/65/17 66/66/17 67/67/17 68/68/17
f 69/69/18 70/70/18 71/71/18 72/72/18
f 73/73/19 74/74/19 75/75/19
f 76/76/20 77/77/20 78/78/20
f 79/79/21 80/80/21 81/81/21
f 82/82/22 83/83/22 84/84/22
f 85/85/23 86/86/23 87/87/23
f 88/88/24 89/89/24 90/90/24
f 91/91/25 92/92/25 93/93/25
f 94/94/26 95/95/26 96/96/26
f 145/145/39 146/146/40 147/147/41 148/148/42
f 149/149/43 150/150/44 151/151/45 152/152/46
f 153/153/47 154/154/48 155/155/49 156/156/50
f 157/157/51 158/158/52 159/159/53 160/160/54
f 161/161/55 162/162/56 163/163/57 164/164/58
f 165/165/59 166/166/60 167/167/61 168/168/62
f 169/169/63 170/170/64 171/171/65 172/172/66
f 173/173/67 174/174/68 175/175/69 176/176/70
f 177/177/71 178/178/72 179/179/73 180/180/74
f 181/181/75 182/182/76 183/183/77 184/184/78
f 185/185/79 186/186/80 187/187/81 188/188/82
f 189/189/83 190/190/84 191/191/85 192/192/86
f 193/193/87 194/194/88 195/195/89 196/196/90
f 197/197/91 198/198/92 199/199/93 200/200/94
f 201/201/95 202/202/96 203/203/97 204/204/98
f 205/205/99 206/206/100 207/207/101 208/208/102
f 209/209/103 210/210/104 211/211/105 212/212/106
f 213/213/107 214/214/108 215/215/109 216/216/110
f 217/217/111 218/218/112 219/219/113 220/220/114
f 221/221/115 222/222/116 223/223/117 224/224/118
f 225/225/119 226/226/120 227/227/121 228/228/122
f 229/229/123 230/230/124 231/231/125 232/232/126
f 233/233/127 234/234/128 235/235/129 236/236/130
f 237/237/131 238/238/132 239/239/133 240/240/134
f 241/241/135 242/242/136 243/243/137 244/244/138
f 245/245/139 246/246/140 247/247/141 248/248/142
f 249/249/143 250/250/144 251/251/145 252/252/146
f 253/253/147 254/254/148 255/255/149 256/256/150
f 257/257/151 258/258/152 259/259/153 260/260/154
f 261/261/155 262/262/156 263/263/157 264/264/158
f 265/265/159 266/266/160 267/267/161 268/268/162
f 269/269/163 270/270/164 271/271/165 272/272/166
f 273/273/167 274/274/168 275/275/169 276/276/170
f 277/277/171 278/278/172 279/279/173 280/280/174
f 281/281/175 282/282/176 283/283/177 284/284/178
f 285/285/179 286/286/180 287/287/181 288/288/182
f 289/289/183 290/290/184 291/291/185 292/292/186
f 293/293/187 294/294/188 295/295/189 296/296/190
f 297/297/191 298/298/192 299/299/193 300/300/194
f 301/301/195 302/302/196 303/303/197 304/304/198
f 305/305/199 306/306/200 307/307/201 308/308/202
f 309/309/203 310/310/204 311/311/205 312/312/206
f 313/313/207 314/314/208 315/315/209 316/316/210
f 317/317/211 318/318/212 319/319/213 320/320/214
f 321/321/215 322/322/216 323/323/217 324/324/218
f 325/325/219 326/326/220 327/327/221 328/328/222
f 329/329/223 330/330/224 331/331/225 332/332/226
f 333/333/227 334/334/228 335/335/229 336/336/230
f 337/337/231 338/338/232 339/339/233 340/340/234
f 341/341/235 342/342/236 343/343/237 344/344/238
f 345/345/239 346/346/240 347/347/241 348/348/242
f 349/349/243 350/350/244 351/351/245 352/352/246
f 353/353/247 354/354/248 355/355/249 356/356/250
f 357/357/251 358/358/252 359/359/253 360/360/254
f 361/361/255 362/362/256 363/363/257 364/364/258
f 365/365/259 366/366/260 367/367/261 368/368/262
f 369/369/263 370/370/264 371/371/265 372/372/266
f 373/373/267 374/374/268 375/375/269 376/376/270
f 377/377/271 378/378/272 379/379/273 380/380/274
f 381/381/275 382/382/276 383/383/277 384/384/278
f 385/385/279 386/386/280 387/387/281 388/388/282
f 389/389/283 390/390/284 391/391/285 392/392/286
f 393/393/287 394/394/288 395/395/289 396/396/290
f 397/397/291 398/398/292 399/399/293 400/400/294
f 401/401/295 402/402/296 403/403/297 404/404/298
f 405/405/299 406/406/300 407/407/301 408/408/302
f 409/409/303 410/410/304 411/411/305 412/412/306
f 413/413/307 414/414/308 415/415/309 416/416/310
f 417/417/311 418/418/312 419/419/313 420/420/314
f 421/421/315 422/422/316 423/423/317 424/424/318
f 425/425/319 426/426/320 427/427/321 428/428/322
f 429/429/323 430/430/324 431/431/325 432/432/326
f 433/433/327 434/434/328 435/435/329 436/436/330
f 437/437/331 438/438/332 439/439/333 440/440/334
f 441/441/335 442/442/336 443/443/337 444/444/338
f 445/445/339 446/446/340 447/447/341 448/448/342
f 449/449/343 450/450/344 451/451/345 452/452/346
f 453/453/347 454/454/348 455/455/349 456/456/350
f 457/457/351 458/458/352 459/459/353 460/460/354
f 461/461/355 462/462/356 463/463/357 464/464/358
f 465/465/359 466/466/360 467/467/361 468/468/362
f 469/469/363 470/470/364 471/471/365 472/472/366
f 473/473/367 474/474/368 475/475/369 476/476/370
f 477/477/371 478/478/372 479/479/373 480/480/374
f 481/481/375 482/482/376 483/483/377 484/484/378
f 485/485/379 486/486/380 487/487/381 488/488/382
f 489/489/383 490/490/384 491/491/385 492/492/386
f 493/493/387 494/494/388 495/495/389 496/496/390
f 497/497/391 498/498/392 499/499/393 500/500/394
f 501/501/395 502/502/396 503/503/397 504/504/398
f 505/505/399 506/506/400 507/507/401 508/508/402
f 509/509/403 510/510/404 511/511/405 512/512/406
f 513/513/407 514/514/408 515/515/409 516/516/410
f 517/517/411 518/518/412 519/519/413 520/520/414
f 521/521/415 522/522/416 523/523/417 524/524/418
f 525/525/419 526/526/420 527/527/421 528/528/422
f 529/529/423 530/530/424 531/531/425 532/532/426
f 533/533/427 534/534/428 535/535/429 536/536/430
usemtl glass_clear
f 97/97/27 98/98/27 99/99/27 100/100/27
f 101/101/28 102/102/28 103/103/28 104/104/28
f 105/105/29 106/106/29 107/107/29 108/108/29
f 109/109/30 110/110/30 111/111/30 112/112/30
f 113/113/31 114/114/31 115/115/31 116/116/31
f 117/117/32 118/118/32 119/119/32 120/120/32
usemtl steel_dark
f 121/121/33 122/122/33 123/123/33 124/124/33
f 125/125/34 126/126/34 127/127/34 128/128/34
f 129/129/35 130/130/35 131/131/35 132/132/35
f 133/133/36 134/134/36 135/135/36 136/136/36
f 137/137/37 138/138/37 139/139/37 140/140/37
f 141/141/38 142/142/38 143/143/38 144/144/38
f 537/537/431 538/538/431 539/539/431 540/540/431
f 541/541/432 542/542/432 543/543/432 544/544/432
f 545/545/433 546/546/433 547/547/433 548/548/433
f 549/549/434 550/550/434 551/551/434 552/552/434
f 553/553/435 554/554/435 555/555/435 556/556/435
f 557/557/436 558/558/436 559/559/436 560/560/436
