# generated by meshlib
mtllib poster_c.mtl
o poster_c
v 0.69500 -1.02000 0.03500
v 0.69500 -1.02000 -0.03500
v 0.69500 1.02000 -0.03500
v 0.69500 1.02000 0.03500
v -0.69500 -1.02000 -0.03500
v -0.69500 -1.02000 0.03500
v -0.69500 1.02000 0.03500
v -0.69500 1.02000 -0.03500
v -0.69500 1.02000 0.03500
v 0.69500 1.02000 0.03500
v 0.69500 1.02000 -0.03500
v -0.69500 1.02000 -0.03500
v -0.69500 -1.02000 -0.03500
v 0.69500 -1.02000 -0.03500
v 0.69500 -1.02000 0.03500
v -0.69500 -1.02000 0.03500
v -0.69500 -1.02000 0.03500
v 0.69500 -1.02000 0.03500
v 0.69500 1.02000 0.03500
v -0.69500 1.02000 0.03500
v 0.69500 -1.02000 -0.03500
v -0.69500 -1.02000 -0.03500
v -0.69500 1.02000 -0.03500
v 0.69500 1.02000 -0.03500
v -0.66000 -0.98500 0.04000
v 0.66000 -0.98500 0.04000
v 0.66000 0.98500 0.04000
v -0.66000 0.98500 0.04000
v -0.65000 -0.97500 0.04100
v 0.65000 -0.97500 0.04100
v 0.65000 0.97500 0.04100
v -0.65000 0.97500 0.04100
vt -0.08750 -2.55000
vt 0.08750 -2.55000
vt 0.08750 2.55000
vt -0.08750 2.55000
vt -0.08750 -2.55000
vt 0.08750 -2.55000
vt 0.08750 2.55000
vt -0.08750 2.55000
vt -1.73750 -0.08750
vt 1.73750 -0.08750
vt 1.73750 0.08750
vt -1.73750 0.08750
vt -1.73750 -0.08750
vt 1.73750 -0.08750
vt 1.73750 0.08750
vt -1.73750 0.08750
vt -1.73750 -2.55000
vt 1.73750 -2.55000
vt 1.73750 2.55000
vt -1.73750 2.55000
vt -1.73750 -2.55000
vt 1.73750 -2.55000
vt 1.73750 2.55000
vt -1.73750 2.55000
vt -1.65000 -2.46250
vt 1.65000 -2.46250
vt 1.65000 2.46250
vt -1.65000 2.46250
vt 0.00000 0.00000
vt 1.00000 0.00000
vt 1.00000 1.00000
vt 0.00000 1.00000
vn 1.00000 0.00000 0.00000
vn -1.00000 0.00000 0.00000
vn 0.00000 1.00000 0.00000
vn 0.00000 -1.00000 0.00000
vn 0.00000 0.00000 1.00000
vn 0.00000 0.00000 -1.00000
vn 0.00000 0.00000 1.00000
vn 0.00000 0.00000 1.00000
usemtl steel
f 1/1/1 2/2/1 3/3/1 4/4/1
f 5/5/2 6/6/2 7/7/2 8/8/2
f 9/9/3 10/10/3 11/11/3 12/12/3
f 13/13/4 14/14/4 15/15/4 16/16/4
f 17/17/5 18/18/5 19/19/5 20/20/5
f 21/21/6 22/22/6 23/23/6 24/24/6
usemtl steel_dark
f 25/25/7 26/26/7 27/27/7 28/28/7
usemtl poster_c
f 29/29/8 30/30/8 31/31/8 32/32/8
