# generated by meshlib
mtllib ammo_box.mtl
o ammo_box
v 0.17000 0.01200 -0.08800
v 0.17000 0.16800 -0.08800
v 0.17000 0.16800 0.08800
v 0.17000 0.01200 0.08800
v -0.17000 0.01200 0.08800
v -0.17000 0.16800 0.08800
v -0.17000 0.16800 -0.08800
v -0.17000 0.01200 -0.08800
v -0.15800 0.18000 0.08800
v 0.15800 0.18000 0.08800
v 0.15800 0.18000 -0.08800
v -0.15800 0.18000 -0.08800
v -0.15800 0.00000 -0.08800
v 0.15800 0.00000 -0.08800
v 0.15800 0.00000 0.08800
v -0.15800 0.00000 0.08800
v -0.15800 0.01200 0.10000
v 0.15800 0.01200 0.10000
v 0.15800 0.16800 0.10000
v -0.15800 0.16800 0.10000
v -0.15800 0.16800 -0.10000
v 0.15800 0.16800 -0.10000
v 0.15800 0.01200 -0.10000
v -0.15800 0.01200 -0.10000
v -0.17000 0.00000 -0.08800
v 0.17000 0.00000 -0.08800
v 0.17000 0.01200 -0.10000
v -0.17000 0.01200 -0.10000
v -0.17000 0.00000 0.08800
v 0.17000 0.00000 0.08800
v 0.17000 0.01200 0.10000
v -0.17000 0.01200 0.10000
v -0.17000 0.18000 -0.08800
v 0.17000 0.18000 -0.08800
v 0.17000 0.16800 -0.10000
v -0.17000 0.16800 -0.10000
v -0.17000 0.18000 0.08800
v 0.17000 0.18000 0.08800
v 0.17000 0.16800 0.10000
v -0.17000 0.16800 0.10000
v -0.17000 0.00000 -0.08800
v -0.17000 0.18000 -0.08800
v -0.15800 0.18000 -0.10000
v -0.15800 0.00000 -0.10000
v -0.17000 0.00000 0.08800
v -0.17000 0.18000 0.08800
v -0.15800 0.18000 0.10000
v -0.15800 0.00000 0.10000
v 0.17000 0.00000 -0.08800
v 0.17000 0.18000 -0.08800
v 0.15800 0.18000 -0.10000
v 0.15800 0.00000 -0.10000
v 0.17000 0.00000 0.08800
v 0.17000 0.18000 0.08800
v 0.15800 0.18000 0.10000
v 0.15800 0.00000 0.10000
v -0.17000 0.01200 -0.10000
v -0.17000 0.01200 0.10000
v -0.15800 0.00000 0.10000
v -0.15800 0.00000 -0.10000
v -0.17000 0.16800 -0.10000
v -0.17000 0.16800 0.10000
v -0.15800 0.18000 0.10000
v -0.15800 0.18000 -0.10000
v 0.17000 0.01200 -0.10000
v 0.17000 0.01200 0.10000
v 0.15800 0.00000 0.10000
v 0.15800 0.00000 -0.10000
v 0.17000 0.16800 -0.10000
v 0.17000 0.16800 0.10000
v 0.15800 0.18000 0.10000
v 0.15800 0.18000 -0.10000
v -0.17000 0.01200 -0.08800
v -0.15800 0.00000 -0.08800
v -0.15800 0.01200 -0.10000
v -0.17000 0.01200 0.08800
v -0.15800 0.00000 0.08800
v -0.15800 0.01200 0.10000
v -0.17000 0.16800 -0.08800
v -0.15800 0.18000 -0.08800
v -0.15800 0.16800 -0.10000
v -0.17000 0.16800 0.08800
v -0.15800 0.18000 0.08800
v -0.15800 0.16800 0.10000
v 0.17000 0.01200 -0.08800
v 0.15800 0.00000 -0.08800
v 0.15800 0.01200 -0.10000
v 0.17000 0.01200 0.08800
v 0.15800 0.00000 0.08800
v 0.15800 0.01200 0.10000
v 0.17000 0.16800 -0.08800
v 0.15800 0.18000 -0.08800
v 0.15800 0.16800 -0.10000
v 0.17000 0.16800 0.08800
v 0.15800 0.18000 0.08800
v 0.15800 0.16800 0.10000
v 0.17500 0.17500 0.10500
v 0.17500 0.17500 -0.10500
v 0.17500 0.19500 -0.10500
v 0.17500 0.19500 0.10500
v -0.17500 0.17500 -0.10500
v -0.17500 0.17500 0.10500
v -0.17500 0.19500 0.10500
v -0.17500 0.19500 -0.10500
v -0.17500 0.19500 0.10500
v 0.17500 0.19500 0.10500
v 0.17500 0.19500 -0.10500
v -0.17500 0.19500 -0.10500
v -0.17500 0.17500 -0.10500
v 0.17500 0.17500 -0.10500
v 0.17500 0.17500 0.10500
v -0.17500 0.17500 0.10500
v -0.17500 0.17500 0.10500
v 0.17500 0.17500 0.10500
v 0.17500 0.19500 0.10500
v -0.17500 0.19500 0.10500
v 0.17500 0.17500 -0.10500
v -0.17500 0.17500 -0.10500
v -0.17500 0.19500 -0.10500
v 0.17500 0.19500 -0.10500
v -0.07000 0.21000 -0.01200
v -0.07000 0.21849 -0.00849
v 0.07000 0.21849 -0.00849
v 0.07000 0.21000 -0.01200
v -0.07000 0.21849 -0.00849
v -0.07000 0.22200 -0.00000
v 0.07000 0.22200 -0.00000
v 0.07000 0.21849 -0.00849
v -0.07000 0.22200 -0.00000
v -0.07000 0.21849 0.00849
v 0.07000 0.21849 0.00849
v 0.07000 0.22200 -0.00000
v -0.07000 0.21849 0.00849
v -0.07000 0.21000 0.01200
v 0.07000 0.21000 0.01200
v 0.07000 0.21849 0.00849
v -0.07000 0.21000 0.01200
v -0.07000 0.20151 0.00849
v 0.07000 0.20151 0.00849
v 0.07000 0.21000 0.01200
v -0.07000 0.20151 0.00849
v -0.07000 0.19800 0.00000
v 0.07000 0.19800 0.00000
v 0.07000 0.20151 0.00849
v -0.07000 0.19800 0.00000
v -0.07000 0.20151 -0.00849
v 0.07000 0.20151 -0.00849
v 0.07000 0.19800 0.00000
v -0.07000 0.20151 -0.00849
v -0.07000 0.21000 -0.01200
v 0.07000 0.21000 -0.01200
v 0.07000 0.20151 -0.00849
v -0.07000 0.20151 -0.00849
v -0.07000 0.19800 0.00000
v -0.07000 0.20151 0.00849
v -0.07000 0.21000 0.01200
v -0.07000 0.21849 0.00849
v -0.07000 0.22200 -0.00000
v -0.07000 0.21849 -0.00849
v -0.07000 0.21000 -0.01200
v 0.07000 0.21000 -0.01200
v 0.07000 0.21849 -0.00849
v 0.07000 0.22200 -0.00000
v 0.07000 0.21849 0.00849
v 0.07000 0.21000 0.01200
v 0.07000 0.20151 0.00849
v 0.07000 0.19800 0.00000
v 0.07000 0.20151 -0.00849
v -0.06000 0.18000 0.01000
v -0.06000 0.18000 -0.01000
v -0.06000 0.22000 -0.01000
v -0.06000 0.22000 0.01000
v -0.08000 0.18000 -0.01000
v -0.08000 0.18000 0.01000
v -0.08000 0.22000 0.01000
v -0.08000 0.22000 -0.01000
v -0.08000 0.22000 0.01000
v -0.06000 0.22000 0.01000
v -0.06000 0.22000 -0.01000
v -0.08000 0.22000 -0.01000
v -0.08000 0.18000 -0.01000
v -0.06000 0.18000 -0.01000
v -0.06000 0.18000 0.01000
v -0.08000 0.18000 0.01000
v -0.08000 0.18000 0.01000
v -0.06000 0.18000 0.01000
v -0.06000 0.22000 0.01000
v -0.08000 0.22000 0.01000
v -0.06000 0.18000 -0.01000
v -0.08000 0.18000 -0.01000
v -0.08000 0.22000 -0.01000
v -0.06000 0.22000 -0.01000
v 0.08000 0.18000 0.01000
v 0.08000 0.18000 -0.01000
v 0.08000 0.22000 -0.01000
v 0.08000 0.22000 0.01000
v 0.06000 0.18000 -0.01000
v 0.06000 0.18000 0.01000
v 0.06000 0.22000 0.01000
v 0.06000 0.22000 -0.01000
v 0.06000 0.22000 0.01000
v 0.08000 0.22000 0.01000
v 0.08000 0.22000 -0.01000
v 0.06000 0.22000 -0.01000
v 0.06000 0.18000 -0.01000
v 0.08000 0.18000 -0.01000
v 0.08000 0.18000 0.01000
v 0.06000 0.18000 0.01000
v 0.06000 0.18000 0.01000
v 0.08000 0.18000 0.01000
v 0.08000 0.22000 0.01000
v 0.06000 0.22000 0.01000
v 0.08000 0.18000 -0.01000
v 0.06000 0.18000 -0.01000
v 0.06000 0.22000 -0.01000
v 0.08000 0.22000 -0.01000
vt -0.31200 -0.35200
vt 0.31200 -0.35200
vt 0.31200 0.35200
vt -0.31200 0.35200
vt -0.31200 0.35200
vt 0.31200 0.35200
vt 0.31200 -0.35200
vt -0.31200 -0.35200
vt -0.63200 0.35200
vt 0.63200 0.35200
vt 0.63200 -0.35200
vt -0.63200 -0.35200
vt -0.63200 -0.35200
vt 0.63200 -0.35200
vt 0.63200 0.35200
vt -0.63200 0.35200
vt -0.63200 -0.31200
vt 0.63200 -0.31200
vt 0.63200 0.31200
vt -0.63200 0.31200
vt -0.63200 0.31200
vt 0.63200 0.31200
vt 0.63200 -0.31200
vt -0.63200 -0.31200
vt 0.00000 0.00000
vt 1.36000 0.00000
vt 1.36000 0.04800
vt 0.00000 0.04800
vt 0.00000 0.00000
vt 1.36000 0.00000
vt 1.36000 0.04800
vt 0.00000 0.04800
vt 0.00000 0.00000
vt 1.36000 0.00000
vt 1.36000 0.04800
vt 0.00000 0.04800
vt 0.00000 0.00000
vt 1.36000 0.00000
vt 1.36000 0.04800
vt 0.00000 0.04800
vt 0.00000 0.00000
vt 0.72000 0.00000
vt 0.72000 0.04800
vt 0.00000 0.04800
vt 0.00000 0.00000
vt 0.72000 0.00000
vt 0.72000 0.04800
vt 0.00000 0.04800
vt 0.00000 0.00000
vt 0.72000 0.00000
vt 0.72000 0.04800
vt 0.00000 0.04800
vt 0.00000 0.00000
vt 0.72000 0.00000
vt 0.72000 0.04800
vt 0.00000 0.04800
vt 0.00000 0.00000
vt 0.80000 0.00000
vt 0.80000 0.04800
vt 0.00000 0.04800
vt 0.00000 0.00000
vt 0.80000 0.00000
vt 0.80000 0.04800
vt 0.00000 0.04800
vt 0.00000 0.00000
vt 0.80000 0.00000
vt 0.80000 0.04800
vt 0.00000 0.04800
vt 0.00000 0.00000
vt 0.80000 0.00000
vt 0.80000 0.04800
vt 0.00000 0.04800
vt 0.00000 0.00000
vt 0.04800 0.00000
vt 0.00000 0.04800
vt 0.00000 0.00000
vt 0.04800 0.00000
vt 0.00000 0.04800
vt 0.00000 0.00000
vt 0.04800 0.00000
vt 0.00000 0.04800
vt 0.00000 0.00000
vt 0.04800 0.00000
vt 0.00000 0.04800
vt 0.00000 0.00000
vt 0.04800 0.00000
vt 0.00000 0.04800
vt 0.00000 0.00000
vt 0.04800 0.00000
vt 0.00000 0.04800
vt 0.00000 0.00000
vt 0.04800 0.00000
vt 0.00000 0.04800
vt 0.00000 0.00000
vt 0.04800 0.00000
vt 0.00000 0.04800
vt -0.52500 0.87500
vt 0.52500 0.87500
vt 0.52500 0.97500
vt -0.52500 0.97500
vt -0.52500 0.87500
vt 0.52500 0.87500
vt 0.52500 0.97500
vt -0.52500 0.97500
vt -0.87500 -0.52500
vt 0.87500 -0.52500
vt 0.87500 0.52500
vt -0.87500 0.52500
vt -0.87500 -0.52500
vt 0.87500 -0.52500
vt 0.87500 0.52500
vt -0.87500 0.52500
vt -0.87500 0.87500
vt 0.87500 0.87500
vt 0.87500 0.97500
vt -0.87500 0.97500
vt -0.87500 0.87500
vt 0.87500 0.87500
vt 0.87500 0.97500
vt -0.87500 0.97500
vt 0.00000 0.00000
vt 0.09425 0.00000
vt 0.09425 1.40000
vt 0.00000 1.40000
vt 0.09425 0.00000
vt 0.18850 0.00000
vt 0.18850 1.40000
vt 0.09425 1.40000
vt 0.18850 0.00000
vt 0.28274 0.00000
vt 0.28274 1.40000
vt 0.18850 1.40000
vt 0.28274 0.00000
vt 0.37699 0.00000
vt 0.37699 1.40000
vt 0.28274 1.40000
vt 0.37699 0.00000
vt 0.47124 0.00000
vt 0.47124 1.40000
vt 0.37699 1.40000
vt 0.47124 0.00000
vt 0.56549 0.00000
vt 0.56549 1.40000
vt 0.47124 1.40000
vt 0.56549 0.00000
vt 0.65973 0.00000
vt 0.65973 1.40000
vt 0.56549 1.40000
vt 0.65973 0.00000
vt 0.75398 0.00000
vt 0.75398 1.40000
vt 0.65973 1.40000
vt 0.08485 -0.08485
vt -0.00000 -0.12000
vt -0.08485 -0.08485
vt -0.12000 0.00000
vt -0.08485 0.08485
vt 0.00000 0.12000
vt 0.08485 0.08485
vt 0.12000 0.00000
vt 0.12000 0.00000
vt 0.08485 0.08485
vt 0.00000 0.12000
vt -0.08485 0.08485
vt -0.12000 0.00000
vt -0.08485 -0.08485
vt -0.00000 -0.12000
vt 0.08485 -0.08485
vt -0.10000 1.80000
vt 0.10000 1.80000
vt 0.10000 2.20000
vt -0.10000 2.20000
vt -0.10000 1.80000
vt 0.10000 1.80000
vt 0.10000 2.20000
vt -0.10000 2.20000
vt -0.80000 -0.10000
vt -0.60000 -0.10000
vt -0.60000 0.10000
vt -0.80000 0.10000
vt -0.80000 -0.10000
vt -0.60000 -0.10000
vt -0.60000 0.10000
vt -0.80000 0.10000
vt -0.80000 1.80000
vt -0.60000 1.80000
vt -0.60000 2.20000
vt -0.80000 2.20000
vt 0.60000 1.80000
vt 0.80000 1.80000
vt 0.80000 2.20000
vt 0.60000 2.20000
vt -0.10000 1.80000
vt 0.10000 1.80000
vt 0.10000 2.20000
vt -0.10000 2.20000
vt -0.10000 1.80000
vt 0.10000 1.80000
vt 0.10000 2.20000
vt -0.10000 2.20000
vt 0.60000 -0.10000
vt 0.80000 -0.10000
vt 0.80000 0.10000
vt 0.60000 0.10000
vt 0.60000 -0.10000
vt 0.80000 -0.10000
vt 0.80000 0.10000
vt 0.60000 0.10000
vt 0.60000 1.80000
vt 0.80000 1.80000
vt 0.80000 2.20000
vt 0.60000 2.20000
vt -0.80000 1.80000
vt -0.60000 1.80000
vt -0.60000 2.20000
vt -0.80000 2.20000
vn 1.00000 0.00000 0.00000
vn -1.00000 0.00000 0.00000
vn 0.00000 1.00000 0.00000
vn 0.00000 -1.00000 0.00000
vn 0.00000 0.00000 1.00000
vn 0.00000 0.00000 -1.00000
vn -0.00000 0.70711 0.70711
vn 0.00000 -0.70711 0.70711
vn 0.00000 0.70711 -0.70711
vn -0.00000 -0.70711 -0.70711
vn -0.70711 0.00000 -0.70711
vn 0.70711 -0.00000 -0.70711
vn -0.70711 -0.00000 0.70711
vn 0.70711 0.00000 0.70711
vn 0.70711 0.70711 -0.00000
vn -0.70711 0.70711 0.00000
vn 0.70711 -0.70711 0.00000
vn -0.70711 -0.70711 -0.00000
vn 0.57735 0.57735 0.57735
vn -0.57735 -0.57735 0.57735
vn -0.57735 0.57735 -0.57735
vn 0.57735 -0.57735 -0.57735
vn 0.57735 -0.57735 -0.57735
vn -0.57735 0.57735 -0.57735
vn -0.57735 -0.57735 0.57735
vn 0.57735 0.57735 0.57735
vn 1.00000 0.00000 0.00000
vn -1.00000 0.00000 0.00000
vn 0.00000 1.00000 0.00000
vn 0.00000 -1.00000 0.00000
vn 0.00000 0.00000 1.00000
vn 0.00000 0.00000 -1.00000
vn 0.00000 0.00000 -1.00000
vn 0.00000 0.70711 -0.70711
vn 0.00000 0.70711 -0.70711
vn 0.00000 0.00000 -1.00000
vn 0.00000 0.70711 -0.70711
vn 0.00000 1.00000 -0.00000
vn 0.00000 1.00000 -0.00000
vn 0.00000 0.70711 -0.70711
vn 0.00000 1.00000 -0.00000
vn -0.00000 0.70711 0.70711
vn -0.00000 0.70711 0.70711
vn 0.00000 1.00000 -0.00000
vn -0.00000 0.70711 0.70711
vn -0.00000 0.00000 1.00000
vn -0.00000 0.00000 1.00000
vn -0.00000 0.70711 0.70711
vn -0.00000 0.00000 1.00000
vn 0.00000 -0.70711 0.70711
vn 0.00000 -0.70711 0.70711
vn -0.00000 0.00000 1.00000
vn 0.00000 -0.70711 0.70711
vn 0.00000 -1.00000 0.00000
vn 0.00000 -1.00000 0.00000
vn 0.00000 -0.70711 0.70711
vn 0.00000 -1.00000 0.00000
vn 0.00000 -0.70711 -0.70711
vn 0.00000 -0.70711 -0.70711
vn 0.00000 -1.00000 0.00000
vn 0.00000 -0.70711 -0.70711
vn 0.00000 0.00000 -1.00000
vn 0.00000 0.00000 -1.00000
vn 0.00000 -0.70711 -0.70711
vn -1.00000 -0.00000 -0.00000
vn 1.00000 0.00000 0.00000
vn 1.00000 0.00000 0.00000
vn -1.00000 0.00000 0.00000
vn 0.00000 1.00000 0.00000
vn 0.00000 -1.00000 0.00000
vn 0.00000 0.00000 1.00000
vn 0.00000 0.00000 -1.00000
vn 1.00000 0.00000 0.00000
vn -1.00000 0.00000 0.00000
vn 0.00000 1.00000 0.00000
vn 0.00000 -1.00000 0.00000
vn 0.00000 0.00000 1.00000
vn 0.00000 0.00000 -1.00000
usemtl paint_yellow
f 1/1/1 2/2/1 3/3/1 4/4/1
f 5/5/2 6/6/2 7/7/2 8/8/2
f 9/9/3 10/10/3 11/11/3 12/12/3
f 13/13/4 14/14/4 15/15/4 16/16/4
f 17/17/5 18/18/5 19/19/5 20/20/5
f 21/21/6 22/22/6 23/23/6 24/24/6
f 25/25/7 26/26/7 27/27/7 28/28/7
f 29/29/8 30/30/8 31/31/8 32/32/8
f 33/33/9 34/34/9 35/35/9 36/36/9
f 37/37/10 38/38/10 39/39/10 40/40/10
f 41/41/11 42/42/11 43/43/11 44/44/11
f 45/45/12 46/46/12 47/47/12 48/48/12
f 49/49/13 50/50/13 51/51/13 52/52/13
f 53/53/14 54/54/14 55/55/14 56/56/14
f 57/57/15 58/58/15 59/59/15 60/60/15
f 61/61/16 62/62/16 63/63/16 64/64/16
f 65/65/17 66/66/17 67/67/17 68/68/17
f 69/69/18 70/70/18 71/71/18 72/72/18
f 73/73/19 74/74/19 75/75/19
f 76/76/20 77/77/20 78/78/20
f 79/79/21 80/80/21 81/81/21
f 82/82/22 83/83/22 84/84/22
f 85/85/23 86/86/23 87/87/23
f 88/88/24 89/89/24 90/90/24
f 91/91/25 92/92/25 93/93/25
f 94/94/26 95/95/26 96/96/26
usemtl steel_dark
f 97/97/27 98/98/27 99/99/27 100/100/27
f 101/101/28 102/102/28 103/103/28 104/104/28
f 105/105/29 106/106/29 107/107/29 108/108/29
f 109/109/30 110/110/30 111/111/30 112/112/30
f 113/113/31 114/114/31 115/115/31 116/116/31
f 117/117/32 118/118/32 119/119/32 120/120/32
f 121/121/33 122/122/34 123/123/35 124/124/36
f 125/125/37 126/126/38 127/127/39 128/128/40
f 129/129/41 130/130/42 131/131/43 132/132/44
f 133/133/45 134/134/46 135/135/47 136/136/48
f 137/137/49 138/138/50 139/139/51 140/140/52
f 141/141/53 142/142/54 143/143/55 144/144/56
f 145/145/57 146/146/58 147/147/59 148/148/60
f 149/149/61 150/150/62 151/151/63 152/152/64
f 153/153/65 154/154/65 155/155/65 156/156/65 157/157/65 158/158/65 159/159/65 160/160/65
f 161/161/66 162/162/66 163/163/66 164/164/66 165/165/66 166/166/66 167/167/66 168/168/66
f 169/169/67 170/170/67 171/171/67 172/172/67
f 173/173/68 174/174/68 175/175/68 176/176/68
f 177/177/69 178/178/69 179/179/69 180/180/69
f 181/181/70 182/182/70 183/183/70 184/184/70
f 185/185/71 186/186/71 187/187/71 188/188/71
f 189/189/72 190/190/72 191/191/72 192/192/72
f 193/193/73 194/194/73 195/195/73 196/196/73
f 197/197/74 198/198/74 199/199/74 200/200/74
f 201/201/75 202/202/75 203/203/75 204/204/75
f 205/205/76 206/206/76 207/207/76 208/208/76
f 209/209/77 210/210/77 211/211/77 212/212/77
f 213/213/78 214/214/78 215/215/78 216/216/78
