# generated by meshlib
mtllib cctv.mtl
o cctv
v 0.06500 -0.06500 0.02500
v 0.06500 -0.06500 -0.02500
v 0.06500 0.06500 -0.02500
v 0.06500 0.06500 0.02500
v -0.06500 -0.06500 -0.02500
v -0.06500 -0.06500 0.02500
v -0.06500 0.06500 0.02500
v -0.06500 0.06500 -0.02500
v -0.06500 0.06500 0.02500
v 0.06500 0.06500 0.02500
v 0.06500 0.06500 -0.02500
v -0.06500 0.06500 -0.02500
v -0.06500 -0.06500 -0.02500
v 0.06500 -0.06500 -0.02500
v 0.06500 -0.06500 0.02500
v -0.06500 -0.06500 0.02500
v -0.06500 -0.06500 0.02500
v 0.06500 -0.06500 0.02500
v 0.06500 0.06500 0.02500
v -0.06500 0.06500 0.02500
v 0.06500 -0.06500 -0.02500
v -0.06500 -0.06500 -0.02500
v -0.06500 0.06500 -0.02500
v 0.06500 0.06500 -0.02500
v 0.02500 0.00000 0.02000
v 0.02023 0.01447 0.02258
v 0.02023 -0.03553 0.30258
v 0.02500 -0.05000 0.30000
v 0.02023 0.01447 0.02258
v 0.00773 0.02341 0.02418
v 0.00773 -0.02659 0.30418
v 0.02023 -0.03553 0.30258
v 0.00773 0.02341 0.02418
v -0.00773 0.02341 0.02418
v -0.00773 -0.02659 0.30418
v 0.00773 -0.02659 0.30418
v -0.00773 0.02341 0.02418
v -0.02023 0.01447 0.02258
v -0.02023 -0.03553 0.30258
v -0.00773 -0.02659 0.30418
v -0.02023 0.01447 0.02258
v -0.02500 0.00000 0.02000
v -0.02500 -0.05000 0.30000
v -0.02023 -0.03553 0.30258
v -0.02500 0.00000 0.02000
v -0.02023 -0.01447 0.01742
v -0.02023 -0.06447 0.29742
v -0.02500 -0.05000 0.30000
v -0.02023 -0.01447 0.01742
v -0.00773 -0.02341 0.01582
v -0.00773 -0.07341 0.29582
v -0.02023 -0.06447 0.29742
v -0.00773 -0.02341 0.01582
v 0.00773 -0.02341 0.01582
v 0.00773 -0.07341 0.29582
v -0.00773 -0.07341 0.29582
v 0.00773 -0.02341 0.01582
v 0.02023 -0.01447 0.01742
v 0.02023 -0.06447 0.29742
v 0.00773 -0.07341 0.29582
v 0.02023 -0.01447 0.01742
v 0.02500 0.00000 0.02000
v 0.02500 -0.05000 0.30000
v 0.02023 -0.06447 0.29742
v 0.02023 -0.01447 0.01742
v 0.00773 -0.02341 0.01582
v -0.00773 -0.02341 0.01582
v -0.02023 -0.01447 0.01742
v -0.02500 0.00000 0.02000
v -0.02023 0.01447 0.02258
v -0.00773 0.02341 0.02418
v 0.00773 0.02341 0.02418
v 0.02023 0.01447 0.02258
v 0.02500 0.00000 0.02000
v 0.02500 -0.05000 0.30000
v 0.02023 -0.03553 0.30258
v 0.00773 -0.02659 0.30418
v -0.00773 -0.02659 0.30418
v -0.02023 -0.03553 0.30258
v -0.02500 -0.05000 0.30000
v -0.02023 -0.06447 0.29742
v -0.00773 -0.07341 0.29582
v 0.00773 -0.07341 0.29582
v 0.02023 -0.06447 0.29742
v 0.05500 -0.11300 0.32200
v 0.05500 -0.02700 0.32200
v 0.05500 -0.02700 0.55800
v 0.05500 -0.11300 0.55800
v -0.05500 -0.11300 0.55800
v -0.05500 -0.02700 0.55800
v -0.05500 -0.02700 0.32200
v -0.05500 -0.11300 0.32200
v -0.04300 -0.01500 0.55800
v 0.04300 -0.01500 0.55800
v 0.04300 -0.01500 0.32200
v -0.04300 -0.01500 0.32200
v -0.04300 -0.12500 0.32200
v 0.04300 -0.12500 0.32200
v 0.04300 -0.12500 0.55800
v -0.04300 -0.12500 0.55800
v -0.04300 -0.11300 0.57000
v 0.04300 -0.11300 0.57000
v 0.04300 -0.02700 0.57000
v -0.04300 -0.02700 0.57000
v -0.04300 -0.02700 0.31000
v 0.04300 -0.02700 0.31000
v 0.04300 -0.11300 0.31000
v -0.04300 -0.11300 0.31000
v -0.05500 -0.12500 0.32200
v 0.05500 -0.12500 0.32200
v 0.05500 -0.11300 0.31000
v -0.05500 -0.11300 0.31000
v -0.05500 -0.12500 0.55800
v 0.05500 -0.12500 0.55800
v 0.05500 -0.11300 0.57000
v -0.05500 -0.11300 0.57000
v -0.05500 -0.01500 0.32200
v 0.05500 -0.01500 0.32200
v 0.05500 -0.02700 0.31000
v -0.05500 -0.02700 0.31000
v -0.05500 -0.01500 0.55800
v 0.05500 -0.01500 0.55800
v 0.05500 -0.02700 0.57000
v -0.05500 -0.02700 0.57000
v -0.05500 -0.12500 0.32200
v -0.05500 -0.01500 0.32200
v -0.04300 -0.01500 0.31000
v -0.04300 -0.12500 0.31000
v -0.05500 -0.12500 0.55800
v -0.05500 -0.01500 0.55800
v -0.04300 -0.01500 0.57000
v -0.04300 -0.12500 0.57000
v 0.05500 -0.12500 0.32200
v 0.05500 -0.01500 0.32200
v 0.04300 -0.01500 0.31000
v 0.04300 -0.12500 0.31000
v 0.05500 -0.12500 0.55800
v 0.05500 -0.01500 0.55800
v 0.04300 -0.01500 0.57000
v 0.04300 -0.12500 0.57000
v -0.05500 -0.11300 0.31000
v -0.05500 -0.11300 0.57000
v -0.04300 -0.12500 0.57000
v -0.04300 -0.12500 0.31000
v -0.05500 -0.02700 0.31000
v -0.05500 -0.02700 0.57000
v -0.04300 -0.01500 0.57000
v -0.04300 -0.01500 0.31000
v 0.05500 -0.11300 0.31000
v 0.05500 -0.11300 0.57000
v 0.04300 -0.12500 0.57000
v 0.04300 -0.12500 0.31000
v 0.05500 -0.02700 0.31000
v 0.05500 -0.02700 0.57000
v 0.04300 -0.01500 0.57000
v 0.04300 -0.01500 0.31000
v -0.05500 -0.11300 0.32200
v -0.04300 -0.12500 0.32200
v -0.04300 -0.11300 0.31000
v -0.05500 -0.11300 0.55800
v -0.04300 -0.12500 0.55800
v -0.04300 -0.11300 0.57000
v -0.05500 -0.02700 0.32200
v -0.04300 -0.01500 0.32200
v -0.04300 -0.02700 0.31000
v -0.05500 -0.02700 0.55800
v -0.04300 -0.01500 0.55800
v -0.04300 -0.02700 0.57000
v 0.05500 -0.11300 0.32200
v 0.04300 -0.12500 0.32200
v 0.04300 -0.11300 0.31000
v 0.05500 -0.11300 0.55800
v 0.04300 -0.12500 0.55800
v 0.04300 -0.11300 0.57000
v 0.05500 -0.02700 0.32200
v 0.04300 -0.01500 0.32200
v 0.04300 -0.02700 0.31000
v 0.05500 -0.02700 0.55800
v 0.04300 -0.01500 0.55800
v 0.04300 -0.02700 0.57000
v 0.00000 -0.07000 0.57500
v 0.00000 -0.07000 0.57500
v 0.04054 -0.05048 0.58000
v 0.04500 -0.07000 0.58000
v 0.00000 -0.07000 0.57500
v 0.00000 -0.07000 0.57500
v 0.02806 -0.03482 0.58000
v 0.04054 -0.05048 0.58000
v 0.00000 -0.07000 0.57500
v 0.00000 -0.07000 0.57500
v 0.01001 -0.02613 0.58000
v 0.02806 -0.03482 0.58000
v 0.00000 -0.07000 0.57500
v 0.00000 -0.07000 0.57500
v -0.01001 -0.02613 0.58000
v 0.01001 -0.02613 0.58000
v 0.00000 -0.07000 0.57500
v 0.00000 -0.07000 0.57500
v -0.02806 -0.03482 0.58000
v -0.01001 -0.02613 0.58000
v 0.00000 -0.07000 0.57500
v 0.00000 -0.07000 0.57500
v -0.04054 -0.05048 0.58000
v -0.02806 -0.03482 0.58000
v 0.00000 -0.07000 0.57500
v 0.00000 -0.07000 0.57500
v -0.04500 -0.07000 0.58000
v -0.04054 -0.05048 0.58000
v 0.00000 -0.07000 0.57500
v 0.00000 -0.07000 0.57500
v -0.04054 -0.08952 0.58000
v -0.04500 -0.07000 0.58000
v 0.00000 -0.07000 0.57500
v 0.00000 -0.07000 0.57500
v -0.02806 -0.10518 0.58000
v -0.04054 -0.08952 0.58000
v 0.00000 -0.07000 0.57500
v 0.00000 -0.07000 0.57500
v -0.01001 -0.11387 0.58000
v -0.02806 -0.10518 0.58000
v 0.00000 -0.07000 0.57500
v 0.00000 -0.07000 0.57500
v 0.01001 -0.11387 0.58000
v -0.01001 -0.11387 0.58000
v 0.00000 -0.07000 0.57500
v 0.00000 -0.07000 0.57500
v 0.02806 -0.10518 0.58000
v 0.01001 -0.11387 0.58000
v 0.00000 -0.07000 0.57500
v 0.00000 -0.07000 0.57500
v 0.04054 -0.08952 0.58000
v 0.02806 -0.10518 0.58000
v 0.00000 -0.07000 0.57500
v 0.00000 -0.07000 0.57500
v 0.04500 -0.07000 0.58000
v 0.04054 -0.08952 0.58000
v 0.04500 -0.07000 0.58000
v 0.04054 -0.05048 0.58000
v 0.04325 -0.04917 0.60500
v 0.04800 -0.07000 0.60500
v 0.04054 -0.05048 0.58000
v 0.02806 -0.03482 0.58000
v 0.02993 -0.03247 0.60500
v 0.04325 -0.04917 0.60500
v 0.02806 -0.03482 0.58000
v 0.01001 -0.02613 0.58000
v 0.01068 -0.02320 0.60500
v 0.02993 -0.03247 0.60500
v 0.01001 -0.02613 0.58000
v -0.01001 -0.02613 0.58000
v -0.01068 -0.02320 0.60500
v 0.01068 -0.02320 0.60500
v -0.01001 -0.02613 0.58000
v -0.02806 -0.03482 0.58000
v -0.02993 -0.03247 0.60500
v -0.01068 -0.02320 0.60500
v -0.02806 -0.03482 0.58000
v -0.04054 -0.05048 0.58000
v -0.04325 -0.04917 0.60500
v -0.02993 -0.03247 0.60500
v -0.04054 -0.05048 0.58000
v -0.04500 -0.07000 0.58000
v -0.04800 -0.07000 0.60500
v -0.04325 -0.04917 0.60500
v -0.04500 -0.07000 0.58000
v -0.04054 -0.08952 0.58000
v -0.04325 -0.09083 0.60500
v -0.04800 -0.07000 0.60500
v -0.04054 -0.08952 0.58000
v -0.02806 -0.10518 0.58000
v -0.02993 -0.10753 0.60500
v -0.04325 -0.09083 0.60500
v -0.02806 -0.10518 0.58000
v -0.01001 -0.11387 0.58000
v -0.01068 -0.11680 0.60500
v -0.02993 -0.10753 0.60500
v -0.01001 -0.11387 0.58000
v 0.01001 -0.11387 0.58000
v 0.01068 -0.11680 0.60500
v -0.01068 -0.11680 0.60500
v 0.01001 -0.11387 0.58000
v 0.02806 -0.10518 0.58000
v 0.02993 -0.10753 0.60500
v 0.01068 -0.11680 0.60500
v 0.02806 -0.10518 0.58000
v 0.04054 -0.08952 0.58000
v 0.04325 -0.09083 0.60500
v 0.02993 -0.10753 0.60500
v 0.04054 -0.08952 0.58000
v 0.04500 -0.07000 0.58000
v 0.04800 -0.07000 0.60500
v 0.04325 -0.09083 0.60500
v 0.04800 -0.07000 0.60500
v 0.04325 -0.04917 0.60500
v 0.02993 -0.03247 0.60500
v 0.01068 -0.02320 0.60500
v -0.01068 -0.02320 0.60500
v -0.02993 -0.03247 0.60500
v -0.04325 -0.04917 0.60500
v -0.04800 -0.07000 0.60500
v -0.04325 -0.09083 0.60500
v -0.02993 -0.10753 0.60500
v -0.01068 -0.11680 0.60500
v 0.01068 -0.11680 0.60500
v 0.02993 -0.10753 0.60500
v 0.04325 -0.09083 0.60500
v 0.04100 -0.02600 0.50600
v 0.04100 -0.02600 0.49400
v 0.04100 -0.01400 0.49400
v 0.04100 -0.01400 0.50600
v 0.02900 -0.02600 0.49400
v 0.02900 -0.02600 0.50600
v 0.02900 -0.01400 0.50600
v 0.02900 -0.01400 0.49400
v 0.02900 -0.01400 0.50600
v 0.04100 -0.01400 0.50600
v 0.04100 -0.01400 0.49400
v 0.02900 -0.01400 0.49400
v 0.02900 -0.02600 0.49400
v 0.04100 -0.02600 0.49400
v 0.04100 -0.02600 0.50600
v 0.02900 -0.02600 0.50600
v 0.02900 -0.02600 0.50600
v 0.04100 -0.02600 0.50600
v 0.04100 -0.01400 0.50600
v 0.02900 -0.01400 0.50600
v 0.04100 -0.02600 0.49400
v 0.02900 -0.02600 0.49400
v 0.02900 -0.01400 0.49400
v 0.04100 -0.01400 0.49400
vt -0.12500 -0.32500
vt 0.12500 -0.32500
vt 0.12500 0.32500
vt -0.12500 0.32500
vt -0.12500 -0.32500
vt 0.12500 -0.32500
vt 0.12500 0.32500
vt -0.12500 0.32500
vt -0.32500 -0.12500
vt 0.32500 -0.12500
vt 0.32500 0.12500
vt -0.32500 0.12500
vt -0.32500 -0.12500
vt 0.32500 -0.12500
vt 0.32500 0.12500
vt -0.32500 0.12500
vt -0.32500 -0.32500
vt 0.32500 -0.32500
vt 0.32500 0.32500
vt -0.32500 0.32500
vt -0.32500 -0.32500
vt 0.32500 -0.32500
vt 0.32500 0.32500
vt -0.32500 0.32500
vt 0.00000 0.00000
vt 0.07854 0.00000
vt 0.07854 1.42215
vt 0.00000 1.42215
vt 0.07854 0.00000
vt 0.15708 0.00000
vt 0.15708 1.42215
vt 0.07854 1.42215
vt 0.15708 0.00000
vt 0.23562 0.00000
vt 0.23562 1.42215
vt 0.15708 1.42215
vt 0.23562 0.00000
vt 0.31416 0.00000
vt 0.31416 1.42215
vt 0.23562 1.42215
vt 0.31416 0.00000
vt 0.39270 0.00000
vt 0.39270 1.42215
vt 0.31416 1.42215
vt 0.39270 0.00000
vt 0.47124 0.00000
vt 0.47124 1.42215
vt 0.39270 1.42215
vt 0.47124 0.00000
vt 0.54978 0.00000
vt 0.54978 1.42215
vt 0.47124 1.42215
vt 0.54978 0.00000
vt 0.62832 0.00000
vt 0.62832 1.42215
vt 0.54978 1.42215
vt 0.62832 0.00000
vt 0.70686 0.00000
vt 0.70686 1.42215
vt 0.62832 1.42215
vt 0.70686 0.00000
vt 0.78540 0.00000
vt 0.78540 1.42215
vt 0.70686 1.42215
vt 0.10113 -0.07347
vt 0.03863 -0.11888
vt -0.03863 -0.11888
vt -0.10113 -0.07347
vt -0.12500 0.00000
vt -0.10113 0.07347
vt -0.03863 0.11888
vt 0.03863 0.11888
vt 0.10113 0.07347
vt 0.12500 0.00000
vt 0.12500 0.00000
vt 0.10113 0.07347
vt 0.03863 0.11888
vt -0.03863 0.11888
vt -0.10113 0.07347
vt -0.12500 0.00000
vt -0.10113 -0.07347
vt -0.03863 -0.11888
vt 0.03863 -0.11888
vt 0.10113 -0.07347
vt -0.21500 -0.59000
vt 0.21500 -0.59000
vt 0.21500 0.59000
vt -0.21500 0.59000
vt -0.21500 0.59000
vt 0.21500 0.59000
vt 0.21500 -0.59000
vt -0.21500 -0.59000
vt -0.21500 0.59000
vt 0.21500 0.59000
vt 0.21500 -0.59000
vt -0.21500 -0.59000
vt -0.21500 -0.59000
vt 0.21500 -0.59000
vt 0.21500 0.59000
vt -0.21500 0.59000
vt -0.21500 -0.21500
vt 0.21500 -0.21500
vt 0.21500 0.21500
vt -0.21500 0.21500
vt -0.21500 0.21500
vt 0.21500 0.21500
vt 0.21500 -0.21500
vt -0.21500 -0.21500
vt 0.00000 0.00000
vt 0.55000 0.00000
vt 0.55000 0.06000
vt 0.00000 0.06000
vt 0.00000 0.00000
vt 0.55000 0.00000
vt 0.55000 0.06000
vt 0.00000 0.06000
vt 0.00000 0.00000
vt 0.55000 0.00000
vt 0.55000 0.06000
vt 0.00000 0.06000
vt 0.00000 0.00000
vt 0.55000 0.00000
vt 0.55000 0.06000
vt 0.00000 0.06000
vt 0.00000 0.00000
vt 0.55000 0.00000
vt 0.55000 0.06000
vt 0.00000 0.06000
vt 0.00000 0.00000
vt 0.55000 0.00000
vt 0.55000 0.06000
vt 0.00000 0.06000
vt 0.00000 0.00000
vt 0.55000 0.00000
vt 0.55000 0.06000
vt 0.00000 0.06000
vt 0.00000 0.00000
vt 0.55000 0.00000
vt 0.55000 0.06000
vt 0.00000 0.06000
vt 0.00000 0.00000
vt 1.30000 0.00000
vt 1.30000 0.06000
vt 0.00000 0.06000
vt 0.00000 0.00000
vt 1.30000 0.00000
vt 1.30000 0.06000
vt 0.00000 0.06000
vt 0.00000 0.00000
vt 1.30000 0.00000
vt 1.30000 0.06000
vt 0.00000 0.06000
vt 0.00000 0.00000
vt 1.30000 0.00000
vt 1.30000 0.06000
vt 0.00000 0.06000
vt 0.00000 0.00000
vt 0.06000 0.00000
vt 0.00000 0.06000
vt 0.00000 0.00000
vt 0.06000 0.00000
vt 0.00000 0.06000
vt 0.00000 0.00000
vt 0.06000 0.00000
vt 0.00000 0.06000
vt 0.00000 0.00000
vt 0.06000 0.00000
vt 0.00000 0.06000
vt 0.00000 0.00000
vt 0.06000 0.00000
vt 0.00000 0.06000
vt 0.00000 0.00000
vt 0.06000 0.00000
vt 0.00000 0.06000
vt 0.00000 0.00000
vt 0.06000 0.00000
vt 0.00000 0.06000
vt 0.00000 0.00000
vt 0.06000 0.00000
vt 0.00000 0.06000
vt 0.00000 0.00000
vt 0.10771 0.00000
vt 0.10771 0.02500
vt 0.00000 0.02500
vt 0.10771 0.00000
vt 0.21542 0.00000
vt 0.21542 0.02500
vt 0.10771 0.02500
vt 0.21542 0.00000
vt 0.32314 0.00000
vt 0.32314 0.02500
vt 0.21542 0.02500
vt 0.32314 0.00000
vt 0.43085 0.00000
vt 0.43085 0.02500
vt 0.32314 0.02500
vt 0.43085 0.00000
vt 0.53856 0.00000
vt 0.53856 0.02500
vt 0.43085 0.02500
vt 0.53856 0.00000
vt 0.64627 0.00000
vt 0.64627 0.02500
vt 0.53856 0.02500
vt 0.64627 0.00000
vt 0.75398 0.00000
vt 0.75398 0.02500
vt 0.64627 0.02500
vt 0.75398 0.00000
vt 0.86169 0.00000
vt 0.86169 0.02500
vt 0.75398 0.02500
vt 0.86169 0.00000
vt 0.96941 0.00000
vt 0.96941 0.02500
vt 0.86169 0.02500
vt 0.96941 0.00000
vt 1.07712 0.00000
vt 1.07712 0.02500
vt 0.96941 0.02500
vt 1.07712 0.00000
vt 1.18483 0.00000
vt 1.18483 0.02500
vt 1.07712 0.02500
vt 1.18483 0.00000
vt 1.29254 0.00000
vt 1.29254 0.02500
vt 1.18483 0.02500
vt 1.29254 0.00000
vt 1.40025 0.00000
vt 1.40025 0.02500
vt 1.29254 0.02500
vt 1.40025 0.00000
vt 1.50796 0.00000
vt 1.50796 0.02500
vt 1.40025 0.02500
vt 0.00000 0.02500
vt 0.10771 0.02500
vt 0.10771 0.15000
vt 0.00000 0.15000
vt 0.10771 0.02500
vt 0.21542 0.02500
vt 0.21542 0.15000
vt 0.10771 0.15000
vt 0.21542 0.02500
vt 0.32314 0.02500
vt 0.32314 0.15000
vt 0.21542 0.15000
vt 0.32314 0.02500
vt 0.43085 0.02500
vt 0.43085 0.15000
vt 0.32314 0.15000
vt 0.43085 0.02500
vt 0.53856 0.02500
vt 0.53856 0.15000
vt 0.43085 0.15000
vt 0.53856 0.02500
vt 0.64627 0.02500
vt 0.64627 0.15000
vt 0.53856 0.15000
vt 0.64627 0.02500
vt 0.75398 0.02500
vt 0.75398 0.15000
vt 0.64627 0.15000
vt 0.75398 0.02500
vt 0.86169 0.02500
vt 0.86169 0.15000
vt 0.75398 0.15000
vt 0.86169 0.02500
vt 0.96941 0.02500
vt 0.96941 0.15000
vt 0.86169 0.15000
vt 0.96941 0.02500
vt 1.07712 0.02500
vt 1.07712 0.15000
vt 0.96941 0.15000
vt 1.07712 0.02500
vt 1.18483 0.02500
vt 1.18483 0.15000
vt 1.07712 0.15000
vt 1.18483 0.02500
vt 1.29254 0.02500
vt 1.29254 0.15000
vt 1.18483 0.15000
vt 1.29254 0.02500
vt 1.40025 0.02500
vt 1.40025 0.15000
vt 1.29254 0.15000
vt 1.40025 0.02500
vt 1.50796 0.02500
vt 1.50796 0.15000
vt 1.40025 0.15000
vt 0.24000 0.00000
vt 0.21623 0.10413
vt 0.14964 0.18764
vt 0.05341 0.23398
vt -0.05341 0.23398
vt -0.14964 0.18764
vt -0.21623 0.10413
vt -0.24000 0.00000
vt -0.21623 -0.10413
vt -0.14964 -0.18764
vt -0.05341 -0.23398
vt 0.05341 -0.23398
vt 0.14964 -0.18764
vt 0.21623 -0.10413
vt -10.12000 -0.52000
vt -9.88000 -0.52000
vt -9.88000 -0.28000
vt -10.12000 -0.28000
vt 9.88000 -0.52000
vt 10.12000 -0.52000
vt 10.12000 -0.28000
vt 9.88000 -0.28000
vt 0.58000 -10.12000
vt 0.82000 -10.12000
vt 0.82000 -9.88000
vt 0.58000 -9.88000
vt 0.58000 9.88000
vt 0.82000 9.88000
vt 0.82000 10.12000
vt 0.58000 10.12000
vt 0.58000 -0.52000
vt 0.82000 -0.52000
vt 0.82000 -0.28000
vt 0.58000 -0.28000
vt -0.82000 -0.52000
vt -0.58000 -0.52000
vt -0.58000 -0.28000
vt -0.82000 -0.28000
vn 1.00000 0.00000 0.00000
vn -1.00000 0.00000 0.00000
vn 0.00000 1.00000 0.00000
vn 0.00000 -1.00000 0.00000
vn 0.00000 0.00000 1.00000
vn 0.00000 0.00000 -1.00000
vn 1.00000 0.00000 0.00000
vn 0.80902 0.57863 0.10333
vn 0.80902 0.57863 0.10333
vn 1.00000 0.00000 0.00000
vn 0.80902 0.57863 0.10333
vn 0.30902 0.93625 0.16719
vn 0.30902 0.93625 0.16719
vn 0.80902 0.57863 0.10333
vn 0.30902 0.93625 0.16719
vn -0.30902 0.93625 0.16719
vn -0.30902 0.93625 0.16719
vn 0.30902 0.93625 0.16719
vn -0.30902 0.93625 0.16719
vn -0.80902 0.57863 0.10333
vn -0.80902 0.57863 0.10333
vn -0.30902 0.93625 0.16719
vn -0.80902 0.57863 0.10333
vn -1.00000 0.00000 0.00000
vn -1.00000 0.00000 0.00000
vn -0.80902 0.57863 0.10333
vn -1.00000 0.00000 0.00000
vn -0.80902 -0.57863 -0.10333
vn -0.80902 -0.57863 -0.10333
vn -1.00000 0.00000 0.00000
vn -0.80902 -0.57863 -0.10333
vn -0.30902 -0.93625 -0.16719
vn -0.30902 -0.93625 -0.16719
vn -0.80902 -0.57863 -0.10333
vn -0.30902 -0.93625 -0.16719
vn 0.30902 -0.93625 -0.16719
vn 0.30902 -0.93625 -0.16719
vn -0.30902 -0.93625 -0.16719
vn 0.30902 -0.93625 -0.16719
vn 0.80902 -0.57863 -0.10333
vn 0.80902 -0.57863 -0.10333
vn 0.30902 -0.93625 -0.16719
vn 0.80902 -0.57863 -0.10333
vn 1.00000 0.00000 0.00000
vn 1.00000 0.00000 0.00000
vn 0.80902 -0.57863 -0.10333
vn -0.00000 0.17579 -0.98443
vn 0.00000 -0.17579 0.98443
vn 1.00000 0.00000 0.00000
vn -1.00000 0.00000 0.00000
vn 0.00000 1.00000 0.00000
vn 0.00000 -1.00000 0.00000
vn 0.00000 0.00000 1.00000
vn 0.00000 0.00000 -1.00000
vn -0.00000 0.70711 0.70711
vn 0.00000 -0.70711 0.70711
vn 0.00000 0.70711 -0.70711
vn -0.00000 -0.70711 -0.70711
vn -0.70711 0.00000 -0.70711
vn 0.70711 -0.00000 -0.70711
vn -0.70711 -0.00000 0.70711
vn 0.70711 0.00000 0.70711
vn 0.70711 0.70711 -0.00000
vn -0.70711 0.70711 0.00000
vn 0.70711 -0.70711 0.00000
vn -0.70711 -0.70711 -0.00000
vn 0.57735 0.57735 0.57735
vn -0.57735 -0.57735 0.57735
vn -0.57735 0.57735 -0.57735
vn 0.57735 -0.57735 -0.57735
vn 0.57735 -0.57735 -0.57735
vn -0.57735 0.57735 -0.57735
vn -0.57735 -0.57735 0.57735
vn 0.57735 0.57735 0.57735
vn 0.11043 0.00000 -0.99388
vn 0.09950 0.04791 -0.99388
vn 0.09950 0.04791 -0.99388
vn 0.11043 0.00000 -0.99388
vn 0.09950 0.04791 -0.99388
vn 0.06885 0.08634 -0.99388
vn 0.06885 0.08634 -0.99388
vn 0.09950 0.04791 -0.99388
vn 0.06885 0.08634 -0.99388
vn 0.02457 0.10766 -0.99388
vn 0.02457 0.10766 -0.99388
vn 0.06885 0.08634 -0.99388
vn 0.02457 0.10766 -0.99388
vn -0.02457 0.10766 -0.99388
vn -0.02457 0.10766 -0.99388
vn 0.02457 0.10766 -0.99388
vn -0.02457 0.10766 -0.99388
vn -0.06885 0.08634 -0.99388
vn -0.06885 0.08634 -0.99388
vn -0.02457 0.10766 -0.99388
vn -0.06885 0.08634 -0.99388
vn -0.09950 0.04791 -0.99388
vn -0.09950 0.04791 -0.99388
vn -0.06885 0.08634 -0.99388
vn -0.09950 0.04791 -0.99388
vn -0.11043 0.00000 -0.99388
vn -0.11043 0.00000 -0.99388
vn -0.09950 0.04791 -0.99388
vn -0.11043 0.00000 -0.99388
vn -0.09950 -0.04791 -0.99388
vn -0.09950 -0.04791 -0.99388
vn -0.11043 0.00000 -0.99388
vn -0.09950 -0.04791 -0.99388
vn -0.06885 -0.08634 -0.99388
vn -0.06885 -0.08634 -0.99388
vn -0.09950 -0.04791 -0.99388
vn -0.06885 -0.08634 -0.99388
vn -0.02457 -0.10766 -0.99388
vn -0.02457 -0.10766 -0.99388
vn -0.06885 -0.08634 -0.99388
vn -0.02457 -0.10766 -0.99388
vn 0.02457 -0.10766 -0.99388
vn 0.02457 -0.10766 -0.99388
vn -0.02457 -0.10766 -0.99388
vn 0.02457 -0.10766 -0.99388
vn 0.06885 -0.08634 -0.99388
vn 0.06885 -0.08634 -0.99388
vn 0.02457 -0.10766 -0.99388
vn 0.06885 -0.08634 -0.99388
vn 0.09950 -0.04791 -0.99388
vn 0.09950 -0.04791 -0.99388
vn 0.06885 -0.08634 -0.99388
vn 0.09950 -0.04791 -0.99388
vn 0.11043 -0.00000 -0.99388
vn 0.11043 -0.00000 -0.99388
vn 0.09950 -0.04791 -0.99388
vn 0.99288 0.00000 -0.11915
vn 0.89455 0.43079 -0.11915
vn 0.89455 0.43079 -0.11915
vn 0.99288 0.00000 -0.11915
vn 0.89455 0.43079 -0.11915
vn 0.61905 0.77626 -0.11915
vn 0.61905 0.77626 -0.11915
vn 0.89455 0.43079 -0.11915
vn 0.61905 0.77626 -0.11915
vn 0.22094 0.96798 -0.11915
vn 0.22094 0.96798 -0.11915
vn 0.61905 0.77626 -0.11915
vn 0.22094 0.96798 -0.11915
vn -0.22094 0.96798 -0.11915
vn -0.22094 0.96798 -0.11915
vn 0.22094 0.96798 -0.11915
vn -0.22094 0.96798 -0.11915
vn -0.61905 0.77626 -0.11915
vn -0.61905 0.77626 -0.11915
vn -0.22094 0.96798 -0.11915
vn -0.61905 0.77626 -0.11915
vn -0.89455 0.43079 -0.11915
vn -0.89455 0.43079 -0.11915
vn -0.61905 0.77626 -0.11915
vn -0.89455 0.43079 -0.11915
vn -0.99288 0.00000 -0.11915
vn -0.99288 0.00000 -0.11915
vn -0.89455 0.43079 -0.11915
vn -0.99288 0.00000 -0.11915
vn -0.89455 -0.43079 -0.11915
vn -0.89455 -0.43079 -0.11915
vn -0.99288 0.00000 -0.11915
vn -0.89455 -0.43079 -0.11915
vn -0.61905 -0.77626 -0.11915
vn -0.61905 -0.77626 -0.11915
vn -0.89455 -0.43079 -0.11915
vn -0.61905 -0.77626 -0.11915
vn -0.22094 -0.96798 -0.11915
vn -0.22094 -0.96798 -0.11915
vn -0.61905 -0.77626 -0.11915
vn -0.22094 -0.96798 -0.11915
vn 0.22094 -0.96798 -0.11915
vn 0.22094 -0.96798 -0.11915
vn -0.22094 -0.96798 -0.11915
vn 0.22094 -0.96798 -0.11915
vn 0.61905 -0.77626 -0.11915
vn 0.61905 -0.77626 -0.11915
vn 0.22094 -0.96798 -0.11915
vn 0.61905 -0.77626 -0.11915
vn 0.89455 -0.43079 -0.11915
vn 0.89455 -0.43079 -0.11915
vn 0.61905 -0.77626 -0.11915
vn 0.89455 -0.43079 -0.11915
vn 0.99288 -0.00000 -0.11915
vn 0.99288 -0.00000 -0.11915
vn 0.89455 -0.43079 -0.11915
vn 0.00000 0.00000 1.00000
vn 1.00000 0.00000 0.00000
vn -1.00000 0.00000 0.00000
vn 0.00000 1.00000 0.00000
vn 0.00000 -1.00000 0.00000
vn 0.00000 0.00000 1.00000
vn 0.00000 0.00000 -1.00000
usemtl steel_dark
f 1/1/1 2/2/1 3/3/1 4/4/1
f 5/5/2 6/6/2 7/7/2 8/8/2
f 9/9/3 10/10/3 11/11/3 12/12/3
f 13/13/4 14/14/4 15/15/4 16/16/4
f 17/17/5 18/18/5 19/19/5 20/20/5
f 21/21/6 22/22/6 23/23/6 24/24/6
f 25/25/7 26/26/8 27/27/9 28/28/10
f 29/29/11 30/30/12 31/31/13 32/32/14
f 33/33/15 34/34/16 35/35/17 36/36/18
f 37/37/19 38/38/20 39/39/21 40/40/22
f 41/41/23 42/42/24 43/43/25 44/44/26
f 45/45/27 46/46/28 47/47/29 48/48/30
f 49/49/31 50/50/32 51/51/33 52/52/34
f 53/53/35 54/54/36 55/55/37 56/56/38
f 57/57/39 58/58/40 59/59/41 60/60/42
f 61/61/43 62/62/44 63/63/45 64/64/46
f 65/65/47 66/66/47 67/67/47 68/68/47 69/69/47 70/70/47 71/71/47 72/72/47 73/73/47 74/74/47
f 75/75/48 76/76/48 77/77/48 78/78/48 79/79/48 80/80/48 81/81/48 82/82/48 83/83/48 84/84/48
usemtl paint_white
f 85/85/49 86/86/49 87/87/49 88/88/49
f 89/89/50 90/90/50 91/91/50 92/92/50
f 93/93/51 94/94/51 95/95/51 96/96/51
f 97/97/52 98/98/52 99/99/52 100/100/52
f 101/101/53 102/102/53 103/103/53 104/104/53
f 105/105/54 106/106/54 107/107/54 108/108/54
f 109/109/55 110/110/55 111/111/55 112/112/55
f 113/113/56 114/114/56 115/115/56 116/116/56
f 117/117/57 118/118/57 119/119/57 120/120/57
f 121/121/58 122/122/58 123/123/58 124/124/58
f 125/125/59 126/126/59 127/127/59 128/128/59
f 129/129/60 130/130/60 131/131/60 132/132/60
f 133/133/61 134/134/61 135/135/61 136/136/61
f 137/137/62 138/138/62 139/139/62 140/140/62
f 141/141/63 142/142/63 143/143/63 144/144/63
f 145/145/64 146/146/64 147/147/64 148/148/64
f 149/149/65 150/150/65 151/151/65 152/152/65
f 153/153/66 154/154/66 155/155/66 156/156/66
f 157/157/67 158/158/67 159/159/67
f 160/160/68 161/161/68 162/162/68
f 163/163/69 164/164/69 165/165/69
f 166/166/70 167/167/70 168/168/70
f 169/169/71 170/170/71 171/171/71
f 172/172/72 173/173/72 174/174/72
f 175/175/73 176/176/73 177/177/73
f 178/178/74 179/179/74 180/180/74
usemtl glass_dark
f 181/181/75 182/182/76 183/183/77 184/184/78
f 185/185/79 186/186/80 187/187/81 188/188/82
f 189/189/83 190/190/84 191/191/85 192/192/86
f 193/193/87 194/194/88 195/195/89 196/196/90
f 197/197/91 198/198/92 199/199/93 200/200/94
f 201/201/95 202/202/96 203/203/97 204/204/98
f 205/205/99 206/206/100 207/207/101 208/208/102
f 209/209/103 210/210/104 211/211/105 212/212/106
f 213/213/107 214/214/108 215/215/109 216/216/110
f 217/217/111 218/218/112 219/219/113 220/220/114
f 221/221/115 222/222/116 223/223/117 224/224/118
f 225/225/119 226/226/120 227/227/121 228/228/122
f 229/229/123 230/230/124 231/231/125 232/232/126
f 233/233/127 234/234/128 235/235/129 236/236/130
f 237/237/131 238/238/132 239/239/133 240/240/134
f 241/241/135 242/242/136 243/243/137 244/244/138
f 245/245/139 246/246/140 247/247/141 248/248/142
f 249/249/143 250/250/144 251/251/145 252/252/146
f 253/253/147 254/254/148 255/255/149 256/256/150
f 257/257/151 258/258/152 259/259/153 260/260/154
f 261/261/155 262/262/156 263/263/157 264/264/158
f 265/265/159 266/266/160 267/267/161 268/268/162
f 269/269/163 270/270/164 271/271/165 272/272/166
f 273/273/167 274/274/168 275/275/169 276/276/170
f 277/277/171 278/278/172 279/279/173 280/280/174
f 281/281/175 282/282/176 283/283/177 284/284/178
f 285/285/179 286/286/180 287/287/181 288/288/182
f 289/289/183 290/290/184 291/291/185 292/292/186
f 293/293/187 294/294/187 295/295/187 296/296/187 297/297/187 298/298/187 299/299/187 300/300/187 301/301/187 302/302/187 303/303/187 304/304/187 305/305/187 306/306/187
usemtl warn_red
f 307/307/188 308/308/188 309/309/188 310/310/188
f 311/311/189 312/312/189 313/313/189 314/314/189
f 315/315/190 316/316/190 317/317/190 318/318/190
f 319/319/191 320/320/191 321/321/191 322/322/191
f 323/323/192 324/324/192 325/325/192 326/326/192
f 327/327/193 328/328/193 329/329/193 330/330/193
