# generated by meshlib
mtllib tunnel_portal.mtl
o tunnel_portal
v -2.70000 0.40000 -0.25000
v -2.67252 0.78425 -0.25000
v -3.11794 0.84829 -0.25000
v -3.15000 0.40000 -0.25000
v -2.70000 0.40000 0.25000
v -2.67252 0.78425 0.25000
v -3.11794 0.84829 0.25000
v -3.15000 0.40000 0.25000
v -2.70000 0.40000 -0.25000
v -2.67252 0.78425 -0.25000
v -2.67252 0.78425 0.25000
v -2.70000 0.40000 0.25000
v -3.15000 0.40000 0.25000
v -3.11794 0.84829 0.25000
v -3.11794 0.84829 -0.25000
v -3.15000 0.40000 -0.25000
v -2.67252 0.78425 -0.25000
v -2.59063 1.16068 -0.25000
v -3.02240 1.28746 -0.25000
v -3.11794 0.84829 -0.25000
v -2.67252 0.78425 0.25000
v -2.59063 1.16068 0.25000
v -3.02240 1.28746 0.25000
v -3.11794 0.84829 0.25000
v -2.67252 0.78425 -0.25000
v -2.59063 1.16068 -0.25000
v -2.59063 1.16068 0.25000
v -2.67252 0.78425 0.25000
v -3.11794 0.84829 0.25000
v -3.02240 1.28746 0.25000
v -3.02240 1.28746 -0.25000
v -3.11794 0.84829 -0.25000
v -2.59063 1.16068 -0.25000
v -2.45601 1.52162 -0.25000
v -2.86534 1.70856 -0.25000
v -3.02240 1.28746 -0.25000
v -2.59063 1.16068 0.25000
v -2.45601 1.52162 0.25000
v -2.86534 1.70856 0.25000
v -3.02240 1.28746 0.25000
v -2.59063 1.16068 -0.25000
v -2.45601 1.52162 -0.25000
v -2.45601 1.52162 0.25000
v -2.59063 1.16068 0.25000
v -3.02240 1.28746 0.25000
v -2.86534 1.70856 0.25000
v -2.86534 1.70856 -0.25000
v -3.02240 1.28746 -0.25000
v -2.45601 1.52162 -0.25000
v -2.27138 1.85973 -0.25000
v -2.64995 2.10302 -0.25000
v -2.86534 1.70856 -0.25000
v -2.45601 1.52162 0.25000
v -2.27138 1.85973 0.25000
v -2.64995 2.10302 0.25000
v -2.86534 1.70856 0.25000
v -2.45601 1.52162 -0.25000
v -2.27138 1.85973 -0.25000
v -2.27138 1.85973 0.25000
v -2.45601 1.52162 0.25000
v -2.86534 1.70856 0.25000
v -2.64995 2.10302 0.25000
v -2.64995 2.10302 -0.25000
v -2.86534 1.70856 -0.25000
v -2.27138 1.85973 -0.25000
v -2.04052 2.16812 -0.25000
v -2.38061 2.46281 -0.25000
v -2.64995 2.10302 -0.25000
v -2.27138 1.85973 0.25000
v -2.04052 2.16812 0.25000
v -2.38061 2.46281 0.25000
v -2.64995 2.10302 0.25000
v -2.27138 1.85973 -0.25000
v -2.04052 2.16812 -0.25000
v -2.04052 2.16812 0.25000
v -2.27138 1.85973 0.25000
v -2.64995 2.10302 0.25000
v -2.38061 2.46281 0.25000
v -2.38061 2.46281 -0.25000
v -2.64995 2.10302 -0.25000
v -2.04052 2.16812 -0.25000
v -1.76812 2.44052 -0.25000
v -2.06281 2.78061 -0.25000
v -2.38061 2.46281 -0.25000
v -2.04052 2.16812 0.25000
v -1.76812 2.44052 0.25000
v -2.06281 2.78061 0.25000
v -2.38061 2.46281 0.25000
v -2.04052 2.16812 -0.25000
v -1.76812 2.44052 -0.25000
v -1.76812 2.44052 0.25000
v -2.04052 2.16812 0.25000
v -2.38061 2.46281 0.25000
v -2.06281 2.78061 0.25000
v -2.06281 2.78061 -0.25000
v -2.38061 2.46281 -0.25000
v -1.76812 2.44052 -0.25000
v -1.45973 2.67138 -0.25000
v -1.70302 3.04995 -0.25000
v -2.06281 2.78061 -0.25000
v -1.76812 2.44052 0.25000
v -1.45973 2.67138 0.25000
v -1.70302 3.04995 0.25000
v -2.06281 2.78061 0.25000
v -1.76812 2.44052 -0.25000
v -1.45973 2.67138 -0.25000
v -1.45973 2.67138 0.25000
v -1.76812 2.44052 0.25000
v -2.06281 2.78061 0.25000
v -1.70302 3.04995 0.25000
v -1.70302 3.04995 -0.25000
v -2.06281 2.78061 -0.25000
v -1.45973 2.67138 -0.25000
v -1.12162 2.85601 -0.25000
v -1.30856 3.26534 -0.25000
v -1.70302 3.04995 -0.25000
v -1.45973 2.67138 0.25000
v -1.12162 2.85601 0.25000
v -1.30856 3.26534 0.25000
v -1.70302 3.04995 0.25000
v -1.45973 2.67138 -0.25000
v -1.12162 2.85601 -0.25000
v -1.12162 2.85601 0.25000
v -1.45973 2.67138 0.25000
v -1.70302 3.04995 0.25000
v -1.30856 3.26534 0.25000
v -1.30856 3.26534 -0.25000
v -1.70302 3.04995 -0.25000
v -1.12162 2.85601 -0.25000
v -0.76068 2.99063 -0.25000
v -0.88746 3.42240 -0.25000
v -1.30856 3.26534 -0.25000
v -1.12162 2.85601 0.25000
v -0.76068 2.99063 0.25000
v -0.88746 3.42240 0.25000
v -1.30856 3.26534 0.25000
v -1.12162 2.85601 -0.25000
v -0.76068 2.99063 -0.25000
v -0.76068 2.99063 0.25000
v -1.12162 2.85601 0.25000
v -1.30856 3.26534 0.25000
v -0.88746 3.42240 0.25000
v -0.88746 3.42240 -0.25000
v -1.30856 3.26534 -0.25000
v -0.76068 2.99063 -0.25000
v -0.38425 3.07252 -0.25000
v -0.44829 3.51794 -0.25000
v -0.88746 3.42240 -0.25000
v -0.76068 2.99063 0.25000
v -0.38425 3.07252 0.25000
v -0.44829 3.51794 0.25000
v -0.88746 3.42240 0.25000
v -0.76068 2.99063 -0.25000
v -0.38425 3.07252 -0.25000
v -0.38425 3.07252 0.25000
v -0.76068 2.99063 0.25000
v -0.88746 3.42240 0.25000
v -0.44829 3.51794 0.25000
v -0.44829 3.51794 -0.25000
v -0.88746 3.42240 -0.25000
v -0.38425 3.07252 -0.25000
v -0.00000 3.10000 -0.25000
v -0.00000 3.55000 -0.25000
v -0.44829 3.51794 -0.25000
v -0.38425 3.07252 0.25000
v -0.00000 3.10000 0.25000
v -0.00000 3.55000 0.25000
v -0.44829 3.51794 0.25000
v -0.38425 3.07252 -0.25000
v -0.00000 3.10000 -0.25000
v -0.00000 3.10000 0.25000
v -0.38425 3.07252 0.25000
v -0.44829 3.51794 0.25000
v -0.00000 3.55000 0.25000
v -0.00000 3.55000 -0.25000
v -0.44829 3.51794 -0.25000
v -0.00000 3.10000 -0.25000
v 0.38425 3.07252 -0.25000
v 0.44829 3.51794 -0.25000
v -0.00000 3.55000 -0.25000
v -0.00000 3.10000 0.25000
v 0.38425 3.07252 0.25000
v 0.44829 3.51794 0.25000
v -0.00000 3.55000 0.25000
v -0.00000 3.10000 -0.25000
v 0.38425 3.07252 -0.25000
v 0.38425 3.07252 0.25000
v -0.00000 3.10000 0.25000
v -0.00000 3.55000 0.25000
v 0.44829 3.51794 0.25000
v 0.44829 3.51794 -0.25000
v -0.00000 3.55000 -0.25000
v 0.38425 3.07252 -0.25000
v 0.76068 2.99063 -0.25000
v 0.88746 3.42240 -0.25000
v 0.44829 3.51794 -0.25000
v 0.38425 3.07252 0.25000
v 0.76068 2.99063 0.25000
v 0.88746 3.42240 0.25000
v 0.44829 3.51794 0.25000
v 0.38425 3.07252 -0.25000
v 0.76068 2.99063 -0.25000
v 0.76068 2.99063 0.25000
v 0.38425 3.07252 0.25000
v 0.44829 3.51794 0.25000
v 0.88746 3.42240 0.25000
v 0.88746 3.42240 -0.25000
v 0.44829 3.51794 -0.25000
v 0.76068 2.99063 -0.25000
v 1.12162 2.85601 -0.25000
v 1.30856 3.26534 -0.25000
v 0.88746 3.42240 -0.25000
v 0.76068 2.99063 0.25000
v 1.12162 2.85601 0.25000
v 1.30856 3.26534 0.25000
v 0.88746 3.42240 0.25000
v 0.76068 2.99063 -0.25000
v 1.12162 2.85601 -0.25000
v 1.12162 2.85601 0.25000
v 0.76068 2.99063 0.25000
v 0.88746 3.42240 0.25000
v 1.30856 3.26534 0.25000
v 1.30856 3.26534 -0.25000
v 0.88746 3.42240 -0.25000
v 1.12162 2.85601 -0.25000
v 1.45973 2.67138 -0.25000
v 1.70302 3.04995 -0.25000
v 1.30856 3.26534 -0.25000
v 1.12162 2.85601 0.25000
v 1.45973 2.67138 0.25000
v 1.70302 3.04995 0.25000
v 1.30856 3.26534 0.25000
v 1.12162 2.85601 -0.25000
v 1.45973 2.67138 -0.25000
v 1.45973 2.67138 0.25000
v 1.12162 2.85601 0.25000
v 1.30856 3.26534 0.25000
v 1.70302 3.04995 0.25000
v 1.70302 3.04995 -0.25000
v 1.30856 3.26534 -0.25000
v 1.45973 2.67138 -0.25000
v 1.76812 2.44052 -0.25000
v 2.06281 2.78061 -0.25000
v 1.70302 3.04995 -0.25000
v 1.45973 2.67138 0.25000
v 1.76812 2.44052 0.25000
v 2.06281 2.78061 0.25000
v 1.70302 3.04995 0.25000
v 1.45973 2.67138 -0.25000
v 1.76812 2.44052 -0.25000
v 1.76812 2.44052 0.25000
v 1.45973 2.67138 0.25000
v 1.70302 3.04995 0.25000
v 2.06281 2.78061 0.25000
v 2.06281 2.78061 -0.25000
v 1.70302 3.04995 -0.25000
v 1.76812 2.44052 -0.25000
v 2.04052 2.16812 -0.25000
v 2.38061 2.46281 -0.25000
v 2.06281 2.78061 -0.25000
v 1.76812 2.44052 0.25000
v 2.04052 2.16812 0.25000
v 2.38061 2.46281 0.25000
v 2.06281 2.78061 0.25000
v 1.76812 2.44052 -0.25000
v 2.04052 2.16812 -0.25000
v 2.04052 2.16812 0.25000
v 1.76812 2.44052 0.25000
v 2.06281 2.78061 0.25000
v 2.38061 2.46281 0.25000
v 2.38061 2.46281 -0.25000
v 2.06281 2.78061 -0.25000
v 2.04052 2.16812 -0.25000
v 2.27138 1.85973 -0.25000
v 2.64995 2.10302 -0.25000
v 2.38061 2.46281 -0.25000
v 2.04052 2.16812 0.25000
v 2.27138 1.85973 0.25000
v 2.64995 2.10302 0.25000
v 2.38061 2.46281 0.25000
v 2.04052 2.16812 -0.25000
v 2.27138 1.85973 -0.25000
v 2.27138 1.85973 0.25000
v 2.04052 2.16812 0.25000
v 2.38061 2.46281 0.25000
v 2.64995 2.10302 0.25000
v 2.64995 2.10302 -0.25000
v 2.38061 2.46281 -0.25000
v 2.27138 1.85973 -0.25000
v 2.45601 1.52162 -0.25000
v 2.86534 1.70856 -0.25000
v 2.64995 2.10302 -0.25000
v 2.27138 1.85973 0.25000
v 2.45601 1.52162 0.25000
v 2.86534 1.70856 0.25000
v 2.64995 2.10302 0.25000
v 2.27138 1.85973 -0.25000
v 2.45601 1.52162 -0.25000
v 2.45601 1.52162 0.25000
v 2.27138 1.85973 0.25000
v 2.64995 2.10302 0.25000
v 2.86534 1.70856 0.25000
v 2.86534 1.70856 -0.25000
v 2.64995 2.10302 -0.25000
v 2.45601 1.52162 -0.25000
v 2.59063 1.16068 -0.25000
v 3.02240 1.28746 -0.25000
v 2.86534 1.70856 -0.25000
v 2.45601 1.52162 0.25000
v 2.59063 1.16068 0.25000
v 3.02240 1.28746 0.25000
v 2.86534 1.70856 0.25000
v 2.45601 1.52162 -0.25000
v 2.59063 1.16068 -0.25000
v 2.59063 1.16068 0.25000
v 2.45601 1.52162 0.25000
v 2.86534 1.70856 0.25000
v 3.02240 1.28746 0.25000
v 3.02240 1.28746 -0.25000
v 2.86534 1.70856 -0.25000
v 2.59063 1.16068 -0.25000
v 2.67252 0.78425 -0.25000
v 3.11794 0.84829 -0.25000
v 3.02240 1.28746 -0.25000
v 2.59063 1.16068 0.25000
v 2.67252 0.78425 0.25000
v 3.11794 0.84829 0.25000
v 3.02240 1.28746 0.25000
v 2.59063 1.16068 -0.25000
v 2.67252 0.78425 -0.25000
v 2.67252 0.78425 0.25000
v 2.59063 1.16068 0.25000
v 3.02240 1.28746 0.25000
v 3.11794 0.84829 0.25000
v 3.11794 0.84829 -0.25000
v 3.02240 1.28746 -0.25000
v 2.67252 0.78425 -0.25000
v 2.70000 0.40000 -0.25000
v 3.15000 0.40000 -0.25000
v 3.11794 0.84829 -0.25000
v 2.67252 0.78425 0.25000
v 2.70000 0.40000 0.25000
v 3.15000 0.40000 0.25000
v 3.11794 0.84829 0.25000
v 2.67252 0.78425 -0.25000
v 2.70000 0.40000 -0.25000
v 2.70000 0.40000 0.25000
v 2.67252 0.78425 0.25000
v 3.11794 0.84829 0.25000
v 3.15000 0.40000 0.25000
v 3.15000 0.40000 -0.25000
v 3.11794 0.84829 -0.25000
v -2.70000 -1.45000 0.25000
v -2.70000 -1.45000 -0.25000
v -2.70000 0.40000 -0.25000
v -2.70000 0.40000 0.25000
v -3.15000 -1.45000 -0.25000
v -3.15000 -1.45000 0.25000
v -3.15000 0.40000 0.25000
v -3.15000 0.40000 -0.25000
v -3.15000 0.40000 0.25000
v -2.70000 0.40000 0.25000
v -2.70000 0.40000 -0.25000
v -3.15000 0.40000 -0.25000
v -3.15000 -1.45000 -0.25000
v -2.70000 -1.45000 -0.25000
v -2.70000 -1.45000 0.25000
v -3.15000 -1.45000 0.25000
v -3.15000 -1.45000 0.25000
v -2.70000 -1.45000 0.25000
v -2.70000 0.40000 0.25000
v -3.15000 0.40000 0.25000
v -2.70000 -1.45000 -0.25000
v -3.15000 -1.45000 -0.25000
v -3.15000 0.40000 -0.25000
v -2.70000 0.40000 -0.25000
v 3.15000 -1.45000 0.25000
v 3.15000 -1.45000 -0.25000
v 3.15000 0.40000 -0.25000
v 3.15000 0.40000 0.25000
v 2.70000 -1.45000 -0.25000
v 2.70000 -1.45000 0.25000
v 2.70000 0.40000 0.25000
v 2.70000 0.40000 -0.25000
v 2.70000 0.40000 0.25000
v 3.15000 0.40000 0.25000
v 3.15000 0.40000 -0.25000
v 2.70000 0.40000 -0.25000
v 2.70000 -1.45000 -0.25000
v 3.15000 -1.45000 -0.25000
v 3.15000 -1.45000 0.25000
v 2.70000 -1.45000 0.25000
v 2.70000 -1.45000 0.25000
v 3.15000 -1.45000 0.25000
v 3.15000 0.40000 0.25000
v 2.70000 0.40000 0.25000
v 3.15000 -1.45000 -0.25000
v 2.70000 -1.45000 -0.25000
v 2.70000 0.40000 -0.25000
v 3.15000 0.40000 -0.25000
v -2.71871 0.57197 0.27000
v -2.71871 0.57197 0.25000
v -2.71871 0.93197 0.25000
v -2.71871 0.93197 0.27000
v -3.07871 0.57197 0.25000
v -3.07871 0.57197 0.27000
v -3.07871 0.93197 0.27000
v -3.07871 0.93197 0.25000
v -3.07871 0.93197 0.27000
v -2.71871 0.93197 0.27000
v -2.71871 0.93197 0.25000
v -3.07871 0.93197 0.25000
v -3.07871 0.57197 0.25000
v -2.71871 0.57197 0.25000
v -2.71871 0.57197 0.27000
v -3.07871 0.57197 0.27000
v -3.07871 0.57197 0.27000
v -2.71871 0.57197 0.27000
v -2.71871 0.93197 0.27000
v -3.07871 0.93197 0.27000
v -2.71871 0.57197 0.25000
v -3.07871 0.57197 0.25000
v -3.07871 0.93197 0.25000
v -2.71871 0.93197 0.25000
v -2.55025 1.25545 0.27000
v -2.55025 1.25545 0.25000
v -2.55025 1.61545 0.25000
v -2.55025 1.61545 0.27000
v -2.91025 1.25545 0.25000
v -2.91025 1.25545 0.27000
v -2.91025 1.61545 0.27000
v -2.91025 1.61545 0.25000
v -2.91025 1.61545 0.27000
v -2.55025 1.61545 0.27000
v -2.55025 1.61545 0.25000
v -2.91025 1.61545 0.25000
v -2.91025 1.25545 0.25000
v -2.55025 1.25545 0.25000
v -2.55025 1.25545 0.27000
v -2.91025 1.25545 0.27000
v -2.91025 1.25545 0.27000
v -2.55025 1.25545 0.27000
v -2.55025 1.61545 0.27000
v -2.91025 1.61545 0.27000
v -2.55025 1.25545 0.25000
v -2.91025 1.25545 0.25000
v -2.91025 1.61545 0.25000
v -2.55025 1.61545 0.25000
v -2.22311 1.87875 0.27000
v -2.22311 1.87875 0.25000
v -2.22311 2.23875 0.25000
v -2.22311 2.23875 0.27000
v -2.58311 1.87875 0.25000
v -2.58311 1.87875 0.27000
v -2.58311 2.23875 0.27000
v -2.58311 2.23875 0.25000
v -2.58311 2.23875 0.27000
v -2.22311 2.23875 0.27000
v -2.22311 2.23875 0.25000
v -2.58311 2.23875 0.25000
v -2.58311 1.87875 0.25000
v -2.22311 1.87875 0.25000
v -2.22311 1.87875 0.27000
v -2.58311 1.87875 0.27000
v -2.58311 1.87875 0.27000
v -2.22311 1.87875 0.27000
v -2.22311 2.23875 0.27000
v -2.58311 2.23875 0.27000
v -2.22311 1.87875 0.25000
v -2.58311 1.87875 0.25000
v -2.58311 2.23875 0.25000
v -2.22311 2.23875 0.25000
v -1.75632 2.40565 0.27000
v -1.75632 2.40565 0.25000
v -1.75632 2.76565 0.25000
v -1.75632 2.76565 0.27000
v -2.11632 2.40565 0.25000
v -2.11632 2.40565 0.27000
v -2.11632 2.76565 0.27000
v -2.11632 2.76565 0.25000
v -2.11632 2.76565 0.27000
v -1.75632 2.76565 0.27000
v -1.75632 2.76565 0.25000
v -2.11632 2.76565 0.25000
v -2.11632 2.40565 0.25000
v -1.75632 2.40565 0.25000
v -1.75632 2.40565 0.27000
v -2.11632 2.40565 0.27000
v -2.11632 2.40565 0.27000
v -1.75632 2.40565 0.27000
v -1.75632 2.76565 0.27000
v -2.11632 2.76565 0.27000
v -1.75632 2.40565 0.25000
v -2.11632 2.40565 0.25000
v -2.11632 2.76565 0.25000
v -1.75632 2.76565 0.25000
v -1.17699 2.80553 0.27000
v -1.17699 2.80553 0.25000
v -1.17699 3.16553 0.25000
v -1.17699 3.16553 0.27000
v -1.53699 2.80553 0.25000
v -1.53699 2.80553 0.27000
v -1.53699 3.16553 0.27000
v -1.53699 3.16553 0.25000
v -1.53699 3.16553 0.27000
v -1.17699 3.16553 0.27000
v -1.17699 3.16553 0.25000
v -1.53699 3.16553 0.25000
v -1.53699 2.80553 0.25000
v -1.17699 2.80553 0.25000
v -1.17699 2.80553 0.27000
v -1.53699 2.80553 0.27000
v -1.53699 2.80553 0.27000
v -1.17699 2.80553 0.27000
v -1.17699 3.16553 0.27000
v -1.53699 3.16553 0.27000
v -1.17699 2.80553 0.25000
v -1.53699 2.80553 0.25000
v -1.53699 3.16553 0.25000
v -1.17699 3.16553 0.25000
v -0.51880 3.05515 0.27000
v -0.51880 3.05515 0.25000
v -0.51880 3.41515 0.25000
v -0.51880 3.41515 0.27000
v -0.87880 3.05515 0.25000
v -0.87880 3.05515 0.27000
v -0.87880 3.41515 0.27000
v -0.87880 3.41515 0.25000
v -0.87880 3.41515 0.27000
v -0.51880 3.41515 0.27000
v -0.51880 3.41515 0.25000
v -0.87880 3.41515 0.25000
v -0.87880 3.05515 0.25000
v -0.51880 3.05515 0.25000
v -0.51880 3.05515 0.27000
v -0.87880 3.05515 0.27000
v -0.87880 3.05515 0.27000
v -0.51880 3.05515 0.27000
v -0.51880 3.41515 0.27000
v -0.87880 3.41515 0.27000
v -0.51880 3.05515 0.25000
v -0.87880 3.05515 0.25000
v -0.87880 3.41515 0.25000
v -0.51880 3.41515 0.25000
v 0.18000 3.14000 0.27000
v 0.18000 3.14000 0.25000
v 0.18000 3.50000 0.25000
v 0.18000 3.50000 0.27000
v -0.18000 3.14000 0.25000
v -0.18000 3.14000 0.27000
v -0.18000 3.50000 0.27000
v -0.18000 3.50000 0.25000
v -0.18000 3.50000 0.27000
v 0.18000 3.50000 0.27000
v 0.18000 3.50000 0.25000
v -0.18000 3.50000 0.25000
v -0.18000 3.14000 0.25000
v 0.18000 3.14000 0.25000
v 0.18000 3.14000 0.27000
v -0.18000 3.14000 0.27000
v -0.18000 3.14000 0.27000
v 0.18000 3.14000 0.27000
v 0.18000 3.50000 0.27000
v -0.18000 3.50000 0.27000
v 0.18000 3.14000 0.25000
v -0.18000 3.14000 0.25000
v -0.18000 3.50000 0.25000
v 0.18000 3.50000 0.25000
v 0.87880 3.05515 0.27000
v 0.87880 3.05515 0.25000
v 0.87880 3.41515 0.25000
v 0.87880 3.41515 0.27000
v 0.51880 3.05515 0.25000
v 0.51880 3.05515 0.27000
v 0.51880 3.41515 0.27000
v 0.51880 3.41515 0.25000
v 0.51880 3.41515 0.27000
v 0.87880 3.41515 0.27000
v 0.87880 3.41515 0.25000
v 0.51880 3.41515 0.25000
v 0.51880 3.05515 0.25000
v 0.87880 3.05515 0.25000
v 0.87880 3.05515 0.27000
v 0.51880 3.05515 0.27000
v 0.51880 3.05515 0.27000
v 0.87880 3.05515 0.27000
v 0.87880 3.41515 0.27000
v 0.51880 3.41515 0.27000
v 0.87880 3.05515 0.25000
v 0.51880 3.05515 0.25000
v 0.51880 3.41515 0.25000
v 0.87880 3.41515 0.25000
v 1.53699 2.80553 0.27000
v 1.53699 2.80553 0.25000
v 1.53699 3.16553 0.25000
v 1.53699 3.16553 0.27000
v 1.17699 2.80553 0.25000
v 1.17699 2.80553 0.27000
v 1.17699 3.16553 0.27000
v 1.17699 3.16553 0.25000
v 1.17699 3.16553 0.27000
v 1.53699 3.16553 0.27000
v 1.53699 3.16553 0.25000
v 1.17699 3.16553 0.25000
v 1.17699 2.80553 0.25000
v 1.53699 2.80553 0.25000
v 1.53699 2.80553 0.27000
v 1.17699 2.80553 0.27000
v 1.17699 2.80553 0.27000
v 1.53699 2.80553 0.27000
v 1.53699 3.16553 0.27000
v 1.17699 3.16553 0.27000
v 1.53699 2.80553 0.25000
v 1.17699 2.80553 0.25000
v 1.17699 3.16553 0.25000
v 1.53699 3.16553 0.25000
v 2.11632 2.40565 0.27000
v 2.11632 2.40565 0.25000
v 2.11632 2.76565 0.25000
v 2.11632 2.76565 0.27000
v 1.75632 2.40565 0.25000
v 1.75632 2.40565 0.27000
v 1.75632 2.76565 0.27000
v 1.75632 2.76565 0.25000
v 1.75632 2.76565 0.27000
v 2.11632 2.76565 0.27000
v 2.11632 2.76565 0.25000
v 1.75632 2.76565 0.25000
v 1.75632 2.40565 0.25000
v 2.11632 2.40565 0.25000
v 2.11632 2.40565 0.27000
v 1.75632 2.40565 0.27000
v 1.75632 2.40565 0.27000
v 2.11632 2.40565 0.27000
v 2.11632 2.76565 0.27000
v 1.75632 2.76565 0.27000
v 2.11632 2.40565 0.25000
v 1.75632 2.40565 0.25000
v 1.75632 2.76565 0.25000
v 2.11632 2.76565 0.25000
v 2.58311 1.87875 0.27000
v 2.58311 1.87875 0.25000
v 2.58311 2.23875 0.25000
v 2.58311 2.23875 0.27000
v 2.22311 1.87875 0.25000
v 2.22311 1.87875 0.27000
v 2.22311 2.23875 0.27000
v 2.22311 2.23875 0.25000
v 2.22311 2.23875 0.27000
v 2.58311 2.23875 0.27000
v 2.58311 2.23875 0.25000
v 2.22311 2.23875 0.25000
v 2.22311 1.87875 0.25000
v 2.58311 1.87875 0.25000
v 2.58311 1.87875 0.27000
v 2.22311 1.87875 0.27000
v 2.22311 1.87875 0.27000
v 2.58311 1.87875 0.27000
v 2.58311 2.23875 0.27000
v 2.22311 2.23875 0.27000
v 2.58311 1.87875 0.25000
v 2.22311 1.87875 0.25000
v 2.22311 2.23875 0.25000
v 2.58311 2.23875 0.25000
v 2.91025 1.25545 0.27000
v 2.91025 1.25545 0.25000
v 2.91025 1.61545 0.25000
v 2.91025 1.61545 0.27000
v 2.55025 1.25545 0.25000
v 2.55025 1.25545 0.27000
v 2.55025 1.61545 0.27000
v 2.55025 1.61545 0.25000
v 2.55025 1.61545 0.27000
v 2.91025 1.61545 0.27000
v 2.91025 1.61545 0.25000
v 2.55025 1.61545 0.25000
v 2.55025 1.25545 0.25000
v 2.91025 1.25545 0.25000
v 2.91025 1.25545 0.27000
v 2.55025 1.25545 0.27000
v 2.55025 1.25545 0.27000
v 2.91025 1.25545 0.27000
v 2.91025 1.61545 0.27000
v 2.55025 1.61545 0.27000
v 2.91025 1.25545 0.25000
v 2.55025 1.25545 0.25000
v 2.55025 1.61545 0.25000
v 2.91025 1.61545 0.25000
v 3.07871 0.57197 0.27000
v 3.07871 0.57197 0.25000
v 3.07871 0.93197 0.25000
v 3.07871 0.93197 0.27000
v 2.71871 0.57197 0.25000
v 2.71871 0.57197 0.27000
v 2.71871 0.93197 0.27000
v 2.71871 0.93197 0.25000
v 2.71871 0.93197 0.27000
v 3.07871 0.93197 0.27000
v 3.07871 0.93197 0.25000
v 2.71871 0.93197 0.25000
v 2.71871 0.57197 0.25000
v 3.07871 0.57197 0.25000
v 3.07871 0.57197 0.27000
v 2.71871 0.57197 0.27000
v 2.71871 0.57197 0.27000
v 3.07871 0.57197 0.27000
v 3.07871 0.93197 0.27000
v 2.71871 0.93197 0.27000
v 3.07871 0.57197 0.25000
v 2.71871 0.57197 0.25000
v 2.71871 0.93197 0.25000
v 3.07871 0.93197 0.25000
vt -2.70000 0.40000
vt -2.67252 0.78425
vt -3.11794 0.84829
vt -3.15000 0.40000
vt -2.70000 0.40000
vt -2.67252 0.78425
vt -3.11794 0.84829
vt -3.15000 0.40000
vt 0.00000 0.00000
vt 0.38556 0.00000
vt 0.38556 0.50000
vt 0.00000 0.50000
vt 0.00000 0.50000
vt 0.44982 0.50000
vt 0.44982 0.00000
vt 0.00000 0.00000
vt -2.67252 0.78425
vt -2.59063 1.16068
vt -3.02240 1.28746
vt -3.11794 0.84829
vt -2.67252 0.78425
vt -2.59063 1.16068
vt -3.02240 1.28746
vt -3.11794 0.84829
vt 0.00000 0.00000
vt 0.38556 0.00000
vt 0.38556 0.50000
vt 0.00000 0.50000
vt 0.00000 0.50000
vt 0.44982 0.50000
vt 0.44982 0.00000
vt 0.00000 0.00000
vt -2.59063 1.16068
vt -2.45601 1.52162
vt -2.86534 1.70856
vt -3.02240 1.28746
vt -2.59063 1.16068
vt -2.45601 1.52162
vt -2.86534 1.70856
vt -3.02240 1.28746
vt 0.00000 0.00000
vt 0.38556 0.00000
vt 0.38556 0.50000
vt 0.00000 0.50000
vt 0.00000 0.50000
vt 0.44982 0.50000
vt 0.44982 0.00000
vt 0.00000 0.00000
vt -2.45601 1.52162
vt -2.27138 1.85973
vt -2.64995 2.10302
vt -2.86534 1.70856
vt -2.45601 1.52162
vt -2.27138 1.85973
vt -2.64995 2.10302
vt -2.86534 1.70856
vt 0.00000 0.00000
vt 0.38556 0.00000
vt 0.38556 0.50000
vt 0.00000 0.50000
vt 0.00000 0.50000
vt 0.44982 0.50000
vt 0.44982 0.00000
vt 0.00000 0.00000
vt -2.27138 1.85973
vt -2.04052 2.16812
vt -2.38061 2.46281
vt -2.64995 2.10302
vt -2.27138 1.85973
vt -2.04052 2.16812
vt -2.38061 2.46281
vt -2.64995 2.10302
vt 0.00000 0.00000
vt 0.38556 0.00000
vt 0.38556 0.50000
vt 0.00000 0.50000
vt 0.00000 0.50000
vt 0.44982 0.50000
vt 0.44982 0.00000
vt 0.00000 0.00000
vt -2.04052 2.16812
vt -1.76812 2.44052
vt -2.06281 2.78061
vt -2.38061 2.46281
vt -2.04052 2.16812
vt -1.76812 2.44052
vt -2.06281 2.78061
vt -2.38061 2.46281
vt 0.00000 0.00000
vt 0.38556 0.00000
vt 0.38556 0.50000
vt 0.00000 0.50000
vt 0.00000 0.50000
vt 0.44982 0.50000
vt 0.44982 0.00000
vt 0.00000 0.00000
vt -1.76812 2.44052
vt -1.45973 2.67138
vt -1.70302 3.04995
vt -2.06281 2.78061
vt -1.76812 2.44052
vt -1.45973 2.67138
vt -1.70302 3.04995
vt -2.06281 2.78061
vt 0.00000 0.00000
vt 0.38556 0.00000
vt 0.38556 0.50000
vt 0.00000 0.50000
vt 0.00000 0.50000
vt 0.44982 0.50000
vt 0.44982 0.00000
vt 0.00000 0.00000
vt -1.45973 2.67138
vt -1.12162 2.85601
vt -1.30856 3.26534
vt -1.70302 3.04995
vt -1.45973 2.67138
vt -1.12162 2.85601
vt -1.30856 3.26534
vt -1.70302 3.04995
vt 0.00000 0.00000
vt 0.38556 0.00000
vt 0.38556 0.50000
vt 0.00000 0.50000
vt 0.00000 0.50000
vt 0.44982 0.50000
vt 0.44982 0.00000
vt 0.00000 0.00000
vt -1.12162 2.85601
vt -0.76068 2.99063
vt -0.88746 3.42240
vt -1.30856 3.26534
vt -1.12162 2.85601
vt -0.76068 2.99063
vt -0.88746 3.42240
vt -1.30856 3.26534
vt 0.00000 0.00000
vt 0.38556 0.00000
vt 0.38556 0.50000
vt 0.00000 0.50000
vt 0.00000 0.50000
vt 0.44982 0.50000
vt 0.44982 0.00000
vt 0.00000 0.00000
vt -0.76068 2.99063
vt -0.38425 3.07252
vt -0.44829 3.51794
vt -0.88746 3.42240
vt -0.76068 2.99063
vt -0.38425 3.07252
vt -0.44829 3.51794
vt -0.88746 3.42240
vt 0.00000 0.00000
vt 0.38556 0.00000
vt 0.38556 0.50000
vt 0.00000 0.50000
vt 0.00000 0.50000
vt 0.44982 0.50000
vt 0.44982 0.00000
vt 0.00000 0.00000
vt -0.38425 3.07252
vt -0.00000 3.10000
vt -0.00000 3.55000
vt -0.44829 3.51794
vt -0.38425 3.07252
vt -0.00000 3.10000
vt -0.00000 3.55000
vt -0.44829 3.51794
vt 0.00000 0.00000
vt 0.38556 0.00000
vt 0.38556 0.50000
vt 0.00000 0.50000
vt 0.00000 0.50000
vt 0.44982 0.50000
vt 0.44982 0.00000
vt 0.00000 0.00000
vt -0.00000 3.10000
vt 0.38425 3.07252
vt 0.44829 3.51794
vt -0.00000 3.55000
vt -0.00000 3.10000
vt 0.38425 3.07252
vt 0.44829 3.51794
vt -0.00000 3.55000
vt 0.00000 0.00000
vt 0.38556 0.00000
vt 0.38556 0.50000
vt 0.00000 0.50000
vt 0.00000 0.50000
vt 0.44982 0.50000
vt 0.44982 0.00000
vt 0.00000 0.00000
vt 0.38425 3.07252
vt 0.76068 2.99063
vt 0.88746 3.42240
vt 0.44829 3.51794
vt 0.38425 3.07252
vt 0.76068 2.99063
vt 0.88746 3.42240
vt 0.44829 3.51794
vt 0.00000 0.00000
vt 0.38556 0.00000
vt 0.38556 0.50000
vt 0.00000 0.50000
vt 0.00000 0.50000
vt 0.44982 0.50000
vt 0.44982 0.00000
vt 0.00000 0.00000
vt 0.76068 2.99063
vt 1.12162 2.85601
vt 1.30856 3.26534
vt 0.88746 3.42240
vt 0.76068 2.99063
vt 1.12162 2.85601
vt 1.30856 3.26534
vt 0.88746 3.42240
vt 0.00000 0.00000
vt 0.38556 0.00000
vt 0.38556 0.50000
vt 0.00000 0.50000
vt 0.00000 0.50000
vt 0.44982 0.50000
vt 0.44982 0.00000
vt 0.00000 0.00000
vt 1.12162 2.85601
vt 1.45973 2.67138
vt 1.70302 3.04995
vt 1.30856 3.26534
vt 1.12162 2.85601
vt 1.45973 2.67138
vt 1.70302 3.04995
vt 1.30856 3.26534
vt 0.00000 0.00000
vt 0.38556 0.00000
vt 0.38556 0.50000
vt 0.00000 0.50000
vt 0.00000 0.50000
vt 0.44982 0.50000
vt 0.44982 0.00000
vt 0.00000 0.00000
vt 1.45973 2.67138
vt 1.76812 2.44052
vt 2.06281 2.78061
vt 1.70302 3.04995
vt 1.45973 2.67138
vt 1.76812 2.44052
vt 2.06281 2.78061
vt 1.70302 3.04995
vt 0.00000 0.00000
vt 0.38556 0.00000
vt 0.38556 0.50000
vt 0.00000 0.50000
vt 0.00000 0.50000
vt 0.44982 0.50000
vt 0.44982 0.00000
vt 0.00000 0.00000
vt 1.76812 2.44052
vt 2.04052 2.16812
vt 2.38061 2.46281
vt 2.06281 2.78061
vt 1.76812 2.44052
vt 2.04052 2.16812
vt 2.38061 2.46281
vt 2.06281 2.78061
vt 0.00000 0.00000
vt 0.38556 0.00000
vt 0.38556 0.50000
vt 0.00000 0.50000
vt 0.00000 0.50000
vt 0.44982 0.50000
vt 0.44982 0.00000
vt 0.00000 0.00000
vt 2.04052 2.16812
vt 2.27138 1.85973
vt 2.64995 2.10302
vt 2.38061 2.46281
vt 2.04052 2.16812
vt 2.27138 1.85973
vt 2.64995 2.10302
vt 2.38061 2.46281
vt 0.00000 0.00000
vt 0.38556 0.00000
vt 0.38556 0.50000
vt 0.00000 0.50000
vt 0.00000 0.50000
vt 0.44982 0.50000
vt 0.44982 0.00000
vt 0.00000 0.00000
vt 2.27138 1.85973
vt 2.45601 1.52162
vt 2.86534 1.70856
vt 2.64995 2.10302
vt 2.27138 1.85973
vt 2.45601 1.52162
vt 2.86534 1.70856
vt 2.64995 2.10302
vt 0.00000 0.00000
vt 0.38556 0.00000
vt 0.38556 0.50000
vt 0.00000 0.50000
vt 0.00000 0.50000
vt 0.44982 0.50000
vt 0.44982 0.00000
vt 0.00000 0.00000
vt 2.45601 1.52162
vt 2.59063 1.16068
vt 3.02240 1.28746
vt 2.86534 1.70856
vt 2.45601 1.52162
vt 2.59063 1.16068
vt 3.02240 1.28746
vt 2.86534 1.70856
vt 0.00000 0.00000
vt 0.38556 0.00000
vt 0.38556 0.50000
vt 0.00000 0.50000
vt 0.00000 0.50000
vt 0.44982 0.50000
vt 0.44982 0.00000
vt 0.00000 0.00000
vt 2.59063 1.16068
vt 2.67252 0.78425
vt 3.11794 0.84829
vt 3.02240 1.28746
vt 2.59063 1.16068
vt 2.67252 0.78425
vt 3.11794 0.84829
vt 3.02240 1.28746
vt 0.00000 0.00000
vt 0.38556 0.00000
vt 0.38556 0.50000
vt 0.00000 0.50000
vt 0.00000 0.50000
vt 0.44982 0.50000
vt 0.44982 0.00000
vt 0.00000 0.00000
vt 2.67252 0.78425
vt 2.70000 0.40000
vt 3.15000 0.40000
vt 3.11794 0.84829
vt 2.67252 0.78425
vt 2.70000 0.40000
vt 3.15000 0.40000
vt 3.11794 0.84829
vt 0.00000 0.00000
vt 0.38556 0.00000
vt 0.38556 0.50000
vt 0.00000 0.50000
vt 0.00000 0.50000
vt 0.44982 0.50000
vt 0.44982 0.00000
vt 0.00000 0.00000
vt -0.25000 -1.45000
vt 0.25000 -1.45000
vt 0.25000 0.40000
vt -0.25000 0.40000
vt -0.25000 -1.45000
vt 0.25000 -1.45000
vt 0.25000 0.40000
vt -0.25000 0.40000
vt -3.15000 -0.25000
vt -2.70000 -0.25000
vt -2.70000 0.25000
vt -3.15000 0.25000
vt -3.15000 -0.25000
vt -2.70000 -0.25000
vt -2.70000 0.25000
vt -3.15000 0.25000
vt -3.15000 -1.45000
vt -2.70000 -1.45000
vt -2.70000 0.40000
vt -3.15000 0.40000
vt 2.70000 -1.45000
vt 3.15000 -1.45000
vt 3.15000 0.40000
vt 2.70000 0.40000
vt -0.25000 -1.45000
vt 0.25000 -1.45000
vt 0.25000 0.40000
vt -0.25000 0.40000
vt -0.25000 -1.45000
vt 0.25000 -1.45000
vt 0.25000 0.40000
vt -0.25000 0.40000
vt 2.70000 -0.25000
vt 3.15000 -0.25000
vt 3.15000 0.25000
vt 2.70000 0.25000
vt 2.70000 -0.25000
vt 3.15000 -0.25000
vt 3.15000 0.25000
vt 2.70000 0.25000
vt 2.70000 -1.45000
vt 3.15000 -1.45000
vt 3.15000 0.40000
vt 2.70000 0.40000
vt -3.15000 -1.45000
vt -2.70000 -1.45000
vt -2.70000 0.40000
vt -3.15000 0.40000
vt -0.67500 1.42992
vt -0.62500 1.42992
vt -0.62500 2.32992
vt -0.67500 2.32992
vt 0.62500 1.42992
vt 0.67500 1.42992
vt 0.67500 2.32992
vt 0.62500 2.32992
vt -7.69677 -0.67500
vt -6.79677 -0.67500
vt -6.79677 -0.62500
vt -7.69677 -0.62500
vt -7.69677 0.62500
vt -6.79677 0.62500
vt -6.79677 0.67500
vt -7.69677 0.67500
vt -7.69677 1.42992
vt -6.79677 1.42992
vt -6.79677 2.32992
vt -7.69677 2.32992
vt 6.79677 1.42992
vt 7.69677 1.42992
vt 7.69677 2.32992
vt 6.79677 2.32992
vt -0.67500 3.13862
vt -0.62500 3.13862
vt -0.62500 4.03862
vt -0.67500 4.03862
vt 0.62500 3.13862
vt 0.67500 3.13862
vt 0.67500 4.03862
vt 0.62500 4.03862
vt -7.27562 -0.67500
vt -6.37562 -0.67500
vt -6.37562 -0.62500
vt -7.27562 -0.62500
vt -7.27562 0.62500
vt -6.37562 0.62500
vt -6.37562 0.67500
vt -7.27562 0.67500
vt -7.27562 3.13862
vt -6.37562 3.13862
vt -6.37562 4.03862
vt -7.27562 4.03862
vt 6.37562 3.13862
vt 7.27562 3.13862
vt 7.27562 4.03862
vt 6.37562 4.03862
vt -0.67500 4.69687
vt -0.62500 4.69687
vt -0.62500 5.59687
vt -0.67500 5.59687
vt 0.62500 4.69687
vt 0.67500 4.69687
vt 0.67500 5.59687
vt 0.62500 5.59687
vt -6.45778 -0.67500
vt -5.55778 -0.67500
vt -5.55778 -0.62500
vt -6.45778 -0.62500
vt -6.45778 0.62500
vt -5.55778 0.62500
vt -5.55778 0.67500
vt -6.45778 0.67500
vt -6.45778 4.69687
vt -5.55778 4.69687
vt -5.55778 5.59687
vt -6.45778 5.59687
vt 5.55778 4.69687
vt 6.45778 4.69687
vt 6.45778 5.59687
vt 5.55778 5.59687
vt -0.67500 6.01413
vt -0.62500 6.01413
vt -0.62500 6.91413
vt -0.67500 6.91413
vt 0.62500 6.01413
vt 0.67500 6.01413
vt 0.67500 6.91413
vt 0.62500 6.91413
vt -5.29080 -0.67500
vt -4.39080 -0.67500
vt -4.39080 -0.62500
vt -5.29080 -0.62500
vt -5.29080 0.62500
vt -4.39080 0.62500
vt -4.39080 0.67500
vt -5.29080 0.67500
vt -5.29080 6.01413
vt -4.39080 6.01413
vt -4.39080 6.91413
vt -5.29080 6.91413
vt 4.39080 6.01413
vt 5.29080 6.01413
vt 5.29080 6.91413
vt 4.39080 6.91413
vt -0.67500 7.01383
vt -0.62500 7.01383
vt -0.62500 7.91383
vt -0.67500 7.91383
vt 0.62500 7.01383
vt 0.67500 7.01383
vt 0.67500 7.91383
vt 0.62500 7.91383
vt -3.84248 -0.67500
vt -2.94248 -0.67500
vt -2.94248 -0.62500
vt -3.84248 -0.62500
vt -3.84248 0.62500
vt -2.94248 0.62500
vt -2.94248 0.67500
vt -3.84248 0.67500
vt -3.84248 7.01383
vt -2.94248 7.01383
vt -2.94248 7.91383
vt -3.84248 7.91383
vt 2.94248 7.01383
vt 3.84248 7.01383
vt 3.84248 7.91383
vt 2.94248 7.91383
vt -0.67500 7.63788
vt -0.62500 7.63788
vt -0.62500 8.53788
vt -0.67500 8.53788
vt 0.62500 7.63788
vt 0.67500 7.63788
vt 0.67500 8.53788
vt 0.62500 8.53788
vt -2.19700 -0.67500
vt -1.29700 -0.67500
vt -1.29700 -0.62500
vt -2.19700 -0.62500
vt -2.19700 0.62500
vt -1.29700 0.62500
vt -1.29700 0.67500
vt -2.19700 0.67500
vt -2.19700 7.63788
vt -1.29700 7.63788
vt -1.29700 8.53788
vt -2.19700 8.53788
vt 1.29700 7.63788
vt 2.19700 7.63788
vt 2.19700 8.53788
vt 1.29700 8.53788
vt -0.67500 7.85000
vt -0.62500 7.85000
vt -0.62500 8.75000
vt -0.67500 8.75000
vt 0.62500 7.85000
vt 0.67500 7.85000
vt 0.67500 8.75000
vt 0.62500 8.75000
vt -0.45000 -0.67500
vt 0.45000 -0.67500
vt 0.45000 -0.62500
vt -0.45000 -0.62500
vt -0.45000 0.62500
vt 0.45000 0.62500
vt 0.45000 0.67500
vt -0.45000 0.67500
vt -0.45000 7.85000
vt 0.45000 7.85000
vt 0.45000 8.75000
vt -0.45000 8.75000
vt -0.45000 7.85000
vt 0.45000 7.85000
vt 0.45000 8.75000
vt -0.45000 8.75000
vt -0.67500 7.63788
vt -0.62500 7.63788
vt -0.62500 8.53788
vt -0.67500 8.53788
vt 0.62500 7.63788
vt 0.67500 7.63788
vt 0.67500 8.53788
vt 0.62500 8.53788
vt 1.29700 -0.67500
vt 2.19700 -0.67500
vt 2.19700 -0.62500
vt 1.29700 -0.62500
vt 1.29700 0.62500
vt 2.19700 0.62500
vt 2.19700 0.67500
vt 1.29700 0.67500
vt 1.29700 7.63788
vt 2.19700 7.63788
vt 2.19700 8.53788
vt 1.29700 8.53788
vt -2.19700 7.63788
vt -1.29700 7.63788
vt -1.29700 8.53788
vt -2.19700 8.53788
vt -0.67500 7.01383
vt -0.62500 7.01383
vt -0.62500 7.91383
vt -0.67500 7.91383
vt 0.62500 7.01383
vt 0.67500 7.01383
vt 0.67500 7.91383
vt 0.62500 7.91383
vt 2.94248 -0.67500
vt 3.84248 -0.67500
vt 3.84248 -0.62500
vt 2.94248 -0.62500
vt 2.94248 0.62500
vt 3.84248 0.62500
vt 3.84248 0.67500
vt 2.94248 0.67500
vt 2.94248 7.01383
vt 3.84248 7.01383
vt 3.84248 7.91383
vt 2.94248 7.91383
vt -3.84248 7.01383
vt -2.94248 7.01383
vt -2.94248 7.91383
vt -3.84248 7.91383
vt -0.67500 6.01413
vt -0.62500 6.01413
vt -0.62500 6.91413
vt -0.67500 6.91413
vt 0.62500 6.01413
vt 0.67500 6.01413
vt 0.67500 6.91413
vt 0.62500 6.91413
vt 4.39080 -0.67500
vt 5.29080 -0.67500
vt 5.29080 -0.62500
vt 4.39080 -0.62500
vt 4.39080 0.62500
vt 5.29080 0.62500
vt 5.29080 0.67500
vt 4.39080 0.67500
vt 4.39080 6.01413
vt 5.29080 6.01413
vt 5.29080 6.91413
vt 4.39080 6.91413
vt -5.29080 6.01413
vt -4.39080 6.01413
vt -4.39080 6.91413
vt -5.29080 6.91413
vt -0.67500 4.69687
vt -0.62500 4.69687
vt -0.62500 5.59687
vt -0.67500 5.59687
vt 0.62500 4.69687
vt 0.67500 4.69687
vt 0.67500 5.59687
vt 0.62500 5.59687
vt 5.55778 -0.67500
vt 6.45778 -0.67500
vt 6.45778 -0.62500
vt 5.55778 -0.62500
vt 5.55778 0.62500
vt 6.45778 0.62500
vt 6.45778 0.67500
vt 5.55778 0.67500
vt 5.55778 4.69687
vt 6.45778 4.69687
vt 6.45778 5.59687
vt 5.55778 5.59687
vt -6.45778 4.69687
vt -5.55778 4.69687
vt -5.55778 5.59687
vt -6.45778 5.59687
vt -0.67500 3.13862
vt -0.62500 3.13862
vt -0.62500 4.03862
vt -0.67500 4.03862
vt 0.62500 3.13862
vt 0.67500 3.13862
vt 0.67500 4.03862
vt 0.62500 4.03862
vt 6.37562 -0.67500
vt 7.27562 -0.67500
vt 7.27562 -0.62500
vt 6.37562 -0.62500
vt 6.37562 0.62500
vt 7.27562 0.62500
vt 7.27562 0.67500
vt 6.37562 0.67500
vt 6.37562 3.13862
vt 7.27562 3.13862
vt 7.27562 4.03862
vt 6.37562 4.03862
vt -7.27562 3.13862
vt -6.37562 3.13862
vt -6.37562 4.03862
vt -7.27562 4.03862
vt -0.67500 1.42992
vt -0.62500 1.42992
vt -0.62500 2.32992
vt -0.67500 2.32992
vt 0.62500 1.42992
vt 0.67500 1.42992
vt 0.67500 2.32992
vt 0.62500 2.32992
vt 6.79677 -0.67500
vt 7.69677 -0.67500
vt 7.69677 -0.62500
vt 6.79677 -0.62500
vt 6.79677 0.62500
vt 7.69677 0.62500
vt 7.69677 0.67500
vt 6.79677 0.67500
vt 6.79677 1.42992
vt 7.69677 1.42992
vt 7.69677 2.32992
vt 6.79677 2.32992
vt -7.69677 1.42992
vt -6.79677 1.42992
vt -6.79677 2.32992
vt -7.69677 2.32992
vn 0.00000 0.00000 1.00000
vn 0.00000 0.00000 1.00000
vn 0.99745 -0.07134 0.00000
vn -0.99745 0.07134 0.00000
vn 0.00000 0.00000 1.00000
vn 0.00000 0.00000 1.00000
vn 0.97715 -0.21257 0.00000
vn -0.97715 0.21257 0.00000
vn 0.00000 0.00000 1.00000
vn 0.00000 0.00000 1.00000
vn 0.93695 -0.34946 0.00000
vn -0.93695 0.34946 0.00000
vn 0.00000 0.00000 1.00000
vn 0.00000 0.00000 1.00000
vn 0.87768 -0.47925 0.00000
vn -0.87768 0.47925 0.00000
vn 0.00000 0.00000 1.00000
vn 0.00000 0.00000 1.00000
vn 0.80054 -0.59928 0.00000
vn -0.80054 0.59928 0.00000
vn 0.00000 0.00000 1.00000
vn 0.00000 0.00000 1.00000
vn 0.70711 -0.70711 0.00000
vn -0.70711 0.70711 0.00000
vn 0.00000 0.00000 1.00000
vn 0.00000 0.00000 1.00000
vn 0.59928 -0.80054 0.00000
vn -0.59928 0.80054 0.00000
vn 0.00000 0.00000 1.00000
vn 0.00000 0.00000 1.00000
vn 0.47925 -0.87768 0.00000
vn -0.47925 0.87768 0.00000
vn 0.00000 0.00000 1.00000
vn 0.00000 0.00000 1.00000
vn 0.34946 -0.93695 0.00000
vn -0.34946 0.93695 0.00000
vn 0.00000 0.00000 1.00000
vn 0.00000 0.00000 1.00000
vn 0.21257 -0.97715 0.00000
vn -0.21257 0.97715 0.00000
vn 0.00000 0.00000 1.00000
vn 0.00000 0.00000 1.00000
vn 0.07134 -0.99745 0.00000
vn -0.07134 0.99745 0.00000
vn 0.00000 0.00000 1.00000
vn 0.00000 0.00000 1.00000
vn -0.07134 -0.99745 0.00000
vn 0.07134 0.99745 0.00000
vn 0.00000 0.00000 1.00000
vn 0.00000 0.00000 1.00000
vn -0.21257 -0.97715 0.00000
vn 0.21257 0.97715 0.00000
vn 0.00000 0.00000 1.00000
vn 0.00000 0.00000 1.00000
vn -0.34946 -0.93695 0.00000
vn 0.34946 0.93695 0.00000
vn 0.00000 0.00000 1.00000
vn 0.00000 0.00000 1.00000
vn -0.47925 -0.87768 0.00000
vn 0.47925 0.87768 0.00000
vn 0.00000 0.00000 1.00000
vn 0.00000 0.00000 1.00000
vn -0.59928 -0.80054 0.00000
vn 0.59928 0.80054 0.00000
vn 0.00000 0.00000 1.00000
vn 0.00000 0.00000 1.00000
vn -0.70711 -0.70711 0.00000
vn 0.70711 0.70711 0.00000
vn 0.00000 0.00000 1.00000
vn 0.00000 0.00000 1.00000
vn -0.80054 -0.59928 0.00000
vn 0.80054 0.59928 0.00000
vn 0.00000 0.00000 1.00000
vn 0.00000 0.00000 1.00000
vn -0.87768 -0.47925 0.00000
vn 0.87768 0.47925 0.00000
vn 0.00000 0.00000 1.00000
vn 0.00000 0.00000 1.00000
vn -0.93695 -0.34946 0.00000
vn 0.93695 0.34946 0.00000
vn 0.00000 0.00000 1.00000
vn 0.00000 0.00000 1.00000
vn -0.97715 -0.21257 0.00000
vn 0.97715 0.21257 0.00000
vn 0.00000 0.00000 1.00000
vn 0.00000 0.00000 1.00000
vn -0.99745 -0.07134 0.00000
vn 0.99745 0.07134 0.00000
vn 1.00000 0.00000 0.00000
vn -1.00000 0.00000 0.00000
vn 0.00000 1.00000 0.00000
vn 0.00000 -1.00000 0.00000
vn 0.00000 0.00000 1.00000
vn 0.00000 0.00000 -1.00000
vn 1.00000 0.00000 0.00000
vn -1.00000 0.00000 0.00000
vn 0.00000 1.00000 0.00000
vn 0.00000 -1.00000 0.00000
vn 0.00000 0.00000 1.00000
vn 0.00000 0.00000 -1.00000
vn 1.00000 0.00000 0.00000
vn -1.00000 0.00000 0.00000
vn 0.00000 1.00000 0.00000
vn 0.00000 -1.00000 0.00000
vn 0.00000 0.00000 1.00000
vn 0.00000 0.00000 -1.00000
vn 1.00000 0.00000 0.00000
vn -1.00000 0.00000 0.00000
vn 0.00000 1.00000 0.00000
vn 0.00000 -1.00000 0.00000
vn 0.00000 0.00000 1.00000
vn 0.00000 0.00000 -1.00000
vn 1.00000 0.00000 0.00000
vn -1.00000 0.00000 0.00000
vn 0.00000 1.00000 0.00000
vn 0.00000 -1.00000 0.00000
vn 0.00000 0.00000 1.00000
vn 0.00000 0.00000 -1.00000
vn 1.00000 0.00000 0.00000
vn -1.00000 0.00000 0.00000
vn 0.00000 1.00000 0.00000
vn 0.00000 -1.00000 0.00000
vn 0.00000 0.00000 1.00000
vn 0.00000 0.00000 -1.00000
vn 1.00000 0.00000 0.00000
vn -1.00000 0.00000 0.00000
vn 0.00000 1.00000 0.00000
vn 0.00000 -1.00000 0.00000
vn 0.00000 0.00000 1.00000
vn 0.00000 0.00000 -1.00000
vn 1.00000 0.00000 0.00000
vn -1.00000 0.00000 0.00000
vn 0.00000 1.00000 0.00000
vn 0.00000 -1.00000 0.00000
vn 0.00000 0.00000 1.00000
vn 0.00000 0.00000 -1.00000
vn 1.00000 0.00000 0.00000
vn -1.00000 0.00000 0.00000
vn 0.00000 1.00000 0.00000
vn 0.00000 -1.00000 0.00000
vn 0.00000 0.00000 1.00000
vn 0.00000 0.00000 -1.00000
vn 1.00000 0.00000 0.00000
vn -1.00000 0.00000 0.00000
vn 0.00000 1.00000 0.00000
vn 0.00000 -1.00000 0.00000
vn 0.00000 0.00000 1.00000
vn 0.00000 0.00000 -1.00000
vn 1.00000 0.00000 0.00000
vn -1.00000 0.00000 0.00000
vn 0.00000 1.00000 0.00000
vn 0.00000 -1.00000 0.00000
vn 0.00000 0.00000 1.00000
vn 0.00000 0.00000 -1.00000
vn 1.00000 0.00000 0.00000
vn -1.00000 0.00000 0.00000
vn 0.00000 1.00000 0.00000
vn 0.00000 -1.00000 0.00000
vn 0.00000 0.00000 1.00000
vn 0.00000 0.00000 -1.00000
vn 1.00000 0.00000 0.00000
vn -1.00000 0.00000 0.00000
vn 0.00000 1.00000 0.00000
vn 0.00000 -1.00000 0.00000
vn 0.00000 0.00000 1.00000
vn 0.00000 0.00000 -1.00000
vn 1.00000 0.00000 0.00000
vn -1.00000 0.00000 0.00000
vn 0.00000 1.00000 0.00000
vn 0.00000 -1.00000 0.00000
vn 0.00000 0.00000 1.00000
vn 0.00000 0.00000 -1.00000
vn 1.00000 0.00000 0.00000
vn -1.00000 0.00000 0.00000
vn 0.00000 1.00000 0.00000
vn 0.00000 -1.00000 0.00000
vn 0.00000 0.00000 1.00000
vn 0.00000 0.00000 -1.00000
usemtl concrete
f 1/1/1 2/2/1 3/3/1 4/4/1
f 5/5/2 6/6/2 7/7/2 8/8/2
f 9/9/3 10/10/3 11/11/3 12/12/3
f 13/13/4 14/14/4 15/15/4 16/16/4
f 17/17/5 18/18/5 19/19/5 20/20/5
f 21/21/6 22/22/6 23/23/6 24/24/6
f 25/25/7 26/26/7 27/27/7 28/28/7
f 29/29/8 30/30/8 31/31/8 32/32/8
f 33/33/9 34/34/9 35/35/9 36/36/9
f 37/37/10 38/38/10 39/39/10 40/40/10
f 41/41/11 42/42/11 43/43/11 44/44/11
f 45/45/12 46/46/12 47/47/12 48/48/12
f 49/49/13 50/50/13 51/51/13 52/52/13
f 53/53/14 54/54/14 55/55/14 56/56/14
f 57/57/15 58/58/15 59/59/15 60/60/15
f 61/61/16 62/62/16 63/63/16 64/64/16
f 65/65/17 66/66/17 67/67/17 68/68/17
f 69/69/18 70/70/18 71/71/18 72/72/18
f 73/73/19 74/74/19 75/75/19 76/76/19
f 77/77/20 78/78/20 79/79/20 80/80/20
f 81/81/21 82/82/21 83/83/21 84/84/21
f 85/85/22 86/86/22 87/87/22 88/88/22
f 89/89/23 90/90/23 91/91/23 92/92/23
f 93/93/24 94/94/24 95/95/24 96/96/24
f 97/97/25 98/98/25 99/99/25 100/100/25
f 101/101/26 102/102/26 103/103/26 104/104/26
f 105/105/27 106/106/27 107/107/27 108/108/27
f 109/109/28 110/110/28 111/111/28 112/112/28
f 113/113/29 114/114/29 115/115/29 116/116/29
f 117/117/30 118/118/30 119/119/30 120/120/30
f 121/121/31 122/122/31 123/123/31 124/124/31
f 125/125/32 126/126/32 127/127/32 128/128/32
f 129/129/33 130/130/33 131/131/33 132/132/33
f 133/133/34 134/134/34 135/135/34 136/136/34
f 137/137/35 138/138/35 139/139/35 140/140/35
f 141/141/36 142/142/36 143/143/36 144/144/36
f 145/145/37 146/146/37 147/147/37 148/148/37
f 149/149/38 150/150/38 151/151/38 152/152/38
f 153/153/39 154/154/39 155/155/39 156/156/39
f 157/157/40 158/158/40 159/159/40 160/160/40
f 161/161/41 162/162/41 163/163/41 164/164/41
f 165/165/42 166/166/42 167/167/42 168/168/42
f 169/169/43 170/170/43 171/171/43 172/172/43
f 173/173/44 174/174/44 175/175/44 176/176/44
f 177/177/45 178/178/45 179/179/45 180/180/45
f 181/181/46 182/182/46 183/183/46 184/184/46
f 185/185/47 186/186/47 187/187/47 188/188/47
f 189/189/48 190/190/48 191/191/48 192/192/48
f 193/193/49 194/194/49 195/195/49 196/196/49
f 197/197/50 198/198/50 199/199/50 200/200/50
f 201/201/51 202/202/51 203/203/51 204/204/51
f 205/205/52 206/206/52 207/207/52 208/208/52
f 209/209/53 210/210/53 211/211/53 212/212/53
f 213/213/54 214/214/54 215/215/54 216/216/54
f 217/217/55 218/218/55 219/219/55 220/220/55
f 221/221/56 222/222/56 223/223/56 224/224/56
f 225/225/57 226/226/57 227/227/57 228/228/57
f 229/229/58 230/230/58 231/231/58 232/232/58
f 233/233/59 234/234/59 235/235/59 236/236/59
f 237/237/60 238/238/60 239/239/60 240/240/60
f 241/241/61 242/242/61 243/243/61 244/244/61
f 245/245/62 246/246/62 247/247/62 248/248/62
f 249/249/63 250/250/63 251/251/63 252/252/63
f 253/253/64 254/254/64 255/255/64 256/256/64
f 257/257/65 258/258/65 259/259/65 260/260/65
f 261/261/66 262/262/66 263/263/66 264/264/66
f 265/265/67 266/266/67 267/267/67 268/268/67
f 269/269/68 270/270/68 271/271/68 272/272/68
f 273/273/69 274/274/69 275/275/69 276/276/69
f 277/277/70 278/278/70 279/279/70 280/280/70
f 281/281/71 282/282/71 283/283/71 284/284/71
f 285/285/72 286/286/72 287/287/72 288/288/72
f 289/289/73 290/290/73 291/291/73 292/292/73
f 293/293/74 294/294/74 295/295/74 296/296/74
f 297/297/75 298/298/75 299/299/75 300/300/75
f 301/301/76 302/302/76 303/303/76 304/304/76
f 305/305/77 306/306/77 307/307/77 308/308/77
f 309/309/78 310/310/78 311/311/78 312/312/78
f 313/313/79 314/314/79 315/315/79 316/316/79
f 317/317/80 318/318/80 319/319/80 320/320/80
f 321/321/81 322/322/81 323/323/81 324/324/81
f 325/325/82 326/326/82 327/327/82 328/328/82
f 329/329/83 330/330/83 331/331/83 332/332/83
f 333/333/84 334/334/84 335/335/84 336/336/84
f 337/337/85 338/338/85 339/339/85 340/340/85
f 341/341/86 342/342/86 343/343/86 344/344/86
f 345/345/87 346/346/87 347/347/87 348/348/87
f 349/349/88 350/350/88 351/351/88 352/352/88
f 353/353/89 354/354/89 355/355/89 356/356/89
f 357/357/90 358/358/90 359/359/90 360/360/90
f 361/361/91 362/362/91 363/363/91 364/364/91
f 365/365/92 366/366/92 367/367/92 368/368/92
f 369/369/93 370/370/93 371/371/93 372/372/93
f 373/373/94 374/374/94 375/375/94 376/376/94
f 377/377/95 378/378/95 379/379/95 380/380/95
f 381/381/96 382/382/96 383/383/96 384/384/96
f 385/385/97 386/386/97 387/387/97 388/388/97
f 389/389/98 390/390/98 391/391/98 392/392/98
f 393/393/99 394/394/99 395/395/99 396/396/99
f 397/397/100 398/398/100 399/399/100 400/400/100
usemtl paint_yellow
f 401/401/101 402/402/101 403/403/101 404/404/101
f 405/405/102 406/406/102 407/407/102 408/408/102
f 409/409/103 410/410/103 411/411/103 412/412/103
f 413/413/104 414/414/104 415/415/104 416/416/104
f 417/417/105 418/418/105 419/419/105 420/420/105
f 421/421/106 422/422/106 423/423/106 424/424/106
f 449/449/113 450/450/113 451/451/113 452/452/113
f 453/453/114 454/454/114 455/455/114 456/456/114
f 457/457/115 458/458/115 459/459/115 460/460/115
f 461/461/116 462/462/116 463/463/116 464/464/116
f 465/465/117 466/466/117 467/467/117 468/468/117
f 469/469/118 470/470/118 471/471/118 472/472/118
f 497/497/125 498/498/125 499/499/125 500/500/125
f 501/501/126 502/502/126 503/503/126 504/504/126
f 505/505/127 506/506/127 507/507/127 508/508/127
f 509/509/128 510/510/128 511/511/128 512/512/128
f 513/513/129 514/514/129 515/515/129 516/516/129
f 517/517/130 518/518/130 519/519/130 520/520/130
f 545/545/137 546/546/137 547/547/137 548/548/137
f 549/549/138 550/550/138 551/551/138 552/552/138
f 553/553/139 554/554/139 555/555/139 556/556/139
f 557/557/140 558/558/140 559/559/140 560/560/140
f 561/561/141 562/562/141 563/563/141 564/564/141
f 565/565/142 566/566/142 567/567/142 568/568/142
f 593/593/149 594/594/149 595/595/149 596/596/149
f 597/597/150 598/598/150 599/599/150 600/600/150
f 601/601/151 602/602/151 603/603/151 604/604/151
f 605/605/152 606/606/152 607/607/152 608/608/152
f 609/609/153 610/610/153 611/611/153 612/612/153
f 613/613/154 614/614/154 615/615/154 616/616/154
f 641/641/161 642/642/161 643/643/161 644/644/161
f 645/645/162 646/646/162 647/647/162 648/648/162
f 649/649/163 650/650/163 651/651/163 652/652/163
f 653/653/164 654/654/164 655/655/164 656/656/164
f 657/657/165 658/658/165 659/659/165 660/660/165
f 661/661/166 662/662/166 663/663/166 664/664/166
f 689/689/173 690/690/173 691/691/173 692/692/173
f 693/693/174 694/694/174 695/695/174 696/696/174
f 697/697/175 698/698/175 699/699/175 700/700/175
f 701/701/176 702/702/176 703/703/176 704/704/176
f 705/705/177 706/706/177 707/707/177 708/708/177
f 709/709/178 710/710/178 711/711/178 712/712/178
usemtl paint_red
f 425/425/107 426/426/107 427/427/107 428/428/107
f 429/429/108 430/430/108 431/431/108 432/432/108
f 433/433/109 434/434/109 435/435/109 436/436/109
f 437/437/110 438/438/110 439/439/110 440/440/110
f 441/441/111 442/442/111 443/443/111 444/444/111
f 445/445/112 446/446/112 447/447/112 448/448/112
f 473/473/119 474/474/119 475/475/119 476/476/119
f 477/477/120 478/478/120 479/479/120 480/480/120
f 481/481/121 482/482/121 483/483/121 484/484/121
f 485/485/122 486/486/122 487/487/122 488/488/122
f 489/489/123 490/490/123 491/491/123 492/492/123
f 493/493/124 494/494/124 495/495/124 496/496/124
f 521/521/131 522/522/131 523/523/131 524/524/131
f 525/525/132 526/526/132 527/527/132 528/528/132
f 529/529/133 530/530/133 531/531/133 532/532/133
f 533/533/134 534/534/134 535/535/134 536/536/134
f 537/537/135 538/538/135 539/539/135 540/540/135
f 541/541/136 542/542/136 543/543/136 544/544/136
f 569/569/143 570/570/143 571/571/143 572/572/143
f 573/573/144 574/574/144 575/575/144 576/576/144
f 577/577/145 578/578/145 579/579/145 580/580/145
f 581/581/146 582/582/146 583/583/146 584/584/146
f 585/585/147 586/586/147 587/587/147 588/588/147
f 589/589/148 590/590/148 591/591/148 592/592/148
f 617/617/155 618/618/155 619/619/155 620/620/155
f 621/621/156 622/622/156 623/623/156 624/624/156
f 625/625/157 626/626/157 627/627/157 628/628/157
f 629/629/158 630/630/158 631/631/158 632/632/158
f 633/633/159 634/634/159 635/635/159 636/636/159
f 637/637/160 638/638/160 639/639/160 640/640/160
f 665/665/167 666/666/167 667/667/167 668/668/167
f 669/669/168 670/670/168 671/671/168 672/672/168
f 673/673/169 674/674/169 675/675/169 676/676/169
f 677/677/170 678/678/170 679/679/170 680/680/170
f 681/681/171 682/682/171 683/683/171 684/684/171
f 685/685/172 686/686/172 687/687/172 688/688/172
