# generated by meshlib
mtllib wall_lamp.mtl
o wall_lamp
v 0.08000 -0.17000 0.05000
v 0.08000 -0.17000 -0.05000
v 0.08000 0.17000 -0.05000
v 0.08000 0.17000 0.05000
v -0.08000 -0.17000 -0.05000
v -0.08000 -0.17000 0.05000
v -0.08000 0.17000 0.05000
v -0.08000 0.17000 -0.05000
v -0.08000 0.17000 0.05000
v 0.08000 0.17000 0.05000
v 0.08000 0.17000 -0.05000
v -0.08000 0.17000 -0.05000
v -0.08000 -0.17000 -0.05000
v 0.08000 -0.17000 -0.05000
v 0.08000 -0.17000 0.05000
v -0.08000 -0.17000 0.05000
v -0.08000 -0.17000 0.05000
v 0.08000 -0.17000 0.05000
v 0.08000 0.17000 0.05000
v -0.08000 0.17000 0.05000
v 0.08000 -0.17000 -0.05000
v -0.08000 -0.17000 -0.05000
v -0.08000 0.17000 -0.05000
v 0.08000 0.17000 -0.05000
v -0.30000 0.02000 0.05000
v 0.30000 0.02000 0.05000
v 0.30000 0.02000 0.34000
v -0.30000 0.02000 0.34000
v 0.30000 0.02000 0.05000
v 0.26000 0.16000 0.05000
v 0.26000 0.16000 0.34000
v 0.30000 0.02000 0.34000
v 0.26000 0.16000 0.05000
v -0.26000 0.16000 0.05000
v -0.26000 0.16000 0.34000
v 0.26000 0.16000 0.34000
v -0.26000 0.16000 0.05000
v -0.30000 0.02000 0.05000
v -0.30000 0.02000 0.34000
v -0.26000 0.16000 0.34000
v -0.26000 0.16000 0.05000
v 0.26000 0.16000 0.05000
v 0.30000 0.02000 0.05000
v -0.30000 0.02000 0.05000
v -0.30000 0.02000 0.34000
v 0.30000 0.02000 0.34000
v 0.26000 0.16000 0.34000
v -0.26000 0.16000 0.34000
v -0.22000 0.03000 0.16500
v -0.22000 0.05057 0.17168
v 0.22000 0.05057 0.17168
v 0.22000 0.03000 0.16500
v -0.22000 0.05057 0.17168
v -0.22000 0.06329 0.18918
v 0.22000 0.06329 0.18918
v 0.22000 0.05057 0.17168
v -0.22000 0.06329 0.18918
v -0.22000 0.06329 0.21082
v 0.22000 0.06329 0.21082
v 0.22000 0.06329 0.18918
v -0.22000 0.06329 0.21082
v -0.22000 0.05057 0.22832
v 0.22000 0.05057 0.22832
v 0.22000 0.06329 0.21082
v -0.22000 0.05057 0.22832
v -0.22000 0.03000 0.23500
v 0.22000 0.03000 0.23500
v 0.22000 0.05057 0.22832
v -0.22000 0.03000 0.23500
v -0.22000 0.00943 0.22832
v 0.22000 0.00943 0.22832
v 0.22000 0.03000 0.23500
v -0.22000 0.00943 0.22832
v -0.22000 -0.00329 0.21082
v 0.22000 -0.00329 0.21082
v 0.22000 0.00943 0.22832
v -0.22000 -0.00329 0.21082
v -0.22000 -0.00329 0.18918
v 0.22000 -0.00329 0.18918
v 0.22000 -0.00329 0.21082
v -0.22000 -0.00329 0.18918
v -0.22000 0.00943 0.17168
v 0.22000 0.00943 0.17168
v 0.22000 -0.00329 0.18918
v -0.22000 0.00943 0.17168
v -0.22000 0.03000 0.16500
v 0.22000 0.03000 0.16500
v 0.22000 0.00943 0.17168
v -0.22000 0.00943 0.17168
v -0.22000 -0.00329 0.18918
v -0.22000 -0.00329 0.21082
v -0.22000 0.00943 0.22832
v -0.22000 0.03000 0.23500
v -0.22000 0.05057 0.22832
v -0.22000 0.06329 0.21082
v -0.22000 0.06329 0.18918
v -0.22000 0.05057 0.17168
v -0.22000 0.03000 0.16500
v 0.22000 0.03000 0.16500
v 0.22000 0.05057 0.17168
v 0.22000 0.06329 0.18918
v 0.22000 0.06329 0.21082
v 0.22000 0.05057 0.22832
v 0.22000 0.03000 0.23500
v 0.22000 0.00943 0.22832
v 0.22000 -0.00329 0.21082
v 0.22000 -0.00329 0.18918
v 0.22000 0.00943 0.17168
vt -0.16667 -0.56667
vt 0.16667 -0.56667
vt 0.16667 0.56667
vt -0.16667 0.56667
vt -0.16667 -0.56667
vt 0.16667 -0.56667
vt 0.16667 0.56667
vt -0.16667 0.56667
vt -0.26667 -0.16667
vt 0.26667 -0.16667
vt 0.26667 0.16667
vt -0.26667 0.16667
vt -0.26667 -0.16667
vt 0.26667 -0.16667
vt 0.26667 0.16667
vt -0.26667 0.16667
vt -0.26667 -0.56667
vt 0.26667 -0.56667
vt 0.26667 0.56667
vt -0.26667 0.56667
vt -0.26667 -0.56667
vt 0.26667 -0.56667
vt 0.26667 0.56667
vt -0.26667 0.56667
vt 0.00000 0.00000
vt 1.50000 0.00000
vt 1.50000 0.72500
vt 0.00000 0.72500
vt 1.50000 0.00000
vt 1.86401 0.00000
vt 1.86401 0.72500
vt 1.50000 0.72500
vt 1.86401 0.00000
vt 3.16401 0.00000
vt 3.16401 0.72500
vt 1.86401 0.72500
vt 3.16401 0.00000
vt 3.52801 0.00000
vt 3.52801 0.72500
vt 3.16401 0.72500
vt -0.65000 0.35000
vt 0.65000 0.35000
vt 0.75000 0.00000
vt -0.75000 0.00000
vt -0.75000 0.00000
vt 0.75000 0.00000
vt 0.65000 0.35000
vt -0.65000 0.35000
vt 0.00000 0.00000
vt 0.10996 0.00000
vt 0.10996 2.20000
vt 0.00000 2.20000
vt 0.10996 0.00000
vt 0.21991 0.00000
vt 0.21991 2.20000
vt 0.10996 2.20000
vt 0.21991 0.00000
vt 0.32987 0.00000
vt 0.32987 2.20000
vt 0.21991 2.20000
vt 0.32987 0.00000
vt 0.43982 0.00000
vt 0.43982 2.20000
vt 0.32987 2.20000
vt 0.43982 0.00000
vt 0.54978 0.00000
vt 0.54978 2.20000
vt 0.43982 2.20000
vt 0.54978 0.00000
vt 0.65973 0.00000
vt 0.65973 2.20000
vt 0.54978 2.20000
vt 0.65973 0.00000
vt 0.76969 0.00000
vt 0.76969 2.20000
vt 0.65973 2.20000
vt 0.76969 0.00000
vt 0.87965 0.00000
vt 0.87965 2.20000
vt 0.76969 2.20000
vt 0.87965 0.00000
vt 0.98960 0.00000
vt 0.98960 2.20000
vt 0.87965 2.20000
vt 0.98960 0.00000
vt 1.09956 0.00000
vt 1.09956 2.20000
vt 0.98960 2.20000
vt 0.14158 -0.10286
vt 0.05408 -0.16643
vt -0.05408 -0.16643
vt -0.14158 -0.10286
vt -0.17500 0.00000
vt -0.14158 0.10286
vt -0.05408 0.16643
vt 0.05408 0.16643
vt 0.14158 0.10286
vt 0.17500 0.00000
vt 0.17500 0.00000
vt 0.14158 0.10286
vt 0.05408 0.16643
vt -0.05408 0.16643
vt -0.14158 0.10286
vt -0.17500 0.00000
vt -0.14158 -0.10286
vt -0.05408 -0.16643
vt 0.05408 -0.16643
vt 0.14158 -0.10286
vn 1.00000 0.00000 0.00000
vn -1.00000 0.00000 0.00000
vn 0.00000 1.00000 0.00000
vn 0.00000 -1.00000 0.00000
vn 0.00000 0.00000 1.00000
vn 0.00000 0.00000 -1.00000
vn 0.00000 -1.00000 0.00000
vn 0.96152 0.27472 0.00000
vn 0.00000 1.00000 0.00000
vn -0.96152 0.27472 0.00000
vn 0.00000 0.00000 -1.00000
vn 0.00000 0.00000 1.00000
vn 0.00000 0.00000 -1.00000
vn 0.00000 0.58779 -0.80902
vn 0.00000 0.58779 -0.80902
vn 0.00000 0.00000 -1.00000
vn 0.00000 0.58779 -0.80902
vn 0.00000 0.95106 -0.30902
vn 0.00000 0.95106 -0.30902
vn 0.00000 0.58779 -0.80902
vn 0.00000 0.95106 -0.30902
vn -0.00000 0.95106 0.30902
vn -0.00000 0.95106 0.30902
vn 0.00000 0.95106 -0.30902
vn -0.00000 0.95106 0.30902
vn -0.00000 0.58779 0.80902
vn -0.00000 0.58779 0.80902
vn -0.00000 0.95106 0.30902
vn -0.00000 0.58779 0.80902
vn -0.00000 0.00000 1.00000
vn -0.00000 0.00000 1.00000
vn -0.00000 0.58779 0.80902
vn -0.00000 0.00000 1.00000
vn 0.00000 -0.58779 0.80902
vn 0.00000 -0.58779 0.80902
vn -0.00000 0.00000 1.00000
vn 0.00000 -0.58779 0.80902
vn 0.00000 -0.95106 0.30902
vn 0.00000 -0.95106 0.30902
vn 0.00000 -0.58779 0.80902
vn 0.00000 -0.95106 0.30902
vn 0.00000 -0.95106 -0.30902
vn 0.00000 -0.95106 -0.30902
vn 0.00000 -0.95106 0.30902
vn 0.00000 -0.95106 -0.30902
vn 0.00000 -0.58779 -0.80902
vn 0.00000 -0.58779 -0.80902
vn 0.00000 -0.95106 -0.30902
vn 0.00000 -0.58779 -0.80902
vn 0.00000 0.00000 -1.00000
vn 0.00000 0.00000 -1.00000
vn 0.00000 -0.58779 -0.80902
vn -1.00000 -0.00000 -0.00000
vn 1.00000 0.00000 0.00000
usemtl steel_dark
f 1/1/1 2/2/1 3/3/1 4/4/1
f 5/5/2 6/6/2 7/7/2 8/8/2
f 9/9/3 10/10/3 11/11/3 12/12/3
f 13/13/4 14/14/4 15/15/4 16/16/4
f 17/17/5 18/18/5 19/19/5 20/20/5
f 21/21/6 22/22/6 23/23/6 24/24/6
usemtl steel
f 25/25/7 26/26/7 27/27/7 28/28/7
f 29/29/8 30/30/8 31/31/8 32/32/8
f 33/33/9 34/34/9 35/35/9 36/36/9
f 37/37/10 38/38/10 39/39/10 40/40/10
f 41/41/11 42/42/11 43/43/11 44/44/11
f 45/45/12 46/46/12 47/47/12 48/48/12
usemtl lamp
f 49/49/13 50/50/14 51/51/15 52/52/16
f 53/53/17 54/54/18 55/55/19 56/56/20
f 57/57/21 58/58/22 59/59/23 60/60/24
f 61/61/25 62/62/26 63/63/27 64/64/28
f 65/65/29 66/66/30 67/67/31 68/68/32
f 69/69/33 70/70/34 71/71/35 72/72/36
f 73/73/37 74/74/38 75/75/39 76/76/40
f 77/77/41 78/78/42 79/79/43 80/80/44
f 81/81/45 82/82/46 83/83/47 84/84/48
f 85/85/49 86/86/50 87/87/51 88/88/52
f 89/89/53 90/90/53 91/91/53 92/92/53 93/93/53 94/94/53 95/95/53 96/96/53 97/97/53 98/98/53
f 99/99/54 100/100/54 101/101/54 102/102/54 103/103/54 104/104/54 105/105/54 106/106/54 107/107/54 108/108/54
