# generated by meshlib
mtllib service_door.mtl
o service_door
v 0.64500 -0.07000 0.00000
v 0.64500 -0.07000 -0.12000
v 0.64500 2.22000 -0.12000
v 0.64500 2.22000 0.00000
v -0.64500 -0.07000 -0.12000
v -0.64500 -0.07000 0.00000
v -0.64500 2.22000 0.00000
v -0.64500 2.22000 -0.12000
v -0.64500 2.22000 0.00000
v 0.64500 2.22000 0.00000
v 0.64500 2.22000 -0.12000
v -0.64500 2.22000 -0.12000
v -0.64500 -0.07000 -0.12000
v 0.64500 -0.07000 -0.12000
v 0.64500 -0.07000 0.00000
v -0.64500 -0.07000 0.00000
v -0.64500 -0.07000 0.00000
v 0.64500 -0.07000 0.00000
v 0.64500 2.22000 0.00000
v -0.64500 2.22000 0.00000
v 0.64500 -0.07000 -0.12000
v -0.64500 -0.07000 -0.12000
v -0.64500 2.22000 -0.12000
v 0.64500 2.22000 -0.12000
v 0.52500 0.01200 0.00200
v 0.52500 2.13800 0.00200
v 0.52500 2.13800 0.03800
v 0.52500 0.01200 0.03800
v -0.52500 0.01200 0.03800
v -0.52500 2.13800 0.03800
v -0.52500 2.13800 0.00200
v -0.52500 0.01200 0.00200
v -0.51300 2.15000 0.03800
v 0.51300 2.15000 0.03800
v 0.51300 2.15000 0.00200
v -0.51300 2.15000 0.00200
v -0.51300 0.00000 0.00200
v 0.51300 0.00000 0.00200
v 0.51300 0.00000 0.03800
v -0.51300 0.00000 0.03800
v -0.51300 0.01200 0.05000
v 0.51300 0.01200 0.05000
v 0.51300 2.13800 0.05000
v -0.51300 2.13800 0.05000
v -0.51300 2.13800 -0.01000
v 0.51300 2.13800 -0.01000
v 0.51300 0.01200 -0.01000
v -0.51300 0.01200 -0.01000
v -0.52500 0.00000 0.00200
v 0.52500 0.00000 0.00200
v 0.52500 0.01200 -0.01000
v -0.52500 0.01200 -0.01000
v -0.52500 0.00000 0.03800
v 0.52500 0.00000 0.03800
v 0.52500 0.01200 0.05000
v -0.52500 0.01200 0.05000
v -0.52500 2.15000 0.00200
v 0.52500 2.15000 0.00200
v 0.52500 2.13800 -0.01000
v -0.52500 2.13800 -0.01000
v -0.52500 2.15000 0.03800
v 0.52500 2.15000 0.03800
v 0.52500 2.13800 0.05000
v -0.52500 2.13800 0.05000
v -0.52500 0.00000 0.00200
v -0.52500 2.15000 0.00200
v -0.51300 2.15000 -0.01000
v -0.51300 0.00000 -0.01000
v -0.52500 0.00000 0.03800
v -0.52500 2.15000 0.03800
v -0.51300 2.15000 0.05000
v -0.51300 0.00000 0.05000
v 0.52500 0.00000 0.00200
v 0.52500 2.15000 0.00200
v 0.51300 2.15000 -0.01000
v 0.51300 0.00000 -0.01000
v 0.52500 0.00000 0.03800
v 0.52500 2.15000 0.03800
v 0.51300 2.15000 0.05000
v 0.51300 0.00000 0.05000
v -0.52500 0.01200 -0.01000
v -0.52500 0.01200 0.05000
v -0.51300 0.00000 0.05000
v -0.51300 0.00000 -0.01000
v -0.52500 2.13800 -0.01000
v -0.52500 2.13800 0.05000
v -0.51300 2.15000 0.05000
v -0.51300 2.15000 -0.01000
v 0.52500 0.01200 -0.01000
v 0.52500 0.01200 0.05000
v 0.51300 0.00000 0.05000
v 0.51300 0.00000 -0.01000
v 0.52500 2.13800 -0.01000
v 0.52500 2.13800 0.05000
v 0.51300 2.15000 0.05000
v 0.51300 2.15000 -0.01000
v -0.52500 0.01200 0.00200
v -0.51300 0.00000 0.00200
v -0.51300 0.01200 -0.01000
v -0.52500 0.01200 0.03800
v -0.51300 0.00000 0.03800
v -0.51300 0.01200 0.05000
v -0.52500 2.13800 0.00200
v -0.51300 2.15000 0.00200
v -0.51300 2.13800 -0.01000
v -0.52500 2.13800 0.03800
v -0.51300 2.15000 0.03800
v -0.51300 2.13800 0.05000
v 0.52500 0.01200 0.00200
v 0.51300 0.00000 0.00200
v 0.51300 0.01200 -0.01000
v 0.52500 0.01200 0.03800
v 0.51300 0.00000 0.03800
v 0.51300 0.01200 0.05000
v 0.52500 2.13800 0.00200
v 0.51300 2.15000 0.00200
v 0.51300 2.13800 -0.01000
v 0.52500 2.13800 0.03800
v 0.51300 2.15000 0.03800
v 0.51300 2.13800 0.05000
v 0.45500 0.43000 0.06100
v 0.45500 0.43000 0.04900
v 0.45500 0.47000 0.04900
v 0.45500 0.47000 0.06100
v -0.45500 0.43000 0.04900
v -0.45500 0.43000 0.06100
v -0.45500 0.47000 0.06100
v -0.45500 0.47000 0.04900
v -0.45500 0.47000 0.06100
v 0.45500 0.47000 0.06100
v 0.45500 0.47000 0.04900
v -0.45500 0.47000 0.04900
v -0.45500 0.43000 0.04900
v 0.45500 0.43000 0.04900
v 0.45500 0.43000 0.06100
v -0.45500 0.43000 0.06100
v -0.45500 0.43000 0.06100
v 0.45500 0.43000 0.06100
v 0.45500 0.47000 0.06100
v -0.45500 0.47000 0.06100
v 0.45500 0.43000 0.04900
v -0.45500 0.43000 0.04900
v -0.45500 0.47000 0.04900
v 0.45500 0.47000 0.04900
v 0.45500 1.05000 0.06100
v 0.45500 1.05000 0.04900
v 0.45500 1.09000 0.04900
v 0.45500 1.09000 0.06100
v -0.45500 1.05000 0.04900
v -0.45500 1.05000 0.06100
v -0.45500 1.09000 0.06100
v -0.45500 1.09000 0.04900
v -0.45500 1.09000 0.06100
v 0.45500 1.09000 0.06100
v 0.45500 1.09000 0.04900
v -0.45500 1.09000 0.04900
v -0.45500 1.05000 0.04900
v 0.45500 1.05000 0.04900
v 0.45500 1.05000 0.06100
v -0.45500 1.05000 0.06100
v -0.45500 1.05000 0.06100
v 0.45500 1.05000 0.06100
v 0.45500 1.09000 0.06100
v -0.45500 1.09000 0.06100
v 0.45500 1.05000 0.04900
v -0.45500 1.05000 0.04900
v -0.45500 1.09000 0.04900
v 0.45500 1.09000 0.04900
v 0.45500 1.67000 0.06100
v 0.45500 1.67000 0.04900
v 0.45500 1.71000 0.04900
v 0.45500 1.71000 0.06100
v -0.45500 1.67000 0.04900
v -0.45500 1.67000 0.06100
v -0.45500 1.71000 0.06100
v -0.45500 1.71000 0.04900
v -0.45500 1.71000 0.06100
v 0.45500 1.71000 0.06100
v 0.45500 1.71000 0.04900
v -0.45500 1.71000 0.04900
v -0.45500 1.67000 0.04900
v 0.45500 1.67000 0.04900
v 0.45500 1.67000 0.06100
v -0.45500 1.67000 0.06100
v -0.45500 1.67000 0.06100
v 0.45500 1.67000 0.06100
v 0.45500 1.71000 0.06100
v -0.45500 1.71000 0.06100
v 0.45500 1.67000 0.04900
v -0.45500 1.67000 0.04900
v -0.45500 1.71000 0.04900
v 0.45500 1.71000 0.04900
v 0.43000 0.90000 0.08000
v 0.43000 0.90000 0.04000
v 0.43000 1.14000 0.04000
v 0.43000 1.14000 0.08000
v 0.38000 0.90000 0.04000
v 0.38000 0.90000 0.08000
v 0.38000 1.14000 0.08000
v 0.38000 1.14000 0.04000
v 0.38000 1.14000 0.08000
v 0.43000 1.14000 0.08000
v 0.43000 1.14000 0.04000
v 0.38000 1.14000 0.04000
v 0.38000 0.90000 0.04000
v 0.43000 0.90000 0.04000
v 0.43000 0.90000 0.08000
v 0.38000 0.90000 0.08000
v 0.38000 0.90000 0.08000
v 0.43000 0.90000 0.08000
v 0.43000 1.14000 0.08000
v 0.38000 1.14000 0.08000
v 0.43000 0.90000 0.04000
v 0.38000 0.90000 0.04000
v 0.38000 1.14000 0.04000
v 0.43000 1.14000 0.04000
v 0.17000 1.50000 0.05900
v 0.17000 1.50000 0.05100
v 0.17000 1.74000 0.05100
v 0.17000 1.74000 0.05900
v -0.17000 1.50000 0.05100
v -0.17000 1.50000 0.05900
v -0.17000 1.74000 0.05900
v -0.17000 1.74000 0.05100
v -0.17000 1.74000 0.05900
v 0.17000 1.74000 0.05900
v 0.17000 1.74000 0.05100
v -0.17000 1.74000 0.05100
v -0.17000 1.50000 0.05100
v 0.17000 1.50000 0.05100
v 0.17000 1.50000 0.05900
v -0.17000 1.50000 0.05900
v -0.17000 1.50000 0.05900
v 0.17000 1.50000 0.05900
v 0.17000 1.74000 0.05900
v -0.17000 1.74000 0.05900
v 0.17000 1.50000 0.05100
v -0.17000 1.50000 0.05100
v -0.17000 1.74000 0.05100
v 0.17000 1.74000 0.05100
v 0.37500 0.12700 0.06500
v 0.37500 0.12700 0.05100
v 0.37500 0.15300 0.05100
v 0.37500 0.15300 0.06500
v -0.37500 0.12700 0.05100
v -0.37500 0.12700 0.06500
v -0.37500 0.15300 0.06500
v -0.37500 0.15300 0.05100
v -0.37500 0.15300 0.06500
v 0.37500 0.15300 0.06500
v 0.37500 0.15300 0.05100
v -0.37500 0.15300 0.05100
v -0.37500 0.12700 0.05100
v 0.37500 0.12700 0.05100
v 0.37500 0.12700 0.06500
v -0.37500 0.12700 0.06500
v -0.37500 0.12700 0.06500
v 0.37500 0.12700 0.06500
v 0.37500 0.15300 0.06500
v -0.37500 0.15300 0.06500
v 0.37500 0.12700 0.05100
v -0.37500 0.12700 0.05100
v -0.37500 0.15300 0.05100
v 0.37500 0.15300 0.05100
v 0.37500 0.17200 0.06500
v 0.37500 0.17200 0.05100
v 0.37500 0.19800 0.05100
v 0.37500 0.19800 0.06500
v -0.37500 0.17200 0.05100
v -0.37500 0.17200 0.06500
v -0.37500 0.19800 0.06500
v -0.37500 0.19800 0.05100
v -0.37500 0.19800 0.06500
v 0.37500 0.19800 0.06500
v 0.37500 0.19800 0.05100
v -0.37500 0.19800 0.05100
v -0.37500 0.17200 0.05100
v 0.37500 0.17200 0.05100
v 0.37500 0.17200 0.06500
v -0.37500 0.17200 0.06500
v -0.37500 0.17200 0.06500
v 0.37500 0.17200 0.06500
v 0.37500 0.19800 0.06500
v -0.37500 0.19800 0.06500
v 0.37500 0.17200 0.05100
v -0.37500 0.17200 0.05100
v -0.37500 0.19800 0.05100
v 0.37500 0.19800 0.05100
v 0.37500 0.21700 0.06500
v 0.37500 0.21700 0.05100
v 0.37500 0.24300 0.05100
v 0.37500 0.24300 0.06500
v -0.37500 0.21700 0.05100
v -0.37500 0.21700 0.06500
v -0.37500 0.24300 0.06500
v -0.37500 0.24300 0.05100
v -0.37500 0.24300 0.06500
v 0.37500 0.24300 0.06500
v 0.37500 0.24300 0.05100
v -0.37500 0.24300 0.05100
v -0.37500 0.21700 0.05100
v 0.37500 0.21700 0.05100
v 0.37500 0.21700 0.06500
v -0.37500 0.21700 0.06500
v -0.37500 0.21700 0.06500
v 0.37500 0.21700 0.06500
v 0.37500 0.24300 0.06500
v -0.37500 0.24300 0.06500
v 0.37500 0.21700 0.05100
v -0.37500 0.21700 0.05100
v -0.37500 0.24300 0.05100
v 0.37500 0.24300 0.05100
v 0.37500 0.26200 0.06500
v 0.37500 0.26200 0.05100
v 0.37500 0.28800 0.05100
v 0.37500 0.28800 0.06500
v -0.37500 0.26200 0.05100
v -0.37500 0.26200 0.06500
v -0.37500 0.28800 0.06500
v -0.37500 0.28800 0.05100
v -0.37500 0.28800 0.06500
v 0.37500 0.28800 0.06500
v 0.37500 0.28800 0.05100
v -0.37500 0.28800 0.05100
v -0.37500 0.26200 0.05100
v 0.37500 0.26200 0.05100
v 0.37500 0.26200 0.06500
v -0.37500 0.26200 0.06500
v -0.37500 0.26200 0.06500
v 0.37500 0.26200 0.06500
v 0.37500 0.28800 0.06500
v -0.37500 0.28800 0.06500
v 0.37500 0.26200 0.05100
v -0.37500 0.26200 0.05100
v -0.37500 0.28800 0.05100
v 0.37500 0.28800 0.05100
v 0.37500 0.30700 0.06500
v 0.37500 0.30700 0.05100
v 0.37500 0.33300 0.05100
v 0.37500 0.33300 0.06500
v -0.37500 0.30700 0.05100
v -0.37500 0.30700 0.06500
v -0.37500 0.33300 0.06500
v -0.37500 0.33300 0.05100
v -0.37500 0.33300 0.06500
v 0.37500 0.33300 0.06500
v 0.37500 0.33300 0.05100
v -0.37500 0.33300 0.05100
v -0.37500 0.30700 0.05100
v 0.37500 0.30700 0.05100
v 0.37500 0.30700 0.06500
v -0.37500 0.30700 0.06500
v -0.37500 0.30700 0.06500
v 0.37500 0.30700 0.06500
v 0.37500 0.33300 0.06500
v -0.37500 0.33300 0.06500
v 0.37500 0.30700 0.05100
v -0.37500 0.30700 0.05100
v -0.37500 0.33300 0.05100
v 0.37500 0.33300 0.05100
vt 0.00000 -0.11667
vt 0.20000 -0.11667
vt 0.20000 3.70000
vt 0.00000 3.70000
vt -0.20000 -0.11667
vt 0.00000 -0.11667
vt 0.00000 3.70000
vt -0.20000 3.70000
vt -1.07500 0.00000
vt 1.07500 0.00000
vt 1.07500 0.20000
vt -1.07500 0.20000
vt -1.07500 -0.20000
vt 1.07500 -0.20000
vt 1.07500 0.00000
vt -1.07500 0.00000
vt -1.07500 -0.11667
vt 1.07500 -0.11667
vt 1.07500 3.70000
vt -1.07500 3.70000
vt -1.07500 -0.11667
vt 1.07500 -0.11667
vt 1.07500 3.70000
vt -1.07500 3.70000
vt -2.12600 -0.03600
vt 2.12600 -0.03600
vt 2.12600 0.03600
vt -2.12600 0.03600
vt -2.12600 0.03600
vt 2.12600 0.03600
vt 2.12600 -0.03600
vt -2.12600 -0.03600
vt -1.02600 0.03600
vt 1.02600 0.03600
vt 1.02600 -0.03600
vt -1.02600 -0.03600
vt -1.02600 -0.03600
vt 1.02600 -0.03600
vt 1.02600 0.03600
vt -1.02600 0.03600
vt -1.02600 -2.12600
vt 1.02600 -2.12600
vt 1.02600 2.12600
vt -1.02600 2.12600
vt -1.02600 2.12600
vt 1.02600 2.12600
vt 1.02600 -2.12600
vt -1.02600 -2.12600
vt 0.00000 0.00000
vt 2.10000 0.00000
vt 2.10000 0.02400
vt 0.00000 0.02400
vt 0.00000 0.00000
vt 2.10000 0.00000
vt 2.10000 0.02400
vt 0.00000 0.02400
vt 0.00000 0.00000
vt 2.10000 0.00000
vt 2.10000 0.02400
vt 0.00000 0.02400
vt 0.00000 0.00000
vt 2.10000 0.00000
vt 2.10000 0.02400
vt 0.00000 0.02400
vt 0.00000 0.00000
vt 4.30000 0.00000
vt 4.30000 0.02400
vt 0.00000 0.02400
vt 0.00000 0.00000
vt 4.30000 0.00000
vt 4.30000 0.02400
vt 0.00000 0.02400
vt 0.00000 0.00000
vt 4.30000 0.00000
vt 4.30000 0.02400
vt 0.00000 0.02400
vt 0.00000 0.00000
vt 4.30000 0.00000
vt 4.30000 0.02400
vt 0.00000 0.02400
vt 0.00000 0.00000
vt 0.12000 0.00000
vt 0.12000 0.02400
vt 0.00000 0.02400
vt 0.00000 0.00000
vt 0.12000 0.00000
vt 0.12000 0.02400
vt 0.00000 0.02400
vt 0.00000 0.00000
vt 0.12000 0.00000
vt 0.12000 0.02400
vt 0.00000 0.02400
vt 0.00000 0.00000
vt 0.12000 0.00000
vt 0.12000 0.02400
vt 0.00000 0.02400
vt 0.00000 0.00000
vt 0.02400 0.00000
vt 0.00000 0.02400
vt 0.00000 0.00000
vt 0.02400 0.00000
vt 0.00000 0.02400
vt 0.00000 0.00000
vt 0.02400 0.00000
vt 0.00000 0.02400
vt 0.00000 0.00000
vt 0.02400 0.00000
vt 0.00000 0.02400
vt 0.00000 0.00000
vt 0.02400 0.00000
vt 0.00000 0.02400
vt 0.00000 0.00000
vt 0.02400 0.00000
vt 0.00000 0.02400
vt 0.00000 0.00000
vt 0.02400 0.00000
vt 0.00000 0.02400
vt 0.00000 0.00000
vt 0.02400 0.00000
vt 0.00000 0.02400
vt -0.30500 2.15000
vt -0.24500 2.15000
vt -0.24500 2.35000
vt -0.30500 2.35000
vt 0.24500 2.15000
vt 0.30500 2.15000
vt 0.30500 2.35000
vt 0.24500 2.35000
vt -2.27500 -0.30500
vt 2.27500 -0.30500
vt 2.27500 -0.24500
vt -2.27500 -0.24500
vt -2.27500 0.24500
vt 2.27500 0.24500
vt 2.27500 0.30500
vt -2.27500 0.30500
vt -2.27500 2.15000
vt 2.27500 2.15000
vt 2.27500 2.35000
vt -2.27500 2.35000
vt -2.27500 2.15000
vt 2.27500 2.15000
vt 2.27500 2.35000
vt -2.27500 2.35000
vt -0.30500 5.25000
vt -0.24500 5.25000
vt -0.24500 5.45000
vt -0.30500 5.45000
vt 0.24500 5.25000
vt 0.30500 5.25000
vt 0.30500 5.45000
vt 0.24500 5.45000
vt -2.27500 -0.30500
vt 2.27500 -0.30500
vt 2.27500 -0.24500
vt -2.27500 -0.24500
vt -2.27500 0.24500
vt 2.27500 0.24500
vt 2.27500 0.30500
vt -2.27500 0.30500
vt -2.27500 5.25000
vt 2.27500 5.25000
vt 2.27500 5.45000
vt -2.27500 5.45000
vt -2.27500 5.25000
vt 2.27500 5.25000
vt 2.27500 5.45000
vt -2.27500 5.45000
vt -0.30500 8.35000
vt -0.24500 8.35000
vt -0.24500 8.55000
vt -0.30500 8.55000
vt 0.24500 8.35000
vt 0.30500 8.35000
vt 0.30500 8.55000
vt 0.24500 8.55000
vt -2.27500 -0.30500
vt 2.27500 -0.30500
vt 2.27500 -0.24500
vt -2.27500 -0.24500
vt -2.27500 0.24500
vt 2.27500 0.24500
vt 2.27500 0.30500
vt -2.27500 0.30500
vt -2.27500 8.35000
vt 2.27500 8.35000
vt 2.27500 8.55000
vt -2.27500 8.55000
vt -2.27500 8.35000
vt 2.27500 8.35000
vt 2.27500 8.55000
vt -2.27500 8.55000
vt -0.80000 9.00000
vt -0.40000 9.00000
vt -0.40000 11.40000
vt -0.80000 11.40000
vt 0.40000 9.00000
vt 0.80000 9.00000
vt 0.80000 11.40000
vt 0.40000 11.40000
vt 3.80000 -0.80000
vt 4.30000 -0.80000
vt 4.30000 -0.40000
vt 3.80000 -0.40000
vt 3.80000 0.40000
vt 4.30000 0.40000
vt 4.30000 0.80000
vt 3.80000 0.80000
vt 3.80000 9.00000
vt 4.30000 9.00000
vt 4.30000 11.40000
vt 3.80000 11.40000
vt -4.30000 9.00000
vt -3.80000 9.00000
vt -3.80000 11.40000
vt -4.30000 11.40000
vt -0.29500 7.50000
vt -0.25500 7.50000
vt -0.25500 8.70000
vt -0.29500 8.70000
vt 0.25500 7.50000
vt 0.29500 7.50000
vt 0.29500 8.70000
vt 0.25500 8.70000
vt -0.85000 -0.29500
vt 0.85000 -0.29500
vt 0.85000 -0.25500
vt -0.85000 -0.25500
vt -0.85000 0.25500
vt 0.85000 0.25500
vt 0.85000 0.29500
vt -0.85000 0.29500
vt -0.85000 7.50000
vt 0.85000 7.50000
vt 0.85000 8.70000
vt -0.85000 8.70000
vt -0.85000 7.50000
vt 0.85000 7.50000
vt 0.85000 8.70000
vt -0.85000 8.70000
vt -0.65000 1.27000
vt -0.51000 1.27000
vt -0.51000 1.53000
vt -0.65000 1.53000
vt 0.51000 1.27000
vt 0.65000 1.27000
vt 0.65000 1.53000
vt 0.51000 1.53000
vt -3.75000 -0.65000
vt 3.75000 -0.65000
vt 3.75000 -0.51000
vt -3.75000 -0.51000
vt -3.75000 0.51000
vt 3.75000 0.51000
vt 3.75000 0.65000
vt -3.75000 0.65000
vt -3.75000 1.27000
vt 3.75000 1.27000
vt 3.75000 1.53000
vt -3.75000 1.53000
vt -3.75000 1.27000
vt 3.75000 1.27000
vt 3.75000 1.53000
vt -3.75000 1.53000
vt -0.65000 1.72000
vt -0.51000 1.72000
vt -0.51000 1.98000
vt -0.65000 1.98000
vt 0.51000 1.72000
vt 0.65000 1.72000
vt 0.65000 1.98000
vt 0.51000 1.98000
vt -3.75000 -0.65000
vt 3.75000 -0.65000
vt 3.75000 -0.51000
vt -3.75000 -0.51000
vt -3.75000 0.51000
vt 3.75000 0.51000
vt 3.75000 0.65000
vt -3.75000 0.65000
vt -3.75000 1.72000
vt 3.75000 1.72000
vt 3.75000 1.98000
vt -3.75000 1.98000
vt -3.75000 1.72000
vt 3.75000 1.72000
vt 3.75000 1.98000
vt -3.75000 1.98000
vt -0.65000 2.17000
vt -0.51000 2.17000
vt -0.51000 2.43000
vt -0.65000 2.43000
vt 0.51000 2.17000
vt 0.65000 2.17000
vt 0.65000 2.43000
vt 0.51000 2.43000
vt -3.75000 -0.65000
vt 3.75000 -0.65000
vt 3.75000 -0.51000
vt -3.75000 -0.51000
vt -3.75000 0.51000
vt 3.75000 0.51000
vt 3.75000 0.65000
vt -3.75000 0.65000
vt -3.75000 2.17000
vt 3.75000 2.17000
vt 3.75000 2.43000
vt -3.75000 2.43000
vt -3.75000 2.17000
vt 3.75000 2.17000
vt 3.75000 2.43000
vt -3.75000 2.43000
vt -0.65000 2.62000
vt -0.51000 2.62000
vt -0.51000 2.88000
vt -0.65000 2.88000
vt 0.51000 2.62000
vt 0.65000 2.62000
vt 0.65000 2.88000
vt 0.51000 2.88000
vt -3.75000 -0.65000
vt 3.75000 -0.65000
vt 3.75000 -0.51000
vt -3.75000 -0.51000
vt -3.75000 0.51000
vt 3.75000 0.51000
vt 3.75000 0.65000
vt -3.75000 0.65000
vt -3.75000 2.62000
vt 3.75000 2.62000
vt 3.75000 2.88000
vt -3.75000 2.88000
vt -3.75000 2.62000
vt 3.75000 2.62000
vt 3.75000 2.88000
vt -3.75000 2.88000
vt -0.65000 3.07000
vt -0.51000 3.07000
vt -0.51000 3.33000
vt -0.65000 3.33000
vt 0.51000 3.07000
vt 0.65000 3.07000
vt 0.65000 3.33000
vt 0.51000 3.33000
vt -3.75000 -0.65000
vt 3.75000 -0.65000
vt 3.75000 -0.51000
vt -3.75000 -0.51000
vt -3.75000 0.51000
vt 3.75000 0.51000
vt 3.75000 0.65000
vt -3.75000 0.65000
vt -3.75000 3.07000
vt 3.75000 3.07000
vt 3.75000 3.33000
vt -3.75000 3.33000
vt -3.75000 3.07000
vt 3.75000 3.07000
vt 3.75000 3.33000
vt -3.75000 3.33000
vn 1.00000 0.00000 0.00000
vn -1.00000 0.00000 0.00000
vn 0.00000 1.00000 0.00000
vn 0.00000 -1.00000 0.00000
vn 0.00000 0.00000 1.00000
vn 0.00000 0.00000 -1.00000
vn 1.00000 0.00000 0.00000
vn -1.00000 0.00000 0.00000
vn 0.00000 1.00000 0.00000
vn 0.00000 -1.00000 0.00000
vn 0.00000 0.00000 1.00000
vn 0.00000 0.00000 -1.00000
vn -0.00000 0.70711 0.70711
vn 0.00000 -0.70711 0.70711
vn 0.00000 0.70711 -0.70711
vn -0.00000 -0.70711 -0.70711
vn -0.70711 0.00000 -0.70711
vn 0.70711 -0.00000 -0.70711
vn -0.70711 -0.00000 0.70711
vn 0.70711 0.00000 0.70711
vn 0.70711 0.70711 -0.00000
vn -0.70711 0.70711 0.00000
vn 0.70711 -0.70711 0.00000
vn -0.70711 -0.70711 -0.00000
vn 0.57735 0.57735 0.57735
vn -0.57735 -0.57735 0.57735
vn -0.57735 0.57735 -0.57735
vn 0.57735 -0.57735 -0.57735
vn 0.57735 -0.57735 -0.57735
vn -0.57735 0.57735 -0.57735
vn -0.57735 -0.57735 0.57735
vn 0.57735 0.57735 0.57735
vn 1.00000 0.00000 0.00000
vn -1.00000 0.00000 0.00000
vn 0.00000 1.00000 0.00000
vn 0.00000 -1.00000 0.00000
vn 0.00000 0.00000 1.00000
vn 0.00000 0.00000 -1.00000
vn 1.00000 0.00000 0.00000
vn -1.00000 0.00000 0.00000
vn 0.00000 1.00000 0.00000
vn 0.00000 -1.00000 0.00000
vn 0.00000 0.00000 1.00000
vn 0.00000 0.00000 -1.00000
vn 1.00000 0.00000 0.00000
vn -1.00000 0.00000 0.00000
vn 0.00000 1.00000 0.00000
vn 0.00000 -1.00000 0.00000
vn 0.00000 0.00000 1.00000
vn 0.00000 0.00000 -1.00000
vn 1.00000 0.00000 0.00000
vn -1.00000 0.00000 0.00000
vn 0.00000 1.00000 0.00000
vn 0.00000 -1.00000 0.00000
vn 0.00000 0.00000 1.00000
vn 0.00000 0.00000 -1.00000
vn 1.00000 0.00000 0.00000
vn -1.00000 0.00000 0.00000
vn 0.00000 1.00000 0.00000
vn 0.00000 -1.00000 0.00000
vn 0.00000 0.00000 1.00000
vn 0.00000 0.00000 -1.00000
vn 1.00000 0.00000 0.00000
vn -1.00000 0.00000 0.00000
vn 0.00000 1.00000 0.00000
vn 0.00000 -1.00000 0.00000
vn 0.00000 0.00000 1.00000
vn 0.00000 0.00000 -1.00000
vn 1.00000 0.00000 0.00000
vn -1.00000 0.00000 0.00000
vn 0.00000 1.00000 0.00000
vn 0.00000 -1.00000 0.00000
vn 0.00000 0.00000 1.00000
vn 0.00000 0.00000 -1.00000
vn 1.00000 0.00000 0.00000
vn -1.00000 0.00000 0.00000
vn 0.00000 1.00000 0.00000
vn 0.00000 -1.00000 0.00000
vn 0.00000 0.00000 1.00000
vn 0.00000 0.00000 -1.00000
vn 1.00000 0.00000 0.00000
vn -1.00000 0.00000 0.00000
vn 0.00000 1.00000 0.00000
vn 0.00000 -1.00000 0.00000
vn 0.00000 0.00000 1.00000
vn 0.00000 0.00000 -1.00000
vn 1.00000 0.00000 0.00000
vn -1.00000 0.00000 0.00000
vn 0.00000 1.00000 0.00000
vn 0.00000 -1.00000 0.00000
vn 0.00000 0.00000 1.00000
vn 0.00000 0.00000 -1.00000
usemtl concrete_dark
f 1/1/1 2/2/1 3/3/1 4/4/1
f 5/5/2 6/6/2 7/7/2 8/8/2
f 9/9/3 10/10/3 11/11/3 12/12/3
f 13/13/4 14/14/4 15/15/4 16/16/4
f 17/17/5 18/18/5 19/19/5 20/20/5
f 21/21/6 22/22/6 23/23/6 24/24/6
usemtl paint_blue
f 25/25/7 26/26/7 27/27/7 28/28/7
f 29/29/8 30/30/8 31/31/8 32/32/8
f 33/33/9 34/34/9 35/35/9 36/36/9
f 37/37/10 38/38/10 39/39/10 40/40/10
f 41/41/11 42/42/11 43/43/11 44/44/11
f 45/45/12 46/46/12 47/47/12 48/48/12
f 49/49/13 50/50/13 51/51/13 52/52/13
f 53/53/14 54/54/14 55/55/14 56/56/14
f 57/57/15 58/58/15 59/59/15 60/60/15
f 61/61/16 62/62/16 63/63/16 64/64/16
f 65/65/17 66/66/17 67/67/17 68/68/17
f 69/69/18 70/70/18 71/71/18 72/72/18
f 73/73/19 74/74/19 75/75/19 76/76/19
f 77/77/20 78/78/20 79/79/20 80/80/20
f 81/81/21 82/82/21 83/83/21 84/84/21
f 85/85/22 86/86/22 87/87/22 88/88/22
f 89/89/23 90/90/23 91/91/23 92/92/23
f 93/93/24 94/94/24 95/95/24 96/96/24
f 97/97/25 98/98/25 99/99/25
f 100/100/26 101/101/26 102/102/26
f 103/103/27 104/104/27 105/105/27
f 106/106/28 107/107/28 108/108/28
f 109/109/29 110/110/29 111/111/29
f 112/112/30 113/113/30 114/114/30
f 115/115/31 116/116/31 117/117/31
f 118/118/32 119/119/32 120/120/32
usemtl steel_dark
f 121/121/33 122/122/33 123/123/33 124/124/33
f 125/125/34 126/126/34 127/127/34 128/128/34
f 129/129/35 130/130/35 131/131/35 132/132/35
f 133/133/36 134/134/36 135/135/36 136/136/36
f 137/137/37 138/138/37 139/139/37 140/140/37
f 141/141/38 142/142/38 143/143/38 144/144/38
f 145/145/39 146/146/39 147/147/39 148/148/39
f 149/149/40 150/150/40 151/151/40 152/152/40
f 153/153/41 154/154/41 155/155/41 156/156/41
f 157/157/42 158/158/42 159/159/42 160/160/42
f 161/161/43 162/162/43 163/163/43 164/164/43
f 165/165/44 166/166/44 167/167/44 168/168/44
f 169/169/45 170/170/45 171/171/45 172/172/45
f 173/173/46 174/174/46 175/175/46 176/176/46
f 177/177/47 178/178/47 179/179/47 180/180/47
f 181/181/48 182/182/48 183/183/48 184/184/48
f 185/185/49 186/186/49 187/187/49 188/188/49
f 189/189/50 190/190/50 191/191/50 192/192/50
f 193/193/51 194/194/51 195/195/51 196/196/51
f 197/197/52 198/198/52 199/199/52 200/200/52
f 201/201/53 202/202/53 203/203/53 204/204/53
f 205/205/54 206/206/54 207/207/54 208/208/54
f 209/209/55 210/210/55 211/211/55 212/212/55
f 213/213/56 214/214/56 215/215/56 216/216/56
f 241/241/63 242/242/63 243/243/63 244/244/63
f 245/245/64 246/246/64 247/247/64 248/248/64
f 249/249/65 250/250/65 251/251/65 252/252/65
f 253/253/66 254/254/66 255/255/66 256/256/66
f 257/257/67 258/258/67 259/259/67 260/260/67
f 261/261/68 262/262/68 263/263/68 264/264/68
f 265/265/69 266/266/69 267/267/69 268/268/69
f 269/269/70 270/270/70 271/271/70 272/272/70
f 273/273/71 274/274/71 275/275/71 276/276/71
f 277/277/72 278/278/72 279/279/72 280/280/72
f 281/281/73 282/282/73 283/283/73 284/284/73
f 285/285/74 286/286/74 287/287/74 288/288/74
f 289/289/75 290/290/75 291/291/75 292/292/75
f 293/293/76 294/294/76 295/295/76 296/296/76
f 297/297/77 298/298/77 299/299/77 300/300/77
f 301/301/78 302/302/78 303/303/78 304/304/78
f 305/305/79 306/306/79 307/307/79 308/308/79
f 309/309/80 310/310/80 311/311/80 312/312/80
f 313/313/81 314/314/81 315/315/81 316/316/81
f 317/317/82 318/318/82 319/319/82 320/320/82
f 321/321/83 322/322/83 323/323/83 324/324/83
f 325/325/84 326/326/84 327/327/84 328/328/84
f 329/329/85 330/330/85 331/331/85 332/332/85
f 333/333/86 334/334/86 335/335/86 336/336/86
f 337/337/87 338/338/87 339/339/87 340/340/87
f 341/341/88 342/342/88 343/343/88 344/344/88
f 345/345/89 346/346/89 347/347/89 348/348/89
f 349/349/90 350/350/90 351/351/90 352/352/90
f 353/353/91 354/354/91 355/355/91 356/356/91
f 357/357/92 358/358/92 359/359/92 360/360/92
usemtl paint_yellow
f 217/217/57 218/218/57 219/219/57 220/220/57
f 221/221/58 222/222/58 223/223/58 224/224/58
f 225/225/59 226/226/59 227/227/59 228/228/59
f 229/229/60 230/230/60 231/231/60 232/232/60
f 233/233/61 234/234/61 235/235/61 236/236/61
f 237/237/62 238/238/62 239/239/62 240/240/62
