# generated by meshlib
mtllib hall_wall.mtl
o hall_wall
v 24.00000 -1.65000 -0.35000
v 24.00000 -1.65000 -0.55000
v 24.00000 4.60000 -0.55000
v 24.00000 4.60000 -0.35000
v -24.00000 -1.65000 -0.55000
v -24.00000 -1.65000 -0.35000
v -24.00000 4.60000 -0.35000
v -24.00000 4.60000 -0.55000
v -24.00000 4.60000 -0.35000
v 24.00000 4.60000 -0.35000
v 24.00000 4.60000 -0.55000
v -24.00000 4.60000 -0.55000
v -24.00000 -1.65000 -0.55000
v 24.00000 -1.65000 -0.55000
v 24.00000 -1.65000 -0.35000
v -24.00000 -1.65000 -0.35000
v 24.00000 -1.65000 -0.55000
v -24.00000 -1.65000 -0.55000
v -24.00000 4.60000 -0.55000
v 24.00000 4.60000 -0.55000
v -24.00000 -1.65000 0.00000
v 24.00000 -1.65000 0.00000
v 24.00000 0.10000 0.00000
v -24.00000 0.10000 0.00000
v 24.00000 0.10000 0.00000
v 24.00000 0.10000 -0.08000
v 24.00000 0.22000 -0.08000
v 24.00000 0.22000 0.00000
v -24.00000 0.10000 -0.08000
v -24.00000 0.10000 0.00000
v -24.00000 0.22000 0.00000
v -24.00000 0.22000 -0.08000
v -24.00000 0.22000 0.00000
v 24.00000 0.22000 0.00000
v 24.00000 0.22000 -0.08000
v -24.00000 0.22000 -0.08000
v -24.00000 0.10000 -0.08000
v 24.00000 0.10000 -0.08000
v 24.00000 0.10000 0.00000
v -24.00000 0.10000 0.00000
v -24.00000 0.10000 0.00000
v 24.00000 0.10000 0.00000
v 24.00000 0.22000 0.00000
v -24.00000 0.22000 0.00000
v 24.00000 0.10000 -0.08000
v -24.00000 0.10000 -0.08000
v -24.00000 0.22000 -0.08000
v 24.00000 0.22000 -0.08000
v -24.00000 0.22000 0.00000
v 24.00000 0.22000 0.00000
v 24.00000 2.55000 0.00000
v -24.00000 2.55000 0.00000
v -24.00000 2.55000 0.00000
v 24.00000 2.55000 0.00000
v 24.00000 2.95000 0.00000
v -24.00000 2.95000 0.00000
v 24.00000 2.94000 0.00000
v 24.00000 2.94000 -0.10000
v 24.00000 3.04000 -0.10000
v 24.00000 3.04000 0.00000
v -24.00000 2.94000 -0.10000
v -24.00000 2.94000 0.00000
v -24.00000 3.04000 0.00000
v -24.00000 3.04000 -0.10000
v -24.00000 3.04000 0.00000
v 24.00000 3.04000 0.00000
v 24.00000 3.04000 -0.10000
v -24.00000 3.04000 -0.10000
v -24.00000 2.94000 -0.10000
v 24.00000 2.94000 -0.10000
v 24.00000 2.94000 0.00000
v -24.00000 2.94000 0.00000
v -24.00000 2.94000 0.00000
v 24.00000 2.94000 0.00000
v 24.00000 3.04000 0.00000
v -24.00000 3.04000 0.00000
v 24.00000 2.94000 -0.10000
v -24.00000 2.94000 -0.10000
v -24.00000 3.04000 -0.10000
v 24.00000 3.04000 -0.10000
v -24.00000 3.05000 0.00000
v 24.00000 3.05000 0.00000
v 24.00000 4.60000 0.00000
v -24.00000 4.60000 0.00000
v -24.00000 4.28000 0.00000
v -24.00000 4.44000 0.00000
v 24.00000 4.44000 0.00000
v 24.00000 4.28000 0.00000
v -24.00000 4.44000 0.00000
v -24.00000 4.44000 0.06000
v 24.00000 4.44000 0.06000
v 24.00000 4.44000 0.00000
v -24.00000 4.44000 0.06000
v -24.00000 4.35000 0.12000
v 24.00000 4.35000 0.12000
v 24.00000 4.44000 0.06000
v -24.00000 4.35000 0.12000
v -24.00000 4.35000 0.20000
v 24.00000 4.35000 0.20000
v 24.00000 4.35000 0.12000
v -24.00000 4.35000 0.20000
v -24.00000 4.28000 0.20000
v 24.00000 4.28000 0.20000
v 24.00000 4.35000 0.20000
v -24.00000 4.28000 0.20000
v -24.00000 4.28000 0.00000
v 24.00000 4.28000 0.00000
v 24.00000 4.28000 0.20000
v -24.00000 4.28000 0.20000
v -24.00000 4.35000 0.20000
v -24.00000 4.35000 0.12000
v -24.00000 4.44000 0.06000
v -24.00000 4.44000 0.00000
v -24.00000 4.28000 0.00000
v 24.00000 4.28000 0.00000
v 24.00000 4.44000 0.00000
v 24.00000 4.44000 0.06000
v 24.00000 4.35000 0.12000
v 24.00000 4.35000 0.20000
v 24.00000 4.28000 0.20000
v -23.77000 -1.45000 0.18000
v -23.77000 -1.45000 0.00000
v -23.77000 4.60000 0.00000
v -23.77000 4.60000 0.18000
v -24.23000 -1.45000 0.00000
v -24.23000 -1.45000 0.18000
v -24.23000 4.60000 0.18000
v -24.23000 4.60000 0.00000
v -24.23000 -1.45000 0.18000
v -23.77000 -1.45000 0.18000
v -23.77000 4.60000 0.18000
v -24.23000 4.60000 0.18000
v -23.69000 4.19000 0.26000
v -23.69000 4.19000 0.00000
v -23.69000 4.41000 0.00000
v -23.69000 4.41000 0.26000
v -24.31000 4.19000 0.00000
v -24.31000 4.19000 0.26000
v -24.31000 4.41000 0.26000
v -24.31000 4.41000 0.00000
v -24.31000 4.41000 0.26000
v -23.69000 4.41000 0.26000
v -23.69000 4.41000 0.00000
v -24.31000 4.41000 0.00000
v -24.31000 4.19000 0.00000
v -23.69000 4.19000 0.00000
v -23.69000 4.19000 0.26000
v -24.31000 4.19000 0.26000
v -24.31000 4.19000 0.26000
v -23.69000 4.19000 0.26000
v -23.69000 4.41000 0.26000
v -24.31000 4.41000 0.26000
v -23.69000 4.19000 0.00000
v -24.31000 4.19000 0.00000
v -24.31000 4.41000 0.00000
v -23.69000 4.41000 0.00000
v -23.69000 -1.48000 0.26000
v -23.69000 -1.48000 0.00000
v -23.69000 -1.18000 0.00000
v -23.69000 -1.18000 0.26000
v -24.31000 -1.48000 0.00000
v -24.31000 -1.48000 0.26000
v -24.31000 -1.18000 0.26000
v -24.31000 -1.18000 0.00000
v -24.31000 -1.18000 0.26000
v -23.69000 -1.18000 0.26000
v -23.69000 -1.18000 0.00000
v -24.31000 -1.18000 0.00000
v -24.31000 -1.48000 0.00000
v -23.69000 -1.48000 0.00000
v -23.69000 -1.48000 0.26000
v -24.31000 -1.48000 0.26000
v -24.31000 -1.48000 0.26000
v -23.69000 -1.48000 0.26000
v -23.69000 -1.18000 0.26000
v -24.31000 -1.18000 0.26000
v -23.69000 -1.48000 0.00000
v -24.31000 -1.48000 0.00000
v -24.31000 -1.18000 0.00000
v -23.69000 -1.18000 0.00000
v -17.77000 -1.45000 0.18000
v -17.77000 -1.45000 0.00000
v -17.77000 4.60000 0.00000
v -17.77000 4.60000 0.18000
v -18.23000 -1.45000 0.00000
v -18.23000 -1.45000 0.18000
v -18.23000 4.60000 0.18000
v -18.23000 4.60000 0.00000
v -18.23000 -1.45000 0.18000
v -17.77000 -1.45000 0.18000
v -17.77000 4.60000 0.18000
v -18.23000 4.60000 0.18000
v -17.69000 4.19000 0.26000
v -17.69000 4.19000 0.00000
v -17.69000 4.41000 0.00000
v -17.69000 4.41000 0.26000
v -18.31000 4.19000 0.00000
v -18.31000 4.19000 0.26000
v -18.31000 4.41000 0.26000
v -18.31000 4.41000 0.00000
v -18.31000 4.41000 0.26000
v -17.69000 4.41000 0.26000
v -17.69000 4.41000 0.00000
v -18.31000 4.41000 0.00000
v -18.31000 4.19000 0.00000
v -17.69000 4.19000 0.00000
v -17.69000 4.19000 0.26000
v -18.31000 4.19000 0.26000
v -18.31000 4.19000 0.26000
v -17.69000 4.19000 0.26000
v -17.69000 4.41000 0.26000
v -18.31000 4.41000 0.26000
v -17.69000 4.19000 0.00000
v -18.31000 4.19000 0.00000
v -18.31000 4.41000 0.00000
v -17.69000 4.41000 0.00000
v -17.69000 -1.48000 0.26000
v -17.69000 -1.48000 0.00000
v -17.69000 -1.18000 0.00000
v -17.69000 -1.18000 0.26000
v -18.31000 -1.48000 0.00000
v -18.31000 -1.48000 0.26000
v -18.31000 -1.18000 0.26000
v -18.31000 -1.18000 0.00000
v -18.31000 -1.18000 0.26000
v -17.69000 -1.18000 0.26000
v -17.69000 -1.18000 0.00000
v -18.31000 -1.18000 0.00000
v -18.31000 -1.48000 0.00000
v -17.69000 -1.48000 0.00000
v -17.69000 -1.48000 0.26000
v -18.31000 -1.48000 0.26000
v -18.31000 -1.48000 0.26000
v -17.69000 -1.48000 0.26000
v -17.69000 -1.18000 0.26000
v -18.31000 -1.18000 0.26000
v -17.69000 -1.48000 0.00000
v -18.31000 -1.48000 0.00000
v -18.31000 -1.18000 0.00000
v -17.69000 -1.18000 0.00000
v -11.77000 -1.45000 0.18000
v -11.77000 -1.45000 0.00000
v -11.77000 4.60000 0.00000
v -11.77000 4.60000 0.18000
v -12.23000 -1.45000 0.00000
v -12.23000 -1.45000 0.18000
v -12.23000 4.60000 0.18000
v -12.23000 4.60000 0.00000
v -12.23000 -1.45000 0.18000
v -11.77000 -1.45000 0.18000
v -11.77000 4.60000 0.18000
v -12.23000 4.60000 0.18000
v -11.69000 4.19000 0.26000
v -11.69000 4.19000 0.00000
v -11.69000 4.41000 0.00000
v -11.69000 4.41000 0.26000
v -12.31000 4.19000 0.00000
v -12.31000 4.19000 0.26000
v -12.31000 4.41000 0.26000
v -12.31000 4.41000 0.00000
v -12.31000 4.41000 0.26000
v -11.69000 4.41000 0.26000
v -11.69000 4.41000 0.00000
v -12.31000 4.41000 0.00000
v -12.31000 4.19000 0.00000
v -11.69000 4.19000 0.00000
v -11.69000 4.19000 0.26000
v -12.31000 4.19000 0.26000
v -12.31000 4.19000 0.26000
v -11.69000 4.19000 0.26000
v -11.69000 4.41000 0.26000
v -12.31000 4.41000 0.26000
v -11.69000 4.19000 0.00000
v -12.31000 4.19000 0.00000
v -12.31000 4.41000 0.00000
v -11.69000 4.41000 0.00000
v -11.69000 -1.48000 0.26000
v -11.69000 -1.48000 0.00000
v -11.69000 -1.18000 0.00000
v -11.69000 -1.18000 0.26000
v -12.31000 -1.48000 0.00000
v -12.31000 -1.48000 0.26000
v -12.31000 -1.18000 0.26000
v -12.31000 -1.18000 0.00000
v -12.31000 -1.18000 0.26000
v -11.69000 -1.18000 0.26000
v -11.69000 -1.18000 0.00000
v -12.31000 -1.18000 0.00000
v -12.31000 -1.48000 0.00000
v -11.69000 -1.48000 0.00000
v -11.69000 -1.48000 0.26000
v -12.31000 -1.48000 0.26000
v -12.31000 -1.48000 0.26000
v -11.69000 -1.48000 0.26000
v -11.69000 -1.18000 0.26000
v -12.31000 -1.18000 0.26000
v -11.69000 -1.48000 0.00000
v -12.31000 -1.48000 0.00000
v -12.31000 -1.18000 0.00000
v -11.69000 -1.18000 0.00000
v -5.77000 -1.45000 0.18000
v -5.77000 -1.45000 0.00000
v -5.77000 4.60000 0.00000
v -5.77000 4.60000 0.18000
v -6.23000 -1.45000 0.00000
v -6.23000 -1.45000 0.18000
v -6.23000 4.60000 0.18000
v -6.23000 4.60000 0.00000
v -6.23000 -1.45000 0.18000
v -5.77000 -1.45000 0.18000
v -5.77000 4.60000 0.18000
v -6.23000 4.60000 0.18000
v -5.69000 4.19000 0.26000
v -5.69000 4.19000 0.00000
v -5.69000 4.41000 0.00000
v -5.69000 4.41000 0.26000
v -6.31000 4.19000 0.00000
v -6.31000 4.19000 0.26000
v -6.31000 4.41000 0.26000
v -6.31000 4.41000 0.00000
v -6.31000 4.41000 0.26000
v -5.69000 4.41000 0.26000
v -5.69000 4.41000 0.00000
v -6.31000 4.41000 0.00000
v -6.31000 4.19000 0.00000
v -5.69000 4.19000 0.00000
v -5.69000 4.19000 0.26000
v -6.31000 4.19000 0.26000
v -6.31000 4.19000 0.26000
v -5.69000 4.19000 0.26000
v -5.69000 4.41000 0.26000
v -6.31000 4.41000 0.26000
v -5.69000 4.19000 0.00000
v -6.31000 4.19000 0.00000
v -6.31000 4.41000 0.00000
v -5.69000 4.41000 0.00000
v -5.69000 -1.48000 0.26000
v -5.69000 -1.48000 0.00000
v -5.69000 -1.18000 0.00000
v -5.69000 -1.18000 0.26000
v -6.31000 -1.48000 0.00000
v -6.31000 -1.48000 0.26000
v -6.31000 -1.18000 0.26000
v -6.31000 -1.18000 0.00000
v -6.31000 -1.18000 0.26000
v -5.69000 -1.18000 0.26000
v -5.69000 -1.18000 0.00000
v -6.31000 -1.18000 0.00000
v -6.31000 -1.48000 0.00000
v -5.69000 -1.48000 0.00000
v -5.69000 -1.48000 0.26000
v -6.31000 -1.48000 0.26000
v -6.31000 -1.48000 0.26000
v -5.69000 -1.48000 0.26000
v -5.69000 -1.18000 0.26000
v -6.31000 -1.18000 0.26000
v -5.69000 -1.48000 0.00000
v -6.31000 -1.48000 0.00000
v -6.31000 -1.18000 0.00000
v -5.69000 -1.18000 0.00000
v 0.23000 -1.45000 0.18000
v 0.23000 -1.45000 0.00000
v 0.23000 4.60000 0.00000
v 0.23000 4.60000 0.18000
v -0.23000 -1.45000 0.00000
v -0.23000 -1.45000 0.18000
v -0.23000 4.60000 0.18000
v -0.23000 4.60000 0.00000
v -0.23000 -1.45000 0.18000
v 0.23000 -1.45000 0.18000
v 0.23000 4.60000 0.18000
v -0.23000 4.60000 0.18000
v 0.31000 4.19000 0.26000
v 0.31000 4.19000 0.00000
v 0.31000 4.41000 0.00000
v 0.31000 4.41000 0.26000
v -0.31000 4.19000 0.00000
v -0.31000 4.19000 0.26000
v -0.31000 4.41000 0.26000
v -0.31000 4.41000 0.00000
v -0.31000 4.41000 0.26000
v 0.31000 4.41000 0.26000
v 0.31000 4.41000 0.00000
v -0.31000 4.41000 0.00000
v -0.31000 4.19000 0.00000
v 0.31000 4.19000 0.00000
v 0.31000 4.19000 0.26000
v -0.31000 4.19000 0.26000
v -0.31000 4.19000 0.26000
v 0.31000 4.19000 0.26000
v 0.31000 4.41000 0.26000
v -0.31000 4.41000 0.26000
v 0.31000 4.19000 0.00000
v -0.31000 4.19000 0.00000
v -0.31000 4.41000 0.00000
v 0.31000 4.41000 0.00000
v 0.31000 -1.48000 0.26000
v 0.31000 -1.48000 0.00000
v 0.31000 -1.18000 0.00000
v 0.31000 -1.18000 0.26000
v -0.31000 -1.48000 0.00000
v -0.31000 -1.48000 0.26000
v -0.31000 -1.18000 0.26000
v -0.31000 -1.18000 0.00000
v -0.31000 -1.18000 0.26000
v 0.31000 -1.18000 0.26000
v 0.31000 -1.18000 0.00000
v -0.31000 -1.18000 0.00000
v -0.31000 -1.48000 0.00000
v 0.31000 -1.48000 0.00000
v 0.31000 -1.48000 0.26000
v -0.31000 -1.48000 0.26000
v -0.31000 -1.48000 0.26000
v 0.31000 -1.48000 0.26000
v 0.31000 -1.18000 0.26000
v -0.31000 -1.18000 0.26000
v 0.31000 -1.48000 0.00000
v -0.31000 -1.48000 0.00000
v -0.31000 -1.18000 0.00000
v 0.31000 -1.18000 0.00000
v 6.23000 -1.45000 0.18000
v 6.23000 -1.45000 0.00000
v 6.23000 4.60000 0.00000
v 6.23000 4.60000 0.18000
v 5.77000 -1.45000 0.00000
v 5.77000 -1.45000 0.18000
v 5.77000 4.60000 0.18000
v 5.77000 4.60000 0.00000
v 5.77000 -1.45000 0.18000
v 6.23000 -1.45000 0.18000
v 6.23000 4.60000 0.18000
v 5.77000 4.60000 0.18000
v 6.31000 4.19000 0.26000
v 6.31000 4.19000 0.00000
v 6.31000 4.41000 0.00000
v 6.31000 4.41000 0.26000
v 5.69000 4.19000 0.00000
v 5.69000 4.19000 0.26000
v 5.69000 4.41000 0.26000
v 5.69000 4.41000 0.00000
v 5.69000 4.41000 0.26000
v 6.31000 4.41000 0.26000
v 6.31000 4.41000 0.00000
v 5.69000 4.41000 0.00000
v 5.69000 4.19000 0.00000
v 6.31000 4.19000 0.00000
v 6.31000 4.19000 0.26000
v 5.69000 4.19000 0.26000
v 5.69000 4.19000 0.26000
v 6.31000 4.19000 0.26000
v 6.31000 4.41000 0.26000
v 5.69000 4.41000 0.26000
v 6.31000 4.19000 0.00000
v 5.69000 4.19000 0.00000
v 5.69000 4.41000 0.00000
v 6.31000 4.41000 0.00000
v 6.31000 -1.48000 0.26000
v 6.31000 -1.48000 0.00000
v 6.31000 -1.18000 0.00000
v 6.31000 -1.18000 0.26000
v 5.69000 -1.48000 0.00000
v 5.69000 -1.48000 0.26000
v 5.69000 -1.18000 0.26000
v 5.69000 -1.18000 0.00000
v 5.69000 -1.18000 0.26000
v 6.31000 -1.18000 0.26000
v 6.31000 -1.18000 0.00000
v 5.69000 -1.18000 0.00000
v 5.69000 -1.48000 0.00000
v 6.31000 -1.48000 0.00000
v 6.31000 -1.48000 0.26000
v 5.69000 -1.48000 0.26000
v 5.69000 -1.48000 0.26000
v 6.31000 -1.48000 0.26000
v 6.31000 -1.18000 0.26000
v 5.69000 -1.18000 0.26000
v 6.31000 -1.48000 0.00000
v 5.69000 -1.48000 0.00000
v 5.69000 -1.18000 0.00000
v 6.31000 -1.18000 0.00000
v 12.23000 -1.45000 0.18000
v 12.23000 -1.45000 0.00000
v 12.23000 4.60000 0.00000
v 12.23000 4.60000 0.18000
v 11.77000 -1.45000 0.00000
v 11.77000 -1.45000 0.18000
v 11.77000 4.60000 0.18000
v 11.77000 4.60000 0.00000
v 11.77000 -1.45000 0.18000
v 12.23000 -1.45000 0.18000
v 12.23000 4.60000 0.18000
v 11.77000 4.60000 0.18000
v 12.31000 4.19000 0.26000
v 12.31000 4.19000 0.00000
v 12.31000 4.41000 0.00000
v 12.31000 4.41000 0.26000
v 11.69000 4.19000 0.00000
v 11.69000 4.19000 0.26000
v 11.69000 4.41000 0.26000
v 11.69000 4.41000 0.00000
v 11.69000 4.41000 0.26000
v 12.31000 4.41000 0.26000
v 12.31000 4.41000 0.00000
v 11.69000 4.41000 0.00000
v 11.69000 4.19000 0.00000
v 12.31000 4.19000 0.00000
v 12.31000 4.19000 0.26000
v 11.69000 4.19000 0.26000
v 11.69000 4.19000 0.26000
v 12.31000 4.19000 0.26000
v 12.31000 4.41000 0.26000
v 11.69000 4.41000 0.26000
v 12.31000 4.19000 0.00000
v 11.69000 4.19000 0.00000
v 11.69000 4.41000 0.00000
v 12.31000 4.41000 0.00000
v 12.31000 -1.48000 0.26000
v 12.31000 -1.48000 0.00000
v 12.31000 -1.18000 0.00000
v 12.31000 -1.18000 0.26000
v 11.69000 -1.48000 0.00000
v 11.69000 -1.48000 0.26000
v 11.69000 -1.18000 0.26000
v 11.69000 -1.18000 0.00000
v 11.69000 -1.18000 0.26000
v 12.31000 -1.18000 0.26000
v 12.31000 -1.18000 0.00000
v 11.69000 -1.18000 0.00000
v 11.69000 -1.48000 0.00000
v 12.31000 -1.48000 0.00000
v 12.31000 -1.48000 0.26000
v 11.69000 -1.48000 0.26000
v 11.69000 -1.48000 0.26000
v 12.31000 -1.48000 0.26000
v 12.31000 -1.18000 0.26000
v 11.69000 -1.18000 0.26000
v 12.31000 -1.48000 0.00000
v 11.69000 -1.48000 0.00000
v 11.69000 -1.18000 0.00000
v 12.31000 -1.18000 0.00000
v 18.23000 -1.45000 0.18000
v 18.23000 -1.45000 0.00000
v 18.23000 4.60000 0.00000
v 18.23000 4.60000 0.18000
v 17.77000 -1.45000 0.00000
v 17.77000 -1.45000 0.18000
v 17.77000 4.60000 0.18000
v 17.77000 4.60000 0.00000
v 17.77000 -1.45000 0.18000
v 18.23000 -1.45000 0.18000
v 18.23000 4.60000 0.18000
v 17.77000 4.60000 0.18000
v 18.31000 4.19000 0.26000
v 18.31000 4.19000 0.00000
v 18.31000 4.41000 0.00000
v 18.31000 4.41000 0.26000
v 17.69000 4.19000 0.00000
v 17.69000 4.19000 0.26000
v 17.69000 4.41000 0.26000
v 17.69000 4.41000 0.00000
v 17.69000 4.41000 0.26000
v 18.31000 4.41000 0.26000
v 18.31000 4.41000 0.00000
v 17.69000 4.41000 0.00000
v 17.69000 4.19000 0.00000
v 18.31000 4.19000 0.00000
v 18.31000 4.19000 0.26000
v 17.69000 4.19000 0.26000
v 17.69000 4.19000 0.26000
v 18.31000 4.19000 0.26000
v 18.31000 4.41000 0.26000
v 17.69000 4.41000 0.26000
v 18.31000 4.19000 0.00000
v 17.69000 4.19000 0.00000
v 17.69000 4.41000 0.00000
v 18.31000 4.41000 0.00000
v 18.31000 -1.48000 0.26000
v 18.31000 -1.48000 0.00000
v 18.31000 -1.18000 0.00000
v 18.31000 -1.18000 0.26000
v 17.69000 -1.48000 0.00000
v 17.69000 -1.48000 0.26000
v 17.69000 -1.18000 0.26000
v 17.69000 -1.18000 0.00000
v 17.69000 -1.18000 0.26000
v 18.31000 -1.18000 0.26000
v 18.31000 -1.18000 0.00000
v 17.69000 -1.18000 0.00000
v 17.69000 -1.48000 0.00000
v 18.31000 -1.48000 0.00000
v 18.31000 -1.48000 0.26000
v 17.69000 -1.48000 0.26000
v 17.69000 -1.48000 0.26000
v 18.31000 -1.48000 0.26000
v 18.31000 -1.18000 0.26000
v 17.69000 -1.18000 0.26000
v 18.31000 -1.48000 0.00000
v 17.69000 -1.48000 0.00000
v 17.69000 -1.18000 0.00000
v 18.31000 -1.18000 0.00000
v 24.23000 -1.45000 0.18000
v 24.23000 -1.45000 0.00000
v 24.23000 4.60000 0.00000
v 24.23000 4.60000 0.18000
v 23.77000 -1.45000 0.00000
v 23.77000 -1.45000 0.18000
v 23.77000 4.60000 0.18000
v 23.77000 4.60000 0.00000
v 23.77000 -1.45000 0.18000
v 24.23000 -1.45000 0.18000
v 24.23000 4.60000 0.18000
v 23.77000 4.60000 0.18000
v 24.31000 4.19000 0.26000
v 24.31000 4.19000 0.00000
v 24.31000 4.41000 0.00000
v 24.31000 4.41000 0.26000
v 23.69000 4.19000 0.00000
v 23.69000 4.19000 0.26000
v 23.69000 4.41000 0.26000
v 23.69000 4.41000 0.00000
v 23.69000 4.41000 0.26000
v 24.31000 4.41000 0.26000
v 24.31000 4.41000 0.00000
v 23.69000 4.41000 0.00000
v 23.69000 4.19000 0.00000
v 24.31000 4.19000 0.00000
v 24.31000 4.19000 0.26000
v 23.69000 4.19000 0.26000
v 23.69000 4.19000 0.26000
v 24.31000 4.19000 0.26000
v 24.31000 4.41000 0.26000
v 23.69000 4.41000 0.26000
v 24.31000 4.19000 0.00000
v 23.69000 4.19000 0.00000
v 23.69000 4.41000 0.00000
v 24.31000 4.41000 0.00000
v 24.31000 -1.48000 0.26000
v 24.31000 -1.48000 0.00000
v 24.31000 -1.18000 0.00000
v 24.31000 -1.18000 0.26000
v 23.69000 -1.48000 0.00000
v 23.69000 -1.48000 0.26000
v 23.69000 -1.18000 0.26000
v 23.69000 -1.18000 0.00000
v 23.69000 -1.18000 0.26000
v 24.31000 -1.18000 0.26000
v 24.31000 -1.18000 0.00000
v 23.69000 -1.18000 0.00000
v 23.69000 -1.48000 0.00000
v 24.31000 -1.48000 0.00000
v 24.31000 -1.48000 0.26000
v 23.69000 -1.48000 0.26000
v 23.69000 -1.48000 0.26000
v 24.31000 -1.48000 0.26000
v 24.31000 -1.18000 0.26000
v 23.69000 -1.18000 0.26000
v 24.31000 -1.48000 0.00000
v 23.69000 -1.48000 0.00000
v 23.69000 -1.18000 0.00000
v 24.31000 -1.18000 0.00000
v -13.50000 0.75000 -0.00500
v -13.50000 0.75000 -0.09500
v -13.50000 2.75000 -0.09500
v -13.50000 2.75000 -0.00500
v -16.50000 0.75000 -0.09500
v -16.50000 0.75000 -0.00500
v -16.50000 2.75000 -0.00500
v -16.50000 2.75000 -0.09500
v -16.50000 2.75000 -0.00500
v -13.50000 2.75000 -0.00500
v -13.50000 2.75000 -0.09500
v -16.50000 2.75000 -0.09500
v -16.50000 0.75000 -0.09500
v -13.50000 0.75000 -0.09500
v -13.50000 0.75000 -0.00500
v -16.50000 0.75000 -0.00500
v -16.50000 0.75000 -0.09500
v -13.50000 0.75000 -0.09500
v -13.50000 2.75000 -0.09500
v -16.50000 2.75000 -0.09500
v -7.50000 0.75000 -0.00500
v -7.50000 0.75000 -0.09500
v -7.50000 2.75000 -0.09500
v -7.50000 2.75000 -0.00500
v -10.50000 0.75000 -0.09500
v -10.50000 0.75000 -0.00500
v -10.50000 2.75000 -0.00500
v -10.50000 2.75000 -0.09500
v -10.50000 2.75000 -0.00500
v -7.50000 2.75000 -0.00500
v -7.50000 2.75000 -0.09500
v -10.50000 2.75000 -0.09500
v -10.50000 0.75000 -0.09500
v -7.50000 0.75000 -0.09500
v -7.50000 0.75000 -0.00500
v -10.50000 0.75000 -0.00500
v -10.50000 0.75000 -0.09500
v -7.50000 0.75000 -0.09500
v -7.50000 2.75000 -0.09500
v -10.50000 2.75000 -0.09500
v -1.50000 0.75000 -0.00500
v -1.50000 0.75000 -0.09500
v -1.50000 2.75000 -0.09500
v -1.50000 2.75000 -0.00500
v -4.50000 0.75000 -0.09500
v -4.50000 0.75000 -0.00500
v -4.50000 2.75000 -0.00500
v -4.50000 2.75000 -0.09500
v -4.50000 2.75000 -0.00500
v -1.50000 2.75000 -0.00500
v -1.50000 2.75000 -0.09500
v -4.50000 2.75000 -0.09500
v -4.50000 0.75000 -0.09500
v -1.50000 0.75000 -0.09500
v -1.50000 0.75000 -0.00500
v -4.50000 0.75000 -0.00500
v -4.50000 0.75000 -0.09500
v -1.50000 0.75000 -0.09500
v -1.50000 2.75000 -0.09500
v -4.50000 2.75000 -0.09500
v 4.50000 0.75000 -0.00500
v 4.50000 0.75000 -0.09500
v 4.50000 2.75000 -0.09500
v 4.50000 2.75000 -0.00500
v 1.50000 0.75000 -0.09500
v 1.50000 0.75000 -0.00500
v 1.50000 2.75000 -0.00500
v 1.50000 2.75000 -0.09500
v 1.50000 2.75000 -0.00500
v 4.50000 2.75000 -0.00500
v 4.50000 2.75000 -0.09500
v 1.50000 2.75000 -0.09500
v 1.50000 0.75000 -0.09500
v 4.50000 0.75000 -0.09500
v 4.50000 0.75000 -0.00500
v 1.50000 0.75000 -0.00500
v 1.50000 0.75000 -0.09500
v 4.50000 0.75000 -0.09500
v 4.50000 2.75000 -0.09500
v 1.50000 2.75000 -0.09500
v 10.50000 0.75000 -0.00500
v 10.50000 0.75000 -0.09500
v 10.50000 2.75000 -0.09500
v 10.50000 2.75000 -0.00500
v 7.50000 0.75000 -0.09500
v 7.50000 0.75000 -0.00500
v 7.50000 2.75000 -0.00500
v 7.50000 2.75000 -0.09500
v 7.50000 2.75000 -0.00500
v 10.50000 2.75000 -0.00500
v 10.50000 2.75000 -0.09500
v 7.50000 2.75000 -0.09500
v 7.50000 0.75000 -0.09500
v 10.50000 0.75000 -0.09500
v 10.50000 0.75000 -0.00500
v 7.50000 0.75000 -0.00500
v 7.50000 0.75000 -0.09500
v 10.50000 0.75000 -0.09500
v 10.50000 2.75000 -0.09500
v 7.50000 2.75000 -0.09500
v 16.50000 0.75000 -0.00500
v 16.50000 0.75000 -0.09500
v 16.50000 2.75000 -0.09500
v 16.50000 2.75000 -0.00500
v 13.50000 0.75000 -0.09500
v 13.50000 0.75000 -0.00500
v 13.50000 2.75000 -0.00500
v 13.50000 2.75000 -0.09500
v 13.50000 2.75000 -0.00500
v 16.50000 2.75000 -0.00500
v 16.50000 2.75000 -0.09500
v 13.50000 2.75000 -0.09500
v 13.50000 0.75000 -0.09500
v 16.50000 0.75000 -0.09500
v 16.50000 0.75000 -0.00500
v 13.50000 0.75000 -0.00500
v 13.50000 0.75000 -0.09500
v 16.50000 0.75000 -0.09500
v 16.50000 2.75000 -0.09500
v 13.50000 2.75000 -0.09500
v 22.50000 0.75000 -0.00500
v 22.50000 0.75000 -0.09500
v 22.50000 2.75000 -0.09500
v 22.50000 2.75000 -0.00500
v 19.50000 0.75000 -0.09500
v 19.50000 0.75000 -0.00500
v 19.50000 2.75000 -0.00500
v 19.50000 2.75000 -0.09500
v 19.50000 2.75000 -0.00500
v 22.50000 2.75000 -0.00500
v 22.50000 2.75000 -0.09500
v 19.50000 2.75000 -0.09500
v 19.50000 0.75000 -0.09500
v 22.50000 0.75000 -0.09500
v 22.50000 0.75000 -0.00500
v 19.50000 0.75000 -0.00500
v 19.50000 0.75000 -0.09500
v 22.50000 0.75000 -0.09500
v 22.50000 2.75000 -0.09500
v 19.50000 2.75000 -0.09500
v -24.01000 -1.65000 -0.35000
v -24.01000 -1.65000 0.00000
v -24.01000 4.60000 0.00000
v -24.01000 4.60000 -0.35000
v 24.01000 -1.65000 0.00000
v 24.01000 -1.65000 -0.35000
v 24.01000 4.60000 -0.35000
v 24.01000 4.60000 0.00000
vt 0.17500 -0.82500
vt 0.27500 -0.82500
vt 0.27500 2.30000
vt 0.17500 2.30000
vt -0.27500 -0.82500
vt -0.17500 -0.82500
vt -0.17500 2.30000
vt -0.27500 2.30000
vt -12.00000 0.17500
vt 12.00000 0.17500
vt 12.00000 0.27500
vt -12.00000 0.27500
vt -12.00000 -0.27500
vt 12.00000 -0.27500
vt 12.00000 -0.17500
vt -12.00000 -0.17500
vt -12.00000 -0.82500
vt 12.00000 -0.82500
vt 12.00000 2.30000
vt -12.00000 2.30000
vt -26.66667 -1.83333
vt 26.66667 -1.83333
vt 26.66667 0.11111
vt -26.66667 0.11111
vt 0.00000 0.20000
vt 0.16000 0.20000
vt 0.16000 0.44000
vt 0.00000 0.44000
vt -0.16000 0.20000
vt 0.00000 0.20000
vt 0.00000 0.44000
vt -0.16000 0.44000
vt -48.00000 0.00000
vt 48.00000 0.00000
vt 48.00000 0.16000
vt -48.00000 0.16000
vt -48.00000 -0.16000
vt 48.00000 -0.16000
vt 48.00000 0.00000
vt -48.00000 0.00000
vt -48.00000 0.20000
vt 48.00000 0.20000
vt 48.00000 0.44000
vt -48.00000 0.44000
vt -48.00000 0.20000
vt 48.00000 0.20000
vt 48.00000 0.44000
vt -48.00000 0.44000
vt -20.00000 0.18333
vt 20.00000 0.18333
vt 20.00000 2.12500
vt -20.00000 2.12500
vt -20.00000 2.12500
vt 20.00000 2.12500
vt 20.00000 2.45833
vt -20.00000 2.45833
vt 0.00000 5.88000
vt 0.20000 5.88000
vt 0.20000 6.08000
vt 0.00000 6.08000
vt -0.20000 5.88000
vt 0.00000 5.88000
vt 0.00000 6.08000
vt -0.20000 6.08000
vt -48.00000 0.00000
vt 48.00000 0.00000
vt 48.00000 0.20000
vt -48.00000 0.20000
vt -48.00000 -0.20000
vt 48.00000 -0.20000
vt 48.00000 0.00000
vt -48.00000 0.00000
vt -48.00000 5.88000
vt 48.00000 5.88000
vt 48.00000 6.08000
vt -48.00000 6.08000
vt -48.00000 5.88000
vt 48.00000 5.88000
vt 48.00000 6.08000
vt -48.00000 6.08000
vt -12.00000 1.52500
vt 12.00000 1.52500
vt 12.00000 2.30000
vt -12.00000 2.30000
vt 0.00000 0.00000
vt 0.26667 0.00000
vt 0.26667 80.00000
vt 0.00000 80.00000
vt 0.26667 0.00000
vt 0.36667 0.00000
vt 0.36667 80.00000
vt 0.26667 80.00000
vt 0.36667 0.00000
vt 0.54694 0.00000
vt 0.54694 80.00000
vt 0.36667 80.00000
vt 0.54694 0.00000
vt 0.68028 0.00000
vt 0.68028 80.00000
vt 0.54694 80.00000
vt 0.68028 0.00000
vt 0.79694 0.00000
vt 0.79694 80.00000
vt 0.68028 80.00000
vt 0.79694 0.00000
vt 1.13028 0.00000
vt 1.13028 80.00000
vt 0.79694 80.00000
vt 0.00000 0.33333
vt 0.11667 0.33333
vt 0.11667 0.20000
vt 0.26667 0.10000
vt 0.26667 0.00000
vt 0.00000 0.00000
vt 0.00000 0.00000
vt 0.26667 0.00000
vt 0.26667 0.10000
vt 0.11667 0.20000
vt 0.11667 0.33333
vt 0.00000 0.33333
vt -0.20000 -1.61111
vt 0.00000 -1.61111
vt 0.00000 5.11111
vt -0.20000 5.11111
vt 0.00000 -1.61111
vt 0.20000 -1.61111
vt 0.20000 5.11111
vt 0.00000 5.11111
vt -26.92222 -1.61111
vt -26.41111 -1.61111
vt -26.41111 5.11111
vt -26.92222 5.11111
vt -0.43333 6.98333
vt 0.00000 6.98333
vt 0.00000 7.35000
vt -0.43333 7.35000
vt 0.00000 6.98333
vt 0.43333 6.98333
vt 0.43333 7.35000
vt 0.00000 7.35000
vt -40.51667 -0.43333
vt -39.48333 -0.43333
vt -39.48333 0.00000
vt -40.51667 0.00000
vt -40.51667 0.00000
vt -39.48333 0.00000
vt -39.48333 0.43333
vt -40.51667 0.43333
vt -40.51667 6.98333
vt -39.48333 6.98333
vt -39.48333 7.35000
vt -40.51667 7.35000
vt 39.48333 6.98333
vt 40.51667 6.98333
vt 40.51667 7.35000
vt 39.48333 7.35000
vt -0.43333 -2.46667
vt 0.00000 -2.46667
vt 0.00000 -1.96667
vt -0.43333 -1.96667
vt 0.00000 -2.46667
vt 0.43333 -2.46667
vt 0.43333 -1.96667
vt 0.00000 -1.96667
vt -40.51667 -0.43333
vt -39.48333 -0.43333
vt -39.48333 0.00000
vt -40.51667 0.00000
vt -40.51667 0.00000
vt -39.48333 0.00000
vt -39.48333 0.43333
vt -40.51667 0.43333
vt -40.51667 -2.46667
vt -39.48333 -2.46667
vt -39.48333 -1.96667
vt -40.51667 -1.96667
vt 39.48333 -2.46667
vt 40.51667 -2.46667
vt 40.51667 -1.96667
vt 39.48333 -1.96667
vt -0.20000 -1.61111
vt 0.00000 -1.61111
vt 0.00000 5.11111
vt -0.20000 5.11111
vt 0.00000 -1.61111
vt 0.20000 -1.61111
vt 0.20000 5.11111
vt 0.00000 5.11111
vt -20.25556 -1.61111
vt -19.74444 -1.61111
vt -19.74444 5.11111
vt -20.25556 5.11111
vt -0.43333 6.98333
vt 0.00000 6.98333
vt 0.00000 7.35000
vt -0.43333 7.35000
vt 0.00000 6.98333
vt 0.43333 6.98333
vt 0.43333 7.35000
vt 0.00000 7.35000
vt -30.51667 -0.43333
vt -29.48333 -0.43333
vt -29.48333 0.00000
vt -30.51667 0.00000
vt -30.51667 0.00000
vt -29.48333 0.00000
vt -29.48333 0.43333
vt -30.51667 0.43333
vt -30.51667 6.98333
vt -29.48333 6.98333
vt -29.48333 7.35000
vt -30.51667 7.35000
vt 29.48333 6.98333
vt 30.51667 6.98333
vt 30.51667 7.35000
vt 29.48333 7.35000
vt -0.43333 -2.46667
vt 0.00000 -2.46667
vt 0.00000 -1.96667
vt -0.43333 -1.96667
vt 0.00000 -2.46667
vt 0.43333 -2.46667
vt 0.43333 -1.96667
vt 0.00000 -1.96667
vt -30.51667 -0.43333
vt -29.48333 -0.43333
vt -29.48333 0.00000
vt -30.51667 0.00000
vt -30.51667 0.00000
vt -29.48333 0.00000
vt -29.48333 0.43333
vt -30.51667 0.43333
vt -30.51667 -2.46667
vt -29.48333 -2.46667
vt -29.48333 -1.96667
vt -30.51667 -1.96667
vt 29.48333 -2.46667
vt 30.51667 -2.46667
vt 30.51667 -1.96667
vt 29.48333 -1.96667
vt -0.20000 -1.61111
vt 0.00000 -1.61111
vt 0.00000 5.11111
vt -0.20000 5.11111
vt 0.00000 -1.61111
vt 0.20000 -1.61111
vt 0.20000 5.11111
vt 0.00000 5.11111
vt -13.58889 -1.61111
vt -13.07778 -1.61111
vt -13.07778 5.11111
vt -13.58889 5.11111
vt -0.43333 6.98333
vt 0.00000 6.98333
vt 0.00000 7.35000
vt -0.43333 7.35000
vt 0.00000 6.98333
vt 0.43333 6.98333
vt 0.43333 7.35000
vt 0.00000 7.35000
vt -20.51667 -0.43333
vt -19.48333 -0.43333
vt -19.48333 0.00000
vt -20.51667 0.00000
vt -20.51667 0.00000
vt -19.48333 0.00000
vt -19.48333 0.43333
vt -20.51667 0.43333
vt -20.51667 6.98333
vt -19.48333 6.98333
vt -19.48333 7.35000
vt -20.51667 7.35000
vt 19.48333 6.98333
vt 20.51667 6.98333
vt 20.51667 7.35000
vt 19.48333 7.35000
vt -0.43333 -2.46667
vt 0.00000 -2.46667
vt 0.00000 -1.96667
vt -0.43333 -1.96667
vt 0.00000 -2.46667
vt 0.43333 -2.46667
vt 0.43333 -1.96667
vt 0.00000 -1.96667
vt -20.51667 -0.43333
vt -19.48333 -0.43333
vt -19.48333 0.00000
vt -20.51667 0.00000
vt -20.51667 0.00000
vt -19.48333 0.00000
vt -19.48333 0.43333
vt -20.51667 0.43333
vt -20.51667 -2.46667
vt -19.48333 -2.46667
vt -19.48333 -1.96667
vt -20.51667 -1.96667
vt 19.48333 -2.46667
vt 20.51667 -2.46667
vt 20.51667 -1.96667
vt 19.48333 -1.96667
vt -0.20000 -1.61111
vt 0.00000 -1.61111
vt 0.00000 5.11111
vt -0.20000 5.11111
vt 0.00000 -1.61111
vt 0.20000 -1.61111
vt 0.20000 5.11111
vt 0.00000 5.11111
vt -6.92222 -1.61111
vt -6.41111 -1.61111
vt -6.41111 5.11111
vt -6.92222 5.11111
vt -0.43333 6.98333
vt 0.00000 6.98333
vt 0.00000 7.35000
vt -0.43333 7.35000
vt 0.00000 6.98333
vt 0.43333 6.98333
vt 0.43333 7.35000
vt 0.00000 7.35000
vt -10.51667 -0.43333
vt -9.48333 -0.43333
vt -9.48333 0.00000
vt -10.51667 0.00000
vt -10.51667 0.00000
vt -9.48333 0.00000
vt -9.48333 0.43333
vt -10.51667 0.43333
vt -10.51667 6.98333
vt -9.48333 6.98333
vt -9.48333 7.35000
vt -10.51667 7.35000
vt 9.48333 6.98333
vt 10.51667 6.98333
vt 10.51667 7.35000
vt 9.48333 7.35000
vt -0.43333 -2.46667
vt 0.00000 -2.46667
vt 0.00000 -1.96667
vt -0.43333 -1.96667
vt 0.00000 -2.46667
vt 0.43333 -2.46667
vt 0.43333 -1.96667
vt 0.00000 -1.96667
vt -10.51667 -0.43333
vt -9.48333 -0.43333
vt -9.48333 0.00000
vt -10.51667 0.00000
vt -10.51667 0.00000
vt -9.48333 0.00000
vt -9.48333 0.43333
vt -10.51667 0.43333
vt -10.51667 -2.46667
vt -9.48333 -2.46667
vt -9.48333 -1.96667
vt -10.51667 -1.96667
vt 9.48333 -2.46667
vt 10.51667 -2.46667
vt 10.51667 -1.96667
vt 9.48333 -1.96667
vt -0.20000 -1.61111
vt 0.00000 -1.61111
vt 0.00000 5.11111
vt -0.20000 5.11111
vt 0.00000 -1.61111
vt 0.20000 -1.61111
vt 0.20000 5.11111
vt 0.00000 5.11111
vt -0.25556 -1.61111
vt 0.25556 -1.61111
vt 0.25556 5.11111
vt -0.25556 5.11111
vt -0.43333 6.98333
vt 0.00000 6.98333
vt 0.00000 7.35000
vt -0.43333 7.35000
vt 0.00000 6.98333
vt 0.43333 6.98333
vt 0.43333 7.35000
vt 0.00000 7.35000
vt -0.51667 -0.43333
vt 0.51667 -0.43333
vt 0.51667 0.00000
vt -0.51667 0.00000
vt -0.51667 0.00000
vt 0.51667 0.00000
vt 0.51667 0.43333
vt -0.51667 0.43333
vt -0.51667 6.98333
vt 0.51667 6.98333
vt 0.51667 7.35000
vt -0.51667 7.35000
vt -0.51667 6.98333
vt 0.51667 6.98333
vt 0.51667 7.35000
vt -0.51667 7.35000
vt -0.43333 -2.46667
vt 0.00000 -2.46667
vt 0.00000 -1.96667
vt -0.43333 -1.96667
vt 0.00000 -2.46667
vt 0.43333 -2.46667
vt 0.43333 -1.96667
vt 0.00000 -1.96667
vt -0.51667 -0.43333
vt 0.51667 -0.43333
vt 0.51667 0.00000
vt -0.51667 0.00000
vt -0.51667 0.00000
vt 0.51667 0.00000
vt 0.51667 0.43333
vt -0.51667 0.43333
vt -0.51667 -2.46667
vt 0.51667 -2.46667
vt 0.51667 -1.96667
vt -0.51667 -1.96667
vt -0.51667 -2.46667
vt 0.51667 -2.46667
vt 0.51667 -1.96667
vt -0.51667 -1.96667
vt -0.20000 -1.61111
vt 0.00000 -1.61111
vt 0.00000 5.11111
vt -0.20000 5.11111
vt 0.00000 -1.61111
vt 0.20000 -1.61111
vt 0.20000 5.11111
vt 0.00000 5.11111
vt 6.41111 -1.61111
vt 6.92222 -1.61111
vt 6.92222 5.11111
vt 6.41111 5.11111
vt -0.43333 6.98333
vt 0.00000 6.98333
vt 0.00000 7.35000
vt -0.43333 7.35000
vt 0.00000 6.98333
vt 0.43333 6.98333
vt 0.43333 7.35000
vt 0.00000 7.35000
vt 9.48333 -0.43333
vt 10.51667 -0.43333
vt 10.51667 0.00000
vt 9.48333 0.00000
vt 9.48333 0.00000
vt 10.51667 0.00000
vt 10.51667 0.43333
vt 9.48333 0.43333
vt 9.48333 6.98333
vt 10.51667 6.98333
vt 10.51667 7.35000
vt 9.48333 7.35000
vt -10.51667 6.98333
vt -9.48333 6.98333
vt -9.48333 7.35000
vt -10.51667 7.35000
vt -0.43333 -2.46667
vt 0.00000 -2.46667
vt 0.00000 -1.96667
vt -0.43333 -1.96667
vt 0.00000 -2.46667
vt 0.43333 -2.46667
vt 0.43333 -1.96667
vt 0.00000 -1.96667
vt 9.48333 -0.43333
vt 10.51667 -0.43333
vt 10.51667 0.00000
vt 9.48333 0.00000
vt 9.48333 0.00000
vt 10.51667 0.00000
vt 10.51667 0.43333
vt 9.48333 0.43333
vt 9.48333 -2.46667
vt 10.51667 -2.46667
vt 10.51667 -1.96667
vt 9.48333 -1.96667
vt -10.51667 -2.46667
vt -9.48333 -2.46667
vt -9.48333 -1.96667
vt -10.51667 -1.96667
vt -0.20000 -1.61111
vt 0.00000 -1.61111
vt 0.00000 5.11111
vt -0.20000 5.11111
vt 0.00000 -1.61111
vt 0.20000 -1.61111
vt 0.20000 5.11111
vt 0.00000 5.11111
vt 13.07778 -1.61111
vt 13.58889 -1.61111
vt 13.58889 5.11111
vt 13.07778 5.11111
vt -0.43333 6.98333
vt 0.00000 6.98333
vt 0.00000 7.35000
vt -0.43333 7.35000
vt 0.00000 6.98333
vt 0.43333 6.98333
vt 0.43333 7.35000
vt 0.00000 7.35000
vt 19.48333 -0.43333
vt 20.51667 -0.43333
vt 20.51667 0.00000
vt 19.48333 0.00000
vt 19.48333 0.00000
vt 20.51667 0.00000
vt 20.51667 0.43333
vt 19.48333 0.43333
vt 19.48333 6.98333
vt 20.51667 6.98333
vt 20.51667 7.35000
vt 19.48333 7.35000
vt -20.51667 6.98333
vt -19.48333 6.98333
vt -19.48333 7.35000
vt -20.51667 7.35000
vt -0.43333 -2.46667
vt 0.00000 -2.46667
vt 0.00000 -1.96667
vt -0.43333 -1.96667
vt 0.00000 -2.46667
vt 0.43333 -2.46667
vt 0.43333 -1.96667
vt 0.00000 -1.96667
vt 19.48333 -0.43333
vt 20.51667 -0.43333
vt 20.51667 0.00000
vt 19.48333 0.00000
vt 19.48333 0.00000
vt 20.51667 0.00000
vt 20.51667 0.43333
vt 19.48333 0.43333
vt 19.48333 -2.46667
vt 20.51667 -2.46667
vt 20.51667 -1.96667
vt 19.48333 -1.96667
vt -20.51667 -2.46667
vt -19.48333 -2.46667
vt -19.48333 -1.96667
vt -20.51667 -1.96667
vt -0.20000 -1.61111
vt 0.00000 -1.61111
vt 0.00000 5.11111
vt -0.20000 5.11111
vt 0.00000 -1.61111
vt 0.20000 -1.61111
vt 0.20000 5.11111
vt 0.00000 5.11111
vt 19.74444 -1.61111
vt 20.25556 -1.61111
vt 20.25556 5.11111
vt 19.74444 5.11111
vt -0.43333 6.98333
vt 0.00000 6.98333
vt 0.00000 7.35000
vt -0.43333 7.35000
vt 0.00000 6.98333
vt 0.43333 6.98333
vt 0.43333 7.35000
vt 0.00000 7.35000
vt 29.48333 -0.43333
vt 30.51667 -0.43333
vt 30.51667 0.00000
vt 29.48333 0.00000
vt 29.48333 0.00000
vt 30.51667 0.00000
vt 30.51667 0.43333
vt 29.48333 0.43333
vt 29.48333 6.98333
vt 30.51667 6.98333
vt 30.51667 7.35000
vt 29.48333 7.35000
vt -30.51667 6.98333
vt -29.48333 6.98333
vt -29.48333 7.35000
vt -30.51667 7.35000
vt -0.43333 -2.46667
vt 0.00000 -2.46667
vt 0.00000 -1.96667
vt -0.43333 -1.96667
vt 0.00000 -2.46667
vt 0.43333 -2.46667
vt 0.43333 -1.96667
vt 0.00000 -1.96667
vt 29.48333 -0.43333
vt 30.51667 -0.43333
vt 30.51667 0.00000
vt 29.48333 0.00000
vt 29.48333 0.00000
vt 30.51667 0.00000
vt 30.51667 0.43333
vt 29.48333 0.43333
vt 29.48333 -2.46667
vt 30.51667 -2.46667
vt 30.51667 -1.96667
vt 29.48333 -1.96667
vt -30.51667 -2.46667
vt -29.48333 -2.46667
vt -29.48333 -1.96667
vt -30.51667 -1.96667
vt -0.20000 -1.61111
vt 0.00000 -1.61111
vt 0.00000 5.11111
vt -0.20000 5.11111
vt 0.00000 -1.61111
vt 0.20000 -1.61111
vt 0.20000 5.11111
vt 0.00000 5.11111
vt 26.41111 -1.61111
vt 26.92222 -1.61111
vt 26.92222 5.11111
vt 26.41111 5.11111
vt -0.43333 6.98333
vt 0.00000 6.98333
vt 0.00000 7.35000
vt -0.43333 7.35000
vt 0.00000 6.98333
vt 0.43333 6.98333
vt 0.43333 7.35000
vt 0.00000 7.35000
vt 39.48333 -0.43333
vt 40.51667 -0.43333
vt 40.51667 0.00000
vt 39.48333 0.00000
vt 39.48333 0.00000
vt 40.51667 0.00000
vt 40.51667 0.43333
vt 39.48333 0.43333
vt 39.48333 6.98333
vt 40.51667 6.98333
vt 40.51667 7.35000
vt 39.48333 7.35000
vt -40.51667 6.98333
vt -39.48333 6.98333
vt -39.48333 7.35000
vt -40.51667 7.35000
vt -0.43333 -2.46667
vt 0.00000 -2.46667
vt 0.00000 -1.96667
vt -0.43333 -1.96667
vt 0.00000 -2.46667
vt 0.43333 -2.46667
vt 0.43333 -1.96667
vt 0.00000 -1.96667
vt 39.48333 -0.43333
vt 40.51667 -0.43333
vt 40.51667 0.00000
vt 39.48333 0.00000
vt 39.48333 0.00000
vt 40.51667 0.00000
vt 40.51667 0.43333
vt 39.48333 0.43333
vt 39.48333 -2.46667
vt 40.51667 -2.46667
vt 40.51667 -1.96667
vt 39.48333 -1.96667
vt -40.51667 -2.46667
vt -39.48333 -2.46667
vt -39.48333 -1.96667
vt -40.51667 -1.96667
vt 0.00417 0.62500
vt 0.07917 0.62500
vt 0.07917 2.29167
vt 0.00417 2.29167
vt -0.07917 0.62500
vt -0.00417 0.62500
vt -0.00417 2.29167
vt -0.07917 2.29167
vt -13.75000 0.00417
vt -11.25000 0.00417
vt -11.25000 0.07917
vt -13.75000 0.07917
vt -13.75000 -0.07917
vt -11.25000 -0.07917
vt -11.25000 -0.00417
vt -13.75000 -0.00417
vt -13.75000 0.62500
vt -11.25000 0.62500
vt -11.25000 2.29167
vt -13.75000 2.29167
vt 0.00417 0.62500
vt 0.07917 0.62500
vt 0.07917 2.29167
vt 0.00417 2.29167
vt -0.07917 0.62500
vt -0.00417 0.62500
vt -0.00417 2.29167
vt -0.07917 2.29167
vt -8.75000 0.00417
vt -6.25000 0.00417
vt -6.25000 0.07917
vt -8.75000 0.07917
vt -8.75000 -0.07917
vt -6.25000 -0.07917
vt -6.25000 -0.00417
vt -8.75000 -0.00417
vt -8.75000 0.62500
vt -6.25000 0.62500
vt -6.25000 2.29167
vt -8.75000 2.29167
vt 0.00417 0.62500
vt 0.07917 0.62500
vt 0.07917 2.29167
vt 0.00417 2.29167
vt -0.07917 0.62500
vt -0.00417 0.62500
vt -0.00417 2.29167
vt -0.07917 2.29167
vt -3.75000 0.00417
vt -1.25000 0.00417
vt -1.25000 0.07917
vt -3.75000 0.07917
vt -3.75000 -0.07917
vt -1.25000 -0.07917
vt -1.25000 -0.00417
vt -3.75000 -0.00417
vt -3.75000 0.62500
vt -1.25000 0.62500
vt -1.25000 2.29167
vt -3.75000 2.29167
vt 0.00417 0.62500
vt 0.07917 0.62500
vt 0.07917 2.29167
vt 0.00417 2.29167
vt -0.07917 0.62500
vt -0.00417 0.62500
vt -0.00417 2.29167
vt -0.07917 2.29167
vt 1.25000 0.00417
vt 3.75000 0.00417
vt 3.75000 0.07917
vt 1.25000 0.07917
vt 1.25000 -0.07917
vt 3.75000 -0.07917
vt 3.75000 -0.00417
vt 1.25000 -0.00417
vt 1.25000 0.62500
vt 3.75000 0.62500
vt 3.75000 2.29167
vt 1.25000 2.29167
vt 0.00417 0.62500
vt 0.07917 0.62500
vt 0.07917 2.29167
vt 0.00417 2.29167
vt -0.07917 0.62500
vt -0.00417 0.62500
vt -0.00417 2.29167
vt -0.07917 2.29167
vt 6.25000 0.00417
vt 8.75000 0.00417
vt 8.75000 0.07917
vt 6.25000 0.07917
vt 6.25000 -0.07917
vt 8.75000 -0.07917
vt 8.75000 -0.00417
vt 6.25000 -0.00417
vt 6.25000 0.62500
vt 8.75000 0.62500
vt 8.75000 2.29167
vt 6.25000 2.29167
vt 0.00417 0.62500
vt 0.07917 0.62500
vt 0.07917 2.29167
vt 0.00417 2.29167
vt -0.07917 0.62500
vt -0.00417 0.62500
vt -0.00417 2.29167
vt -0.07917 2.29167
vt 11.25000 0.00417
vt 13.75000 0.00417
vt 13.75000 0.07917
vt 11.25000 0.07917
vt 11.25000 -0.07917
vt 13.75000 -0.07917
vt 13.75000 -0.00417
vt 11.25000 -0.00417
vt 11.25000 0.62500
vt 13.75000 0.62500
vt 13.75000 2.29167
vt 11.25000 2.29167
vt 0.00417 0.62500
vt 0.07917 0.62500
vt 0.07917 2.29167
vt 0.00417 2.29167
vt -0.07917 0.62500
vt -0.00417 0.62500
vt -0.00417 2.29167
vt -0.07917 2.29167
vt 16.25000 0.00417
vt 18.75000 0.00417
vt 18.75000 0.07917
vt 16.25000 0.07917
vt 16.25000 -0.07917
vt 18.75000 -0.07917
vt 18.75000 -0.00417
vt 16.25000 -0.00417
vt 16.25000 0.62500
vt 18.75000 0.62500
vt 18.75000 2.29167
vt 16.25000 2.29167
vt -0.35000 -1.65000
vt 0.00000 -1.65000
vt 0.00000 4.60000
vt -0.35000 4.60000
vt 0.00000 -1.65000
vt 0.35000 -1.65000
vt 0.35000 4.60000
vt 0.00000 4.60000
vn 1.00000 0.00000 0.00000
vn -1.00000 0.00000 0.00000
vn 0.00000 1.00000 0.00000
vn 0.00000 -1.00000 0.00000
vn 0.00000 0.00000 -1.00000
vn 0.00000 0.00000 1.00000
vn 1.00000 0.00000 0.00000
vn -1.00000 0.00000 0.00000
vn 0.00000 1.00000 0.00000
vn 0.00000 -1.00000 0.00000
vn 0.00000 0.00000 1.00000
vn 0.00000 0.00000 -1.00000
vn 0.00000 0.00000 1.00000
vn 0.00000 0.00000 1.00000
vn 1.00000 0.00000 0.00000
vn -1.00000 0.00000 0.00000
vn 0.00000 1.00000 0.00000
vn 0.00000 -1.00000 0.00000
vn 0.00000 0.00000 1.00000
vn 0.00000 0.00000 -1.00000
vn 0.00000 0.00000 1.00000
vn 0.00000 0.00000 -1.00000
vn 0.00000 1.00000 0.00000
vn 0.00000 0.55470 0.83205
vn 0.00000 1.00000 0.00000
vn 0.00000 0.00000 1.00000
vn 0.00000 -1.00000 0.00000
vn -1.00000 0.00000 0.00000
vn 1.00000 0.00000 0.00000
vn 1.00000 0.00000 0.00000
vn -1.00000 0.00000 0.00000
vn 0.00000 0.00000 1.00000
vn 1.00000 0.00000 0.00000
vn -1.00000 0.00000 0.00000
vn 0.00000 1.00000 0.00000
vn 0.00000 -1.00000 0.00000
vn 0.00000 0.00000 1.00000
vn 0.00000 0.00000 -1.00000
vn 1.00000 0.00000 0.00000
vn -1.00000 0.00000 0.00000
vn 0.00000 1.00000 0.00000
vn 0.00000 -1.00000 0.00000
vn 0.00000 0.00000 1.00000
vn 0.00000 0.00000 -1.00000
vn 1.00000 0.00000 0.00000
vn -1.00000 0.00000 0.00000
vn 0.00000 0.00000 1.00000
vn 1.00000 0.00000 0.00000
vn -1.00000 0.00000 0.00000
vn 0.00000 1.00000 0.00000
vn 0.00000 -1.00000 0.00000
vn 0.00000 0.00000 1.00000
vn 0.00000 0.00000 -1.00000
vn 1.00000 0.00000 0.00000
vn -1.00000 0.00000 0.00000
vn 0.00000 1.00000 0.00000
vn 0.00000 -1.00000 0.00000
vn 0.00000 0.00000 1.00000
vn 0.00000 0.00000 -1.00000
vn 1.00000 0.00000 0.00000
vn -1.00000 0.00000 0.00000
vn 0.00000 0.00000 1.00000
vn 1.00000 0.00000 0.00000
vn -1.00000 0.00000 0.00000
vn 0.00000 1.00000 0.00000
vn 0.00000 -1.00000 0.00000
vn 0.00000 0.00000 1.00000
vn 0.00000 0.00000 -1.00000
vn 1.00000 0.00000 0.00000
vn -1.00000 0.00000 0.00000
vn 0.00000 1.00000 0.00000
vn 0.00000 -1.00000 0.00000
vn 0.00000 0.00000 1.00000
vn 0.00000 0.00000 -1.00000
vn 1.00000 0.00000 0.00000
vn -1.00000 0.00000 0.00000
vn 0.00000 0.00000 1.00000
vn 1.00000 0.00000 0.00000
vn -1.00000 0.00000 0.00000
vn 0.00000 1.00000 0.00000
vn 0.00000 -1.00000 0.00000
vn 0.00000 0.00000 1.00000
vn 0.00000 0.00000 -1.00000
vn 1.00000 0.00000 0.00000
vn -1.00000 0.00000 0.00000
vn 0.00000 1.00000 0.00000
vn 0.00000 -1.00000 0.00000
vn 0.00000 0.00000 1.00000
vn 0.00000 0.00000 -1.00000
vn 1.00000 0.00000 0.00000
vn -1.00000 0.00000 0.00000
vn 0.00000 0.00000 1.00000
vn 1.00000 0.00000 0.00000
vn -1.00000 0.00000 0.00000
vn 0.00000 1.00000 0.00000
vn 0.00000 -1.00000 0.00000
vn 0.00000 0.00000 1.00000
vn 0.00000 0.00000 -1.00000
vn 1.00000 0.00000 0.00000
vn -1.00000 0.00000 0.00000
vn 0.00000 1.00000 0.00000
vn 0.00000 -1.00000 0.00000
vn 0.00000 0.00000 1.00000
vn 0.00000 0.00000 -1.00000
vn 1.00000 0.00000 0.00000
vn -1.00000 0.00000 0.00000
vn 0.00000 0.00000 1.00000
vn 1.00000 0.00000 0.00000
vn -1.00000 0.00000 0.00000
vn 0.00000 1.00000 0.00000
vn 0.00000 -1.00000 0.00000
vn 0.00000 0.00000 1.00000
vn 0.00000 0.00000 -1.00000
vn 1.00000 0.00000 0.00000
vn -1.00000 0.00000 0.00000
vn 0.00000 1.00000 0.00000
vn 0.00000 -1.00000 0.00000
vn 0.00000 0.00000 1.00000
vn 0.00000 0.00000 -1.00000
vn 1.00000 0.00000 0.00000
vn -1.00000 0.00000 0.00000
vn 0.00000 0.00000 1.00000
vn 1.00000 0.00000 0.00000
vn -1.00000 0.00000 0.00000
vn 0.00000 1.00000 0.00000
vn 0.00000 -1.00000 0.00000
vn 0.00000 0.00000 1.00000
vn 0.00000 0.00000 -1.00000
vn 1.00000 0.00000 0.00000
vn -1.00000 0.00000 0.00000
vn 0.00000 1.00000 0.00000
vn 0.00000 -1.00000 0.00000
vn 0.00000 0.00000 1.00000
vn 0.00000 0.00000 -1.00000
vn 1.00000 0.00000 0.00000
vn -1.00000 0.00000 0.00000
vn 0.00000 0.00000 1.00000
vn 1.00000 0.00000 0.00000
vn -1.00000 0.00000 0.00000
vn 0.00000 1.00000 0.00000
vn 0.00000 -1.00000 0.00000
vn 0.00000 0.00000 1.00000
vn 0.00000 0.00000 -1.00000
vn 1.00000 0.00000 0.00000
vn -1.00000 0.00000 0.00000
vn 0.00000 1.00000 0.00000
vn 0.00000 -1.00000 0.00000
vn 0.00000 0.00000 1.00000
vn 0.00000 0.00000 -1.00000
vn 1.00000 0.00000 0.00000
vn -1.00000 0.00000 0.00000
vn 0.00000 0.00000 1.00000
vn 1.00000 0.00000 0.00000
vn -1.00000 0.00000 0.00000
vn 0.00000 1.00000 0.00000
vn 0.00000 -1.00000 0.00000
vn 0.00000 0.00000 1.00000
vn 0.00000 0.00000 -1.00000
vn 1.00000 0.00000 0.00000
vn -1.00000 0.00000 0.00000
vn 0.00000 1.00000 0.00000
vn 0.00000 -1.00000 0.00000
vn 0.00000 0.00000 1.00000
vn 0.00000 0.00000 -1.00000
vn 1.00000 0.00000 0.00000
vn -1.00000 0.00000 0.00000
vn 0.00000 1.00000 0.00000
vn 0.00000 -1.00000 0.00000
vn 0.00000 0.00000 1.00000
vn 1.00000 0.00000 0.00000
vn -1.00000 0.00000 0.00000
vn 0.00000 1.00000 0.00000
vn 0.00000 -1.00000 0.00000
vn 0.00000 0.00000 1.00000
vn 1.00000 0.00000 0.00000
vn -1.00000 0.00000 0.00000
vn 0.00000 1.00000 0.00000
vn 0.00000 -1.00000 0.00000
vn 0.00000 0.00000 1.00000
vn 1.00000 0.00000 0.00000
vn -1.00000 0.00000 0.00000
vn 0.00000 1.00000 0.00000
vn 0.00000 -1.00000 0.00000
vn 0.00000 0.00000 1.00000
vn 1.00000 0.00000 0.00000
vn -1.00000 0.00000 0.00000
vn 0.00000 1.00000 0.00000
vn 0.00000 -1.00000 0.00000
vn 0.00000 0.00000 1.00000
vn 1.00000 0.00000 0.00000
vn -1.00000 0.00000 0.00000
vn 0.00000 1.00000 0.00000
vn 0.00000 -1.00000 0.00000
vn 0.00000 0.00000 1.00000
vn 1.00000 0.00000 0.00000
vn -1.00000 0.00000 0.00000
vn 0.00000 1.00000 0.00000
vn 0.00000 -1.00000 0.00000
vn 0.00000 0.00000 1.00000
vn -1.00000 0.00000 0.00000
vn 1.00000 0.00000 0.00000
usemtl concrete_dark
f 1/1/1 2/2/1 3/3/1 4/4/1
f 5/5/2 6/6/2 7/7/2 8/8/2
f 9/9/3 10/10/3 11/11/3 12/12/3
f 13/13/4 14/14/4 15/15/4 16/16/4
f 17/17/5 18/18/5 19/19/5 20/20/5
f 801/801/200 802/802/200 803/803/200 804/804/200
f 805/805/201 806/806/201 807/807/201 808/808/201
usemtl tile_red
f 21/21/6 22/22/6 23/23/6 24/24/6
usemtl concrete
f 25/25/7 26/26/7 27/27/7 28/28/7
f 29/29/8 30/30/8 31/31/8 32/32/8
f 33/33/9 34/34/9 35/35/9 36/36/9
f 37/37/10 38/38/10 39/39/10 40/40/10
f 41/41/11 42/42/11 43/43/11 44/44/11
f 45/45/12 46/46/12 47/47/12 48/48/12
f 57/57/15 58/58/15 59/59/15 60/60/15
f 61/61/16 62/62/16 63/63/16 64/64/16
f 65/65/17 66/66/17 67/67/17 68/68/17
f 69/69/18 70/70/18 71/71/18 72/72/18
f 73/73/19 74/74/19 75/75/19 76/76/19
f 77/77/20 78/78/20 79/79/20 80/80/20
f 81/81/21 82/82/21 83/83/21 84/84/21
f 85/85/22 86/86/22 87/87/22 88/88/22
f 89/89/23 90/90/23 91/91/23 92/92/23
f 93/93/24 94/94/24 95/95/24 96/96/24
f 97/97/25 98/98/25 99/99/25 100/100/25
f 101/101/26 102/102/26 103/103/26 104/104/26
f 105/105/27 106/106/27 107/107/27 108/108/27
f 109/109/28 110/110/28 111/111/28 112/112/28 113/113/28 114/114/28
f 115/115/29 116/116/29 117/117/29 118/118/29 119/119/29 120/120/29
f 133/133/33 134/134/33 135/135/33 136/136/33
f 137/137/34 138/138/34 139/139/34 140/140/34
f 141/141/35 142/142/35 143/143/35 144/144/35
f 145/145/36 146/146/36 147/147/36 148/148/36
f 149/149/37 150/150/37 151/151/37 152/152/37
f 153/153/38 154/154/38 155/155/38 156/156/38
f 193/193/48 194/194/48 195/195/48 196/196/48
f 197/197/49 198/198/49 199/199/49 200/200/49
f 201/201/50 202/202/50 203/203/50 204/204/50
f 205/205/51 206/206/51 207/207/51 208/208/51
f 209/209/52 210/210/52 211/211/52 212/212/52
f 213/213/53 214/214/53 215/215/53 216/216/53
f 253/253/63 254/254/63 255/255/63 256/256/63
f 257/257/64 258/258/64 259/259/64 260/260/64
f 261/261/65 262/262/65 263/263/65 264/264/65
f 265/265/66 266/266/66 267/267/66 268/268/66
f 269/269/67 270/270/67 271/271/67 272/272/67
f 273/273/68 274/274/68 275/275/68 276/276/68
f 313/313/78 314/314/78 315/315/78 316/316/78
f 317/317/79 318/318/79 319/319/79 320/320/79
f 321/321/80 322/322/80 323/323/80 324/324/80
f 325/325/81 326/326/81 327/327/81 328/328/81
f 329/329/82 330/330/82 331/331/82 332/332/82
f 333/333/83 334/334/83 335/335/83 336/336/83
f 373/373/93 374/374/93 375/375/93 376/376/93
f 377/377/94 378/378/94 379/379/94 380/380/94
f 381/381/95 382/382/95 383/383/95 384/384/95
f 385/385/96 386/386/96 387/387/96 388/388/96
f 389/389/97 390/390/97 391/391/97 392/392/97
f 393/393/98 394/394/98 395/395/98 396/396/98
f 433/433/108 434/434/108 435/435/108 436/436/108
f 437/437/109 438/438/109 439/439/109 440/440/109
f 441/441/110 442/442/110 443/443/110 444/444/110
f 445/445/111 446/446/111 447/447/111 448/448/111
f 449/449/112 450/450/112 451/451/112 452/452/112
f 453/453/113 454/454/113 455/455/113 456/456/113
f 493/493/123 494/494/123 495/495/123 496/496/123
f 497/497/124 498/498/124 499/499/124 500/500/124
f 501/501/125 502/502/125 503/503/125 504/504/125
f 505/505/126 506/506/126 507/507/126 508/508/126
f 509/509/127 510/510/127 511/511/127 512/512/127
f 513/513/128 514/514/128 515/515/128 516/516/128
f 553/553/138 554/554/138 555/555/138 556/556/138
f 557/557/139 558/558/139 559/559/139 560/560/139
f 561/561/140 562/562/140 563/563/140 564/564/140
f 565/565/141 566/566/141 567/567/141 568/568/141
f 569/569/142 570/570/142 571/571/142 572/572/142
f 573/573/143 574/574/143 575/575/143 576/576/143
f 613/613/153 614/614/153 615/615/153 616/616/153
f 617/617/154 618/618/154 619/619/154 620/620/154
f 621/621/155 622/622/155 623/623/155 624/624/155
f 625/625/156 626/626/156 627/627/156 628/628/156
f 629/629/157 630/630/157 631/631/157 632/632/157
f 633/633/158 634/634/158 635/635/158 636/636/158
usemtl tile_white
f 49/49/13 50/50/13 51/51/13 52/52/13
f 661/661/165 662/662/165 663/663/165 664/664/165
f 665/665/166 666/666/166 667/667/166 668/668/166
f 669/669/167 670/670/167 671/671/167 672/672/167
f 673/673/168 674/674/168 675/675/168 676/676/168
f 677/677/169 678/678/169 679/679/169 680/680/169
f 681/681/170 682/682/170 683/683/170 684/684/170
f 685/685/171 686/686/171 687/687/171 688/688/171
f 689/689/172 690/690/172 691/691/172 692/692/172
f 693/693/173 694/694/173 695/695/173 696/696/173
f 697/697/174 698/698/174 699/699/174 700/700/174
f 701/701/175 702/702/175 703/703/175 704/704/175
f 705/705/176 706/706/176 707/707/176 708/708/176
f 709/709/177 710/710/177 711/711/177 712/712/177
f 713/713/178 714/714/178 715/715/178 716/716/178
f 717/717/179 718/718/179 719/719/179 720/720/179
f 721/721/180 722/722/180 723/723/180 724/724/180
f 725/725/181 726/726/181 727/727/181 728/728/181
f 729/729/182 730/730/182 731/731/182 732/732/182
f 733/733/183 734/734/183 735/735/183 736/736/183
f 737/737/184 738/738/184 739/739/184 740/740/184
f 741/741/185 742/742/185 743/743/185 744/744/185
f 745/745/186 746/746/186 747/747/186 748/748/186
f 749/749/187 750/750/187 751/751/187 752/752/187
f 753/753/188 754/754/188 755/755/188 756/756/188
f 757/757/189 758/758/189 759/759/189 760/760/189
f 761/761/190 762/762/190 763/763/190 764/764/190
f 765/765/191 766/766/191 767/767/191 768/768/191
f 769/769/192 770/770/192 771/771/192 772/772/192
f 773/773/193 774/774/193 775/775/193 776/776/193
f 777/777/194 778/778/194 779/779/194 780/780/194
f 781/781/195 782/782/195 783/783/195 784/784/195
f 785/785/196 786/786/196 787/787/196 788/788/196
f 789/789/197 790/790/197 791/791/197 792/792/197
f 793/793/198 794/794/198 795/795/198 796/796/198
f 797/797/199 798/798/199 799/799/199 800/800/199
usemtl tile_green
f 53/53/14 54/54/14 55/55/14 56/56/14
f 121/121/30 122/122/30 123/123/30 124/124/30
f 125/125/31 126/126/31 127/127/31 128/128/31
f 129/129/32 130/130/32 131/131/32 132/132/32
f 181/181/45 182/182/45 183/183/45 184/184/45
f 185/185/46 186/186/46 187/187/46 188/188/46
f 189/189/47 190/190/47 191/191/47 192/192/47
f 241/241/60 242/242/60 243/243/60 244/244/60
f 245/245/61 246/246/61 247/247/61 248/248/61
f 249/249/62 250/250/62 251/251/62 252/252/62
f 301/301/75 302/302/75 303/303/75 304/304/75
f 305/305/76 306/306/76 307/307/76 308/308/76
f 309/309/77 310/310/77 311/311/77 312/312/77
f 361/361/90 362/362/90 363/363/90 364/364/90
f 365/365/91 366/366/91 367/367/91 368/368/91
f 369/369/92 370/370/92 371/371/92 372/372/92
f 421/421/105 422/422/105 423/423/105 424/424/105
f 425/425/106 426/426/106 427/427/106 428/428/106
f 429/429/107 430/430/107 431/431/107 432/432/107
f 481/481/120 482/482/120 483/483/120 484/484/120
f 485/485/121 486/486/121 487/487/121 488/488/121
f 489/489/122 490/490/122 491/491/122 492/492/122
f 541/541/135 542/542/135 543/543/135 544/544/135
f 545/545/136 546/546/136 547/547/136 548/548/136
f 549/549/137 550/550/137 551/551/137 552/552/137
f 601/601/150 602/602/150 603/603/150 604/604/150
f 605/605/151 606/606/151 607/607/151 608/608/151
f 609/609/152 610/610/152 611/611/152 612/612/152
usemtl granite
f 157/157/39 158/158/39 159/159/39 160/160/39
f 161/161/40 162/162/40 163/163/40 164/164/40
f 165/165/41 166/166/41 167/167/41 168/168/41
f 169/169/42 170/170/42 171/171/42 172/172/42
f 173/173/43 174/174/43 175/175/43 176/176/43
f 177/177/44 178/178/44 179/179/44 180/180/44
f 217/217/54 218/218/54 219/219/54 220/220/54
f 221/221/55 222/222/55 223/223/55 224/224/55
f 225/225/56 226/226/56 227/227/56 228/228/56
f 229/229/57 230/230/57 231/231/57 232/232/57
f 233/233/58 234/234/58 235/235/58 236/236/58
f 237/237/59 238/238/59 239/239/59 240/240/59
f 277/277/69 278/278/69 279/279/69 280/280/69
f 281/281/70 282/282/70 283/283/70 284/284/70
f 285/285/71 286/286/71 287/287/71 288/288/71
f 289/289/72 290/290/72 291/291/72 292/292/72
f 293/293/73 294/294/73 295/295/73 296/296/73
f 297/297/74 298/298/74 299/299/74 300/300/74
f 337/337/84 338/338/84 339/339/84 340/340/84
f 341/341/85 342/342/85 343/343/85 344/344/85
f 345/345/86 346/346/86 347/347/86 348/348/86
f 349/349/87 350/350/87 351/351/87 352/352/87
f 353/353/88 354/354/88 355/355/88 356/356/88
f 357/357/89 358/358/89 359/359/89 360/360/89
f 397/397/99 398/398/99 399/399/99 400/400/99
f 401/401/100 402/402/100 403/403/100 404/404/100
f 405/405/101 406/406/101 407/407/101 408/408/101
f 409/409/102 410/410/102 411/411/102 412/412/102
f 413/413/103 414/414/103 415/415/103 416/416/103
f 417/417/104 418/418/104 419/419/104 420/420/104
f 457/457/114 458/458/114 459/459/114 460/460/114
f 461/461/115 462/462/115 463/463/115 464/464/115
f 465/465/116 466/466/116 467/467/116 468/468/116
f 469/469/117 470/470/117 471/471/117 472/472/117
f 473/473/118 474/474/118 475/475/118 476/476/118
f 477/477/119 478/478/119 479/479/119 480/480/119
f 517/517/129 518/518/129 519/519/129 520/520/129
f 521/521/130 522/522/130 523/523/130 524/524/130
f 525/525/131 526/526/131 527/527/131 528/528/131
f 529/529/132 530/530/132 531/531/132 532/532/132
f 533/533/133 534/534/133 535/535/133 536/536/133
f 537/537/134 538/538/134 539/539/134 540/540/134
f 577/577/144 578/578/144 579/579/144 580/580/144
f 581/581/145 582/582/145 583/583/145 584/584/145
f 585/585/146 586/586/146 587/587/146 588/588/146
f 589/589/147 590/590/147 591/591/147 592/592/147
f 593/593/148 594/594/148 595/595/148 596/596/148
f 597/597/149 598/598/149 599/599/149 600/600/149
f 637/637/159 638/638/159 639/639/159 640/640/159
f 641/641/160 642/642/160 643/643/160 644/644/160
f 645/645/161 646/646/161 647/647/161 648/648/161
f 649/649/162 650/650/162 651/651/162 652/652/162
f 653/653/163 654/654/163 655/655/163 656/656/163
f 657/657/164 658/658/164 659/659/164 660/660/164
